<?xml version="1.0" encoding="UTF-8"?><svg id="logo_FiiHUB" xmlns="http://www.w3.org/2000/svg" xmlns:xlink="http://www.w3.org/1999/xlink" viewBox="0 0 560 94.27"><defs><style>.cls-1{fill:url(#Sfumatura_senza_nome_17-11);}.cls-2{fill:url(#Sfumatura_senza_nome_17-10);}.cls-3{fill:url(#Sfumatura_senza_nome_17-3);}.cls-4{fill:url(#Sfumatura_senza_nome_17-2);}.cls-5{fill:url(#Sfumatura_senza_nome_17-5);}.cls-6{fill:url(#Sfumatura_senza_nome_17-7);}.cls-7{fill:url(#Sfumatura_senza_nome_17-4);}.cls-8{fill:url(#Sfumatura_senza_nome_17-9);}.cls-9{fill:url(#Sfumatura_senza_nome_17-6);}.cls-10{fill:url(#Sfumatura_senza_nome_17-8);}.cls-11{fill:url(#Sfumatura_senza_nome_17);}</style><linearGradient id="Sfumatura_senza_nome_17" x1="92.71" y1="2.3" x2="24.2" y2="70.81" gradientTransform="matrix(1, 0, 0, 1, 0, 0)" gradientUnits="userSpaceOnUse"><stop offset="0" stop-color="#103d63"/><stop offset="1" stop-color="#3ce1e6"/></linearGradient><linearGradient id="Sfumatura_senza_nome_17-2" x1="82.73" y1="-7.68" x2="14.22" y2="60.83" xlink:href="#Sfumatura_senza_nome_17"/><linearGradient id="Sfumatura_senza_nome_17-3" x1="90.42" y1=".01" x2="21.92" y2="68.52" xlink:href="#Sfumatura_senza_nome_17"/><linearGradient id="Sfumatura_senza_nome_17-4" x1="105.18" y1="47.43" x2="561.24" y2="47.43" xlink:href="#Sfumatura_senza_nome_17"/><linearGradient id="Sfumatura_senza_nome_17-5" x1="105.18" y1="47.46" x2="561.24" y2="47.46" xlink:href="#Sfumatura_senza_nome_17"/><linearGradient id="Sfumatura_senza_nome_17-6" x1="105.18" y1="47.44" x2="561.24" y2="47.44" xlink:href="#Sfumatura_senza_nome_17"/><linearGradient id="Sfumatura_senza_nome_17-7" x1="105.18" y1="47.41" x2="561.24" y2="47.41" xlink:href="#Sfumatura_senza_nome_17"/><linearGradient id="Sfumatura_senza_nome_17-8" x1="105.18" y1="60.21" x2="561.24" y2="60.21" xlink:href="#Sfumatura_senza_nome_17"/><linearGradient id="Sfumatura_senza_nome_17-9" x1="105.18" y1="8.53" x2="561.24" y2="8.53" xlink:href="#Sfumatura_senza_nome_17"/><linearGradient id="Sfumatura_senza_nome_17-10" x1="105.18" y1="60.15" x2="561.24" y2="60.15" xlink:href="#Sfumatura_senza_nome_17"/><linearGradient id="Sfumatura_senza_nome_17-11" x1="105.18" y1="8.52" x2="561.24" y2="8.52" xlink:href="#Sfumatura_senza_nome_17"/></defs><g><path class="cls-11" d="M38.1,8.65c-.46-1.09-.49-7.4-.04-8.5,.85-.25,1.78-.14,2.69-.08,3.32,.24,6.63,.69,9.84,1.59,6.7,1.89,12.75,5.01,18.07,9.55,5.11,4.37,9.18,9.53,12.07,15.6,2.27,4.75,3.75,9.73,4.26,14.97,.19,1.94,.41,3.9,.36,5.84-.15,6.8-1.59,13.32-4.54,19.49-1.76,3.68-3.91,7.09-6.54,10.2-2.22,2.63-4.7,4.97-7.47,7.05-2.73,2.06-5.59,3.86-8.68,5.31-3.81,1.79-7.8,3.02-11.96,3.71-2.31,.38-4.61,.71-6.96,.61-.27-.01-.55-.02-.82-.04-.09,0-.18-.08-.36-.16v-8.15c1.11-.1,2.19-.23,3.27-.3,4.22-.29,8.24-1.36,12.13-3,3.54-1.5,6.76-3.54,9.65-6.04,3.48-3,6.44-6.46,8.66-10.52,2.25-4.1,3.79-8.44,4.46-13.08,1.02-7.13,.12-14.01-2.67-20.64-1.46-3.48-3.46-6.63-5.86-9.53-2.58-3.11-5.63-5.7-9.04-7.89-3.24-2.08-6.72-3.62-10.44-4.55-2.19-.55-4.45-.81-6.68-1.15-1.11-.17-2.25-.2-3.42-.29Z"/><path class="cls-4" d="M35.43,11.72v8.64c-.91,.11-1.75,.22-2.59,.3-6.96,.65-12.74,3.66-17.38,8.83-3.62,4.04-5.83,8.81-6.52,14.19-.93,7.33,.97,13.94,5.44,19.8,2.41,3.16,5.44,5.64,8.98,7.41,3.05,1.52,6.3,2.54,9.76,2.72,.71,.04,1.42,.18,2.11,.27,.3,.78,.35,7.32,.04,8.55-.87,0-1.78,.07-2.69-.01-3.78-.34-7.44-1.22-10.94-2.72-3.15-1.34-6.05-3.07-8.7-5.23-3.86-3.15-6.93-6.96-9.18-11.38-1.94-3.81-3.26-7.86-3.55-12.17-.15-2.19-.3-4.39-.16-6.57,.24-3.75,1.14-7.38,2.6-10.86,1.53-3.64,3.59-6.93,6.22-9.88,5.6-6.28,12.58-10.08,20.85-11.53,1.45-.25,2.93-.33,4.4-.46,.39-.03,.79,.06,1.31,.11Z"/><path class="cls-3" d="M37.91,30.06c-.28-2.86-.2-5.64-.07-8.39,5.53-.84,14.78,2.58,20.09,9.24,7.24,9.09,7.47,21.01,1.56,30.17-5.43,8.41-15.06,11.95-21.48,11.52-.19-2.76-.07-5.54-.09-8.43,5.52-.31,10.04-2.39,13.4-6.67,2.46-3.13,3.62-6.71,3.55-10.72-.08-4.64-1.81-8.56-5.07-11.79-3.23-3.2-7.23-4.75-11.9-4.94Z"/></g><g><path class="cls-7" d="M559.32,61.87c-.86-3.75-2.61-7-5.33-9.7-1.91-1.89-4.12-3.41-6.59-4.52-.3-.14-.58-.31-1-.54,1.02-.51,1.91-.94,2.78-1.4,2.83-1.52,5.2-3.55,7.01-6.22,2.13-3.13,3.04-6.68,3.29-10.37,.24-3.56,.05-7.11-.89-10.61-1.68-6.27-5.41-10.84-11.12-13.85-5.38-2.84-11.22-3.88-17.2-3.92-14.53-.11-29.06-.05-43.59-.02-1.01,0-2.07,.17-3.03,.47-2.24,.71-3.66,2.26-4.1,4.59-.17,.87-.22,1.77-.23,2.65-.01,26.01,0,52.03,0,78.04,0,.45,0,.89,.02,1.34,.13,3.05,1.93,5.39,4.79,6.07,.99,.24,2.04,.32,3.06,.33,13.74,.02,27.48,.03,41.22,0,2.36,0,4.73-.19,7.08-.39,4.61-.39,8.96-1.7,12.99-3.97,2.62-1.48,4.93-3.34,6.77-5.76,2.96-3.87,4.32-8.33,4.66-13.09,.22-3.04,.12-6.09-.58-9.11Zm-63.87-43.53c.11-.89,.38-1.21,1.25-1.39,.5-.11,1.02-.17,1.53-.17,9.99-.01,19.98-.05,29.97,.02,2.21,.01,4.43,.21,6.62,.76,4.63,1.17,7.51,5.02,8.04,9.5,.19,1.59,.16,3.14-.14,4.7-.7,3.63-2.94,5.96-6.34,7.21-1.84,.68-3.76,1.05-5.74,1.06-11.22,.06-22.45,.12-33.67,.18-.44,0-.88,0-1.48,0-.03-.54-.06-.91-.06-1.28,0-6.59,0-13.17,0-19.76,0-.27,0-.55,.03-.82Zm46.9,52.93c-1.04,2.56-2.9,4.29-5.42,5.33-2.12,.87-4.37,1.27-6.64,1.28-10.92,.04-21.85,.02-32.77,.01-1.61,0-2.09-.49-2.09-2.09,0-6.93,0-13.87,0-20.8,0-.33,.04-.67,.07-1.19h1.26c11.06,0,22.12,0,33.19,0,2.53,0,4.98,.43,7.32,1.43,3.35,1.44,5.18,4.03,5.86,7.54,.56,2.9,.35,5.73-.77,8.48Z"/><path class="cls-5" d="M338.72,.93v1.36c0,11.67,0,23.34,0,35.01,0,.46-.07,.92-.1,1.35-1.78,.25-46.65,.14-47.51-.14V.75h-16.28c-.09,.15-.14,.2-.15,.27-.03,.17-.06,.34-.06,.51,0,30.65,0,61.3,0,91.95,0,.17,.06,.33,.1,.5,0,.03,.04,.05,.06,.08,.02,.03,.05,.05,.06,.07,1.58,.27,15.52,.15,16.34-.18V55.35h47.55c0,.62,0,1.09,0,1.57,0,11.94,0,23.89,0,35.83,0,.46,.07,.92,.11,1.35,1.44,.24,15.71,.17,16.46-.06,.24-.99,.21-92.39-.03-93.2-1.02-.27-15.63-.22-16.54,.1Z"/><path class="cls-9" d="M457.39,.82c-1.47-.29-15.2-.19-16.03,.13,0,.43,0,.9,0,1.38,0,20.01,0,40.02-.01,60.03,0,2.16-.17,4.32-.81,6.4-1.07,3.49-3.13,6.15-6.57,7.59-2.08,.88-4.28,1.3-6.52,1.32-6.32,.06-12.64,.02-18.96,.02-1.97,0-3.9-.27-5.79-.82-3.18-.93-5.63-2.76-7.1-5.81-1.17-2.4-1.61-4.93-1.61-7.58,0-20.39,0-40.78,0-61.17,0-.5-.04-1-.07-1.58h-16.84v1.66c0,20.32,0,40.64,0,60.96,0,2.88,.16,5.76,.62,8.6,.58,3.58,1.6,7.02,3.45,10.17,2.36,4.03,5.67,7.05,9.9,9,4.46,2.05,9.21,2.99,14.09,3.04,7.28,.07,14.57,.04,21.85,.02,1.71,0,3.43-.07,5.14-.21,3.44-.28,6.8-.96,10-2.27,5.43-2.22,9.56-5.86,12.17-11.15,2.15-4.36,3.13-9.04,3.15-13.84,.09-21.62,.04-43.25,.04-64.87,0-.36-.07-.72-.1-1.04Z"/><path class="cls-6" d="M142.77,.66c-1.95,0-3.91,.08-5.86,.19-4.32,.25-8.49,1.14-12.49,2.82-8.25,3.47-13.54,9.49-15.81,18.16-.97,3.71-1.35,7.49-1.38,11.3-.05,5.63-.01,11.26-.01,16.89,0,14.21,0,28.42,0,42.63,0,.5,.06,.99,.09,1.53h16.49c.04-.52,.1-.99,.1-1.45,0-11.29,0-22.59,0-33.88,0-.46,.06-.93,.09-1.5h1.53c17.69,0,35.39,0,53.08,0,.5,0,1-.06,1.46-.09,.28-1.5,.19-14.8-.12-15.63h-55.96c-.03-.5-.08-.86-.08-1.23,0-2.64-.03-5.29,0-7.93,.01-1.09,.08-2.2,.25-3.28,.71-4.62,3.18-7.93,7.45-9.91,3.28-1.52,6.76-2.05,10.32-2.06,12.44-.04,24.87-.02,37.31-.02,.47,0,.94-.05,1.49-.08V.65c-.63,0-1.11,0-1.58,0-12.13,0-24.26-.01-36.38,0Z"/><path class="cls-10" d="M214.9,26.24h-14.67c-.35,1-.32,67.07,.02,67.93h14.54c.33-.94,.51-56.11,.23-66.92,0-.33-.08-.65-.13-1.01Z"/><path class="cls-8" d="M214.87,16.48c.28-1,.27-14.99-.01-15.92h-14.65c-.34,1.26-.27,15.16,.04,15.92h14.62Z"/><path class="cls-2" d="M252.88,26.45s-.04-.05-.06-.08c-.02-.02-.05-.05-.08-.07-1.45-.25-13.84-.15-14.54,.12-.22,1.35-.15,66.94,.1,67.75h14.49c.08-.21,.14-.3,.16-.4,.03-.17,.04-.34,.04-.51,0-22.1,0-44.2,0-66.3,0-.17-.06-.33-.09-.5Z"/><path class="cls-1" d="M238.23,.57c-.3,1.62-.19,15.21,.1,15.91h14.63c.32-1.13,.27-15.06-.07-15.91h-14.67Z"/></g></svg>