<?xml version="1.0" encoding="UTF-8"?><svg id="logo_FIWARESpace" xmlns="http://www.w3.org/2000/svg" viewBox="0 0 560 250.88"><defs><style>.cls-1{fill:#002e6d;}.cls-2{fill:#e1251b;}</style></defs><path class="cls-2" d="M120.5,21.61c5.96,0,10.8-4.84,10.8-10.8S126.46,0,120.5,0s-10.81,4.84-10.81,10.8,4.84,10.8,10.81,10.8Z"/><path class="cls-2" d="M88.91,28c4.35,0,7.86-3.52,7.86-7.87,0-4.34-3.52-7.86-7.86-7.86s-7.86,3.52-7.86,7.86,3.52,7.87,7.86,7.87Z"/><path class="cls-2" d="M152.09,28.02c4.34,0,7.86-3.52,7.86-7.86s-3.52-7.86-7.86-7.86-7.87,3.52-7.87,7.86,3.52,7.86,7.87,7.86Z"/><path class="cls-2" d="M65.53,95.88h23.43v-20.73h-23.43v-16.45h29.02l1.12-20.73H39.6V126.63c8.45-3.43,17.09-6.29,25.93-8.55v-22.19Z"/><path class="cls-2" d="M107.12,111.84c.21,0,.43-.03,.64-.04,8.45-.35,16.9-.15,25.28,.57V55.41l5.66-.86v-16.58h-37.25v16.58l5.66,.86v56.43Z"/><path class="cls-2" d="M227.22,118.74c5.13-1.31,10.91-1.98,17.15-1.98,1.55,0,3.09,.1,4.63,.18l11.65-60.01,1.12-18.95h-25.27l-7.11,58.96-.33,6.85h-1.05l-.59-6.71-12.9-59.09h-22.64l-12.9,59.09-.59,6.71h-1.05l-.33-6.85-7.11-58.96h-25.27l1.55,16.92,11.28,61.09c12.17,2.58,24.04,6.29,35.42,11.09h.32l8.49-36.98,1.12-11.19h.79l1.12,11.19,8.1,35.28c4.1-2.99,8.92-5.24,14.41-6.63Z"/><path class="cls-2" d="M286.71,113.26h25.66l3.16,13.82h25.93l-2.5-13.89-21.98-75.75-29.55,.59c-2.98,0-5.95,.01-8.88,.03-2.94,.02-5.79,.03-8.56,.03l.79,17.9,5.73,.99-16.45,56.2-.85,4.83c2.33,.42,4.83,.96,7.44,1.6,2.66,.66,5.47,1.46,8.36,2.37l8.99,2.85,2.7-11.58Zm11.39-50.15l.86-6.19h1.12l.86,6.19,6.71,29.35h-16.12l6.58-29.35Z"/><path class="cls-2" d="M373.38,99.04h4.74c1.27,0,2.32,.32,3.16,.95,.83,.64,1.52,1.47,2.07,2.5,.55,1.03,1.02,2.19,1.42,3.46,.39,1.27,.77,2.57,1.12,3.88l4.61,17.24h26.85l-6.78-23.3c-1.01-3.73-2.24-6.58-3.69-8.55s-2.87-3.27-4.28-3.88c2.54-.96,4.71-2.46,6.48-4.48,1.78-2.02,3.2-4.24,4.28-6.68s1.85-4.95,2.34-7.53c.48-2.59,.72-4.96,.72-7.11,0-5.27-.88-9.66-2.63-13.2-1.75-3.53-4.28-6.36-7.57-8.49-3.29-2.13-7.3-3.64-12.04-4.54-4.74-.9-10.09-1.35-16.06-1.35h-30.14V127.08h25.4v-28.03Zm0-40.34h7.24c1.4,0,2.72,.14,3.95,.43,1.23,.28,2.29,.78,3.19,1.48,.9,.7,1.61,1.65,2.14,2.83,.53,1.18,.79,2.68,.79,4.47,0,1.62-.16,3.14-.46,4.54-.31,1.41-.85,2.62-1.61,3.65-.77,1.03-1.8,1.84-3.09,2.43s-2.91,.89-4.84,.89h-7.3v-20.73Z"/><polygon class="cls-2" points="485.95 106.35 452.72 106.35 452.72 92.66 477.99 92.66 477.99 71.93 452.72 71.93 452.72 58.77 484.77 58.77 485.89 37.97 426.79 37.97 426.79 127.08 487.07 127.08 485.95 106.35"/><path class="cls-1" d="M426.06,205.51c-1.17-2.02-1.76-4.68-1.76-8v-30.63c0-4.69-.68-8.64-2.03-11.83-1.35-3.19-3.34-5.77-5.97-7.73s-5.87-3.37-9.73-4.21c-3.85-.84-8.26-1.26-13.21-1.26-5.51,0-10.73,.55-15.66,1.65-4.93,1.1-9.92,2.9-14.97,5.4l3.98,15.39c3.98-1.48,8.03-2.47,12.14-2.99,4.11-.51,8.18-.77,12.21-.77,2.09,0,3.8,.26,5.13,.77,1.32,.51,2.37,1.19,3.14,2.03,.76,.84,1.29,1.79,1.57,2.83,.28,1.05,.42,2.08,.42,3.1v3.83l-10.95,.61c-11.13,.41-19.4,2.58-24.81,6.51-5.41,3.93-8.12,9.85-8.12,17.77,0,8.32,2.22,14.55,6.66,18.68,4.44,4.13,10.82,6.2,19.14,6.2,2.96,0,5.52-.26,7.69-.76,2.17-.51,4.1-1.2,5.78-2.07,1.68-.87,3.2-1.87,4.56-3.02,1.35-1.15,2.69-2.36,4.02-3.64,.87,1.84,2.09,3.37,3.67,4.6s3.34,2.17,5.28,2.83c1.94,.67,3.94,1.09,6.01,1.26,2.07,.18,3.99,.14,5.78-.11l3.91-12.25c-1.43-.77-2.73-2.16-3.91-4.17Zm-24.73-3.25c-.61,.61-1.38,1.22-2.3,1.84-.92,.61-1.91,1.15-2.99,1.61-1.07,.46-2.16,.84-3.26,1.15-1.1,.31-2.13,.46-3.1,.46-6.18,0-9.27-3.32-9.27-9.95,0-2.76,1.02-4.98,3.06-6.66,2.04-1.69,5.16-2.68,9.34-2.99l8.5-.61v15.16Z"/><path class="cls-1" d="M477.84,204.44c-2.45,.43-4.42,.65-5.9,.65-2.61,0-4.85-.34-6.74-1.03-1.89-.69-3.45-1.92-4.67-3.68s-2.13-4.13-2.72-7.12c-.59-2.99-.88-6.78-.88-11.37s.31-8.18,.92-11.06c.61-2.88,1.53-5.15,2.76-6.82,1.22-1.66,2.77-2.8,4.63-3.45,1.86-.64,4.07-.96,6.62-.96,1.43,0,3.34,.19,5.74,.57,2.4,.38,5.31,1.37,8.73,2.95l5.51-15.7c-3.47-1.78-7.02-3.16-10.64-4.13-3.62-.97-7.6-1.45-11.94-1.45-5.67,0-10.71,.76-15.12,2.3-4.41,1.53-8.15,3.92-11.22,7.16-3.06,3.24-5.4,7.42-7.01,12.52-1.61,5.1-2.41,11.21-2.41,18.3s.76,13.38,2.3,18.53c1.53,5.16,3.83,9.38,6.89,12.67,3.06,3.3,6.86,5.71,11.37,7.24,4.52,1.53,9.76,2.3,15.74,2.3,1.94,0,3.82-.1,5.63-.3,1.81-.2,3.61-.52,5.4-.96,1.79-.44,3.59-1.01,5.4-1.72,1.81-.71,3.69-1.58,5.63-2.6l-5.51-15.7c-3.21,1.48-6.05,2.44-8.5,2.87Z"/><path class="cls-1" d="M558.08,162.86c-1.28-4.37-3.23-8.1-5.86-11.22-2.63-3.11-5.99-5.53-10.07-7.24-4.09-1.71-8.96-2.56-14.63-2.56s-10.96,.79-15.43,2.37c-4.47,1.59-8.19,4.05-11.18,7.39-2.99,3.34-5.25,7.57-6.78,12.67-1.53,5.11-2.3,11.18-2.3,18.22,0,13.73,3.04,23.89,9.11,30.48,6.07,6.58,14.98,9.88,26.72,9.88,6.54,0,12.34-.59,17.42-1.76,5.08-1.17,9.53-2.73,13.36-4.67l-2.68-15.09c-3.52,.97-7.12,1.76-10.8,2.37-3.67,.61-7.35,.92-11.03,.92-3.11,0-5.78-.29-8-.88s-4.06-1.48-5.51-2.68c-1.46-1.2-2.55-2.71-3.29-4.52-.74-1.81-1.19-3.97-1.34-6.47h42.04c.2-.56,.42-1.3,.65-2.22,.23-.92,.46-1.95,.69-3.1,.23-1.15,.42-2.37,.57-3.67,.15-1.3,.23-2.57,.23-3.79,0-5.26-.64-10.07-1.92-14.43Zm-42.65,11.83c.1-4.8,1.15-8.36,3.14-10.68,1.99-2.32,4.9-3.48,8.73-3.48s6.41,1.13,8.19,3.37c1.78,2.25,2.68,5.85,2.68,10.8h-22.74Z"/><path class="cls-1" d="M268.39,178.87c-2.06-2.02-4.55-3.82-7.47-5.42-2.92-1.59-6.21-3.1-9.89-4.54-3.99-1.53-7.18-2.84-9.55-3.94-2.38-1.1-4.2-2.13-5.45-3.1-1.26-.96-2.09-1.95-2.49-2.96-.4-1.01-.61-2.21-.61-3.6,0-2.78,1.12-4.88,3.37-6.29,2.24-1.41,5.54-2.12,9.89-2.12,3.05,0,6.23,.26,9.55,.77,3.32,.52,7.24,1.36,11.77,2.52l3.64-16.01c-2.69-.85-5.22-1.57-7.57-2.15-2.36-.58-4.6-1.07-6.73-1.45-2.13-.38-4.21-.65-6.26-.81-2.04-.16-4.12-.24-6.22-.24-5.2,0-9.87,.53-13.99,1.58-4.13,1.05-7.62,2.68-10.49,4.88-2.87,2.2-5.06,4.95-6.56,8.27-1.5,3.32-2.26,7.27-2.26,11.84,0,3.5,.49,6.6,1.48,9.32,.99,2.72,2.57,5.17,4.74,7.37,2.18,2.2,4.99,4.2,8.44,5.99,3.45,1.8,7.65,3.57,12.58,5.31,2.69,.94,4.98,1.81,6.86,2.59,1.89,.79,3.4,1.65,4.54,2.59,1.14,.94,1.97,2.01,2.49,3.19,.51,1.19,.77,2.61,.77,4.27s-.36,3.13-1.08,4.41c-.72,1.28-1.72,2.36-2.99,3.23-1.28,.88-2.78,1.54-4.51,1.99-1.73,.45-3.6,.67-5.62,.67-8.12,0-16.48-1.66-25.09-4.98l-4.24,15.81c1.57,.81,3.42,1.6,5.55,2.39,2.13,.79,4.48,1.48,7.06,2.08,2.58,.61,5.35,1.1,8.31,1.48,2.96,.38,6.05,.57,9.29,.57,5.56,0,10.52-.62,14.87-1.85,4.35-1.23,8.03-3.07,11.04-5.52,3-2.44,5.29-5.5,6.86-9.18,1.57-3.68,2.36-7.98,2.36-12.92,0-3.45-.55-6.49-1.65-9.12-1.1-2.62-2.68-4.94-4.74-6.96Z"/><path class="cls-1" d="M344.31,151.03c-2.5-3.22-5.6-5.55-9.3-7.01-3.7-1.46-7.93-2.18-12.67-2.18-2.25,0-4.41,.36-6.47,1.07-2.07,.72-3.97,1.59-5.7,2.64-1.74,1.05-3.26,2.16-4.56,3.33-1.3,1.17-2.29,2.19-2.95,3.06l-1.38-7.97h-18.15v106.9h22.97v-35.07c.61,.82,1.44,1.65,2.49,2.49,1.05,.84,2.26,1.61,3.64,2.3s2.93,1.25,4.67,1.69c1.73,.43,3.6,.65,5.59,.65,4.24,0,8.15-.73,11.75-2.18,3.6-1.46,6.71-3.79,9.34-7.01,2.63-3.21,4.68-7.39,6.16-12.52,1.48-5.13,2.22-11.4,2.22-18.8s-.65-13.68-1.95-18.84c-1.3-5.15-3.2-9.34-5.7-12.56Zm-16.5,42.57c-.54,2.86-1.33,5.13-2.37,6.82s-2.31,2.88-3.79,3.6c-1.48,.72-3.17,1.07-5.06,1.07-2.35,0-4.35-.36-6.01-1.07-1.66-.72-3.15-1.61-4.48-2.68v-37.22c1.43-1.02,3.08-2.03,4.94-3.02,1.86-.99,3.76-1.49,5.71-1.49,2.3,0,4.21,.49,5.74,1.46,1.53,.97,2.74,2.43,3.64,4.36,.89,1.94,1.53,4.36,1.91,7.27,.39,2.91,.57,6.31,.57,10.19,0,4.29-.27,7.86-.8,10.72Z"/><path class="cls-2" d="M195.14,140.68c-27.5-12.98-57.36-18.6-86.9-17.37-4.46,.19-8.92,.54-13.35,1.03-25.89,2.9-51.22,11.07-74.15,24.17-6.1,3.48-12.04,7.29-17.76,11.47-5.67,4.14-2.41,6.92,2.96,4.3,54.08-26.43,132.13-23.93,174.55-.78,9.72,5.31,22.59-8.14,19.85-17.22-.68-2.25-2.3-4.24-5.19-5.6Z"/></svg>