<?xml version="1.0" encoding="UTF-8"?><svg id="logo_Eprosima" xmlns="http://www.w3.org/2000/svg" viewBox="0 0 560 132.11"><defs><style>.cls-1{fill:#034579;}.cls-2{fill:#3e3e3e;}.cls-3{fill:#1b8abd;}</style></defs><g><g id="g461"><path id="path463" class="cls-1" d="M90.62,43.95c-2.13-2.13-4.96-3.3-7.98-3.3s-5.85,1.16-7.97,3.3c-2.13,2.13-3.31,4.96-3.31,7.98s1.18,5.84,3.31,7.98l19,19-19,19c-.42,.42-.79,.88-1.14,1.35l-5.62,5.62-19-19c-1.69-1.69-3.82-2.77-6.15-3.15-.74-.15-1.5-.24-2.27-.24l-11.31-.11-17.91-.05c-6.2-.01-11.25,5.03-11.27,11.23,0,3.01,1.16,5.83,3.28,7.96,2.12,2.13,4.95,3.31,7.95,3.31l24.79,.06,23.92,23.92c2.13,2.13,4.96,3.3,7.98,3.3s5.85-1.17,7.98-3.3l26.97-26.98c.42-.42,.79-.87,1.13-1.33l13.61-13.61c2.13-2.13,3.3-4.96,3.3-7.98s-1.17-5.85-3.3-7.98l-26.99-26.97Z"/></g><path id="path465" class="cls-3" d="M146.83,30.43c-2.13-2.13-4.95-3.3-7.96-3.31l-11.3-.1-13.48-.03L90.41,3.3c-1.85-1.85-4.3-3.01-6.9-3.25-.36-.04-.72-.05-1.08-.05-.72,0-1.45,.07-2.15,.2-2.22,.43-4.23,1.5-5.83,3.1l-26.01,26.02c-.38,.38-.71,.78-1.03,1.2l-13.69,13.7c-1.85,1.85-3.01,4.3-3.26,6.89-.04,.36-.05,.72-.05,1.08,0,.72,.07,1.45,.2,2.15,.43,2.21,1.5,4.23,3.1,5.83l26.02,26.02c2.13,2.13,4.96,3.3,7.98,3.3s5.84-1.17,7.98-3.3c4.4-4.4,4.39-11.56,0-15.95l-18.04-18.04,18.99-19c.38-.38,.72-.79,1.04-1.21l4.74-4.74,19,19c2.13,2.13,4.97,3.3,7.98,3.3,.39,0,.77-.02,1.15-.06l28.33,.06c2.92-.03,5.67-1.16,7.75-3.19,.29-.28,.57-.58,.83-.9,1.66-1.99,2.57-4.54,2.57-7.15l.07,.09c0-3-1.16-5.83-3.28-7.96h0Z"/></g><g><path class="cls-2" d="M538.8,48.6h-5.16l-21.13,45.83v1.75h11.74l2.75-5.9h18.52l2.75,5.9h11.74v-1.75l-21.2-45.83Zm-7.91,31.41l5.31-12.35,5.43,12.35h-10.73Z"/><path class="cls-2" d="M481.56,69.47l-18.39-20.4h-4.43v47.1h12.28v-20.93l9.93,10.46h1.35l9.99-10.46v20.93h12.28V49.07h-4.29l-18.72,20.4Z"/><polygon class="cls-2" points="435.24 59.67 435.24 85.64 435.24 96.17 447.12 96.17 447.12 85.64 447.12 59.67 447.12 49.21 435.24 49.21 435.24 59.67"/><path class="cls-2" d="M406.09,68.26c-4.23-.47-7.72-1.21-7.45-4.76,.4-5.56,13.02-6.1,13.02,.14h11.41c.27-20.26-36.23-20.26-35.83,0,.13,10.2,6.84,13.69,17.04,14.42,4.7,.27,8.59,1.01,8.59,4.3,0,5.5-14.7,5.44-14.69-.54h-11.6c-.27,20.67,37.97,20.33,37.97,.6,0-11.74-9.13-13.15-18.45-14.15Z"/><path class="cls-2" d="M331.81,72.76c0,32.55,48.17,32.55,48.17,0,0-32.47-48.17-32.47-48.17,0Zm12.34,0c0-16.91,23.55-16.91,23.55,0s-23.55,17.05-23.55,0Z"/><path class="cls-2" d="M308.49,49.21h-20.61v46.96h12.02v-13.82h6.24l8.05,13.82h13.42v-1.75l-9.19-14.89c11.87-8.05,8.51-30.27-9.94-30.33Zm0,22.47h-8.59v-11.74c2.82,0,5.77-.07,8.59,0,6.84,.07,6.5,11.74,0,11.74Z"/><path class="cls-2" d="M254.55,34.84h-26.85v61h15.6v-15.6h11.24c29.2,0,29.2-45.32,0-45.4Zm-.08,31.37h-11.16v-17.43c3.57,0,7.5-.09,11.16,0,9.06,.09,8.54,17.43,0,17.43Z"/><path class="cls-2" d="M196.18,76.75h16.12v-10.77h-16.12v-6.71h17.54v-10.84h-29.59v47.4h30.21v-10.76h-18.15v-8.33Z"/></g></svg>