<?xml version="1.0" encoding="UTF-8"?><svg id="logo_FIWAREInnovaiHub" xmlns="http://www.w3.org/2000/svg" viewBox="0 0 560 137.6"><defs><style>.cls-1{fill:#002e67;}.cls-2{fill:#002d6a;}.cls-3{fill:#5dc0cf;}.cls-4{fill:#4cc3d2;}</style></defs><g><path class="cls-3" d="M481.33,125.66h-10.89v-17.68h-21.78v17.68h-10.89v-43.69h10.89v17.55h21.78v-17.55h10.89v43.69Z"/><path class="cls-3" d="M524.12,81.97v24.79c0,14.48-9.86,19.47-21.84,19.47-12.68,0-21.85-5.89-21.85-19.41v-24.85h10.89v25.11c0,6.28,4.55,10.06,10.83,10.06,5.77,0,11.08-3.01,11.08-10.83v-24.34h10.89Z"/><path class="cls-3" d="M542.19,81.97c10.31,0,14.48,6.09,14.48,10.95,0,3.65-2.31,6.92-5.96,8.71,6.21,1.6,9.29,6.09,9.29,11.21s-2.69,12.81-15.44,12.81h-21.27v-43.69h18.9Zm-8.01,17.36h5.7c3.97,0,5.57-2.43,5.57-4.74s-1.6-4.61-5.57-4.61h-5.7v9.35Zm0,18.32h6.15c6.02,0,8.14-1.6,8.14-5.38,0-3.2-2.82-4.93-6.66-4.93h-7.62v10.31Z"/><path class="cls-1" d="M437.77,86.52c0,2.57-2.1,4.68-4.68,4.68s-4.68-2.1-4.68-4.68,2.1-4.68,4.68-4.68,4.68,2.1,4.68,4.68Zm0,39.14h-9.29v-29.53h9.29v29.53Z"/></g><g><g><path class="cls-1" d="M229.94,41.34h-23.45v24.98c0,.85-.69,1.53-1.53,1.53h-3.9c-.84,0-1.53-.69-1.53-1.53V24.76c0-10.16,5.57-14.21,16.27-14.21,4.5,0,11.69,.15,14.9,.46,.46,.08,.77,.61,.77,1.07v3.82c0,.53-.31,.92-.84,.92h-14.75c-8.1,0-9.4,2.14-9.4,7.94v10.62h23.45c.84,0,1.53,.69,1.53,1.53v2.9c0,.84-.69,1.53-1.53,1.53"/><path class="cls-1" d="M247.97,67.85h-4.2c-.76,0-1.38-.69-1.38-1.53V12.53c0-.76,.54-1.45,1.38-1.45h4.2c.76,0,1.37,.61,1.37,1.45v53.79c0,.76-.54,1.53-1.37,1.53"/><path class="cls-3" d="M303.48,68.38c-3.97,0-7.64-.38-12-1.91-4.36,1.53-7.95,1.91-11.91,1.91-11.62,0-16.2-7.57-16.2-20.85V12.53c0-.76,.61-1.45,1.45-1.45h4.05c.76,0,1.45,.69,1.45,1.45V47.53c0,10.31,2.06,14.97,10.69,14.97,1.3,0,5.35-.23,7.03-.69V12.53c0-.76,.61-1.45,1.45-1.45h4.13c.84,0,1.37,.53,1.37,1.37V61.81c1.68,.46,5.74,.69,7.03,.69,8.64,0,10.7-4.67,10.7-14.97V12.53c0-.76,.61-1.45,1.45-1.45h4.05c.76,0,1.45,.69,1.45,1.45V47.53c0,13.29-4.58,20.85-16.2,20.85"/><path class="cls-3" d="M367.5,67.85h-4.2c-.76,0-1.38-.69-1.38-1.53v-22.62h-23.38v22.62c0,.76-.54,1.53-1.37,1.53h-4.21c-.76,0-1.37-.76-1.37-1.53V26.37c0-11.69,5.42-15.82,16.43-15.82h4.44c10.92,0,16.42,4.13,16.42,15.82v39.96c0,.76-.61,1.53-1.37,1.53m-5.58-41.48c0-7.95-2.51-9.71-9.47-9.71h-4.44c-6.95,0-9.47,1.76-9.47,9.71v11.23h23.38v-11.23Z"/><path class="cls-3" d="M418.61,67.85h-4.89c-.92,0-1.37,0-1.98-.99l-13.68-22.77h-1.99c-2.52,0-4.35-.08-8.4-.22v22.46c0,.76-.53,1.53-1.38,1.53h-4.12c-.76,0-1.37-.69-1.37-1.53V12.84c0-1.07,.45-1.53,1.83-1.68,3.29-.38,9.01-.62,13.45-.62,12.08,0,21.39,4.06,21.39,16.43v.53c0,8.56-5.04,13.61-11.99,15.44l13.9,23.23c.16,.23,.23,.46,.23,.69,0,.53-.38,.99-.99,.99m-8.02-40.88c0-7.64-4.97-10.16-14.52-10.16-2.37,0-6.57,0-8.4,.23v20.93c3.37,.07,6.65,.15,8.4,.15,9.4,0,14.52-2.37,14.52-10.62v-.53Z"/><path class="cls-3" d="M459.71,68c-2.9,.31-10.39,.38-14.9,.38-10.7,0-16.28-4.05-16.28-14.21V24.76c0-10.16,5.58-14.22,16.28-14.22,4.51,0,11.69,.16,14.9,.46,.46,.08,.77,.61,.77,1.06v3.83c0,.53-.3,.92-.84,.92h-14.75c-8.1,0-9.4,2.14-9.4,7.95v10.62h23.46c.84,0,1.53,.69,1.53,1.53v2.9c0,.84-.69,1.53-1.53,1.53h-23.46v12.83c0,5.8,1.3,7.95,9.4,7.95h14.75c.54,0,.84,.38,.84,.92v3.9c0,.46-.3,.99-.77,1.07"/><path class="cls-3" d="M117.2,9c4.57,.74,8.57,2.18,11.88,4.14,3.34,1.97,5.97,4.49,7.8,7.37,1.86,2.91,2.89,6.21,2.97,9.71,.09,3.53-.79,7.29-2.74,11.07-1.97,3.82-4.84,7.3-8.36,10.3-3.53,3.02-7.71,5.57-12.23,7.51-4.54,1.95-9.42,3.28-14.36,3.9-4.93,.61-9.92,.49-14.66-.48-4.71-.94-8.73-2.62-11.97-4.85-3.21-2.2-5.63-4.93-7.2-8-1.55-3.03-2.24-6.41-2.02-9.92,.23-3.48,1.37-7.12,3.51-10.72,2.13-3.58,5.02-6.82,8.46-9.59,3.42-2.77,7.38-5.11,11.63-6.9,4.25-1.79,8.79-3.05,13.41-3.69,4.63-.63,9.33-.63,13.88,.13"/><path class="cls-3" d="M119.35,5.12c7.64,1.22,14.35,3.61,19.94,6.88,5.66,3.31,10.21,7.54,13.41,12.43,3.26,4.97,5.14,10.62,5.44,16.67,.28,6.13-1.08,12.68-4.32,19.29-3.29,6.72-8.19,12.85-14.25,18.16-6.08,5.36-13.32,9.86-21.19,13.27-7.89,3.41-16.38,5.73-24.96,6.72-8.53,.97-17.12,.63-25.24-1.2-8.03-1.81-14.8-4.93-20.18-8.97-5.3-3.98-9.21-8.85-11.64-14.27-2.39-5.33-3.32-11.19-2.69-17.26,.63-5.98,2.76-12.16,6.52-18.26,3.72-6.02,8.68-11.43,14.48-16.06,5.76-4.61,12.37-8.48,19.43-11.44,7.04-2.96,14.57-5.06,22.21-6.11,7.67-1.06,15.46-1.06,23.03,.17m-41.34,74.52c6.4,1.37,13.17,1.58,19.87,.79,6.73-.8,13.38-2.62,19.56-5.29,6.17-2.66,11.84-6.15,16.63-10.31,4.76-4.13,8.64-8.9,11.27-14.12,2.6-5.18,3.73-10.29,3.55-15.1-.16-4.76-1.61-9.21-4.14-13.15-2.51-3.88-6.08-7.25-10.58-9.9-4.43-2.61-9.79-4.51-15.88-5.51-6.06-1-12.33-1-18.48-.15-6.14,.84-12.18,2.52-17.82,4.9-5.66,2.39-10.94,5.49-15.53,9.18-4.61,3.7-8.54,8.02-11.44,12.82-2.93,4.84-4.54,9.74-4.94,14.46-.41,4.77,.43,9.36,2.41,13.51,2.02,4.21,5.21,7.98,9.47,11.05,4.31,3.09,9.7,5.46,16.06,6.82"/><path class="cls-3" d="M177.2,52.42c-.61-8.74-3.51-16.87-8.31-23.97-4.7-6.97-11.25-12.95-19.33-17.61-7.93-4.57-17.38-7.87-28.07-9.58-10.56-1.67-21.42-1.64-32.06-.16-10.59,1.47-21.04,4.38-30.85,8.5-9.83,4.13-19.08,9.51-27.2,15.93-8.21,6.47-15.33,14.07-20.78,22.57C5.06,56.77,1.73,65.6,.53,74.19c-1.24,8.78-.29,17.33,2.76,25.19,3.11,8.03,8.39,15.31,15.72,21.34,7.46,6.16,17.03,10.97,28.51,13.9,11.66,2.95,24.07,3.67,36.5,2.34,12.51-1.32,24.9-4.65,36.43-9.71,11.49-5.03,22-11.71,30.82-19.7,8.72-7.87,15.71-16.98,20.29-26.9,4.51-9.73,6.26-19.3,5.64-28.24m-14.64,17.95c-3.94,8.29-9.88,15.84-17.24,22.42-7.44,6.63-16.28,12.19-25.92,16.4-9.67,4.2-20.07,7.03-30.57,8.17-10.46,1.17-20.93,.66-30.79-1.71-9.74-2.34-17.91-6.26-24.33-11.32-6.32-4.96-10.95-11.01-13.74-17.7-2.73-6.56-3.7-13.74-2.8-21.14,.89-7.27,3.59-14.77,8.22-22.15,4.57-7.27,10.6-13.76,17.6-19.32,6.93-5.51,14.87-10.14,23.31-13.68,8.43-3.55,17.43-6.05,26.55-7.32,9.16-1.26,18.5-1.28,27.56,.17,9.17,1.47,17.24,4.31,24,8.24,6.86,3.99,12.39,9.09,16.33,15.01,4.01,6.01,6.38,12.89,6.81,20.27,.43,7.51-1.13,15.53-5.01,23.67"/><path class="cls-1" d="M66.32,39.75c-.23,3.52,.47,6.9,2.02,9.93,1.56,3.07,3.99,5.81,7.2,8,3.23,2.22,7.25,3.91,11.97,4.86,4.73,.95,9.72,1.08,14.65,.47,4.94-.62,9.83-1.96,14.36-3.9,4.04-1.73,7.8-3.95,11.07-6.56-18.16-9.9-38.68-15.98-60.51-17.18-.41,1.48-.68,2.94-.77,4.38"/><path class="cls-1" d="M134.08,64.83c-4.8,4.16-10.47,7.65-16.63,10.32-6.18,2.66-12.83,4.48-19.56,5.27-6.7,.8-13.46,.59-19.87-.78-6.37-1.36-11.75-3.72-16.06-6.81-4.26-3.07-7.45-6.84-9.47-11.05-1.98-4.15-2.82-8.74-2.41-13.51,.36-4.26,1.72-8.65,4.13-13.03-4.19,.14-8.33,.46-12.43,.95-.55,.79-1.07,1.59-1.56,2.39-3.76,6.1-5.9,12.28-6.52,18.26-.63,6.07,.3,11.93,2.69,17.26,2.43,5.42,6.35,10.29,11.64,14.27,5.38,4.04,12.15,7.15,20.18,8.97,8.12,1.83,16.71,2.18,25.24,1.2,8.58-1,17.07-3.31,24.96-6.72,7.87-3.41,15.11-7.91,21.2-13.27,3.86-3.39,7.26-7.13,10.06-11.14-3.34-2.73-6.8-5.33-10.39-7.74-1.57,1.8-3.31,3.54-5.19,5.16"/><path class="cls-1" d="M159.42,76.15c-3.7,6.05-8.49,11.63-14.1,16.64-7.44,6.63-16.28,12.19-25.92,16.4-9.68,4.2-20.07,7.03-30.58,8.17-10.45,1.17-20.92,.66-30.79-1.71-9.74-2.34-17.91-6.26-24.33-11.32-6.32-4.96-10.95-11.01-13.74-17.7-2.74-6.56-3.7-13.74-2.81-21.14,.89-7.27,3.6-14.77,8.23-22.15,1.07-1.7,2.23-3.36,3.46-4.99-4.77,1.03-9.45,2.29-14.03,3.78-1.5,1.94-2.91,3.93-4.23,5.98C5.06,56.77,1.73,65.6,.53,74.19c-1.24,8.78-.28,17.33,2.76,25.19,3.11,8.02,8.39,15.31,15.72,21.34,7.47,6.16,17.03,10.97,28.52,13.9,11.65,2.95,24.07,3.67,36.51,2.34,12.5-1.32,24.9-4.65,36.42-9.71,11.49-5.03,22.01-11.71,30.83-19.7,7.07-6.4,13.01-13.58,17.45-21.37-2.93-3.49-6.05-6.84-9.3-10.03"/></g><g><path class="cls-3" d="M319.77,126.23c-15.89,0-24.86-11.19-24.86-22.25,0-10.49,8.52-22.25,24.86-22.25s24.79,11.82,24.79,22.25c0,11.12-9.22,22.25-24.79,22.25Zm0-35.47c-8.26,0-13.73,5.28-13.73,13.22s5.47,13.22,13.73,13.22,13.67-5.28,13.67-13.22-5.47-13.22-13.67-13.22Z"/><path class="cls-3" d="M359.86,125.66h-6.57l-20.05-43.35h11.76l11.44,24.73,10.87-24.73h11.63l-19.09,43.35Z"/><path class="cls-3" d="M406.7,125.66h-11.63l-3.56-8.58h-19.39l-3.24,8.58h-11.44l17.48-43.35h12.52l19.26,43.35Zm-25.36-32.99l-6.36,16.85h13.35l-6.99-16.85Z"/><polygon class="cls-4" points="286.4 82.3 286.4 108.81 263.26 82.3 253.35 82.3 253.35 125.66 264.15 125.66 264.15 97.88 288.12 125.66 297.21 125.66 297.21 82.3 286.4 82.3"/><path class="cls-2" d="M242.92,82.3v26.51l-23.14-26.51h-8.79c0,3.6-2.92,6.53-6.53,6.53-2.25,0-4.23-1.14-5.4-2.87v39.7h21.61v-27.78l23.97,27.78h9.09v-43.35h-10.81Z"/></g></g></svg>