<?xml version="1.0" encoding="UTF-8"?><svg id="logo_NaevaTec" xmlns="http://www.w3.org/2000/svg" viewBox="0 0 664.54 264.49"><defs><style>.cls-1,.cls-2{fill:#f4970c;}.cls-3,.cls-4{fill:#0a4966;}.cls-4,.cls-2{fill-rule:evenodd;}</style></defs><path class="cls-2" d="M249.23,116.53c.31,3.59,.67,7.22,1.09,10.85l13.66-2.8-1.12-10.85-13.63,2.8Z"/><path class="cls-2" d="M248.62,130.34l-9.52,1.96c.52,4.08,1.12,8.1,1.79,12.03l9.58-1.34c-.7-4.2-1.31-8.43-1.85-12.64Z"/><path class="cls-2" d="M238.79,129.75l9.52-1.95c-.44-3.63-.81-7.25-1.13-10.84l-9.5,1.95c.31,3.63,.68,7.26,1.11,10.85Z"/><path class="cls-2" d="M212.8,121.35l11.07-2.24c-.3-3.49-.54-6.98-.73-10.45l-11.05,2.23c.14,3.33,.37,6.81,.71,10.45Z"/><path class="cls-2" d="M225.15,108.25c.17,3.47,.4,6.96,.69,10.46l9.56-1.96c-.27-3.5-.48-7-.63-10.47l-9.61,1.97Z"/><path class="cls-2" d="M248.37,103.48c.16,3.44,.38,6.93,.65,10.47l13.58-2.79-1.07-10.38-13.16,2.7Z"/><path class="cls-2" d="M248.26,100.92l13-2.67-1.06-10.26-12.16,2.5c.01,3.4,.08,6.88,.22,10.43Z"/><path class="cls-2" d="M246.15,101.35c-.15-3.54-.23-7.02-.26-10.43l-9.4,1.93c.01,3.42,.09,6.91,.22,10.43l9.44-1.94Z"/><path class="cls-2" d="M223.02,106.1c-.16-3.51-.26-7-.3-10.42l-10.6,2.14c-.17,3.33-.2,6.82-.1,10.5l11.01-2.23Z"/><path class="cls-2" d="M212.03,95.85l10.66-2.16c-.01-3.02,.02-5.99,.1-8.88l-9.63,1.88c-.45,2.9-.93,6.01-1.14,9.16Z"/><path class="cls-2" d="M224.9,84.37c-.1,2.89-.14,5.86-.14,8.89l9.7-1.99c.02-3.04,.09-6.01,.2-8.9l-9.76,2.01Z"/><path class="cls-2" d="M236.73,80.74l9.35-1.92c.08-2.16,.2-4.26,.34-6.32l-9.31,1.91c-.15,2.05-.28,4.16-.38,6.32Z"/><path class="cls-2" d="M248.23,79.58c-.11,2.88-.18,5.85-.19,8.9l11.96-2.46-.56-5.43c-.06-1.1-.17-2.18-.31-3.25l-10.9,2.24Z"/><path class="cls-2" d="M248.28,78.37l10.69-2.19c-.33-2.07-.79-4.06-1.39-5.96l-8.92,1.83c-.15,2.05-.28,4.16-.38,6.32Z"/><path class="cls-2" d="M234.72,81.15c.1-2.16,.23-4.27,.39-6.32l-9.83,2.02c-.14,2.06-.25,4.16-.34,6.31l9.77-2.01Z"/><path class="cls-2" d="M215.02,77.5l8.2-1.42c.15-2.19,.33-4.31,.55-6.36l-6.62,1.09c-.75,2.16-1.24,4.29-2.12,6.69Z"/><path class="cls-2" d="M225.96,69.27c-.23,2.05-.43,4.18-.59,6.37l9.84-2.02c.19-2.2,.41-4.34,.67-6.39l-9.91,2.03Z"/><path class="cls-2" d="M249.11,64.38l-.35,6.46,8.46-1.74c-.71-2.04-1.58-3.96-2.59-5.72l-5.51,1Z"/><path class="cls-2" d="M238.03,65.32l9.24-1.9c.2-1.6,.42-3.15,.66-4.65l-9.19,1.89c-.26,1.5-.49,3.05-.71,4.66Z"/><path class="cls-2" d="M236.08,65.73c.22-1.61,.47-3.17,.73-4.67l-10.01,2.05c-.24,1.5-.46,3.05-.66,4.65l9.93-2.04Z"/><path class="cls-2" d="M223.93,68.22c.18-1.6,.39-3.14,.61-4.64l-5.08,.76c-.3,.67-.6,1.37-.92,2.1-.41,.94-.81,1.89-1.18,2.85l6.57-1.07Z"/><path class="cls-2" d="M227.08,61.48l10.04-2.06c.5-2.57,1.08-4.94,1.74-7.09-1.08-.08-2.19-.06-3.34,.06-2.87,.31-5.06,.9-6.83,1.78-.61,2.23-1.15,4.68-1.61,7.31Z"/><path class="cls-2" d="M240.55,52.54c-.56,1.99-1.06,4.16-1.51,6.49l9.16-1.88,1.21-.25c-2.57-2.25-5.55-3.78-8.87-4.36Z"/><path class="cls-2" d="M342.4,139.78c3.32-2.51,6.44-4.86,8.63-6.51-2.84-2.79-5.7-5.79-8.55-8.97-2.23,1.69-5.27,3.98-8.48,6.4,2.8,3.19,5.61,6.24,8.4,9.08Z"/><path class="cls-2" d="M339.67,141.84c-2.78-2.87-5.55-5.93-8.33-9.13-4.54,3.42-9.09,6.85-11.96,9.02,2.92,3.09,5.88,6.02,8.86,8.74,2.94-2.21,7.21-5.43,11.43-8.62Z"/><path class="cls-2" d="M332.53,129.03c3.21-2.42,6.24-4.71,8.46-6.39-2.44-2.76-4.87-5.63-7.31-8.59-1.9,1.44-4.97,3.76-8.38,6.33,2.41,2.97,4.82,5.86,7.23,8.65Z"/><path class="cls-2" d="M329.89,131.02c-2.4-2.8-4.8-5.71-7.19-8.68-4.41,3.33-9.04,6.82-12.32,9.29,2.46,2.92,4.95,5.75,7.47,8.46,2.87-2.16,7.46-5.62,12.04-9.07Z"/><path class="cls-2" d="M313.17,110.21c-4.49,3.39-8.59,6.48-11.85,8.93,2.17,2.82,6.78,9.19,7.32,9.82l12.32-9.29c-.52-.65-7.45-9.03-7.79-9.47Z"/><path class="cls-2" d="M315.74,108.26c2.66,3.44,5.32,6.85,7.99,10.17,3.26-2.46,6.28-4.73,8.37-6.32-2.68-3.3-5.36-6.69-8.04-10.13-1.94,1.47-4.97,3.76-8.32,6.29Z"/><path class="cls-2" d="M314.1,106.13c3.35-2.53,6.38-4.82,8.31-6.28-2.31-2.99-4.61-6.01-6.91-9.03-2.27,1.72-5.22,3.94-8.3,6.27,2.29,3.02,4.59,6.05,6.89,9.05Z"/><path class="cls-2" d="M305.36,94.65c3.14-2.37,6.1-4.61,8.3-6.27-2.5-3.3-4.43-5.85-6.91-9.11-2.28,1.73-5.23,3.95-8.31,6.27,2.48,3.25,4.42,5.8,6.92,9.1Z"/><path class="cls-2" d="M296.99,83.65c3.09-2.33,6.04-4.56,8.31-6.27-2.89-3.79-5.77-7.51-8.63-11.12-2.18,1.65-5.17,3.91-8.36,6.31,2.87,3.58,5.76,7.29,8.67,11.08Z"/><path class="cls-2" d="M294.41,85.59c-2.92-3.79-5.82-7.49-8.7-11.06-4.05,3.06-8.14,6.14-11.07,8.35,2.56,3.79,5.19,7.7,7.92,11.65,2.77-2.09,7.29-5.5,11.85-8.94Z"/><path class="cls-2" d="M273.4,81.04c2.93-2.21,6.94-5.23,10.92-8.23-2.44-2.99-4.87-5.87-7.28-8.61-3.61,2.72-7.23,5.45-10.01,7.55,2.08,2.97,4.2,6.08,6.37,9.29Z"/><path class="cls-2" d="M279.7,62.2c2.39,2.75,4.8,5.65,7.23,8.64,3.2-2.41,6.19-4.67,8.37-6.32-2.4-3-4.79-5.91-7.15-8.7-2.21,1.67-5.24,3.96-8.44,6.38Z"/><path class="cls-2" d="M265.9,70.15c2.79-2.11,6.33-4.77,9.84-7.42-2.46-2.75-4.89-5.33-7.3-7.72-2.13,1.85-4.25,3.68-6.15,5.33-.78,.68-1.52,1.32-2.22,1.92,1.91,2.46,3.85,5.1,5.83,7.89Z"/><path class="cls-2" d="M271.01,52.78c2.44,2.46,4.91,5.12,7.39,7.94,3.25-2.45,6.29-4.75,8.46-6.39-2.61-3.03-5.21-5.91-7.77-8.57-2.19,1.9-5.08,4.41-8.08,7.01Z"/><path class="cls-2" d="M269.21,51c2.99-2.59,5.87-5.1,8.1-7.03-2.56-2.6-4.42-4.34-6.93-6.46-2.27,2.24-5,4.93-7.72,7.62,2.38,1.94,4.12,3.48,6.55,5.88Z"/><path class="cls-2" d="M302.51,97c-2.92-3.79-3.99-5.78-6.87-9.34-4.05,3.06-8.55,6.44-11.47,8.65l6.62,9.8c2.77-2.09,7.17-5.67,11.73-9.11Z"/><path class="cls-2" d="M261.01,43.81c2.77-2.73,5.51-5.44,7.75-7.64-2.16-1.76-3.96-3.06-6.07-4.38-2.31,2.23-5.15,4.97-8.01,7.73,2.2,1.27,4.08,2.53,6.33,4.29Z"/><path class="cls-2" d="M258.82,46.56c-2.31-1.74-4.58-3.24-6.83-4.45-2.23,2.15-4.37,4.22-6.16,5.94,2.08,1.35,4.17,3.09,6.26,5.14,1.91-1.88,4.27-4.21,6.73-6.63Z"/><path class="cls-2" d="M253.03,38.62c2.87-2.77,5.73-5.53,8.06-7.79-3.01-1.73-5.97-2.95-8.86-3.59-2.11,2.4-4.77,5.41-7.46,8.45,2.7,.47,5.46,1.47,8.26,2.93Z"/><path class="cls-2" d="M250.3,41.25c-2.79-1.33-5.52-2.2-8.21-2.53-1.92,2.17-3.76,4.26-5.34,6.05,2.52,.14,5.01,.95,7.49,2.33,1.75-1.69,3.85-3.72,6.06-5.84Z"/><path class="cls-2" d="M352.6,134.79c-2.18,1.65-5.31,4.01-8.66,6.54,2.28,2.26,4.56,4.38,6.84,6.34,3.34-2.88,6.37-5.51,8.27-7.15-2.14-1.76-4.29-3.68-6.44-5.72Z"/><path class="cls-2" d="M348.12,149.95c-2.3-2.03-4.61-4.23-6.93-6.56-4.17,3.15-8.38,6.32-11.32,8.53,2.73,2.41,5.48,4.64,8.25,6.66,2.83-2.44,6.46-5.58,9.99-8.63Z"/><path class="cls-2" d="M350.04,151.61c-3.45,2.98-7,6.05-9.81,8.47,2.45,1.68,4.92,3.19,7.4,4.51,2.6-2.25,5.86-5.06,9.09-7.86-2.22-1.53-4.45-3.24-6.68-5.12Z"/><path class="cls-2" d="M352.72,149.3c2.27,1.86,4.54,3.54,6.79,5.03,3.36-2.91,6.47-5.6,8.51-7.37-2.32-1.41-4.65-3.03-7-4.85-1.88,1.63-4.93,4.27-8.31,7.19Z"/><path class="cls-2" d="M369.85,148.02c-1.96,1.7-5.12,4.44-8.58,7.43,1.92,1.18,3.84,2.2,5.75,3.06,3.52-3.04,6.78-5.86,8.86-7.66-2-.75-4.01-1.7-6.03-2.82Z"/><path class="cls-2" d="M364.06,161.06c-1.86-.91-3.73-1.98-5.61-3.19-3.13,2.71-6.3,5.45-8.9,7.69,2.09,1.02,4.18,1.89,6.28,2.6,2.41-2.08,5.31-4.59,8.22-7.1Z"/><path class="cls-2" d="M366.01,161.96c-2.82,2.44-5.63,4.86-7.98,6.89,2.2,.63,4.41,1.08,6.62,1.32,2.02-1.74,4.55-3.93,7.22-6.23-1.94-.47-3.9-1.13-5.86-1.98Z"/><path class="cls-2" d="M369.04,159.35c2.05,.79,4.09,1.39,6.12,1.76,3.55-3.07,7.03-6.08,9.54-8.25-2.21-.15-4.44-.59-6.68-1.28-2.1,1.82-5.42,4.69-8.99,7.78Z"/><path class="cls-2" d="M387.43,152.9c-2.53,2.2-6.17,5.34-9.87,8.54,3.08,.29,6.14,.05,9.16-.81,2.71-3.19,5.44-6.4,7.64-8.99-2.29,.77-4.6,1.18-6.93,1.27Z"/><path class="cls-2" d="M383.7,164.17c-3.16,.7-6.35,.75-9.57,.23-2.54,2.2-4.96,4.29-6.92,5.98,4.28,.18,8.55-.41,12.81-1.88,1.13-1.32,2.37-2.79,3.68-4.32Z"/><path class="cls-2" d="M395.64,152.62c-1.78,2.09-3.82,4.5-5.89,6.93,3.2-1.36,6.36-3.45,9.47-6.34,1.02-.95,3.88-3.96,6.82-7.16-3.41,3.13-6.88,5.28-10.4,6.58Z"/><path class="cls-2" d="M399.16,154.87c-4.14,4.25-8.37,7.01-12.67,8.51-1.13,1.33-2.23,2.63-3.26,3.83,6.4-2.91,12.76-7.9,19.01-15.39-1.4,1.38-2.56,2.52-3.08,3.05Z"/><path class="cls-2" d="M299.72,117.59c3.35-2.53,9.39-7.69,11.33-9.15-2.31-2.99-4.61-6.01-6.91-9.03-2.27,1.72-8.01,6.67-11.09,9,2.29,3.02,4.37,6.19,6.67,9.19Z"/><path class="cls-2" d="M259.31,60.23c2.99-2.59,5.27-4.87,7.5-6.8-2.56-2.6-3.42-3.83-5.92-5.95-2.27,2.24-4.26,4.55-6.98,7.23,2.38,1.94,2.97,3.13,5.4,5.52Z"/><path class="cls-2" d="M248.97,63.08l4.79-.9c-.59-1.42-1.38-2.68-2.22-3.97l-2.21,.39-.35,4.48Z"/><path class="cls-2" d="M235.28,39.1l-4.73,6.69c1.32-.52,2.62-.84,3.92-.97l5.52-6.25c-1.59-.03-3.16,.14-4.71,.53Z"/><path class="cls-2" d="M237.66,35.74c1.68-.34,3.38-.44,5.11-.3l7.53-8.53c-2.24-.29-4.45-.2-6.61,.3l-6.03,8.54Z"/><path class="cls-2" d="M227.53,47.32l5.21-7.37c-2.8,1.16-4.58,2.12-7.22,4.89-1.06,2.02-1.29,3.4-2.31,5.78,2.06-2.18,2.33-2.08,4.32-3.3Z"/><path class="cls-2" d="M226.98,41.53c2.79-2.83,5.28-4.06,8.25-5.12l5.96-8.44c-5.14,2.01-9.62,5.88-14.21,13.55Z"/><path class="cls-2" d="M224.61,61.62c.38-1.28,1.4-5.49,1.63-6.99l-4.5,1.51-1.61,5.95,4.48-.47Z"/><path class="cls-2" d="M213.51,85.29l9.13-1.86c.15-2.18,.31-4.09,.53-6.15l-8.24,1.6-1.42,6.4Z"/><path class="cls-2" d="M226.06,135.93l-9.51,1.95c.52,4.08,1.12,8.1,1.79,12.03l9.58-1.34c-.7-4.2-1.31-8.43-1.85-12.64Z"/><path class="cls-4" d="M393.34,53.87c-.31-3.59-.67-7.22-1.1-10.85l-13.66,2.8,1.12,10.85,13.63-2.8Z"/><path class="cls-4" d="M393.95,40.07l9.51-1.95c-.52-4.08-1.12-8.11-1.79-12.03l-9.58,1.34c.7,4.2,1.31,8.43,1.85,12.64Z"/><path class="cls-4" d="M403.78,40.65l-9.51,1.95c.44,3.63,.81,7.25,1.13,10.84l9.5-1.95c-.31-3.63-.68-7.26-1.11-10.85Z"/><path class="cls-4" d="M429.77,49.06l-11.07,2.24c.3,3.49,.54,6.98,.73,10.45l11.05-2.24c-.14-3.33-.37-6.8-.71-10.45Z"/><path class="cls-4" d="M417.42,62.16c-.17-3.47-.4-6.96-.69-10.46l-9.56,1.96c.27,3.5,.48,7,.63,10.47l9.61-1.97Z"/><path class="cls-4" d="M394.2,66.93c-.16-3.44-.38-6.94-.65-10.47l-13.58,2.79,1.07,10.38,13.15-2.7Z"/><path class="cls-4" d="M394.31,69.49l-13,2.67,1.06,10.26,12.16-2.5c-.01-3.4-.08-6.88-.22-10.43Z"/><path class="cls-4" d="M396.42,69.06c.15,3.54,.24,7.03,.26,10.43l9.4-1.93c-.01-3.42-.08-6.91-.22-10.44l-9.44,1.94Z"/><path class="cls-4" d="M419.55,64.3c.16,3.51,.26,7,.3,10.42l10.6-2.14c.16-3.33,.2-6.82,.1-10.5l-11.01,2.23Z"/><path class="cls-4" d="M430.54,74.56l-10.66,2.16c.01,3.02-.02,5.99-.1,8.88l9.63-1.88c.45-2.9,.93-6.01,1.14-9.16Z"/><path class="cls-4" d="M417.67,86.04c.1-2.89,.14-5.86,.14-8.89l-9.7,1.99c-.02,3.04-.09,6.01-.2,8.91l9.76-2.01Z"/><path class="cls-4" d="M405.84,89.66l-9.35,1.92c-.09,2.16-.2,4.26-.34,6.31l9.31-1.91c.16-2.05,.28-4.16,.38-6.32Z"/><path class="cls-4" d="M394.34,90.83c.11-2.88,.18-5.85,.19-8.9l-11.96,2.46,.56,5.43c.06,1.1,.17,2.18,.3,3.25l10.9-2.24Z"/><path class="cls-4" d="M394.29,92.04l-10.68,2.19c.32,2.07,.79,4.06,1.39,5.96l8.92-1.83c.15-2.05,.28-4.16,.38-6.32Z"/><path class="cls-4" d="M407.85,89.25c-.1,2.16-.23,4.27-.39,6.33l9.83-2.02c.14-2.06,.25-4.16,.34-6.31l-9.77,2.01Z"/><path class="cls-4" d="M427.55,92.91l-8.2,1.42c-.15,2.18-.33,4.31-.55,6.36l6.62-1.09c.75-2.16,1.24-4.29,2.12-6.69Z"/><path class="cls-4" d="M416.61,101.14c.23-2.05,.43-4.18,.59-6.37l-9.84,2.02c-.19,2.2-.41,4.34-.67,6.39l9.92-2.04Z"/><path class="cls-4" d="M393.46,106.02l.35-6.46-8.46,1.74c.71,2.04,1.58,3.96,2.59,5.72l5.51-1Z"/><path class="cls-4" d="M404.54,105.08l-9.24,1.9c-.2,1.6-.42,3.15-.66,4.65l9.19-1.89c.26-1.5,.5-3.05,.71-4.66Z"/><path class="cls-4" d="M406.49,104.68c-.22,1.61-.47,3.17-.73,4.67l10.01-2.06c.24-1.5,.46-3.05,.66-4.65l-9.94,2.04Z"/><path class="cls-4" d="M418.64,102.19c-.18,1.6-.39,3.14-.61,4.64l5.08-.76c.3-.67,.6-1.37,.92-2.1,.41-.94,.81-1.89,1.18-2.85l-6.57,1.07Z"/><path class="cls-4" d="M415.49,108.92l-10.04,2.06c-.5,2.57-1.08,4.94-1.74,7.09,1.08,.08,2.19,.06,3.34-.06,2.86-.31,5.06-.9,6.83-1.78,.61-2.23,1.15-4.68,1.61-7.31Z"/><path class="cls-4" d="M402.02,117.87c.56-1.99,1.06-4.16,1.51-6.49l-9.16,1.88-1.21,.25c2.57,2.25,5.55,3.78,8.87,4.36Z"/><path class="cls-4" d="M300.17,30.63c-3.33,2.51-6.44,4.86-8.63,6.51,2.85,2.79,5.7,5.79,8.55,8.97,2.23-1.69,5.27-3.98,8.48-6.4-2.8-3.19-5.61-6.24-8.4-9.08Z"/><path class="cls-4" d="M302.9,28.57c2.78,2.87,5.55,5.93,8.33,9.13,4.54-3.42,9.09-6.85,11.96-9.02-2.92-3.09-5.88-6.01-8.86-8.73-2.94,2.21-7.21,5.43-11.43,8.62Z"/><path class="cls-4" d="M310.04,41.38c-3.21,2.42-6.24,4.71-8.46,6.39,2.44,2.76,4.87,5.63,7.31,8.59,1.9-1.44,4.97-3.76,8.38-6.33-2.41-2.97-4.82-5.86-7.23-8.65Z"/><path class="cls-4" d="M312.68,39.38c2.4,2.8,4.8,5.71,7.19,8.68,4.41-3.33,9.04-6.82,12.32-9.28-2.46-2.92-4.95-5.75-7.47-8.47-2.87,2.17-7.46,5.62-12.04,9.07Z"/><path class="cls-4" d="M329.4,60.2c4.49-3.39,8.59-6.48,11.85-8.93-2.16-2.82-6.78-9.19-7.32-9.82l-12.32,9.28c.52,.65,7.45,9.03,7.79,9.47Z"/><path class="cls-4" d="M326.83,62.14c-2.66-3.44-5.32-6.85-7.99-10.17-3.26,2.46-6.27,4.73-8.37,6.32,2.68,3.3,5.36,6.69,8.04,10.14,1.94-1.47,4.97-3.76,8.32-6.29Z"/><path class="cls-4" d="M328.47,64.28c-3.35,2.53-6.38,4.82-8.31,6.28,2.31,2.99,4.61,6.01,6.91,9.03,2.27-1.72,5.22-3.94,8.3-6.27-2.29-3.02-4.59-6.05-6.89-9.05Z"/><path class="cls-4" d="M337.2,75.76c-3.14,2.37-6.1,4.61-8.3,6.27,2.5,3.3,4.43,5.85,6.91,9.11,2.28-1.73,5.23-3.95,8.31-6.27-2.48-3.24-4.42-5.8-6.92-9.1Z"/><path class="cls-4" d="M345.58,86.76c-3.09,2.33-6.04,4.56-8.31,6.27,2.89,3.79,5.77,7.51,8.63,11.12,2.18-1.65,5.17-3.91,8.36-6.31-2.87-3.58-5.76-7.29-8.67-11.08Z"/><path class="cls-4" d="M348.16,84.82c2.92,3.79,5.82,7.5,8.7,11.06,4.05-3.06,8.14-6.14,11.07-8.35-2.56-3.79-5.19-7.7-7.92-11.65-2.77,2.08-7.29,5.49-11.85,8.93Z"/><path class="cls-4" d="M369.17,89.37c-2.93,2.21-6.94,5.23-10.92,8.23,2.44,2.99,4.87,5.87,7.28,8.61,3.61-2.72,7.22-5.45,10.01-7.55-2.08-2.97-4.2-6.08-6.37-9.29Z"/><path class="cls-4" d="M362.87,108.21c-2.39-2.75-4.8-5.64-7.23-8.64-3.2,2.41-6.19,4.67-8.37,6.32,2.4,3,4.79,5.92,7.15,8.7,2.22-1.68,5.24-3.96,8.44-6.38Z"/><path class="cls-4" d="M376.67,100.26c-2.79,2.11-6.33,4.77-9.84,7.42,2.46,2.75,4.89,5.33,7.3,7.72,2.13-1.85,4.25-3.68,6.15-5.33,.78-.68,1.52-1.32,2.22-1.92-1.91-2.46-3.85-5.1-5.83-7.89Z"/><path class="cls-4" d="M371.56,117.63c-2.44-2.46-4.91-5.12-7.39-7.94-3.25,2.45-6.29,4.75-8.46,6.39,2.61,3.03,5.21,5.91,7.77,8.57,2.19-1.91,5.08-4.41,8.08-7.01Z"/><path class="cls-4" d="M373.36,119.41c-2.99,2.59-5.87,5.09-8.1,7.03,2.56,2.6,4.42,4.34,6.93,6.46,2.27-2.24,5-4.93,7.72-7.62-2.38-1.94-4.11-3.48-6.55-5.87Z"/><path class="cls-4" d="M340.06,73.4c2.92,3.79,3.99,5.78,6.87,9.34,4.05-3.06,8.55-6.44,11.47-8.65l-6.61-9.8c-2.77,2.08-7.17,5.67-11.73,9.11Z"/><path class="cls-4" d="M381.56,126.6c-2.77,2.73-5.51,5.44-7.75,7.64,2.16,1.76,3.96,3.06,6.07,4.38,2.3-2.23,5.15-4.97,8.01-7.73-2.2-1.26-4.08-2.53-6.33-4.29Z"/><path class="cls-4" d="M383.75,123.84c2.31,1.74,4.58,3.24,6.83,4.45,2.23-2.15,4.37-4.22,6.16-5.94-2.08-1.35-4.17-3.09-6.26-5.14-1.91,1.89-4.27,4.21-6.73,6.63Z"/><path class="cls-4" d="M389.54,131.79c-2.87,2.77-5.73,5.53-8.06,7.79,3.01,1.73,5.97,2.95,8.86,3.59,2.11-2.4,4.77-5.41,7.46-8.45-2.7-.47-5.46-1.47-8.26-2.93Z"/><path class="cls-4" d="M392.27,129.15c2.79,1.33,5.52,2.2,8.21,2.53,1.92-2.17,3.76-4.26,5.34-6.04-2.52-.14-5.01-.96-7.49-2.33-1.75,1.69-3.85,3.72-6.06,5.84Z"/><path class="cls-4" d="M289.97,35.62c2.19-1.65,5.31-4.01,8.66-6.54-2.28-2.26-4.56-4.38-6.84-6.34-3.34,2.89-6.37,5.51-8.27,7.15,2.14,1.76,4.29,3.68,6.44,5.72Z"/><path class="cls-4" d="M294.45,20.45c2.3,2.03,4.61,4.23,6.93,6.56,4.17-3.15,8.38-6.32,11.32-8.53-2.73-2.41-5.48-4.64-8.25-6.66-2.83,2.44-6.46,5.58-9.99,8.63Z"/><path class="cls-4" d="M292.53,18.8c3.45-2.98,7-6.05,9.81-8.47-2.46-1.68-4.92-3.19-7.4-4.51-2.6,2.25-5.86,5.06-9.09,7.86,2.22,1.53,4.45,3.24,6.68,5.12Z"/><path class="cls-4" d="M289.85,21.11c-2.27-1.86-4.54-3.54-6.79-5.03-3.36,2.91-6.47,5.6-8.51,7.37,2.32,1.41,4.66,3.03,6.99,4.85,1.88-1.63,4.93-4.27,8.31-7.19Z"/><path class="cls-4" d="M272.72,22.39c1.97-1.7,5.12-4.44,8.58-7.42-1.92-1.18-3.84-2.2-5.75-3.06-3.52,3.04-6.78,5.86-8.86,7.66,2,.75,4.01,1.7,6.03,2.82Z"/><path class="cls-4" d="M278.51,9.34c1.86,.91,3.73,1.98,5.61,3.18,3.13-2.71,6.3-5.45,8.9-7.69-2.09-1.02-4.18-1.89-6.28-2.6-2.41,2.08-5.31,4.59-8.22,7.1Z"/><path class="cls-4" d="M276.56,8.44c2.82-2.44,5.63-4.86,7.97-6.89-2.2-.63-4.41-1.07-6.62-1.32-2.02,1.74-4.55,3.94-7.22,6.23,1.94,.47,3.9,1.13,5.86,1.98Z"/><path class="cls-4" d="M273.53,11.06c-2.05-.79-4.09-1.39-6.12-1.76-3.55,3.06-7.03,6.07-9.54,8.25,2.21,.15,4.44,.59,6.68,1.28,2.1-1.82,5.42-4.69,8.98-7.77Z"/><path class="cls-4" d="M255.14,17.51c2.53-2.19,6.17-5.34,9.87-8.54-3.08-.29-6.14-.05-9.16,.81-2.71,3.19-5.44,6.4-7.65,8.99,2.29-.77,4.61-1.18,6.94-1.27Z"/><path class="cls-4" d="M258.87,6.24c3.16-.7,6.35-.75,9.57-.23,2.54-2.2,4.96-4.29,6.92-5.98-4.28-.18-8.55,.41-12.81,1.88-1.13,1.32-2.37,2.79-3.68,4.32Z"/><path class="cls-4" d="M246.93,17.78c1.78-2.09,3.82-4.5,5.89-6.93-3.2,1.36-6.36,3.45-9.47,6.34-1.02,.95-3.88,3.96-6.82,7.16,3.41-3.13,6.88-5.28,10.4-6.58Z"/><path class="cls-4" d="M243.41,15.54c4.14-4.25,8.37-7.01,12.67-8.51,1.13-1.33,2.24-2.63,3.26-3.83-6.4,2.91-12.76,7.9-19.01,15.39,1.4-1.38,2.57-2.52,3.08-3.05Z"/><path class="cls-4" d="M342.85,52.82c-3.35,2.53-9.39,7.69-11.32,9.15,2.31,2.99,4.61,6.01,6.91,9.03,2.27-1.72,8.01-6.67,11.09-9-2.29-3.02-4.37-6.19-6.67-9.19Z"/><path class="cls-4" d="M383.26,110.17c-2.99,2.59-5.27,4.87-7.5,6.8,2.56,2.6,3.42,3.83,5.92,5.95,2.27-2.24,4.26-4.55,6.98-7.23-2.38-1.94-2.97-3.13-5.4-5.52Z"/><path class="cls-4" d="M393.6,107.33l-5.06,.95c.59,1.42,1.86,2.59,2.71,3.88l2-.35,.35-4.48Z"/><path class="cls-4" d="M407.29,131.3l4.73-6.69c-1.32,.52-2.62,.84-3.91,.97l-5.52,6.25c1.59,.03,3.16-.14,4.71-.53Z"/><path class="cls-4" d="M404.91,134.67c-1.68,.34-3.38,.44-5.11,.3l-7.53,8.53c2.24,.29,4.45,.2,6.61-.3l6.03-8.54Z"/><path class="cls-4" d="M415.04,123.09l-5.21,7.37c2.8-1.16,4.58-2.12,7.22-4.89,1.06-2.02,1.29-3.39,2.31-5.78-2.06,2.18-2.34,2.08-4.32,3.3Z"/><path class="cls-4" d="M415.59,128.88c-2.79,2.83-5.28,4.06-8.25,5.12l-5.96,8.44c5.14-2.01,9.62-5.88,14.21-13.55Z"/><path class="cls-4" d="M417.96,108.79c-.38,1.28-1.38,5.21-1.6,6.71l4.28-.71,1.9-6.48-4.58,.48Z"/><path class="cls-4" d="M429.06,85.12l-9.13,1.86c-.15,2.19-.31,4.09-.52,6.15l8.24-1.6,1.42-6.4Z"/><path class="cls-4" d="M416.51,34.48l9.51-1.95c-.52-4.08-1.12-8.11-1.79-12.03l-9.58,1.34c.7,4.2,1.31,8.43,1.85,12.64Z"/><path class="cls-3" d="M65.42,225.3v18.92c.02,1.54-.05,2.83-.14,3.89-.11,1.06-.32,1.86-.64,2.4-.32,.54-.8,.82-1.42,.82-.51,0-1.18-.21-1.99-.61-.82-.4-1.81-.98-3.01-1.7l-44-26.9c-.72-.43-1.5-.78-2.35-1.04-.85-.26-1.73-.4-2.64-.4-1.75,.02-3.31,.43-4.69,1.26-1.39,.82-2.48,1.94-3.3,3.33-.8,1.41-1.22,2.98-1.23,4.72v27.95c.02,.85,.22,1.62,.64,2.31,.42,.69,.98,1.25,1.66,1.67,.69,.42,1.46,.62,2.31,.64,.85-.02,1.62-.22,2.31-.64,.69-.42,1.25-.98,1.67-1.67,.42-.69,.62-1.46,.64-2.31v-18.92c-.02-1.54,.05-2.83,.14-3.89,.11-1.06,.32-1.86,.64-2.4,.32-.54,.8-.82,1.42-.82,.53,0,1.18,.21,2,.61,.8,.4,1.81,.98,2.99,1.7l44,26.9c.72,.43,1.51,.78,2.35,1.04,.85,.26,1.73,.4,2.64,.4,1.75-.02,3.31-.43,4.69-1.26,1.39-.82,2.48-1.94,3.3-3.33,.8-1.41,1.22-2.98,1.23-4.72v-27.95c-.02-.85-.22-1.62-.64-2.31-.42-.69-.98-1.25-1.67-1.67-.69-.42-1.46-.62-2.31-.64-.85,.02-1.62,.22-2.31,.64-.69,.42-1.25,.98-1.67,1.67-.42,.69-.62,1.46-.64,2.31Z"/><path class="cls-3" d="M114.99,230.87c.26-.34,.58-.7,.96-1.1,.38-.4,.82-.74,1.28-1.02,.45-.3,.93-.45,1.41-.46,.48,.02,.96,.16,1.42,.43,.46,.29,.88,.62,1.28,1.02,.4,.38,.75,.77,1.04,1.14l22.38,29.88c.45,.58,.98,1.02,1.62,1.34,.62,.32,1.31,.48,2.03,.48,.85-.02,1.62-.22,2.31-.64,.69-.42,1.25-.98,1.66-1.67,.42-.69,.62-1.46,.64-2.31,0-.62-.13-1.22-.38-1.78-.24-.56-.56-1.06-.96-1.49l-23.34-31.22c-1.14-1.5-2.55-2.66-4.24-3.47-1.7-.82-3.51-1.22-5.46-1.23-2.08,.02-4,.48-5.76,1.38-1.74,.9-3.19,2.11-4.32,3.62l-23.34,31.41c-.34,.38-.58,.82-.74,1.28-.14,.48-.22,.98-.22,1.51,.02,.85,.22,1.62,.64,2.31,.42,.69,.98,1.25,1.67,1.67,.69,.42,1.46,.62,2.31,.64,.69,0,1.33-.16,1.95-.46,.62-.3,1.15-.74,1.6-1.26l22.57-29.97Z"/><path class="cls-3" d="M235.37,262.57c.85-.02,1.62-.22,2.31-.64,.69-.42,1.25-.98,1.67-1.67s.62-1.46,.64-2.31c-.02-.85-.22-1.62-.64-2.31-.42-.69-.98-1.25-1.67-1.67-.69-.42-1.46-.62-2.31-.64h-60.52c-.88-.02-1.58-.27-2.13-.74-.54-.46-.83-1.02-.85-1.67v-4.71h61.38c.85-.02,1.62-.22,2.31-.64,.69-.42,1.25-.98,1.67-1.67,.42-.69,.62-1.46,.64-2.31-.02-.85-.22-1.62-.64-2.31-.42-.69-.98-1.25-1.67-1.67-.69-.42-1.46-.62-2.31-.64h-64.46c-1.41-.02-2.56,.11-3.47,.35-.91,.24-1.59,.69-2.02,1.31-.45,.62-.66,1.52-.66,2.66v8.65c.02,1.91,.37,3.62,1.04,5.17,.67,1.54,1.57,2.87,2.69,3.97,1.14,1.1,2.39,1.95,3.76,2.55,1.39,.59,2.79,.9,4.23,.9h61Zm-72.72-37.27c.02,.85,.22,1.62,.64,2.31,.42,.69,.98,1.25,1.67,1.67,.69,.42,1.46,.62,2.31,.64h68.11c.85-.02,1.62-.22,2.31-.64,.69-.42,1.25-.98,1.67-1.67,.42-.69,.62-1.46,.64-2.31-.02-.85-.22-1.62-.64-2.31-.42-.69-.98-1.25-1.67-1.67-.69-.42-1.46-.62-2.31-.64h-68.11c-.85,.02-1.62,.22-2.31,.64-.69,.42-1.25,.98-1.67,1.67-.42,.69-.62,1.46-.64,2.31Z"/><path class="cls-3" d="M287.63,252.39c-.26,.34-.58,.7-.96,1.1-.38,.4-.82,.74-1.28,1.02-.45,.3-.93,.45-1.41,.46-.48-.02-.96-.16-1.42-.43-.46-.29-.88-.62-1.28-1.02-.4-.38-.75-.77-1.04-1.14l-22.38-29.88c-.43-.58-.98-1.02-1.6-1.34-.64-.32-1.31-.48-2.05-.48-.85,.02-1.62,.22-2.31,.64-.69,.42-1.25,.98-1.67,1.67-.42,.69-.62,1.46-.64,2.31,.02,.62,.14,1.22,.38,1.78,.26,.56,.58,1.06,.96,1.49l23.34,31.22c1.17,1.46,2.59,2.59,4.27,3.43,1.68,.83,3.49,1.26,5.43,1.28,2.08-.02,3.99-.48,5.73-1.38,1.73-.9,3.19-2.11,4.35-3.62l23.25-31.32,.1-.1c.34-.38,.58-.82,.74-1.28,.14-.48,.22-.98,.22-1.5-.02-.85-.22-1.62-.64-2.31-.42-.69-.98-1.25-1.66-1.67-.69-.42-1.46-.62-2.31-.64-.69,0-1.33,.16-1.95,.46-.62,.3-1.15,.74-1.6,1.26l-22.57,29.97Z"/><path class="cls-1" d="M485.1,220.68h-66.09c-.85,.02-1.62,.22-2.31,.64-.69,.42-1.25,.98-1.67,1.67-.42,.69-.62,1.46-.64,2.31,.02,.82,.21,1.55,.58,2.23,.38,.67,.9,1.22,1.54,1.63,.62,.43,1.33,.67,2.11,.75h28.82v28.05c.02,.85,.22,1.62,.64,2.31,.42,.69,.98,1.25,1.67,1.67,.69,.42,1.46,.62,2.31,.64,.85-.02,1.62-.22,2.31-.64,.69-.42,1.25-.98,1.67-1.67,.42-.69,.62-1.46,.64-2.31v-28.05h28.43c.85-.02,1.62-.22,2.31-.64,.69-.42,1.25-.98,1.67-1.67,.42-.69,.62-1.46,.64-2.31-.02-.85-.22-1.62-.64-2.31-.42-.69-.98-1.25-1.67-1.67-.69-.42-1.46-.62-2.31-.64Z"/><path class="cls-1" d="M572.04,262.57c.85-.02,1.62-.22,2.31-.64,.69-.42,1.25-.98,1.67-1.67s.62-1.46,.64-2.31c-.02-.85-.22-1.62-.64-2.31-.42-.69-.98-1.25-1.67-1.67-.69-.42-1.46-.62-2.31-.64h-60.52c-.88-.02-1.58-.27-2.13-.74-.54-.46-.83-1.02-.85-1.67v-4.71h61.38c.85-.02,1.62-.22,2.31-.64,.69-.42,1.25-.98,1.67-1.67,.42-.69,.62-1.46,.64-2.31-.02-.85-.22-1.62-.64-2.31-.42-.69-.98-1.25-1.67-1.67-.69-.42-1.46-.62-2.31-.64h-64.46c-1.41-.02-2.56,.11-3.47,.35-.91,.24-1.59,.69-2.02,1.31-.45,.62-.66,1.52-.66,2.66v8.65c.02,1.91,.37,3.62,1.04,5.17,.67,1.54,1.57,2.87,2.69,3.97,1.14,1.1,2.39,1.95,3.76,2.55,1.39,.59,2.79,.9,4.23,.9h61Zm-72.72-37.27c.02,.85,.22,1.62,.64,2.31,.42,.69,.98,1.25,1.67,1.67,.69,.42,1.46,.62,2.31,.64h68.11c.85-.02,1.62-.22,2.31-.64s1.25-.98,1.67-1.67c.42-.69,.62-1.46,.64-2.31-.02-.85-.22-1.62-.64-2.31-.42-.69-.98-1.25-1.67-1.67-.69-.42-1.46-.62-2.31-.64h-68.11c-.85,.02-1.62,.22-2.31,.64-.69,.42-1.25,.98-1.67,1.67-.42,.69-.62,1.46-.64,2.31Z"/><path class="cls-1" d="M586.25,241.63c0,1.92,.24,3.86,.74,5.83,.48,1.97,1.2,3.86,2.13,5.65,.94,1.79,2.08,3.41,3.44,4.83,1.36,1.41,2.9,2.53,4.64,3.36,1.74,.83,3.67,1.25,5.76,1.26h56.97c.85-.02,1.62-.22,2.31-.64,.69-.42,1.25-.98,1.66-1.67,.42-.69,.62-1.46,.64-2.31-.02-.85-.22-1.62-.64-2.31-.42-.69-.98-1.25-1.66-1.67-.69-.42-1.46-.62-2.31-.64h-53.99c-2.19-.03-4-.42-5.41-1.18-1.41-.77-2.5-1.74-3.28-2.95-.78-1.2-1.33-2.47-1.63-3.81-.3-1.34-.45-2.59-.43-3.78-.02-1.18,.13-2.43,.43-3.78,.3-1.34,.85-2.61,1.63-3.81,.78-1.2,1.87-2.18,3.28-2.95,1.41-.77,3.22-1.15,5.41-1.18h53.99c.85-.02,1.62-.22,2.31-.64,.69-.42,1.25-.98,1.66-1.67,.42-.69,.62-1.46,.64-2.31-.02-.85-.22-1.62-.64-2.31-.42-.69-.98-1.25-1.66-1.67-.69-.42-1.46-.62-2.31-.64h-56c-2.21,.02-4.24,.43-6.08,1.25-1.84,.82-3.47,1.92-4.92,3.33-1.42,1.41-2.64,3.01-3.63,4.8s-1.75,3.68-2.26,5.65c-.53,1.99-.78,3.95-.78,5.91Z"/><path class="cls-3" d="M349.18,230.75c.26-.34,.58-.7,.96-1.1,.38-.4,.82-.74,1.28-1.02,.45-.3,.93-.45,1.41-.46,.48,.02,.96,.16,1.42,.43,.46,.29,.88,.62,1.28,1.02,.4,.38,.75,.77,1.04,1.14l22.38,29.88c.45,.58,.98,1.02,1.62,1.35,.62,.32,1.31,.48,2.03,.48,.85-.02,1.62-.22,2.31-.64,.69-.42,1.25-.98,1.67-1.67,.42-.69,.62-1.46,.64-2.31,0-.62-.13-1.22-.38-1.78-.24-.56-.56-1.06-.96-1.49l-23.34-31.22c-1.14-1.5-2.55-2.66-4.24-3.47-1.7-.82-3.51-1.22-5.46-1.23-2.08,.02-4,.48-5.76,1.38-1.74,.9-3.19,2.11-4.32,3.62l-23.34,31.41c-.34,.38-.58,.82-.74,1.28-.14,.48-.22,.98-.22,1.51,.02,.85,.22,1.62,.64,2.31,.42,.69,.98,1.25,1.66,1.67,.69,.42,1.46,.62,2.31,.64,.69,0,1.33-.16,1.95-.46,.62-.3,1.15-.74,1.6-1.26l22.57-29.97Z"/></svg>