<?xml version="1.0" encoding="UTF-8"?><svg xmlns="http://www.w3.org/2000/svg" viewBox="0 0 481.82 260"><defs><style>.cls-1{fill:#ed8005;}.cls-2{fill:#1a171c;}.cls-3{mix-blend-mode:multiply;}.cls-4{isolation:isolate;}</style></defs><g class="cls-4"><g id="logo_TeamDev"><g class="cls-3"><g><path class="cls-2" d="M194.87,134.65l-26.43-39.7c-1.34-2.02-4.06-2.57-6.1-1.22-2.02,1.35-2.56,4.06-1.22,6.1l13.13,19.72h-24.9c-3.64,0-4.83,1.29-5.74,2.59l-8.32,12.51c-1.35,2.03-.81,4.76,1.22,6.1,2.02,1.36,4.75,.82,6.09-1.21l7.44-11.2h30.06l7.46,11.2c1.35,2.03,4.07,2.58,6.09,1.21,2.03-1.34,2.57-4.08,1.22-6.1"/><path class="cls-2" d="M72.64,102.09h52.17c2.43,0,4.39-1.97,4.39-4.4s-1.96-4.4-4.39-4.4h-52.17c-2.43,0-4.4,1.97-4.4,4.4s1.98,4.4,4.4,4.4m52.17,30.66h-47.77v-12.35h43.12c2.44,0,4.4-1.97,4.4-4.4s-1.96-4.4-4.4-4.4h-47.52c-2.42,0-4.38,1.97-4.39,4.37h-.01v21.16c0,2.44,1.98,4.4,4.4,4.4h52.17c2.43,0,4.39-1.97,4.39-4.4s-1.96-4.39-4.39-4.39"/><path class="cls-2" d="M56.56,93.3H4.4c-2.43,0-4.4,1.97-4.4,4.39s1.98,4.4,4.4,4.4H26.09v35.06c0,2.44,1.96,4.4,4.4,4.4s4.4-1.97,4.4-4.4v-35.06h21.68c2.43,0,4.4-1.98,4.4-4.4s-1.96-4.39-4.4-4.39"/><path class="cls-2" d="M203.38,98.81c0-2,.49-3.15,1.58-3.92,3.13-2.29,6.41-.16,7,.42l22.07,22.09,22.03-22.03c.63-.47,3.59-2.5,6.73-.22,1.09,.8,1.57,1.93,1.57,3.94v38.07c0,2.44-1.97,4.4-4.39,4.4s-4.4-1.96-4.4-4.4v-28.85l-18.25,18.25c-.9,.9-2.11,1.32-3.29,1.28-1.18,.04-2.37-.38-3.28-1.28l-18.57-18.57v29.17c0,2.44-1.96,4.4-4.4,4.4s-4.4-1.96-4.4-4.4v-39.25"/><path class="cls-1" d="M313.66,234.24c-3,0-5.42,2.42-5.42,5.41s2.43,5.43,5.42,5.43,5.43-2.43,5.43-5.43-2.44-5.41-5.43-5.41m31.52,4.55c-5.87,0-10.62,4.76-10.62,10.61s4.75,10.6,10.62,10.6,10.62-4.74,10.62-10.6-4.75-10.61-10.62-10.61m-22.88-136.69h-36.48v30.66h36.48c4.42,0,6.79-2.26,6.79-4.78v-21.09c0-2.54-2.37-4.79-6.79-4.79m159.52,13.91c0-58.42-47.35-105.76-105.77-105.76-22.33,0-43.02,6.96-60.08,18.77-3.68-16.59-18.47-29.02-36.18-29.02-20.48,0-37.08,16.6-37.08,37.07s16.15,36.59,36.25,37.04c-5.56,12.86-8.66,27.01-8.66,41.9,0,58.43,47.34,105.78,105.75,105.78,1.08,0,2.13-.14,3.2-.16,1.66,4.08,3.93,7.83,6.72,11.13-6.15,.85-10.9,6.08-10.9,12.47,0,6.98,5.67,12.64,12.65,12.64s12.64-5.66,12.64-12.64c0-.56-.1-1.09-.16-1.62,5.3,2.47,11.18,3.88,17.4,3.88,22.85,0,41.37-18.53,41.37-41.38,0-6.9-1.71-13.37-4.69-19.09,17.06-18.8,27.53-43.64,27.53-71.01m-143.94,11.96c0,13.58-14.4,13.58-14.4,13.58h-42.07c-2.44,0-4.4-1.97-4.4-4.4v-39.45c0-2.44,1.96-4.4,4.4-4.4h42.07s14.4,0,14.4,13.58v21.09Zm66.58,13.58h-52.16c-2.43,0-4.41-1.97-4.41-4.4v-21.17h.01c.02-2.42,1.98-4.37,4.4-4.37h47.51c2.43,0,4.4,1.97,4.4,4.4s-1.97,4.4-4.4,4.4h-43.12v12.35h47.77c2.44,0,4.4,1.97,4.4,4.4s-1.96,4.4-4.4,4.4m0-39.46h-52.16c-2.43,0-4.41-1.98-4.41-4.39s1.98-4.4,4.41-4.4h52.16c2.44,0,4.4,1.97,4.4,4.4s-1.96,4.39-4.4,4.39m40.37,39.31c-.26,.06-.53,0-.79,.01-.28-.01-.53,.04-.8-.01-1.15-.19-2.22-.82-2.9-1.87l-26.43-39.71c-1.35-2.03-.8-4.75,1.21-6.1,2.02-1.35,4.76-.8,6.1,1.22l22.82,34.29,22.81-34.29c1.35-2.02,4.07-2.57,6.1-1.22,2.02,1.35,2.56,4.06,1.21,6.1l-26.43,39.71c-.7,1.05-1.77,1.68-2.91,1.87M203.05,44.19c-5.95,0-10.74,4.8-10.74,10.75s4.79,10.72,10.74,10.72,10.73-4.8,10.73-10.72-4.8-10.75-10.73-10.75"/></g></g></g></g></svg>