<?xml version="1.0" encoding="UTF-8"?><svg id="logo_FIWAREZone" xmlns="http://www.w3.org/2000/svg" viewBox="0 0 580 180.75"><defs><style>.cls-1{fill:#002e67;}.cls-2{fill:#5dc0cf;}</style></defs><g><g><path class="cls-2" d="M169.55,17.26c-4.36-2.58-9.6-4.45-15.61-5.44-5.97-.99-12.15-.99-18.23-.16-6.06,.84-12.03,2.5-17.61,4.84-5.59,2.36-10.78,5.42-15.27,9.06-4.51,3.64-8.33,7.88-11.11,12.59-2.81,4.73-4.31,9.5-4.61,14.08-.29,4.62,.62,9.05,2.66,13.03,2.05,4.03,5.25,7.62,9.45,10.51,4.25,2.92,9.53,5.13,15.72,6.38,6.23,1.25,12.76,1.42,19.25,.62,6.5-.81,12.9-2.57,18.87-5.12,5.95-2.55,11.43-5.9,16.07-9.87,4.62-3.96,8.41-8.52,10.98-13.54,2.56-4.96,3.71-9.9,3.6-14.55-.12-4.6-1.47-8.92-3.91-12.75-2.4-3.79-5.87-7.09-10.24-9.69Z"/><path class="cls-2" d="M200.58,32.1c-4.22-6.43-10.19-12-17.63-16.34-7.35-4.29-16.15-7.42-26.19-9.04-9.94-1.6-20.19-1.59-30.25-.22-10.03,1.39-19.92,4.13-29.18,8.03-9.27,3.9-17.94,8.98-25.5,15.03-7.62,6.08-14.14,13.19-19.03,21.11-4.94,8.01-7.75,16.13-8.56,23.99-.83,7.97,.39,15.67,3.53,22.67,3.19,7.12,8.34,13.51,15.3,18.74,7.05,5.31,15.95,9.4,26.5,11.78,10.66,2.42,21.94,2.86,33.15,1.58,11.27-1.31,22.42-4.34,32.79-8.83,10.34-4.48,19.83-10.39,27.83-17.43,7.95-6.99,14.38-15.04,18.7-23.86,4.26-8.7,6.04-17.29,5.66-25.34-.38-7.94-2.85-15.37-7.13-21.88Zm-9.67,34.51c-3.45,6.87-8.55,13.12-14.81,18.55-6.3,5.46-13.75,10.06-21.85,13.55-8.12,3.5-16.85,5.89-25.69,6.94-8.8,1.05-17.68,.76-26.1-1.03-8.35-1.78-15.43-4.9-21.09-8.96-5.6-4.02-9.79-8.97-12.44-14.51-2.6-5.45-3.71-11.49-3.18-17.75,.53-6.2,2.65-12.63,6.5-18.99,3.81-6.31,8.96-11.99,15.02-16.85,6.02-4.85,12.96-8.92,20.4-12.05,7.42-3.13,15.35-5.34,23.41-6.45,8.08-1.11,16.31-1.11,24.27,.19,8.01,1.31,15.05,3.81,20.87,7.24,5.9,3.48,10.61,7.9,13.9,13,3.33,5.16,5.22,11.02,5.44,17.26,.23,6.33-1.24,13.06-4.66,19.85Z"/><path class="cls-2" d="M232.75,68.86c-.8-11.48-4.6-22.16-10.9-31.49-6.17-9.14-14.77-17-25.39-23.13-10.41-6-22.83-10.34-36.87-12.58-13.87-2.21-28.13-2.15-42.11-.21-13.91,1.93-27.64,5.75-40.52,11.16-12.91,5.43-25.07,12.49-35.73,20.91-10.79,8.52-20.14,18.49-27.29,29.66C6.64,74.56,2.28,86.17,.69,97.46c-1.63,11.53-.37,22.76,3.62,33.08,4.08,10.55,11.03,20.12,20.64,28.05,9.81,8.08,22.37,14.41,37.46,18.25,15.3,3.89,31.62,4.81,47.94,3.08,16.43-1.73,32.71-6.12,47.84-12.75,15.09-6.62,28.9-15.39,40.5-25.88,11.45-10.35,20.62-22.3,26.66-35.33,5.92-12.79,8.21-25.35,7.39-37.1Zm-19.22,23.58c-5.18,10.87-12.97,20.81-22.64,29.44-9.77,8.71-21.39,16-34.06,21.52-12.7,5.54-26.36,9.24-40.15,10.75-13.73,1.53-27.49,.87-40.44-2.25-12.79-3.07-23.52-8.22-31.96-14.87-8.3-6.53-14.38-14.46-18.04-23.25-3.59-8.62-4.86-18.05-3.68-27.78,1.17-9.55,4.73-19.4,10.81-29.08,6-9.55,13.93-18.08,23.12-25.38,9.11-7.24,19.53-13.32,30.63-17.97,11.07-4.66,22.89-7.95,34.87-9.61,12.03-1.66,24.3-1.68,36.2,.22,12.05,1.92,22.65,5.66,31.53,10.82,9.01,5.23,16.28,11.93,21.46,19.72,5.27,7.91,8.38,16.93,8.95,26.63,.57,9.86-1.48,20.4-6.58,31.09Z"/></g><g><path class="cls-1" d="M99.21,75.77c4.25,2.92,9.53,5.13,15.72,6.38,6.23,1.26,12.77,1.41,19.25,.62,6.5-.8,12.91-2.56,18.87-5.12,5.31-2.27,10.24-5.19,14.54-8.62-23.85-13-50.8-20.99-79.48-22.57-.54,1.95-.89,3.87-1.01,5.76-.3,4.62,.62,9.05,2.64,13.04,2.06,4.02,5.25,7.62,9.46,10.51Z"/><path class="cls-1" d="M63.07,116.08c7.06,5.3,15.96,9.39,26.51,11.78,10.66,2.41,21.93,2.85,33.15,1.57,11.27-1.3,22.42-4.33,32.78-8.83,10.35-4.48,19.84-10.39,27.85-17.43,5.08-4.47,9.53-9.38,13.21-14.64-4.39-3.59-8.95-6.99-13.65-10.17-2.07,2.37-4.35,4.64-6.82,6.78-6.3,5.46-13.75,10.06-21.85,13.55-8.11,3.49-16.85,5.88-25.69,6.93-8.8,1.05-17.68,.77-26.1-1.03-8.35-1.79-15.44-4.9-21.09-8.96-5.6-4.03-9.79-8.97-12.43-14.5-2.6-5.46-3.71-11.49-3.18-17.76,.48-5.59,2.26-11.37,5.43-17.12-5.51,.19-10.96,.61-16.33,1.25-.71,1.03-1.4,2.07-2.05,3.13-4.94,8.02-7.75,16.14-8.56,23.99-.83,7.97,.39,15.67,3.53,22.68,3.19,7.11,8.33,13.51,15.29,18.74Z"/><path class="cls-1" d="M209.4,100.02c-4.87,7.93-11.14,15.28-18.52,21.86-9.76,8.71-21.38,16.01-34.05,21.53-12.7,5.53-26.36,9.23-40.16,10.75-13.73,1.52-27.48,.86-40.43-2.25-12.79-3.08-23.53-8.23-31.96-14.88-8.3-6.52-14.38-14.45-18.03-23.25-3.6-8.61-4.88-18.05-3.69-27.78,1.17-9.55,4.72-19.4,10.8-29.09,1.42-2.24,2.94-4.42,4.55-6.55-6.27,1.34-12.41,3-18.43,4.95-1.97,2.55-3.83,5.17-5.55,7.86C6.65,74.55,2.28,86.16,.69,97.46c-1.62,11.53-.36,22.76,3.63,33.08,4.09,10.54,11.02,20.12,20.64,28.04,9.81,8.09,22.38,14.41,37.46,18.25,15.31,3.89,31.62,4.81,47.94,3.08,16.42-1.73,32.7-6.12,47.84-12.76,15.1-6.61,28.91-15.38,40.49-25.87,9.3-8.4,17.1-17.85,22.93-28.08-3.86-4.59-7.94-8.99-12.22-13.18Z"/></g></g><g><g><path class="cls-1" d="M306.48,6.64c-3.82-.36-12.37-.55-17.73-.55-12.74,0-19.37,4.82-19.37,16.92v49.48c0,1,.82,1.82,1.82,1.82h4.64c1.01,0,1.82-.82,1.82-1.82v-29.74h27.93c1,0,1.82-.82,1.82-1.82v-3.46c0-1-.82-1.82-1.82-1.82h-27.93v-12.64c0-6.91,1.55-9.46,11.19-9.46h17.55c.64,0,1-.46,1-1.09V7.91c0-.54-.36-1.18-.91-1.27Z"/><path class="cls-1" d="M327.03,6.73h-5c-1,0-1.64,.82-1.64,1.73V72.49c0,1.01,.72,1.82,1.64,1.82h5c1,0,1.64-.91,1.64-1.82V8.46c0-1-.72-1.73-1.64-1.73Z"/><path class="cls-1" d="M410.67,6.73h-4.83c-1,0-1.73,.82-1.73,1.72V50.12c0,12.27-2.45,17.82-12.73,17.82-1.55,0-6.37-.27-8.37-.82V8.37c0-1-.63-1.64-1.63-1.64h-4.91c-.99,0-1.72,.82-1.72,1.72v58.67c-2.01,.54-6.83,.82-8.37,.82-10.28,0-12.73-5.55-12.73-17.82V8.46c0-.91-.82-1.72-1.73-1.72h-4.82c-1.01,0-1.73,.82-1.73,1.72V50.12c0,15.82,5.46,24.83,19.29,24.83,4.72,0,9-.46,14.18-2.28,5.19,1.82,9.56,2.28,14.28,2.28,13.82,0,19.28-9.01,19.28-24.83V8.46c0-.91-.82-1.72-1.72-1.72Z"/><path class="cls-1" d="M451.41,6.1h-5.28c-13.09,0-19.55,4.91-19.55,18.83v47.57c0,.91,.72,1.82,1.64,1.82h5c1,0,1.64-.91,1.64-1.82v-26.92h27.83v26.92c0,1,.72,1.82,1.64,1.82h5.01c.91,0,1.63-.91,1.63-1.82V24.92c0-13.92-6.54-18.83-19.55-18.83Zm11.28,32.19h-27.83v-13.37c0-9.46,3-11.55,11.28-11.55h5.28c8.27,0,11.28,2.09,11.28,11.55v13.37Z"/><path class="cls-1" d="M514.52,44.66c8.28-2.18,14.28-8.18,14.28-18.37v-.64c0-14.74-11.1-19.56-25.47-19.56-5.27,0-12.09,.28-16.01,.73-1.64,.18-2.18,.73-2.18,2v63.67c0,1,.73,1.82,1.64,1.82h4.91c1.01,0,1.64-.91,1.64-1.82v-26.74c4.82,.18,7,.28,10,.28h2.37l16.28,27.1c.72,1.18,1.27,1.18,2.35,1.18h5.83c.73,0,1.18-.55,1.18-1.18,0-.27-.09-.55-.27-.82l-16.55-27.65Zm-11.19-5.73c-2.09,0-6-.09-10-.18V13.83c2.18-.27,7.18-.27,10-.27,11.37,0,17.28,3,17.28,12.1v.64c0,9.82-6.09,12.64-17.28,12.64Z"/><path class="cls-1" d="M561.45,13.55h17.55c.64,0,1-.45,1-1.09V7.91c0-.55-.36-1.18-.91-1.27-3.82-.36-12.37-.55-17.73-.55-12.74,0-19.37,4.82-19.37,16.92V58.03c0,12.1,6.64,16.92,19.37,16.92,5.36,0,14.28-.09,17.73-.46,.55-.09,.91-.73,.91-1.27v-4.64c0-.63-.36-1.09-1-1.09h-17.55c-9.65,0-11.19-2.55-11.19-9.46v-15.27h27.92c1,0,1.82-.83,1.82-1.83v-3.46c0-1-.82-1.82-1.82-1.82h-27.92v-12.64c0-6.91,1.54-9.46,11.19-9.46Z"/></g><g><path class="cls-2" d="M315.34,162.57h-45.67c-2.31,0-4.12-.91-4.12-3.12v-8.05c0-1.41,.3-2.62,1.51-4.43l28.07-42.45c.3-.4,.4-.7,.4-1.01,0-.5-.4-.8-1.11-.8h-25.05c-1.11,0-2.01-.8-2.01-1.91v-11.07c0-1.11,.91-1.91,2.01-1.91h43.36c2.11,0,4.02,.9,4.02,2.82,0,0,.1,1.01,.1,2.41,0,2.72-.1,6.74-.1,6.74,0,.91-.3,1.81-.8,2.62l-28.37,43.46c-.3,.4-.5,.8-.5,1.11,0,.4,.4,.7,1.11,.7h27.16c1.11,0,2.01,.7,2.01,1.81v11.07c0,1.11-.91,2.01-2.01,2.01Z"/><path class="cls-2" d="M354.88,163.48c-16.6,0-29.78-8.95-29.78-32.29v-11.97c0-23.34,13.18-32.29,29.78-32.29s29.78,8.95,29.78,32.29v11.97c0,23.34-13.18,32.29-29.78,32.29Zm12.47-44.26c0-12.07-4.02-17.2-12.47-17.2s-12.37,5.13-12.37,17.2v11.97c0,12.07,3.92,17.2,12.37,17.2s12.47-5.13,12.47-17.2v-11.97Z"/><path class="cls-2" d="M453.26,162.57h-13.48c-1.11,0-1.81-.91-1.81-2.01v-44.87c0-11.27-3.72-13.98-11.97-13.98-4.12,0-8.65,.2-11.77,.6v58.25c0,1.11-.8,2.01-1.91,2.01h-13.38c-1.11,0-1.91-.91-1.91-2.01V94.87c0-4.53,1.21-5.63,5.13-6.24,5.33-.8,16.8-1.71,21.93-1.71,19.52,0,31.09,5.43,31.09,28.77v44.87c0,1.11-.8,2.01-1.91,2.01Z"/><path class="cls-2" d="M512.91,162.17c-3.52,.5-8.65,1.31-19.52,1.31-12.98,0-24.45-3.32-24.45-21.63v-33.4c0-18.31,11.57-21.53,24.55-21.53,10.87,0,15.9,.8,19.42,1.31,1.41,.2,2.01,.7,2.01,2.01v9.36c0,1.11-.91,2.01-2.01,2.01h-20.42c-4.73,0-6.44,1.61-6.44,6.84v9.15h26.06c1.11,0,2.01,.9,2.01,2.01v9.56c0,1.11-.91,2.01-2.01,2.01h-26.06v10.66c0,5.23,1.71,6.84,6.44,6.84h20.42c1.11,0,2.01,.9,2.01,2.01v9.36c0,1.31-.6,1.91-2.01,2.11Z"/></g></g></svg>