<?xml version="1.0" encoding="UTF-8"?><svg id="logo_Martel" xmlns="http://www.w3.org/2000/svg" viewBox="0 0 463.38 280"><defs><style>.cls-1,.cls-2{fill:#284b55;}.cls-2{fill-rule:evenodd;}</style></defs><g><path class="cls-1" d="M71.42,181.72l-17.06,29.77c-2.49,3.97-5.57,5.95-9.26,5.95s-6.77-2.09-9.26-6.28l-17.32-29.44v46.85H0v-78.5H18.25l26.78,45.31,26.65-45.31h18.25v78.5h-18.52v-46.85Z"/><path class="cls-1" d="M178.3,228.58h-19.32l-5.33-13.56h-31.84l-5.2,13.56h-19.32l30.38-71.88c1.33-2.5,2.82-4.23,4.46-5.18,1.64-.95,3.66-1.43,6.06-1.43s4.33,.44,5.8,1.32c1.47,.88,2.78,2.65,3.93,5.29l30.38,71.88Zm-28.91-26.46l-11.19-31.09-11.72,31.09h22.92Z"/><path class="cls-1" d="M257.72,228.58h-21.45l-18.52-29.1h-13.32v29.1h-18.52v-61.63c0-5.88,1.64-10.16,4.93-12.84,3.29-2.68,8.79-4.02,16.52-4.02h15.72c9.41,0,16.9,2.37,22.45,7.11,5.55,4.74,8.33,10.75,8.33,18.02,0,5.29-1.67,9.87-5,13.73-3.33,3.86-7.44,6.52-12.32,7.99l21.19,31.64Zm-26.18-45.26c2.53-2.24,3.8-5.03,3.8-8.38s-1.22-6.05-3.66-8.1c-2.44-2.06-5.71-3.09-9.79-3.09h-9.19c-5.51,0-8.26,2.32-8.26,6.95v15.99h17.45c3.91,0,7.13-1.12,9.66-3.36Z"/><path class="cls-1" d="M328.55,163.75h-25.45v64.83h-18.52v-64.83h-25.32v-13.67h69.28v13.67Z"/><path class="cls-1" d="M398.04,228.58h-33.58c-10.66,0-18.14-1.52-22.45-4.57-4.31-3.05-6.46-8.43-6.46-16.15v-57.77h62.49v13.67h-43.97v18.41h30.78l-1.33,13.67h-29.45v10.91c0,3.09,.84,5.22,2.53,6.4,1.69,1.18,4.75,1.76,9.19,1.76h32.24v13.67Z"/><path class="cls-1" d="M463.38,228.58h-28.25c-10.66,0-18.37-1.71-23.12-5.13-4.75-3.42-7.13-8.98-7.13-16.7v-56.67h18.52v56.67c0,3.09,.84,5.22,2.53,6.4,1.69,1.18,4.75,1.76,9.19,1.76h28.25v13.67Z"/></g><g><path class="cls-2" d="M302.11,0c1.44,0,2.22,.95,2.52,1.19,2.34,1.91,15.99,33.48,21.65,46.88,4.4-5.92,8.91-13.39,13.34-20.27,1.23-1.91,3.11-5.51,5.72-5.65,3.41-.19,4.45,3.74,5.72,6.42,11.16,23.51,23.65,45.49,37.57,65.68,3.15,4.56,6.77,8.46,10.65,12.29,7.21,7.12,23.08,21.33,23.7,21.95-7.99-.13-16.03,0-24.37-.02-24.72-19.52-39.8-48.55-55.96-76.54-4.32,6.19-8.91,13.11-13.57,19.49-1.39,1.91-3.12,5.03-5.83,5.21-2.63,.17-3.48-2.35-4.49-4.32-6.66-13.09-11.17-27.58-16.93-41.09-10.86,18.85-23.05,36.81-37.34,53.28-13.23,15.24-27.71,28.7-43.51,41.54-1.02,.82-3.3,2.46-3.47,2.46-2.28,0-22.88-.03-30.05,0,12.74-7.59,24.53-15.59,34.64-25.38,10.04-9.72,19.49-19.85,28.59-31.12,14.39-17.81,40.2-59.39,48.06-70.03,1.21-1.64,2.6-1.97,3.35-1.97Z"/><path class="cls-2" d="M156.55,128.51h-37.57c48.32-21.79,92.05-55.09,119.79-95.85,.92-1.35,2.19-3.46,4.71-4.86,2.88-1.61,12.5,9.07,18.43,13.08-3.32,5.18-4.85,7.48-9.29,12.2-2.41-1.91-2.45-2.27-4.52-3.56-23.72,31.19-54.36,60.06-91.55,78.99Z"/><path class="cls-2" d="M184.36,73.7c-4.2,4.19-8.99,7.85-13.64,11.63-.79-.62-1.39-1.17-2.31-1.99-.38-.34-2-1.93-2.19-2.1-.99-.92-2.62,.21-3.59,.98-23.99,18.88-54.39,33.17-102.39,46.25-.97,.26-37.7-.26-59.08,.05,43.53-10.34,62.81-14.82,92.36-26.34,7.03-2.74,13.79-5.47,20.09-8.86,16.83-9.07,31.77-20.66,46.64-32.01,1.89-1.44,3.71-3.61,6.58-2.88,1.54,.39,3.58,2.37,4.75,3.54,3.99,3.99,8.82,8.43,12.79,11.74Z"/></g><g><path class="cls-1" d="M2.54,239.26h5.74c.37,0,.56,.19,.56,.56v5.74c0,.38-.19,.56-.56,.56H2.54c-.38,0-.56-.19-.56-.56v-5.74c0-.37,.19-.56,.56-.56Zm-.56,11.59c0-.37,.19-.56,.56-.56h5.74c.37,0,.56,.19,.56,.56v28.19c0,.38-.19,.56-.56,.56H2.54c-.38,0-.56-.19-.56-.56v-28.19Z"/><path class="cls-1" d="M55.8,277.81c0,1.2-.53,1.8-1.58,1.8h-3.77c-.53,0-.91-.23-1.15-.68-.24-.45-.37-.98-.37-1.58v-23.35c0-.94,.38-1.79,1.15-2.56,.77-.77,1.75-1.15,2.95-1.15h12.72c1.35,0,2.61,.27,3.77,.82,1.16,.54,2.19,1.27,3.07,2.17,.88,.9,1.57,1.93,2.05,3.1,.49,1.16,.73,2.36,.73,3.6v19.08c0,.38-.21,.56-.62,.56h-5.68c-.38,0-.56-.19-.56-.56v-17.9c0-.94-.14-1.71-.42-2.31-.28-.6-.68-1.07-1.18-1.41-.51-.34-1.1-.57-1.77-.7-.68-.13-1.41-.2-2.19-.2h-5.46c-.41,0-.8,.15-1.15,.45-.36,.3-.53,.62-.53,.96v19.86Z"/><path class="cls-1" d="M122.17,277.81c0,1.2-.53,1.8-1.58,1.8h-3.77c-.53,0-.91-.23-1.15-.68-.24-.45-.37-.98-.37-1.58v-23.35c0-.94,.38-1.79,1.15-2.56,.77-.77,1.75-1.15,2.95-1.15h12.72c1.35,0,2.61,.27,3.77,.82,1.16,.54,2.19,1.27,3.07,2.17,.88,.9,1.57,1.93,2.05,3.1,.49,1.16,.73,2.36,.73,3.6v19.08c0,.38-.21,.56-.62,.56h-5.68c-.38,0-.56-.19-.56-.56v-17.9c0-.94-.14-1.71-.42-2.31-.28-.6-.68-1.07-1.18-1.41-.51-.34-1.1-.57-1.77-.7-.68-.13-1.41-.2-2.19-.2h-5.46c-.41,0-.8,.15-1.15,.45-.36,.3-.53,.62-.53,.96v19.86Z"/><path class="cls-1" d="M209.8,268.24c0,2.25-.2,4.11-.59,5.57-.39,1.46-.99,2.63-1.8,3.49-.81,.86-1.83,1.46-3.07,1.8-1.24,.34-2.72,.51-4.45,.51h-10.02c-1.73,0-3.15-.31-4.28-.93-1.13-.62-2.03-1.43-2.7-2.42-.68-.99-1.14-2.12-1.41-3.38-.26-1.26-.39-2.54-.39-3.85v-9.9c0-1.35,.23-2.57,.7-3.66,.47-1.09,1.1-2.02,1.89-2.79,.79-.77,1.72-1.36,2.79-1.77,1.07-.41,2.2-.62,3.4-.62h11.37c1.01,0,2.03,.19,3.07,.56,1.03,.38,1.95,.93,2.76,1.66,.81,.73,1.46,1.61,1.97,2.64,.51,1.03,.76,2.22,.76,3.57v9.51Zm-6.92-8.27c0-.45-.14-.85-.42-1.21-.28-.36-.65-.66-1.1-.9-.45-.24-.96-.42-1.52-.53-.56-.11-1.13-.17-1.69-.17h-6.13c-.49,0-.98,.05-1.46,.14-.49,.09-.93,.25-1.32,.48-.39,.23-.72,.53-.98,.9-.26,.38-.39,.83-.39,1.35v9c0,.75,.16,1.37,.48,1.86,.32,.49,.72,.87,1.21,1.15,.49,.28,1.01,.47,1.58,.56,.56,.09,1.09,.14,1.58,.14h5.18c1.35,0,2.52-.32,3.52-.96,.99-.64,1.49-1.44,1.49-2.42v-9.4Z"/><path class="cls-1" d="M267.24,276.79c-.79,2.14-2.46,3.21-5.01,3.21s-4.16-1.07-4.95-3.21l-9.74-26.17v-.17c0-.19,.09-.28,.28-.28h6.47c.23,0,.37,.04,.45,.11,.07,.08,.15,.23,.23,.45l6.53,17.84c.04,.08,.13,.28,.28,.62,.15,.34,.3,.51,.45,.51s.3-.17,.45-.51c.15-.34,.24-.54,.28-.62l6.64-17.84c.07-.23,.15-.37,.23-.45,.07-.07,.23-.11,.45-.11h6.47c.19,0,.28,.09,.28,.28v.17l-9.79,26.17Z"/><path class="cls-1" d="M317.16,250.29h15.87c1.43,0,2.64,.31,3.63,.93,.99,.62,1.8,1.42,2.42,2.39,.62,.98,1.07,2.06,1.35,3.26,.28,1.2,.42,2.4,.42,3.6v18.57c0,.38-.19,.56-.56,.56h-19.64c-1.13,0-2.05-.35-2.76-1.04-.71-.69-1.27-1.51-1.66-2.45-.39-.94-.67-1.88-.82-2.81-.15-.94-.23-1.65-.23-2.14,0-.9,.11-1.89,.34-2.98,.23-1.09,.58-2.09,1.07-3.01,.49-.92,1.13-1.7,1.91-2.34,.79-.64,1.74-.96,2.87-.96h9.4c.98,0,1.75-.23,2.34-.7,.58-.47,.87-1.02,.87-1.66,0-.52-.19-1.05-.56-1.58-.38-.52-.86-.79-1.46-.79h-14.8c-.38,0-.56-.19-.56-.56v-5.74c0-.37,.19-.56,.56-.56Zm16.26,22.73c.37,0,.56-.19,.56-.56v-3.38c0-.37-.19-.56-.56-.56h-10.02c-.53,0-.96,.22-1.29,.65-.34,.43-.51,.91-.51,1.43,0,.64,.19,1.2,.56,1.69,.37,.49,.9,.73,1.58,.73h9.68Z"/><path class="cls-1" d="M390.62,272.18c0,.38,.19,.56,.56,.56h4.73c.3,.04,.45,.23,.45,.56v5.74c0,.38-.19,.56-.56,.56h-7.09c-1.43,0-2.61-.43-3.55-1.29-.94-.86-1.41-1.88-1.41-3.04v-17.56c0-.37-.19-.56-.56-.56h-2.98c-.38,0-.56-.19-.56-.56v-5.74c0-.37,.19-.56,.56-.56h2.98c.37,0,.56-.19,.56-.56v-7.03c0-.37,.19-.56,.56-.56h5.74c.37,0,.56,.19,.56,.56v7.03c0,.38,.19,.56,.56,.56h4.61c.37,0,.56,.19,.56,.56v5.74c0,.38-.19,.56-.56,.56h-4.61c-.38,0-.56,.19-.56,.56v14.46Z"/><path class="cls-1" d="M441.44,268.8c0,.56,.15,1.08,.45,1.55,.3,.47,.7,.88,1.21,1.24,.51,.36,1.12,.64,1.83,.84,.71,.21,1.46,.31,2.25,.31h13.39c.37,0,.56,.19,.56,.56v5.74c0,.38-.19,.56-.56,.56h-9.51c-3.15,0-5.79-.26-7.91-.79-2.12-.52-3.83-1.36-5.12-2.5-1.29-1.14-2.21-2.6-2.76-4.36-.54-1.76-.82-3.88-.82-6.36,0-3,.46-5.49,1.38-7.46,.92-1.97,2.12-3.54,3.6-4.7,1.48-1.16,3.15-1.98,5.01-2.45,1.86-.47,3.72-.7,5.6-.7,2.33,0,4.33,.27,6.02,.82,1.69,.54,3.08,1.31,4.16,2.31,1.09,.99,1.89,2.2,2.39,3.63,.51,1.43,.76,3.02,.76,4.78v5.85c0,.38-.19,.56-.56,.56h-20.82c-.38,0-.56,.19-.56,.56Zm15.03-7.15c.37,0,.56-.19,.56-.56,0-1.43-.66-2.56-1.97-3.4-1.31-.84-3.15-1.27-5.51-1.27-.75,0-1.59,.11-2.5,.34-.92,.23-1.8,.53-2.64,.93-.84,.39-1.55,.88-2.11,1.46-.56,.58-.84,1.23-.84,1.94,0,.38,.19,.56,.56,.56h14.46Z"/></g></svg>