<?xml version="1.0" encoding="UTF-8"?><svg id="logo_Snap4City" xmlns="http://www.w3.org/2000/svg" viewBox="0 0 569.7 140.45"><defs><style>.cls-1{opacity:.7;stroke-width:19.41px;}.cls-1,.cls-2{stroke:#1f9dd9;}.cls-1,.cls-2,.cls-3,.cls-4{fill:none;stroke-linecap:round;}.cls-1,.cls-4{stroke-linejoin:round;}.cls-5{fill:#e3dd1b;}.cls-6{fill:#de8126;}.cls-7{fill:#1f9dd9;}.cls-8{fill:#5b6368;}.cls-9{fill:#484f57;}.cls-10{fill:#81bfdb;}.cls-11{fill:#777d81;}.cls-2,.cls-3{stroke-width:21.56px;}.cls-3{stroke:#a3afb4;}.cls-4{stroke:#74cbf2;stroke-width:21.65px;}</style></defs><path class="cls-3" d="M90.4,84.55c-2.03-14.36-11.91-27.05-26.58-31.96-20.69-6.92-43.08,4.26-50.01,24.98-6.93,20.72,4.22,43.13,24.91,50.05,7.41,2.48,15.03,2.63,22.08,.87"/><path class="cls-8" d="M548.91,138.79l20.79-51.12h-12.64l-8.91,22.04-10.43-22.04h-12.92l17.34,36.75-5.87,14.37h12.64Zm-56.58-50.91v11.68h9.67v39.24h11.67v-39.24h9.74v-11.68h-31.09Zm-4.9,.14h-11.67v50.77h11.67v-50.77Zm-23.49,48.87c3.08-1.22,5.87-3.07,8.36-5.56l-8.22-8.29c-1.34,1.34-2.86,2.34-4.56,3.01-1.7,.67-3.43,1-5.18,1s-3.46-.34-5.14-1c-1.68-.67-3.19-1.67-4.52-3.01-1.29-1.33-2.28-2.82-2.97-4.46-.69-1.63-1.04-3.37-1.04-5.21s.35-3.59,1.04-5.25c.69-1.66,1.68-3.15,2.97-4.49,1.33-1.34,2.84-2.34,4.52-3.01,1.68-.67,3.4-1,5.14-1s3.48,.34,5.18,1c1.7,.67,3.22,1.67,4.56,3.01l8.22-8.22c-2.49-2.48-5.29-4.35-8.4-5.59-3.11-1.24-6.29-1.86-9.53-1.86s-6.44,.62-9.57,1.86c-3.13,1.24-5.94,3.11-8.43,5.59-2.39,2.4-4.22,5.13-5.49,8.19-1.27,3.06-1.9,6.32-1.9,9.77s.63,6.64,1.9,9.71c1.27,3.06,3.1,5.82,5.49,8.25,2.49,2.49,5.29,4.34,8.39,5.56,3.11,1.22,6.3,1.83,9.57,1.83,3.32,0,6.52-.61,9.6-1.83"/><path class="cls-11" d="M391.13,105.27c.03-.14,.08-.34,.15-.62l9.22-24.09c.48-1.23,1.3-1.84,2.46-1.84,.55,0,1.09,.22,1.64,.67,.55,.44,.82,.97,.82,1.59v24.7c0,.55-.26,1.08-.77,1.59-.51,.51-1.04,.77-1.59,.77h-9.94c-.55,0-1.02-.24-1.43-.72-.41-.48-.62-.99-.62-1.54,0-.2,.02-.37,.05-.51m14.4,33.52h10.76l.41-.41v-16.71c0-.55,.17-.97,.51-1.28,.34-.31,.77-.55,1.28-.72,.51-.17,1.01-.29,1.49-.36,.48-.07,.89-.1,1.23-.1l.41-.41v-10.15l-.41-.41c-.34,0-.75-.03-1.23-.1-.48-.07-.97-.17-1.49-.31-.51-.14-.94-.36-1.28-.67-.34-.31-.51-.73-.51-1.28V37.1c0-.07-.03-.14-.1-.2l-.2-.2-.1-.21h-10.46c-.2,0-.38,.21-.51,.62l-27.37,70.73v11.48h25.11c.48,0,1.01,.31,1.59,.92,.58,.62,.87,1.16,.87,1.64v16.91h0Z"/><path class="cls-7" d="M339.62,80.87c1.91,.07,3.71,.5,5.38,1.29,1.67,.79,3.13,1.82,4.36,3.09,1.23,1.27,2.2,2.76,2.92,4.48,.72,1.71,1.08,3.53,1.08,5.45s-.36,3.74-1.08,5.45c-.72,1.71-1.69,3.2-2.92,4.47-1.23,1.27-2.68,2.3-4.36,3.09-1.67,.79-3.47,1.22-5.38,1.29v-28.6Zm28.65,2.2c-1.6-3.79-3.83-7.12-6.66-9.99-2.84-2.87-6.13-5.16-9.89-6.87-3.76-1.71-7.79-2.6-12.09-2.67h-17.32v75.24h17.32v-11.99c4.31-.07,8.34-.94,12.09-2.61,3.76-1.67,7.06-3.95,9.89-6.82,2.83-2.87,5.06-6.2,6.66-10,1.6-3.79,2.41-7.84,2.41-12.15s-.8-8.35-2.41-12.15m-83.8,11.02l5.94,18.25h-12.2l6.25-18.25Zm32.7,44.69l-24.29-75.24h-16.4l-25.62,75.24h18.35l3.07-9.12h23.68l2.97,9.12h18.25Zm-88.15-31.26l-24.5-43.77h-18.86v75.03h17.33v-43.87l24.6,43.87h18.76V63.55h-17.33v43.97Zm-70.52,32.13c1.84-.38,3.65-.97,5.42-1.79,4.48-2.05,8-5.06,10.55-9.02s3.82-8.34,3.82-13.12-1.28-9.26-3.82-13.22c-2.55-3.96-6.06-6.97-10.55-9.02-1.22-.54-2.43-1.02-3.62-1.43-1.2-.41-2.37-.78-3.53-1.13-1.3-.41-2.53-.83-3.69-1.28-1.16-.44-2.22-.94-3.18-1.49-1.02-.68-1.71-1.62-2.05-2.82-.34-1.2-.24-2.34,.31-3.44,.41-.82,.96-1.42,1.64-1.79,.68-.38,1.35-.62,2-.72,.65-.1,1.23-.1,1.74,0,.51,.1,.83,.15,.97,.15,.75,.2,1.62,.61,2.62,1.23,.99,.62,1.49,1.71,1.49,3.28h17.23c0-2.53-.41-4.95-1.22-7.28s-1.99-4.42-3.51-6.31c-1.53-1.88-3.35-3.49-5.45-4.82-2.11-1.33-4.46-2.31-7.04-2.92-2.67-.68-5.3-.92-7.89-.72-2.6,.21-5.02,.8-7.28,1.8-2.26,.99-4.31,2.34-6.15,4.05-1.84,1.71-3.38,3.73-4.61,6.05-1.3,2.53-2.07,5.18-2.31,7.95-.24,2.77,0,5.45,.72,8.05,.72,2.6,1.89,5.02,3.54,7.28,1.64,2.26,3.65,4.14,6.05,5.64,1.84,1.16,3.69,2.09,5.53,2.77,1.84,.68,3.62,1.3,5.33,1.84,.96,.34,1.86,.65,2.72,.92,.86,.27,1.66,.58,2.41,.92,.96,.48,1.72,1.01,2.31,1.59,.58,.58,1.02,1.18,1.33,1.8,.31,.61,.49,1.2,.56,1.74,.07,.55,.1,.99,.1,1.33s-.03,.79-.1,1.33c-.07,.55-.25,1.11-.56,1.69-.31,.58-.75,1.18-1.33,1.79-.58,.62-1.35,1.13-2.31,1.54-1.37,.62-2.77,.89-4.2,.82-1.44-.07-2.77-.51-4-1.33-.68-.41-1.47-1.18-2.36-2.31-.89-1.13-1.33-2.72-1.33-4.76h-17.32c0,4.51,1.02,8.66,3.08,12.45,2.05,3.79,4.92,6.89,8.61,9.28,2.12,1.37,4.36,2.38,6.71,3.02,2.36,.65,4.73,.97,7.13,.97,1.84,0,3.69-.19,5.53-.56"/><line class="cls-4" x1="90.63" y1="86.21" x2="109.81" y2="67.85"/><path class="cls-2" d="M60.8,128.49c4.32-1.08,8.43-2.89,12.15-5.33"/><line class="cls-4" x1="90.63" y1="86.21" x2="109.81" y2="67.85"/><path class="cls-10" d="M121.27,44.59c.73,.89,2.02,1.14,3.04,.54l21.1-12.26c1.14-.66,1.53-2.13,.87-3.27-.66-1.14-2.13-1.53-3.27-.87l-21.1,12.26c-1.14,.66-1.53,2.13-.87,3.27,.07,.12,.14,.22,.23,.32"/><path class="cls-6" d="M116.26,34.17c.15,.18,.33,.34,.54,.48,1.11,.72,2.59,.41,3.31-.69l6.67-10.22c.72-1.11,.41-2.59-.69-3.31-1.1-.72-2.59-.41-3.31,.69l-6.67,10.21c-.58,.9-.49,2.04,.16,2.83"/><path class="cls-9" d="M131.76,18.34c.55,.66,1.44,1.01,2.34,.82,1.29-.27,2.12-1.54,1.85-2.83l-2.5-11.94c-.27-1.29-1.54-2.12-2.83-1.85-1.29,.27-2.12,1.54-1.85,2.83l2.5,11.94c.08,.39,.26,.74,.49,1.03"/><path class="cls-9" d="M124.53,13.62c.55,.66,1.44,1.01,2.34,.82l11.94-2.51c1.29-.27,2.12-1.54,1.85-2.83-.27-1.29-1.54-2.12-2.83-1.85l-11.94,2.51c-1.29,.27-2.12,1.54-1.85,2.83,.08,.39,.26,.74,.49,1.03"/><path class="cls-5" d="M104.71,33.77c.38,.46,.93,.78,1.58,.85,1.31,.15,2.49-.79,2.64-2.11l2.74-24.25c.15-1.31-.79-2.5-2.11-2.64-1.31-.15-2.5,.79-2.64,2.11l-2.74,24.25c-.07,.67,.14,1.31,.53,1.79"/><line class="cls-4" x1="74.01" y1="58.76" x2="72.63" y2="34.8"/><line class="cls-4" x1="73.01" y1="29.31" x2="81.65" y2="10.83"/><line class="cls-1" x1="50.83" y1="56.68" x2="46.93" y2="40.8"/><line class="cls-1" x1="31.2" y1="67.19" x2="23.58" y2="52.85"/><line class="cls-1" x1="16.61" y1="83.59" x2="9.7" y2="75.54"/></svg>