<?xml version="1.0" encoding="UTF-8"?><svg id="logo_FaubourgNumérique" xmlns="http://www.w3.org/2000/svg" viewBox="0 0 560 95.69"><defs><style>.cls-1{fill:#002e67;}.cls-2{fill:#fff;}.cls-3{fill:#b1b2b4;}.cls-4{fill:#5dc0cf;}</style></defs><g><path class="cls-1" d="M132.21,20.82v7.19h12.59v5.05h-12.59v9.91h-6.3V15.76h20.56v5.05h-14.27Z"/><path class="cls-1" d="M165.64,24.06c1.74,1.54,2.6,3.87,2.6,6.98v11.93h-5.68v-2.6c-1.14,1.94-3.27,2.92-6.37,2.92-1.61,0-3-.27-4.18-.82-1.18-.54-2.08-1.3-2.7-2.25s-.93-2.05-.93-3.27c0-1.94,.73-3.47,2.2-4.59s3.73-1.67,6.78-1.67h4.82c0-1.32-.4-2.34-1.21-3.05s-2.01-1.07-3.62-1.07c-1.11,0-2.21,.17-3.28,.52-1.08,.35-1.99,.82-2.74,1.42l-2.18-4.24c1.14-.8,2.51-1.43,4.1-1.87,1.59-.44,3.23-.66,4.92-.66,3.24,0,5.73,.77,7.46,2.31Zm-5.17,14.42c.8-.48,1.37-1.19,1.71-2.12v-2.14h-4.16c-2.49,0-3.73,.82-3.73,2.45,0,.78,.3,1.39,.91,1.85,.61,.45,1.44,.68,2.51,.68s1.96-.24,2.76-.72Z"/><path class="cls-1" d="M194.79,22.06v20.91h-5.76v-2.49c-.8,.91-1.76,1.6-2.87,2.08-1.12,.48-2.32,.72-3.62,.72-2.75,0-4.92-.79-6.53-2.37-1.61-1.58-2.41-3.93-2.41-7.04v-11.82h6.06v10.92c0,3.37,1.41,5.05,4.24,5.05,1.45,0,2.62-.47,3.5-1.42s1.32-2.35,1.32-4.22v-10.34h6.07Z"/><path class="cls-1" d="M218.1,23.09c1.59,.89,2.84,2.15,3.75,3.77,.91,1.62,1.36,3.51,1.36,5.66s-.45,4.04-1.36,5.66c-.91,1.62-2.16,2.88-3.75,3.77-1.59,.9-3.37,1.34-5.31,1.34-2.88,0-5.07-.91-6.57-2.72v2.41h-5.79V14.13h6.07v10.15c1.53-1.68,3.63-2.53,6.3-2.53,1.94,0,3.71,.45,5.31,1.34Zm-2.53,13.64c1-1.05,1.5-2.46,1.5-4.22s-.5-3.17-1.5-4.22c-1-1.05-2.27-1.57-3.83-1.57s-2.83,.53-3.83,1.57c-1,1.05-1.5,2.46-1.5,4.22s.5,3.17,1.5,4.22,2.27,1.57,3.83,1.57,2.83-.52,3.83-1.57Z"/><path class="cls-1" d="M231.27,41.9c-1.75-.92-3.12-2.2-4.1-3.83-.99-1.63-1.48-3.49-1.48-5.56s.49-3.93,1.48-5.56c.98-1.63,2.35-2.91,4.1-3.83,1.75-.92,3.73-1.38,5.93-1.38s4.17,.46,5.91,1.38c1.73,.92,3.1,2.2,4.08,3.83,.98,1.63,1.47,3.49,1.47,5.56s-.49,3.93-1.47,5.56c-.99,1.63-2.35,2.91-4.08,3.83-1.74,.92-3.71,1.38-5.91,1.38s-4.18-.46-5.93-1.38Zm9.76-5.17c1-1.05,1.5-2.46,1.5-4.22s-.5-3.17-1.5-4.22c-1-1.05-2.27-1.57-3.83-1.57s-2.84,.53-3.85,1.57c-1.01,1.05-1.52,2.46-1.52,4.22s.51,3.17,1.52,4.22c1.01,1.05,2.3,1.57,3.85,1.57s2.83-.52,3.83-1.57Z"/><path class="cls-1" d="M273.78,22.06v20.91h-5.76v-2.49c-.8,.91-1.76,1.6-2.88,2.08-1.11,.48-2.32,.72-3.62,.72-2.74,0-4.92-.79-6.53-2.37s-2.41-3.93-2.41-7.04v-11.82h6.06v10.92c0,3.37,1.41,5.05,4.24,5.05,1.45,0,2.62-.47,3.5-1.42s1.32-2.35,1.32-4.22v-10.34h6.07Z"/><path class="cls-1" d="M288.14,22.53c1.23-.52,2.65-.78,4.26-.78v5.6c-.67-.05-1.13-.08-1.36-.08-1.74,0-3.1,.49-4.08,1.46-.98,.97-1.48,2.43-1.48,4.37v9.87h-6.07V22.06h5.79v2.76c.72-1.01,1.7-1.78,2.93-2.29Z"/><path class="cls-1" d="M317.4,22.06v17.42c0,3.83-1,6.69-2.99,8.55-2,1.87-4.91,2.8-8.75,2.8-2.02,0-3.94-.25-5.75-.74-1.81-.49-3.32-1.2-4.51-2.14l2.41-4.35c.88,.73,2,1.3,3.34,1.73,1.35,.43,2.7,.64,4.04,.64,2.1,0,3.65-.47,4.64-1.42,1-.95,1.5-2.38,1.5-4.3v-.89c-1.58,1.74-3.78,2.6-6.61,2.6-1.92,0-3.67-.42-5.27-1.26-1.59-.84-2.86-2.03-3.79-3.56-.93-1.53-1.4-3.29-1.4-5.29s.47-3.76,1.4-5.29c.93-1.53,2.2-2.71,3.79-3.56s3.35-1.26,5.27-1.26c3.03,0,5.34,1,6.92,2.99v-2.68h5.76Zm-7.52,13.51c1.02-.95,1.54-2.18,1.54-3.71s-.51-2.77-1.54-3.71c-1.02-.95-2.34-1.42-3.95-1.42s-2.93,.47-3.97,1.42-1.56,2.18-1.56,3.71,.52,2.77,1.56,3.71,2.36,1.42,3.97,1.42,2.92-.47,3.95-1.42Z"/><path class="cls-1" d="M359.42,15.76v27.21h-5.17l-13.57-16.52v16.52h-6.22V15.76h5.21l13.53,16.52V15.76h6.22Z"/><path class="cls-1" d="M386.51,22.06v20.91h-5.76v-2.49c-.8,.91-1.76,1.6-2.88,2.08-1.11,.48-2.32,.72-3.62,.72-2.74,0-4.92-.79-6.53-2.37s-2.41-3.93-2.41-7.04v-11.82h6.06v10.92c0,3.37,1.41,5.05,4.24,5.05,1.45,0,2.62-.47,3.5-1.42s1.32-2.35,1.32-4.22v-10.34h6.07Z"/><path class="cls-1" d="M425.17,24.06c1.54,1.54,2.31,3.86,2.31,6.94v11.97h-6.07v-11.04c0-1.66-.34-2.9-1.03-3.71-.69-.82-1.67-1.22-2.93-1.22-1.43,0-2.56,.46-3.38,1.38s-1.24,2.29-1.24,4.1v10.49h-6.06v-11.04c0-3.29-1.32-4.94-3.97-4.94-1.4,0-2.51,.46-3.34,1.38s-1.24,2.29-1.24,4.1v10.49h-6.07V22.06h5.79v2.41c.78-.88,1.73-1.55,2.86-2.02,1.13-.47,2.37-.7,3.71-.7,1.48,0,2.81,.29,4,.87,1.19,.58,2.15,1.43,2.88,2.55,.86-1.09,1.94-1.93,3.24-2.53s2.74-.9,4.3-.9c2.62,0,4.7,.77,6.24,2.31Z"/><path class="cls-1" d="M453.53,34.23h-15.82c.29,1.3,.96,2.32,2.02,3.07s2.39,1.13,3.97,1.13c1.09,0,2.05-.16,2.9-.49,.84-.32,1.63-.84,2.35-1.53l3.23,3.5c-1.97,2.25-4.85,3.38-8.63,3.38-2.36,0-4.44-.46-6.26-1.38-1.82-.92-3.22-2.2-4.2-3.83-.99-1.63-1.48-3.49-1.48-5.56s.48-3.89,1.46-5.54c.97-1.65,2.31-2.93,4-3.85,1.7-.92,3.6-1.38,5.7-1.38s3.9,.44,5.56,1.32c1.66,.88,2.96,2.14,3.91,3.79,.95,1.65,1.42,3.56,1.42,5.73,0,.08-.04,.62-.12,1.63Zm-14.19-6.73c-.93,.78-1.5,1.84-1.71,3.19h10.3c-.21-1.32-.78-2.38-1.71-3.17-.93-.79-2.07-1.19-3.42-1.19s-2.53,.39-3.46,1.17Zm5.01-13.72h6.53l-7.04,5.6h-4.74l5.25-5.6Z"/><path class="cls-1" d="M466.41,22.53c1.23-.52,2.65-.78,4.26-.78v5.6c-.67-.05-1.13-.08-1.36-.08-1.74,0-3.1,.49-4.08,1.46-.98,.97-1.48,2.43-1.48,4.37v9.87h-6.07V22.06h5.79v2.76c.72-1.01,1.7-1.78,2.93-2.29Z"/><path class="cls-1" d="M474.6,18.17c-.7-.65-1.05-1.45-1.05-2.41s.35-1.76,1.05-2.41c.7-.65,1.61-.97,2.72-.97s2.02,.31,2.72,.93c.7,.62,1.05,1.4,1.05,2.33,0,1.01-.35,1.85-1.05,2.51-.7,.66-1.61,.99-2.72,.99s-2.02-.32-2.72-.97Zm-.31,3.89h6.07v20.91h-6.07V22.06Z"/><path class="cls-1" d="M507.21,22.06v28.46h-6.07v-9.76c-1.5,1.68-3.59,2.53-6.26,2.53-1.97,0-3.75-.44-5.34-1.32-1.59-.88-2.85-2.14-3.75-3.77-.91-1.63-1.36-3.52-1.36-5.68s.45-4.04,1.36-5.68c.91-1.63,2.16-2.89,3.75-3.77,1.59-.88,3.37-1.32,5.34-1.32,2.85,0,5.03,.91,6.53,2.72v-2.41h5.79Zm-7.46,14.68c1.01-1.05,1.52-2.46,1.52-4.22s-.51-3.17-1.52-4.22c-1.01-1.05-2.28-1.57-3.81-1.57s-2.84,.53-3.85,1.57c-1.01,1.05-1.52,2.46-1.52,4.22s.51,3.17,1.52,4.22c1.01,1.05,2.3,1.57,3.85,1.57s2.8-.52,3.81-1.57Z"/><path class="cls-1" d="M533.88,22.06v20.91h-5.76v-2.49c-.8,.91-1.76,1.6-2.88,2.08-1.11,.48-2.32,.72-3.62,.72-2.74,0-4.92-.79-6.53-2.37s-2.41-3.93-2.41-7.04v-11.82h6.06v10.92c0,3.37,1.41,5.05,4.24,5.05,1.45,0,2.62-.47,3.5-1.42s1.32-2.35,1.32-4.22v-10.34h6.07Z"/><path class="cls-1" d="M559.88,34.23h-15.82c.29,1.3,.96,2.32,2.02,3.07s2.39,1.13,3.97,1.13c1.09,0,2.05-.16,2.9-.49,.84-.32,1.63-.84,2.35-1.53l3.23,3.5c-1.97,2.25-4.85,3.38-8.63,3.38-2.36,0-4.44-.46-6.26-1.38-1.82-.92-3.22-2.2-4.2-3.83-.99-1.63-1.48-3.49-1.48-5.56s.48-3.89,1.46-5.54c.97-1.65,2.31-2.93,4-3.85,1.7-.92,3.6-1.38,5.7-1.38s3.9,.44,5.56,1.32c1.66,.88,2.96,2.14,3.91,3.79,.95,1.65,1.42,3.56,1.42,5.73,0,.08-.04,.62-.12,1.63Zm-14.19-6.73c-.93,.78-1.5,1.84-1.71,3.19h10.3c-.21-1.32-.78-2.38-1.71-3.17-.93-.79-2.07-1.19-3.42-1.19s-2.53,.39-3.46,1.17Z"/></g><g><path class="cls-4" d="M47.84,95.69c5.7,0,10.89-4.53,14.85-11.99,8.07,2.48,14.95,2.01,18.98-2.02,4.03-4.03,4.5-10.91,2.02-18.98,7.46-3.96,11.99-9.15,11.99-14.85s-4.53-10.89-11.99-14.85c2.48-8.07,2.01-14.95-2.02-18.98-4.03-4.03-10.91-4.5-18.98-2.02C58.74,4.53,53.54,0,47.84,0s-10.89,4.53-14.85,11.99c-8.07-2.48-14.95-2.01-18.98,2.02-4.03,4.03-4.5,10.91-2.02,18.98C4.53,36.95,0,42.15,0,47.84s4.53,10.89,11.99,14.85c-2.48,8.07-2.01,14.95,2.02,18.98,4.03,4.03,10.91,4.5,18.98,2.02,3.96,7.46,9.15,11.99,14.85,11.99Z"/><g><path class="cls-2" d="M56.82,49.74v-15.34c0-4-3.26-7.26-7.26-7.26h-15.36c-4,0-7.26,3.26-7.26,7.26v15.36c0,4,3.26,7.26,7.26,7.26h15.34c.93,.94,2.22,1.52,3.65,1.52,2.84,0,5.15-2.31,5.15-5.15,0-1.43-.58-2.72-1.52-3.65Z"/><path class="cls-1" d="M61.49,38.66h-4.67v4.27h4.67c1.65,0,2.99,1.34,2.99,2.99v15.36c0,1.65-1.34,2.99-2.99,2.99h-15.36c-1.65,0-2.99-1.34-2.99-2.99v-13.9c2.33-.29,4.16-2.12,4.45-4.45h4.97v-4.27h-6.4c-.93-.94-2.22-1.52-3.65-1.52-2.84,0-5.15,2.31-5.15,5.15,0,1.43,.58,2.72,1.52,3.65v15.34c0,4,3.26,7.26,7.26,7.26h15.36c4,0,7.26-3.26,7.26-7.26v-15.36c0-4-3.26-7.25-7.26-7.25Z"/></g></g><g><g><path class="cls-3" d="M285.61,58.19h-2.15c-.46,0-.84,.38-.84,.84v3.36c0,.46,.38,.84,.84,.84h2.15c.46,0,.84-.38,.84-.84v-3.36c0-.46-.38-.84-.84-.84Z"/><path class="cls-3" d="M283.5,66.3h2.03c.47,0,.84,.38,.84,.84v21.43c0,.46-.38,.84-.84,.84h-2.03c-.47,0-.84-.38-.84-.84v-21.43c0-.46,.38-.84,.84-.84Z"/><path class="cls-3" d="M314.3,58.19h-2.15c-.47,0-.84,.38-.84,.84v12.19h-14.43v-12.19c0-.46-.38-.84-.84-.84h-2.15c-.46,0-.84,.38-.84,.84v29.54c0,.46,.38,.84,.84,.84h2.15c.46,0,.84-.38,.84-.84v-13.95h14.43v13.95c0,.46,.38,.84,.84,.84h2.15c.46,0,.84-.38,.84-.84v-29.54c0-.46-.38-.84-.84-.84Z"/><path class="cls-3" d="M338.3,66.3h-2.19c-.46,0-.76,.38-.76,.84v12.69c0,5.04-2.15,6.64-4.98,6.64h-.38c-2.83,0-4.98-1.6-4.98-6.64v-12.69c0-.46-.29-.84-.76-.84h-2.19c-.46,0-.76,.38-.76,.84v12.69c0,8.28,5.82,9.88,8.69,9.88h.38c2.87,0,8.69-1.6,8.69-9.88v-12.69c0-.46-.29-.84-.76-.84Z"/><path class="cls-3" d="M353.45,66c-1.35,0-3.33,.13-4.94,.42v-7.82c0-.46-.38-.8-.8-.8h-2.15c-.46,0-.76,.38-.76,.8v29.42c0,.59,.12,.84,.89,.97,2.62,.5,5.23,.71,7.76,.71,6.33,0,9.2-4.08,9.2-10.38v-3.03c0-6.6-3.08-10.29-9.2-10.29Zm5.48,13.32c0,4.58-1.31,7.14-5.48,7.14-1.43,0-3.5-.13-4.94-.25v-16.68c1.39-.25,3.63-.29,4.94-.29,4.13,0,5.48,2.56,5.48,7.06v3.03Z"/></g><g><g><path class="cls-3" d="M142.77,58.07c-1.77-.17-5.73-.25-8.21-.25-5.9,0-8.97,2.23-8.97,7.83v22.92c0,.47,.38,.85,.84,.85h2.15c.46,0,.84-.38,.84-.85v-13.77h12.93c.46,0,.84-.38,.84-.84v-1.6c0-.46-.38-.85-.84-.85h-12.93v-5.85c0-3.2,.72-4.38,5.18-4.38h8.13c.29,0,.46-.21,.46-.51v-2.11c0-.25-.17-.55-.42-.59Z"/><path class="cls-3" d="M152.3,58.11h-2.32c-.46,0-.76,.38-.76,.8v29.66c0,.46,.34,.84,.76,.84h2.32c.46,0,.75-.42,.75-.84v-29.66c0-.46-.33-.8-.75-.8Z"/></g><g><path class="cls-3" d="M191.04,58.11h-2.24c-.46,0-.8,.38-.8,.8v19.3c0,5.68-1.14,8.26-5.9,8.26-.71,0-2.95-.13-3.88-.38v-27.21c0-.46-.29-.76-.76-.76h-2.28c-.46,0-.8,.38-.8,.8v27.17c-.93,.25-3.16,.38-3.88,.38-4.76,0-5.9-2.57-5.9-8.26v-19.3c0-.42-.38-.8-.8-.8h-2.23c-.46,0-.8,.38-.8,.8v19.3c0,7.33,2.53,11.5,8.93,11.5,2.19,0,4.17-.21,6.57-1.05,2.4,.84,4.42,1.05,6.62,1.05,6.4,0,8.93-4.17,8.93-11.5v-19.3c0-.42-.38-.8-.8-.8Z"/><path class="cls-3" d="M209.92,57.81h-2.45c-6.07,0-9.06,2.28-9.06,8.73v22.03c0,.42,.34,.84,.76,.84h2.32c.46,0,.75-.42,.75-.84v-12.47h12.89v12.47c0,.46,.34,.84,.76,.84h2.32c.42,0,.76-.42,.76-.84v-22.03c0-6.45-3.03-8.73-9.05-8.73Zm5.22,14.92h-12.89v-6.19c0-4.38,1.39-5.35,5.23-5.35h2.45c3.83,0,5.22,.97,5.22,5.35v6.19Z"/><path class="cls-3" d="M239.15,75.68c3.83-1.01,6.61-3.79,6.61-8.51v-.29c0-6.82-5.14-9.06-11.8-9.06-2.45,0-5.6,.13-7.42,.34-.76,.08-1.01,.34-1.01,.93v29.49c0,.46,.34,.84,.76,.84h2.27c.47,0,.76-.42,.76-.84v-12.39c2.23,.08,3.24,.12,4.63,.12h1.1l7.54,12.56c.34,.55,.59,.55,1.1,.55h2.69c.34,0,.55-.25,.55-.55,0-.13-.04-.25-.13-.38l-7.66-12.81Zm-5.19-2.65c-.97,0-2.78-.04-4.63-.08v-11.54c1.01-.13,3.33-.13,4.63-.13,5.27,0,8.01,1.39,8.01,5.6v.29c0,4.55-2.82,5.86-8.01,5.86Z"/><path class="cls-3" d="M260.88,61.27h8.13c.3,0,.46-.21,.46-.51v-2.11c0-.25-.17-.54-.42-.59-1.77-.17-5.73-.26-8.22-.26-5.9,0-8.97,2.24-8.97,7.84v16.22c0,5.6,3.08,7.84,8.97,7.84,2.49,0,6.62-.04,8.22-.21,.25-.04,.42-.34,.42-.59v-2.15c0-.29-.17-.51-.46-.51h-8.13c-4.47,0-5.18-1.18-5.18-4.38v-7.08h12.94c.46,0,.84-.38,.84-.85v-1.6c0-.46-.38-.84-.84-.84h-12.94v-5.85c0-3.2,.72-4.38,5.18-4.38Z"/></g></g></g></svg>