<?xml version="1.0" encoding="UTF-8"?><svg id="logo_BallistixDigital" xmlns="http://www.w3.org/2000/svg" viewBox="0 0 560 104.01"><g id="Group_1746"><path id="Path_99" d="M164.36,46.67c-9.21,0-15.68,6.59-15.68,17.39s6.93,15.91,15.23,15.91c9.32,0,15-7.5,15-16.82s-5.23-16.48-14.55-16.48m3.07,47.05c-7.4,.22-14.37-3.5-18.31-9.77v8.52h-16.93V10.3h16.93v31.82c4.43-5.82,11.33-9.22,18.64-9.21,18.18,0,28.07,13.75,28.07,30.11s-10.68,30.69-28.41,30.69"/><path id="Path_100" d="M234.04,79.96c8.3,0,15.23-5.34,15.23-15.91s-6.48-17.39-15.68-17.39-14.55,7.5-14.55,16.48,5.67,16.82,15,16.82m31.72-45.8v58.3h-16.93v-8.52c-3.94,6.27-10.9,9.99-18.31,9.77-17.73,0-28.41-13.64-28.41-30.69s9.89-30.11,28.07-30.11c7.31-.02,14.21,3.39,18.64,9.21v-7.95h16.94Z"/><rect id="Rectangle_448" x="278.48" y="10.3" width="16.93" height="82.16"/><rect id="Rectangle_449" x="308.03" y="10.3" width="16.93" height="82.16"/><path id="Path_101" d="M59.74,104.01V0h-15.47V33.33L20.7,9.76l-10.94,10.94,23.57,23.57H0v15.47H33.33l-23.57,23.57,10.94,10.94,23.57-23.57v33.33h15.47Z"/><rect id="Rectangle_450" x="337.63" y="34.16" width="16.93" height="58.3"/><path id="Path_102" d="M374.8,71.89c1.47,5.48,6.62,9.14,12.27,8.75,3.75,0,7.61-1.48,7.61-4.43,0-1.93-1.14-3.3-4.32-4.43l-10.23-4.32c-13.87-4.9-14.55-14.09-14.55-16.7,0-11.7,10.34-17.84,22.84-17.84,8.84-.52,17.13,4.32,21.02,12.27l-13.07,6.02c-1.17-3.53-4.58-5.82-8.3-5.57-3.18,0-6.48,1.82-6.48,4.77,0,2.5,2.5,3.87,5.45,5l8.75,3.41c13.75,3.98,15,12.96,15,16.82,0,11.93-11.02,18.07-23.87,18.07-8.64,0-20.46-2.73-24.43-14.89l12.27-6.93Z"/><path id="Path_103" d="M440.64,34.16h16.14v13.29h-16.14v27.28c0,2.5,1.03,5.11,4.32,5.11s4.43-2.73,4.43-5.45c-.03-1.7-.3-3.38-.79-5h13.41c.93,2.19,1.4,4.55,1.36,6.93,0,8.64-5.67,17.39-19.43,17.39-10.23,0-20.23-3.64-20.23-20.57v-25.69h-8.75v-13.29h10l.09-14.32h15.59v14.32Z"/><rect id="Rectangle_451" x="470.8" y="34.16" width="16.93" height="58.3"/><path id="Path_104" d="M526.7,74.16l-13.98,18.31h-19.32v-2.27l23.18-27.85-21.02-26.25v-1.93h19.77l11.36,16.02,11.36-16.02h19.77v1.93l-21.02,26.25,23.18,27.85v2.27h-19.32l-13.98-18.31Z"/><path id="Path_105" d="M92.5,52.01c0,5.48-4.44,9.93-9.93,9.93-5.48,0-9.93-4.44-9.93-9.93s4.44-9.93,9.93-9.93h0c5.48,0,9.93,4.44,9.93,9.93"/></g></svg>