<?xml version="1.0" encoding="UTF-8"?><svg id="logo_MNX" xmlns="http://www.w3.org/2000/svg" viewBox="0 0 317.4 260"><defs><style>.cls-1{fill:#f60;}.cls-2{fill:#434040;}</style></defs><path id="path52" class="cls-2" d="M272.31,156.16v-1.9h-9.57v17.59h9.57v-1.9h-7.46v-6.78h7.46v-1.81h-7.46v-5.2h7.46Z"/><path id="path48" class="cls-2" d="M230.8,167.98l-12.73-14.14h-.5v18.02h1.98v-13.75l12.85,14.13h.42v-17.98h-2.02v13.72Z"/><path id="path44" class="cls-2" d="M181,171.86h2.07v-17.6h-2.07v17.6Z"/><path id="path42" class="cls-2" d="M134.6,154.27v17.6h8.68v-1.9h-6.49v-15.69h-2.19Z"/><path id="path38" class="cls-2" d="M103.96,172.24h.43v-17.98h-2.02v13.72l-12.73-14.14h-.49v18.02h1.97v-13.75l12.84,14.13Z"/><path id="path34" class="cls-2" d="M46.56,163.12c0-2.04,.7-3.8,2.09-5.26,1.39-1.46,3.1-2.19,5.11-2.19s3.79,.7,5.25,2.1c1.45,1.4,2.19,3.11,2.19,5.13s-.7,3.78-2.09,5.24c-1.4,1.46-3.1,2.19-5.11,2.19s-3.82-.7-5.27-2.09c-1.45-1.39-2.18-3.09-2.18-5.11m14.09,6.47c1.83-1.83,2.74-4.05,2.74-6.65s-.95-4.74-2.84-6.51c-1.9-1.77-4.16-2.65-6.79-2.65s-4.82,.92-6.65,2.75c-1.83,1.83-2.74,4.05-2.74,6.66s.94,4.74,2.84,6.51c1.89,1.77,4.15,2.65,6.79,2.65s4.81-.91,6.65-2.75"/><path id="path60" d="M234.09,0V33.43h50.77V226.57h-50.77v33.43h83.3V0h-83.3Z"/><path id="path56" d="M83.31,226.57H32.54V33.43h50.77V0H0V260H83.31v-33.43Z"/><path id="path30" class="cls-1" d="M227.56,138.01c0-4.68,1.64-8.71,4.9-12.09,3.27-3.38,7.23-5.07,11.92-5.07s8.58,1.7,11.84,5.1c3.26,3.4,4.89,7.43,4.89,12.06v6.38h11.92v-6.38c0-4.49-1.03-8.74-3.09-12.76-2.06-4.02-4.9-7.38-8.54-10.07,3.64-2.69,6.49-6.03,8.54-10,2.06-3.97,3.09-8.23,3.09-12.76v-3.9h-11.92v3.9c0,4.63-1.63,8.65-4.89,12.05-3.26,3.41-7.21,5.11-11.84,5.11s-8.65-1.69-11.92-5.07c-3.26-3.38-4.9-7.41-4.9-12.09v-3.9h-11.91v3.9c0,4.54,1.03,8.79,3.09,12.76,2.06,3.97,4.93,7.31,8.62,10-3.69,2.69-6.56,6.04-8.62,10.04-2.06,3.99-3.09,8.26-3.09,12.8v6.38h11.91v-6.38Z"/><path id="path26" class="cls-1" d="M181.46,87.66c-7.9,0-14.66,2.78-20.28,8.33-5.62,5.56-8.44,12.26-8.44,20.11v28.3c3.26,0,6.06-1.17,8.4-3.51,2.34-2.34,3.51-5.14,3.51-8.41v-16.38c0-4.68,1.63-8.71,4.89-12.09,3.26-3.38,7.23-5.07,11.91-5.07s8.58,1.7,11.85,5.1c3.26,3.41,4.89,7.43,4.89,12.05v16.38c0,3.27,1.17,6.07,3.51,8.41,2.34,2.34,5.14,3.51,8.4,3.51v-28.3c0-7.85-2.82-14.55-8.44-20.11-5.62-5.55-12.37-8.33-20.21-8.33"/><path id="path22" class="cls-1" d="M118.56,87.66c-4.4,0-8.61,.99-12.63,2.98-4.02,1.98-7.37,4.7-10.07,8.15-2.8-3.5-6.18-6.22-10.14-8.19-3.97-1.96-8.18-2.94-12.62-2.94-7.86,0-14.61,2.78-20.25,8.33-5.65,5.56-8.47,12.26-8.47,20.11v28.3c3.31,0,6.12-1.16,8.44-3.48,2.32-2.32,3.48-5.14,3.48-8.44v-16.38c0-4.68,1.63-8.71,4.89-12.09,3.26-3.38,7.24-5.07,11.92-5.07s8.64,1.69,11.87,5.07c3.24,3.38,4.86,7.41,4.86,12.09v16.38c0,3.27,1.16,6.07,3.51,8.41,2.34,2.34,5.14,3.51,8.4,3.51v-28.3c0-4.68,1.63-8.71,4.89-12.09,3.27-3.38,7.24-5.07,11.92-5.07s8.64,1.69,11.87,5.07c3.24,3.38,4.86,7.41,4.86,12.09v16.38c0,3.27,1.17,6.07,3.51,8.41,2.34,2.34,5.14,3.51,8.4,3.51v-28.3c0-7.85-2.81-14.55-8.44-20.11-5.63-5.55-12.36-8.33-20.21-8.33"/></svg>