<?xml version="1.0" encoding="UTF-8"?><svg id="logo_byHS" xmlns="http://www.w3.org/2000/svg" viewBox="0 0 560 239.7"><defs><style>.cls-1{fill:#333;}</style></defs><path class="cls-1" d="M96.13,130.12c0,9.13-.93,17.46-2.79,24.99-1.86,7.53-4.82,14.04-8.88,19.53-4.06,5.5-9.22,9.73-15.47,12.68-6.26,2.95-13.78,4.44-22.57,4.44-7.27,0-14.8-.51-22.57-1.52-7.78-1.01-14.46-2.11-20.04-3.3-1.52-.34-2.54-.84-3.04-1.52-.51-.68-.76-1.78-.76-3.3V6.59c0-1.35,.38-2.49,1.14-3.42,.76-.93,1.82-1.39,3.17-1.39h2.54c1.35,0,2.41,.47,3.17,1.39,.76,.93,1.14,2.07,1.14,3.42V56.56c2.54-.51,5.33-1.01,8.37-1.52,3.04-.51,6.17-.93,9.38-1.27,3.21-.34,6.3-.59,9.26-.76,2.96-.17,5.71-.25,8.24-.25,33.14,0,49.71,20.21,49.71,60.62v16.74Zm-11.16-16.74c0-16.91-2.92-29.59-8.75-38.05-5.83-8.45-15.77-12.68-29.8-12.68-2.54,0-5.33,.09-8.37,.25-3.04,.17-6.17,.38-9.38,.63-3.21,.25-6.34,.6-9.38,1.01-3.04,.42-5.75,.89-8.12,1.39v112.62c4.56,.85,10.06,1.61,16.49,2.28,6.42,.68,12.68,1.01,18.77,1.01,14.2,0,24.18-4.52,29.93-13.57,5.75-9.04,8.62-21.77,8.62-38.18v-16.74Z"/><path class="cls-1" d="M181.61,204.44c-2.03,6.76-4.19,12.43-6.47,16.99s-5.03,8.2-8.24,10.91c-3.21,2.7-6.94,4.6-11.16,5.71-4.23,1.1-9.3,1.65-15.22,1.65-2.88,0-5.62-.17-8.24-.51-2.62-.34-5.12-.68-7.48-1.01-1.52-.34-2.75-.68-3.68-1.01-.93-.34-1.39-1.19-1.39-2.54v-2.79c0-1.52,.38-2.58,1.14-3.17s2.16-.72,4.19-.38c1.86,.34,4.56,.68,8.12,1.01,3.55,.34,6.34,.51,8.37,.51,4.57,0,8.41-.42,11.54-1.27,3.13-.85,5.83-2.28,8.12-4.31,2.28-2.03,4.23-4.82,5.83-8.37,1.61-3.55,3.17-8.12,4.69-13.7l3.3-11.92h-3.55c-3.89,0-6.98-.84-9.26-2.54-2.28-1.69-4.36-5.58-6.21-11.67L121.75,60.12c-.51-1.69-.47-3.13,.13-4.31,.59-1.18,1.9-1.78,3.93-1.78h2.28c1.35,0,2.28,.38,2.79,1.14,.51,.76,.93,1.57,1.27,2.41l34.24,116.68c.84,2.71,1.78,4.31,2.79,4.82,1.02,.51,2.03,.76,3.04,.76h5.83l34.75-122.51c.34-.85,.76-1.61,1.27-2.29,.51-.67,1.61-1.01,3.3-1.01h2.28c2.03,0,3.25,.63,3.68,1.9,.42,1.27,.38,2.75-.13,4.44l-41.6,144.07Z"/><path class="cls-1" d="M414.21,1.78c3.21,0,4.56,1.69,4.06,5.07l-31.2,178.32c-.34,1.35-1.1,2.54-2.28,3.55-1.19,1.01-2.45,1.52-3.8,1.52h-12.94c-3.21,0-4.57-1.69-4.06-5.07l14.71-84.21h-86.75l-14.71,84.21c-.34,1.35-.85,2.54-1.52,3.55-.68,1.01-2.2,1.52-4.56,1.52h-12.94c-1.52,0-2.66-.51-3.42-1.52s-.98-2.2-.63-3.55L285.35,6.85c.34-1.35,.84-2.54,1.52-3.55,.67-1.01,2.2-1.52,4.56-1.52h12.94c3.21,0,4.57,1.69,4.06,5.06l-12.94,73.32h86.75l12.94-73.32c.34-1.35,.84-2.52,1.52-3.54,.67-1.01,2.2-1.52,4.56-1.52h12.94Z"/><path class="cls-1" d="M508.81,0c3.72,0,7.86,.09,12.43,.25,4.56,.17,9.04,.38,13.44,.63,4.4,.25,8.5,.6,12.3,1.01,3.8,.42,6.89,.81,9.26,1.14,1.69,.34,2.79,.76,3.3,1.27s.59,1.52,.25,3.04l-1.78,10.91c-.34,1.52-.8,2.66-1.39,3.42-.59,.76-1.99,.98-4.19,.63-5.58-.34-12.39-.67-20.42-1.01-8.03-.34-15.77-.51-23.21-.51-5.07,0-10.15,.3-15.22,.89-5.07,.6-9.6,1.82-13.57,3.68-3.98,1.86-7.19,4.48-9.64,7.86-2.45,3.39-3.68,7.86-3.68,13.44,0,3.04,.38,5.75,1.14,8.12,.76,2.37,2.03,4.69,3.8,6.98,1.78,2.28,4.1,4.56,6.98,6.85,2.87,2.28,6.42,4.78,10.65,7.48l20.8,13.95c5.92,3.89,10.91,7.7,14.97,11.41,4.06,3.72,7.36,7.48,9.89,11.29,2.54,3.8,4.35,7.78,5.45,11.92,1.1,4.15,1.65,8.5,1.65,13.06,0,8.96-1.78,16.83-5.33,23.59-3.55,6.76-8.5,12.43-14.84,16.99-6.34,4.57-13.82,7.99-22.45,10.27s-18.01,3.42-28.16,3.42c-3.55,0-7.27-.09-11.16-.25-3.89-.17-7.74-.42-11.54-.76-3.8-.34-7.48-.72-11.03-1.14s-6.68-.89-9.38-1.39c-1.52-.34-2.66-.8-3.43-1.39-.76-.59-.97-1.65-.63-3.17l1.78-10.15c.34-1.86,.84-3.08,1.52-3.68,.67-.59,2.11-.72,4.31-.38,2.87,.34,6.09,.59,9.64,.76,3.55,.17,7.23,.3,11.03,.38,3.8,.09,7.52,.17,11.16,.25,3.63,.09,6.89,.13,9.77,.13,13.7,0,24.52-2.58,32.47-7.74,7.95-5.15,11.92-13.74,11.92-25.74,0-3.05-.42-5.75-1.27-8.12-.85-2.36-2.24-4.69-4.19-6.97-1.94-2.28-4.48-4.65-7.61-7.1-3.13-2.45-6.89-5.2-11.29-8.24l-22.07-14.97c-8.62-5.92-15.39-12.51-20.29-19.78-4.91-7.27-7.36-15.47-7.36-24.61s1.78-16.23,5.33-22.32c3.55-6.09,8.33-11.03,14.33-14.84,6-3.81,12.94-6.55,20.8-8.24,7.86-1.69,16.11-2.54,24.73-2.54Z"/></svg>