<?xml version="1.0" encoding="UTF-8"?>
<svg xmlns="http://www.w3.org/2000/svg" version="1.1" viewBox="0 0 330 329.4">
  <defs>
    <style>
      .cls-1 {
        fill: #002e67;
      }

      .cls-1, .cls-2, .cls-3, .cls-4, .cls-5 {
        stroke-width: 0px;
      }

      .cls-2 {
        fill: #5dc0cf;
      }

      .cls-3 {
        fill: #d2edf2;
      }

      .cls-4 {
        fill: #acdfe7;
      }

      .cls-5 {
        fill: #fff;
      }
    </style>
  </defs>
  <g id="Livello_2" data-name="Livello 2">
    <path class="cls-3" d="M16,63.7C0,82.6,0,108.2,0,124.5c0,64.5,4,152.1,74.1,188.1,16.4,8.4,135.7,39.2,201.3-12.2,57.9-45.4,63.8-132.6,42.3-192.9C299.8,57.5,255,2.8,205.7.1c-31-1.7-31.2,18.9-92.2,35.1-52.8,14-78,5.3-97.6,28.5h0Z"/>
    <g>
      <path class="cls-1" d="M296,263.4h-114c-3.5,0-6.1-3.4-5.2-6.8l20.1-78c.6-2.4,2.7-4,5.2-4h114c3.5,0,6,3.4,5.2,6.8l-20.1,78c-.6,2.4-2.7,4-5.2,4h0Z"/>
      <g>
        <path class="cls-4" d="M292.6,262.7h-114c-3.5,0-6.1-3.3-5.2-6.7l20.1-76.8c.6-2.3,2.7-4,5.2-4h114c3.5,0,6,3.3,5.2,6.7l-20.1,76.8c-.6,2.3-2.7,4-5.2,4h0Z"/>
        <path class="cls-1" d="M292.6,263.3h-114c-1.9,0-3.6-.8-4.7-2.3-1.1-1.5-1.5-3.3-1-5.1l20.1-76.8c.7-2.6,3-4.4,5.7-4.4h114c1.9,0,3.6.8,4.7,2.3,1.1,1.5,1.5,3.3,1,5.1l-20.1,76.8c-.7,2.6-3,4.4-5.7,4.4h0ZM198.8,175.8c-2.1,0-4,1.4-4.6,3.5l-20.1,76.8c-.4,1.4,0,2.9.8,4.1.9,1.2,2.3,1.8,3.8,1.8h114c2.1,0,4-1.5,4.6-3.5l20.1-76.8c.4-1.4,0-2.9-.8-4.1s-2.3-1.8-3.8-1.8h-114Z"/>
      </g>
    </g>
    <g>
      <path class="cls-1" d="M232.6,298.8h-113.3c-1.1,0-1.8-.9-1.8-1.7,0-.6,0-3.7,0-3.7l52.8-23.3c1.3-.6,2.8-1,4.2-1l117-1.8s0,2.7,0,3.6c0,.6-.3,1.3-1,1.6l-49.5,24.5c-2.6,1.3-5.5,2-8.4,2h0Z"/>
      <g>
        <path class="cls-5" d="M232.1,295.3h-112c-2.1,0-2.8-2.9-.9-3.8l50.5-25c1.3-.6,2.8-1,4.2-1h115.2c1.9,0,2.5,2.5.8,3.4l-49.4,24.5c-2.6,1.3-5.5,2-8.4,2h0Z"/>
        <path class="cls-1" d="M232.1,295.9h-112c-1.2,0-2.3-.8-2.5-2s.3-2.4,1.4-2.9l50.5-25c1.4-.7,2.9-1,4.5-1h115.2c1.1,0,2.1.7,2.3,1.8.3,1.1-.2,2.2-1.3,2.7l-49.4,24.5c-2.7,1.3-5.7,2-8.7,2h0ZM174,266.1c-1.4,0-2.7.3-3.9.9l-50.5,25c-.7.4-.9,1.1-.8,1.6.1.5.6,1.1,1.4,1.1h112c2.8,0,5.6-.7,8.1-1.9l49.4-24.5c.6-.3.7-.9.6-1.3-.1-.4-.5-.9-1.1-.9h-115.2Z"/>
      </g>
      <path class="cls-3" d="M155.4,277.9l16.4-7.9c1-.5,2.1-.7,3.1-.7h101.7c.9,0,1.2,1.2.4,1.6l-16.4,7.9c-.8.4-1.6.6-2.5.6h-102.3c-.9.1-1.2-1.1-.4-1.4h0Z"/>
      <path class="cls-3" d="M199.7,291h-31.1c-.6,0-.8-.8-.2-1.1l14-6.9c.4-.2.8-.3,1.2-.3h32c.5,0,.7.7.2.9l-13.7,6.8c-.7.4-1.5.5-2.3.5h0Z"/>
    </g>
    <g>
      <g>
        <path class="cls-5" d="M168,253.6h124.1l18.9-70.8c3.4-12.8,7.4-25.4,12-37.7l4.1-11.1s9.5-26.3-10-25.7l-22.4.6c4.7-14.5,10-26.4,9.8-32.8-.4-13.2-7.2-15.6-12.3-15.8l-25.8.3c3.3-10.7,6.5-21.9,1.6-37.2-3-9.6-10.3-13.7-19.4-14.4h-1.9c-60.8-1.5-88.2-1.8-110.4-2.8-22.3-1-38.2,11.8-38.2,11.8l-69.9-.4c-1.3,0-2,1.6-1.1,2.5l7.7,8.2c9.5,10.1,22.7,15.8,36.5,15.8l71,.2c15.1.2,23.3-3.3,27.4-5.2,0,0,1.9,11.8-3.3,20.4-7,11.6-8.9,31.5,3.7,34.1,2.7.6,7.3-.1,17.8,0,0,0-.4,3.2-.8,4.7-4.6,21.9-17.2,44.7-19,54.6-1.9,9.9.4,22.2,8.7,22.6,1.6,0,3.1,0,13,.1l-21.6,78h0Z"/>
        <path class="cls-1" d="M292.6,254.1h-125.3l21.6-78c-4.9,0-7.6,0-9.3,0s-2.2,0-2.9,0c-2.5-.1-4.6-1.2-6.2-3.3-3.8-4.7-4.2-13.4-3-19.9.8-4.2,3.4-10.6,6.5-18.1,4.4-10.6,9.8-23.7,12.5-36.5.2-1.1.5-3,.7-4-4.2,0-7.3.1-9.9.2-3.6.1-5.7.2-7.3-.1-3.7-.8-6.6-3.1-8.1-6.8-3.5-8.1-.5-20.6,4.1-28.2,4.3-7.1,3.6-16.4,3.3-19.2-3.9,1.8-12.1,5.1-26.9,4.9l-71-.2c-13.9,0-27.4-5.9-36.9-16l-7.7-8.2c-.6-.6-.7-1.5-.4-2.3s1.1-1.3,2-1.3l69.7.4c1.8-1.4,17.4-12.7,38.5-11.8,15.1.7,32.6,1.1,61.5,1.7,13.8.3,29.5.6,48.9,1.1h1.9c10.4.8,17.1,5.8,19.9,14.9,4.9,15.6,1.6,27.3-1.4,36.8l24.9-.3c8.3.4,12.6,5.9,12.9,16.4.1,4.6-2.4,11.7-5.6,20.7-1.2,3.5-2.6,7.4-3.9,11.4l21.6-.6c4.8-.1,8.3,1.3,10.5,4.3,5.4,7.4.3,21.6,0,22.2l-4.1,11.1c-4.5,12.3-8.6,25-12,37.7l-19,71.3h0s0,0,0,0ZM168.8,253h122.8l18.8-70.4c3.4-12.7,7.4-25.4,12-37.8l4.1-11.1c0-.1,5.1-14.2,0-21.1-1.9-2.6-5.1-3.9-9.5-3.8l-23.3.7.3-.8c1.4-4.4,2.9-8.6,4.2-12.3,3.1-8.9,5.6-15.9,5.5-20.3-.3-9.9-4.1-14.9-11.8-15.2l-26.5.4.2-.8c3.7-12,6.2-22.3,1.6-36.9-2.7-8.5-9.1-13.2-18.9-13.9h-1.9c-19.4-.5-35.1-.8-48.9-1.1-28.9-.6-46.4-1-61.6-1.7-21.8-1-37.7,11.5-37.8,11.6h-.2c0,.1-.2.1-.2.1l-69.9-.4h0c-.4,0-.7.2-.8.5-.1.4,0,.7.2,1l7.7,8.2c9.3,9.9,22.4,15.6,36,15.6l71,.2c15.5.2,23.6-3.5,27.1-5.2l.7-.3v.8c.2.5,2,12.1-3.3,20.8-4.5,7.4-7.4,19.4-4,27.1,1.4,3.3,3.9,5.4,7.3,6.1,1.4.3,3.5.2,7,0,2.7,0,6-.2,10.5-.2h.8v.7c-.1.1-.6,3.3-.9,4.8-2.7,12.9-8.2,26.1-12.6,36.7-3.1,7.4-5.7,13.8-6.5,17.9-1.2,6.2-.8,14.5,2.7,19,1.4,1.8,3.2,2.8,5.4,2.9.7,0,1.4,0,2.9,0,1.8,0,4.7,0,10.1,0h.8l-21.6,78h0Z"/>
      </g>
      <g>
        <path class="cls-1" d="M156.8,41c0,0-.1,0-.1,0-10.3-2.7-16.8-14.9-19.1-20-.5-1.1-1.6-1.8-2.8-1.9-7.2-.1-25.3-.5-37-.6-.3,0-.6-.3-.6-.6s.3-.6.6-.6c11.7.1,29.8.5,37,.6,1.7,0,3.2,1,3.9,2.5,2.3,4.9,8.6,16.7,18.4,19.3.3,0,.5.4.4.7,0,.3-.3.4-.6.4h0Z"/>
        <path class="cls-1" d="M269.4,93.7c-1.3,0-2.6-.2-3.7-.8-2.8-1.4-5.8-5.2-4.1-15.5,1-6.5,2.7-11.9,4.4-17.1l.4-1.3c.1-.3.4-.5.8-.4.3,0,.5.4.4.8l-.4,1.3c-1.6,5.2-3.3,10.5-4.3,16.9-1.2,7.6,0,12.5,3.5,14.3,3.7,1.8,8.7-.3,10.3-1.9,3-3.1,4.6-9,6.1-14.8,1.7-6.5,3.3-12.6,7-14.7.8-.5,1.6-.7,2.5-.7.3,0,.6.2.6.6s-.2.6-.6.6c-.7,0-1.4.2-2,.6-3.2,1.9-4.8,7.8-6.5,14-1.6,5.9-3.2,11.9-6.4,15.3-1.3,1.4-4.6,3-7.9,3h0Z"/>
        <path class="cls-1" d="M169.6,39.8c-.2,0-.4-.1-.5-.3-.1-.3,0-.7.3-.8,2.4-1.1,4.7-2.3,6.9-3.7l.4-.3c17.5-10.5,50-27.9,71.9-26.3.3,0,.6.3.6.6,0,.3-.3.6-.6.6-21.5-1.6-53.9,15.7-71.2,26.1l-.4.3c-2.3,1.4-4.6,2.6-7,3.7,0,0-.2,0-.2,0h0Z"/>
        <path class="cls-1" d="M187.7,94.1c-.3,0-.6-.3-.6-.6,0-.3.2-.6.6-.6,24.8-.7,80.6-.5,81.1-.5s.6.3.6.6c0,.3-.3.6-.6.6h0c-.6,0-56.3-.2-81.1.5h0s0,0,0,0Z"/>
        <path class="cls-1" d="M288,176.4c-1.2,0-2.3-.2-3.4-.7-2.5-1.1-10-6.1-4.1-25.2,2.4-7.8,5.3-16.6,8.2-25.1,1.9-5.6,3.8-11.4,5.6-16.8.1-.3.4-.5.8-.4.3,0,.5.4.4.8-1.8,5.4-3.7,11.2-5.6,16.8-2.8,8.5-5.8,17.3-8.2,25.1-4.5,14.5-1.1,21.8,3.5,23.8,3.6,1.6,8,0,10-3.5,1.5-2.7,2.6-10.3,3.8-19.2,2.6-19.6,5.9-43.9,17.5-44.5.3,0,.6,0,.8,0h0c.3,0,.6.3.6.6,0,.3-.3.6-.6.6s-.5,0-.8,0c-10.6.5-14,25.3-16.4,43.5-1.2,9.3-2.2,16.7-3.9,19.6-1.7,2.9-4.9,4.7-8,4.7h0Z"/>
        <path class="cls-1" d="M246.2,176.7h-5.3c-.3,0-.6-.3-.6-.6s.3-.6.6-.6h0c25.6,0,46.9-.2,47.1-.2.3,0,.6.3.6.6s-.3.6-.6.6-18.7.2-41.9.2h0Z"/>
        <path class="cls-1" d="M212.3,176.6h0c-8.4-.1-16-.2-22.8-.4-.3,0-.6-.3-.6-.6s.3-.6.6-.6c6.8.2,14.4.3,22.8.4.3,0,.6.3.6.6s-.3.6-.6.6h0Z"/>
      </g>
    </g>
    <g>
      <path class="cls-4" d="M271.5,219.8l-5.8-5.8c-.9-.9-2.4-.9-3.4,0l-6.3,6.3-2.5,9.4c-.5,1.9.9,3.8,2.9,3.8h31.8c1.4,0,2.6-.9,2.9-2.2l.6-2.3-11.4-11.4c-.9-.9-2.4-.9-3.4,0l-2.2,2.2c-.9.9-2.4.9-3.4,0h0Z"/>
      <path class="cls-1" d="M288.2,234.1h-31.8c-1.1,0-2.2-.5-2.9-1.4s-.9-2.1-.6-3.1l5.9-21.7c.4-1.6,1.9-2.7,3.5-2.7h31.8c1.1,0,2.2.5,2.9,1.4s.9,2.1.6,3.1l-5.9,21.7c-.4,1.6-1.9,2.7-3.5,2.7ZM262.3,206.3c-1.1,0-2.1.7-2.4,1.8l-5.9,21.7c-.2.7,0,1.5.4,2.1.5.6,1.2,1,1.9,1h31.8c1.1,0,2.1-.7,2.4-1.8l5.9-21.7c.2-.7,0-1.5-.4-2.1-.5-.6-1.2-1-1.9-1h-31.8,0Z"/>
      <circle class="cls-3" cx="286.9" cy="213.2" r="3" transform="translate(73.2 499.8) rotate(-89.9)"/>
    </g>
    <g>
      <path class="cls-2" d="M198.6,124.3l-5.3-5.3c-.8-.8-2.2-.8-3.1,0l-4,4.1-4,10.2c-.5,1.8.9,3.5,2.7,3.5h28.9c1.2,0,2.3-.8,2.7-2l.6-2.1-10.3-10.3c-.8-.8-2.2-.8-3.1,0l-2,2c-.8.8-2.2.8-3.1,0h0Z"/>
      <path class="cls-1" d="M214.1,137.3h-29.2c-1,0-2-.5-2.6-1.3-.6-.9-.7-1.9-.4-2.9l7.3-20.2c.4-1.2,1.6-2.1,2.9-2.1h29.2c1,0,2,.5,2.6,1.3.6.8.7,1.9.4,2.9l-7.3,20.2c-.4,1.2-1.6,2.1-2.9,2.1h0ZM192.2,112c-.8,0-1.6.5-1.8,1.3l-7.3,20.2c-.2.6-.1,1.2.2,1.8.4.5.9.8,1.6.8h29.2c.8,0,1.6-.5,1.8-1.3l7.3-20.2c.2-.6.1-1.2-.2-1.8-.4-.5-.9-.8-1.6-.8,0,0-29.2,0-29.2,0Z"/>
      <circle class="cls-4" cx="212.6" cy="118.3" r="2.7"/>
    </g>
    <path class="cls-4" d="M174.8,81.8c24,0,55.5-.5,72.6-.8,1.4,0,2.6-.8,2.9-2.1.7-3.5,2.2-15,3.7-19.6.6-1.8-.8-3.6-2.6-3.6-11.4.2-59.9-.6-69-.7-1.1,0-2.2.3-3,1,0,0-.1,0-.1.1-3.5,3.2-8.4,16.8-7.3,23,.2,1.5,1.3,2.7,2.9,2.7h0Z"/>
    <g>
      <path class="cls-1" d="M267.7,118.5c-.3,0-.6-.3-.6-.6,0-.3.3-.6.6-.6,8.5,0,11.9-.3,16.1-.7.3,0,.6.2.6.5,0,.3-.2.6-.5.7-4.2.4-7.6.6-16.2.7h0Z"/>
      <path class="cls-1" d="M259.3,130.6c-.3,0-.6-.3-.6-.6s.3-.6.6-.6c3.8,0,8.2-.2,12.1-.4,2.1-.1,4.2-.2,5.9-.3.3,0,.6.2.6.6s-.2.6-.6.6c-1.6,0-3.7.1-5.8.3-3.9.2-8.3.4-12.2.4h0s0,0,0,0Z"/>
      <path class="cls-1" d="M258.1,142.4c-.3,0-.6-.3-.6-.6,0-.3.3-.6.6-.6,9.2,0,14.2-.1,18.8-.6.3,0,.6.2.6.5,0,.3-.2.6-.5.6-4.7.5-9.7.5-18.9.6h0Z"/>
      <path class="cls-1" d="M190.5,153.2h0c-8.4-.2-14-.3-14-.3-.3,0-.6-.3-.6-.6,0-.3.3-.6.6-.6h0c0,0,5.6.1,14,.3.3,0,.6.3.6.6s-.3.6-.6.6h0Z"/>
      <path class="cls-1" d="M250.1,154.6c-.3,0-.6-.3-.6-.6s.3-.6.6-.6c11.1,0,18.3-.3,23.3-.8.3,0,.6.2.6.5,0,.3-.2.6-.5.6-5.1.5-12.3.8-23.4.8h0Z"/>
      <path class="cls-1" d="M250.2,166.6c-.3,0-.6-.3-.6-.6,0-.3.3-.6.6-.6,9.3-.1,16-.4,19.8-.8.3,0,.6.2.6.5,0,.3-.2.6-.5.6-3.9.4-10.6.6-19.9.8h0Z"/>
      <path class="cls-1" d="M287.8,185.8c-4.5,0-10.2,0-17,0-.3,0-.6-.3-.6-.6,0-.3.3-.6.6-.6h0c18.4.1,28.5,0,29.9-.1.3,0,.6.2.7.5s-.2.6-.5.7c-1,.1-5.4.2-13.1.2h0Z"/>
      <path class="cls-1" d="M289.6,197.4c-.3,0-.6-.3-.6-.6s.3-.6.6-.6c5.1,0,8.1,0,8.8-.2.3,0,.6.2.7.5s-.2.6-.5.7c-.8.1-3.7.2-9,.2h0Z"/>
      <path class="cls-1" d="M282.4,197.4h0c-11.7,0-26.6-.1-45.2-.3-.3,0-.6-.3-.6-.6s.3-.6.6-.6c18.6.2,33.4.3,45.2.3.3,0,.6.3.6.6s-.3.6-.6.6h0Z"/>
      <path class="cls-1" d="M252.4,208.8h0c-4.5,0-7.3,0-10.3-.1-2.4,0-4.9,0-8.5-.1-.3,0-.6-.3-.6-.6s.3-.6.6-.6h0c3.5,0,6.1,0,8.5.1,3,0,5.9,0,10.3.1.3,0,.6.3.6.6s-.3.6-.6.6h0Z"/>
      <path class="cls-1" d="M249.9,220.1h0c-5.2,0-10,0-14.7-.1h-4.7c-.3,0-.6-.3-.6-.6s.3-.6.6-.6h4.7c4.8,0,9.5.1,14.7.2.3,0,.6.3.6.6s-.3.6-.6.6h0Z"/>
      <path class="cls-1" d="M247.2,231.8h0c-7.4,0-12.8-.2-17.9-.3-4,0-8.2-.2-13.4-.2-.3,0-.6-.3-.6-.6s.3-.6.6-.6c5.1,0,9.3.1,13.4.2,5.1.1,10.5.2,17.9.3.3,0,.6.3.6.6s-.3.6-.6.6h0Z"/>
      <path class="cls-1" d="M275.9,243.5c-13.3,0-34.3-.2-52.7-.4-.3,0-.6-.3-.6-.6s.3-.6.6-.6h0c40.6.4,63.3.5,65.6.2.3,0,.6.2.7.5s-.2.6-.5.7c-1,.1-5.9.2-13.1.2h0Z"/>
      <path class="cls-1" d="M201.4,242.9h-12.4c-.3,0-.6-.4-.6-.7,0-.3.3-.6.6-.6h12.4c.3,0,.6.4.6.7,0,.3-.3.6-.6.6Z"/>
      <path class="cls-1" d="M255.6,47h0c-24.8-1.3-75.6-.4-76.1-.4-.3,0-.6-.3-.6-.6,0-.3.3-.6.6-.6.5,0,51.3-.9,76.2.4.3,0,.6.3.6.6,0,.3-.3.6-.6.6Z"/>
      <path class="cls-1" d="M256,35.4h0c-25.7-2.2-65.9-.5-66.3-.5-.3,0-.6-.2-.6-.6,0-.3.2-.6.6-.6.4,0,40.7-1.8,66.5.5.3,0,.6.3.5.7,0,.3-.3.5-.6.5h0Z"/>
      <path class="cls-1" d="M256.1,24.3h0c-7.2-.6-16.5-.6-25.4-.5-5.9,0-12.1,0-17.5-.1-.3,0-.6-.3-.6-.6,0-.3.3-.6.6-.6,5.4.2,11.6.1,17.5.1,9,0,18.2,0,25.6.5.3,0,.6.3.5.6,0,.3-.3.5-.6.5h0Z"/>
      <path class="cls-1" d="M189.9,16.8c-13.7,0-28.4-.6-41.7-1.2h-1.6c-.3,0-.6-.4-.6-.7,0-.3.3-.6.6-.6h1.6c16.4.8,35.1,1.6,51.3,1.1.3,0,.6.2.6.6,0,.3-.2.6-.6.6-3.1,0-6.4.1-9.7.1h0Z"/>
    </g>
    <path class="cls-2" d="M19.6,101.1l15.3-3.4c1.9-.4,3.8.3,5,1.9l5.9,7.9,3-10.1c.5-1.7,1.9-3.1,3.7-3.4l14.1-3.1c2.7-.6,4.3-3.2,3.8-5.9l-6.5-30c-.6-2.7-3.2-4.4-5.9-3.8l-46.9,10.3c-2.7.6-4.3,3.2-3.8,5.9l6.5,30c.6,2.7,3.2,4.4,5.9,3.8h0Z"/>
    <path class="cls-2" d="M85.6,94.5l10.8,5c1.3.6,2.2,2,2.2,3.4v7.5l6.4-4.8c1.1-.8,2.5-1,3.8-.4l9.9,4.6c1.9.9,4.1,0,5-1.8l9.7-21.2c.9-1.9,0-4.1-1.8-5l-33.1-15.3c-1.9-.9-4.1,0-5,1.8l-9.7,21.2c-.9,1.9,0,4.1,1.8,5h0Z"/>
    <path class="cls-5" d="M105.1,81.6c1.1-.5,2.3-.5,3.4,0,.8.4,1.5,1,1.9,1.8.2.4.4.9.5,1.4.4-.2.9-.4,1.3-.5.9-.2,1.8-.1,2.6.2,1.1.5,1.9,1.4,2.3,2.5.4,1.1.3,2.4-.2,3.6-.5,1.2-1.5,2.1-3,2.9-1.3.7-3.1,1.2-5.1,1.7-.7.2-1.5.4-2.3.7-.2,0-.4,0-.6,0-.2,0-.4-.2-.5-.5-.4-.8-.7-1.5-1-2.2-.9-1.9-1.7-3.5-2.1-5-.4-1.6-.4-2.9.1-4.2.5-1.2,1.4-2.1,2.5-2.6h0Z"/>
    <path class="cls-2" d="M315.2,50l-10.1-4.3c-1.2-.5-2.7-.3-3.7.6l-5.1,4.6-.8-7.3c-.1-1.2-.9-2.3-2.1-2.8l-9.3-3.9c-1.8-.7-2.6-2.8-1.8-4.5l8.3-19.7c.7-1.8,2.8-2.6,4.5-1.8l31,13.1c1.8.7,2.6,2.8,1.8,4.5l-8.3,19.7c-.7,1.8-2.8,2.6-4.5,1.8,0,0,0,0,0,0Z"/>
    <g>
      <g>
        <g>
          <g>
            <path class="cls-5" d="M158.4,206.8s19.8-3.4,33.6-4.2,36.2-46.9,36.6-52.5c0,0,.4-1.1,0-2.5-1.3-4.2-4.5-12.9-2.3-17.6,3.7-7.7,10.6-6.6,10.6-6.6,0,0,1.9-6.9,6.4-5.3,3.4,1.2,7.2,4.6,7.9,10.9.9,8.6,1.1,16.9-7,23.5-1.6,1.3-2.7,3-3.1,5-2.6,12.3-12.3,54.4-26.2,64.7-16.4,12.1-60.6,26.6-60.6,26.6l4.1-42.1h0s0,0,0,0Z"/>
            <path class="cls-1" d="M154.2,249.4c-.1,0-.3,0-.4-.1-.2-.1-.2-.3-.2-.5l4.1-42.1c0-.3.2-.5.5-.5.2,0,19.9-3.4,33.6-4.2,5.6-.3,13.7-8.9,22.8-24.2,7.4-12.3,13-25.2,13.2-27.8,0,0,0,0,0-.1,0,0,.3-1,0-2.1-.1-.3-.2-.6-.3-1-1.5-4.7-4.1-12.5-1.9-17,3.2-6.8,9-7.1,10.7-7,.4-1.1,1.5-3.9,3.7-5.1,1.1-.6,2.2-.6,3.4-.2,1.7.6,7.4,3.2,8.3,11.4.9,8.4,1.1,17.2-7.2,24-1.5,1.2-2.5,2.9-2.9,4.7-2.6,12.6-12.4,54.7-26.5,65.1-16.3,12-60.3,26.6-60.7,26.7,0,0-.1,0-.2,0h0s0,0,0,0ZM158.9,207.3l-4,40.7c6.3-2.1,44.6-15.3,59.5-26.2,13.8-10.1,23.4-51.8,26-64.3.4-2.1,1.6-4,3.3-5.4,7.9-6.4,7.7-14.5,6.8-23-.8-7.5-6-9.8-7.5-10.4-.9-.3-1.7-.3-2.4.1-2.2,1.1-3.2,4.8-3.2,4.8,0,.3-.4.5-.7.4-.3,0-6.5-.9-10,6.3-1.9,4.1.6,11.9,2,16.1.1.4.2.7.3,1,.4,1.3.2,2.5,0,2.8-.3,3.2-6.3,16.4-13.4,28.3-6.6,11.1-16.1,24.3-23.8,24.7-12.5.7-30,3.6-33,4.1h0s0,0,0,0Z"/>
          </g>
          <g>
            <g>
              <path class="cls-5" d="M213.7,162.2l-9.6-10.5,5.3-4.4c.3-.2.6-.4,1-.5h.7c.9-.3,1.5-1,1.8-1.8h0c.1-.4.4-.8.8-1.1l39.6-32.7c.3-.3.7-.5,1.1-.7l11.8-5.4-6.3,10.7c-.3.6-.8,1.1-1.2,1.6l-36.3,36.1c-.3.3-.7.5-1.1.6h-.1c-.8.2-1.5.9-1.7,1.6v.4c-.2.4-.5.7-.7,1l-5,4.9h0Z"/>
              <path class="cls-1" d="M213.7,162.8h0c-.2,0-.3,0-.4-.2l-9.6-10.5c-.1-.1-.2-.3-.2-.4,0-.2,0-.3.2-.4l5.3-4.4c.4-.3.8-.5,1.3-.6h.7c.6-.3,1.1-.8,1.3-1.4.2-.6.5-1.1,1-1.4l39.6-32.7c.4-.3.8-.6,1.2-.8l11.8-5.4c.2-.1.5,0,.7.1s.2.5,0,.7l-6.3,10.7c-.4.6-.8,1.2-1.3,1.7l-36.3,36.1c-.4.4-.9.7-1.4.8h-.1c-.6.2-1.1.6-1.3,1.2v.4c-.3.5-.5.9-.9,1.2l-5,4.9c-.1.1-.3.2-.4.2h0ZM204.9,151.8l8.8,9.6,4.5-4.5c.2-.2.4-.5.4-.7v-.4c.4-1,1.2-1.8,2.3-2h.1c.3-.1.6-.3.9-.5l36.3-36.1c.5-.4.8-.9,1.1-1.5l5.3-9.1-10.1,4.6c-.3.2-.6.3-.9.6l-39.6,32.7c-.3.2-.5.5-.6.9-.3,1-1.2,1.8-2.2,2.1h-.7c-.3.2-.5.3-.8.5l-4.9,4h0Z"/>
            </g>
            <path class="cls-1" d="M257.8,115.6c-.1,0-.3,0-.4-.2l-4-4c-.2-.2-.2-.6,0-.8.2-.2.6-.2.8,0l4,4c.2.2.2.6,0,.8-.1.1-.3.2-.4.2h0Z"/>
            <g>
              <path class="cls-4" d="M195.2,159.5l9-7.9,9.6,10.6-9,7.9c-1.6,1.4-4.2,1.3-5.6-.3l-4.4-4.9c-1.4-1.6-1.3-4.1.4-5.5h0Z"/>
              <path class="cls-1" d="M202.1,171.7c-1.2,0-2.5-.5-3.4-1.5l-4.4-4.9c-.8-.9-1.2-2-1.1-3.2,0-1.2.6-2.4,1.6-3.2l9.5-8.3,10.4,11.5-9.5,8.3c-.9.8-2,1.2-3.1,1.2h0ZM195.6,159.9c-.7.6-1.1,1.4-1.2,2.3,0,.9.2,1.7.8,2.3l4.4,4.9c1.2,1.4,3.4,1.4,4.8.2l8.6-7.5-8.8-9.8-8.6,7.5h0Z"/>
            </g>
            <path class="cls-1" d="M218.5,153.7c-.2,0-.3,0-.4-.2l-4.5-5.1c-.2-.2-.2-.6,0-.8.2-.2.6-.2.8,0l4.5,5.1c.2.2.2.6,0,.8-.1.1-.2.1-.4.1Z"/>
            <path class="cls-1" d="M217.8,145.3c-.2,0-.3,0-.5-.2-.2-.2-.2-.6,0-.8l11.6-9.8c.2-.2.6-.2.8,0,.2.2.2.6,0,.8l-11.6,9.8c-.1.1-.2.1-.4.1h0Z"/>
            <path class="cls-1" d="M248.8,118.8c-.2,0-.3,0-.4-.2-.2-.2-.2-.6,0-.8l4.5-3.8c.2-.2.6-.2.8,0s.2.6,0,.8l-4.5,3.8c-.1,0-.2.1-.4.1h0Z"/>
            <path class="cls-5" d="M201.8,168.4c-.2,0-.3,0-.4-.2-.2-.2-.2-.6,0-.8l6.9-6c.2-.2.6-.2.8,0,.2.2.2.6,0,.8l-6.9,6c-.1.1-.2.1-.4.1h0Z"/>
          </g>
          <path class="cls-5" d="M228.5,150.1s1.9-10.4,4.8-16.5c2.3-4.8,3.4-20.6,11.9-14.5,1.8,1.3,3.1,2.1,4.5,4.5.7,1.3,2.1,4.7,2.2,6.5.9,8.6.2,15.8-7.9,22.4-1.6,1.3-2.6,3-3.1,5-.2,1.1-12.5-7-12.5-7.4h0Z"/>
          <path class="cls-1" d="M240,162.8h-.1c-.3,0-.5-.4-.4-.7.4-1.6.7-3.2,1-4.7.4-2.1,1.6-4,3.3-5.3,7.7-6.3,8.7-13,7.7-21.9-.2-1.6-1.4-5-2.2-6.3-1.2-2.2-2.3-2.9-3.9-4.1l-.4-.3c-1.6-1.1-2.9-1.5-3.9-1.1-2.4.8-3.7,5.3-4.8,9.3-.7,2.5-1.4,4.9-2.3,6.2-4.8,6.8-4.7,16.1-4.7,16.2h0c0,.3-.1,1-.9,3.4-.1.3-.4.5-.8.4-.3-.1-.5-.4-.4-.8.7-2.2.9-2.9.9-3.1,0-.7,0-9.9,4.9-16.9.8-1.2,1.5-3.4,2.2-5.8,1.2-4.2,2.6-9,5.6-10.1,1.5-.5,3.1,0,5,1.2l.4.3c1.6,1.2,2.9,2.1,4.3,4.5.8,1.4,2.1,4.9,2.3,6.7,1,9,0,16.3-8.1,22.9-1.5,1.2-2.5,2.8-2.9,4.7-.3,1.5-.7,3.1-1,4.7,0,.3-.3.5-.6.5h0Z"/>
        </g>
        <path class="cls-2" d="M156.7,203.8c-25.3.4-41.4-4.6-63.5-11.3-15.4-4.7-40.5-8.7-50.5-7.4-11.2,1.4-23.8,13.8-15.5,63.8,1.6,9.8,2.8,18.6,4.5,26.5,10.4,15.1,24.1,28,42.4,37.3,8.1,4.1,41.1,13.7,80.4,16.2-12.1-15.3-31.2-39.2-28.9-57.8,1-8.7,30.2-15.8,30.2-15.8,0,0,19.7-25.4,12-44.2-2-4.9-5.9-7.4-11.1-7.3h0Z"/>
      </g>
      <g>
        <g>
          <path class="cls-5" d="M93.8,136.3s3.7,5.5,3.9,10.1c0,1.2.6,5.1,3.5,9.3.3.4.2,1-.2,1.3l-2.8,2.5c-.2.2-.3.4-.3.7,0,1.6,0,7.6-.2,8.7-.2,1.3-1.3,2.4-1.8,2.7-1.3.7-7.2,0-7.2,0,0,0-1.6.1-4.7,8.5-3.3,9,3.6,12.4,3.6,12.4,2.6,1.4,2.6,2.7-.2,3.6-9.7,3.1-29.7,5.3-39.8-6-.6-.6-.3-1.7.6-1.9,25.7-7.6,13.4-29.4,14-29.5,1.4-.4,9.4-8.8,14-11.1,3.2-1.6,7,.7,9.6-1.7l7.9-9.3h0Z"/>
          <path class="cls-1" d="M70.8,199c-8.5,0-17.7-2.1-23.6-8.7-.4-.5-.5-1.1-.4-1.7s.6-1.1,1.2-1.2c7.2-2.1,12-5.6,14.3-10.2,3.5-6.9.5-14.9-.4-17.5-.4-1-.4-1.2-.3-1.5,0-.1.2-.3.4-.3.5-.1,2.4-1.9,4.1-3.4,3.1-2.8,7-6.2,9.8-7.7,1.6-.8,3.3-.7,4.9-.6,1.8,0,3.4.2,4.6-1l7.9-9.3c.1-.1.3-.2.5-.2.2,0,.4.1.5.3.2.2,3.8,5.7,4,10.4,0,.7.4,4.6,3.4,8.9.5.6.4,1.6-.2,2.1l-2.8,2.5c0,0-.1.1-.1.2,0,2.3,0,7.6-.3,8.8-.2,1.4-1.4,2.7-2.1,3.1-1.4.8-6.1.2-7.4,0-.3.2-1.7,1.5-4.2,8.1-3.1,8.4,3,11.5,3.3,11.7,1.6.8,2.3,1.7,2.3,2.6,0,.9-.9,1.6-2.5,2.1-4.1,1.3-10.3,2.5-16.8,2.5h0ZM62.9,158.8c0,.1.1.3.2.5,1,2.7,4.1,11,.4,18.4-2.5,5-7.6,8.6-15.1,10.8-.2,0-.3.2-.4.4s0,.4.1.6c10,11.3,30,8.7,39.1,5.8,1.2-.4,1.7-.8,1.7-1,0,0,0-.6-1.6-1.4,0,0-7.3-3.7-3.9-13.1,2.9-7.9,4.6-8.8,5.2-8.9h.1c2.3.3,6,.5,6.8,0,.3-.2,1.3-1.1,1.5-2.3.2-.8.2-5,.2-8.6,0-.4.2-.8.5-1.1l2.8-2.5c.2-.1.2-.3,0-.5-3.2-4.6-3.6-8.8-3.6-9.6-.2-3.4-2.4-7.5-3.4-9.1l-7.4,8.7s0,0,0,0c-1.6,1.5-3.6,1.4-5.5,1.3-1.5,0-3-.1-4.3.5-2.7,1.4-6.5,4.8-9.5,7.5-2.1,1.9-3.3,2.9-4.1,3.4h0s0,0,0,0Z"/>
        </g>
        <path class="cls-1" d="M101,155.5c-.3,0-.6-.2-.6-.6,0-.3.2-.6.6-.6.8,0,1.4-.4,1.9-1,1.4-1.8,1-5.4.8-6.8l-19.9,3.1c-.3,0-.6-.2-.7-.5s.2-.6.5-.7l20.5-3.2c.3,0,.6.2.7.5,0,.2,1.1,5.6-.9,8.3-.7.9-1.6,1.4-2.8,1.5h0Z"/>
        <path class="cls-1" d="M83.6,157.9c-1.8,0-4.5-.6-6-4.3-.9-2.3-.6-4.3.8-5.4,1.5-1.1,3.8-1,5.6.3.7.5,1.5,1.9,1.6,2,.2.3,0,.6-.2.8-.3.2-.7,0-.8-.2-.3-.5-1-1.4-1.3-1.7-1.4-1-3.1-1.1-4.1-.3-1,.8-1.2,2.2-.5,4,1.9,4.6,6,3.4,6.1,3.4.3,0,.7,0,.7.4,0,.3,0,.6-.4.7,0,0-.7.2-1.6.2h0Z"/>
        <path class="cls-1" d="M101.4,122.6c-1.9-3.2-3.9-5.9-10.1-7.1-4.2-.8-11.1,2.3-14.5,5.9-.3.3-.7.3-1,0-.7-.9-2.5-3-4-3.2-4.4-.5-9,5.2-10.6,8.2-1.2,2.2-3.2,7.1-4.2,12.7,0,.4-.4.6-.7.6-1.3-.1-4-.1-6.4,1.6-4.2,3.1-3.8,7.8-3.7,8.3.6,6.6,7.2,11.4,12.3,14,3.4,1.8,4.7,2,6.7,2.5.1,0,.2,0,.3,0,1.8.3,4.8.4,8.2-.8,5.4-1.9,5-10.8,5-10.8l-.7-1.7c-.4-1-.5-2.2,0-3.2,1.3-3.1,5.9-.8,6.1-.8,8.8-1.8,11.9-4.4,13.5-6.2,5.7-6.3,8.3-12.6,3.8-20.3h0Z"/>
      </g>
    </g>
    <g>
      <path class="cls-1" d="M102.5,258.3h0l-19.2-1.5c-17.6-1.4-34.5-7.1-49.3-16.8-.1,0-.2-.1-.3-.2-2.3-1.5-5.1-2-7.8-1.3l-2.6.6c-1.6.4-3.2,1.2-4.4,2.4-.3.3-.5.5-.5.5l2.5,14.2c11,23.2,27.7,43.1,53.2,56.2,5.3,2.7,21.2,7.7,42.5,11.6,0-5.1,0-12.2,0-12.3v-36.5c0-8.3-5.8-15.4-14-17.1h0s0,0,0,0Z"/>
      <path class="cls-5" d="M76.1,323.7c-29.1-5.8-41.5-12.8-50.4-18-5.7-3.3-9.2-9.4-9.2-16v-43.4c0-4.6,5-7.4,8.9-5.2h0c1.5.8,2.9,1.7,4.2,2.6,14.7,9.6,31.6,15.3,49.1,16.7l19.3,1.5c8.2,1.6,14,8.8,14,17.1,0,0-.2,47.8-.7,48.1-2.7,1.8-35.2-3.4-35.2-3.4h0Z"/>
      <path class="cls-1" d="M98.4,320.9s0,0-.1,0c-5.6-1.4-10.9-2.8-15.4-4.3-.3-.1-.5-.4-.4-.8,0-.3.4-.5.8-.4,4.4,1.4,9.7,2.9,15.3,4.2.3,0,.5.4.4.7,0,.3-.3.5-.6.5Z"/>
      <path class="cls-1" d="M83.1,316.7c0,0-.1,0-.2,0-4-1.3-7.2-2.5-9.1-3.5-3.2-1.6-6.2-3.4-9.2-5.2-.3-.2-.4-.5-.2-.8.2-.3.5-.4.8-.2,2.9,1.8,6,3.6,9.1,5.2,1.9,1,5,2.2,9,3.4.3.1.5.4.4.8,0,.2-.3.4-.6.4h0Z"/>
      <path class="cls-1" d="M64.9,308c-.1,0-.2,0-.3,0-18.9-11.9-33.8-29.1-44.2-51.1-.1-.3,0-.6.3-.8.3-.1.6,0,.8.3,10.3,21.8,25.1,38.8,43.8,50.6.3.2.4.5.2.8-.1.2-.3.3-.5.3h0Z"/>
    </g>
    <path class="cls-1" d="M141.4,153.4c-2,0-3.6-1.6-3.6-3.6s1.6-3.6,3.6-3.6,3.6,1.6,3.6,3.6-1.6,3.6-3.6,3.6ZM141.4,147.4c-1.3,0-2.4,1.1-2.4,2.4s1.1,2.4,2.4,2.4,2.4-1.1,2.4-2.4-1.1-2.4-2.4-2.4Z"/>
    <path class="cls-1" d="M306.3,302.7c-2.1,0-3.7-1.7-3.7-3.7s1.7-3.7,3.7-3.7,3.7,1.7,3.7,3.7-1.7,3.7-3.7,3.7ZM306.3,296.4c-1.4,0-2.5,1.1-2.5,2.5s1.1,2.5,2.5,2.5,2.5-1.1,2.5-2.5-1.1-2.5-2.5-2.5Z"/>
    <path class="cls-1" d="M289,317c-3.2,0-5.8-2.6-5.8-5.8s2.6-5.8,5.8-5.8,5.8,2.6,5.8,5.8-2.6,5.8-5.8,5.8ZM289,306.7c-2.5,0-4.6,2.1-4.6,4.6s2.1,4.6,4.6,4.6,4.6-2.1,4.6-4.6-2.1-4.6-4.6-4.6Z"/>
    <g>
      <path class="cls-1" d="M131.6,115.1c-.1,0-.3,0-.4-.2l-2.4-2.4c-.2-.2-.2-.6,0-.8.2-.2.6-.2.8,0l2.4,2.4c.2.2.2.6,0,.8-.1.1-.3.2-.4.2h0Z"/>
      <path class="cls-1" d="M139.9,123.4c-.1,0-.3,0-.4-.2l-2.4-2.4c-.2-.2-.2-.6,0-.8s.6-.2.8,0l2.4,2.4c.2.2.2.6,0,.8-.1.1-.3.2-.4.2h0Z"/>
      <path class="cls-1" d="M129.3,123.4c-.1,0-.3,0-.4-.2-.2-.2-.2-.6,0-.8l2.4-2.4c.2-.2.6-.2.8,0s.2.6,0,.8l-2.4,2.4c-.1.1-.3.2-.4.2h0Z"/>
      <path class="cls-1" d="M137.6,115.1c-.1,0-.3,0-.4-.2-.2-.2-.2-.6,0-.8l2.4-2.4c.2-.2.6-.2.8,0s.2.6,0,.8l-2.4,2.4c-.1.1-.3.2-.4.2h0Z"/>
    </g>
    <g>
      <path class="cls-5" d="M41.8,62.5c1,0,1.8,0,2.6.3.8.3,1.4.6,1.9,1.1.5.5.9,1.1,1,1.8.2.7.2,1.5,0,2.4-.2.9-.7,1.7-1.2,2.5-.6.8-1.3,1.5-2.1,2.1-.8.6-1.8,1.1-2.7,1.4-1,.3-2,.5-3,.6-1,0-1.9-.1-2.6-.4-.7-.3-1.4-.7-1.8-1.3-.4-.5-.7-1.2-.9-1.9s0-1.5.2-2.3c.3-.8.7-1.6,1.3-2.3.6-.7,1.3-1.4,2-1.9.8-.6,1.6-1,2.5-1.3.9-.3,1.9-.5,2.8-.6"/>
      <path class="cls-5" d="M42.1,61.6c1.6,0,3.1,0,4.3.5,1.3.4,2.4,1.1,3.3,1.9.9.9,1.5,1.9,1.8,3.1.3,1.2.3,2.6,0,4.1-.4,1.5-1.1,3-2.1,4.3-1,1.4-2.3,2.6-3.7,3.6-1.4,1-3.1,1.9-4.7,2.5-1.7.6-3.4.9-5.2.9-1.7,0-3.2-.3-4.5-.9-1.2-.6-2.3-1.4-3-2.4-.7-1-1.2-2.1-1.3-3.4-.1-1.2,0-2.6.5-4,.5-1.4,1.2-2.7,2.2-3.9,1-1.2,2.1-2.3,3.4-3.2,1.3-.9,2.7-1.7,4.2-2.2,1.5-.6,3.1-.9,4.7-1M37,78.5c1.4,0,2.7-.3,4.1-.7s2.6-1.1,3.7-1.9c1.1-.8,2.1-1.8,2.9-2.8.8-1.1,1.3-2.2,1.6-3.4.3-1.2.3-2.2,0-3.2-.3-1-.7-1.8-1.4-2.5-.7-.7-1.6-1.2-2.6-1.5-1-.3-2.2-.5-3.5-.4s-2.5.4-3.7.8c-1.2.4-2.3,1.1-3.4,1.8-1,.7-2,1.6-2.7,2.5-.8.9-1.4,2-1.7,3.1-.4,1.1-.5,2.2-.4,3.1.1,1,.5,1.9,1.1,2.6.6.8,1.4,1.4,2.4,1.8,1,.4,2.2.7,3.6.7"/>
      <path class="cls-5" d="M55.9,68.6c-.5-1.7-1.5-3.3-2.7-4.5-1.3-1.2-2.9-2.1-4.7-2.7-1.8-.6-3.9-.8-6.1-.7-2.2.1-4.4.6-6.5,1.4-2.1.8-4.1,1.8-5.9,3.1-1.8,1.3-3.4,2.8-4.8,4.4-1.4,1.7-2.5,3.5-3.2,5.5-.7,2-1,3.9-.9,5.7.1,1.8.7,3.5,1.7,5,1,1.5,2.4,2.7,4.1,3.6,1.8.9,3.9,1.5,6.4,1.5,2.5,0,5-.3,7.5-1.2,2.5-.8,4.8-2.1,6.9-3.6,2.1-1.5,3.9-3.4,5.4-5.4,1.4-2,2.4-4.1,2.9-6.3.5-2.2.4-4.2-.1-6M53.7,72.9c-.4,1.9-1.3,3.6-2.5,5.3-1.2,1.7-2.8,3.2-4.5,4.5-1.8,1.3-3.7,2.3-5.8,3-2.1.7-4.2,1.1-6.3,1-2.1,0-3.9-.5-5.4-1.2-1.5-.7-2.7-1.7-3.6-3-.8-1.2-1.4-2.6-1.5-4.2-.1-1.5,0-3.1.7-4.8.6-1.7,1.5-3.3,2.7-4.7,1.2-1.4,2.5-2.7,4.1-3.8,1.5-1.1,3.3-2,5-2.7,1.8-.7,3.7-1.1,5.6-1.2,1.9-.1,3.7,0,5.2.6,1.6.5,2.9,1.3,4,2.3,1.1,1,1.9,2.3,2.3,3.8.4,1.5.5,3.2,0,5"/>
    </g>
  </g>
  <g id="Livello_3" data-name="Livello 3">
    <path class="cls-5" d="M299.9,40.4l1-2.4c-1.6-.7-3.1-1.8-3.8-2.7l2-2.6c.8,1,2.1,2.1,3.7,2.7,1.4.5,2.6.4,3-.6.4-.9-.2-1.9-1.8-3.2-2.3-1.9-3.6-3.9-2.6-6.3.9-2.2,3.2-3.3,6.1-2.8l1-2.4,2.5.9-.9,2.2c1.6.7,2.6,1.5,3.3,2.2l-1.9,2.6c-.5-.5-1.4-1.5-3.3-2.2-1.6-.6-2.4-.1-2.7.6-.3.8.3,1.7,2.1,3.3,2.5,2.2,3.2,4,2.2,6.3-.9,2.2-3.3,3.5-6.4,2.9l-1.1,2.6-2.5-.9h0s0,0,0,0Z"/>
  </g>
</svg>