<?xml version="1.0" encoding="UTF-8"?><svg id="logo_CicloGreen" xmlns="http://www.w3.org/2000/svg" xmlns:xlink="http://www.w3.org/1999/xlink" viewBox="0 0 560 186.66"><defs><style>.cls-1{fill:url(#Sfumatura_senza_nome_2);}</style><linearGradient id="Sfumatura_senza_nome_2" x1="0" y1="93.33" x2="560" y2="93.33" gradientTransform="matrix(1, 0, 0, 1, 0, 0)" gradientUnits="userSpaceOnUse"><stop offset="0" stop-color="#00b495"/><stop offset=".1" stop-color="#00b495"/><stop offset=".27" stop-color="#0bb479"/><stop offset=".9" stop-color="#34b418"/><stop offset="1" stop-color="#34b418"/></linearGradient></defs><path class="cls-1" d="M443.88,99.24c.16-.67,.19-1.03,.31-1.37,2.67-6.94,7.11-12.48,13.43-16.51,2.04-1.31,4.29-2.22,6.72-2.55,3.43-.47,6.2,1.3,7.15,4.54,.3,1.03,.28,2.06,.02,3.09-.43,1.63-1.28,3.03-2.4,4.3-1.39,1.59-3.03,2.92-4.88,3.99-3.79,2.14-7.8,3.68-12.08,4.42-1.12,.19-2.24,.25-3.39,.25-1.57,0-3.19-.11-4.89-.14m-56.93-.24c.07-.41,.04-.87,.2-1.26,2.77-7.05,7.31-12.68,13.87-16.68,1.95-1.19,4.08-1.98,6.38-2.26,3.63-.47,6.59,1.76,7.17,5.32,.19,1.15-.08,2.22-.48,3.29-.43,1.21-1.15,2.27-1.98,3.24-1.64,1.91-3.63,3.39-5.86,4.58-3.42,1.8-7.02,3.14-10.86,3.86-.94,.17-2.4,.26-3.9,.26-1.69,0-3.44-.11-4.54-.35m-162.57,23.94c-.56-1.4-.88-2.86-.95-4.36-.16-3.08,.06-6.12,.83-9.13,1.71-6.55,4.15-12.79,8.06-18.42,3.52-5.05,7.86-9.3,13.08-12.65,1.33-.85,2.76-1.55,4.22-2.14,1.96-.8,4.01-.78,5.96,.08,3.03,1.31,3.69,4.39,1.41,6.76-.51,.53-1.12,.99-1.74,1.42-1.7,1.15-3.16,2.56-4.4,4.18-3.21,4.17-5.5,8.76-6.62,13.89-.52,2.49-.81,5.01-.44,7.57,.27,1.87,.89,3.63,1.98,5.19,.25,.37,.45,.75,.72,1.18-.25,.33-.44,.67-.69,.94-3.69,4.02-8.14,6.88-13.44,8.43-.92,.29-1.91,.43-2.89,.46-.03,0-.07,0-.1,0-2.41,0-4.1-1.15-4.99-3.41m-37.6-32.44c1.07-2.95,2.03-5.96,3.27-8.84,4.26-10,9.08-19.76,14.79-29.05,2.59-4.23,5.36-8.35,8.61-12.13,1.68-1.92,3.5-3.75,5.33-5.52,1.25-1.2,2.73-2.15,4.37-2.78,.45-.18,1-.21,1.52-.33,.3,1.11,.17,2.09,.01,3.03-.51,3.44-1.69,6.65-3.23,9.78-2.28,4.65-4.96,9.09-7.85,13.4-4.01,5.92-8.32,11.61-12.87,17.13-4.01,4.88-8.08,9.72-12.15,14.57-.51,.63-1.08,1.21-1.92,2.16,.06-.79,.01-1.14,.12-1.42M57.17,45.91c-.77-.58-1.45-1.26-2.42-2.14,.61-.45,1.09-.8,1.55-1.18,5.39-4.43,11.28-8.08,17.61-11,2.61-1.2,5.34-2.14,8.2-2.63,2.64-.46,5.29-.46,7.88,.26,1.01,.29,2.01,.69,2.9,1.23,2,1.21,3.12,3.01,3.25,5.37,.09,1.65-.1,3.3-.9,4.77-.63,1.2-1.34,2.37-2.19,3.4-1.64,1.98-3.58,3.66-5.73,5.09-2.9,1.9-6.07,2.91-9.58,3.15-.67,.04-1.33,.06-1.99,.06-6.89,0-13.04-2.18-18.58-6.39M33.29,7.33c-2.53,4.78-3.49,9.89-2.67,15.23,.75,4.94,2.57,9.52,5.2,13.8,.36,.55,.66,1.13,1.02,1.77-1.34,1.33-2.65,2.58-3.92,3.85C15.93,58.94,3.35,84.47,.62,107.71c-.77,6.49-.93,12.98,.14,19.45,.74,4.47,2.13,8.72,4.55,12.62,2.53,4.09,6.06,7.02,10.69,8.62,5.05,1.73,10.23,2.08,15.49,1.34,3.92-.57,7.67-1.71,11.38-3.14,7.63-2.94,14.45-7.22,20.84-12.23,3.33-2.62,6.45-5.47,9.45-8.44,.34-.35,.57-.93,1.34-.66-.04,.43-.1,.87-.16,1.31-.41,3.27-.63,6.56-.25,9.85,.21,1.72,.56,3.4,1.42,4.93,.88,1.58,2.2,2.46,4.05,2.39,1.07-.07,2.12-.17,3.15-.37,2.63-.55,5.03-1.69,7.26-3.14,2.74-1.76,5.43-3.59,8.03-5.52,4.36-3.26,8.33-6.95,12.22-10.75,.46-.45,.83-1.04,1.71-1.24,.05,.77,.09,1.42,.12,2.08,.13,2.92,.43,5.81,1.27,8.64,1.01,3.4,2.81,6.31,5.73,8.41,4.03,2.93,8.53,4.5,13.61,4.21,4.39-.26,8.49-1.54,12.39-3.44,3.9-1.89,7.5-4.26,10.83-7,3.69-3.02,6.52-6.27,9.73-9.77,.32-.33-3.04-.97,.73-.74v1.52c0,1.78,.54,3.59,.58,5.38,.07,2.17,.69,4.32,1.36,6.4,1.32,4.01,4,5.41,8.2,4.59,2.87-.58,5.53-1.8,8.03-3.26,3.71-2.21,7.29-4.65,10.59-7.41,3.25-2.69,6.39-5.55,9.58-8.32,.31-.25,.53-.79,1.19-.5,.02,.24,.06,.56,.06,.84,.09,1.78,.09,3.59,.3,5.37,.35,2.77,1.23,5.39,2.78,7.76,1.69,2.63,4.03,4.42,7.05,5.39,3.04,.99,6.11,.92,9.19,.11,4.61-1.23,8.7-3.47,12.46-6.34,5.41-4.1,9.86-9.09,13.82-14.53,.43-.58,.87-1.19,1.32-1.79,2.95,.08,6.76,.22,9.75,.31-.04,.39-.02,.73-.09,1.08-.3,1.7-.72,3.37-.97,5.07-.51,3.57-.81,7.14-.23,10.74,.23,1.41,.54,2.79,1.24,4.05,1.23,2.29,3.31,3.25,5.88,2.79,1.74-.32,3.32-1.05,4.86-1.87,2.8-1.51,5.31-3.44,7.74-5.48,4.54-3.78,8.71-7.9,12.7-12.23,.23-.27,.37-.9,1.06-.57-.43,.77-.82,1.48-1.22,2.2-5.21,9.06-9.94,18.35-14.21,27.86-2.97,6.66-5.71,13.37-7.79,20.34-.79,2.67-1.53,5.33-1.77,8.1-.07,.74-.08,1.5,.06,2.22,.27,1.57,1.2,2.12,2.6,1.4,1.06-.53,2.08-1.25,2.94-2.1,2.12-2.13,4.21-4.32,6.15-6.61,3.65-4.3,7.2-8.69,10.76-13.08,12.57-15.47,25.19-30.92,37.28-46.77,2.05-2.7,3.99-5.47,6.12-8.08,2.73-3.33,5.32-6.75,7.52-10.43,3.22-5.33,6.33-10.74,9.48-16.11,.37-.64,.72-1.29,1.06-1.89,.54,0,.93-.04,1.3,.01,2.62,.49,5.25,.62,7.93,.49,.17-.02,.34,.16,.68,.31-.96,1.1-1.84,2.11-2.71,3.13-7.67,8.68-14.25,18.07-19.15,28.55-1.92,4.08-3.58,8.25-4.63,12.63-.64,2.64-1.1,5.28-1.05,7.99,.06,2.2,.41,4.34,1.47,6.29,1.09,2.02,2.74,3.11,5.14,3.08,2.01,0,3.9-.48,5.75-1.19,2.34-.92,4.49-2.17,6.57-3.54,3.81-2.5,7.39-5.25,10.81-8.24,.42-.36,.76-.93,1.53-.85,.47,1.39,.9,2.82,1.46,4.22,1.24,3.17,3.3,5.71,6.27,7.46,3.32,1.93,6.9,3.11,10.74,3.44,5.84,.5,11.3-.87,16.5-3.34,4.07-1.94,7.75-4.42,11.14-7.34,3.33-2.86,6.44-5.93,9.25-9.27,.27-.32,.45-.85,1.15-.58,.02,.41,.05,.85,.1,1.3,.32,3.07,.91,6.06,2.18,8.9,1.34,2.97,3.35,5.36,6.2,6.99,3.33,1.87,6.91,3.04,10.77,3.36,3.68,.28,7.25-.22,10.78-1.24,5.01-1.46,9.51-3.94,13.62-7.06,2.4-1.83,4.58-3.93,6.87-5.88,.37-.33,.62-.87,1.35-.76,0,.65,0,1.29,0,1.93,.03,1.5,0,3.01,.11,4.48,.07,1.39,.54,2.67,1.49,3.7,1.53,1.6,2.93,1.92,4.63,.71,1.16-.82,2.29-1.72,3.32-2.68,2.87-2.69,5.23-5.84,7.5-9.03,6.23-8.77,13.19-16.97,20.77-24.66,3.19-3.21,6.56-6.23,10.23-8.9,1.82-1.35,3.75-2.55,5.83-3.47,.3-.13,.66-.39,1.02,.13-2.44,2.47-4.44,5.27-6.37,8.14-3.47,5.19-6.53,10.62-9.14,16.27-1.43,3.06-2.64,6.2-3.55,9.47-.91,3.26-1.43,6.57-1.2,9.97,.07,.82,.19,1.64,.44,2.43,.93,2.87,3.53,4.41,6.53,3.93,1.89-.29,3.64-1.03,5.36-1.82,3.84-1.81,7.4-4.11,10.8-6.65,7.21-5.4,13.87-11.42,19.95-18.01,1.37-1.5,2.68-3.08,3.96-4.65,1.01-1.23,1.8-2.6,2.28-4.12,.18-.55,.29-1.17,.29-1.74-.02-1.28-.76-1.93-2.04-1.89-1.26,0-2.39,.52-3.33,1.28-1.11,.9-2.2,1.87-3.09,2.95-3.63,4.41-7.97,8.01-12.59,11.31-1.49,1.05-3.05,1.98-4.77,2.58-.72,.25-1.46,.47-2.19,.57-1.04,.15-1.76-.3-2.16-1.25-.2-.49-.36-1.02-.36-1.52,.07-1.04,.15-2.1,.42-3.09,.77-2.85,2.12-5.45,3.55-7.99,2.15-3.8,4.66-7.36,7.18-10.95,3.7-5.27,7.43-10.56,11.02-15.93,1.53-2.31,2.77-4.83,4.07-7.26,.38-.72,.55-1.56,.82-2.32,.95-2.7-.63-6.27-4.84-6.54-2.41-.17-4.71,.27-6.78,1.48-1.9,1.11-3.79,2.24-5.52,3.56-2.77,2.09-5.46,4.28-8.07,6.56-8.03,7.02-15.41,14.65-22.58,22.5-3.69,4.06-7.27,8.23-10.92,12.34-.53,.6-.92,1.34-1.9,1.78,.06-.46,.05-.74,.13-1,1.66-4.87,3.92-9.36,7.53-13.19,5.41-5.77,10.35-11.94,14.94-18.37,1.07-1.53,2.07-3.14,3.05-4.72,.81-1.3,1.25-2.75,1.44-4.23,.1-.67,.1-1.35-.04-2-.18-1.03-.82-1.59-1.9-1.57-.9,.02-1.81,.16-2.67,.38-1.85,.49-3.46,1.51-5.06,2.52-5.28,3.35-9.89,7.45-13.93,12.15-6.02,7.02-11,14.69-15.21,22.85-.65,1.27-1.38,2.51-2.31,3.6-4.74,5.72-10.23,10.62-16.6,14.53-3.43,2.13-7.08,3.75-10.95,4.87-3.66,1.04-7.19,.89-10.63-.78-1.81-.88-3-2.23-3.58-4.13-.46-1.51-.73-3.06-.77-4.64-.16-4.6,.73-9.07,1.64-13.56,0-.14,.17-.24,.32-.48,.53,.02,1.12,.02,1.69,.08,1.22,.14,2.42,.33,3.63,.49,5.17,.66,10.34,.34,15.35-.98,7.74-2.06,14.28-6.14,19.5-12.17,1.8-2.06,3.21-4.36,4.1-6.94,1.69-4.79,1.51-9.48-1.28-13.8-3.34-5.09-8.26-7.88-14.34-8.39-5-.44-9.61,.96-14,3.26-4.73,2.49-8.78,5.87-12.4,9.75-7.96,8.51-13.46,18.4-16.92,29.42-.41,1.31-.97,2.5-1.85,3.55-4.96,5.85-10.63,10.9-17.24,14.86-3.26,1.94-6.71,3.46-10.39,4.48-2.44,.67-4.9,.94-7.41,.31-5.28-1.33-6.74-3.49-7.33-8.16-.3-2.41-.21-4.79,.07-7.18,.49-4.12,1.23-6.25,2.12-8.73,.29,.35,2.64,.52,2.86,.55,.9,.06,1.81,.18,2.71,.26,5.82,.54,11.57,.14,17.09-1.72,5.36-1.81,10.12-4.75,14.33-8.53,1.85-1.68,3.45-3.59,4.78-5.69,.99-1.52,1.82-3.12,2.34-4.85,1.78-6.1,.79-11.63-3.91-16.14-4.74-4.58-10.51-6.34-17.13-5.22-3.56,.61-6.85,1.91-9.96,3.69-3.43,1.97-6.53,4.37-9.31,7.14-10.64,10.62-17.32,23.34-20.51,37.87-.28,1.31-.5,2.65-.7,3.98-.09,.62-.32,1.11-.86,1.5-2.24,1.54-4.54,3.02-7.09,3.98-.64,.22-1.32,.4-1.99,.46-1.21,.11-1.91-.35-2.17-1.51-.16-.78-.19-1.64-.12-2.44,.37-3.14,1.45-6.09,2.65-9.02,4.22-10.32,9.68-19.96,16.29-28.99,1.33-1.8,2.85-3.47,4.29-5.21,.21-.23,.42-.44,.63-.65,.46-.52,.48-1.07,.16-1.65-.8-1.52-2.08-2.57-3.53-3.43-.96-.58-1.89-.67-3-.15-1.28,.63-2.65,1.12-4.03,1.52-1.66,.5-3.39,.79-5.15,.65-1.38-.13-2.73-.35-3.63-1.68,.23-.54,.47-1.08,.68-1.62,.61-1.53,1.32-3.04,1.8-4.6,.61-1.94,.88-3.93,.38-5.97-.55-2.2-1.83-3.73-3.9-4.65-2.85-1.25-5.61-1.24-8.3,.3-5.52,3.11-10.01,9.87-8.82,17.64,.26,1.75,1.01,3.29,2.26,4.56,.74,.74,1.61,1.36,2.43,2.03,.32,.27,.66,.54,.94,.77-.02,.28-.02,.43-.09,.56-.17,.42-.36,.83-.56,1.23-6.17,11.94-13.65,22.98-22.92,32.8-3.47,3.67-6.89,7.37-10.5,10.91-4.54,4.51-9.23,8.88-13.92,13.26-1.03,.98-2.24,1.81-3.38,2.67-.26,.19-.62,.24-.96,.39-.07-.31-.14-.48-.1-.59,.35-.73,.72-1.49,1.13-2.2,7.54-13.58,15.4-26.98,23.42-40.31,.41-.69,.83-1.4,1.27-2.21-.5-.27-.86-.53-1.27-.69-1.52-.55-3.11-.66-4.7-.68-3.61-.06-4.41,.43-6.13,3.55-.43,.79-.82,1.63-1.36,2.32-5.04,6.4-10.42,12.51-16.61,17.83-1.88,1.62-3.93,3.06-5.99,4.46-.9,.63-1.99,1.08-3.07,1.42-1.77,.53-3.17-.31-3.59-2.1-.16-.64-.16-1.33-.18-2-.04-3.04,.74-5.94,1.71-8.78,3.44-10.18,9.46-18.68,17.56-25.78,1.62-1.42,3.5-2.63,5.36-3.75,1.41-.84,2.98-1.49,4.54-2.06,1.8-.65,3.69-.78,5.59-.21,1.79,.53,2.87,1.65,3.06,3.51,.08,.73,.07,1.49,.08,2.24,.03,.58,0,1.16,0,1.86,2.59,.85,5.05,.78,7.28-.62,3.87-2.45,5.92-5.97,5.62-10.57-.32-4.71-2.77-7.97-7.33-9.59-.29-.1-.57-.2-.86-.3-3.8-1.18-7.6-1.17-11.44-.19-4.54,1.15-8.68,3.13-12.58,5.65-4.38,2.84-8.28,6.29-11.84,10.1-7.83,8.44-13.75,18.05-18.01,28.65-.32,.81-.68,1.63-1,2.39-2.47,.51-5.24,.69-7.98,.58,.32-.72,.5-1.11,.68-1.51,.73-1.48,1.5-2.94,2.19-4.45,1.72-3.73,3.31-7.54,4.41-11.51,.78-2.78,1.2-5.58,.22-8.4-.22-.63-.07-1.16,.12-1.73,.38-1.14,.82-2.26,1.08-3.43,1.26-5.43-1.25-9.86-6.57-11.67-.5-.18-1.01-.31-1.53-.44-2.54-.62-5.12-.55-7.7-.24-4.58,.59-8.81,2.21-12.74,4.56-7.23,4.35-13.41,9.78-18.19,16.71-3.51,5.09-6.49,10.46-8.95,16.12-.54,1.26-1.24,2.37-2.18,3.36-4.5,4.74-9.59,8.71-15.38,11.83-1.18,.64-2.46,1.14-3.71,1.65-.48,.2-1.02,.31-1.55,.39-1.15,.18-2.1-.21-2.81-1.11-.46-.57-.87-1.24-1.17-1.9-.61-1.37-1.02-2.81-1.17-4.32-.37-3.55,.12-7.02,.7-10.5,.23-1.45,.89-2.59,1.94-3.66,8.25-8.48,16.25-17.18,24.04-26.09,7.09-8.11,13.9-16.44,20.04-25.26,2.98-4.26,5.77-8.64,8.12-13.27,1.47-2.86,2.78-5.8,3.7-8.91,.51-1.73,.86-3.49,.74-5.31-.2-2.74-1.43-4.85-3.94-6.13-1.94-.99-3.99-1.39-6.17-1.09-2.69,.37-5.11,1.37-7.45,2.66-3.18,1.78-6.01,4.04-8.69,6.51-4.54,4.21-8.55,8.92-12.24,13.85-15.14,20.18-25.49,42.57-32.01,66.76-.39,1.46-.97,2.78-1.96,3.96-6.52,7.84-14.49,13.8-23.79,18.05-1.24,.55-2.53,1.02-3.85,1.38-1.3,.37-2.63,.6-3.99,.8-1.73,.23-3.31-.21-4.79-1.11-2.78-1.69-4.57-4.1-5.4-7.22-1.01-3.84-1.03-7.71-.3-11.57,1.77-9.51,6.19-17.77,12.75-24.92,1.84-2.01,3.96-3.7,6.31-5.1,1.3-.79,2.69-1.42,4.18-1.74,1.89-.4,3.77-.4,5.61,.24,1.53,.53,2.38,1.6,2.45,3.17,.04,.89,.04,1.83-.16,2.69-1.22,4.95-3.57,9.19-7.95,12.13-.16,.11-.27,.29-.42,.44,.1,.16,.17,.33,.27,.38,2.24,1.28,4.65,1.78,7.21,1.55,3.25-.31,6.17-1.53,8.76-3.48,4.2-3.2,7.09-7.32,8.73-12.31,.63-1.95,.97-3.93,.86-5.97-.31-5.04-2.54-8.88-7.29-11.04-4.61-2.12-9.45-2.58-14.45-1.62-3.85,.75-7.29,2.48-10.62,4.46-5.43,3.26-10.03,7.48-14.08,12.31-6.19,7.42-10.74,15.75-13.88,24.82-.44,1.23-1.03,2.29-1.93,3.24-4.3,4.52-9.17,8.3-14.67,11.25-1.07,.55-2.19,1.06-3.34,1.43-2.87,.91-4.5-.15-4.96-3.12-.05-.29-.07-.6-.11-.9-.15-1.87-.04-3.75,.37-5.58,1.69-7.87,4.94-15.06,9.62-21.64,3.76-5.29,8.06-10.1,12.87-14.5,.45-.4,.9-.81,1.3-1.25,.38-.44,.45-.98,.13-1.46-.33-.48-.73-.96-1.19-1.34-1.49-1.23-3.29-1.81-5.18-2.15-2.9-.51-5.29,.18-7.34,2.46-3.4,3.73-6.69,7.55-9.54,11.72-4.76,6.98-8.74,14.36-11.76,22.23-.35,.91-.75,1.77-1.46,2.51-4.85,4.99-9.98,9.63-15.73,13.57-4.68,3.22-9.52,6.18-14.81,8.34-3.44,1.44-6.99,2.45-10.75,2.69-3.25,.22-6.31-.4-9.22-1.94-2.36-1.26-4.05-3.07-5.12-5.49-.89-2.01-1.4-4.11-1.73-6.26-.78-5.01-.55-10.01,.15-14.98,1.04-7.37,3.06-14.5,5.73-21.44,4.41-11.36,10.41-21.76,18.64-30.88,.55-.6,1.1-1.18,1.74-1.88,.9,.88,1.65,1.7,2.5,2.43,2.22,1.95,4.76,3.46,7.46,4.7,7.08,3.28,14.53,4.62,22.35,4.04,6.52-.5,12.4-2.65,17.57-6.65,2.99-2.32,5.83-4.78,8.45-7.52,2.56-2.66,4.9-5.52,6.73-8.74,1.81-3.15,3.08-6.48,3.64-10.08,.88-5.63-1.08-11.31-7.08-14.56-1.32-.71-2.73-1.28-4.17-1.77-5.35-1.85-10.87-1.98-16.41-1.21-9.85,1.41-19.22,4.33-27.92,9.12-2.97,1.64-5.83,3.5-8.74,5.25-.41,.25-.88,.43-1.5,.73,.04-4.49,1.03-8.52,3.08-12.28,1.32-2.43,2.97-4.52,5.59-5.7,.12-.07,.21-.2,.39-.35-.47-2.1-1.61-3.84-3.27-5.2-2.89-2.35-6.26-3.4-9.55-3.4-5.33,0-10.44,2.77-12.85,7.33"/></svg>