<?xml version="1.0" encoding="UTF-8"?><svg id="logo_Stratio" xmlns="http://www.w3.org/2000/svg" viewBox="0 0 560 134.06"><defs><style>.cls-1{fill:#ff4438;}.cls-2{isolation:isolate;}</style></defs><g class="cls-2"><g><path class="cls-1" d="M9.6,108.71c.53-.57,1.41-.59,1.98-.07,3.14,2.91,6.83,5.27,11.06,7.09,4.7,2.01,10.14,3.02,16.32,3.02s11.08-.98,15.11-2.92c4.02-1.94,6.04-5.01,6.04-9.16,0-2.15-.44-3.99-1.31-5.54s-2.35-2.92-4.43-4.13-4.83-2.32-8.26-3.33c-3.43-1.01-7.7-2.12-12.79-3.33-3.63-.8-7.22-1.88-10.78-3.22s-6.75-3.12-9.56-5.35c-2.82-2.2-5.11-4.89-6.85-8.05-1.75-3.15-2.62-6.94-2.62-11.38s1.04-8.57,3.12-11.99,4.86-6.3,8.36-8.66c3.48-2.35,7.41-4.12,11.77-5.34,4.37-1.21,8.89-1.81,13.6-1.81,7.92,0,14.73,1.04,20.45,3.11,5.25,1.92,9.9,4.55,13.97,7.89,.58,.48,.67,1.35,.18,1.95l-8.13,10.29c-.48,.62-1.36,.69-1.98,.19-2.62-2.14-5.78-3.98-9.48-5.51-4.22-1.75-9.16-2.61-14.8-2.61s-10.41,.93-13.9,2.81c-3.49,1.88-5.24,4.97-5.24,9.27,0,4.02,2.32,7.02,6.95,8.95,4.64,1.95,10.71,3.8,18.23,5.54,4.44,1.08,8.56,2.32,12.38,3.73,3.83,1.41,7.19,3.22,10.07,5.43,2.89,2.21,5.17,4.94,6.84,8.16,1.68,3.23,2.52,7.12,2.52,11.69s-1.08,8.84-3.22,12.38c-2.16,3.56-5.04,6.54-8.66,8.97-3.63,2.42-7.79,4.22-12.49,5.43-4.71,1.21-9.61,1.82-14.7,1.82-17.12,0-30.11-4.45-38.97-13.35-.52-.52-.52-1.38-.02-1.93l9.22-10.06Z"/><path class="cls-1" d="M107.64,52.67h-15.53c-.77,0-1.39-.62-1.39-1.39v-12.32c0-.77,.62-1.39,1.39-1.39h15.53V8.35c0-.77,.63-1.39,1.4-1.39h15.33c.77,0,1.39,.62,1.39,1.39v29.22h26.01c.77,0,1.38,.62,1.38,1.39v12.32c0,.77-.61,1.39-1.38,1.39h-26.01v46.12c0,7.53,1.18,12.69,3.53,15.52s5.67,4.22,9.97,4.22c3.49,0,6.38-.53,8.66-1.6,1.9-.9,3.81-2.18,5.71-3.81,.62-.54,1.56-.46,2.05,.19l6.59,8.86c.43,.57,.36,1.39-.16,1.87-3.61,3.32-7.3,5.75-11.07,7.29-4.1,1.68-8.96,2.52-14.61,2.52-9.93,0-17.22-2.69-21.85-8.05-4.63-5.38-6.95-13.77-6.95-25.18V52.67Z"/><path class="cls-1" d="M178.32,131.24c-.77,0-1.39-.63-1.39-1.4V46.64c0-2.49-.05-5.03-.15-7.62-.03-.78,.59-1.45,1.38-1.45h14.54c.74,0,1.36,.59,1.39,1.34l.48,12.12c.03,.52,.69,.73,1,.32,.92-1.25,2.02-2.58,3.31-4.01,1.74-1.94,3.86-3.72,6.34-5.34,2.48-1.61,5.37-2.99,8.66-4.13,3.3-1.14,7.09-1.71,11.38-1.71,2.01,0,3.86,.14,5.54,.4,1.23,.2,2.4,.46,3.52,.8,.7,.21,1.09,.95,.92,1.65l-3.37,14.19c-.18,.75-.96,1.25-1.7,1.02-2.18-.64-4.82-.95-7.92-.95-3.9,0-7.49,.73-10.78,2.21-3.3,1.48-6.15,3.52-8.56,6.14-2.43,2.62-4.34,5.67-5.74,9.16-1.41,3.5-2.12,7.18-2.12,11.09v47.94c0,.77-.63,1.4-1.4,1.4h-15.33Z"/><path class="cls-1" d="M305.87,86.92c-.54-.13-1.59-.3-3.13-.5-1.54-.2-3.32-.37-5.33-.5-2.02-.13-4.17-.27-6.45-.4-2.28-.14-4.5-.21-6.65-.21-5.1,0-9.23,.61-12.38,1.82-3.16,1.21-5.65,2.72-7.45,4.53-1.82,1.81-3.06,3.82-3.73,6.04-.67,2.21-1,4.33-1,6.34,0,5.11,1.74,8.96,5.23,11.58,3.49,2.62,8.32,3.93,14.5,3.93,3.49,0,6.82-.61,9.97-1.82,3.16-1.21,5.95-2.81,8.36-4.83,2.43-2.01,4.36-4.36,5.85-7.05,1.47-2.69,2.21-5.44,2.21-8.26v-10.68Zm.25,34.54c0-.52-.66-.72-.99-.32-3.36,4.11-7.66,7.2-12.87,9.29-5.7,2.28-11.58,3.42-17.62,3.42-3.9,0-7.75-.51-11.58-1.52-3.83-1.01-7.32-2.68-10.47-5.04-3.16-2.34-5.71-5.37-7.66-9.06-1.95-3.69-2.92-8.23-2.92-13.6,0-10.06,3.52-18.13,10.58-24.17,7.05-6.04,17.22-9.06,30.51-9.06,2.15,0,4.44,.07,6.85,.2,2.42,.13,4.7,.27,6.84,.4,2.15,.14,4.03,.27,5.65,.41,1.6,.14,2.75,.27,3.42,.41v-3.43c0-6.97-2.12-11.98-6.35-14.99-4.22-3.03-9.97-4.54-17.22-4.54s-12.76,.98-16.92,2.93c-3.63,1.69-6.74,3.41-9.34,5.15-.64,.43-1.49,.27-1.92-.36l-6.94-10.06c-.41-.61-.3-1.44,.28-1.89,1.39-1.08,3.01-2.16,4.83-3.23,2.27-1.33,4.96-2.58,8.05-3.72,3.08-1.14,6.57-2.08,10.47-2.82,3.9-.73,8.39-1.1,13.5-1.1,12.09,0,21.59,2.92,28.5,8.76,6.92,5.84,10.38,14.13,10.38,24.87v54.59c0,2.57,.04,4.84,.13,6.82,.03,.78-.61,1.44-1.4,1.44h-14.1c-.74,0-1.36-.6-1.39-1.34l-.3-8.43Z"/><path class="cls-1" d="M351.34,52.67h-15.53c-.77,0-1.39-.62-1.39-1.39v-12.32c0-.77,.62-1.39,1.39-1.39h15.53V8.35c0-.77,.62-1.39,1.39-1.39h15.34c.77,0,1.39,.62,1.39,1.39v29.22h26.01c.77,0,1.38,.62,1.38,1.39v12.32c0,.77-.61,1.39-1.38,1.39h-26.01v46.12c0,7.53,1.18,12.69,3.53,15.52,2.34,2.82,5.67,4.22,9.97,4.22,3.49,0,6.38-.53,8.66-1.6,1.9-.9,3.81-2.18,5.71-3.81,.62-.54,1.56-.46,2.05,.19l6.59,8.86c.43,.57,.35,1.39-.16,1.87-3.61,3.32-7.3,5.75-11.07,7.29-4.1,1.68-8.96,2.52-14.61,2.52-9.93,0-17.22-2.69-21.85-8.05-4.64-5.38-6.95-13.77-6.95-25.18V52.67Z"/><path class="cls-1" d="M422.82,37.58h15.34c.76,0,1.39,.62,1.39,1.39v90.87c0,.77-.63,1.39-1.39,1.39h-15.34c-.77,0-1.39-.62-1.39-1.39V38.97c0-.77,.62-1.39,1.39-1.39M430.39,0h0c6.8,0,12.31,5.51,12.31,12.31s-5.51,12.31-12.31,12.31-12.31-5.51-12.31-12.31,5.51-12.31,12.31-12.31"/><path class="cls-1" d="M510.46,118.34c4.83,0,9.19-.98,13.09-2.92,3.9-1.94,7.18-4.5,9.87-7.66s4.74-6.78,6.15-10.88c1.41-4.1,2.11-8.29,2.11-12.59s-.7-8.29-2.11-12.39c-1.41-4.1-3.5-7.75-6.25-10.97-2.76-3.23-6.04-5.81-9.87-7.75-3.83-1.95-8.16-2.93-12.99-2.93s-9.2,.98-13.09,2.93c-3.9,1.94-7.19,4.5-9.87,7.65-2.69,3.16-4.74,6.78-6.15,10.88-1.41,4.1-2.11,8.29-2.11,12.6s.7,8.46,2.11,12.48c1.41,4.03,3.49,7.66,6.25,10.89,2.75,3.22,6.04,5.81,9.87,7.75,3.83,1.94,8.16,2.92,12.99,2.92m0,15.71c-7.25,0-13.9-1.31-19.94-3.92-6.04-2.62-11.25-6.21-15.6-10.78-4.37-4.56-7.79-9.84-10.28-15.82-2.48-5.96-3.72-12.38-3.72-19.23s1.24-13.26,3.72-19.24c2.48-5.97,5.91-11.24,10.28-15.81,4.35-4.57,9.56-8.17,15.6-10.79,6.04-2.61,12.69-3.92,19.94-3.92s13.7,1.31,19.74,3.92c6.04,2.62,11.27,6.22,15.71,10.79,4.43,4.56,7.89,9.83,10.37,15.81,2.48,5.97,3.72,12.39,3.72,19.24s-1.24,13.26-3.72,19.23c-2.48,5.97-5.95,11.25-10.37,15.82-4.44,4.57-9.67,8.16-15.71,10.78-6.04,2.61-12.63,3.92-19.74,3.92"/></g></g></svg>