<?xml version="1.0" encoding="UTF-8"?><svg id="logo_LineaCiudadana" xmlns="http://www.w3.org/2000/svg" viewBox="0 0 560 87.74"><defs><style>.cls-1{fill:#fff;}.cls-2{fill:#00a099;}.cls-3,.cls-4{fill:#575756;}.cls-4{stroke:#575756;stroke-miterlimit:10;stroke-width:.7px;}</style></defs><rect class="cls-2" y="78.11" width="109.84" height="8.63"/><g><polyline class="cls-1" points="3.66 25.82 53.27 4.76 104.43 25.82"/><polygon class="cls-2" points="102.76 29.88 53.29 9.51 5.37 29.86 1.94 21.78 53.24 0 106.1 21.76 102.76 29.88"/></g><g><path class="cls-2" d="M21.35,42.64H12.72v32.76h8.63v-18.43s2.05,2.05,7.61,2.05,8.48-1.9,8.48-1.9v18.28h8.48v-18.72s3.36,2.49,8.48,2.34c5.12-.15,7.9-2.05,7.9-2.05v18.43h8.78v-18.72s3.07,2.49,8.48,2.34c5.41-.15,7.61-2.05,7.61-2.05v18.43h8.78V42.64h-8.48s-.59,7.76-7.61,8.05c-7.02,.29-9.07-8.05-9.07-8.05h-8.34s-1.64,8.05-8.12,8.05-8.26-8.05-8.26-8.05h-8.63s-2.22,8.05-8.48,8.05-7.9-7.46-7.9-7.46"/><circle class="cls-2" cx="54.34" cy="31.89" r="7.83"/><path class="cls-2" d="M87.17,31.89c0,4.32-3.5,7.83-7.83,7.83s-7.83-3.5-7.83-7.83,3.5-7.83,7.83-7.83,7.83,3.5,7.83,7.83Z"/><path class="cls-2" d="M37.3,31.89c0,4.32-3.5,7.83-7.82,7.83s-7.82-3.5-7.82-7.83,3.5-7.83,7.82-7.83,7.82,3.5,7.82,7.83Z"/></g><g><path class="cls-3" d="M114.5,48.54h3.82v34.55h14.71v3.69h-18.54V48.54Z"/><path class="cls-3" d="M141.56,45.24h5.59l-7.67,8.01h-3.59l5.67-8.01Zm-3.61,13.26h3.64v28.29h-3.64v-28.29Z"/><path class="cls-3" d="M149.15,58.5h3.64v5.07c1.46-1.94,3.07-3.39,4.84-4.35,1.77-.96,3.69-1.44,5.77-1.44s3.99,.54,5.63,1.61c1.64,1.07,2.85,2.52,3.63,4.34,.78,1.82,1.17,4.65,1.17,8.5v14.56h-3.64v-13.49c0-3.26-.13-5.43-.4-6.53-.42-1.87-1.23-3.28-2.43-4.22-1.2-.94-2.76-1.42-4.68-1.42-2.2,0-4.17,.73-5.92,2.18-1.74,1.46-2.89,3.26-3.45,5.41-.35,1.4-.52,3.97-.52,7.7v10.37h-3.64v-28.29Z"/><path class="cls-3" d="M205.44,77.4l3.07,1.61c-1.01,1.97-2.17,3.57-3.49,4.78-1.32,1.21-2.8,2.14-4.45,2.77-1.65,.63-3.51,.95-5.6,.95-4.61,0-8.22-1.51-10.82-4.54-2.6-3.02-3.9-6.44-3.9-10.26,0-3.59,1.1-6.79,3.3-9.59,2.79-3.57,6.53-5.36,11.22-5.36s8.67,1.83,11.55,5.49c2.05,2.58,3.09,5.81,3.12,9.67h-25.45c.07,3.29,1.12,5.98,3.15,8.08,2.03,2.1,4.54,3.15,7.52,3.15,1.44,0,2.84-.25,4.2-.75,1.36-.5,2.52-1.17,3.48-1.99,.95-.83,1.99-2.17,3.1-4.01Zm0-7.62c-.49-1.94-1.19-3.49-2.12-4.65-.93-1.16-2.16-2.1-3.68-2.81-1.53-.71-3.13-1.07-4.82-1.07-2.78,0-5.16,.89-7.16,2.68-1.46,1.3-2.56,3.25-3.31,5.85h21.09Z"/><path class="cls-3" d="M244.41,58.5v28.29h-3.59v-4.86c-1.53,1.85-3.24,3.25-5.13,4.19-1.9,.93-3.97,1.4-6.23,1.4-4,0-7.42-1.45-10.26-4.35-2.83-2.9-4.25-6.43-4.25-10.59s1.43-7.56,4.29-10.45c2.86-2.9,6.3-4.34,10.32-4.34,2.32,0,4.42,.49,6.3,1.48,1.88,.99,3.53,2.47,4.95,4.45v-5.2h3.59Zm-14.55,2.78c-2.02,0-3.9,.5-5.61,1.49-1.71,1-3.08,2.39-4.09,4.19-1.01,1.8-1.52,3.71-1.52,5.71s.51,3.9,1.53,5.71c1.02,1.82,2.39,3.23,4.12,4.25,1.72,1.01,3.57,1.52,5.54,1.52s3.88-.5,5.66-1.51c1.78-1,3.15-2.36,4.12-4.08,.96-1.71,1.44-3.64,1.44-5.79,0-3.27-1.08-6.01-3.23-8.21-2.16-2.2-4.81-3.3-7.96-3.3Z"/><path class="cls-3" d="M303.56,55.64l-3.02,2.31c-1.66-2.17-3.66-3.81-5.99-4.93-2.33-1.12-4.9-1.68-7.68-1.68-3.05,0-5.88,.73-8.48,2.2-2.6,1.47-4.61,3.43-6.04,5.9-1.43,2.47-2.14,5.25-2.14,8.33,0,4.66,1.6,8.55,4.8,11.67,3.2,3.12,7.23,4.68,12.1,4.68,5.36,0,9.83-2.1,13.44-6.29l3.02,2.29c-1.91,2.43-4.29,4.3-7.14,5.63-2.85,1.32-6.03,1.99-9.55,1.99-6.69,0-11.97-2.23-15.83-6.68-3.24-3.76-4.86-8.3-4.86-13.62,0-5.6,1.96-10.31,5.89-14.13,3.93-3.82,8.85-5.73,14.76-5.73,3.57,0,6.8,.71,9.67,2.12,2.87,1.41,5.23,3.39,7.07,5.94Z"/><path class="cls-3" d="M311.89,46.85c.83,0,1.53,.3,2.12,.88,.59,.59,.88,1.3,.88,2.13s-.29,1.52-.88,2.11c-.59,.59-1.29,.88-2.12,.88s-1.51-.29-2.1-.88c-.59-.59-.88-1.29-.88-2.11s.29-1.54,.88-2.13c.59-.59,1.29-.88,2.1-.88Zm-1.81,11.65h3.64v28.29h-3.64v-28.29Z"/><path class="cls-3" d="M320.82,58.5h3.64v13.21c0,3.22,.17,5.44,.52,6.66,.52,1.73,1.51,3.1,2.98,4.11,1.47,1,3.22,1.51,5.25,1.51s3.75-.49,5.17-1.47c1.42-.98,2.39-2.27,2.93-3.86,.36-1.09,.55-3.4,.55-6.94v-13.21h3.72v13.88c0,3.9-.46,6.84-1.36,8.81-.91,1.98-2.28,3.52-4.11,4.64-1.83,1.12-4.12,1.68-6.88,1.68s-5.06-.56-6.9-1.68c-1.85-1.12-3.23-2.68-4.13-4.68-.91-2-1.37-5.01-1.37-9.03v-13.62Z"/><path class="cls-3" d="M381.89,47.58v39.21h-3.59v-4.86c-1.53,1.85-3.24,3.25-5.13,4.19-1.9,.93-3.98,1.4-6.23,1.4-4,0-7.42-1.45-10.26-4.35-2.83-2.9-4.25-6.43-4.25-10.59s1.43-7.56,4.29-10.45c2.86-2.9,6.3-4.34,10.32-4.34,2.32,0,4.42,.49,6.3,1.48,1.88,.99,3.53,2.47,4.95,4.45v-16.12h3.59Zm-14.55,13.7c-2.02,0-3.89,.5-5.61,1.49-1.71,1-3.08,2.39-4.09,4.19-1.01,1.8-1.52,3.71-1.52,5.71s.51,3.9,1.53,5.71c1.02,1.82,2.39,3.23,4.12,4.25,1.72,1.01,3.57,1.52,5.54,1.52s3.88-.5,5.66-1.51c1.78-1,3.16-2.36,4.12-4.08,.96-1.71,1.44-3.64,1.44-5.79,0-3.27-1.08-6.01-3.23-8.21-2.15-2.2-4.81-3.3-7.96-3.3Z"/><path class="cls-3" d="M418.31,58.5v28.29h-3.59v-4.86c-1.53,1.85-3.24,3.25-5.13,4.19-1.9,.93-3.97,1.4-6.23,1.4-4,0-7.42-1.45-10.26-4.35-2.83-2.9-4.25-6.43-4.25-10.59s1.43-7.56,4.29-10.45c2.86-2.9,6.3-4.34,10.32-4.34,2.32,0,4.42,.49,6.3,1.48,1.88,.99,3.53,2.47,4.95,4.45v-5.2h3.59Zm-14.55,2.78c-2.02,0-3.89,.5-5.61,1.49-1.71,1-3.08,2.39-4.09,4.19-1.02,1.8-1.52,3.71-1.52,5.71s.51,3.9,1.53,5.71c1.02,1.82,2.39,3.23,4.12,4.25,1.72,1.01,3.57,1.52,5.54,1.52s3.88-.5,5.66-1.51c1.78-1,3.16-2.36,4.12-4.08,.96-1.71,1.44-3.64,1.44-5.79,0-3.27-1.08-6.01-3.23-8.21-2.15-2.2-4.81-3.3-7.96-3.3Z"/><path class="cls-3" d="M454.73,47.58v39.21h-3.59v-4.86c-1.53,1.85-3.24,3.25-5.13,4.19-1.9,.93-3.98,1.4-6.23,1.4-4,0-7.42-1.45-10.26-4.35-2.83-2.9-4.25-6.43-4.25-10.59s1.43-7.56,4.29-10.45c2.86-2.9,6.3-4.34,10.32-4.34,2.32,0,4.42,.49,6.3,1.48,1.88,.99,3.53,2.47,4.95,4.45v-16.12h3.59Zm-14.55,13.7c-2.03,0-3.89,.5-5.61,1.49s-3.08,2.39-4.09,4.19c-1.01,1.8-1.52,3.71-1.52,5.71s.51,3.9,1.53,5.71c1.02,1.82,2.39,3.23,4.12,4.25,1.72,1.01,3.57,1.52,5.54,1.52s3.88-.5,5.66-1.51c1.78-1,3.16-2.36,4.12-4.08,.96-1.71,1.44-3.64,1.44-5.79,0-3.27-1.08-6.01-3.23-8.21-2.16-2.2-4.81-3.3-7.96-3.3Z"/><path class="cls-3" d="M491.16,58.5v28.29h-3.59v-4.86c-1.53,1.85-3.24,3.25-5.13,4.19-1.9,.93-3.97,1.4-6.23,1.4-4,0-7.42-1.45-10.26-4.35-2.83-2.9-4.25-6.43-4.25-10.59s1.43-7.56,4.29-10.45c2.86-2.9,6.3-4.34,10.32-4.34,2.32,0,4.42,.49,6.3,1.48,1.88,.99,3.53,2.47,4.95,4.45v-5.2h3.59Zm-14.55,2.78c-2.02,0-3.89,.5-5.61,1.49-1.71,1-3.07,2.39-4.09,4.19-1.02,1.8-1.52,3.71-1.52,5.71s.51,3.9,1.53,5.71c1.02,1.82,2.39,3.23,4.12,4.25,1.72,1.01,3.57,1.52,5.54,1.52s3.88-.5,5.66-1.51c1.78-1,3.16-2.36,4.12-4.08,.96-1.71,1.44-3.64,1.44-5.79,0-3.27-1.08-6.01-3.23-8.21-2.15-2.2-4.81-3.3-7.96-3.3Z"/><path class="cls-3" d="M499.35,58.5h3.64v5.07c1.46-1.94,3.07-3.39,4.84-4.35,1.77-.96,3.69-1.44,5.77-1.44s3.99,.54,5.63,1.61c1.64,1.07,2.85,2.52,3.63,4.34,.78,1.82,1.17,4.65,1.17,8.5v14.56h-3.64v-13.49c0-3.26-.13-5.43-.4-6.53-.42-1.87-1.23-3.28-2.43-4.22-1.2-.94-2.75-1.42-4.68-1.42-2.2,0-4.17,.73-5.91,2.18-1.74,1.46-2.89,3.26-3.44,5.41-.35,1.4-.52,3.97-.52,7.7v10.37h-3.64v-28.29Z"/><path class="cls-3" d="M560,58.5v28.29h-3.59v-4.86c-1.53,1.85-3.24,3.25-5.13,4.19-1.9,.93-3.97,1.4-6.23,1.4-4,0-7.42-1.45-10.26-4.35-2.83-2.9-4.25-6.43-4.25-10.59s1.43-7.56,4.29-10.45c2.86-2.9,6.3-4.34,10.32-4.34,2.32,0,4.42,.49,6.3,1.48,1.88,.99,3.53,2.47,4.95,4.45v-5.2h3.59Zm-14.55,2.78c-2.02,0-3.89,.5-5.61,1.49-1.71,1-3.08,2.39-4.09,4.19-1.02,1.8-1.52,3.71-1.52,5.71s.51,3.9,1.53,5.71c1.02,1.82,2.39,3.23,4.12,4.25,1.72,1.01,3.57,1.52,5.54,1.52s3.88-.5,5.66-1.51c1.78-1,3.16-2.36,4.12-4.08,.96-1.71,1.44-3.64,1.44-5.79,0-3.27-1.08-6.01-3.23-8.21-2.15-2.2-4.81-3.3-7.96-3.3Z"/></g><g><polygon class="cls-3" points="171.6 38.74 169 38.74 169 19.99 165.09 19.99 161.51 23.27 160.12 19.99 152.83 19.99 153.01 14.39 142.38 14.39 142.38 38.74 139.78 38.74 139.78 11.78 155.7 11.78 155.52 17.39 161.84 17.39 162.47 18.86 164.08 17.39 171.6 17.39 171.6 38.74"/><path class="cls-3" d="M145.37,19.64c-.68,0-1.23-.51-1.23-1.15v-1.69c0-.64,.55-1.15,1.23-1.15s1.24,.52,1.24,1.15v1.69c0,.63-.55,1.15-1.24,1.15Z"/><path class="cls-3" d="M151.42,24.95c-.69,0-1.23-.5-1.23-1.15v-1.69c0-.63,.55-1.15,1.23-1.15s1.23,.52,1.23,1.15v1.69c0,.63-.55,1.15-1.23,1.15Z"/><path class="cls-3" d="M156.19,30.64c-.68,0-1.23-.52-1.23-1.15v-1.69c0-.63,.55-1.15,1.23-1.15s1.23,.52,1.23,1.15v1.69c0,.63-.55,1.15-1.23,1.15Z"/><path class="cls-3" d="M163.11,27.96c-.68,0-1.23-.52-1.23-1.15v-1.69c0-.63,.55-1.15,1.23-1.15s1.23,.52,1.23,1.15v1.69c0,.64-.54,1.15-1.23,1.15Z"/><path class="cls-3" d="M167.54,24.24c-.68,0-1.23-.51-1.23-1.14v-1.69c0-.63,.55-1.15,1.23-1.15s1.23,.52,1.23,1.15v1.69c0,.63-.55,1.14-1.23,1.14Z"/><path class="cls-4" d="M135.32,15.29l-2.62,2.32c-2.18-1.81-4.31-2.72-6.39-2.72-1.32,0-2.46,.37-3.4,1.12-.94,.75-1.42,1.62-1.42,2.62,0,.88,.39,1.72,1.17,2.52,.78,.82,2.41,1.77,4.9,2.87,3.03,1.35,5.1,2.64,6.19,3.89,1.07,1.26,1.6,2.68,1.6,4.26,0,2.23-.91,4.11-2.74,5.66-1.83,1.55-4.11,2.32-6.85,2.32-1.83,0-3.57-.34-5.23-1.02-1.66-.68-3.04-1.62-4.13-2.82l2.56-2.49c2.08,2.01,4.29,3.02,6.62,3.02,1.63,0,3.02-.45,4.17-1.35,1.15-.9,1.72-1.95,1.72-3.17,0-1-.38-1.88-1.14-2.67-.76-.76-2.47-1.73-5.13-2.89-2.86-1.26-4.81-2.51-5.84-3.74-1.03-1.23-1.55-2.63-1.55-4.21,0-2.06,.82-3.77,2.46-5.14,1.64-1.36,3.72-2.04,6.23-2.04,2.92,0,5.85,1.22,8.81,3.66Z"/><path class="cls-3" d="M202.39,39.47h0c-1.34,0-1.34-1.2-1.34-2.58h.06c-.1-3.65-1.12-14.31-5.87-19.52-1.8-1.97-3.89-2.95-6.4-2.99-2.68-.04-4.93,.87-6.79,2.77-6.2,6.37-5.64,21.38-5.63,21.53l-2.6,.11c-.03-.66-.62-16.27,6.36-23.45,2.35-2.41,5.27-3.62,8.7-3.56,12.38,.18,14.91,18.84,14.84,26.02-.01,1.46-.83,1.67-1.32,1.67Z"/><path class="cls-3" d="M199.12,38.75h0c-1.33,0-1.33-1.21-1.33-2.38h.05c-.08-3.17-.91-12.55-4.74-16.72-1.23-1.34-2.63-2-4.28-2.03-1.79-.04-3.3,.59-4.58,1.9-4.99,5.11-4.54,18.23-4.53,18.37l-2.6,.1c-.02-.59-.49-14.39,5.27-20.29,1.78-1.82,4.01-2.73,6.49-2.68,11.68,.19,11.58,21.93,11.58,22.15-.02,1.48-1.01,1.59-1.32,1.59Z"/><path class="cls-3" d="M188.76,31.19c-2,0-3.63-1.47-3.63-3.29s1.63-3.3,3.63-3.3,3.63,1.48,3.63,3.3-1.63,3.29-3.63,3.29Zm0-3.98c-.6,0-1.02,.37-1.02,.69s.42,.68,1.02,.68,1.03-.36,1.03-.68-.42-.69-1.03-.69Z"/><g><path class="cls-4" d="M206.46,11.53h6.33c3.53,0,5.92,.12,7.18,.37,1.89,.37,3.42,1.16,4.6,2.38,1.18,1.22,1.77,2.71,1.77,4.49,0,1.48-.41,2.78-1.22,3.91-.81,1.12-1.98,1.97-3.49,2.55-1.51,.57-3.6,.87-6.27,.88l11.43,12.64h-3.93l-11.43-12.64h-1.8v12.64h-3.18V11.53Zm3.18,2.66v9.25l5.48,.04c2.12,0,3.69-.17,4.71-.52,1.02-.35,1.81-.9,2.38-1.66,.57-.76,.85-1.61,.85-2.54s-.29-1.74-.87-2.49c-.58-.75-1.34-1.28-2.27-1.6-.94-.32-2.5-.48-4.68-.48h-5.61Z"/><path class="cls-4" d="M229.99,14.2v-2.66h17.42v2.66h-7.09v24.55h-3.24V14.2h-7.09Z"/><path class="cls-4" d="M293.86,16.58l-2.51,1.65c-1.38-1.54-3.04-2.71-4.98-3.51-1.94-.8-4.07-1.19-6.39-1.19-2.54,0-4.88,.52-7.04,1.56-2.16,1.04-3.84,2.44-5.03,4.2-1.19,1.76-1.78,3.73-1.78,5.93,0,3.32,1.33,6.09,3.99,8.31,2.66,2.22,6.01,3.33,10.06,3.33,4.45,0,8.18-1.49,11.17-4.48l2.51,1.63c-1.59,1.73-3.56,3.06-5.93,4-2.37,.94-5.02,1.42-7.94,1.42-5.56,0-9.95-1.59-13.16-4.75-2.69-2.68-4.04-5.91-4.04-9.69,0-3.98,1.63-7.34,4.89-10.05,3.26-2.72,7.35-4.08,12.26-4.08,2.97,0,5.65,.5,8.04,1.51,2.39,1.01,4.35,2.41,5.88,4.23Z"/><path class="cls-4" d="M299.78,11.53h3.18v27.21h-3.18V11.53Z"/><path class="cls-4" d="M307.08,14.2v-2.66h17.42v2.66h-7.09v24.55h-3.24V14.2h-7.09Z"/><path class="cls-4" d="M326.57,11.53h3.66l8.14,11.22,8.01-11.22h3.67l-10.07,14.21v13.01h-3.13v-13.01l-10.27-14.21Z"/></g></g></svg>