<?xml version="1.0" encoding="UTF-8"?><svg id="logo_Hopu" xmlns="http://www.w3.org/2000/svg" viewBox="0 0 580 280.33"><defs><style>.cls-1{fill:#edac15;}.cls-2{fill:#3c4848;}.cls-3{fill:#249191;}</style></defs><g><polygon class="cls-3" points="249.11 211.32 250.08 57.95 225.91 72.04 225.91 193.8 144.86 237.07 144.37 151.23 124.5 161.01 124.5 280.33 249.11 211.32"/><polygon class="cls-1" points="0 211.32 124.5 280.33 124.5 161.01 101.6 151.23 101.6 235.4 27.9 194.68 27.9 75.37 0 57.06 0 211.32"/><polygon class="cls-2" points="225.91 72.04 124.5 28.39 27.9 75.37 0 57.06 124.6 0 250.08 57.95 225.91 72.04"/><path class="cls-1" d="M126.97,100.73c-.26-.09-.53-.13-.8-.11-13.09-.86-24.46,9.06-25.36,22.15-.9,13.11,9.04,24.51,22.15,25.42l.96,.07,.47-5.27-1.45-.11c-10.16-.97-17.64-10.03-16.67-20.2,.97-10.16,10.03-17.65,20.21-16.67,10.16,.86,17.75,9.82,16.92,19.99l-.08,.97,5.28,.47,.08-.98c1.05-13.05-8.67-24.56-21.7-25.71Z"/></g><g><path class="cls-2" d="M278.67,102.48h22.02c3.78-.01,7.52,.79,10.96,2.35,3.53,1.55,6.75,3.74,9.49,6.46,2.77,2.72,5.06,5.9,6.75,9.4,1.67,3.55,2.54,7.43,2.54,11.35v37.39h7.55v-37.29c0-4.73-.89-9.41-2.64-13.8-1.77-4.4-4.32-8.45-7.54-11.94-7.05-7.44-16.87-11.62-27.11-11.55h-22.02V57.95h-7.44v111.39h6.75l.68-66.85Z"/><path class="cls-2" d="M411.1,106.79c-6.88-6.96-16.25-10.87-26.04-10.86-4.91,0-9.78,.99-14.29,2.94-4.31,1.89-8.23,4.58-11.55,7.93-6.81,6.8-10.65,16.02-10.67,25.64h7.34c-.13-4.18,.71-8.33,2.45-12.14,3.11-6.94,8.85-12.37,15.95-15.07,3.46-1.36,7.15-2.06,10.86-2.06,4.19-.09,8.34,.78,12.14,2.54,3.43,1.66,6.55,3.92,9.2,6.66,7.99,8.68,10.17,21.23,5.58,32.1-1.52,3.47-3.72,6.59-6.46,9.2-5.55,5.11-12.82,7.94-20.36,7.93v7.34c5.43,.07,10.82-1.07,15.76-3.33,8.6-4.01,15.24-11.31,18.4-20.26,1.55-4.16,2.35-8.57,2.35-13.02,.02-4.79-.98-9.53-2.94-13.9-1.78-4.36-4.41-8.31-7.73-11.65Z"/><path class="cls-2" d="M484.51,99.05c-4.69-2.16-9.81-3.23-14.98-3.13-5.22,0-10.38,1.07-15.17,3.13-4.48,1.9-8.53,4.66-11.94,8.12-3.32,3.3-5.95,7.22-7.73,11.55-1.76,4.22-2.66,8.74-2.64,13.31v73.61h7.83v-73.7c.02-3.79,.85-7.53,2.45-10.96,1.6-3.39,3.82-6.45,6.56-9.01,2.78-2.57,6-4.62,9.49-6.07,3.55-1.54,7.38-2.34,11.26-2.35,3.97-.02,7.9,.78,11.55,2.35,3.4,1.36,6.47,3.43,9.01,6.07,2.47,2.62,4.43,5.67,5.77,9.01,1.36,3.5,2.06,7.21,2.06,10.96-.01,3.8-.68,7.58-1.96,11.16-1.21,3.48-3.07,6.71-5.48,9.49-2.45,2.84-5.49,5.11-8.91,6.66-3.79,1.68-7.9,2.52-12.04,2.45v7.63c4.98,.1,9.9-.98,14.39-3.13,4.31-1.98,8.2-4.77,11.45-8.22,3.24-3.47,5.79-7.53,7.54-11.94,1.75-4.49,2.65-9.27,2.64-14.09,.02-4.5-.85-8.95-2.54-13.12-3.33-8.8-10.02-15.91-18.6-19.77Z"/><path class="cls-2" d="M573.25,101.64l-.69,66.85h-22.02c-3.78,.01-7.52-.79-10.96-2.35-3.53-1.55-6.75-3.74-9.49-6.46-2.77-2.72-5.06-5.9-6.75-9.4-1.67-3.55-2.54-7.43-2.54-11.35v-37.39h-7.54v37.29c0,4.73,.89,9.41,2.64,13.8,1.77,4.4,4.32,8.45,7.54,11.94,7.05,7.44,16.87,11.62,27.11,11.55h22.02v.07h7.44V101.64h-6.75Z"/><path class="cls-2" d="M278.85,193.52c-1.41-.5-2.45-1.07-3.12-1.7s-1.01-1.42-1.01-2.36c0-1.14,.31-2.03,.93-2.66,.62-.63,1.5-.95,2.63-.95,1.24,0,2.2,.38,2.86,1.13,.66,.76,.99,1.82,.99,3.2h2.81c0-1.24-.28-2.38-.83-3.42-.55-1.04-1.34-1.85-2.36-2.43-1.02-.58-2.18-.87-3.49-.87-1.91,0-3.45,.57-4.63,1.71-1.18,1.14-1.77,2.6-1.77,4.36,0,1.02,.21,1.93,.62,2.71,.41,.79,1.03,1.49,1.87,2.11,.83,.62,2.03,1.21,3.6,1.77,1.57,.56,2.66,1.14,3.26,1.73,.6,.59,.9,1.44,.9,2.55s-.31,1.95-.93,2.58c-.62,.63-1.55,.95-2.78,.95-1.33,0-2.37-.38-3.14-1.15-.77-.76-1.15-1.84-1.15-3.21h-2.81c0,1.33,.31,2.5,.94,3.53s1.49,1.82,2.58,2.39c1.1,.57,2.29,.85,3.59,.85,2.02,0,3.61-.54,4.79-1.63,1.17-1.09,1.76-2.53,1.76-4.34s-.47-3.1-1.41-4.16c-.94-1.06-2.51-1.95-4.7-2.68Z"/><path class="cls-2" d="M303.08,189.16c-1.86,0-3.3,.8-4.34,2.4-.73-1.6-2.02-2.4-3.87-2.4-1.65,0-2.98,.61-3.99,1.84l-.06-1.53h-2.54v16.55h2.69v-12.4c.56-1.37,1.52-2.05,2.89-2.05,1.84,0,2.77,1.15,2.8,3.44v11.01h2.72v-11.09c.08-.98,.38-1.78,.89-2.42,.51-.63,1.17-.95,1.99-.95,1.02,0,1.74,.29,2.17,.88,.43,.59,.64,1.48,.64,2.68v10.89h2.69v-11.15c-.07-3.8-1.63-5.7-4.68-5.7Z"/><path class="cls-2" d="M322.64,194.1c-.02-1.61-.47-2.84-1.35-3.68s-2.17-1.26-3.86-1.26c-1.04,0-1.98,.22-2.83,.66-.85,.44-1.52,1.04-2.02,1.81-.5,.77-.75,1.58-.75,2.42h2.71c0-.74,.26-1.36,.76-1.84,.51-.48,1.17-.73,1.99-.73,.9,0,1.56,.21,2,.63,.44,.42,.66,1.12,.66,2.11v1.76h-1.99c-1.99,.02-3.55,.53-4.7,1.51-1.14,.99-1.71,2.32-1.71,4.01,0,1.53,.42,2.71,1.26,3.56s2.01,1.26,3.51,1.26,2.71-.7,3.67-2.11c.07,.85,.19,1.45,.35,1.8h2.81v-.24c-.34-.94-.51-2.04-.52-3.32v-8.35Zm-2.69,7.83c-.28,.55-.71,1.01-1.32,1.38s-1.23,.55-1.9,.55c-.9,0-1.53-.21-1.91-.63-.38-.42-.57-1.1-.57-2.04,0-1,.37-1.78,1.12-2.33,.74-.56,1.76-.84,3.04-.86h1.53v3.95Z"/><path class="cls-2" d="M332.58,189.16c-1.33,0-2.35,.66-3.07,1.99l-.05-1.68h-2.63v16.55h2.71v-11.84c.55-1.52,1.52-2.28,2.91-2.28,.44,0,.85,.04,1.22,.11l-.02-2.63c-.29-.14-.64-.21-1.07-.21Z"/><path class="cls-2" d="M340.99,203.42c-.21-.34-.32-.83-.32-1.49v-10.28h2.49v-2.19h-2.49v-4.01h-2.69v4.01h-2.52v2.19h2.52v10.28c0,1.4,.28,2.48,.84,3.24s1.38,1.15,2.45,1.15c.64,0,1.27-.1,1.88-.3l.03-2.28c-.37,.12-.73,.18-1.09,.18-.52,0-.89-.17-1.1-.5Z"/><path class="cls-2" d="M357.48,187.63c.82-1.19,1.98-1.78,3.5-1.78,1.32,0,2.29,.39,2.94,1.16,.64,.78,1.02,2.07,1.15,3.88h2.83c-.1-2.4-.74-4.24-1.92-5.52s-2.84-1.93-4.99-1.93c-2.34,0-4.18,.84-5.53,2.52s-2.03,3.97-2.03,6.87v4.04c0,2.91,.66,5.21,1.97,6.91s3.09,2.55,5.32,2.55,3.94-.63,5.16-1.9,1.89-3.1,2.01-5.48h-2.83c-.15,1.88-.55,3.18-1.19,3.9-.64,.72-1.69,1.09-3.15,1.09s-2.57-.6-3.33-1.8c-.76-1.2-1.14-2.93-1.14-5.18v-4.08c0-2.29,.41-4.03,1.22-5.22Z"/><rect class="cls-2" x="371.52" y="189.47" width="2.71" height="16.55"/><path class="cls-2" d="M372.89,183.44c-.51,0-.89,.16-1.15,.47-.26,.32-.38,.7-.38,1.16s.13,.84,.38,1.15,.64,.46,1.15,.46,.91-.15,1.16-.46,.38-.69,.38-1.15-.13-.83-.39-1.15-.65-.48-1.15-.48Z"/><path class="cls-2" d="M382.35,203.42c-.21-.34-.32-.83-.32-1.49v-10.28h2.49v-2.19h-2.49v-4.01h-2.69v4.01h-2.52v2.19h2.52v10.28c0,1.4,.28,2.48,.84,3.24s1.38,1.15,2.45,1.15c.64,0,1.27-.1,1.88-.3l.03-2.28c-.37,.12-.73,.18-1.09,.18-.52,0-.89-.17-1.1-.5Z"/><path class="cls-2" d="M389.32,183.44c-.51,0-.89,.16-1.15,.47-.26,.32-.38,.7-.38,1.16s.13,.84,.38,1.15,.64,.46,1.15,.46,.91-.15,1.16-.46,.38-.69,.38-1.15-.13-.83-.39-1.15-.65-.48-1.15-.48Z"/><rect class="cls-2" x="387.94" y="189.47" width="2.71" height="16.55"/><path class="cls-2" d="M400.51,189.16c-1.93,0-3.43,.7-4.5,2.1-1.08,1.4-1.61,3.34-1.61,5.8v2c.02,2.38,.58,4.18,1.68,5.41,1.1,1.23,2.68,1.84,4.74,1.84,2.41,0,4.2-.83,5.37-2.48l-1.41-1.71c-.53,.65-1.1,1.13-1.71,1.43-.61,.3-1.31,.45-2.1,.45-1.25,0-2.21-.4-2.88-1.21-.67-.8-1-2.1-1-3.87v-.38h9.24v-1.77c-.02-2.61-.51-4.53-1.47-5.77-.96-1.23-2.41-1.85-4.34-1.85Zm3.1,7.07h-6.52c.07-1.62,.38-2.82,.92-3.59,.54-.77,1.37-1.15,2.49-1.15,1.01,0,1.76,.34,2.26,1.01s.78,1.8,.85,3.36v.37Z"/><path class="cls-2" d="M415.14,196.41c-1.26-.55-2.06-.99-2.39-1.33-.33-.33-.5-.78-.5-1.33,0-.69,.23-1.24,.68-1.65,.45-.41,1.08-.62,1.87-.62s1.41,.26,1.91,.79c.5,.53,.75,1.16,.75,1.9h2.69c0-1.47-.49-2.67-1.47-3.61-.98-.94-2.27-1.41-3.88-1.41s-2.79,.45-3.77,1.34c-.98,.89-1.48,2.01-1.48,3.36,0,.76,.15,1.41,.44,1.95,.3,.55,.74,1.03,1.34,1.46s1.62,.94,3.08,1.54c1.25,.56,2.1,1.05,2.54,1.47,.44,.42,.66,.92,.66,1.5,0,.68-.23,1.23-.7,1.63-.47,.4-1.15,.6-2.05,.6-.96,0-1.7-.26-2.23-.78s-.81-1.24-.84-2.16h-2.72c0,1.52,.54,2.77,1.61,3.76,1.07,.99,2.47,1.48,4.19,1.48s2.99-.43,3.98-1.29,1.48-2.01,1.48-3.45c0-1.15-.36-2.11-1.09-2.86s-2.09-1.52-4.1-2.31Z"/></g></svg>