<?xml version="1.0" encoding="UTF-8"?><svg id="logo_SaMMY" xmlns="http://www.w3.org/2000/svg" viewBox="0 0 560 190.21"><defs><style>.cls-1{fill:#193f76;}</style></defs><path class="cls-1" d="M268.62,99.93c-3.94-3.28-9.68-5.88-17.24-7.81-7.17-1.8-12.22-3.88-15.14-6.24-2.93-2.36-4.39-5.31-4.39-8.85,0-3.73,1.58-6.85,4.75-9.35,3.17-2.51,7.56-3.76,13.19-3.76s10.2,1.51,13.53,4.53c3.33,3.02,4.99,6.88,4.99,11.57h5.3l.14-.29c.13-5.79-2.03-10.69-6.46-14.71-4.44-4.02-10.27-6.03-17.5-6.03s-12.63,1.69-17.05,5.06c-4.42,3.38-6.63,7.75-6.63,13.12s1.98,9.4,5.93,12.49c3.95,3.09,9.77,5.59,17.46,7.52,7.1,1.86,12.09,4,14.95,6.43,2.86,2.42,4.29,5.54,4.29,9.36,0,4.01-1.71,7.24-5.14,9.68-3.42,2.44-7.92,3.66-13.48,3.66s-10.34-1.31-14.42-3.94c-4.08-2.63-6.12-6.67-6.12-12.12h-5.3l-.1,.29c-.16,6.75,2.37,11.89,7.6,15.41,5.22,3.52,11.34,5.28,18.35,5.28s12.95-1.65,17.53-4.97c4.58-3.31,6.87-7.76,6.87-13.36s-1.97-9.69-5.91-12.97Z"/><path class="cls-1" d="M324.05,119.7v-25.65c0-5.47-1.75-9.66-5.26-12.59-3.5-2.92-8.13-4.39-13.89-4.39s-10.55,1.54-14.3,4.61c-3.75,3.07-5.52,6.55-5.33,10.44l.1,.29,5.3,.05c0-2.92,1.33-5.4,3.98-7.43,2.65-2.03,5.99-3.04,10.01-3.04,4.31,0,7.66,1.06,10.05,3.18,2.39,2.12,3.59,5.05,3.59,8.78v6.46h-11.53c-7.07,0-12.69,1.45-16.85,4.34-4.16,2.89-6.24,6.75-6.24,11.57,0,4.53,1.41,8.15,4.22,10.85,2.81,2.7,6.76,4.05,11.84,4.05,4.02,0,7.63-.9,10.85-2.7,3.21-1.8,5.79-4.07,7.72-6.8,0,1.32,.08,2.62,.24,3.91,.16,1.29,.43,2.81,.82,4.58h6.03c-.48-1.7-.83-3.42-1.04-5.16-.21-1.74-.31-3.52-.31-5.35Zm-5.74-3.95c-1.42,3.02-3.71,5.51-6.9,7.45-3.18,1.95-6.85,2.92-10.99,2.92-3.44,0-6.13-.89-8.08-2.68-1.95-1.78-2.92-4.09-2.92-6.92,0-3.31,1.57-6.08,4.7-8.32,3.13-2.23,7.32-3.35,12.56-3.35h11.62v10.9Z"/><polygon class="cls-1" points="374.68 121.82 374.39 121.82 348.59 60 341.02 60 341.02 130.21 346.76 130.21 346.76 99.21 346.23 68.73 346.52 68.68 372.56 130.21 376.56 130.21 402.65 68.39 402.94 68.49 402.46 99.21 402.46 130.21 408.19 130.21 408.19 60 400.58 60 374.68 121.82"/><polygon class="cls-1" points="460.27 121.82 459.99 121.82 434.19 60 426.62 60 426.62 130.21 432.35 130.21 432.35 99.21 431.82 68.73 432.11 68.68 458.15 130.21 462.16 130.21 488.24 68.39 488.53 68.49 488.05 99.21 488.05 130.21 493.79 130.21 493.79 60 486.17 60 460.27 121.82"/><polygon class="cls-1" points="553.3 60 531.55 99.01 509.94 60 503.24 60 528.66 104.22 528.66 130.21 534.39 130.21 534.39 104.56 560 60 553.3 60"/><path class="cls-1" d="M95.11,0C42.67,0,0,42.67,0,95.11s42.67,95.11,95.11,95.11,95.11-42.67,95.11-95.11S147.55,0,95.11,0Zm0,186.01c-50.12,0-90.9-40.78-90.9-90.9S44.99,4.21,95.11,4.21s90.9,40.78,90.9,90.9-40.78,90.9-90.9,90.9Z"/><path class="cls-1" d="M142.42,116.24l-2.58-3.33c-12.69,9.87-28.62,15.3-44.84,15.3s-31.74-5.29-44.62-15.3l-2.58,3.33c13.63,10.59,29.95,16.18,47.2,16.18s33.99-5.75,47.42-16.18Z"/><path class="cls-1" d="M95,146.34c-20.37,0-39.64-6.61-55.73-19.11l-2.58,3.32c16.83,13.08,36.99,19.99,58.53,19.99s41.48-6.91,58.31-19.99l-2.58-3.32c-16.08,12.5-35.35,19.11-55.95,19.11Z"/><path class="cls-1" d="M80.83,109.14c7.57,2.02,12.17,3.6,12.17,8.39h4.21c0-4.76,4.48-6.14,11.79-7.99,7.3-1.85,16.37-4.15,16.37-13.91h-4.21c0,6.04-4.99,7.74-13.2,9.83-3.78,.96-7.82,2-10.75,4.05v-37.45h10.61v-4.21h-10.61v-9.73c3.57-.93,6.21-4.17,6.21-8.03,0-4.59-3.72-8.31-8.31-8.31s-8.31,3.72-8.31,8.31c0,3.86,2.64,7.1,6.21,8.03v9.73h-10.61v4.21h10.61v37.33c-3-2.15-7.18-3.27-11.09-4.32-8.01-2.14-12.87-3.83-12.87-9.28h-4.21c0,9.08,8.87,11.44,15.99,13.35Zm10.18-59.05c0-2.26,1.84-4.1,4.1-4.1s4.1,1.84,4.1,4.1-1.84,4.1-4.1,4.1-4.1-1.84-4.1-4.1Z"/></svg>