<?xml version="1.0" encoding="utf-8"?>
<!-- Generator: Adobe Illustrator 26.2.1, SVG Export Plug-In . SVG Version: 6.00 Build 0)  -->
<svg version="1.1" id="Livello_1" xmlns="http://www.w3.org/2000/svg" xmlns:xlink="http://www.w3.org/1999/xlink" x="0px" y="0px"
	 viewBox="0 0 80.1 48" style="enable-background:new 0 0 80.1 48;" xml:space="preserve">
<style type="text/css">
	.st0{fill:#252F3E;}
	.st1{fill-rule:evenodd;clip-rule:evenodd;fill:#FF9900;}
</style>
<g id="g1865" transform="translate(-1.668 -1.1)">
	<path id="path1857" class="st0" d="M24.3,18.5c0,1,0.1,1.8,0.3,2.4c0.2,0.6,0.5,1.2,0.9,1.9c0.1,0.2,0.2,0.4,0.2,0.6
		c0,0.3-0.2,0.5-0.5,0.8l-1.7,1.1c-0.2,0.2-0.5,0.2-0.7,0.2c-0.3,0-0.5-0.1-0.8-0.4c-0.4-0.4-0.7-0.8-1-1.3s-0.5-1-0.8-1.6
		c-2.1,2.5-4.7,3.7-7.8,3.7c-2.2,0-4-0.6-5.3-1.9c-1.3-1.3-2-3-2-5.1c0-2.3,0.8-4.1,2.4-5.5s3.8-2.1,6.5-2.1c0.9,0,1.8,0.1,2.8,0.2
		c1,0.1,2,0.3,3.1,0.6v-1.9c0-2-0.4-3.4-1.3-4.3c-0.9-0.8-2.3-1.2-4.4-1.2c-0.9,0-1.9,0.1-2.9,0.3c-1,0.2-1.9,0.5-2.9,0.9
		C8,6.1,7.7,6.2,7.5,6.2C7.3,6.3,7.2,6.3,7.1,6.3C6.7,6.3,6.5,6,6.5,5.5V4.2c0-0.4,0.1-0.7,0.2-0.9c0.1-0.2,0.4-0.4,0.7-0.6
		c0.9-0.5,2.1-0.9,3.4-1.2c1.3-0.3,2.7-0.5,4.2-0.5c3.2,0,5.5,0.7,7,2.2c1.5,1.4,2.2,3.6,2.2,6.6L24.3,18.5L24.3,18.5z M13.4,22.6
		c0.9,0,1.8-0.2,2.7-0.5c1-0.3,1.8-0.9,2.5-1.7c0.4-0.5,0.7-1.1,0.9-1.7c0.2-0.6,0.3-1.4,0.3-2.3v-1.1c-0.8-0.2-1.6-0.3-2.5-0.5
		c-0.9-0.2-1.7-0.2-2.5-0.2c-1.8,0-3.1,0.3-4,1.1c-0.9,0.7-1.3,1.7-1.3,3.1c0,1.3,0.3,2.2,1,2.8C11.3,22.3,12.2,22.6,13.4,22.6
		L13.4,22.6z M34.9,25.5c-0.5,0-0.8-0.1-1-0.3c-0.2-0.2-0.4-0.5-0.6-1L27,3.6c-0.2-0.5-0.2-0.9-0.2-1.1c0-0.4,0.2-0.7,0.6-0.7H30
		c0.5,0,0.9,0.1,1,0.3c0.2,0.2,0.4,0.5,0.5,1l4.6,17.7l4.2-17.7c0.1-0.5,0.3-0.9,0.5-1c0.2-0.2,0.6-0.3,1.1-0.3h2.1
		c0.5,0,0.9,0.1,1.1,0.3c0.2,0.2,0.4,0.5,0.5,1L49.6,21l4.6-17.9c0.2-0.5,0.3-0.9,0.5-1c0.2-0.2,0.6-0.3,1-0.3h2.5
		c0.4,0,0.7,0.2,0.7,0.7c0,0.1,0,0.3-0.1,0.4c0,0.2-0.1,0.4-0.2,0.7l-6.4,20.6c-0.2,0.5-0.3,0.9-0.6,1c-0.2,0.2-0.6,0.3-1,0.3h-2.3
		c-0.5,0-0.9-0.1-1.1-0.3c-0.2-0.2-0.4-0.5-0.5-1.1L42.6,6.9l-4.1,17.2c-0.1,0.5-0.3,0.9-0.5,1.1c-0.2,0.2-0.6,0.3-1.1,0.3
		C37,25.5,34.9,25.5,34.9,25.5z M69.1,26.2c-1.4,0-2.8-0.2-4.1-0.5c-1.3-0.3-2.4-0.7-3.1-1.1c-0.4-0.2-0.7-0.5-0.8-0.7
		c-0.1-0.2-0.2-0.5-0.2-0.7v-1.4c0-0.6,0.2-0.8,0.6-0.8c0.2,0,0.3,0,0.5,0.1s0.4,0.2,0.7,0.3c0.9,0.4,1.9,0.7,2.9,0.9
		c1.1,0.2,2.1,0.3,3.2,0.3c1.7,0,3-0.3,3.9-0.9s1.4-1.4,1.4-2.5c0-0.7-0.2-1.4-0.7-1.9c-0.5-0.5-1.4-1-2.7-1.4l-3.9-1.2
		c-1.9-0.6-3.4-1.5-4.3-2.7s-1.3-2.5-1.3-3.9c0-1.1,0.2-2.1,0.7-3c0.5-0.9,1.1-1.6,1.9-2.2c0.8-0.6,1.7-1.1,2.8-1.4
		c1.1-0.3,2.2-0.5,3.4-0.5c0.6,0,1.2,0,1.8,0.1s1.2,0.2,1.7,0.3c0.5,0.1,1,0.3,1.5,0.4c0.5,0.2,0.9,0.3,1.1,0.5
		c0.4,0.2,0.6,0.4,0.8,0.7c0.2,0.2,0.2,0.5,0.2,0.9v1.3c0,0.6-0.2,0.9-0.6,0.9c-0.2,0-0.6-0.1-1-0.3c-1.5-0.7-3.2-1-5.1-1
		c-1.5,0-2.7,0.2-3.6,0.7C66,6,65.5,6.8,65.5,7.9c0,0.7,0.3,1.4,0.8,1.9c0.5,0.5,1.5,1,2.9,1.5l3.8,1.2c1.9,0.6,3.3,1.5,4.1,2.6
		c0.8,1.1,1.2,2.3,1.2,3.7c0,1.1-0.2,2.2-0.7,3.1c-0.5,0.9-1.1,1.7-1.9,2.3c-0.8,0.7-1.8,1.1-3,1.5C71.7,26,70.4,26.2,69.1,26.2
		L69.1,26.2z"/>
	<g id="g1863">
		<path id="path1859" class="st1" d="M74.1,39.2C65.3,45.7,52.6,49,41.6,49C26.3,49,12.5,43.4,2,34c-0.8-0.7-0.1-1.8,0.9-1.2
			c11.3,6.6,25.2,10.5,39.6,10.5c9.7,0,20.4-2,30.2-6.2C74.3,36.5,75.5,38.1,74.1,39.2z"/>
		<path id="path1861" class="st1" d="M77.8,35c-1.1-1.4-7.4-0.7-10.3-0.3c-0.9,0.1-1-0.6-0.2-1.2c5-3.5,13.3-2.5,14.2-1.3
			c1,1.2-0.3,9.5-5,13.4c-0.7,0.6-1.4,0.3-1.1-0.5C76.5,42.4,78.9,36.4,77.8,35z"/>
	</g>
</g>
</svg>
