<?xml version="1.0" encoding="UTF-8"?><svg id="logo_OpenMove" xmlns="http://www.w3.org/2000/svg" viewBox="0 0 360.1 280"><defs><style>.cls-1{fill:#54aabf;}</style></defs><polygon class="cls-1" points="285.29 193.48 299.49 193.48 299.49 121.37 284.78 121.37 284.78 167.01 252.75 121.37 237.62 121.37 237.62 193.48 252.34 193.48 252.34 146.64 285.29 193.48"/><g><path class="cls-1" d="M190.48,0L111.44,100.97h43.05c-.01,21.5-.13,131.34-.13,141.37,0,21.9,15.24,37.58,36.06,37.58s36.18-15.68,36.18-37.58V100.97h42.92L190.48,0Zm-25.03,121.3h48.9v13.53h-34.19v15.26h33.48v13.53h-33.48v16.35h34.19v13.51h-48.9V121.3Zm25.13,93.26c14.13,0,25.57,12.01,25.57,26.87s-11.45,26.9-25.57,26.9-25.57-12.05-25.57-26.9,11.45-26.87,25.57-26.87"/><path class="cls-1" d="M119.86,154.96h-26.28v-19.82h26.28c5.9,0,10.33,3.74,10.33,9.91s-4.43,9.91-10.33,9.91m-40.16-33.59v73.46h13.88v-26.1h26.28c15.19,0,23.62-10.9,23.62-23.68s-8.33-23.68-23.62-23.68h-40.15Z"/><polygon class="cls-1" points="284.42 207.41 299.57 207.41 276.6 280 260.68 280 237.62 207.41 253.63 207.41 268.64 258.9 284.42 207.41"/><polygon class="cls-1" points="111.66 249.93 93.63 207.31 79.73 207.31 79.73 279.97 93.63 279.97 93.63 239.59 109.72 275.49 113.74 275.49 129.7 237.78 129.7 279.97 143.71 279.97 143.71 207.31 129.69 207.31 111.66 249.93"/><polygon class="cls-1" points="311.19 207.31 360.1 207.31 360.1 220.93 325.9 220.93 325.9 236.29 359.38 236.29 359.38 249.9 325.9 249.9 325.9 266.35 360.1 266.35 360.1 279.97 311.19 279.97 311.19 207.31"/><path class="cls-1" d="M34.31,121.32C15.36,121.32,0,137.47,0,157.38s15.36,36.04,34.31,36.04,34.31-16.13,34.31-36.04-15.36-36.06-34.31-36.06m0,13.15c12.03,0,21.79,10.26,21.79,22.9s-9.76,22.9-21.79,22.9-21.79-10.25-21.79-22.9,9.76-22.9,21.79-22.9"/></g></svg>