<?xml version="1.0" encoding="UTF-8"?><svg id="logo_DKSR" xmlns="http://www.w3.org/2000/svg" viewBox="0 0 561.27 200.83"><defs><style>.cls-1{fill:#05baee;}.cls-1,.cls-2,.cls-3{stroke:#164193;stroke-miterlimit:10;stroke-width:2.54px;}.cls-2,.cls-4{fill:#164193;}.cls-3{fill:#fdea18;}</style></defs><path class="cls-4" d="M162.74,151.59c-.75-.75-1.12-1.62-1.12-2.61V52c0-1.09,.35-2.02,1.05-2.76,.7-.75,1.59-1.12,2.69-1.12h39.3c14.74,0,26.2,3.51,34.37,10.53,8.17,7.02,12.45,17.11,12.85,30.26,.1,2.89,.15,6.72,.15,11.5s-.05,8.57-.15,11.36c-1,27.29-16.49,40.94-46.47,40.94h-40.04c-1,0-1.87-.37-2.61-1.12m41.91-21.29c6.28,0,10.91-1.49,13.9-4.48s4.58-7.77,4.78-14.34c.2-2.89,.3-6.62,.3-11.21s-.1-8.27-.3-11.06c-.2-6.37-1.92-11.08-5.15-14.12-3.24-3.04-7.99-4.56-14.27-4.56h-14.19v59.77h14.94Z"/><path class="cls-4" d="M270.06,151.59c-.75-.75-1.12-1.62-1.12-2.61V52c0-1.09,.35-2.02,1.05-2.76,.7-.75,1.59-1.12,2.69-1.12h20.02c1.09,0,1.99,.37,2.69,1.12,.7,.75,1.05,1.67,1.05,2.76v32.57l26.45-33.47c1.1-1.99,3.04-2.99,5.83-2.99h22.86c.8,0,1.52,.32,2.17,.97,.65,.65,.97,1.37,.97,2.17s-.2,1.4-.6,1.79l-34.81,45.12,37.65,49.61c.4,.4,.6,1,.6,1.79s-.32,1.52-.97,2.17c-.65,.65-1.42,.97-2.32,.97h-23.46c-1.59,0-2.89-.32-3.88-.97-1-.65-1.69-1.32-2.09-2.02l-28.39-36.46v35.71c0,1-.35,1.87-1.05,2.61-.7,.75-1.59,1.12-2.69,1.12h-20.02c-1,0-1.87-.37-2.61-1.12"/><path class="cls-4" d="M386.23,150.02c-6.78-2.79-11.9-6.47-15.39-11.06-3.49-4.58-5.33-9.56-5.53-14.94,0-.9,.32-1.64,.97-2.24,.65-.6,1.42-.9,2.32-.9h19.87c1.19,0,2.17,.2,2.91,.6,.75,.4,1.57,1.1,2.47,2.09,1.29,2.39,3.31,4.36,6.05,5.9,2.74,1.55,6.4,2.32,10.98,2.32,5.38,0,9.51-.82,12.4-2.47,2.89-1.64,4.33-3.91,4.33-6.8,0-2.09-.75-3.81-2.24-5.15-1.49-1.34-3.88-2.54-7.17-3.59-3.29-1.05-8.02-2.22-14.19-3.51-12.05-2.39-21.07-6.03-27.04-10.91-5.98-4.88-8.96-11.85-8.96-20.92,0-6.17,1.72-11.68,5.16-16.51,3.44-4.83,8.32-8.59,14.64-11.28,6.32-2.69,13.67-4.03,22.04-4.03s16.36,1.52,22.79,4.56c6.43,3.04,11.36,6.82,14.79,11.36,3.44,4.53,5.25,8.99,5.45,13.37,0,.9-.3,1.67-.9,2.32-.6,.65-1.34,.97-2.24,.97h-20.92c-2.19,0-3.89-.9-5.08-2.69-.6-2.09-2.14-3.86-4.63-5.3-2.49-1.44-5.58-2.17-9.26-2.17-4.18,0-7.42,.75-9.71,2.24-2.29,1.49-3.44,3.69-3.44,6.57s1.49,5.15,4.48,6.8c2.99,1.64,8.57,3.31,16.73,5.01,9.36,1.7,16.81,3.81,22.34,6.35,5.53,2.54,9.61,5.83,12.25,9.86,2.64,4.03,3.96,9.14,3.96,15.31,0,6.77-1.94,12.65-5.83,17.63-3.88,4.98-9.26,8.79-16.14,11.43-6.87,2.64-14.74,3.96-23.61,3.96-9.66,0-17.88-1.4-24.65-4.18"/><path class="cls-4" d="M473.19,151.59c-.75-.75-1.12-1.62-1.12-2.61V52c0-1.1,.35-2.02,1.05-2.76,.7-.75,1.59-1.12,2.69-1.12h41.09c13.15,0,23.43,2.99,30.85,8.96,7.42,5.98,11.13,14.39,11.13,25.25,0,6.97-1.62,12.9-4.86,17.78-3.24,4.88-7.7,8.67-13.37,11.36l20.17,36.46c.3,.6,.45,1.15,.45,1.64,0,.8-.3,1.52-.9,2.17-.6,.65-1.35,.97-2.24,.97h-21.07c-2.89,0-4.93-1.34-6.13-4.03l-16.44-32.42h-14.34v32.72c0,1.1-.37,1.99-1.12,2.69-.75,.7-1.67,1.05-2.76,1.05h-20.47c-1,0-1.87-.37-2.61-1.12m43.55-57.3c4.28,0,7.55-1.07,9.79-3.21,2.24-2.14,3.36-5.1,3.36-8.89s-1.12-6.82-3.36-9.11c-2.24-2.29-5.5-3.44-9.79-3.44h-16.58v24.65h16.58Z"/><path class="cls-2" d="M98.23,155.25l-42.13,42.13c-2.91,2.91-7.62,2.91-10.53,0L3.45,155.25c-2.91-2.91-2.91-7.62,0-10.53l42.13-42.12c2.91-2.91,7.62-2.91,10.53,0l42.13,42.12c2.91,2.91,2.91,7.62,0,10.53"/><path class="cls-1" d="M98.23,105.68l-42.13,42.13c-2.91,2.91-7.62,2.91-10.53,0L3.45,105.68c-2.91-2.91-2.91-7.62,0-10.53L45.58,53.02c2.91-2.91,7.62-2.91,10.53,0l42.13,42.13c2.91,2.91,2.91,7.62,0,10.53"/><path class="cls-3" d="M98.23,56.11l-42.13,42.13c-2.91,2.91-7.62,2.91-10.53,0L3.45,56.11c-2.91-2.91-2.91-7.62,0-10.53L45.58,3.45c2.91-2.91,7.62-2.91,10.53,0l42.13,42.13c2.91,2.91,2.91,7.62,0,10.53"/></svg>