<?xml version="1.0" encoding="UTF-8"?><svg id="Livello_1" xmlns="http://www.w3.org/2000/svg" viewBox="0 0 560 96.63"><g><path d="M147.94,82.58V14.12h28.73c3.09,0,5.93,.64,8.53,1.93s4.83,2.98,6.7,5.06c1.87,2.08,3.33,4.47,4.39,7.13s1.59,5.39,1.59,8.15-.49,5.68-1.49,8.34c-1,2.66-2.4,5.05-4.19,7.13-1.8,2.08-3.96,3.76-6.51,5.01-2.54,1.25-5.35,1.88-8.44,1.88h-18.51v23.81h-10.8Zm10.8-33.36h17.84c1.54,0,2.94-.33,4.19-.96s2.33-1.54,3.23-2.7,1.6-2.51,2.12-4.05,.77-3.24,.77-5.11-.29-3.66-.87-5.21c-.58-1.54-1.39-2.88-2.41-4s-2.21-1.99-3.52-2.6-2.69-.92-4.1-.92h-17.26v25.55h0Z"/><path d="M235,41.31c-4.11,.13-7.76,1.07-10.94,2.84-3.18,1.77-5.45,4.29-6.8,7.57v30.85h-10.61V32.15h9.83v11.28c1.74-3.47,4-6.25,6.8-8.34s5.8-3.23,9.01-3.42h1.59c.42,0,.78,.04,1.11,.1v9.54h0Z"/><path d="M262.86,83.54c-3.99,0-7.57-.71-10.75-2.12s-5.89-3.31-8.15-5.69-3.99-5.16-5.21-8.34-1.83-6.51-1.83-9.98,.61-6.8,1.83-9.98c1.22-3.18,2.98-5.97,5.25-8.34,2.28-2.37,5.01-4.28,8.19-5.69,3.18-1.41,6.74-2.12,10.65-2.12s7.47,.71,10.65,2.12c3.18,1.41,5.92,3.31,8.19,5.69,2.28,2.37,4.04,5.16,5.25,8.34,1.22,3.18,1.83,6.51,1.83,9.98s-.61,6.8-1.83,9.98c-1.22,3.18-2.98,5.97-5.25,8.34-2.28,2.37-5.01,4.28-8.19,5.69s-6.74,2.12-10.65,2.12Zm-15.04-26.03c0,2.45,.39,4.69,1.16,6.75,.77,2.06,1.83,3.84,3.18,5.35,1.35,1.51,2.94,2.7,4.77,3.57s3.81,1.3,5.93,1.3,4.1-.43,5.93-1.3c1.83-.87,3.42-2.07,4.77-3.62s2.41-3.34,3.18-5.4c.77-2.06,1.16-4.3,1.16-6.75s-.39-4.62-1.16-6.7c-.77-2.08-1.83-3.9-3.18-5.45-1.35-1.54-2.94-2.75-4.77-3.62s-3.81-1.3-5.93-1.3-4,.45-5.83,1.35-3.42,2.12-4.77,3.66-2.42,3.36-3.23,5.45c-.81,2.08-1.21,4.31-1.21,6.7Z"/><path d="M300.37,41.6h-6.75v-8.19h6.75v-2.02c0-2.64,.42-5.16,1.25-7.57s2.08-4.54,3.76-6.41c1.68-1.87,3.71-3.36,6.12-4.48s5.22-1.69,8.44-1.69c3.66,0,6.91,.57,9.74,1.69,2.83,1.12,5.3,2.42,7.42,3.9l-4.34,7.91c-1.48-1.29-3.29-2.35-5.45-3.18-2.16-.83-4.39-1.25-6.7-1.25-1.68,0-3.12,.3-4.34,.92s-2.22,1.43-2.99,2.46-1.35,2.18-1.74,3.47-.58,2.6-.58,3.95v2.31h26.42v49.17h-10.61V41.6h-15.81v40.97h-10.61V41.6Z"/><path d="M378.46,41.31c-4.11,.13-7.76,1.07-10.94,2.84-3.18,1.77-5.45,4.29-6.8,7.57v30.85h-10.61V32.15h9.83v11.28c1.74-3.47,4-6.25,6.8-8.34s5.8-3.23,9.01-3.42h1.59c.42,0,.78,.04,1.11,.1v9.54h0Z"/><path d="M398.9,83.54c-2.45,0-4.71-.4-6.8-1.21s-3.89-1.92-5.4-3.33-2.7-3.09-3.57-5.01-1.3-4.01-1.3-6.27c0-2.37,.52-4.53,1.54-6.46s2.49-3.6,4.39-5.01,4.15-2.51,6.75-3.28,5.48-1.16,8.63-1.16c2.37,0,4.72,.2,7.04,.63,2.31,.42,4.4,.98,6.27,1.69v-3.47c0-3.72-1.06-6.64-3.18-8.73-2.12-2.08-5.17-3.13-9.16-3.13-2.7,0-5.35,.49-7.95,1.49s-5.29,2.42-8.05,4.29l-3.28-6.75c6.5-4.37,13.24-6.56,20.25-6.56s12.34,1.77,16.2,5.3,5.78,8.62,5.78,15.23v18.22c0,2.25,.93,3.41,2.8,3.47v9.06c-1.02,.19-1.92,.33-2.65,.39-.74,.06-1.46,.1-2.17,.1-2.06,0-3.65-.52-4.77-1.54s-1.82-2.35-2.07-3.95l-.29-3.18c-2.25,2.95-5.03,5.22-8.34,6.8-3.31,1.57-6.86,2.36-10.65,2.36Zm2.89-7.81c2.57,0,5-.47,7.28-1.4s4.06-2.23,5.35-3.9c1.35-1.16,2.02-2.37,2.02-3.66v-6.65c-1.8-.71-3.71-1.25-5.74-1.64-2.02-.39-4-.58-5.93-.58-3.8,0-6.89,.82-9.3,2.46s-3.62,3.81-3.62,6.51c0,2.51,.93,4.62,2.8,6.31,1.87,1.7,4.24,2.55,7.13,2.55Z"/><path d="M467.54,79.97c-1.35,.64-3.22,1.36-5.59,2.17s-4.92,1.21-7.62,1.21c-1.68,0-3.24-.23-4.72-.67s-2.78-1.12-3.9-2.02-2.01-2.07-2.65-3.52-.96-3.19-.96-5.25v-31.53h-6.65v-8.19h6.65V15.57h10.61v16.58h10.99v8.19h-10.99v28.15c.13,1.8,.69,3.1,1.69,3.9s2.23,1.21,3.71,1.21,2.89-.25,4.24-.77,2.35-.93,2.99-1.25l2.22,8.39Z"/><path d="M496.27,83.54c-3.99,0-7.57-.71-10.75-2.12s-5.89-3.31-8.15-5.69-3.99-5.16-5.21-8.34-1.83-6.51-1.83-9.98,.61-6.8,1.83-9.98c1.22-3.18,2.98-5.97,5.25-8.34,2.28-2.37,5.01-4.28,8.19-5.69,3.18-1.41,6.74-2.12,10.65-2.12s7.47,.71,10.65,2.12c3.18,1.41,5.92,3.31,8.19,5.69,2.28,2.37,4.04,5.16,5.25,8.34,1.22,3.18,1.83,6.51,1.83,9.98s-.61,6.8-1.83,9.98c-1.22,3.18-2.98,5.97-5.25,8.34-2.28,2.37-5.01,4.28-8.19,5.69s-6.74,2.12-10.65,2.12Zm-15.04-26.03c0,2.45,.39,4.69,1.16,6.75,.77,2.06,1.83,3.84,3.18,5.35,1.35,1.51,2.94,2.7,4.77,3.57s3.81,1.3,5.93,1.3,4.1-.43,5.93-1.3c1.83-.87,3.42-2.07,4.77-3.62s2.41-3.34,3.18-5.4c.77-2.06,1.16-4.3,1.16-6.75s-.39-4.62-1.16-6.7c-.77-2.08-1.83-3.9-3.18-5.45-1.35-1.54-2.94-2.75-4.77-3.62s-3.81-1.3-5.93-1.3-4,.45-5.83,1.35-3.42,2.12-4.77,3.66-2.42,3.36-3.23,5.45c-.81,2.08-1.21,4.31-1.21,6.7Z"/><path d="M560,41.31c-4.11,.13-7.76,1.07-10.94,2.84s-5.45,4.29-6.8,7.57v30.85h-10.61V32.15h9.83v11.28c1.74-3.47,4-6.25,6.8-8.34s5.8-3.23,9.01-3.42h1.59c.42,0,.78,.04,1.11,.1v9.54h0Z"/></g><path d="M43.31,94.92c0,.94-.77,1.71-1.71,1.71H1.71c-.94,0-1.71-.77-1.71-1.71V1.71C0,.77,.77,0,1.71,0H41.61c.94,0,1.71,.77,1.71,1.71V94.92h-.01Z"/><path d="M96.63,95.43c0,.66-.54,1.19-1.19,1.19H58.55c-.66,0-1.19-.54-1.19-1.19V57.5c0-.66,.54-1.19,1.19-1.19h36.89c.66,0,1.19,.54,1.19,1.19v37.94Z"/><path d="M96.63,41.35c0,.66-.54,1.19-1.19,1.19H58.55c-.66,0-1.19-.54-1.19-1.19V1.19c0-.66,.54-1.19,1.19-1.19h36.89c.66,0,1.19,.54,1.19,1.19V41.35Z"/></svg>