<?xml version="1.0" encoding="UTF-8"?><svg id="logo_Viur" xmlns="http://www.w3.org/2000/svg" viewBox="0 0 560 165.11"><defs><style>.cls-1{fill:#72afff;}</style></defs><path class="cls-1" d="M478.02,29.44c-1.73-1.15-3.46-1.73-5.77-1.73h-5.2c-2.31,0-4.04,.58-5.2,1.73-1.15,1.15-1.73,2.89-1.73,5.2v61.2c0,6.35-1.73,11.55-5.2,16.16-4.04,4.62-9.24,6.93-17.32,6.93s-13.86-2.31-17.32-6.93c-3.46-4.62-5.2-9.81-5.2-16.16V34.64c0-2.31-1.15-4.04-2.31-5.2-1.73-1.15-3.46-1.73-5.77-1.73h-7.51c-2.31,0-4.04,.58-5.2,1.73-1.15,1.15-1.73,2.89-1.73,5.2v61.2c0,5.77,.58,11.55,2.89,16.74,1.73,5.2,4.62,9.81,8.66,13.86,3.46,4.04,8.66,7.51,13.86,9.81,5.2,2.31,11.55,3.46,18.47,3.46s13.28-1.15,18.47-3.46c5.2-2.89,9.81-5.77,13.86-9.81,3.46-4.04,6.35-8.66,8.66-13.86,1.73-5.2,2.89-10.97,2.89-16.74V34.64c0-2.31-1.15-4.04-2.31-5.2Z"/><path class="cls-1" d="M264.99,137.4c-2.31,0-4.04,0-5.77-1.15-1.15-.58-2.31-2.31-3.46-5.2l-33.48-96.41c-.58-2.31-.58-3.46,0-4.62,1.15-1.15,2.89-1.73,4.62-1.73h9.24c4.62,0,6.93,1.73,8.08,5.77l23.09,72.74c.58,1.73,1.15,2.89,2.31,2.89s1.73-1.15,2.31-2.89l23.09-72.74c1.15-4.04,4.04-5.77,8.08-5.77h9.24c2.31,0,4.04,.58,4.62,1.73,1.15,1.15,1.15,2.89,0,5.2l-31.18,95.84c-.58,2.89-1.73,4.62-3.46,5.2-1.15,.58-3.46,1.15-5.77,1.15h-11.55Z"/><path class="cls-1" d="M348.7,136.82c-2.31,0-4.04-.58-5.2-1.73s-1.73-2.89-1.73-5.2V34.64c0-2.31,.58-4.04,1.73-5.2,1.15-1.15,2.89-1.73,5.2-1.73h7.51c2.31,0,4.04,.58,5.77,1.73,1.15,1.15,2.31,2.89,2.31,5.2v95.26c0,2.31-.58,4.04-2.31,5.2-1.15,1.15-3.46,1.73-5.77,1.73h-7.51Z"/><path class="cls-1" d="M512.08,138.56c-2.31,0-4.04-.58-5.2-1.73-1.15-1.15-1.73-2.89-1.73-5.2v-63.51c0-12.12,3.46-21.36,9.81-28.87,6.93-7.51,16.16-10.97,28.29-10.97h8.66c2.31,0,4.04,.58,5.77,1.73,1.15,1.15,2.31,2.89,2.31,5.2v6.35c0,2.31-.58,4.04-2.31,5.77-1.15,1.15-3.46,2.31-5.77,2.31h-7.51c-6.35,0-10.39,1.73-13.86,5.77-2.89,4.04-4.62,8.66-4.62,15.01v61.2c0,2.31-.58,4.04-2.31,5.2-1.15,1.15-3.46,1.73-5.77,1.73h-5.77Z"/><path class="cls-1" d="M82.56,0C36.95,0,0,36.95,0,82.56s36.95,82.56,82.56,82.56,82.56-36.95,82.56-82.56S128.16,0,82.56,0Zm54.85,82.56c0,30.6-24.82,54.85-54.85,54.85s-54.85-24.82-54.85-54.85c0-21.36,12.12-39.84,30.02-49.07l24.82,49.07,24.82-49.07c17.9,9.24,30.02,27.71,30.02,49.07Z"/></svg>