<?xml version="1.0" encoding="UTF-8"?><svg id="logo_Witrac" xmlns="http://www.w3.org/2000/svg" viewBox="0 0 560 77.47"><defs><style>.cls-1{fill:#004e70;}.cls-2{fill:#c7c6c6;}.cls-3{fill:#3a748e;}</style></defs><rect class="cls-1" x="156.11" y="0" width="9.82" height="76.06"/><polygon class="cls-1" points="257.92 0 257.92 7.99 236.45 7.99 236.45 76.07 226.64 76.07 226.64 7.99 205.17 7.99 205.17 0 257.92 0"/><path class="cls-1" d="M337.62,76.06l-19.86-31.07h-10.68v31.07h-9.82V0h25.02c8.64,0,15.11,2.07,19.42,6.2,4.32,4.14,6.47,9.63,6.47,16.46,0,6.19-1.72,11.17-5.17,14.95-3.46,3.78-8.45,6.13-15,7.07l20.71,31.39h-11.11Zm-30.54-38.19h14.35c11.15,0,16.72-4.89,16.72-14.68s-5.57-14.68-16.72-14.68h-14.35v29.35Z"/><path class="cls-1" d="M547.49,6.86c6.04,4.57,10.21,10.8,12.51,18.71h-10.36c-1.94-5.03-5.07-9.03-9.39-12.02-4.31-2.99-9.6-4.49-15.85-4.49-4.96,0-9.41,1.21-13.33,3.62-3.91,2.4-7,5.86-9.27,10.36-2.27,4.5-3.39,9.76-3.39,15.8s1.12,11.19,3.39,15.64c2.27,4.47,5.36,7.9,9.27,10.3,3.92,2.41,8.37,3.62,13.33,3.62,6.26,0,11.54-1.5,15.85-4.49,4.32-2.98,7.45-6.99,9.39-12.02h10.36c-2.3,7.91-6.47,14.14-12.51,18.71-6.05,4.57-13.71,6.85-22.98,6.85-7.12,0-13.42-1.63-18.88-4.9-5.46-3.28-9.73-7.84-12.78-13.71-3.06-5.86-4.59-12.53-4.59-20.02s1.53-14.27,4.59-20.17c3.05-5.9,7.32-10.48,12.78-13.76C511.09,1.64,517.39,0,524.51,0c9.27,0,16.93,2.28,22.98,6.85"/><path class="cls-1" d="M387.82,75.06l17.85-40.3c1.81-4.09,3.61-8.19,5.4-12.29,1.7-3.85,3.39-7.7,5.09-11.56,.59-1.33,1.82-2.13,3.29-2.13s2.7,.8,3.28,2.13l28.29,64.16h9.57L430.74,7.37C428.74,2.83,424.41,.01,419.45,.01s-9.31,2.82-11.3,7.36c-1.7,3.86-3.39,7.72-5.09,11.57l-.63,1.46c-1.59,3.61-3.17,7.21-4.77,10.82l-19.4,43.83h9.57Z"/><path class="cls-1" d="M79.81,0H39.9c6.66,15.09,13.3,30.18,19.96,45.29C66.52,30.19,73.16,15.1,79.81,0"/><path class="cls-2" d="M119.74,0h-39.93c-1.37,3.12-2.75,6.23-4.12,9.35-5.28,11.98-10.54,23.96-15.83,35.94,3.93,8.91,7.85,17.82,11.77,26.74,1.57,3.55,4.87,5.33,8.18,5.33s6.61-1.78,8.17-5.33C98.57,48.02,109.15,24.02,119.74,0"/><path class="cls-3" d="M39.91,0H0C10.59,24.02,21.17,48.02,31.76,72.03c1.56,3.55,4.87,5.33,8.17,5.33s6.61-1.78,8.18-5.33c3.92-8.92,7.83-17.83,11.75-26.74C53.21,30.19,46.56,15.1,39.91,0"/></svg>