<?xml version="1.0" encoding="UTF-8"?><svg id="logo_nixi1" xmlns="http://www.w3.org/2000/svg" viewBox="0 0 560 203.89"><defs><style>.cls-1{fill:#6411db;}.cls-2{fill:#4beaa2;}</style></defs><rect class="cls-1" x="166.51" y="75.3" width="34.29" height="128.59"/><rect class="cls-1" x="405.69" y="75.3" width="34.29" height="128.59"/><circle class="cls-2" cx="422.84" cy="23.27" r="23.27"/><circle class="cls-2" cx="184.02" cy="23.27" r="23.27"/><path class="cls-1" d="M474.27,203.89v-29.69h29.97V106.26h-29.64v-31.04s30.27-.1,42.3-.01c12.55,.09,21.07,8.6,21.12,21.19,.08,23.23-.03,46.47,0,69.71,0,2.39,0,8.09,0,8.09h21.99v29.69h-85.73Z"/><path class="cls-2" d="M368.6,75.73c0,49.76-29.5,80.22-65.89,80.22s-65.89-30.46-65.89-80.22l30.3-.04c0,30.85,15.9,49.74,35.52,49.74s35.52-18.89,35.52-49.74l30.45,.04Z"/><path class="cls-1" d="M236.82,203.85l30.3,.04c0-17.5,5.12-31.14,13.12-39.68l-26.86-15.71c-10.3,13.64-16.56,32.44-16.56,55.35Z"/><path class="cls-1" d="M368.6,203.85c0-22.91-6.26-41.71-16.56-55.35l-26.96,15.77c7.97,8.54,13.07,22.16,13.07,39.62l30.45-.04Z"/><path class="cls-1" d="M131.76,154.72c-.47-49.05-29.77-79.03-65.87-79.03S0,106.15,0,155.91v47.98H30.45v-47.94c0-30.85,15.9-49.74,35.52-49.74s35.52,18.89,35.52,49.74v47.94h30.3v-49.17h-.02Z"/></svg>