<?xml version="1.0" encoding="UTF-8"?><svg id="logo_FashionCloud" xmlns="http://www.w3.org/2000/svg" viewBox="0 0 560 57.25"><defs><style>.cls-1{fill:#1f2e33;}.cls-2{fill:#48b9b8;}</style></defs><path class="cls-2" d="M85.34,40.14c-1.95-1.86-4.59-2.88-7.33-2.84-.21,0-.43,0-.64,.02-2.42-4.72-7.44-7.8-13.02-7.75-1.08-.02-2.17,.1-3.24,.35-3.03-5.51-8.7-9.21-15.14-9.89v-3.09c-.12-.56-.4-1.06-.85-1.48l-4.09-3.45c-.66-.59-1.01-1.45-.93-2.34,.12-2.01,1.86-3.59,3.96-3.59s3.83,1.58,3.96,3.63c.12,1.1,1.07,1.93,2.2,1.93s2.08-.83,2.2-2.06c-.28-4.04-3.84-7.16-8.03-7.02v-.07c-2.15-.14-4.32,.63-5.9,2.08-1.59,1.46-2.5,3.51-2.49,5.61-.04,1.79,.68,3.55,2,4.83,.25,.22,2.7,2.25,3.56,2.96v2.05c-1.97,.22-3.9,.71-5.73,1.48-3.93,1.71-7.14,4.6-9.17,8.2-.79-.12-1.59-.16-2.39-.14-5.55-.02-10.56,3.13-12.92,7.91-.35-.03-.7-.04-1.05-.04-2.66-.04-5.3,.98-7.26,2.84C1.11,42.14,0,44.68,0,47.33c.07,5.3,4.33,9.61,9.76,9.92H78.75c2.62-.25,5.06-1.41,6.86-3.27,1.78-1.83,2.78-4.26,2.79-6.79,0-2.65-1.11-5.19-3.06-7.05Zm-3.65,10.26c-.88,.91-2.07,1.48-3.34,1.63H9.91c-2.45-.14-4.49-2.21-4.52-4.73,0-1.22,.53-2.42,1.45-3.3,.92-.88,2.18-1.37,3.47-1.35,.7,0,1.32,.09,1.92,.28l2.69,.87,.76-2.65c1.08-3.77,4.62-6.38,8.66-6.37,1.05-.02,2.03,.12,2.95,.43l2.42,.81,.95-2.3c1.36-3.31,4-5.97,7.35-7.43,1.84-.78,3.85-1.18,5.88-1.18,5.91,.02,11.19,3.6,13.23,8.97l1.03,2.69,2.67-1.24c1.09-.51,2.28-.76,3.49-.74,4.1-.03,7.66,2.53,8.79,6.27l.82,2.71,2.73-1.01c.44-.16,.9-.24,1.36-.24,1.36-.02,2.61,.46,3.54,1.35,.92,.88,1.45,2.08,1.45,3.33,0,1.19-.48,2.34-1.32,3.21Z"/><g><g><polygon class="cls-1" points="156.45 9.37 156.45 1.77 123.46 1.77 123.46 54.43 132.12 54.43 132.12 30.95 152.61 30.95 152.61 23.35 132.12 23.35 132.12 9.37 156.45 9.37"/><path class="cls-1" d="M190.74,31.3c0-5.17-1.27-9.21-3.79-12.05-2.77-2.94-6.71-4.51-10.72-4.29-5.39-.08-10.61,1.76-14.62,5.31l-.85,.75,3.26,4.95,1.11-.82c2.74-2.03,6.15-3.18,9.59-3.22,5.28,0,7.89,2.34,8.14,7.34h-4.3c-13.22,0-19.92,4.59-19.92,13.57-.18,3.41,1.15,6.74,3.72,9.16,2.55,2.2,5.79,3.39,9.1,3.39,.23,0,.47,0,.7-.02,4.18,.11,8.32-1.22,11.62-3.7l.58,2.75h6.46l-.09-23.13Zm-7.93,4.47v8.08c-.78,1.34-1.99,2.43-3.47,3.14-1.73,.93-3.69,1.42-5.72,1.43-1.8,.09-3.51-.53-4.78-1.65-1.17-1.14-1.79-2.72-1.7-4.39,0-1.63,0-6.6,12.08-6.6h3.59Z"/><path class="cls-1" d="M223.87,35.73c-2.86-2.23-6.25-3.84-9.82-4.67-2.13-.48-4.13-1.34-5.79-2.44-.83-.73-1.26-1.76-1.19-2.98-.05-1.02,.42-2.02,1.18-2.61,1.25-.83,2.78-1.24,4.38-1.16,2.92-.08,5.75,.64,8.3,1.92l1.09,.55,3.05-5.11-1.01-.7c-3.54-2.42-7.66-3.67-11.95-3.63-3.42-.14-6.81,.91-9.52,2.95-2.52,1.89-3.99,4.86-3.92,7.93,0,5.91,4.23,10.06,12.65,12.36,2.28,.44,4.43,1.29,6.27,2.44,.89,.69,1.38,1.75,1.32,2.92,0,2.12-.75,4.94-7.27,4.94-3.29,.07-6.63-.81-9.54-2.37l-1.01-.55-.67,.94c-.4,.55-.76,1.13-1.04,1.66l-1.45,2.39,1,.7c4,2.81,8.93,4.29,13.76,4.19,.21,0,.43,.01,.64,.01,3.45,0,6.82-1.11,9.57-3.18,2.68-2.07,4.21-5.3,4.1-8.49,.19-2.91-.9-5.79-3.11-7.99Z"/><path class="cls-1" d="M253.2,15.05c-3.72-.05-7.44,1.15-10.45,3.26V0l-8.09,4.09V54.43h8.09V26.07c.95-1.13,2.17-2.03,3.6-2.65,1.59-.78,3.37-1.21,5.14-1.24h.03c2.89,0,5.08,.73,6.53,2.17,1.61,1.6,2.42,4.21,2.42,7.75v22.34h8.01V31.78c0-10.94-5.28-16.73-15.26-16.73Z"/><g><path class="cls-1" d="M280.9,10.32s.07,0,.11,0c1.33,.04,2.55-.48,3.44-1.34,.98-.9,1.52-2.17,1.48-3.45,0-1.26-.54-2.48-1.45-3.3-1.81-1.79-5.13-1.75-6.86-.04-.94,.86-1.48,2.07-1.49,3.32-.03,1.28,.49,2.54,1.43,3.44,.9,.87,2.13,1.37,3.35,1.37Z"/><rect class="cls-1" x="276.94" y="15.92" width="8.01" height="38.51"/></g><path class="cls-1" d="M326.85,21.68c-3.39-3.97-8.38-6.41-13.69-6.68-5.31-.27-10.53,1.63-14.37,5.27-3.91,4.03-6,9.52-5.76,14.95-.14,4.88,1.5,9.68,4.64,13.54,3.35,3.92,8.28,6.32,13.52,6.59,.34,.02,.67,.03,1.01,.03,4.89,0,9.64-1.86,13.19-5.2,3.97-3.96,6.14-9.4,5.94-14.93,.14-4.85-1.43-9.65-4.48-13.57Zm-25.32,13.51c-.18-3.49,.89-6.96,3.01-9.77,1.74-2.24,4.49-3.56,7.44-3.56,.08,0,.16,0,.24,0,2.84-.07,5.54,1.18,7.29,3.31,2.32,2.84,3.49,6.4,3.3,10.15,.18,3.43-.89,6.84-2.96,9.56-1.82,2.17-4.51,3.45-7.4,3.53-2.87,.06-5.65-1.07-7.54-3.09-2.37-2.82-3.57-6.37-3.37-9.99v-.14Z"/><path class="cls-1" d="M357.72,14.97c-4.13-.14-8.14,1.21-11.35,3.66l-.35-2.71h-7.03V54.44h8.09V26.08c.98-1.14,2.23-2.06,3.67-2.69,1.62-.79,3.42-1.2,5.23-1.21h.03c2.81,0,4.95,.72,6.37,2.13,1.61,1.6,2.42,4.22,2.42,7.79v22.34h8.01V31.7c-.01-10.94-5.24-16.73-15.07-16.73Z"/></g><g><path class="cls-1" d="M427.95,45.77l-.46,.35c-3.16,2.42-7.14,3.69-11.17,3.6-4.44,.11-8.68-1.54-11.75-4.58-3.79-3.83-5.72-9.36-5.72-16.45,.01-6.6,1.48-11.92,4.39-15.82,2.76-4.05,7.38-6.4,12.44-6.24h.02c3.9,0,7.72,1.04,11.05,3.01l.42,.25,2.62-3.27-.45-.35c-4.09-3.12-9.19-4.76-14.37-4.62-6.13-.09-11.93,2.64-15.63,7.33-4.47,5.63-6.77,12.64-6.49,19.69-.28,6.38,1.71,12.74,5.58,17.91,3.89,5.13,10.04,8.14,16.55,8.14,.23,0,.46,0,.7-.01,5.33,.15,10.38-1.71,14.34-5.12l.38-.33-2.43-3.5Z"/><polygon class="cls-1" points="437.89 3.93 437.89 53.76 442.84 53.76 442.84 1.38 437.89 3.93"/><path class="cls-1" d="M480.92,22.26c-3.28-4.19-8.5-6.62-13.91-6.46-4.73-.19-9.34,1.6-12.65,4.91-3.74,3.89-5.76,9.17-5.54,14.44-.15,4.67,1.37,9.29,4.29,13.02,3.18,3.81,7.9,6.15,12.95,6.42,.32,.02,.64,.02,.96,.02,4.71,0,9.27-1.81,12.64-5.07,3.74-3.83,5.76-9.05,5.55-14.29,.11-4.65-1.41-9.27-4.28-13.01Zm-1.16,13.09c.11,3.55-.98,7.1-3.08,10.02-2.07,2.9-5.34,4.68-8.97,4.88-3.65,.21-7.1-1.19-9.5-3.82-2.72-3.09-4.12-7.02-3.94-11.12-.13-3.64,.91-7.16,3.01-10.18,2.1-3.09,5.6-4.9,9.4-4.9,.11,0,.22,0,.33,0h.03c3.43-.07,6.66,1.32,8.87,3.84,2.69,3.16,4.07,7.15,3.87,11.28Z"/><path class="cls-1" d="M516.11,16.75v28.2c-2.51,3.37-6.58,5.32-10.87,5.24-6.22,0-9.24-3.85-9.24-11.78V16.75h-4.95v22.04c-.17,3.92,1.03,7.83,3.37,11.02,2.2,3.08,5.79,4.9,9.64,4.9,.07,0,.14,0,.21,0,4.53,0,8.85-1.55,12.27-4.39l.28,3.44h4.25V16.75h-4.95Z"/><path class="cls-1" d="M555.05,3.93v15.72c-2.71-2.55-6.44-3.94-10.2-3.76-4.54-.11-8.98,1.59-12.16,4.74-3.8,3.68-5.72,8.71-5.72,14.93-.15,4.65,1.34,9.27,4.2,13.01,3.08,3.98,7.98,6.26,13.06,6.15,.29,.02,.58,.02,.87,.02,3.91,0,7.71-1.52,10.5-4.17l.62,3.2h3.79V1.38l-4.95,2.55Zm0,21.59v19.71c-2,3.36-5.3,4.97-9.99,4.89-3.27,.08-6.34-1.15-8.55-3.37-2.9-3.22-4.36-7.34-4.1-11.67-.16-3.79,1.07-7.54,3.47-10.54,2.17-2.7,5.55-4.3,9.09-4.3,2.16,0,4.29,.5,6.17,1.52,1.67,.85,3.02,2.15,3.91,3.76Z"/></g></g></svg>