<svg xmlns="http://www.w3.org/2000/svg" viewBox="0 0 1341.39 361.21"><defs><style>.cls-1{fill:#00275b;}</style></defs><g id="Capa_2" data-name="Capa 2"><g id="Capa_1-2" data-name="Capa 1"><path class="cls-1" d="M207.67,199q6.26,10.95,6.25,27,0,22.78-9.15,38.19A73.27,73.27,0,0,1,180.87,289a98,98,0,0,1-33.72,13.18,197.28,197.28,0,0,1-38.63,3.79,191.33,191.33,0,0,1-39.3-4,103.54,103.54,0,0,1-34.16-13.4,76.56,76.56,0,0,1-24.57-24.78Q.89,248.31,0,225.09H60.29q0,10.28,4.24,17.64a37.14,37.14,0,0,0,11,12.06,47,47,0,0,0,15.4,6.92A72.53,72.53,0,0,0,109,263.94,68,68,0,0,0,123,262.38a47.93,47.93,0,0,0,13.4-4.91,30.44,30.44,0,0,0,10-8.94q4-5.58,4-14.06,0-14.29-19-21.44T78.6,198.74q-13.84-3.12-27-7.37A92.33,92.33,0,0,1,28.13,180.2a54.16,54.16,0,0,1-16.52-17.41q-6.25-10.48-6.25-25.68,0-22.34,8.71-36.63a64.12,64.12,0,0,1,23-22.55A100.62,100.62,0,0,1,69.22,66.32,198.59,198.59,0,0,1,105.84,63a183,183,0,0,1,36.4,3.57A96.73,96.73,0,0,1,173.73,78.6a72.48,72.48,0,0,1,23,22.56q9.15,14.06,10.94,35.5H147.38q-1.35-18.3-13.85-24.79t-29.47-6.47a108.32,108.32,0,0,0-11.61.67A38.4,38.4,0,0,0,81.06,109a23.4,23.4,0,0,0-8.71,6.48c-2.39,2.83-3.57,6.63-3.57,11.39A17.34,17.34,0,0,0,75,140.68a48.1,48.1,0,0,0,16.3,8.71,204.91,204.91,0,0,0,23,6q12.94,2.69,26.35,5.8a272.68,272.68,0,0,1,27,7.59,89.09,89.09,0,0,1,23.44,11.84A57.26,57.26,0,0,1,207.67,199Zm241.16,79.72q1.79,14.29,6.25,21.44H390.77a90.77,90.77,0,0,1-2.9-10.94,92.62,92.62,0,0,1-1.56-11.39,82.64,82.64,0,0,1-35.73,21.88,143.37,143.37,0,0,1-42,6.25,113.43,113.43,0,0,1-30.82-4,70.54,70.54,0,0,1-25-12.5A58.09,58.09,0,0,1,236,268q-6-12.94-6-30.81,0-19.65,6.93-32.38a57.71,57.71,0,0,1,17.86-20.32,80,80,0,0,1,25-11.39,267.46,267.46,0,0,1,28.36-6q14.3-2.24,28.14-3.57a171.07,171.07,0,0,0,24.56-4q10.72-2.69,17-7.82t5.81-15q0-10.27-3.35-16.3a24.67,24.67,0,0,0-8.93-9.38,35.35,35.35,0,0,0-13-4.47,106.57,106.57,0,0,0-15.85-1.11q-18.75,0-29.48,8t-12.5,26.79H237.14q1.34-22.32,11.17-37.07a76,76,0,0,1,25-23.67,108.86,108.86,0,0,1,34.16-12.72A194.27,194.27,0,0,1,345.67,63,258.52,258.52,0,0,1,381,65.43a108.21,108.21,0,0,1,32.6,9.6A64.45,64.45,0,0,1,437.67,94.9Q447,107.64,447,128.62V248.76A241.44,241.44,0,0,0,448.83,278.68Zm-65.2-91.55a28.48,28.48,0,0,1-10.05,5.58,102.27,102.27,0,0,1-12.95,3.35q-6.93,1.33-14.52,2.23c-5.07.6-10.12,1.34-15.18,2.23a115.06,115.06,0,0,0-14.07,3.58,41.78,41.78,0,0,0-12.06,6,28.78,28.78,0,0,0-8.26,9.61q-3.14,5.81-3.13,14.74,0,8.47,3.13,14.29a23.91,23.91,0,0,0,8.48,9.15,35.65,35.65,0,0,0,12.51,4.69,79.16,79.16,0,0,0,14.74,1.34q18.75,0,29-6.25t15.18-15a48,48,0,0,0,6-17.64,122.38,122.38,0,0,0,1.12-14.29ZM565.39,0,463.56,111.65H502V247.87q0,17.42,5.8,28.13a41.36,41.36,0,0,0,15.86,16.53,65.85,65.85,0,0,0,23.22,7.81,185.09,185.09,0,0,0,27.91,2q9.39,0,19.21-.45a152.09,152.09,0,0,0,17.86-1.78V251a85.87,85.87,0,0,1-9.37,1.34c-3.28.3-6.7.45-10.28.45q-16.08,0-21.43-5.36T565.39,226V111.65h46.44V69.22H565.39Zm280,148.72a163,163,0,0,1,4.47,51.36H683.29q1.34,30.81,15.63,44.66T740,258.58q19.18,0,33-9.6t17-20.32h55.82q-13.4,41.54-41.09,59.4t-67,17.86q-27.24,0-49.12-8.71a102,102,0,0,1-37.07-24.78A111.48,111.48,0,0,1,628.13,234q-8.26-22.34-8.26-49.13a134.63,134.63,0,0,1,8.49-48.23,111.59,111.59,0,0,1,61.4-64.31q21.66-9.37,48-9.38,29.47,0,51.36,11.39a102.41,102.41,0,0,1,36,30.59A125.84,125.84,0,0,1,845.4,148.72Zm-58.95,11.16q-4.47-24.1-15.85-36.62T736,110.76q-15.18,0-25.23,5.13a48.24,48.24,0,0,0-16.08,12.73,46.79,46.79,0,0,0-8.48,16.08,72.18,72.18,0,0,0-2.9,15.18Zm233.8,86q-12.3,12.74-35.06,12.73-14.75,0-25-6.7a49.83,49.83,0,0,1-16.3-17.19,78.73,78.73,0,0,1-8.71-23.45,125.06,125.06,0,0,1-2.68-25.45,130.67,130.67,0,0,1,2.68-26.13,77.27,77.27,0,0,1,9.15-24.12,55.11,55.11,0,0,1,16.75-17.86q10.27-6.92,25.46-6.92,40.63,0,46.89,39.75h62.08q-1.34-22.33-10.72-38.64a87.4,87.4,0,0,0-24.34-27.24,105.61,105.61,0,0,0-33.94-16.3A144.92,144.92,0,0,0,987,63q-28.12,0-50,9.38a105.08,105.08,0,0,0-37.07,26.12,112,112,0,0,0-23,39.76A153.8,153.8,0,0,0,869.07,188q0,25.9,8.49,47.56a110.52,110.52,0,0,0,23.67,37.29,105.12,105.12,0,0,0,36.84,24.34q21.66,8.71,47.56,8.71,46,0,75.48-24.11t35.73-70.12h-61.19Q1032.53,233.13,1020.25,245.85Zm95,60.46v54.9h226.15v-54.9Z"/></g></g></svg>