<?xml version="1.0" encoding="UTF-8"?>
<svg id="Logo_ADDIX" xmlns="http://www.w3.org/2000/svg" viewBox="0 0 560 120.72">
  <defs>
    <style>
      .cls-1 {
        fill: #0085c0;
        fill-rule: evenodd;
      }
    </style>
  </defs>
  <polygon class="cls-1" points="462.61 .47 493.19 58.73 459.5 120.72 488.09 120.72 509.61 77.44 530.56 120.72 560 120.72 525.75 58.73 554.62 .47 530.56 .47 509.61 40.31 488.09 .47 462.61 .47 462.61 .47"/>
  <polygon class="cls-1" points="359.98 101.67 387.5 101.67 387.5 19.53 359.98 19.53 359.98 .47 437.85 .47 437.85 19.53 410.33 19.53 410.33 101.67 437.85 101.67 437.85 120.72 359.98 120.72 359.98 101.67 359.98 101.67"/>
  <path class="cls-1" d="M248.84,0h41.21c9.28,0,16.35,.76,21.24,2.3,6.56,2.08,12.17,5.79,16.83,11.13,4.68,5.31,8.24,11.83,10.68,19.53,2.42,7.72,3.64,17.22,3.64,28.54,0,9.92-1.14,18.49-3.43,25.68-2.78,8.76-6.76,15.87-11.96,21.3-3.9,4.13-9.18,7.33-15.83,9.64-4.97,1.71-11.62,2.55-19.97,2.55h-42.41V0m22.54,20.43V100.34h16.82c6.29,0,10.84-.37,13.65-1.15,3.64-.99,6.68-2.64,9.1-5,2.42-2.36,4.37-6.27,5.9-11.66,1.51-5.39,2.29-12.79,2.29-22.12s-.78-16.46-2.29-21.46c-1.53-5-3.67-8.91-6.39-11.69-2.76-2.81-6.24-4.69-10.45-5.67-3.14-.79-9.31-1.15-18.51-1.15h-10.11"/>
  <path class="cls-1" d="M128.13,0h41.21C178.62,0,185.7,.76,190.58,2.31c6.55,2.08,12.17,5.79,16.82,11.13,4.68,5.31,8.24,11.82,10.69,19.53,2.42,7.72,3.64,17.22,3.64,28.54,0,9.92-1.14,18.49-3.43,25.68-2.78,8.77-6.76,15.87-11.96,21.3-3.9,4.13-9.18,7.33-15.84,9.64-4.97,1.71-11.62,2.55-19.97,2.55h-42.41V0m22.54,20.43V100.34h16.82c6.29,0,10.84-.37,13.65-1.15,3.64-.99,6.68-2.64,9.1-5,2.42-2.36,4.37-6.27,5.9-11.66,1.51-5.39,2.29-12.78,2.29-22.11s-.78-16.46-2.29-21.46c-1.53-5-3.67-8.91-6.4-11.69-2.75-2.81-6.24-4.69-10.45-5.67-3.15-.79-9.31-1.15-18.51-1.15h-10.11"/>
  <path class="cls-1" d="M6.9,.47h57.5l38.44,120.25h-24.64l-8.21-23H28.91l-6.9,23H0L31.24,19.53H6.9V.47M49.29,29.71l15.11,48.3h-29.24l14.13-48.3"/>
</svg>