<?xml version="1.0" encoding="UTF-8"?><svg id="logo_Vm9" xmlns="http://www.w3.org/2000/svg" viewBox="0 0 560 130.92"><defs><style>.cls-1{fill:#0091be;}.cls-2{fill:#28375a;}</style></defs><g><path class="cls-2" d="M276.66,.97h20.71l-63.12,129.68h-14.07L156.54,1.06h21.25l49.22,100.65L276.66,.97Z"/><path class="cls-2" d="M356.81,130.92l-39.13-85.25v85.16h-18.59l.09-130.13h18.5l49.22,108.17L415.59,0h18.41V130.66h-18.41V45.68l-38.51,85.25h-20.27Z"/><path class="cls-2" d="M448.37,28.59c0-18.59,9.47-27.88,28.42-27.88h54.62c19.06,.18,28.59,9.41,28.59,27.71V103.04c0,18.47-9.29,27.71-27.88,27.71l-82.94,.09v-18.59h78.25c9.26-.12,13.93-4.6,13.99-13.46V33.2c-.12-9.21-4.57-13.84-13.37-13.9h-49.22c-7.67,.06-11.6,4.13-11.77,12.22v18.06c0,8.14,4.28,12.22,12.84,12.22h52.23v18.15h-55.68c-18.65,0-28-8.62-28.06-25.85V28.59Z"/></g><g><polygon class="cls-2" points="4.34 92.52 37.65 92.52 37.65 37.37 93.98 37.37 93.98 3.32 131.72 3.32 131.72 0 18.82 0 0 18.68 0 130.72 4.34 130.72 4.34 92.52"/><polygon class="cls-1" points="114.19 130.92 6.72 130.92 6.72 95.09 96.26 95.09 96.26 5.54 132.11 5.54 132.11 113 114.19 130.92"/></g></svg>