<?xml version="1.0" encoding="UTF-8"?><svg id="logo_JIG" xmlns="http://www.w3.org/2000/svg" viewBox="0 0 260 224"><defs><style>.cls-1{fill:#fff;}.cls-2{fill:#1b9de4;}</style></defs><path class="cls-2" d="M147.94,0C86.09,.06,36.02,50.25,36.08,112.1c0,.31,0,.61,0,.91h0v61.85c.05,29.92-35.41,48.77-36.09,49.13H146.72c.48,0,.95,.01,1.43,.01,61.84-.06,111.9-50.25,111.85-112.11C259.94,50.05,209.77-.06,147.94,0Z"/><g><path class="cls-1" d="M80.38,115.91c.02,1.11-.04,2.85-.04,2.86,0,4.94-3.87,8.94-8.66,8.94-2.64,0-5-1.23-6.59-3.16l-10.74,25.4c4.03,3.48,8.29,6.05,12.77,7.7,4.46,1.65,9.38,2.48,14.78,2.48,5.82,0,11.03-1.26,15.62-3.79,4.6-2.52,8.27-6.04,11.06-10.56,.76-1.3,1.4-2.61,1.96-3.91,.55-1.3,1-2.75,1.33-4.38,.32-1.59,.58-3.43,.75-5.47,.16-2.05,.25-4.37,.25-6.98v-58.57h-32.49v49.44Z"/><g><path class="cls-1" d="M138.68,113.08c0-11.99,4.12-23.05,11.03-31.69v-14.92h-33v93.65h33v-15.38c-6.9-8.61-11.03-19.64-11.03-31.66Z"/><path class="cls-1" d="M186.16,104.59v21.01h11.86c-2.86,2.57-6.58,4.12-10.65,4.12-9.08,0-16.46-7.73-16.46-17.25s6.86-16.66,15.5-17.2v-.04h13.96c9.06,0,8.76-8.01,8.76-8.01v-25.46s-3.24,4.69-8.42,4.69h-17.22c-1.16,.01-2.3,.1-3.43,.22-21.67,3.95-37.67,23.37-37.67,46.4,0,24.21,17.68,44.29,40.7,46.85,1.3,.12,2.61,.19,3.94,.19,23.13,0,42.2-17.85,45.15-40.88h0v-14.66h-46.03Z"/></g></g></svg>