<?xml version="1.0" encoding="UTF-8"?><svg id="logo_FIWOO" xmlns="http://www.w3.org/2000/svg" viewBox="0 0 560 116.8"><defs><style>.cls-1{fill:#e02e51;}.cls-2{fill:#597abc;}</style></defs><path class="cls-2" d="M67.97,.29c2.57,0,4.85,.86,6.85,2.86,1.71,2,2.86,4.28,2.86,6.85s-.86,4.85-2.86,6.57c-1.71,2-4,2.86-6.57,2.86h0l-48.83-.29v29.41H54.54c2.57,0,4.85,.86,6.85,2.86s2.86,4.28,2.86,6.85-.86,4.85-2.86,6.85c-2,1.71-4.28,2.86-6.85,2.86H19.13v38.84c0,2.57-.86,4.85-2.86,6.57-2,2-4.28,2.86-6.85,2.86s-4.85-.86-6.57-2.86c-2-1.71-2.86-4-2.86-6.57V9.99C0,7.42,.86,5.14,2.86,3.14,4.57,1.14,6.85,.29,9.42,.29h58.54Z"/><path class="cls-2" d="M108.8,115.94c-2.57,0-4.85-.86-6.57-2.86-2-1.71-2.86-4-2.86-6.57V9.99c0-2.57,.86-4.85,2.86-6.57,1.71-2,4-2.86,6.57-2.86s4.85,.86,6.57,2.86c2,1.71,2.86,4,2.86,6.57V106.52c0,2.57-.86,4.85-2.86,6.57-1.71,2-4,2.86-6.57,2.86Z"/><path class="cls-2" d="M289.28,1.14c2.57,.86,4.28,2.57,5.43,4.85,1.14,2.28,1.14,4.85,.29,7.14l-33.98,96.81h0c0,.29-.29,.86-.57,1.14l-.29,.29c-.29,.29-.57,.86-.86,1.14,0-.29,0,0-.29,.29l-.86,.86-.29,.29-.86,.86-.29,.29c-.29,.29-.57,.29-.86,.57h-.29c-.29,.29-.86,.29-1.14,.29s-.29,0,0,0c-.29,0-.57,.29-1.14,.29s-.57,0-.29,0c-.57,0-1.14,.29-1.43,.29s-.86,0-1.43-.29c.29,0,0,0-.29,0-.57,0-.86,0-1.14-.29h-.29c-.29,0-.57-.29-.86-.29h-.29c-.29-.29-.57-.29-.86-.57h0l-.86-.86-.29-.29-.86-.86-.29-.29c-.29-.29-.57-.57-.57-1.14,0,0,0-.29-.29-.29-.29-.57-.29-.86-.57-1.14h0l-24.84-71.11-24.84,71.11h0c-.29,.29-.29,.86-.57,1.14,0,0,0,.29-.29,.29-.29,.29-.57,.86-.57,1.14,0-.29,0,0-.29,.29l-.86,.86-.29,.29-.86,.86-.29,.29c-.29,.29-.57,.29-.86,.57h-.29c-.29,.29-.57,.29-.86,.29h-.29c-.29,0-.57,.29-1.14,.29-.29,0-.57,0-.29,0-.57,0-.86,.29-1.43,.29s-1.14,0-1.43-.29c.29,0,0,0-.29,0-.57,0-.86,0-1.14-.29,.29,0,0,0,0,0-.29,0-.57-.29-1.14-.29h-.29c-.29-.29-.57-.29-.86-.57h-.29l-.86-.86-.29-.29-.86-.86v-.29c-.29-.29-.57-.57-.86-1.14,0,0,0-.29-.29-.29-.29-.57-.29-.86-.57-1.14h0L141.07,13.42c-.86-2.57-.86-4.85,.29-7.14s2.86-4,5.43-4.85c2.57-.86,4.85-.86,7.14,.29s4,3.14,4.85,5.43l24.84,71.11L209.04,7.14h0s0-.29,.29-.57,.29-.57,.29-.29l.29-.29c.57-.86,.86-1.71,1.71-2.28,.57-.57,1.43-1.43,2.28-1.71,.29,0,.29-.29,.29-.29l.29-.29h.57q.29,0,.57-.29h4.28q.29,0,.57,.29h.29s.29,0,.57,.29h.29l.29,.29c.86,.57,1.71,.86,2.28,1.71,.57,.57,1.14,1.43,1.71,2.28l.29,.29,.29,.29c0,.29,.29,.57,.29,.57h0l24.84,71.11L276.43,7.14c.86-2.57,2.57-4.28,4.85-5.43S284.71,0,284.71,0c0,0,2,.29,4.57,1.14Z"/><path class="cls-2" d="M502.03,116.23c-15.99,0-29.7-5.71-41.12-17.13-11.42-11.42-17.13-24.84-17.13-41.12s5.71-29.7,17.13-41.12c11.42-11.42,24.84-16.85,41.12-16.85s29.7,5.71,41.12,16.85c11.42,11.42,16.85,25.13,16.85,41.12s-5.71,29.7-16.85,41.12c-11.42,11.71-25.13,17.13-41.12,17.13Zm0-96.81c-10.85,0-19.99,3.71-27.41,11.42-7.71,7.71-11.42,16.85-11.42,27.7s3.71,19.99,11.42,27.41c7.71,7.71,16.85,11.42,27.41,11.42s19.99-3.71,27.7-11.42c7.71-7.71,11.42-16.85,11.42-27.41s-3.71-19.99-11.42-27.7-17.13-11.42-27.7-11.42Z"/><g><path class="cls-1" d="M408.65,17.13c-2.57-2.57-2.28,2.28-5.14,.29,1.71,3.14-2.57-1.43-6.28,2.28-2.86,2.86-2.57,8-2.57,8,.57,.57-.29,2.57,.29,3.14,7.71,7.71,11.42,16.85,11.42,27.7s-3.71,19.99-11.42,27.41c-7.71,7.71-16.85,11.42-27.7,11.42s-19.99-3.71-27.41-11.42c-7.71-7.71-11.42-16.85-11.42-27.41s3.71-19.99,11.42-27.7c7.42-7.42,16.85-11.99,27.13-11.99l1.43-9.42,5.43-7.42c-2.57-.86-3.71-1.14-6.28-1.14-15.99,0-29.98,5.14-41.12,16.56-11.42,11.42-17.13,25.13-17.13,41.12s5.71,29.7,17.13,41.12c11.42,11.42,24.84,17.13,41.12,17.13s29.7-5.71,41.12-17.13c11.42-11.42,16.85-24.84,16.85-41.12s-5.43-29.98-16.85-41.41Z"/><ellipse class="cls-1" cx="400.99" cy="22.84" rx="9.71" ry="9.14" transform="translate(15.94 137.08) rotate(-19.78)"/><ellipse class="cls-1" cx="369.02" cy="9.74" rx="9.42" ry="9.14" transform="translate(18.49 125.48) rotate(-19.78)"/></g></svg>