<?xml version="1.0" encoding="UTF-8"?><svg id="logo_NEC" xmlns="http://www.w3.org/2000/svg" viewBox="0 0 560 149.32"><defs><style>.cls-1{fill:#004f9f;}</style></defs><path class="cls-1" d="M0,4.55H45c10.33,0,22.47,9.6,27.94,14.94l79.06,87.65V4.55h26.83V144.54h-47.03c-8.34-.2-16.62-2.01-26.23-11.41L26.72,45.28v99.27H0V4.55Z"/><path class="cls-1" d="M560,145.49c-32.21,4.44-64.68,4.84-97.36,2.1-19.11-1.6-37.77-5.61-54.96-14.53-21.59-11.2-28.45-36.43-28.2-59.31,.25-21.13,6.55-43.56,25.31-55.83,12.34-8.06,25.49-10.81,39.58-13.29,38.21-6.73,76.4-5.22,113.75-1.16V23.41c-44-8.49-90.4-6.38-106.22,13.82-9.83,12.54-11.18,25.05-11.18,35.59,0,18.99,6.44,47.73,44.95,53.36,25.21,3.7,50.04,.81,74.33-3.5v22.81Z"/><path class="cls-1" d="M284.62,123.67c3.83,.19,64.47,.38,85.28,0v20.99c-41.94,1.64-82.25,2.3-124.51,.55-35.9-1.48-42.09-19.56-42.82-36.89V4.55h165.31V24.5h-106.88V60.14h97.37v19.45h-97.37c-.04,10.52,.29,22.44,.36,24.59,.58,13.59,6.87,18.65,23.26,19.49"/></svg>