<?xml version="1.0" encoding="UTF-8"?><svg id="logo_FarmDog" xmlns="http://www.w3.org/2000/svg" viewBox="0 0 560 133.71"><path id="Path_122" d="M560,89.97c-2.14,2.07-4.63,3.74-7.36,4.93-4,1.69-8.32,2.48-12.65,2.32-7.06,.22-13.86-2.7-18.55-7.98-4.94-5.74-7.51-13.15-7.18-20.72v-.94c-.34-7.57,2.19-14.98,7.1-20.75,4.81-5.33,11.74-8.24,18.91-7.95,3.79-.08,7.55,.59,11.08,1.97,2.99,1.19,5.72,2.96,8.04,5.2v10.28h-5.37l-1.88-7.83c-1.39-1.1-2.95-1.97-4.62-2.57-2.08-.72-4.28-1.06-6.48-1.01-5.45-.3-10.72,2.03-14.15,6.28-3.47,4.7-5.22,10.46-4.96,16.3v1.01c-.28,5.86,1.41,11.65,4.81,16.43,3.12,4.14,8.08,6.48,13.26,6.27,2.56,.07,5.12-.26,7.59-.97,1.67-.51,3.27-1.23,4.75-2.14v-12.42l-9.31-.38v-5.64h16.98v20.3Z"/><path id="Path_121" d="M509.1,68.47c.27,7.5-2.27,14.83-7.11,20.56-4.57,5.38-11.34,8.39-18.39,8.18-6.89,.19-13.48-2.83-17.83-8.18-4.69-5.8-7.13-13.1-6.86-20.56v-.82c-.26-7.45,2.17-14.75,6.86-20.56,4.34-5.37,10.93-8.41,17.83-8.22,7.06-.21,13.83,2.82,18.39,8.22,4.83,5.74,7.36,13.06,7.11,20.56v.82Zm-7.67-.89c.25-5.75-1.41-11.43-4.73-16.14-3.06-4.13-7.97-6.47-13.1-6.25-4.97-.19-9.69,2.18-12.52,6.27-3.17,4.76-4.75,10.4-4.51,16.12v.89c-.26,5.75,1.32,11.43,4.51,16.22,2.83,4.08,7.55,6.44,12.52,6.25,5.15,.24,10.08-2.09,13.16-6.23,3.3-4.75,4.94-10.46,4.67-16.24v-.89Z"/><path id="Path_120" d="M427.1,39.7c6.64-.29,13.11,2.18,17.86,6.83,4.57,4.72,7.02,11.1,6.77,17.67v7.75c.26,6.57-2.18,12.95-6.77,17.67-4.76,4.63-11.22,7.09-17.86,6.79h-23.75v-4.89l6.34-1.09V45.75l-6.34-1.09v-4.95h23.75Zm-9.73,6.03v44.66h9.73c4.7,.23,9.26-1.67,12.4-5.18,3.12-3.7,4.74-8.44,4.54-13.28v-7.83c.19-4.81-1.43-9.52-4.54-13.2-3.14-3.51-7.7-5.41-12.4-5.18h-9.73Z"/><path id="Path_119" d="M364.76,51.01l-.19-.04-18.34,45.44h-5.1l-18.34-45.4-.19,.04,.78,22.93v16.43l6.34,1.09v4.89h-20.36v-4.89l6.34-1.09V45.75l-6.34-1.09v-4.95h16.16l18.06,46.06h.24l18.04-46.06h16.2v4.95l-6.37,1.09v44.66l6.34,1.09v4.89h-20.37v-4.89l6.35-1.09v-16.43l.74-22.96Z"/><path id="Path_118" d="M280.27,39.74c5.07-.34,10.1,1.12,14.21,4.1,3.37,2.9,5.2,7.21,4.95,11.65,.04,2.63-.76,5.2-2.29,7.33-1.69,2.25-3.97,3.99-6.58,5.02,2.76,.77,5.14,2.53,6.68,4.95,1.44,2.58,2.14,5.5,2.04,8.45v4.56c-.08,1.32,.15,2.64,.67,3.85,.43,.83,1.25,1.38,2.18,1.48l1.88,.23v5.02h-4.13c-2.54,.23-4.99-.97-6.37-3.11-1.31-2.3-1.96-4.91-1.88-7.55v-4.4c.13-2.74-.84-5.42-2.69-7.44-1.9-1.91-4.51-2.93-7.21-2.8h-12.31v19.31l6.35,1.09v4.9h-20.37v-4.9l6.34-1.09V45.72l-6.34-1.09v-4.89h24.87Zm-10.87,25.3h10.09c3.3,.28,6.6-.59,9.34-2.45,2.02-1.81,3.1-4.45,2.92-7.16,.13-2.66-.89-5.24-2.8-7.09-2.46-1.93-5.57-2.86-8.69-2.6h-10.87v19.31Z"/><path id="Path_117" d="M196.36,91.49l4.2-.59,19.82-51.2h6.58l19.47,51.2,4.17,.59v4.89h-16.28v-4.89l4.29-.75-3.74-10.44h-22.7l-3.86,10.44,4.29,.75v4.89h-16.24v-4.89Zm18.18-17.6h17.98l-8.8-24.34h-.24l-8.95,24.34Z"/><path id="Path_116" d="M159.05,91.49l6.34-1.09V45.75l-6.34-1.09v-4.95h43.81v13.63h-6.54l-.62-7.59h-22.63v19.54h21.92v6.03h-21.92v19.08l6.35,1.09v4.89h-20.37v-4.89Z"/><g><path d="M20.03,75.66c8.59-1.95,13.8-12.32,11.6-23.2-2.2-10.88-10.85-23.3-19.54-21.87C3.75,32.27-1.71,48.63,.49,59.5h0c2.18,10.88,10.95,18.12,19.54,16.17Z"/><path d="M31.17,29.07c2.21,10.9,10.96,18.14,19.58,16.2s13.79-12.32,11.58-23.21C60.12,11.17,50.48-1.77,42.78,.2c-7.33,1.75-13.8,18.01-11.6,28.87h-.01Z"/><path d="M121.61,30.59c-8.69-1.43-17.34,10.99-19.54,21.87s3.01,21.24,11.6,23.2c8.59,1.95,17.36-5.29,19.54-16.16h0c2.2-10.87-3.26-27.23-11.6-28.91Z"/><path d="M82.95,45.27c8.61,1.94,17.37-5.3,19.58-16.2h-.01c2.2-10.87-4.27-27.13-11.6-28.87-7.7-1.97-17.34,10.98-19.54,21.86-2.21,10.89,2.97,21.27,11.58,23.21Z"/><path d="M97.88,72.12c-5.69-8.66-10.44-16.26-19.76-21.57v.02c-3.22-1.96-6.88-3.09-10.65-3.28-10.87-.21-20.2,7.13-26.46,16.39-3.8,6.04-7.94,11.86-12.4,17.43-5.5,5.55-9.92,12.07-13.03,19.23-7.28,20.81,11.87,32.61,29.47,33.21,12.97,.45,26.27-.18,39.28-.03,4.84,.14,9.67-.37,14.37-1.53,11.09-2.91,20.68-11.03,20.62-23.39-.25-5.78-2.14-11.36-5.45-16.1-4.7-7.28-11.22-13.14-15.98-20.39Zm12.91,42.54c-.68,1.53-1.64,2.85-2.78,4-5.77-7.53-11.75-14.9-17.97-21.87-2.42-1.16-5.09-1.69-7.76-1.56,5.92,9.22,11.54,18.8,16.92,28.47-1.52,.49-3.08,.88-4.64,1.19-1.26,.25-2.53,.42-3.8,.55-4.37-10.36-9-20.66-13.82-30.74-2.64-.84-5.44-1.02-8.16-.52,1.04,10.34,2.01,20.69,2.95,31.04-1.19-.05-2.38-.08-3.56-.1-2.21-.03-4.42,.05-6.64,.16,.94-10.37,1.91-20.74,2.95-31.1-2.7-.5-5.49-.32-8.1,.52-4.84,10.1-9.42,20.43-13.79,30.81-.35-.04-.71-.07-1.06-.12-2.45-.24-4.86-.78-7.17-1.6,5.4-9.71,11.04-19.32,16.98-28.57-2.68-.13-5.34,.4-7.76,1.56-6.24,6.99-12.17,14.37-17.95,21.93-1.29-1.29-2.24-2.68-2.89-4.14,4.94-5.78,10.02-11.41,15.26-16.76-2.94,.23-5.78,1.11-8.34,2.57-2.73,2.34-5.38,4.76-8.02,7.23,.31-3.63,1.79-7.35,3.94-10.72,3.45-5.42,7.77-10.33,11.72-15.37,3.95-5.03,7.37-11.11,11.08-16.31,5.89-8.28,15.45-16.64,26.19-10.44,7.89,4.43,14.12,15.2,19,22.68,4.94,7.57,10.04,12.44,14.71,20.17,1.94,2.88,3.13,6.18,3.53,9.6-2.52-2.34-5.06-4.63-7.65-6.84-2.68-1.47-5.64-2.35-8.69-2.57,5.26,5.38,10.37,11.03,15.33,16.84Z"/></g></svg>