<?xml version="1.0" encoding="UTF-8"?><svg id="logo_DigitAnimal" xmlns="http://www.w3.org/2000/svg" viewBox="0 0 210.02 48.41"><defs><style>.cls-1{fill:#fff;}.cls-2{fill:#90b823;}.cls-3{fill:#1d1d1b;}</style></defs><path class="cls-3" d="M38,19C38,8.51,29.5,0,19,0S0,8.51,0,19c0,.11,.01,.22,.01,.33s-.01,.22-.01,.33c0,5.27,2.02,9.3,5.29,12.82l13.7,15.91,13.71-15.91c3.27-3.53,5.29-7.55,5.29-12.82,0-.11-.01-.23-.01-.33s.01-.22,.01-.33"/><path class="cls-1" d="M19.02,17.5c-.7,0-1.36,.14-1.98,.41-.62,.27-1.17,.64-1.64,1.11-.47,.47-.84,1.02-1.12,1.64-.27,.62-.41,1.27-.41,1.93s.14,1.35,.41,1.97c.28,.62,.65,1.16,1.12,1.61,.47,.45,1.01,.82,1.64,1.09,.62,.27,1.28,.41,1.98,.41s1.3-.13,1.91-.41c.6-.28,1.14-.64,1.61-1.11,.47-.47,.84-1.01,1.11-1.61,.28-.61,.41-1.26,.41-1.95,0-.73-.13-1.4-.41-2.03-.27-.62-.64-1.16-1.11-1.61-.47-.46-1.01-.81-1.61-1.07-.61-.25-1.24-.39-1.91-.39M27.07,4.64c.79,0,1.48,.28,2.07,.84,.59,.56,.89,1.28,.89,2.16v14.96c0,1.48-.3,2.89-.89,4.22-.59,1.33-1.39,2.5-2.41,3.5-1.02,1-2.19,1.8-3.52,2.39-1.33,.59-2.72,.88-4.18,.88s-2.85-.29-4.18-.86c-1.34-.57-2.51-1.36-3.52-2.36-1.02-1-1.83-2.17-2.43-3.5-.6-1.34-.91-2.76-.91-4.27s.29-2.89,.89-4.23c.59-1.33,1.39-2.5,2.41-3.5,1.01-1,2.19-1.79,3.52-2.38,1.33-.59,2.74-.89,4.23-.89,1.82,0,3.5,.41,5.04,1.23V7.6c0-.39,.09-.78,.25-1.14,.17-.36,.39-.68,.66-.95,.27-.27,.59-.49,.96-.64,.36-.16,.74-.23,1.13-.23"/><path class="cls-3" d="M60.43,25.27c-.21,.46-.49,.87-.85,1.23-.36,.36-.77,.64-1.23,.85-.46,.21-.95,.31-1.46,.31s-1.03-.1-1.5-.31c-.47-.21-.89-.48-1.25-.83-.36-.35-.64-.76-.85-1.23-.21-.47-.31-.97-.31-1.5s.1-1,.31-1.47c.21-.47,.49-.89,.85-1.24,.36-.36,.77-.64,1.25-.84,.47-.21,.97-.31,1.5-.31s.99,.1,1.46,.29c.46,.2,.87,.47,1.23,.81,.36,.35,.64,.75,.85,1.23,.21,.47,.31,.98,.31,1.54s-.1,1.03-.31,1.49m4.17-14.51c-.45-.43-.97-.64-1.57-.64-.3,0-.59,.06-.86,.17-.28,.12-.52,.28-.72,.48-.21,.21-.38,.45-.5,.73-.13,.27-.19,.57-.19,.86v3.98c-1.18-.62-2.46-.93-3.84-.93-1.13,0-2.2,.22-3.21,.67-1.01,.45-1.91,1.06-2.68,1.82-.77,.76-1.38,1.65-1.83,2.66-.45,1.02-.67,2.09-.67,3.22s.23,2.24,.69,3.25c.46,1.02,1.08,1.9,1.85,2.66,.78,.76,1.67,1.36,2.68,1.8,1.02,.44,2.07,.66,3.18,.66s2.17-.23,3.18-.67c1.01-.45,1.91-1.05,2.68-1.82,.77-.76,1.38-1.65,1.83-2.66,.45-1.02,.67-2.08,.67-3.21V12.4c0-.67-.22-1.22-.67-1.65"/><path class="cls-3" d="M69.67,15.41c.6,0,1.1,.22,1.5,.66,.4,.44,.63,.97,.68,1.59v12.24c0,.62-.2,1.14-.59,1.55-.39,.41-.92,.65-1.59,.69-.6,0-1.11-.18-1.52-.55-.41-.37-.67-.89-.76-1.56v-12.52c.04-.6,.29-1.09,.72-1.49,.44-.39,.96-.6,1.56-.62"/><path class="cls-3" d="M95.09,15.41c.6,0,1.1,.22,1.5,.66,.4,.44,.63,.97,.67,1.59v12.24c0,.62-.2,1.14-.59,1.55-.39,.41-.92,.65-1.59,.69-.6,0-1.11-.18-1.52-.55-.42-.37-.67-.89-.76-1.56v-12.52c.04-.6,.28-1.09,.72-1.49,.44-.39,.96-.6,1.56-.62"/><path class="cls-3" d="M101.73,10.05c.65,0,1.19,.22,1.63,.67,.44,.45,.68,1.01,.73,1.68v3h5.95c.67,0,1.21,.23,1.63,.69,.41,.46,.62,1,.62,1.63s-.23,1.14-.69,1.6c-.46,.47-.98,.71-1.55,.71h-5.95v3.57c0,.53,.1,1.03,.29,1.5,.2,.47,.47,.89,.81,1.26,.35,.37,.76,.66,1.23,.86,.47,.21,.99,.31,1.54,.31,.6,0,1.11-.08,1.54-.24,.43-.16,.8-.4,1.12-.73,.49-.41,1.02-.63,1.61-.64,.59,0,1.14,.22,1.64,.67,.23,.21,.4,.44,.52,.71,.12,.26,.18,.54,.19,.83,.01,.29-.03,.57-.12,.85-.09,.28-.24,.52-.45,.72-.81,.79-1.69,1.38-2.66,1.8-.97,.42-2.01,.62-3.11,.62-1.2,0-2.33-.2-3.39-.61-1.06-.4-2-.98-2.8-1.73-.81-.75-1.45-1.65-1.92-2.7-.47-1.05-.72-2.22-.74-3.51V12.23c0-.62,.24-1.14,.71-1.56,.47-.42,1.02-.62,1.64-.62"/><path class="cls-2" d="M128.11,25.32c-.21,.47-.48,.88-.83,1.23-.35,.34-.76,.62-1.23,.81-.47,.19-.97,.29-1.5,.29-.48,0-.96-.1-1.42-.31-.46-.21-.87-.48-1.23-.83-.36-.35-.65-.76-.87-1.23-.22-.47-.32-.97-.32-1.5s.1-1,.31-1.47c.21-.47,.49-.89,.85-1.24,.36-.36,.77-.64,1.23-.85,.46-.21,.95-.31,1.46-.31s.99,.1,1.47,.31c.47,.21,.88,.49,1.24,.85,.36,.36,.64,.77,.85,1.24,.21,.48,.31,.97,.31,1.47,0,.55-.1,1.07-.31,1.54m4.27-4.56c-.38-.96-.9-1.81-1.56-2.56-.66-.75-1.44-1.36-2.35-1.85-.91-.48-1.88-.78-2.92-.9-.16-.02-.32-.03-.47-.03h-.51c-1.73,0-3.27,.46-4.63,1.39-1.36,.92-2.38,2.13-3.04,3.63-.23,.53-.41,1.07-.54,1.63-.13,.55-.19,1.13-.19,1.73s.06,1.18,.19,1.73c.13,.55,.31,1.1,.54,1.62,.67,1.48,1.68,2.68,3.04,3.62,1.36,.93,2.9,1.4,4.63,1.4,.67,0,1.31-.07,1.9-.21,.58-.14,1.14-.33,1.7-.59,.09-.05,.18-.1,.28-.16,.09-.06,.2-.11,.31-.16,.48,.74,1.13,1.11,1.93,1.11,.58,0,1.1-.22,1.56-.66,.46-.44,.69-.97,.69-1.59v-6.12c0-1.06-.19-2.07-.57-3.03"/><path class="cls-2" d="M143.46,15.41c1.1,0,2.16,.2,3.18,.61,1.01,.4,1.9,.97,2.66,1.7,.76,.73,1.37,1.58,1.83,2.58,.46,.99,.69,2.06,.69,3.22v6.4c0,.6-.22,1.12-.64,1.55-.43,.44-.95,.67-1.57,.69-.62,0-1.16-.2-1.61-.61-.45-.4-.67-.92-.67-1.54v-6.22c0-.53-.1-1.03-.3-1.51-.2-.47-.47-.88-.83-1.23-.36-.34-.77-.62-1.24-.83-.47-.21-.99-.31-1.54-.31-.51,0-.99,.1-1.45,.29-.46,.2-.87,.46-1.21,.78-.35,.32-.62,.71-.83,1.17-.21,.46-.31,.94-.31,1.45v6.3c0,.6-.23,1.12-.69,1.57-.46,.45-.99,.68-1.59,.68s-1.13-.21-1.59-.62c-.46-.41-.69-.92-.69-1.52v-6.22c.02-1.15,.25-2.24,.68-3.25,.43-1.01,1.01-1.9,1.76-2.66,.75-.76,1.63-1.36,2.65-1.8,1.02-.44,2.12-.66,3.32-.66"/><path class="cls-2" d="M156.22,15.41c.6,0,1.1,.22,1.51,.66,.4,.44,.63,.97,.68,1.59v12.24c0,.62-.2,1.14-.59,1.55-.39,.42-.92,.65-1.59,.69-.6,0-1.11-.19-1.52-.55-.41-.37-.67-.89-.76-1.56v-12.52c.05-.6,.29-1.1,.73-1.49,.44-.39,.96-.6,1.56-.62"/><path class="cls-2" d="M166.67,15.41c.69,0,1.37,.11,2.02,.33,.66,.22,1.26,.56,1.81,1.02,1.11-.9,2.4-1.35,3.87-1.35,.81,0,1.59,.16,2.34,.47,.75,.31,1.41,.74,1.97,1.26,.56,.53,1.01,1.16,1.35,1.9,.34,.74,.5,1.52,.5,2.35v8.68c0,.55-.23,1.04-.69,1.45-.46,.42-.99,.62-1.59,.62s-1.13-.23-1.57-.68c-.45-.45-.68-.98-.68-1.57v-8.41c0-.44-.16-.81-.47-1.11-.31-.3-.7-.45-1.16-.45-.39,0-.76,.13-1.09,.4-.34,.27-.5,.65-.5,1.16v8.41c0,.62-.22,1.15-.68,1.59-.45,.44-.98,.66-1.61,.66-.58,0-1.09-.2-1.56-.61-.46-.4-.69-.89-.69-1.47v-8.58c-.02-.46-.2-.84-.52-1.12-.32-.29-.68-.43-1.07-.43-.44,0-.81,.15-1.12,.45-.31,.3-.48,.68-.5,1.14v8.58c-.04,.55-.28,1.03-.71,1.43-.42,.4-.94,.61-1.54,.61-.32,0-.62-.06-.9-.18-.28-.11-.52-.28-.72-.48-.21-.21-.38-.45-.5-.72-.13-.28-.18-.57-.16-.86v-8.51c0-.81,.16-1.57,.48-2.3,.32-.73,.76-1.36,1.31-1.9,.55-.54,1.21-.97,1.96-1.3,.75-.32,1.55-.48,2.4-.48"/><path class="cls-2" d="M194.62,25.32c-.21,.47-.48,.88-.83,1.23-.35,.34-.76,.62-1.23,.81-.47,.19-.98,.29-1.51,.29-.48,0-.96-.1-1.42-.31-.46-.21-.87-.48-1.23-.83-.36-.35-.65-.76-.86-1.23-.22-.47-.33-.97-.33-1.5s.1-1,.31-1.47c.21-.47,.49-.89,.85-1.24,.36-.36,.77-.64,1.23-.85,.46-.21,.94-.31,1.45-.31s1,.1,1.47,.31c.47,.21,.89,.49,1.24,.85,.36,.36,.64,.77,.85,1.24,.21,.48,.31,.97,.31,1.47,0,.55-.1,1.07-.31,1.54m4.27-4.56c-.38-.96-.9-1.81-1.56-2.56-.66-.75-1.44-1.36-2.35-1.85-.91-.48-1.88-.78-2.92-.9-.16-.02-.32-.03-.47-.03h-.5c-1.73,0-3.27,.46-4.64,1.39-1.36,.92-2.37,2.13-3.04,3.63-.23,.53-.41,1.07-.53,1.63-.13,.55-.19,1.13-.19,1.73s.06,1.18,.19,1.73c.13,.55,.31,1.1,.53,1.62,.67,1.48,1.68,2.68,3.04,3.62,1.36,.93,2.91,1.4,4.64,1.4,.67,0,1.3-.07,1.9-.21,.57-.14,1.14-.33,1.69-.59,.09-.05,.19-.1,.28-.16,.09-.06,.19-.11,.31-.16,.49,.74,1.13,1.11,1.94,1.11,.58,0,1.1-.22,1.56-.66,.46-.44,.69-.97,.69-1.59v-6.12c0-1.06-.19-2.07-.57-3.03"/><path class="cls-2" d="M203.87,10.12c.62,0,1.15,.22,1.57,.66,.43,.44,.66,.98,.71,1.63v13.66c0,.46,.15,.85,.45,1.17,.3,.32,.68,.48,1.14,.48,.6,0,1.12,.21,1.57,.62,.45,.41,.69,.93,.71,1.56,0,.55-.19,1.04-.57,1.47-.38,.43-.87,.68-1.47,.78h-.48c-.81,0-1.57-.17-2.28-.51-.72-.33-1.35-.77-1.89-1.33-.54-.55-.97-1.2-1.28-1.94-.31-.74-.47-1.51-.47-2.32V12.26c.07-.58,.31-1.07,.73-1.49,.41-.41,.93-.63,1.56-.66"/><path class="cls-3" d="M85.03,26.58c-.36,.35-.77,.62-1.24,.81-.47,.2-.96,.29-1.47,.29-.55,0-1.06-.1-1.52-.31-.46-.21-.86-.49-1.21-.85-.35-.36-.62-.77-.81-1.24-.2-.47-.29-.97-.29-1.5s.1-1.03,.31-1.51c.21-.47,.49-.88,.83-1.23,.35-.34,.75-.62,1.21-.81,.46-.2,.96-.29,1.49-.29s1.07,.1,1.54,.31c.47,.21,.88,.48,1.23,.83,.34,.35,.61,.75,.81,1.21,.2,.46,.29,.96,.29,1.49,0,.58-.1,1.1-.31,1.57s-.49,.88-.85,1.22m5.69-2.8c0-1.13-.23-2.2-.68-3.22-.45-1.01-1.05-1.9-1.81-2.66-.76-.76-1.65-1.37-2.66-1.81-1.02-.45-2.1-.68-3.25-.68s-2.2,.22-3.22,.66c-1.01,.44-1.9,1.04-2.66,1.8-.76,.76-1.36,1.65-1.81,2.66-.45,1.01-.68,2.1-.68,3.25s.21,2.24,.64,3.25c.43,1.02,1.02,1.9,1.77,2.66,.75,.76,1.64,1.36,2.66,1.8,1.03,.44,2.13,.66,3.3,.66,1.43,0,2.72-.29,3.87-.86v1.09c0,2.02-1.19,3.08-3.45,3.08-1.48,0-2.56-.63-3.51-1.32-.48-.32-.82-.49-1.33-.49-1.11,0-2.05,.94-2.05,2.05,0,.65,.31,1.09,.44,1.25,1.31,1.59,3.6,2.46,6.45,2.46,5.2,0,7.89-2.61,7.97-7.72,0-.03,0-.06,0-.1v-3.2h0v-4.62Z"/></svg>