<?xml version="1.0" encoding="UTF-8"?><svg id="Livello_1" xmlns="http://www.w3.org/2000/svg" viewBox="0 0 560 157.3"><defs><style>.cls-1{fill:#219ab3;}</style></defs><circle class="cls-1" cx="162.22" cy="50.6" r="15.8"/><circle class="cls-1" cx="162.22" cy="15.8" r="15.8"/><path class="cls-1" d="M543.63,77.83c.05-.21,.11-.32,.11-.43,.01-.32,0-.63,0-.95,0-9.16,0-18.32,0-27.48,0-.41,.01-.81,.02-1.2,.36-.26,.72-.19,1.06-.19,2.08,0,4.17,0,6.25,0,2.59,0,5.18,0,7.77,0,.34,0,.68,.03,1.06,.05,.04,.28,.07,.49,.08,.71,.01,.22,0,.44,0,.66,0,27.29,0,54.58,0,81.87,0,.43-.03,.87-.05,1.34-.28,.04-.5,.09-.71,.09-4.52,0-9.03,0-13.55,0-.22,0-.43-.04-.63-.06-.27-.34-.18-.7-.18-1.04,0-2.18,0-4.36,0-6.54,0-.31-.02-.62-.04-1.08-.26,.23-.44,.34-.56,.5-.72,.92-1.48,1.8-2.29,2.64-2.42,2.49-5.3,4.29-8.52,5.5-2.43,.91-4.95,1.41-7.59,1.42-3.21,.01-6.27-.54-9.23-1.77-2.02-.85-3.88-1.99-5.56-3.38-1.14-.95-2.25-1.95-3.24-3.05-1.41-1.57-2.63-3.31-3.62-5.19-1.71-3.24-2.79-6.68-3.39-10.29-.27-1.65-.4-3.31-.56-4.98-.17-1.77-.14-3.53-.11-5.3,.02-1.38,.21-2.76,.28-4.15,.08-1.42,.35-2.82,.6-4.21,.49-2.65,1.29-5.2,2.44-7.64,.97-2.08,2.23-3.96,3.7-5.7,1.23-1.46,2.64-2.72,4.17-3.84,1.97-1.44,4.12-2.57,6.46-3.31,1.75-.56,3.54-.9,5.36-1.1,1.13-.12,2.27-.16,3.4-.12,2.73,.08,5.38,.59,7.92,1.65,2.96,1.23,5.51,3.05,7.77,5.3,.42,.41,.79,.88,1.35,1.26Zm-26.85,23.05h-.12c.09,1.64,.17,3.28,.27,4.91,.1,1.64,.39,3.26,.8,4.85,.45,1.75,1.12,3.4,2.23,4.87,2.16,2.87,4.88,4.8,8.51,5.3,2.58,.36,5.04,.03,7.34-1.21,2.82-1.52,4.83-3.81,6.14-6.73,1.27-2.84,1.77-5.86,1.91-8.92,.08-1.82,.08-3.65-.08-5.49-.16-1.8-.38-3.57-.78-5.33-.51-2.24-1.36-4.34-2.74-6.19-1.42-1.92-3.22-3.37-5.47-4.21-1.5-.56-3.05-.72-4.65-.73-2.28-.01-4.37,.53-6.3,1.72-2.21,1.36-3.86,3.25-5.04,5.53-1.3,2.5-1.81,5.24-2,8.02-.08,1.19-.01,2.4-.01,3.6Z"/><path class="cls-1" d="M318.64,70.99c1.11-.15,16.42-.12,17.23,.02,.1,.28,.23,.6,.34,.92,.98,2.93,1.96,5.87,2.94,8.8,2.5,7.45,5,14.9,7.5,22.35,1.16,3.44,2.32,6.88,3.48,10.32,.1,.29,.17,.59,.37,.85,.43-.61,1.81-4.7,3.71-10.75,1.14-3.64,2.37-7.26,3.56-10.89,1.18-3.6,2.37-7.19,3.55-10.79,1.18-3.6,2.35-7.2,3.54-10.84,.27-.03,.52-.08,.76-.08,5.05,0,10.11,0,15.16,0,.25,0,.49,.04,.79,.07-.04,.23-.05,.42-.11,.59-1.13,3.08-2.26,6.16-3.39,9.24-1.14,3.11-2.28,6.22-3.42,9.33-1.38,3.76-2.76,7.52-4.14,11.29-1.12,3.05-2.24,6.1-3.36,9.15-1.38,3.76-2.76,7.52-4.14,11.29-1.44,3.94-2.88,7.89-4.33,11.82-1.13,3.05-2.23,6.11-3.43,9.13-.94,2.38-2.11,4.65-3.63,6.73-2.2,3.02-5.08,5.06-8.61,6.21-2.25,.73-4.56,1.23-6.93,1.42-1.64,.13-3.28,.17-4.92,.09-2.39-.12-4.77-.41-7.08-1-.04-.04-.06-.06-.08-.09-.02-.02-.05-.05-.05-.08-.46-4.01-.92-8.01-1.37-12.02,0-.06,.02-.12,.04-.18,0-.03,.04-.05,.07-.09,.25-.17,.54-.08,.8-.02,2.36,.48,4.76,.63,7.16,.51,2.57-.13,4.91-.91,6.72-2.82,.65-.68,1.2-1.47,1.7-2.27,1.19-1.88,2.04-3.92,2.68-6.04,.15-.48,.11-.92-.07-1.38-1.03-2.68-2.05-5.37-3.06-8.05-1.52-4.01-3.04-8.03-4.56-12.04-1.48-3.89-2.96-7.79-4.44-11.68-1.53-4.01-3.05-8.02-4.58-12.04-2-5.25-3.99-10.5-5.99-15.75-.14-.38-.27-.77-.43-1.22Z"/><path class="cls-1" d="M403.86,89.62c-4.8-.86-9.48-1.7-14.17-2.55-.12-.02-.23-.1-.41-.18,.05-.24,.07-.48,.14-.71,.98-3.34,2.49-6.4,4.74-9.08,2.5-2.97,5.67-4.87,9.36-5.97,1.97-.59,3.98-.95,6.02-1.19,2.32-.27,4.65-.34,6.98-.33,2.59,0,5.16,.18,7.73,.51,2.04,.26,4.05,.66,5.98,1.35,2.81,1.01,5.3,2.53,7.33,4.73,1.31,1.41,2.23,3.06,2.76,4.91,.57,1.97,.84,4,1.04,6.05,.2,2.05,.16,4.1,.16,6.15,0,7.77-.03,15.54-.04,23.31,0,.82,0,1.64,.05,2.46,.22,4.24,1.19,8.29,3.02,12.13,.14,.28,.25,.58,.38,.87,.01,.02,0,.06-.01,.09-.02,.02-.03,.05-.05,.07-.02,.02-.05,.04-.08,.04-.19,.01-.38,.03-.57,.03-4.96,0-9.92-.01-14.87-.02-.09,0-.18-.05-.34-.09-.11-.29-.25-.6-.35-.93-.45-1.48-.89-2.96-1.35-4.44-.11-.36-.16-.74-.47-1.07-.64,.55-1.25,1.09-1.87,1.61-3.42,2.86-7.26,4.91-11.66,5.8-1.51,.31-3.05,.52-4.6,.48-.88-.02-1.77,.03-2.65-.01-3.97-.21-7.75-1.11-11.07-3.41-2.31-1.6-4.22-3.62-5.54-6.12-.88-1.68-1.46-3.48-1.75-5.38-.27-1.76-.27-3.54-.09-5.29,.21-2.14,.76-4.22,1.89-6.1,.5-.84,1-1.68,1.57-2.48,1.23-1.72,2.82-3.04,4.66-4.09,2.35-1.33,4.89-2.18,7.48-2.92,2.88-.83,5.83-1.37,8.77-1.94,3.84-.75,7.66-1.57,11.4-2.74,.63-.2,1.25-.45,1.86-.69,.11-.04,.21-.14,.37-.25,0-.89,.05-1.8-.01-2.71-.05-.72-.2-1.43-.35-2.14-.24-1.13-.73-2.14-1.52-3-.56-.62-1.23-1.07-2.01-1.38-1.67-.65-3.41-.91-5.18-.96-1.04-.03-2.09-.04-3.13,0-1.81,.08-3.56,.44-5.15,1.38-1.15,.68-2,1.63-2.69,2.74-.45,.72-.79,1.5-1.17,2.27-.18,.36-.33,.74-.53,1.2Zm21.71,13.3c-.41,.09-.68,.15-.95,.21-3.24,.81-6.48,1.63-9.73,2.41-2.33,.57-4.68,1.06-6.9,2.01-3.37,1.44-4.91,4.69-4,8.42,.39,1.59,1.28,2.86,2.45,3.96,1.11,1.03,2.37,1.75,3.87,2.08,1.6,.35,3.21,.34,4.79,.03,2.57-.51,4.91-1.56,6.88-3.36,1.28-1.17,2.23-2.54,2.82-4.18,.63-1.75,.71-3.58,.79-5.4,.08-1.7,.02-3.41,.01-5.11,0-.31-.03-.62-.05-1.07Z"/><path class="cls-1" d="M56.35,115.64c-.17,.45-.31,.83-.45,1.2-1.31,3.39-3.14,6.46-5.68,9.09-1.97,2.05-4.23,3.69-6.77,4.95-2.39,1.18-4.94,1.89-7.57,2.34-2.82,.48-5.65,.45-8.49,.37-2.82-.07-5.59-.54-8.29-1.35-1.66-.49-3.3-1.07-4.81-1.96-.9-.53-1.81-1.02-2.67-1.61-1.64-1.14-3.1-2.47-4.41-3.99-1.83-2.13-3.23-4.5-4.35-7.07-.92-2.13-1.56-4.34-2.03-6.59-.33-1.57-.51-3.17-.67-4.77-.19-1.86-.19-3.72-.14-5.58,.03-1.32,.2-2.64,.28-3.96,.08-1.33,.33-2.63,.58-3.93,.36-1.86,.87-3.68,1.53-5.46,.89-2.41,2.11-4.66,3.59-6.75,.71-1,1.55-1.91,2.4-2.8,.78-.82,1.62-1.59,2.49-2.33,2.29-1.94,4.88-3.36,7.71-4.34,1.64-.57,3.33-.96,5.05-1.2,2.01-.27,4.02-.41,6.04-.3,2.2,.12,4.39,.36,6.54,.9,2.09,.52,4.11,1.23,6.02,2.22,1.49,.77,2.87,1.7,4.19,2.74,1.98,1.55,3.66,3.39,5.07,5.46,1.56,2.31,2.76,4.82,3.55,7.5,.37,1.27,.72,2.55,1,3.84,.28,1.26,.5,2.54,.69,3.81,.47,3.19,.48,6.41,.43,9.63,0,.12-.04,.25-.07,.42-.21,.04-.42,.09-.63,.11-.25,.02-.5,0-.76,0-12.57,0-25.14,0-37.71,0-.41,0-.81,.02-1.2,.03-.28,.51-.21,1-.16,1.45,.19,1.57,.41,3.12,.9,4.64,1.09,3.39,3.11,6.04,6.25,7.76,1.66,.9,3.45,1.38,5.35,1.39,1.13,0,2.27,.05,3.39-.22,1.66-.41,3.12-1.13,4.35-2.35,1.29-1.28,2.13-2.81,2.76-4.47,.2-.52,.38-1.06,.56-1.56,.85-.03,14.9,2.32,16.12,2.7Zm-15.31-19.43c.16-.67,.11-1.3,.04-1.92-.15-1.29-.36-2.56-.76-3.8-.75-2.34-2.01-4.34-3.9-5.93-2.72-2.28-5.91-2.97-9.32-2.44-3.87,.6-6.69,2.82-8.53,6.25-1.22,2.28-1.69,4.74-1.59,7.31,0,.18,.07,.36,.11,.59,.35,.02,.65,.05,.96,.05,9.67,.09,22.2,.03,22.99-.12Z"/><path class="cls-1" d="M243.64,132.21c-.22,.04-.37,.09-.52,.09-5.11,0-10.23,0-15.39,0-.05-.26-.12-.46-.14-.67-.02-.28,0-.57,0-.85,0-11.15,.02-22.3-.02-33.45,0-2.46-.17-4.92-.57-7.35-.42-2.53-1.6-4.65-3.64-6.22-1.31-1-2.83-1.56-4.46-1.69-1.51-.13-3.02-.11-4.52,.24-2.64,.61-4.84,1.94-6.65,3.94-1.55,1.71-2.46,3.73-2.88,5.98-.19,1.05-.32,2.12-.42,3.18-.1,1.1-.1,2.2-.21,3.3-.26,2.65-.15,5.3-.16,7.95-.04,8.09-.01,16.17-.01,24.26,0,.41-.02,.81-.02,1.2-.37,.25-.72,.18-1.06,.18-2.21,0-4.42,0-6.63,0-2.46,0-4.93,0-7.39,0-.34,0-.68-.03-1.06-.05-.03-.28-.07-.49-.08-.71-.01-.22,0-.44,0-.66,0-19.52,0-39.04,0-58.56,0-.43,.03-.87,.04-1.19,.11-.12,.13-.15,.15-.17,.03-.02,.06-.03,.09-.03,4.51-.02,9.03-.03,13.54-.04,.28,0,.57,0,.85,.02,.09,0,.18,.04,.27,.07,.24,.31,.15,.67,.15,1.01,0,2.21,0,4.42,0,6.63,0,.34,.02,.69,.03,1.14,.22-.12,.37-.17,.46-.27,.25-.28,.49-.58,.72-.87,1.53-1.91,3.35-3.52,5.35-4.92,1.89-1.32,3.97-2.32,6.2-2.99,1.3-.39,2.62-.72,3.97-.86,1.91-.21,3.82-.35,5.75-.13,1.57,.18,3.13,.37,4.66,.78,3.06,.84,5.83,2.23,8.21,4.34,1.1,.97,1.94,2.16,2.65,3.43,1.32,2.38,2.07,4.93,2.42,7.62,.28,2.16,.38,4.33,.38,6.51-.01,12.86,0,25.71,0,38.57,0,.4-.03,.8-.05,1.24Z"/><path class="cls-1" d="M473.07,132.2c-.16,.04-.28,.1-.4,.1-5.08,0-10.17,0-15.25,0-.12,0-.24-.06-.37-.09-.03-.14-.08-.26-.08-.38,0-20.15,0-40.3,0-60.45,0-.12,.05-.24,.09-.38,.14-.04,.26-.09,.38-.09,4.7,0,9.41,0,14.11,0,.12,0,.24,.06,.39,.1,.17,.95,.06,1.9,.08,2.84,.02,.92,0,1.83,0,2.75,.02,.93-.07,1.87,.08,2.97,.23-.3,.4-.48,.52-.68,1.18-1.95,2.56-3.76,4.09-5.44,1.71-1.88,3.84-3.03,6.35-3.49,.99-.18,1.98-.33,3-.33,2.39,0,4.71,.39,6.93,1.27,.76,.3,1.52,.62,2.27,.95,.46,.2,.9,.45,1.29,.66,.21,.44-.01,.75-.12,1.06-.59,1.7-1.2,3.39-1.8,5.09-.87,2.47-1.74,4.94-2.62,7.41-.07,.2-.17,.39-.27,.65-.24-.11-.43-.19-.62-.29-.9-.45-1.78-.96-2.7-1.36-1.71-.72-3.52-1.05-5.36-.87-3.26,.33-5.69,1.94-7.13,4.92-.76,1.57-1.38,3.19-1.69,4.91-.21,1.11-.36,2.24-.46,3.37-.24,2.61-.34,5.22-.46,7.83-.18,3.91-.1,7.82-.15,11.74-.05,3.88-.01,7.77-.01,11.65,0,.95,0,1.89,0,2.84,0,.24-.05,.49-.07,.75Z"/><path class="cls-1" d="M171.15,132.2c-.14,.04-.26,.09-.37,.09-5.08,0-10.17,0-15.25,0-.12,0-.24-.05-.35-.08-.04-.11-.11-.2-.11-.28,0-20.18,0-40.36,0-60.54,0-.12,.05-.24,.08-.38,.14-.04,.26-.09,.37-.09,5.08,0,10.17,0,15.25,0,.12,0,.24,.05,.35,.08,.04,.11,.11,.2,.11,.29,0,20.18,0,40.36,0,60.54,0,.12-.05,.24-.08,.38Z"/><path class="cls-1" d="M148.4,33.42c0-8.9-7.21-16.11-16.11-16.11s-16.11,7.21-16.11,16.11c0,1.12,.12,2.22,.33,3.28h0c.96,5.48,2.94,4.74,1.06,12.38-.88,3.29-1.76,6.59-2.73,9.86-1.8,6.02-3.65,12.02-5.5,18.03-1.1,3.59-2.24,7.17-3.36,10.76-1.78,5.73-3.51,11.48-5.56,17.12-.3,.83-.65,1.65-1.01,2.45-.21,.45-.41,.93-1.06,1.2-.16-.19-.34-.33-.42-.51-.15-.31-.25-.65-.36-.98-.43-1.39-.86-2.78-1.29-4.16-1.21-3.86-2.42-7.71-3.63-11.57-1.93-6.14-3.85-12.29-5.8-18.43-1.54-4.88-3.11-9.75-4.68-14.61-1.38-4.27-2.77-8.53-4.18-12.79-1.03-3.12-2.13-6.21-3.41-9.24-.43-1.01-.95-2-1.46-2.97-.59-1.12-1.55-1.8-2.78-2.11-1.72-.44-3.47-.71-5.24-.77-1.48-.05-2.97-.06-4.45,0-1.77,.07-3.53,.24-5.24,.74-.88,.25-1.75,.54-2.48,1.13-.63,.5-.9,1.13-.72,1.92,.16,.68,.32,1.35,.53,2.01,1.35,4.21,2.7,8.42,4.09,12.61,1.89,5.73,3.81,11.44,5.72,17.16,2.53,7.58,5.06,15.15,7.61,22.73,1.63,4.85,3.25,9.7,4.92,14.53,2.01,5.82,4.04,11.63,6.14,17.42,.97,2.67,2.1,5.28,3.19,7.9,.3,.72,.72,1.41,1.1,2.09,.43,.76,1.07,1.19,1.95,1.34,1.87,.31,3.76,.39,5.65,.47,2.81,.11,5.62,.15,8.42-.1,1.41-.13,2.84-.11,4.25-.21,1.23-.09,2.45-.26,3.6-.75,.76-.32,1.34-.82,1.66-1.6,.16-.38,.34-.75,.49-1.13,1.4-3.79,2.83-7.57,4.17-11.38,2.03-5.78,3.99-11.58,5.98-17.38,1.41-4.12,2.82-8.25,4.22-12.37,2.62-7.74,5.23-15.49,7.86-23.24,1.22-3.59,2.52-7.15,4.01-10.63,2.58-6.91,5.06-7.1,7.44-10.57h0c2.01-2.69,3.2-6.02,3.2-9.63Z"/><path class="cls-1" d="M312.02,115.64c-.17,.45-.31,.83-.45,1.2-1.31,3.39-3.14,6.46-5.68,9.09-1.97,2.05-4.23,3.69-6.77,4.95-2.39,1.18-4.94,1.89-7.57,2.34-2.82,.48-5.65,.45-8.49,.37-2.82-.07-5.59-.54-8.29-1.35-1.66-.49-3.3-1.07-4.81-1.96-.9-.53-1.81-1.02-2.67-1.61-1.64-1.14-3.1-2.47-4.41-3.99-1.83-2.13-3.23-4.5-4.35-7.07-.92-2.13-1.56-4.34-2.03-6.59-.33-1.57-.51-3.17-.67-4.77-.19-1.86-.19-3.72-.14-5.58,.03-1.32,.2-2.64,.28-3.96,.08-1.33,.33-2.63,.58-3.93,.36-1.86,.87-3.68,1.53-5.46,.89-2.41,2.11-4.66,3.59-6.75,.71-1,1.55-1.91,2.4-2.8,.78-.82,1.62-1.59,2.49-2.33,2.29-1.94,4.88-3.36,7.71-4.34,1.64-.57,3.33-.96,5.05-1.2,2.01-.27,4.02-.41,6.04-.3,2.2,.12,4.39,.36,6.54,.9,2.09,.52,4.11,1.23,6.02,2.22,1.49,.77,2.87,1.7,4.19,2.74,1.98,1.55,3.66,3.39,5.07,5.46,1.56,2.31,2.76,4.82,3.55,7.5,.37,1.27,.72,2.55,1,3.84,.28,1.26,.5,2.54,.69,3.81,.47,3.19,.48,6.41,.43,9.63,0,.12-.04,.25-.07,.42-.21,.04-.42,.09-.63,.11-.25,.02-.5,0-.76,0-12.57,0-25.14,0-37.71,0-.41,0-.81,.02-1.2,.03-.28,.51-.21,1-.16,1.45,.19,1.57,.41,3.12,.9,4.64,1.09,3.39,3.11,6.04,6.25,7.76,1.66,.9,3.45,1.38,5.35,1.39,1.13,0,2.27,.05,3.39-.22,1.66-.41,3.12-1.13,4.35-2.35,1.29-1.28,2.13-2.81,2.76-4.47,.2-.52,.38-1.06,.56-1.56,.85-.03,14.9,2.32,16.12,2.7Zm-15.31-19.43c.16-.67,.11-1.3,.04-1.92-.15-1.29-.36-2.56-.76-3.8-.75-2.34-2.01-4.34-3.9-5.93-2.72-2.28-5.91-2.97-9.32-2.44-3.87,.6-6.69,2.82-8.53,6.25-1.22,2.28-1.69,4.74-1.59,7.31,0,.18,.07,.36,.11,.59,.35,.02,.65,.05,.96,.05,9.67,.09,22.2,.03,22.99-.12Z"/></svg>