<?xml version="1.0" encoding="UTF-8"?><svg id="logo_Ubiwhere" xmlns="http://www.w3.org/2000/svg" viewBox="0 0 580 118.47"><defs><style>.cls-1{fill:#1b57fd;}</style></defs><g><rect class="cls-1" x="162.43" y="9.65" width="17.62" height="16.25"/><rect class="cls-1" x="162.43" y="34.29" width="17.62" height="82.57"/><polygon class="cls-1" points="275.58 92.68 258.58 34.29 239.11 34.29 222.11 92.68 210.43 34.29 193.34 34.29 210.91 116.86 231.48 116.86 248.84 55.88 266.2 116.86 286.77 116.86 304.34 34.29 287.24 34.29 275.58 92.68"/><path class="cls-1" d="M47.64,101.53c-4.29,.57-8.75,.86-13.31,.86-14.11,0-16.69-5-16.69-14.82V34.29H0v52.8c0,15.52,4.2,31.38,35.28,31.38,7.24,0,19.21-.98,28.38-3.12l1.62-.37V34.29h-17.64V101.53Z"/><path class="cls-1" d="M113.46,32.69l-9.5,16.54c3.2-.3,6.5-.46,9.84-.46,14.11,0,16.7,4.98,16.7,14.82v23.98c0,9.83-2.59,14.82-16.7,14.82-4.55,0-9.02-.29-13.31-.86V0l-17.64,2.53V114.98l1.61,.37c9.19,2.14,21.15,3.12,28.39,3.12,31.08,0,35.28-15.87,35.28-31.38v-23.02c0-15.41-3.47-34.41-34.68-31.38"/><polygon class="cls-1" points="315.18 116.86 332.81 116.86 332.81 0 315.18 2.53 315.18 116.86"/><path class="cls-1" d="M345.9,32.7l-9.84,17.1c3.55-.56,6.92-1.03,10.06-1.03,14.12,0,16.69,4.98,16.69,14.82v53.28h17.64V61.85c0-15.4-5.36-33.3-34.55-29.15"/><path class="cls-1" d="M425.2,32.69c-21.41,0-32.72,10.85-32.72,31.38v23.5c0,20.8,10.81,30.91,33.04,30.91,9.9,0,20.47-1.74,28.31-4.64l1.1-.41-7.72-13.45c-7.64,1.81-14.54,2.73-20.56,2.73-14.03,0-16.53-4.01-16.53-15.3v-4.51h46.53v-18.51c0-21.04-10.58-31.7-31.44-31.7m14.28,34.77h-29.37v-4.35c0-10.64,4.37-14.98,15.09-14.98s14.28,4.06,14.28,14.98v4.35Z"/><path class="cls-1" d="M548.57,32.69c-21.41,0-32.71,10.85-32.71,31.38v23.5c0,20.8,10.79,30.91,33.03,30.91,9.9,0,20.49-1.74,28.31-4.64l1.1-.41-7.74-13.45c-7.64,1.81-14.54,2.73-20.55,2.73-14.04,0-16.53-4.01-16.53-15.3v-4.51h46.52v-18.51c0-21.04-10.57-31.7-31.43-31.7m14.28,34.77h-29.37v-4.35c0-10.64,4.37-14.98,15.08-14.98s14.28,4.06,14.28,14.98v4.35Z"/></g><rect class="cls-1" x="468.08" y="36.71" width="17.63" height="80.15"/><path class="cls-1" d="M487.59,53.02v-.02l9.64-17.25c1.98-.41,3.48-.65,3.48-.65,6.93-.99,12.52-.72,17.02,.46l-9.16,16.38c-2.07-.47-4.97-.72-7.64-.72-6.47,0-13.34,1.8-13.34,1.8Z"/></svg>