<?xml version="1.0" encoding="UTF-8"?><svg id="logo_TraceLabs" xmlns="http://www.w3.org/2000/svg" viewBox="0 0 560 140.37"><defs><style>.cls-1{fill:#e85a4a;}</style></defs><g><g><path class="cls-1" d="M510.14,64.23c-5.15-9.83-17.46-13.47-26.9-7.97-1.89,1.11-3.45,2.62-5.19,4.6v-23.73h-12.12V101.51h12.17v-5.33l.46-.3c.11,.22,.17,.48,.32,.66,8.02,9.27,22.5,7.64,29.14-.88,3.22-4.13,4.68-8.86,5.16-13.98,.57-6.1-.16-11.96-3.04-17.45Zm-10.42,19.7c-2.34,6.79-9,9.66-15.93,6.92-2.42-.95-4.19-2.27-5.63-4.2v-16.53c3.06-4.27,8.85-6.35,13.84-5,4.77,1.29,7.93,5.45,8.5,10.99,.28,2.68,.1,5.3-.78,7.83Z"/><path class="cls-1" d="M441.12,55.02v5.47c-.54-.06-.72-.39-.93-.63-8.15-9.46-24.15-7.71-30.34,3.07-5.62,9.79-5.66,20.05-.47,29.94,5.47,10.42,19.19,13.12,28.4,6.04,1.12-.86,2.1-1.91,3.4-3.12v5.76h12.25V55.02h-12.31Zm.01,17.8v12.59c.02,.87-.29,1.53-.84,2.15-3.32,3.72-9.22,5.27-13.86,3.63-4.38-1.55-7.52-6.04-7.8-11.12-.15-2.66-.05-5.3,.94-7.82,3.02-7.67,11.9-9.98,18.79-4.94,1.89,1.38,2.77,2.91,2.77,5.5Z"/><path class="cls-1" d="M558.31,60.18c-1.63,2.87-3.23,5.68-4.89,8.62-2.79-2.57-5.98-4.12-9.55-4.89-2.72-.58-5.44-.81-8.15,.1-.67,.23-1.3,.51-1.87,.93-2.53,1.85-2.27,4.46,.61,5.68,3.11,1.32,6.49,1.62,9.74,2.39,2.63,.62,5.24,1.31,7.7,2.45,4.96,2.29,7.87,6.06,8.09,11.62,.23,5.75-2.33,9.98-7.29,12.81-3.02,1.72-6.32,2.54-9.73,2.79-7.78,.57-15.16-.74-21.78-5.13-.86-.57-1.65-1.26-2.56-1.96,1.81-3.01,3.54-5.9,5.32-8.86,4.16,3.39,8.75,5.5,13.91,6.25,2.66,.39,5.3,.32,7.76-.96,1.61-.83,2.48-2.13,2.38-3.99-.09-1.68-1.31-2.42-2.63-2.95-3.22-1.31-6.68-1.66-10.03-2.45-2.73-.65-5.39-1.44-7.95-2.63-9.12-4.25-9.18-16.53-1.88-22.07,3.26-2.47,6.97-3.71,10.97-4.04,7.81-.66,15.01,1.09,21.35,5.86,.12,.09,.22,.2,.49,.44Z"/><path class="cls-1" d="M400.8,90.61l2.55,9.19c-2.13,1.84-4.63,2.53-7.22,2.83-2.44,.29-4.9,.3-7.33-.23-5.49-1.2-8.63-5.21-8.92-11.42-.09-1.85-.04-3.7-.04-5.55,0-15.46,0-30.93,0-46.39v-1.9h12.17c.3,.6,.16,1.21,.16,1.79,0,15.31,0,30.63,0,45.94,0,.4,0,.8,0,1.2,.05,5.29,3.4,7.26,8.1,4.77,.13-.07,.53-.23,.53-.23Z"/></g><g><path class="cls-1" d="M256.28,55.03v6.84c-.53-.58-.77-.82-.99-1.07-9.44-11-26.38-8.96-32.79,4.05-3.73,7.57-3.85,15.51-1.47,23.49,3.94,13.23,18.88,18.64,30.3,11.07,1.79-1.19,3.27-2.71,4.93-4.61v6.71h7.16V55.03h-7.14Zm-.04,15.34v17.55c0,.61-.07,1.16-.46,1.68-4.77,6.28-14.95,9.35-22.19,3.98-3.66-2.72-5.39-6.6-6.11-10.97-.82-4.94-.42-9.76,1.83-14.31,3.9-7.92,13.27-10.44,21.28-5.73,1.07,.63,2.09,1.38,3.05,2.17,1.74,1.45,2.61,3.07,2.61,5.64Z"/><path class="cls-1" d="M368.99,74.55c-.71-5.26-2.46-10.12-6.15-14.04-9.52-10.14-26.49-8.8-34.56,2.71-4.3,6.13-5.49,12.97-4.18,20.27,1.05,5.88,3.74,10.85,8.56,14.49,6.58,4.97,14,5.73,21.82,4.02,4.48-.98,8.37-3.14,11.75-6.47-1.17-1.59-2.28-3.09-3.38-4.57-7.29,5.91-15.05,8.09-23.55,3.42-5.22-2.86-7.34-7.85-7.93-13.77h37.89c.11-2.19,0-4.13-.26-6.06Zm-37.66,.57c.45-5.38,2.45-9.88,6.94-12.85,5.26-3.49,10.91-3.49,16.33-.46,5.04,2.82,7.07,7.59,7.52,13.31h-30.79Z"/><path class="cls-1" d="M311.19,90.28c1.65,1.51,3.19,2.92,4.79,4.39-3.02,3.94-6.78,6.6-11.58,7.54-8.43,1.65-16.04,.04-22.24-6.23-4.14-4.19-6.16-9.42-6.64-15.2-.53-6.4,.71-12.46,4.55-17.76,4.27-5.88,10.16-8.83,17.38-9.22,5.41-.29,10.45,.79,14.8,4.22,1.38,1.09,2.58,2.35,3.73,3.84l-4.77,4.32c-.52-.59-.99-1.15-1.5-1.67-6.47-6.73-18.62-5.55-23.6,2.59-4.46,7.29-4.42,14.96-.01,22.29,5.07,8.43,18.09,9.47,24.25,1.83,.22-.27,.46-.52,.84-.93Z"/><path class="cls-1" d="M155.42,61.33v-6.39h7.6v-12.74h7.4v12.67h9.5v6.4h-9.19c-.37,.61-.24,1.12-.24,1.61,0,9.06,0,18.12,0,27.18,0,.55-.03,1.11,.06,1.65,.63,4.1,3.8,5.73,7.65,3.91,.63-.3,1.2-.72,1.93-1.16,.69,1.78,1.39,3.57,2.06,5.31-3.84,3.63-11.37,4.16-15.45,1.11-2.18-1.63-3.13-3.95-3.48-6.57-.31-2.29-.21-4.6-.21-6.9,0-8.11,0-16.22,0-24.33v-1.75h-7.63Z"/><path class="cls-1" d="M190.33,55h7.1v7.32c4.29-4.99,9.08-8.31,15.63-8.51v7.29c-1.2,0-2.39-.13-3.55,.02-4.45,.6-8.09,2.73-11.08,6.04-.67,.74-.95,1.55-.95,2.57,.03,10.01,.02,20.02,.02,30.02v1.75h-7.17V55Z"/></g></g><g><path class="cls-1" d="M39.48,46.95c9.9,3.4,19.66,6.75,29.59,10.16-4.79,14.05-11.05,27.31-18.69,40.24,11.95-.86,23.58-.2,35.1,2.12,11.52,2.32,22.53,6.12,33.17,11.58-4.87,9.59-9.69,19.1-14.51,28.61-29.9-14.21-59.59-14-89.31,.72-4.97-9.38-9.94-18.76-14.83-28,8.95-9.41,16.58-19.65,23.22-30.63,6.63-10.97,12-22.54,16.26-34.79Z"/><path class="cls-1" d="M48.07,9.57l.93-9.57c10.39,.73,20.71,1.44,31.2,2.18-.03,3.71-.63,7.33-.98,11.22-10.46-1.28-20.79-2.55-31.16-3.82Z"/><path class="cls-1" d="M42.39,37.8l2.41-9.31c10.2,2.35,20.25,4.67,30.44,7.02-.75,3.74-1.7,7.26-2.81,10.9-10.09-2.89-20.05-5.75-30.04-8.61Z"/></g></svg>