<?xml version="1.0" encoding="UTF-8"?><svg id="logo_Amigo" xmlns="http://www.w3.org/2000/svg" xmlns:xlink="http://www.w3.org/1999/xlink" viewBox="0 0 560 148.3"><defs><style>.cls-1{fill:none;}.cls-2{clip-path:url(#clippath);}.cls-3{fill:#fab82c;}.cls-4{fill:#fff;}.cls-5{fill:#fefefe;}</style><clipPath id="clippath"><circle class="cls-1" cx="74.15" cy="74.15" r="74.15"/></clipPath></defs><g><path d="M223.82,99.78h-31.07l-5.16,15.13h-21.11l30.37-82.32h23.1l30.37,82.32h-21.34l-5.16-15.13Zm-5.16-15.24l-10.32-30.49-10.44,30.49h20.75Z"/><path d="M361.83,56.22c4.61,4.97,6.92,11.86,6.92,20.7v37.99h-19.93v-35.65c0-4.14-1.11-7.37-3.34-9.67-2.23-2.31-5.26-3.46-9.09-3.46s-7.13,1.23-9.44,3.69c-2.31,2.46-3.46,5.92-3.46,10.38v34.71h-20.05v-35.65c0-4.14-1.1-7.37-3.28-9.67-2.19-2.31-5.2-3.46-9.03-3.46s-7.15,1.21-9.5,3.63c-2.35,2.42-3.52,5.9-3.52,10.44v34.71h-20.05V49.48h20.05v11.14c1.72-3.67,4.36-6.57,7.92-8.68,3.56-2.11,7.72-3.17,12.49-3.17,5,0,9.42,1.15,13.25,3.46,3.83,2.31,6.72,5.61,8.68,9.91,2.27-4.06,5.37-7.31,9.32-9.73,3.95-2.42,8.3-3.63,13.07-3.63,8.05,0,14.38,2.48,19,7.45Z"/><path d="M383.53,23.5c2.19-1.99,5.08-2.99,8.68-2.99s6.49,1,8.68,2.99c2.19,1.99,3.28,4.51,3.28,7.56s-1.1,5.45-3.28,7.45c-2.19,1.99-5.08,2.99-8.68,2.99s-6.49-1-8.68-2.99c-2.19-1.99-3.28-4.47-3.28-7.45s1.09-5.57,3.28-7.56Zm18.64,25.97V114.91h-20.05V49.48h20.05Z"/><path d="M453.76,52.05c3.59,2.27,6.25,5.36,7.97,9.26v-11.84h19.93V114.55c0,6.1-1.17,11.59-3.52,16.47-2.34,4.88-5.94,8.77-10.79,11.67-4.85,2.89-10.87,4.34-18.06,4.34-9.85,0-17.73-2.33-23.63-6.98-5.9-4.65-9.44-10.96-10.61-18.94h19.82c.62,2.66,2.05,4.73,4.28,6.21,2.23,1.48,5.14,2.23,8.74,2.23,4.14,0,7.48-1.19,10.03-3.58,2.54-2.39,3.81-6.2,3.81-11.43v-11.49c-1.72,3.91-4.38,7-7.97,9.26-3.6,2.27-7.9,3.4-12.9,3.4-5.39,0-10.22-1.35-14.48-4.05-4.26-2.7-7.62-6.59-10.08-11.67-2.46-5.08-3.69-11.02-3.69-17.82s1.23-12.84,3.69-17.88c2.46-5.04,5.82-8.91,10.08-11.61,4.26-2.7,9.09-4.05,14.48-4.05,5,0,9.3,1.13,12.9,3.4Zm-16.83,18.41c-2.62,2.81-3.93,6.72-3.93,11.73s1.31,8.91,3.93,11.73c2.62,2.81,6.08,4.22,10.38,4.22s7.68-1.45,10.38-4.34c2.7-2.89,4.05-6.76,4.05-11.61s-1.35-8.81-4.05-11.67c-2.7-2.85-6.16-4.28-10.38-4.28s-7.76,1.41-10.38,4.22Z"/><path d="M543.52,52.7c5.12,2.7,9.15,6.59,12.08,11.67,2.93,5.08,4.4,11.02,4.4,17.82s-1.47,12.74-4.4,17.82c-2.93,5.08-6.96,8.97-12.08,11.67-5.12,2.7-10.93,4.05-17.41,4.05s-12.31-1.35-17.47-4.05c-5.16-2.7-9.21-6.59-12.14-11.67-2.93-5.08-4.4-11.02-4.4-17.82s1.47-12.74,4.4-17.82c2.93-5.08,6.98-8.97,12.14-11.67,5.16-2.7,10.98-4.05,17.47-4.05s12.29,1.35,17.41,4.05Zm-27.09,17.47c-2.62,2.78-3.93,6.78-3.93,12.02s1.31,9.22,3.93,11.96c2.62,2.74,5.84,4.1,9.67,4.1s7.04-1.37,9.61-4.1c2.58-2.74,3.87-6.72,3.87-11.96s-1.29-9.24-3.87-12.02c-2.58-2.77-5.79-4.16-9.61-4.16s-7.06,1.39-9.67,4.16Z"/></g><g class="cls-2"><circle class="cls-3" cx="74.15" cy="74.15" r="74.15"/><path class="cls-5" d="M109.75,126.25c.14-5.22-.55-10.38-1.92-15.4-2.5-9.2-6.97-17.31-13.74-24.1-1.62-1.62-3.21-3.14-4.68-4.91-3.01-.47-5.96-1.17-8.87-2.1-9.08-2.89-17.64-6.8-26.12-11.12-1.38-.7-2.89-1.2-4.34-1.75-1.64-.61-3.51-.6-5.01,.48-2.56,1.86-2.57,5.55-.02,7.52,1.45,1.12,3.19,1.65,4.88,2.25,9.83,3.51,18.39,9.01,25.55,16.58,11.82,12.48,17.92,27.38,18.39,44.56,.07,2.6-.2,5.19-.49,7.81-.13,.04,9.31-1.33,14.15-5.34,.1-.53,.13-.76,.19-.97,1.22-4.43,1.9-8.94,2.02-13.52Z"/><path d="M68.24,148.3c-1.52-.23-3.03-.47-4.55-.69-18.37-2.7-33.58-11.16-45.8-25.08-.16-.18-.28-.39-.48-.68,.99-1.12,1.99-2.2,2.93-3.32,6.32-7.46,10.39-15.99,12.27-25.59,1.12-5.74,1.16-11.54,1.11-17.34-.05-5.78,1.04-11.31,3.27-16.59,4.51-10.72,12.12-18.48,22.71-23.32,6.83-3.12,14.02-4.25,21.48-3.84,8.11,.45,15.84-1.19,23.34-4.14,1.6-.63,3.13-1.48,4.6-2.37,2.39-1.46,4.9-2.62,7.62-3.3,2.35-.59,4.66-.51,6.86,.59,1.12,.55,2.1,1.28,2.89,2.53-.42,.34-.81,.69-1.23,.99-3.89,2.74-7.85,5.38-11.66,8.22-7.58,5.66-14.88,11.65-21.73,18.19-3.21,3.06-5.57,6.59-6.54,10.96-1.4,6.31-.25,12.12,3.5,17.4,.14,.2,.26,.41,.57,.93-1.05-.19-1.85-.31-2.64-.48-6.5-1.35-12.7-3.66-18.78-6.26-4.77-2.03-9.42-4.34-14.13-6.52-1.23-.57-2.46-1.17-3.74-1.62-1.57-.56-3.17-.59-4.62,.4-2.67,1.82-2.8,5.68-.11,7.56,1.34,.94,2.93,1.59,4.49,2.15,4.21,1.5,8.23,3.36,12.05,5.67,11.88,7.19,20.67,17.12,26.35,29.78,4.54,10.13,6.22,20.77,5.46,31.81-.03,.42-.13,.84-.23,1.48-2.02,.44-4.04,.97-6.09,1.32-2.19,.38-4.41,.58-6.61,.88-.36,.05-.7,.19-1.05,.29h-11.5ZM114.81,28.49l-.2-.29c-.32,.16-.64,.31-.94,.49-6.88,4.12-13.77,8.25-20.65,12.38-4.13,2.48-8.27,4.93-12.39,7.42-1.53,.92-2,2.51-1.21,3.77,.75,1.2,2.21,1.38,3.75,.36,1.02-.68,1.94-1.52,2.92-2.27,6.24-4.75,12.49-9.48,18.73-14.23,3.34-2.54,6.66-5.09,10-7.64Z"/><path class="cls-4" d="M114.81,28.49c-3.33,2.55-6.66,5.1-10,7.64-6.24,4.75-12.49,9.48-18.73,14.23-.98,.75-1.9,1.59-2.92,2.27-1.54,1.03-3,.84-3.75-.36-.79-1.26-.31-2.84,1.21-3.77,4.12-2.49,8.26-4.95,12.39-7.42,6.88-4.13,13.76-8.26,20.65-12.38,.3-.18,.63-.33,.94-.49l.2,.29Z"/></g></svg>