<?xml version="1.0" encoding="UTF-8"?><svg id="logo_Tsenso" xmlns="http://www.w3.org/2000/svg" viewBox="0 0 560 148.1"><defs><style>.cls-1{fill:#7ab800;}</style></defs><path class="cls-1" d="M558.64,129.05l-6.93-1.52c4.01-21.61-2.07-39.77-18.06-54.8l4.64-5.37c.41,.32,.72,.53,1,.78,10.21,9.3,16.75,20.7,19.64,34.2,2.07,9.7,.67,22.77-.29,26.71Z"/><path d="M475.27,0h42.49V89.4c8.21,7.23,12.41,16.19,11.94,27.07-.39,8.91-3.93,16.52-10.44,22.63-13.23,12.42-33.82,11.92-46.55-1.07-12.73-12.98-13.11-35.2,2.57-48.63V0Zm13.03,96.54c-4.52,2.21-7.95,5.44-10.03,9.99-2.11,4.6-2.42,9.35-.96,14.18,2.51,8.34,10.02,14.08,18.86,14.25,9.5,.18,16.6-5.94,19.23-13.13,1.49-4.09,1.68-8.25,.48-12.41-1.72-5.99-5.6-10.2-11.18-12.94V12.62h-16.4V96.54Z"/><path d="M212.21,83.45h-54.38c.27,.51,.4,.86,.61,1.16,3.74,5.23,8.79,8.21,15.25,8.4l38.89,.06v19.58l-39.23,.04c-18.11-.33-32.56-12.83-36.77-28.98-5.56-21.35,7.14-42.31,27.57-47.79,21.92-5.88,44.24,8.04,48.53,30.32,.99,5.16,.96,10.32-.05,15.47-.1,.52-.25,1.04-.43,1.75Zm-54.62-19.65l33.08-.13c-3.93-5.85-9.22-9.34-16.34-9.39-7.25-.05-12.64,3.44-16.74,9.52Z"/><path d="M59.96,112.73v-19.61l45.42-.08c2.13-.2,3.86-1.96,3.99-4.04,.13-2.13-1.29-4.04-3.43-4.5-.66-.15-23.81-.16-23.81-.16-11.74,.17-22.38-8.83-23.76-21.12-1.47-13.03,7.84-24.9,20.82-26.37,1.12-.13,47.11-.2,47.11-.2v19.66l-44.59,.03c-2.13,.19-3.73,1.87-3.81,3.97-.09,2.14,1.31,3.92,3.44,4.28l23.52,.12c10.91-.18,21.5,7.65,23.83,19.64,2.44,12.54-6.04,25.28-18.61,27.83-1.72,.35-3.5,.53-5.25,.54l-44.87,.02Z"/><path d="M366.65,36.71v19.59s-44.17-.02-44.75,.05c-2.04,.24-3.58,1.92-3.66,3.96-.08,2.14,1.32,3.91,3.45,4.27,.67,.11,16.37,.23,23.52,.12,10.9-.18,21.5,7.65,23.82,19.65,2.43,12.55-6.05,25.28-18.62,27.82-1.72,.35-3.5,.53-5.25,.54-14.32,.04-44.65,.02-44.65,.02v-19.61l45.08-.07c2.15-.15,3.93-1.86,4.11-3.92,.2-2.19-1.24-4.16-3.43-4.64-.66-.14-16.75-.17-24.1-.18-11.97-.02-22.06-9.06-23.43-20.96-1.46-12.7,6.9-24.01,19.49-26.34,1.25-.23,2.53-.35,3.8-.35l44.61,.06Z"/><path d="M375.83,74.58c-.19-21.3,17.25-40.14,40.3-40,22.3,.14,39.95,18.36,39.79,40.42-.17,21.93-17.98,39.98-40.42,39.78-22.8-.21-39.95-18.99-39.67-40.2Zm19.61-.1c0,11.68,9.18,20.38,19.88,20.63,11.25,.25,20.57-8.62,20.91-19.71,.35-11.23-8.41-20.84-19.78-21.13-11.52-.29-20.74,8.61-21.01,20.22Z"/><path d="M289.47,112.63h-19.59s0-30.48,0-44.73c0-1.87-.15-3.71-.8-5.49-2-5.48-7.74-8.94-13.4-8.06-6.07,.94-10.51,5.83-10.7,11.84-.07,2.2-.03,46.25-.03,46.25l-19.53,.18v-47.08c.27-14.83,10.84-26.91,24.61-30.11,18.08-4.19,35.73,7.45,39.01,25.7,.28,1.58,.42,3.21,.42,4.82,.03,15.09,.02,46.69,.02,46.69Z"/><path d="M49.06,93.06v19.52s-7.79,.25-11.17,.12c-14.14-.55-25.01-10.64-27.66-23.07-.44-2.04-.63-4.17-.64-6.26-.07-8.43-.03-27.1-.03-27.1H0v-19.6l9.52-.05V12.76H29.12v23.86h19.41v19.64H29.23l-.06,26.16c0,1.21,.13,2.46,.46,3.62,1.14,4.06,4.78,6.87,9,6.98,2.89,.07,10.43,.03,10.43,.03Z"/><path class="cls-1" d="M523.52,84.32c1.59-1.82,3.1-3.55,4.73-5.42,6.25,5.41,10.76,11.86,13.6,19.47,3.32,8.93,3.95,18.06,1.81,27.57-2.39-.5-4.65-.97-7.01-1.47,2.95-15.83-1.35-29.16-13.13-40.16Z"/><path class="cls-1" d="M493.31,37.07h6.44l.08,63.28c.62,.38,1.13,.67,1.61,1,2.09,1.42,3.59,3.34,4.56,5.64,2.2,5.17,2.2,10.37,.05,15.56-.8,1.92-2,3.59-3.59,4.96-3.51,3.05-8.27,3.07-11.81,.06-2.08-1.77-3.43-4.02-4.26-6.58-1.41-4.39-1.36-8.78,.27-13.1,1.22-3.22,3.24-5.8,6.52-7.46l.12-63.36Z"/></svg>