<?xml version="1.0" encoding="UTF-8"?><svg id="logo_EGM" xmlns="http://www.w3.org/2000/svg" xmlns:xlink="http://www.w3.org/1999/xlink" viewBox="0 0 590 249.62"><defs><style>.cls-1{fill:#fff;}.cls-2{fill:#213b89;}.cls-3{fill:url(#Dégradé_sans_nom_13);}.cls-4{fill:url(#Dégradé_sans_nom_15);}.cls-5{fill:url(#Dégradé_sans_nom_15-2);}.cls-6{fill:url(#Dégradé_sans_nom_15-3);}.cls-7{fill:url(#Dégradé_sans_nom_13-4);}.cls-8{fill:url(#Dégradé_sans_nom_13-3);}.cls-9{fill:url(#Dégradé_sans_nom_13-2);}</style><linearGradient id="Dégradé_sans_nom_15" x1="78.18" y1="153.34" x2="131.69" y2="31.18" gradientTransform="translate(-27.18 22.9) rotate(-4.57)" gradientUnits="userSpaceOnUse"><stop offset=".14" stop-color="#008d36"/><stop offset="1" stop-color="#93c01f"/></linearGradient><linearGradient id="Dégradé_sans_nom_15-2" x1="78.35" y1="153.41" x2="131.86" y2="31.25" xlink:href="#Dégradé_sans_nom_15"/><linearGradient id="Dégradé_sans_nom_15-3" x1="151.94" y1="185.65" x2="205.44" y2="63.49" xlink:href="#Dégradé_sans_nom_15"/><linearGradient id="Dégradé_sans_nom_13" x1="131.54" y1="-19.22" x2="11.73" y2="75.69" gradientTransform="translate(-27.18 22.9) rotate(-4.57)" gradientUnits="userSpaceOnUse"><stop offset="0" stop-color="#a9c810"/><stop offset="1" stop-color="#008558"/></linearGradient><linearGradient id="Dégradé_sans_nom_13-2" x1="146.96" y1=".25" x2="27.15" y2="95.15" xlink:href="#Dégradé_sans_nom_13"/><linearGradient id="Dégradé_sans_nom_13-3" x1="150.88" y1="-48.51" x2="-57.43" y2="130.52" xlink:href="#Dégradé_sans_nom_13"/><linearGradient id="Dégradé_sans_nom_13-4" x1="158.74" y1="-39.36" x2="-49.57" y2="139.67" xlink:href="#Dégradé_sans_nom_13"/></defs><g id="Calque_1"><circle class="cls-4" cx="87.6" cy="98.33" r="48.84"/><g><path class="cls-2" d="M415.76,71.1v26.48h-18.12c1.62,4.65,2.32,9.76,2.32,15.34,0,25.56-15.11,41.82-49.03,41.82h-1.16l-2.41,6.05h23.7c29.97,0,38.8,13.24,38.8,32.29,0,29.51-23.93,40.66-54.83,40.66-23.7,0-39.96-4.41-53.91-12.78l11.85-23.93c15.8,8.6,25.79,10.22,40.9,10.22,13.47,0,23.23-3.25,23.23-13.48,0-5.11-2.32-8.83-10.92-8.83h-59.02l5.58-12.78,9.38-23.01c-13.71-6.73-20.22-19.52-20.22-36.24,0-25.56,15.34-41.82,49.03-41.82h64.82Zm-81.08,41.82c0,9.29,4.88,15.34,16.26,15.34s16.26-6.04,16.26-15.34-4.65-15.34-16.26-15.34-16.26,5.81-16.26,15.34Z"/><path class="cls-2" d="M511.94,86.7c8.13-11.84,20.91-18.12,35.31-18.12,25.09,0,42.75,13.47,42.75,41.35v77.14h-32.76V109.47c0-9.29-7.43-13.24-13.71-13.24-13.71,0-20.68,10.69-20.68,29.74v61.11h-32.76V110.86c0-9.99-7.2-14.64-14.63-14.64-11.62,0-19.75,10.69-19.75,29.98v60.87h-32.76V70.9h32.76v11.62c6.27-9.52,13.94-13.94,25.33-13.94,13.7,0,25.09,6.5,30.9,18.12Z"/><path class="cls-2" d="M283.2,169.1c-12.68,11.98-27.55,17.97-44.61,17.97s-31.17-5.26-42.31-15.78c-11.15-10.52-16.72-24.62-16.72-42.31s5.67-31.76,17.03-42.21c11.36-10.45,24.76-15.67,40.23-15.67s28.59,4.67,39.39,14c10.79,9.34,16.19,22.15,16.19,38.45v16.72h-81.91c.97,6.13,4.18,11.15,9.61,15.05,5.43,3.9,11.56,5.85,18.39,5.85,11,0,20.06-3.69,27.16-11.08l17.55,19.01Zm-30.09-66.66c-4.32-3.62-9.58-5.43-15.78-5.43s-11.88,1.88-17.03,5.64c-5.15,3.76-8.15,8.85-8.98,15.25h49.31c-.7-6.68-3.2-11.84-7.52-15.46Z"/></g><path class="cls-5" d="M93.22,167c-12.13,.97-24.35-1.33-35.56-6.85-14.37-7.06-25.57-18.64-32.11-33.02l-14.19,4.84c-3.53,1.2-7.45-.68-8.66-4.26-1.22-3.57,.69-7.45,4.26-8.67l26.8-9.14,2.2,6.46c4.73,13.87,14.57,25.06,27.72,31.53,13.14,6.45,28.02,7.42,41.9,2.69,28.62-9.76,43.98-40.99,34.22-69.62l-2.2-6.46,26.34-8.98c3.52-1.21,7.45,.69,8.66,4.26,1.22,3.57-.69,7.45-4.26,8.67l-13.73,4.68c7.9,33.84-11.06,68.94-44.63,80.38-5.5,1.87-11.12,3.03-16.76,3.49Z"/><path class="cls-6" d="M68.6,249.59c-3.04,.24-5.97-1.59-6.99-4.6-1.22-3.57,.69-7.45,4.26-8.67l9.65-3.29c-2.55-12.09-1-24.61,4.54-35.88,6.55-13.33,17.91-23.32,31.97-28.11,14.06-4.79,29.14-3.82,42.47,2.73,11.27,5.54,20.15,14.51,25.51,25.64l10.03-3.41c3.53-1.19,7.45,.69,8.66,4.26,1.22,3.57-.69,7.45-4.26,8.67l-22.55,7.69-2.2-6.46c-3.62-10.61-11.15-19.17-21.21-24.12-10.06-4.94-21.42-5.67-32.05-2.06-10.61,3.62-19.17,11.15-24.12,21.21-4.94,10.06-5.67,21.44-2.06,32.05l2.21,6.46-22.2,7.56c-.55,.19-1.11,.3-1.67,.34Z"/><path class="cls-1" d="M127.15,85.37c-4.8-14.59-16.9-24.71-30.91-27.71-1.02-.23-2.04-.39-3.07-.53-6.04-.83-12.35-.38-18.52,1.65-6.18,2.03-11.52,5.39-15.9,9.62-.75,.73-1.48,1.47-2.16,2.25-9.54,10.7-13.31,26.01-8.52,40.62,4.78,14.6,16.89,24.71,30.91,27.69,1.02,.23,2.05,.41,3.08,.54,6.04,.83,12.33,.37,18.52-1.67,6.18-2.02,11.52-5.39,15.9-9.63,.75-.72,1.47-1.47,2.17-2.24,9.52-10.71,13.28-26.02,8.51-40.62Zm-3.52-.48l-13.38,4.39c-3.72-10.49-9.44-19.23-15.96-24.76,.64-1.23,1.25-2.46,1.56-3.76,12.39,2.75,23.05,11.52,27.78,24.14Zm-13.34,35c-.05,.23-.14,.41-.19,.64-4.09-1.23-8.8-1.29-13.59,0l-6.95-21.21,18.72-6.14c2.96,9.75,3.54,19.24,2.01,26.71Zm-28.2,9.25c-5.64-5.12-10.79-13.11-14.18-22.73l18.71-6.13,6.95,21.21c-4.62,1.8-8.38,4.64-10.95,8.05-.18-.15-.35-.24-.53-.4Zm-17.17-52.38c.05-.24,.14-.42,.19-.65,4.1,1.23,8.81,1.29,13.59,.01l6.95,21.21-18.71,6.14c-2.96-9.75-3.56-19.25-2.02-26.71Zm28.2-9.25c5.67,5.11,10.8,13.11,14.19,22.72l-18.72,6.14-6.95-21.21c4.61-1.8,8.37-4.64,10.94-8.06,.18,.15,.36,.25,.54,.41Zm-12.44,4.71l-3.51-10.72c4.02-.75,8.49,.56,12.96,3.74-2.14,2.87-5.35,5.35-9.45,6.98Zm-6.45-9.76l3.51,10.72c-4.27,1.1-8.33,1-11.75-.04,1.72-5.21,4.55-8.91,8.23-10.68Zm20.3,61.96l3.51,10.72c-4.01,.76-8.48-.55-12.96-3.73,2.14-2.87,5.35-5.35,9.44-6.98Zm6.45,9.75l-3.51-10.72c4.27-1.11,8.33-1.01,11.75,.03-1.72,5.21-4.56,8.92-8.24,10.68Zm-9.24-71.59c-1.47-1.03-2.95-1.85-4.47-2.53,1.85,0,3.7-.1,5.51,.15-.22,.8-.66,1.59-1.04,2.38Zm-26.51,4.69c-.82,1.44-1.53,2.98-2.11,4.68-.77-.41-1.6-.78-2.25-1.31,1.31-1.26,2.86-2.29,4.35-3.37Zm-6.52,5.65c1.02,.86,2.25,1.5,3.5,2.1-1.98,8.32-1.41,18.74,1.8,29.4l-13.37,4.38c-3.66-12.97-.28-26.36,8.07-35.88Zm-7.11,38.82l13.37-4.38c3.72,10.48,9.44,19.22,15.96,24.75-.64,1.22-1.25,2.46-1.56,3.75-12.38-2.73-23.03-11.49-27.76-24.13Zm31.88,22.3c1.47,1.03,2.95,1.85,4.46,2.53-1.84,0-3.7,.1-5.5-.15,.21-.8,.66-1.59,1.04-2.37Zm26.51-4.7c.81-1.44,1.52-2.98,2.1-4.67,.77,.41,1.6,.78,2.24,1.31-1.31,1.26-2.85,2.28-4.34,3.36Zm6.5-5.64c-1.01-.86-2.24-1.5-3.48-2.1,1.97-8.32,1.41-18.75-1.8-29.39l13.38-4.38c3.66,12.97,.25,26.35-8.1,35.88Z"/><path class="cls-2" d="M126.7,56.24c-.69-.26-1.34-.64-1.94-1.14-2.89-2.42-3.27-6.72-.84-9.62L159.93,2.43c2.42-2.88,6.73-3.26,9.62-.84,2.89,2.42,3.27,6.72,.84,9.62l-36.02,43.05c-1.92,2.29-5.03,3-7.67,1.99Z"/><path class="cls-3" d="M68.47,45.15c-3.04,.24-5.97-1.59-6.99-4.6l-6.72-19.72c-1.22-3.57,.69-7.45,4.26-8.67,3.52-1.19,7.45,.69,8.66,4.26l6.72,19.72c1.22,3.57-.69,7.45-4.26,8.67-.55,.19-1.11,.3-1.67,.34Z"/><path class="cls-9" d="M100.8,43.68c-.74,.06-1.49,0-2.25-.19-3.65-.93-5.85-4.66-4.91-8.31l5.19-20.19c.94-3.64,4.67-5.84,8.31-4.91,3.65,.93,5.85,4.66,4.91,8.31l-5.19,20.19c-.74,2.9-3.24,4.88-6.07,5.1Z"/><path class="cls-8" d="M41.51,63.23c-1.65,.13-3.33-.33-4.74-1.42l-16.59-12.93c-2.98-2.32-3.51-6.6-1.19-9.58,2.32-2.97,6.6-3.5,9.58-1.19l16.59,12.93c2.98,2.32,3.51,6.6,1.19,9.58-1.22,1.57-3,2.46-4.84,2.61Z"/><path class="cls-7" d="M27.84,91.67c-.61,.05-1.24,.02-1.86-.11l-20.47-4.04c-3.71-.73-6.11-4.32-5.38-8.02,.72-3.7,4.32-6.14,8.02-5.37l20.47,4.04c3.71,.73,6.11,4.32,5.38,8.02-.6,3.07-3.17,5.24-6.15,5.48Z"/></g></svg>