<?xml version="1.0" encoding="UTF-8"?><svg id="logo_Atos" xmlns="http://www.w3.org/2000/svg" viewBox="0 0 374.79 122.39"><defs><style>.cls-1{fill:#0097ff;}</style></defs><path class="cls-1" d="M337.85,50.5c-19.8-6.37-25.41-11.88-25.41-17.72,0-8.25,9.77-13.13,23.95-13.13,5.49,0,9.45,.5,12.21,1.11l-.1,16.29,18.66,.34,1.31-32.76c-8.82-2.12-22.38-4.64-33.7-4.64-26.23,0-46.93,12.44-46.93,34.93s14.38,29.3,39.84,37.22c19.67,6.13,21.74,10.83,21.74,16.86,0,6.92-9.66,12.08-22.02,12.08s-26.69-4.29-35.31-7.87c-2.33,5.01-7.35,13.45-10.67,18.27,12.76,7.02,28,10.84,45.1,10.84,26.11,0,48.26-12.37,48.26-36.88,0-19.05-11.44-26.76-36.94-34.94"/><path class="cls-1" d="M79.87,.76H29.14V15.64h12.73L10.14,105.27H0v14.89H42.56v-14.89h-10l5.78-16.34h46.13l5.8,16.34h-9.36v14.89h45.54v-14.89h-9.5L79.87,.76ZM44.88,70.48L61.38,23.84l16.54,46.64H44.88Z"/><path class="cls-1" d="M253.19,21.27s0-.02,0-.02c-6.29-2.67-13.21-4.13-20.48-4.13-1.86,0-3.7,.1-5.52,.29-6.36,8.7-10.13,19.42-10.13,31.03,0,21.81,13.27,40.51,32.16,48.5-4.75,3.3-10.42,5.23-16.51,5.23-16.77,0-30.38-14.51-30.38-32.41,0-7.71,2.54-14.8,6.76-20.36,0-8.22,2.93-23.14,7.32-29.68-21.22,6.84-36.34,26.97-36.34,50.04,0,9.17,2.36,17.78,6.47,25.3-4.98,5.26-11.72,8.25-18.13,8.25-8.69,0-14.95-6.81-14.95-17.02V39.49h27.12V20.85h-27.12V.72h-24.36V20.85h-17.88v18.64h17.88v49.19c0,25.28,17.61,33.58,34.7,33.58,14.32,0,25.99-6.75,32.46-14.56,9.46,9.08,22.29,14.68,36.44,14.68,28.67,0,52.64-23.42,52.64-52.63,0-21.81-13.27-40.51-32.17-48.49m8.46,58.38c-12.85-3.77-22.31-16.3-22.31-31.21,0-3.45,.52-6.78,1.46-9.9,12.85,3.78,22.3,16.3,22.3,31.22,0,3.45-.51,6.77-1.46,9.89"/></svg>