<?xml version="1.0" encoding="UTF-8"?><svg id="logo_save-a-space" xmlns="http://www.w3.org/2000/svg" xmlns:xlink="http://www.w3.org/1999/xlink" viewBox="0 0 560 138.09"><defs><style>.cls-1{fill:#fff;}.cls-2{fill:#22224a;}.cls-3{fill:#4024f3;isolation:isolate;opacity:.3;}.cls-4{fill:url(#Sfumatura_senza_nome_4);}.cls-5{fill:url(#Sfumatura_senza_nome_2);}.cls-6{fill:url(#Sfumatura_senza_nome_3);}</style><linearGradient id="Sfumatura_senza_nome_4" x1="51.39" y1="65.67" x2="51.32" y2="73.7" gradientTransform="matrix(1, 0, 0, 1, 0, 0)" gradientUnits="userSpaceOnUse"><stop offset="0" stop-color="#6c6ce5"/><stop offset=".22" stop-color="#6d6de5"/><stop offset="1" stop-color="#a5a5f4"/></linearGradient><linearGradient id="Sfumatura_senza_nome_3" x1="-17.9" y1="218.02" x2="-18.15" y2="217.22" gradientTransform="translate(964.7 13062.21) scale(50.07 -59.5)" gradientUnits="userSpaceOnUse"><stop offset="0" stop-color="#09c6ff"/><stop offset="1" stop-color="#15e5ff"/></linearGradient><linearGradient id="Sfumatura_senza_nome_2" x1="-17.86" y1="218.91" x2="-18.3" y2="217.78" gradientTransform="translate(943.45 13026.21) scale(50.07 -59.5)" gradientUnits="userSpaceOnUse"><stop offset="0" stop-color="#744afa"/><stop offset="1" stop-color="#4024f3"/></linearGradient></defs><path id="Shape" class="cls-2" d="M558.53,77.65c-.58,1.74-1.45,3.47-2.6,4.92-1.16,1.59-2.6,3.18-4.19,4.34-1.74,1.3-3.61,2.31-5.64,3.18-2.17,.87-4.48,1.3-6.8,1.16-2.89,0-5.64-.58-8.39-1.74-2.6-1.16-4.92-2.75-6.94-4.77-2.02-2.02-3.61-4.48-4.77-7.09-2.31-5.49-2.31-11.71,0-17.21,1.16-2.6,2.75-4.92,4.77-6.94s4.34-3.61,6.94-4.77c5.21-2.31,11.13-2.31,16.34-.14,2.46,1.01,4.77,2.6,6.65,4.48,1.88,2.02,3.47,4.34,4.48,6.94,1.16,2.89,1.74,5.93,1.59,8.96,0,.43,0,1.01-.14,1.45,0,.43-.14,.87-.14,1.3s-.14,1.01-.14,1.45h-30.22c.43,2.02,1.59,3.9,3.18,5.35,1.88,1.59,4.19,2.31,6.65,2.17,1.16,0,2.46-.14,3.61-.43,.87-.29,1.74-.72,2.46-1.16s1.3-1.01,1.88-1.74l11.42,.29Zm-19.23-20.24c-2.6-.14-5.06,.72-6.94,2.46-1.74,1.59-3.04,3.76-3.47,6.07h20.68c-.43-2.31-1.74-4.48-3.47-6.07-1.88-1.74-4.34-2.6-6.8-2.46h0Z"/><path id="Path" class="cls-2" d="M517.18,74.76c-.58,2.17-1.45,4.19-2.6,6.22s-2.75,3.76-4.48,5.35c-1.74,1.59-3.76,2.75-6.07,3.61-2.31,.87-4.77,1.45-7.23,1.3-2.89,0-5.64-.58-8.39-1.74-2.6-1.16-4.92-2.75-6.94-4.77-2.02-2.02-3.61-4.48-4.63-7.09-2.31-5.49-2.31-11.71,0-17.21,1.16-2.6,2.75-4.92,4.77-6.94,2.02-2.02,4.34-3.61,6.94-4.77s5.49-1.74,8.39-1.74c2.46,0,4.92,.43,7.23,1.3,2.17,.87,4.19,2.17,6.07,3.61,1.74,1.59,3.18,3.33,4.34,5.35,1.16,1.88,2.02,4.05,2.6,6.22h-10.84c-.43-1.16-1.16-2.17-2.02-3.04-.87-.87-1.88-1.59-2.89-2.17-1.45-.72-2.89-1.01-4.48-1.01-2.89,0-5.78,1.16-7.66,3.18-2.17,2.31-3.33,5.49-3.04,8.53-.14,3.18,1.01,6.22,3.04,8.53,2.02,2.17,4.77,3.33,7.66,3.18,1.59,0,3.04-.29,4.48-1.01,1.01-.58,2.02-1.3,2.89-2.02,.87-.87,1.59-1.88,2.02-3.18l10.84,.29Z"/><path id="Shape-2" class="cls-2" d="M455.43,46.99c2.31,0,4.63,.43,6.8,1.3,4.05,1.59,7.23,4.77,8.97,8.82,.87,2.17,1.3,4.48,1.3,6.8v26.89h-7.95l-1.88-4.19c-1.01,.87-2.17,1.74-3.33,2.46-1.16,.72-2.46,1.16-3.9,1.59-1.59,.43-3.33,.72-5.06,.72-4.77,0-8.39-1.16-10.84-3.47-2.46-2.17-3.9-5.49-3.76-8.82,0-2.02,.43-4.05,1.3-5.93,1.01-1.88,2.46-3.47,4.34-4.63,2.46-1.45,5.21-2.46,7.95-3.04,4.05-.87,8.24-1.16,12.29-1.16,.14-2.02-.58-4.05-1.88-5.49-1.3-1.3-3.18-2.02-5.21-2.02-1.16,0-2.31,.14-3.47,.72-.72,.43-1.45,1.01-2.02,1.59-.58,.72-1.01,1.45-1.16,2.31h-10.84c.29-2.02,.87-3.9,1.74-5.64,.87-1.74,2.17-3.33,3.61-4.63,1.59-1.45,3.61-2.46,5.64-3.18,2.31-.72,4.77-1.01,7.37-1.01Zm-3.33,35.86c2.46,.14,4.92-.87,6.8-2.6,1.74-1.74,2.75-4.05,2.6-6.51v-1.88c-2.6,0-5.21,.14-7.66,.43-1.59,.14-3.18,.58-4.63,1.16-.87,.43-1.74,1.01-2.17,1.88-.43,.72-.58,1.74-.58,2.6,0,1.3,.58,2.46,1.59,3.33,1.16,1.01,2.6,1.59,4.05,1.59h0Z"/><path id="Shape-3" class="cls-2" d="M413.94,46.99c2.6,0,5.35,.58,7.66,1.59,2.46,1.16,4.63,2.6,6.51,4.63,1.88,2.02,3.33,4.48,4.48,7.09,2.17,5.64,2.17,12,0,17.64-1.01,2.6-2.46,4.92-4.48,7.09-1.88,2.02-4.05,3.47-6.51,4.63-2.46,1.16-5.06,1.59-7.66,1.59-1.59,0-3.18-.14-4.77-.58-1.16-.43-2.46-.87-3.61-1.45-1.01-.58-2.02-1.3-3.04-2.17v18.8h-10.84V47.43h7.95l1.88,4.19c1.01-.87,2.17-1.74,3.33-2.31,1.3-.58,2.6-1.16,3.9-1.59,1.74-.58,3.47-.72,5.21-.72Zm-12.29,22.12c-.14,3.18,1.01,6.22,3.04,8.53,4.34,4.19,11.13,4.19,15.47,0,2.17-2.31,3.33-5.35,3.04-8.53,.14-3.18-1.01-6.22-3.04-8.53-4.34-4.19-11.13-4.19-15.47,0-2.02,2.31-3.18,5.35-3.04,8.53h0Z"/><path id="Path-2" class="cls-2" d="M364.92,77.07c.29,1.45,1.01,2.75,2.02,3.61,1.3,1.01,2.89,1.59,4.48,1.45,1.59,.14,3.18-.43,4.48-1.45,1.01-.72,1.59-2.02,1.59-3.18,0-1.01-.72-2.02-1.59-2.31-1.3-.58-2.75-1.16-4.05-1.59-1.59-.43-3.47-1.01-5.35-1.45-1.88-.43-3.61-1.16-5.21-2.17-1.59-1.01-3.04-2.17-4.05-3.76-1.16-1.74-1.74-3.9-1.74-6.07,0-3.61,1.59-6.94,4.19-9.25,1.45-1.3,3.18-2.17,4.92-2.89,2.02-.72,4.19-1.16,6.36-1.16,5.21,0,9.25,1.3,12,3.76s4.48,5.78,4.92,9.4h-10.41c-.43-1.16-1.01-2.17-2.02-2.89-1.16-1.01-2.6-1.45-4.05-1.45-1.45-.14-2.75,.29-3.76,1.16-.87,.72-1.45,1.88-1.45,3.04,0,1.01,.72,2.02,1.59,2.31,1.3,.58,2.75,1.16,4.05,1.59l5.35,1.45c1.88,.58,3.61,1.3,5.35,2.31,1.59,1.01,3.04,2.31,4.05,3.9,1.16,1.88,1.74,4.05,1.59,6.22,0,1.88-.29,3.61-1.16,5.21-.72,1.59-1.88,3.04-3.18,4.19-1.45,1.3-3.18,2.17-5.06,2.89-2.17,.72-4.34,1.16-6.65,1.16-5.64,0-9.98-1.3-12.87-3.9s-4.77-6.36-5.06-10.27l10.7,.14Z"/><polygon id="Path-3" class="cls-2" points="351.9 71.43 335.13 71.43 335.13 62.03 351.9 62.03 351.9 71.43"/><path id="Shape-4" class="cls-2" d="M314.74,46.99c2.31,0,4.63,.43,6.8,1.3,4.05,1.59,7.23,4.77,8.96,8.82,.87,2.17,1.3,4.48,1.3,6.8v26.89h-8.1l-1.88-4.19c-1.01,.87-2.17,1.74-3.33,2.46-1.16,.72-2.46,1.3-3.9,1.59-1.59,.43-3.33,.72-5.06,.72-4.77,0-8.39-1.16-10.84-3.47-2.46-2.17-3.9-5.49-3.76-8.82,0-2.02,.43-4.05,1.3-5.93,1.01-1.88,2.46-3.47,4.34-4.63,2.46-1.45,5.21-2.46,7.95-3.04,4.05-.87,8.24-1.16,12.29-1.16,.14-2.02-.58-4.05-1.88-5.49-2.31-2.02-5.78-2.6-8.53-1.16-.72,.43-1.45,1.01-2.02,1.59-.58,.72-1.01,1.45-1.16,2.31h-10.84c.29-2.02,.87-3.9,1.74-5.64,.87-1.74,2.17-3.33,3.76-4.48,1.74-1.45,3.61-2.46,5.64-3.18,2.31-.87,4.77-1.3,7.23-1.3Zm-3.33,35.72c2.46,.14,4.92-.87,6.8-2.46,1.74-1.74,2.6-4.05,2.6-6.51v-1.88c-2.6,0-5.21,.14-7.66,.43-1.59,.14-3.18,.58-4.63,1.16-.87,.43-1.74,1.01-2.17,1.88-.43,.72-.58,1.74-.58,2.6,0,1.3,.58,2.46,1.59,3.18,1.16,1.16,2.6,1.74,4.05,1.59Z"/><polygon id="Path-4" class="cls-2" points="293.05 71.43 276.42 71.43 276.42 62.03 293.2 62.03 293.05 71.43"/><path id="Shape-5" class="cls-2" d="M273.1,77.65c-.58,1.74-1.45,3.47-2.6,4.92-1.16,1.59-2.6,3.18-4.19,4.34-1.74,1.3-3.61,2.31-5.64,3.18-2.17,.87-4.48,1.3-6.8,1.16-2.89,0-5.78-.58-8.39-1.74-2.6-1.16-4.92-2.75-6.94-4.77-2.02-2.02-3.61-4.48-4.77-7.09-2.31-5.49-2.31-11.71,0-17.21,1.16-2.6,2.75-4.92,4.77-6.94,2.02-2.02,4.34-3.61,6.94-4.77,5.21-2.31,11.13-2.31,16.34-.14,2.46,1.01,4.77,2.6,6.65,4.48,1.88,2.02,3.47,4.34,4.48,6.94,1.16,2.89,1.74,5.93,1.59,8.96,0,.43,0,1.01-.14,1.45,0,.43-.14,.87-.14,1.3s-.14,1.01-.14,1.45h-30.22c.43,2.17,1.59,4.05,3.18,5.35,1.88,1.59,4.34,2.31,6.65,2.17,1.16,0,2.46-.14,3.61-.43,.87-.29,1.74-.72,2.46-1.16s1.3-1.01,1.88-1.74h11.42v.29Zm-19.38-20.24c-2.6-.14-5.06,.72-6.94,2.46-1.74,1.59-3.04,3.61-3.47,6.07h20.68c-.43-2.31-1.74-4.48-3.47-6.07-1.74-1.74-4.19-2.6-6.8-2.46h0Z"/><polygon id="Path-5" class="cls-2" points="233.48 47.43 217 90.81 206.58 90.81 190.1 47.43 201.38 47.43 211.79 77.36 222.2 47.43 233.48 47.43"/><path id="Shape-6" class="cls-2" d="M173.62,46.99c2.31,0,4.63,.43,6.8,1.3,4.05,1.59,7.23,4.77,8.96,8.82,.87,2.17,1.3,4.48,1.3,6.8v26.89h-7.95l-1.88-4.19c-1.01,.87-2.17,1.74-3.33,2.46-1.16,.72-2.46,1.3-3.9,1.59-1.59,.43-3.33,.72-5.06,.72-4.77,0-8.39-1.16-10.84-3.47-2.46-2.17-3.9-5.49-3.76-8.82,0-2.02,.43-4.05,1.3-5.93,1.01-1.88,2.46-3.47,4.34-4.63,2.46-1.45,5.21-2.46,7.95-3.04,4.05-.72,8.24-1.16,12.44-1.16,.14-2.02-.58-4.05-1.88-5.49-2.31-2.02-5.78-2.6-8.53-1.16-.72,.43-1.45,1.01-2.02,1.59-.58,.72-1.01,1.45-1.16,2.31h-10.84c.29-2.02,.87-3.9,1.74-5.64s2.17-3.33,3.76-4.63c1.74-1.45,3.61-2.46,5.64-3.18,2.02-.87,4.48-1.16,6.94-1.16Zm-3.33,35.86c2.46,.14,4.92-.87,6.8-2.6,1.74-1.74,2.75-4.05,2.6-6.51v-1.88c-2.6,0-5.21,.14-7.66,.43-1.59,.14-3.18,.58-4.63,1.16-.87,.43-1.74,1.01-2.17,1.88-.43,.72-.58,1.74-.58,2.6,0,1.3,.58,2.46,1.59,3.18,1.16,1.16,2.6,1.74,4.05,1.74h0Z"/><path id="Path-6" class="cls-2" d="M128.36,77.07c.29,1.45,1.01,2.75,2.02,3.61,2.6,2.02,6.36,2.02,8.96,0,1.01-.72,1.59-2.02,1.59-3.18,0-1.01-.72-2.02-1.59-2.31-1.3-.58-2.75-1.16-4.05-1.59-1.59-.43-3.47-1.01-5.35-1.45-1.88-.43-3.61-1.3-5.35-2.17-1.59-1.01-3.04-2.17-4.05-3.76-1.16-1.74-1.74-3.9-1.59-6.07,0-1.74,.43-3.47,1.16-5.06,.72-1.59,1.74-3.04,3.18-4.19,1.45-1.3,3.18-2.17,4.92-2.89,2.02-.72,4.19-1.16,6.36-1.16,5.21,0,9.25,1.3,12,3.76s4.48,5.78,4.92,9.4h-10.41c-.29-1.16-1.01-2.17-2.02-2.89-1.16-1.01-2.6-1.45-4.05-1.45-1.45-.14-2.75,.29-3.76,1.16-.87,.72-1.45,1.88-1.45,3.04s.58,2.17,1.74,2.46c1.3,.58,2.75,1.16,4.05,1.59l5.35,1.45c1.88,.58,3.61,1.3,5.35,2.31,1.59,1.01,3.04,2.31,4.05,3.9,1.16,1.88,1.74,4.05,1.59,6.22,0,1.74-.43,3.47-1.16,5.06-.72,1.59-1.88,3.04-3.18,4.19-1.45,1.3-3.18,2.17-5.06,2.89-2.17,.72-4.34,1.16-6.65,1.16-5.64,0-9.98-1.3-12.87-3.9s-4.77-6.36-5.06-10.27l10.41,.14Z"/><rect class="cls-4" x="10.08" y="52.05" width="82.56" height="33.98"/><polygon id="Path-7" class="cls-3" points="44.35 52.05 22.08 85.89 10.51 85.89 44.35 52.05"/><polygon id="Path-8" class="cls-3" points="58.81 86.03 81.22 52.05 92.64 52.05 58.81 86.03"/><path class="cls-6" d="M92.79,52.05l-48.3,48.3,1.01,1.01-1.45,1.45-1.01-1.01-12.44,12.44,7.09,7.09c2.75-2.89,7.23-3.04,10.12-.29,2.89,2.75,3.04,7.23,.29,10.12l-.29,.29,6.94,6.65,12.44-12.44-1.01-1.01,1.45-1.45,1.01,1.01,25.74-25.74c-.14,.14,20.53-24.29-1.59-46.42Z"/><path class="cls-5" d="M65.17,16.92c-2.75,2.89-7.23,3.04-10.12,.29-2.89-2.75-3.04-7.23-.29-10.12l.29-.29L48.25,0l-13.74,13.88,1.01,1.01-.72,.72-.72,.72-1.01-1.01L8.78,39.47s-20.68,24.44,1.45,46.56L57.07,39.19l-1.01-1.01,.72-.72,.72-.72,1.01,1.01,13.88-13.88-7.23-6.94Z"/><polygon class="cls-1" points="38.85 19.67 38.13 20.39 36.1 18.36 36.83 17.64 37.55 16.92 39.58 18.94 38.85 19.67"/><polygon class="cls-1" points="42.76 23.57 42.03 24.29 40.01 22.27 40.73 21.54 41.45 20.82 43.48 22.85 42.76 23.57"/><polygon class="cls-1" points="46.8 27.62 46.08 28.34 44.06 26.32 44.78 25.59 45.5 24.87 47.53 26.89 46.8 27.62"/><polygon class="cls-1" points="50.71 31.52 49.99 32.24 47.96 30.22 48.68 29.5 49.41 28.77 51.43 30.8 50.71 31.52"/><polygon class="cls-1" points="54.76 35.57 54.03 36.29 52.01 34.27 52.73 33.55 53.46 32.82 55.48 34.85 54.76 35.57"/><g><rect class="cls-1" x="46.79" y="103.69" width="2.04" height="2.86" transform="translate(-60.33 64.6) rotate(-45)"/><rect class="cls-1" x="50.84" y="107.59" width="2.04" height="2.86" transform="translate(-61.9 68.61) rotate(-45)"/><rect class="cls-1" x="54.75" y="111.64" width="2.04" height="2.86" transform="translate(-63.62 72.55) rotate(-45)"/><rect class="cls-1" x="58.8" y="115.55" width="2.04" height="2.86" transform="translate(-65.2 76.56) rotate(-45)"/><rect class="cls-1" x="62.7" y="119.6" width="2.04" height="2.86" transform="translate(-66.92 80.51) rotate(-45)"/></g></svg>