<?xml version="1.0" encoding="UTF-8"?><svg id="logo_Pycno" xmlns="http://www.w3.org/2000/svg" viewBox="0 0 560 179.69"><defs><style>.cls-1{fill:#8ac440;}.cls-2{fill:#221f1f;}.cls-3{fill:#39b24a;}</style></defs><path class="cls-2" d="M344.51,66.57c-13.02,0-23.79,4.45-32.92,13.62-9.14,9.17-13.58,19.92-13.58,32.88v38.12c0,2.42,.76,4.32,2.39,5.98,1.62,1.64,3.49,2.4,5.89,2.4s4.2-.77,5.86-2.42c1.65-1.65,2.43-3.54,2.43-5.95v-38.12c0-8.14,2.95-15.24,8.77-21.1,5.82-5.86,12.95-8.83,21.17-8.83s15.24,2.97,21.07,8.83c5.82,5.85,8.77,12.96,8.77,21.1v38.12c0,2.41,.77,4.3,2.42,5.95,1.65,1.65,3.51,2.42,5.86,2.42s4.24-.77,5.93-2.44c1.67-1.65,2.45-3.53,2.45-5.93v-38.12c0-12.95-4.47-23.7-13.67-32.87-9.2-9.17-19.94-13.63-32.83-13.63"/><path class="cls-2" d="M274.54,131.75c-2.34,0-4.19,.76-5.81,2.38-5.86,5.85-12.99,8.82-21.2,8.82s-15.32-2.98-21.05-8.86c-5.81-5.75-8.79-12.85-8.79-21.07s2.98-15.33,8.85-21.13c5.7-5.77,12.77-8.71,20.99-8.71s15.32,2.93,21.18,8.71c1.64,1.65,3.49,2.4,5.83,2.4s4.26-.77,5.95-2.42c1.58-1.58,2.33-3.44,2.33-5.81s-.77-4.31-2.41-5.99l-.15-.16c-9.13-8.96-19.84-13.33-32.7-13.33-13.02,.03-23.73,4.46-32.87,13.54-9.12,9.18-13.56,19.96-13.56,32.91s4.44,23.69,13.57,32.83c9.15,9.2,19.85,13.67,32.73,13.67s23.4-4.29,32.53-13.1l.18-.26,.31-.32c1.62-1.62,2.37-3.46,2.37-5.81s-.77-4.26-2.41-5.95c-1.61-1.57-3.5-2.33-5.87-2.33"/><path d="M42.84,66.57c-11.99,0-21.91,4.1-30.33,12.55C4.09,87.56,0,97.47,0,109.42v61.91c0,2.39,.79,4.34,2.4,5.96,1.62,1.61,3.56,2.4,5.95,2.4s4.27-.79,5.91-2.41c1.64-1.62,2.43-3.56,2.43-5.95v-61.91c0-7.12,2.58-13.32,7.66-18.43,5.09-5.12,11.3-7.72,18.48-7.72s13.32,2.6,18.4,7.73c5.08,5.11,7.65,11.31,7.65,18.43s-2.58,13.38-7.67,18.43c-5.08,5.06-11.26,7.62-18.38,7.62-2.38,0-4.32,.81-5.92,2.47-1.64,1.67-2.43,3.59-2.43,5.88s.79,4.35,2.41,6.01c1.62,1.63,3.56,2.43,5.94,2.43,11.89,0,21.78-4.11,30.24-12.56,8.47-8.44,12.6-18.34,12.6-30.28s-4.13-21.85-12.6-30.3c-8.47-8.44-18.36-12.55-30.24-12.55"/><path d="M184.1,69.01c-1.61-1.66-3.54-2.45-5.92-2.45s-4.24,.8-5.89,2.47c-1.65,1.67-2.45,3.59-2.45,5.88v16.68c0,7.34-2.66,13.69-7.89,18.85-3.84,3.83-8.31,6.27-13.28,7.26l-.66,.08-8.7-.03c-5.27-1.01-9.8-3.47-13.66-7.33-5.22-5.14-7.87-11.48-7.87-18.82v-16.68c0-2.28-.81-4.2-2.46-5.88-1.63-1.66-3.56-2.46-5.89-2.46s-4.3,.79-5.91,2.45c-1.63,1.67-2.43,3.61-2.43,5.9v19.69l.35,2.75c1.17,9.62,5.19,17.77,12.32,24.93,5.22,5.23,11.18,8.88,17.72,10.85l2.36,.72v19.46c0,2.38,.79,4.33,2.4,5.94,1.61,1.61,3.56,2.39,5.94,2.39s4.27-.78,5.91-2.4c1.66-1.64,2.43-3.53,2.43-5.93v-18.82l2.59-.57c7.78-1.74,14.75-5.65,20.73-11.63,7.41-7.44,11.48-15.97,12.45-26.08l.22-2.41v-18.88c0-2.29-.8-4.22-2.43-5.9"/><path class="cls-3" d="M480.35,43.47c1.53,7.91,.41,15-2,20.53,1.18,.6,2.33,1.25,3.46,1.92,3.57-4.33,9.3-10.28,17.21-15.19,12.15-7.55,49.91-15.22,49.91-15.22-36.03,11.85-56.4,24.64-65.52,31.39,7.59,4.95,13.88,11.73,18.2,19.74,4.22-.53,8.72-1.61,13.52-3.64,28.85-12.17,44.87-53.62,44.87-53.62-42.7-10.71-67.44-.11-79.65,14.09"/><path class="cls-1" d="M480.35,43.47c-2.62-13.54-12.98-29.36-38.26-43.47,0,0-13.46,33.17-3.25,56.22,.59,1.32,1.26,2.43,1.91,3.59,4.23-1.06,8.62-1.68,13.18-1.68,3.9,0,7.7,.43,11.37,1.22-2.37-10.12-7.76-26.98-20.09-49.64,0,0,17.92,25.34,20.89,36.47,1.36,5.07,1.79,9.86,1.84,13.84,1.18,.32,2.35,.66,3.51,1.06,2.38,.82,4.69,1.79,6.91,2.92,2.41-5.53,3.53-12.62,2-20.53"/><path class="cls-2" d="M493.76,91c-2.12-3.84-4.86-7.43-8.25-10.8-1.66-1.66-3.37-3.15-5.13-4.5-.44-.34-.89-.66-1.34-.98-7.69-5.47-16.37-8.16-26.37-8.16-.65,0-1.29,.02-1.93,.04-12.15,.43-22.3,4.88-30.98,13.58-9.14,9.17-13.58,19.93-13.58,32.88s4.44,23.71,13.58,32.89c3.02,3.03,6.22,5.53,9.63,7.54,6.88,4.07,14.58,6.07,23.29,6.07s16.32-2.01,23.2-6.09c3.4-2.01,6.59-4.51,9.63-7.53,9.2-9.17,13.67-19.92,13.67-32.87,0-8.18-1.79-15.48-5.42-22.06m-18.11,41.08c-.6,.71-1.24,1.42-1.92,2.1-5.82,5.78-12.91,8.72-21.05,8.72s-15.32-2.94-21.14-8.72c-.68-.68-1.32-1.38-1.92-2.09-4.55-5.38-6.87-11.77-6.87-19.03,0-8.14,2.95-15.24,8.77-21.1,5.83-5.87,12.95-8.84,21.16-8.84s15.24,2.97,21.07,8.84c5.82,5.86,8.77,12.95,8.77,21.1,0,7.26-2.32,13.64-6.87,19.02"/></svg>