<?xml version="1.0" encoding="UTF-8"?><svg id="logo_PurpleBlob" xmlns="http://www.w3.org/2000/svg" viewBox="0 0 260 259.97"><defs><style>.cls-1{fill:#840e5b;}</style></defs><path class="cls-1" d="M225.7,110.8c11.61,.05,20.92,9.4,20.81,20.99-.1,11.34-9.14,20.73-20.9,20.69-12.26-.04-20.93-10.07-20.8-21,.14-11.52,9.41-20.74,20.89-20.69Z"/><g><path class="cls-1" d="M90.27,259.97c-41.34,.12-77.2-27.93-87.43-67.54-2.31-8.94-3.24-18.04-2.69-27.25,1.34-22.27,9.68-41.56,25.13-57.66,12.65-13.18,28.02-21.64,45.87-25.55,5.9-1.29,11.88-1.83,17.92-1.99,14.17-.37,28.07-2.42,41.52-7.06,6.65-2.29,12.93-5.31,18.55-9.6,5.2-3.97,9.37-8.79,11.99-14.85,1-2.31,1.7-4.71,2.17-7.18,1.04-5.54,2.62-10.91,5.41-15.85,7.68-13.59,19.16-22.06,34.54-24.72,26.1-4.5,50.1,12.51,55.58,37.37,5.76,26.09-10.6,51.85-36.63,57.83-2,.46-4.01,.88-6.01,1.38-6.35,1.6-11.65,4.98-16.16,9.65-4.72,4.88-8.09,10.64-10.76,16.83-2.94,6.79-4.93,13.87-6.37,21.11-1.69,8.53-2.73,17.13-2.87,25.83-.15,9.53-1.64,18.83-4.66,27.87-9.94,29.73-35.01,52.37-65.58,59.21-6.52,1.46-13.12,2.21-19.54,2.15ZM241.33,48.28c-.04-16.71-13.73-29.73-29.93-29.55-15.95,.18-29.46,13.21-29.23,30.01,.23,16.46,13.7,29.22,29.64,29.14,16.39-.08,29.6-13.33,29.52-29.61ZM96.51,166.06c.05-.09,.1-.18,.16-.27-1.81-2.81-3.61-5.63-5.39-8.4,.08-.13,.09-.17,.12-.19,.22-.14,.44-.28,.66-.42,1.9-1.18,3.12-2.88,3.67-5.04,.4-1.54,.48-3.09,.27-4.67-.37-2.74-1.71-4.83-4.13-6.19-1.49-.84-3.11-1.32-4.81-1.36-4.22-.09-8.45-.1-12.67-.13-.21,0-.43,.07-.63,.11-.24,1.39-.17,25.66,.1,26.53,1.89,.02,3.81,.02,5.85,0,.07-2.6-.02-5.05,.06-7.53h5.96c1.07,1.93,2.12,3.83,3.19,5.71,1.27,2.24,.52,1.78,3.15,1.83,1.49,.02,2.97,0,4.46,0Zm57.2-10.86c2.15,0,4.23,0,6.32,0,2.08,0,4.16-.01,6.28-.02v-5.08h-12.6v-5.58h7c1.2,0,2.4,0,3.59,0,1.14-.01,2.29,.05,3.45-.05v-5h-20.08c-.25,1.18-.21,25.64,.04,26.51,.13,.02,.27,.07,.41,.07,6.44,0,12.87,0,19.31,0,.18,0,.37-.04,.55-.07,.03,0,.06-.05,.08-.07s.05-.05,.08-.07v-4.93h-1.39c-3.97,0-7.93,0-11.9,0-.39,0-.78-.04-1.15-.06,0-1.93,0-3.71,0-5.65Zm-109.04-15.72v1.17c0,1.91,0,3.81,0,5.72,0,3.22-.06,6.43,.04,9.65,.16,5.2,3.47,9.03,8.57,10.1,1.81,.38,3.64,.45,5.46,.19,4.44-.64,7.67-2.86,9.04-7.28,.35-1.13,.53-2.35,.54-3.53,.06-5.05,.03-10.1,.02-15.15,0-.28-.06-.57-.09-.83-1.38-.25-5.16-.2-6.02,.1v1.19c0,4.6,0,9.2,0,13.8,0,.49,0,.97-.04,1.46-.26,2.65-1.91,4.51-4.45,4.92-3.16,.5-6.12-.9-6.82-4.42-.14-.69-.13-1.41-.13-2.12-.01-4.52,0-9.05,0-13.57v-1.41c-2.09,0-4.04,0-6.12,0Zm62.43,18.98c1.21,0,2.22,.03,3.22,0,1.6-.05,3.23,0,4.81-.25,3.74-.61,6.38-2.62,7.44-6.4,.44-1.57,.49-3.19,.27-4.79-.46-3.33-2.29-5.64-5.46-6.78-1.04-.37-2.17-.66-3.27-.69-4.11-.12-8.23-.11-12.34-.15-.21,0-.43,.07-.63,.11-.25,1.4-.17,25.68,.1,26.52,1.9,.05,3.82,.04,5.86,.01,0-2.58,0-5,0-7.58Zm-81.52,0c.99,0,1.76,.02,2.54,0,1.83-.06,3.68,.03,5.48-.26,3.79-.6,6.44-2.66,7.48-6.5,.4-1.46,.44-2.97,.27-4.46-.38-3.23-2-5.62-5.07-6.83-1.2-.47-2.52-.83-3.79-.87-4.07-.14-8.15-.12-12.23-.15-.21,0-.43,.07-.63,.11-.24,1.33-.18,25.66,.09,26.54,1.89,.02,3.82,.02,5.86,0v-7.59Zm-6.37,17.08v26.4c.19,.05,.29,.11,.4,.11,4.19,0,8.38,.04,12.57-.06,1.93-.05,3.76-.63,5.34-1.82,2.13-1.61,2.79-3.83,2.48-6.36-.31-2.51-1.71-4.25-4.08-5.18-.4-.16-.82-.28-1.37-.47,.41-.2,.71-.34,1-.48,1.04-.49,1.87-1.23,2.46-2.22,1.86-3.11,.72-7.2-2.48-8.89-1.45-.77-3.03-1.07-4.65-1.08-3.59-.03-7.18-.01-10.77,0-.26,0-.51,.04-.88,.06Zm77.41,26.38c.16,.06,.26,.12,.37,.12,4.22,0,8.45,.04,12.67-.06,1.77-.04,3.46-.58,4.95-1.6,2.27-1.56,3.08-3.77,2.79-6.43-.3-2.72-1.8-4.52-4.36-5.44-.32-.11-.64-.21-1.19-.38,1.5-.55,2.59-1.25,3.36-2.37,2.19-3.19,.97-7.66-2.55-9.34-1.41-.67-2.91-.94-4.46-.95-3.55-.02-7.1,0-10.65,0-.29,0-.57,.05-.91,.09,0,8.83,0,17.59,0,26.35Zm47.27-35.93c.26-1.15,.23-4.44-.06-5.29-3.66-.08-7.34,.05-11.12-.08v-21.06c-1.27-.26-5.16-.22-5.99,.04v26.39h17.17Zm-66.84,36.38c.96-.11,1.95-.14,2.89-.35,5.15-1.17,8.75-4.22,10.35-9.26,1.57-4.96,.5-9.53-3.16-13.26-3.76-3.84-8.42-5-13.61-3.78-7.27,1.71-11.74,9.04-9.94,16.27,1.59,6.38,7.54,10.46,13.48,10.38Zm-16.38-2.75h-1.35c-2.95,0-5.91,0-8.87,0-.43,0-.86-.06-1.4-.09v-16.02c0-1.31,0-2.62,0-3.93,0-1.33-.02-2.66-.03-4h-2.64v26.35c1.29,.23,13.45,.18,14.34-.07,0-.38,0-.79,0-1.19,0-.3-.04-.59-.07-1.05Zm68.53,3.15c2.79-.01,4.97-2.23,4.94-5.01-.03-2.71-2.24-4.91-4.95-4.93-2.74-.02-5,2.24-5,4.99,0,2.78,2.21,4.96,5.01,4.95Z"/><path class="cls-1" d="M79.88,144.56c2.12,0,4.17-.03,6.22,.02,.58,.01,1.18,.2,1.73,.4,1.25,.46,2.04,1.36,2.31,2.67,.52,2.47-.28,5.39-4.08,5.61-2.04,.12-4.1,.02-6.13,.02-.27-.88-.31-7.4-.06-8.72Z"/><path class="cls-1" d="M107.19,153.32v-8.69c.31-.03,.59-.09,.88-.09,1.38,0,2.76-.02,4.14,0,.52,0,1.04,.06,1.55,.16,2.61,.53,3.47,2.27,3.39,4.41-.09,2.41-1.51,3.87-3.89,4.13-.52,.06-1.04,.06-1.57,.07-1.45,0-2.91,0-4.51,0Z"/><path class="cls-1" d="M25.68,153.21v-8.69c.92,0,1.77,0,2.62,0,.94,0,1.88-.05,2.8,.03,.77,.07,1.56,.23,2.28,.51,1.23,.49,1.95,1.48,2.13,2.81,.07,.48,.1,.97,.07,1.45-.15,2.17-1.37,3.64-3.53,3.84-2.07,.19-4.17,.04-6.37,.04Z"/><path class="cls-1" d="M21.94,199.49v-9.77c.3-.04,.54-.11,.79-.1,2.8,0,5.6,.02,8.4,.04,1.17,0,2.3,.26,3.36,.75,1.74,.81,2.75,2.14,2.77,4.11,.02,2-.94,3.4-2.72,4.27-1.27,.62-2.64,.79-4.03,.81-2.61,.03-5.23,.02-7.84,.02-.22,0-.43-.07-.73-.12Z"/><path class="cls-1" d="M21.94,187.02v-8.94c.34-.03,.63-.07,.91-.07,2.58,0,5.16,0,7.74,0,1.1,0,2.16,.18,3.15,.69,1.41,.73,2.17,1.88,2.25,3.49,.08,1.74-.45,3.17-2,4.1-.89,.53-1.86,.82-2.88,.84-2.95,.04-5.91,.01-8.86,.01-.07,0-.14-.05-.31-.11Z"/><path class="cls-1" d="M99.38,199.51v-9.81c.29-.03,.54-.08,.8-.08,2.73,0,5.46,.01,8.19,.03,1.21,0,2.38,.24,3.49,.74,1.81,.81,2.83,2.2,2.82,4.21,0,1.99-.99,3.39-2.8,4.23-1.29,.6-2.66,.76-4.05,.78-2.58,.03-5.16,.01-7.74,.01-.22,0-.43-.06-.71-.1Z"/><path class="cls-1" d="M99.36,187.11v-9.03c.35-.03,.67-.07,.99-.07,2.54,0,5.08,0,7.62,0,1.06,0,2.08,.17,3.05,.63,1.52,.73,2.32,1.95,2.39,3.63,.07,1.74-.49,3.2-2.09,4.03-.78,.4-1.68,.76-2.54,.78-3.09,.09-6.19,.04-9.42,.04Z"/><path class="cls-1" d="M88.14,189.01c-.09,5.89-5.09,11.01-11.3,10.81-6.3-.21-11.05-5.3-10.86-11.49,.18-5.92,5.4-10.92,11.87-10.56,5.75,.33,10.53,5.48,10.29,11.24Z"/></g></svg>