<?xml version="1.0" encoding="UTF-8"?>
<svg id="Layer_1" data-name="Layer 1" xmlns="http://www.w3.org/2000/svg" xmlns:xlink="http://www.w3.org/1999/xlink" viewBox="0 0 1224.3 380.3">
  <defs>
    <style>
      .cls-1 {
        isolation: isolate;
      }

      .cls-2 {
        fill: #787579;
      }

      .cls-3 {
        fill: url(#Sfumatura_senza_nome);
      }

      .cls-4 {
        fill: url(#Sfumatura_senza_nome_3);
      }

      .cls-5 {
        fill: url(#Sfumatura_senza_nome_2);
      }
    </style>
    <linearGradient id="Sfumatura_senza_nome" data-name="Sfumatura senza nome" x1="705.7" y1="298.94" x2="959.5" y2="305.84" gradientTransform="translate(0 381.2) scale(1 -1)" gradientUnits="userSpaceOnUse">
      <stop offset="0" stop-color="#009dc1"/>
      <stop offset=".5" stop-color="#62ff3b"/>
      <stop offset="1" stop-color="#edd024"/>
    </linearGradient>
    <linearGradient id="Sfumatura_senza_nome_2" data-name="Sfumatura senza nome 2" x1="871.56" y1="2.81" x2="960.36" y2="294.21" gradientTransform="translate(0 381.2) scale(1 -1)" gradientUnits="userSpaceOnUse">
      <stop offset="0" stop-color="#e63a37"/>
      <stop offset=".5" stop-color="#f19d21"/>
      <stop offset=".9" stop-color="#edd024"/>
    </linearGradient>
    <linearGradient id="Sfumatura_senza_nome_3" data-name="Sfumatura senza nome 3" x1="803.64" y1="-12.13" x2="693.14" y2="200.17" gradientTransform="translate(0 381.2) scale(1 -1)" gradientUnits="userSpaceOnUse">
      <stop offset="0" stop-color="#e63a37"/>
      <stop offset=".5" stop-color="#b22782"/>
      <stop offset="1" stop-color="#009dc1"/>
    </linearGradient>
  </defs>
  <path class="cls-2" d="M1168.3,307.7h-100c-4.6,0-8.5-1.6-11.8-4.9-3.3-3.3-4.9-7.2-4.9-11.8s1.6-8.5,4.9-11.8,7.2-4.9,11.8-4.9h100c7.7,0,13.8-1.9,18.4-5.6,2.8-2,4.4-5.7,4.3-17.1,0-11.7-8.1-17.5-24.4-17.5h-67.1c-7.4,0-15.5-1.7-24.4-5.1-18.5-7.7-27.8-22.5-27.8-44.4s4.5-31.8,13.5-40.7c9-8.8,19.3-13.8,31-15,4.3-.6,18.5-.9,42.7-.9s8.5,1.6,11.8,4.7,4.9,7.1,4.9,12-1.6,8.5-4.9,11.8-7.2,4.9-11.8,4.9h-35c-12.5,0-18.6,7.6-18.6,20.4s2.4,14.2,7.5,16.4c3.4,1.7,7.1,2.6,11.1,2.6h66.7c17.4,0,31.9,5,43.6,15,9.7,8.5,14.5,20.5,14.5,35.9s-5.3,33.2-15.8,42.3-23.9,13.7-40.2,13.7h0Z"/>
  <path class="cls-2" d="M163.1,307.7c-4.6,0-8.6-1.7-12.2-5.1-3.6-3.4-5.3-7.5-5.3-12.4v-72.2c0-15.1-5.4-28.1-16.2-39.1-10.8-11-23.9-16.5-39.3-16.5s-28.9,5.5-39.7,16.5-16.2,24.1-16.2,39.5v72.2c0,4.6-1.6,8.5-4.9,12-3.3,3.4-7.3,5.1-12.2,5.1s-8.5-1.7-12-5.1c-3.4-3.4-5.1-7.5-5.1-12.4V17.1c0-4.8,1.6-8.9,4.9-12.2C8.2,1.6,12.1,0,16.7,0s9,1.7,12.4,5.1,5.1,7.6,5.1,12.4v125.7c0,1.1.7,1.9,2.1,2.1l1.3-.4c6.8-4.8,15.2-8.8,25-12,9.8-3.1,18.9-4.7,27.1-4.7,25.1,0,46.4,8.9,63.9,26.7,17.5,17.8,26.3,39.1,26.3,63.9v71.8c0,4.6-1.6,8.5-4.7,12-3.1,3.4-7.1,5.1-12,5.1h-.1Z"/>
  <path class="cls-2" d="M326.4,307.7c-24.8,0-45.9-8.8-63.5-26.5-17.5-17.7-26.3-38.9-26.3-63.7s8.8-45.5,26.3-63,38.8-26.3,63.9-26.3,45.5,8.8,63,26.3,26.3,38.7,26.3,63.5-1.6,8.5-4.9,12c-3.3,3.4-7.3,5.1-12.2,5.1h-74.1c-4.8,0-9-1.7-12.4-5.1-3.4-3.4-5.1-7.5-5.1-12.4s1.7-8.5,5.1-11.8,7.4-4.9,12-4.9h51.9c1.4,0,2.1-.6,2.1-1.7-3.4-10.5-10.8-19.5-22.2-26.9-10-6.6-20.4-9.8-31.2-9.8-15.4.9-28.3,6.6-38.7,17.1-10.4,10.5-15.6,23.4-15.6,38.5s5.5,28.5,16.5,39.3,24,16.2,39.1,16.2,8.9,1.6,12.2,4.9c3.3,3.3,4.9,7.3,4.9,12.2s-1.6,8.5-4.9,12c-3.3,3.4-7.3,5.1-12.2,5.1v-.1Z"/>
  <path class="cls-2" d="M494.4,307.7c-4.8,0-9-1.7-12.4-5.1-3.4-3.4-5.1-7.4-5.1-12V17.1c0-4.8,1.7-8.9,5.1-12.2C485.4,1.6,489.5,0,494.4,0s8.9,1.6,12.2,4.9,4.9,7.3,4.9,12.2v273.5c0,4.6-1.6,8.5-4.9,12-3.3,3.4-7.3,5.1-12.2,5.1Z"/>
  <path class="cls-2" d="M591.8,114.4c-5.4,0-10-1.9-13.9-5.8-3.8-3.8-5.8-8.5-5.8-13.9s1.9-10.4,5.8-14.1c3.8-3.7,8.5-5.6,13.9-5.6s10.5,1.9,14.3,5.6,5.8,8.4,5.8,14.1-1.9,10-5.8,13.9c-3.8,3.8-8.6,5.8-14.3,5.8ZM592.2,307.7c-4.8,0-9-1.7-12.4-5.1-3.4-3.4-5.1-7.4-5.1-12v-145.3c0-4.8,1.7-8.9,5.1-12.2,3.4-3.3,7.5-4.9,12.4-4.9s8.9,1.6,12.2,4.9,4.9,7.3,4.9,12.2v145.3c0,4.6-1.6,8.5-4.9,12-3.3,3.4-7.3,5.1-12.2,5.1Z"/>
  <circle class="cls-2" cx="831.5" cy="190.1" r="50.6"/>
  <path class="cls-3" d="M747.9,69.2c5.7-3.8,11.7-7.3,18-10.3,3.8-1.8,7.7-3.5,11.6-5,2-.7,4-1.4,6-2.1,4-1.3,8.2-2.5,12.4-3.4,2.1-.5,4.2-.9,6.3-1.3s4.3-.7,6.4-1c6.5-.9,13.1-1.3,19.8-1.3h0c26.7,0,51.7,7.2,73.2,19.7,5.4,3.1,10.5,6.6,15.4,10.4,3.3,2.5,6.4,5.2,9.5,8,3,2.8,6,5.7,8.8,8.7s5.5,6.2,8,9.4c2.5,3.3,4.9,6.6,7.2,10.1,2.3,3.5,4.4,7,6.3,10.7.7,1.3,1.3,2.5,2,3.8,4.5,9,8,18.5,10.5,28.5,3.4-12.2,4.3-25.5,2.5-39.2-3.7-28.2-18.4-55-41.2-75.4-10.6-9.5-21.9-17.6-33.4-24.2-9.4-5.4-19.6-9.4-30.2-11.5h-.2c-6.2-1.3-12.5-2.2-18.9-2.9-3.2-.3-6.4-.6-9.7-.7C835,0,831.7,0,828.4,0s-4.2,0-6.2.1c-6.2.2-12.3.7-18.4,1.5-8.1,1-16,2.6-23.7,4.6-5.1,1.3-10.2,2.9-15.2,4.7-2.3.8-4.6,1.7-6.9,2.6-4.5,1.8-9,3.8-13.3,5.9-4.4,2.1-8.6,4.4-12.8,6.9-4.2,2.4-8.2,5.1-12.2,7.8-3.9,2.7-7.8,5.6-11.5,8.7-5.6,4.5-10.9,9.4-15.9,14.6-5,5.1-9.8,10.6-14.2,16.3-5.1,6.5-9.6,13.3-13.8,20.5-.6,1.1-1.3,2.1-1.9,3.2-7.5,13.3-13.4,27.6-17.5,42.7,20.8-42.6,60.6-70.3,102.8-70.5l.2-.4Z"/>
  <path class="cls-5" d="M973.4,180.2c.2,3.3.4,6.6.4,9.9,0,32.6-10.7,62.7-28.9,86.9-2.8,3.7-5.8,7.3-8.9,10.8-3.1,3.4-6.4,6.7-9.9,9.9-3.4,3.1-7,6.1-10.8,8.9-3.7,2.8-7.6,5.4-11.6,7.8-3,1.8-6.1,3.5-9.2,5.1s-6.3,3.1-9.6,4.5c-2.2.9-4.4,1.8-6.6,2.6-5.8,2.1-11.9,3.9-18,5.3-10.3,2.3-21,3.5-31.9,3.5h0c-3.5,0-7-.1-10.4-.4-1.9-.1-3.9-.3-5.8-.5-2.9-.3-5.8-.7-8.7-1.2-.5,0-1.1-.2-1.6-.3-4.7-.9-9.4-2-13.9-3.3,8.8,9.1,19.8,16.6,32.5,22,26.2,11.1,56.7,12,85.9,2.7,17.5-5.6,33.6-13.3,47.7-22.7,3.3-2.2,6.4-4.8,9.3-7.6h0l.1-.1c1.4-1.4,2.8-2.8,4.2-4.3,4-4.3,7.7-8.7,11.3-13.3,3.6-4.6,6.9-9.4,10.1-14.3,3.1-4.9,6.1-10,8.7-15.3,1-2,2-3.9,2.9-5.9,2.8-6,5.3-12.2,7.5-18.5,2.9-8.4,5.3-17.1,7-26.1.6-2.9,1.1-5.9,1.5-8.8,1.3-8.9,1.9-18,1.9-27.2,0-52.2-21.1-99.5-55.1-133.9,11.8,17.3,19.4,36.8,22,56.9,3.2,24.4-1.1,47.5-12.2,67l.1-.1Z"/>
  <path class="cls-4" d="M866.4,374.7c-17.8,0-35.2-3.4-51.2-10.2-22.6-9.6-40.4-25-51.6-44.3-3.2-1.6-6.4-3.3-9.5-5.2-11-6.6-21.1-14.6-30-23.7-5.1-5.2-9.8-10.8-14-16.8-3.2-4.5-6.1-9.1-8.8-13.9-1.8-3.2-3.4-6.5-5-9.8-3.1-6.7-5.7-13.7-7.7-20.9s-3.5-14.6-4.5-22.3c-.7-5.7-1-11.5-1-17.4,0-23.9,5.8-46.5,16-66.4,2.6-5,5.4-9.8,8.5-14.4,1-1.5,2.1-3.1,3.2-4.6.8-1,1.5-2.1,2.3-3.1,2.4-3.1,4.8-6,7.4-8.9,1.7-1.9,3.5-3.8,5.3-5.6l1.5-1.5c-37.9,9.5-70.5,44.2-80.4,90.5,0,.2,0,.4-.1.5-8.2,39.2-1,80.3,20.3,114.2,10.2,16.3,22.8,30.9,37.3,43.4,6.2,5.4,12.8,10.3,19.7,14.9,4.6,3,9.3,5.8,14.2,8.5,4.9,2.6,9.9,5,15,7.2s10.3,4.2,15.7,5.9c2.3.8,4.7,1.5,7.1,2.2,4.7,1.4,9.6,2.5,14.5,3.5,12.2,2.5,24.9,3.8,37.8,3.8s15.8-.5,23.5-1.4c2.6-.3,5.1-.7,7.6-1.1,5.5-.9,11-2.1,16.3-3.5-3.2.2-6.4.3-9.6.3l.2.1Z"/>
  <g class="cls-1">
    <g class="cls-1">
      <path class="cls-2" d="M83.12,85.54c-4.91-1.72-8.7-3.98-11.38-6.8l2.99-5.87c2.61,2.61,6.08,4.72,10.4,6.33s8.79,2.42,13.39,2.42c6.45,0,11.29-1.18,14.52-3.55,3.23-2.37,4.84-5.44,4.84-9.22,0-2.88-.88-5.18-2.63-6.9-1.75-1.72-3.9-3.04-6.44-3.97-2.54-.93-6.08-1.94-10.61-3.04-5.43-1.37-9.75-2.69-12.98-3.97-3.23-1.27-5.99-3.21-8.29-5.82-2.3-2.61-3.45-6.14-3.45-10.61,0-3.64.96-6.95,2.88-9.94,1.92-2.99,4.87-5.37,8.86-7.16,3.98-1.79,8.93-2.68,14.83-2.68,4.12,0,8.15.57,12.1,1.7,3.95,1.13,7.36,2.7,10.25,4.69l-2.58,6.08c-3.02-1.99-6.25-3.48-9.68-4.48-3.43-1-6.8-1.49-10.09-1.49-6.32,0-11.07,1.22-14.27,3.66-3.19,2.44-4.79,5.58-4.79,9.42,0,2.88.88,5.2,2.63,6.95s3.95,3.09,6.59,4.02c2.64.93,6.2,1.94,10.66,3.04,5.29,1.3,9.56,2.59,12.82,3.86,3.26,1.27,6.03,3.19,8.29,5.77s3.4,6.06,3.4,10.46c0,3.64-.98,6.95-2.94,9.94-1.96,2.99-4.96,5.36-9.01,7.11-4.05,1.75-9.03,2.63-14.94,2.63-5.36,0-10.49-.86-15.4-2.58Z"/>
      <path class="cls-2" d="M216.87,15.4v72.1h-7.31V29.82l-28.32,48.51h-3.61l-28.32-48.2v57.37h-7.31V15.4h6.28l31.31,53.46,31-53.46h6.28Z"/>
      <path class="cls-2" d="M285.57,68.24h-40.17l-8.65,19.26h-7.93l32.96-72.1h7.52l32.96,72.1h-8.03l-8.65-19.26ZM282.79,62.06l-17.3-38.73-17.3,38.73h34.61Z"/>
      <path class="cls-2" d="M363.43,87.5l-16.48-23.17c-1.85.21-3.78.31-5.77.31h-19.36v22.87h-7.62V15.4h26.99c9.2,0,16.41,2.2,21.63,6.59,5.22,4.39,7.83,10.44,7.83,18.13,0,5.63-1.43,10.39-4.27,14.27-2.85,3.88-6.92,6.68-12.21,8.39l17.61,24.72h-8.34ZM357.36,53.41c3.78-3.16,5.67-7.59,5.67-13.29s-1.89-10.32-5.67-13.44c-3.78-3.12-9.24-4.69-16.38-4.69h-19.16v36.15h19.16c7.14,0,12.6-1.58,16.38-4.74Z"/>
      <path class="cls-2" d="M401.65,21.99h-25.34v-6.59h58.3v6.59h-25.34v65.51h-7.62V21.99Z"/>
    </g>
  </g>
</svg>