<?xml version="1.0" encoding="UTF-8"?><svg id="logo_Beeta" xmlns="http://www.w3.org/2000/svg" viewBox="0 0 560 194.02"><defs><style>.cls-1{fill:#ffaf17;}.cls-2{fill:#fff;}.cls-3{fill:#1e3c6d;}</style></defs><path class="cls-3" d="M162.27,106.88c3.87,2.31,7.78,4.24,11.22,6.79,9.01,6.68,14.15,15.76,15.98,26.82,1.3,7.83,.92,15.65-.83,23.25-3.19,13.85-12.55,24.82-27.53,28.39-5.46,1.3-10.97,1.87-16.59,1.84-17.44-.08-34.89,.16-52.33-.18-5.38-.11-11-.93-16.06-2.71-13.07-4.59-21.01-13.97-24.03-27.64-2.55-11.54-2.48-22.83,2.24-33.74,3.69-8.53,9.92-15.02,17.98-19.66,1.9-1.09,4.07-1.73,6.63-2.79-2.2-1.24-4.12-2.2-5.91-3.37-1.87-1.22-3.61-2.65-5.41-3.99l.39-1.19c-1.33,1.56-2.81,3.02-3.97,4.7-2.79,4.03-5.49,8.12-8.11,12.26-9.54,15-30.16,12.19-37.98-1.85-3.27-5.87-4.43-12.36-1.7-18.99,.28-.69,.38-1.45,.6-2.31-.72-.37-1.28-.72-1.89-.95-6.98-2.58-11.31-7.77-13.99-14.45C.35,75.51-.01,73.67,0,71.94c.04-4.78-.23-9.67,.75-14.29,.78-3.68,2.76-7.33,4.99-10.44,4.92-6.87,13.7-9.11,22.57-6.76,7.75,2.05,15.55,4.02,23.43,5.42,5.21,.93,10.62,1.74,16.07,.04,.27-.51,.6-1.08,.9-1.67,4.81-9.35,12.76-13.65,23-14.12,4.24-.19,8.5-.09,12.75-.12,1.19,0,2.39,0,3.81-.4-6.44-9.48-14.32-17.63-21.08-26.58,2.78-4.11,11.3-4.02,17.81,.11,4.52,8.83,9.09,17.75,13.72,26.8h4.87c4.01-7.79,8.11-15.32,11.76-23.07,1.36-2.89,3.12-4.78,6.07-5.65,3.23-.95,6.53-1.68,9.87-.82,1.4,.36,2.65,1.27,4.45,2.17-7.58,9.09-14.76,17.69-22.5,26.97,1.82,.22,2.83,.43,3.84,.44,4.47,.08,8.96-.14,13.41,.21,8.6,.69,15.73,4.38,20.34,11.81,2.83,4.57,4.37,9.79,5.04,15.12,1.33,10.67,1.39,21.37-.56,31.99-.5,2.71-1.54,5.33-2.47,7.94-1.65,4.63-5.11,7.44-9.58,9.19-.39,.15-.72,.45-1,.63Zm-33.92,6.19c-.92,4.21-.73,64.98,.24,67.74,8.36-.21,16.89,1.04,25.26-.71,9.08-1.9,15.45-7.47,18.27-16.38,3.02-9.57,2.8-19.27,.49-29.04-2.73-11.58-10.51-17.68-21.47-20.43-2.9-.73-5.95-1.01-8.95-1.13-4.56-.18-9.13-.05-13.83-.05Zm-16,31.53h-32.42v-11.5h32.34v-20.11c-3.01,0-5.78-.09-8.54,.02-6.02,.23-12.09,.34-17.84,2.43-7.67,2.78-13.53,7.46-16.44,15.47-3.55,9.75-4.08,19.61-1.67,29.58,2.85,11.75,10.76,19.01,22.27,19.95,7.09,.58,14.28,.07,21.42,.03,.19,0,.37-.21,.8-.47v-14.8h-32.34v-11.39h32.41v-9.22Zm15.67-41.76c6.88-.35,13.37-.28,19.74-1.12,6.89-.9,11.56-5.88,11.75-12.61,.33-11.8,.39-23.63-.04-35.43-.28-7.54-5.68-11.85-11.62-11.93-3.9-.05-7.8-.13-11.7-.11-2.64,.01-5.28,.18-8.12,.28v60.91Zm-15.67-60.77c-7.41,0-14.46-.44-21.42,.15-4.61,.39-7.93,3.45-8.79,8.4-.4,2.3-.96,4.61-1.01,6.93-.18,8.14-.26,16.29-.17,24.43,.03,3.1,.53,6.2,.97,9.28,.83,5.89,4.82,8.94,10.16,10.16,6.47,1.48,13.1,1.1,19.69,.71,.17-.01,.33-.28,.57-.49V42.07Zm-48.14,16.61c-2.35-.36-4.88-.65-7.36-1.13-9.18-1.76-18.33-3.71-27.54-5.29-3.03-.52-6.31-.64-9.31-.08-5.62,1.04-7.78,5.42-8.73,10.58-1.64,8.88,3.08,16.72,11.15,17.98,2.22,.35,4.67-.07,6.9-.63,9.5-2.36,18.95-4.94,28.44-7.35,2-.51,4.11-.6,6.46-.92v-13.16Zm.12,22.38c-1.56,.37-2.74,.56-3.87,.94-4.01,1.34-8,2.72-11.98,4.14-4.92,1.76-9.98,3.22-14.69,5.43-8.87,4.15-10.01,14.06-2.63,20.49,4.2,3.66,11.19,3.57,14.86-.6,6.46-7.35,12.67-14.92,19.13-22.58l-.83-7.82Z"/><path class="cls-3" d="M483.16,84.99c-1.48-3.79-2.88-7.37-4.38-11.24,3.53-2.23,7.32-3.5,11.07-4.78,14.17-4.84,28.77-5.86,43.24-2.41,12.6,3,21.58,10.88,25.15,23.89,1.27,4.65,1.77,9.39,1.77,14.21-.02,25.89,0,51.79-.01,77.68,0,.99-.1,1.98-.16,3.07-6.92,3.68-14.18,5.99-21.86,7.1-8.2,1.19-16.45,1.86-24.71,1.31-7.67-.51-15.31-1.42-22.44-4.76-12.16-5.7-18.52-15.23-19.33-28.55-.4-6.65,.31-13.1,2.95-19.32,2.56-6.05,6.64-10.8,11.88-14.59,9.8-7.08,21.02-10.62,32.77-12.67,6.36-1.11,12.78-1.94,19.16-2.92,.88-.13,1.73-.44,2.83-.72,0-4.07,.25-8.18-.09-12.23-.24-2.83-.88-5.78-2.06-8.35-3.26-7.12-9.42-10.48-16.86-11.69-10.16-1.65-20.02-.34-29.59,3.36-3,1.16-6,2.31-9.34,3.6Zm57.91,93.59c.88-7.74,.47-55.65-.57-58.14-3.77,.6-7.63,1.04-11.43,1.84-9.37,1.96-18.82,3.71-26.91,9.41-4.2,2.96-7.54,6.59-9.36,11.43-2.35,6.26-3.09,12.69-2.1,19.35,1.41,9.47,7.38,16.4,16.65,18.67,7.52,1.84,15.01,2.2,22.55,.87,3.78-.67,7.76-1.04,11.16-3.44Z"/><path class="cls-3" d="M298.21,125.32c-26.7,3.9-52.79,7.71-79.04,11.54,.12,6.72,1.48,12.64,3.52,18.42,1.8,5.07,4.22,9.77,7.92,13.81,5.72,6.23,12.92,9.42,21.13,10.4,12.39,1.47,24.19-.94,35.49-6.05,.29-.13,.62-.2,1.31-.41,1.61,4.11,3.21,8.2,4.87,12.47-6.16,3.69-12.73,5.85-19.72,6.97-7.3,1.17-14.64,1.81-22.02,1.38-10.18-.59-19.83-3.04-28.29-9.05-8.84-6.28-14.6-14.83-18.28-24.93-2.19-6.01-3.64-12.16-3.93-18.54-.27-6.23-.74-12.47-.55-18.7,.37-12.15,2.82-23.88,8.86-34.59,5.08-9,12.3-15.76,21.87-19.9,5.2-2.25,10.7-3.05,16.3-3.3,7.41-.33,14.79,.09,21.74,2.86,9.71,3.86,16.8,10.57,21.5,20.02,4.32,8.68,6.05,17.86,6.65,27.37,.21,3.31,.43,6.63,.66,10.21Zm-79.61,1.2c20.47-3.1,40.34-6.11,60.35-9.15,.31-10.12-.9-19.34-5.71-27.92-3.13-5.59-7.78-9.3-13.75-10.96-3.68-1.03-7.73-1.16-11.59-1.07-11.09,.25-18.44,6.37-23.43,15.76-4.85,9.12-5.72,19.11-6.07,29.18-.04,1.19,.11,2.38,.2,4.15Z"/><path class="cls-3" d="M403.98,125.4c-26.12,3.81-52.12,7.6-78.17,11.4-.5,5.28,.45,9.95,1.86,14.53,2.04,6.64,4.66,12.9,9.61,18.12,5.77,6.09,12.87,9.14,20.94,10.04,12.88,1.43,23.36-.84,36.6-6.49,1.59,4.1,3.17,8.19,4.82,12.46-4.87,3.2-10.1,5.23-15.53,6.27-8.1,1.55-16.31,2.58-24.63,2.2-10.44-.47-20.36-2.7-29.12-8.62-7.16-4.84-12.63-11.23-16.31-19.09-6.85-14.66-8.23-30.15-6.99-46.04,.54-6.9,1.47-13.73,3.58-20.34,2.29-7.18,5.52-13.93,10.51-19.62,6.72-7.67,15.01-12.81,25.26-14.57,8.61-1.48,17.22-1.31,25.59,.83,7.94,2.02,14.72,6.43,19.86,12.92,7.52,9.5,10.81,20.58,11.64,32.51,.24,3.45,.47,6.89,.65,10.34,.05,.98-.09,1.96-.16,3.16Zm-79.08,.8c8.06-.25,57.96-8.17,60.58-9.63-.15-6.9-.66-13.86-3.05-20.55-1.62-4.54-3.61-8.83-7.31-12.19-5.65-5.14-12.33-6.64-19.77-6.56-8.69,.09-15.56,3.57-20.9,10.15-4.21,5.19-6.85,11.28-8,17.79-1.04,5.9-1.29,11.94-1.82,17.92-.09,.96,.16,1.94,.26,3.07Z"/><path class="cls-3" d="M460.95,178.95v12.29c-1.85,.39-3.87,1.18-5.88,1.18-4.9,0-9.96,.34-14.66-.74-8.78-2.02-15.06-7.65-18.39-16.07-1.98-4.99-2.74-10.3-2.73-15.72,.04-25.45,.02-50.9,.02-76.35,0-1.33,0-2.65,0-4.53h-14.13v-12.15h14.03v-28.89c6.51-1.97,12.85-3.89,19.84-6,.19,5.98,.07,11.6,.09,17.21,.02,5.67,0,11.34,0,17.3,7.45,.95,14.58-.03,21.84,.64v11.68h-21.49c-.15,1.75-.33,2.93-.33,4.11-.01,25.9-.03,51.79,.03,77.69,0,2.54,.23,5.17,.91,7.6,2.33,8.36,9.36,12.56,18.35,11.2,.75-.11,1.5-.26,2.51-.44Z"/><path class="cls-2" d="M128.35,113.07c4.7,0,9.27-.14,13.83,.05,3,.12,6.05,.4,8.95,1.13,10.96,2.75,18.74,8.84,21.47,20.43,2.31,9.77,2.53,19.47-.49,29.04-2.82,8.91-9.19,14.49-18.27,16.38-8.36,1.75-16.9,.5-25.26,.71-.96-2.76-1.16-63.53-.24-67.74Z"/><path class="cls-1" d="M112.36,144.6v9.22h-32.41v11.39h32.34v14.8c-.43,.26-.62,.46-.8,.47-7.14,.04-14.33,.55-21.42-.03-11.51-.94-19.42-8.21-22.27-19.95-2.42-9.97-1.88-19.84,1.67-29.58,2.92-8.01,8.77-12.69,16.44-15.47,5.74-2.08,11.82-2.19,17.84-2.43,2.76-.11,5.52-.02,8.54-.02v20.11h-32.34v11.5h32.42Z"/><path class="cls-2" d="M128.03,102.84V41.93c2.85-.11,5.48-.27,8.12-.28,3.9-.02,7.8,.06,11.7,.11,5.95,.08,11.35,4.38,11.62,11.93,.43,11.8,.37,23.62,.04,35.43-.19,6.73-4.86,11.7-11.75,12.61-6.37,.84-12.87,.77-19.74,1.12Z"/><path class="cls-1" d="M112.36,42.07v59.57c-.24,.21-.4,.48-.57,.49-6.59,.4-13.22,.77-19.69-.71-5.35-1.22-9.33-4.27-10.16-10.16-.43-3.08-.93-6.18-.97-9.28-.09-8.14,0-16.29,.17-24.43,.05-2.32,.61-4.63,1.01-6.93,.86-4.95,4.18-8.01,8.79-8.4,6.96-.59,14.01-.15,21.42-.15Z"/><path class="cls-2" d="M64.22,58.68v13.16c-2.35,.32-4.46,.42-6.46,.92-9.49,2.4-18.93,4.99-28.44,7.35-2.23,.55-4.68,.97-6.9,.63-8.07-1.26-12.79-9.1-11.15-17.98,.95-5.16,3.11-9.54,8.73-10.58,3-.56,6.28-.44,9.31,.08,9.21,1.58,18.36,3.53,27.54,5.29,2.49,.48,5.01,.77,7.36,1.13Z"/><path class="cls-2" d="M64.34,81.06l.83,7.82c-6.46,7.65-12.67,15.23-19.13,22.58-3.66,4.17-10.66,4.26-14.86,.6-7.38-6.43-6.24-16.34,2.63-20.49,4.71-2.2,9.77-3.67,14.69-5.43,3.98-1.42,7.97-2.8,11.98-4.14,1.12-.38,2.31-.57,3.87-.94Z"/><path class="cls-2" d="M541.07,178.58c-3.4,2.39-7.37,2.77-11.16,3.44-7.54,1.33-15.03,.97-22.55-.87-9.27-2.27-15.24-9.2-16.65-18.67-.99-6.66-.25-13.09,2.1-19.35,1.82-4.85,5.16-8.47,9.36-11.43,8.08-5.7,17.54-7.45,26.91-9.41,3.79-.79,7.66-1.24,11.43-1.84,1.04,2.48,1.45,50.4,.57,58.14Z"/><path class="cls-2" d="M218.6,126.52c-.09-1.77-.25-2.96-.2-4.15,.36-10.07,1.23-20.06,6.07-29.18,4.99-9.39,12.34-15.51,23.43-15.76,3.87-.09,7.91,.04,11.59,1.07,5.97,1.66,10.62,5.37,13.75,10.96,4.8,8.58,6.01,17.8,5.71,27.92-20.01,3.03-39.88,6.05-60.35,9.15Z"/><path class="cls-2" d="M324.89,126.2c-.11-1.13-.35-2.11-.26-3.07,.53-5.98,.78-12.02,1.82-17.92,1.15-6.51,3.78-12.6,8-17.79,5.34-6.58,12.21-10.06,20.9-10.15,7.44-.08,14.12,1.42,19.77,6.56,3.69,3.36,5.68,7.65,7.31,12.19,2.39,6.69,2.9,13.64,3.05,20.55-2.62,1.46-52.52,9.38-60.58,9.63Z"/></svg>