<?xml version="1.0" encoding="UTF-8"?><svg id="logo_Sentio" xmlns="http://www.w3.org/2000/svg" viewBox="0 0 560 198.33"><defs><style>.cls-1{fill:#fff;}.cls-2{fill:#21446d;}</style></defs><g><path class="cls-2" d="M268.12,51.52c2.93,0,4.82,2.41,6.02,5.86,1.22,3.62,1.38,8.28,1.38,12.41l18.27-1.71c0-7.07-1.04-15.51-4.66-22.4-3.62-6.71-10.17-11.37-21.36-11.19-8.79,.17-14.82,4.14-18.79,9.65-3.96,5.68-5.51,13.09-5.51,19.98,0,3.45,.52,6.89,1.55,10.16,1.9,6.72,5.01,13.27,9.14,19.65,4.14,6.37,8.1,12.24,11.72,17.4,1.73,2.58,3.28,5.16,4.83,7.57,2.76,5.01,4.83,9.83,4.83,13.96,0,8.1-2.07,13.96-7.58,13.96-3.96,0-6.03-2.75-7.24-6.9-1.38-3.96-1.55-9.31-1.55-14.64l-18.27,1.72c0,9.48,.86,18.61,4.66,25.51,3.79,6.9,10.51,11.37,22.4,11.37,10.17,0,16.55-3.79,20.51-9.64,3.96-5.86,5.34-13.78,5.34-22.23,0-6.89-2.24-13.44-5.51-19.82-3.28-6.38-7.58-12.93-11.89-19.3-3.62-5.35-7.24-10.34-9.99-15.17s-4.65-9.31-4.65-13.62c0-7.41,1.55-12.41,6.38-12.58Z"/><polygon class="cls-2" points="303.78 162.49 346.34 162.49 346.34 143.36 322.39 143.36 322.39 108.55 339.63 108.55 339.63 88.22 322.39 88.22 322.39 54.97 346.34 54.97 346.34 35.84 303.78 35.84 303.78 162.49"/><polygon class="cls-2" points="393.9 107.69 392.87 107.69 391.32 101.84 373.23 35.84 356.68 35.84 356.68 162.49 373.73 162.49 373.73 90.63 374.77 90.63 376.32 96.49 394.42 162.49 410.96 162.49 410.96 35.84 393.9 35.84 393.9 107.69"/><polygon class="cls-2" points="418.2 54.97 435.77 54.97 435.77 162.49 454.37 162.49 454.37 54.97 471.95 54.97 471.95 35.84 418.2 35.84 418.2 54.97"/><rect class="cls-2" x="479.19" y="35.84" width="18.61" height="126.65"/><path class="cls-2" d="M556.9,48.24c-1.54-3.44-3.96-6.89-7.4-9.48-3.46-2.59-8.09-4.3-14.3-4.3s-11.03,1.72-14.47,4.3c-3.46,2.58-5.7,6.03-7.25,9.48-1.88,3.96-2.92,8.62-3.1,13.62v74.61c.18,5.17,1.2,9.82,3.1,13.78,1.56,3.45,3.8,6.73,7.25,9.31,3.44,2.75,8.27,4.3,14.47,4.3s10.85-1.55,14.3-4.3c3.43-2.59,5.85-5.86,7.4-9.31,1.9-3.95,2.93-8.61,3.1-13.78V61.85c-.16-4.99-1.2-9.65-3.1-13.62Zm-15.51,13.62v74.61c0,1.9-.17,3.45-.69,4.66-.68,2.58-2.23,4.65-5.51,4.65-1.55,0-2.76-.51-3.61-1.37-1.73-1.89-2.59-4.3-2.59-7.93V61.86c0-1.73,.17-3.28,.69-4.66,.69-2.23,2.24-4.65,5.51-4.65,1.55,0,2.93,.51,3.78,1.37,1.74,2.07,2.42,4.48,2.42,7.93h0Z"/></g><g id="surface1"><path class="cls-2" d="M198.32,165.11c0,18.34-14.88,33.22-33.22,33.22H33.22c-18.35,0-33.22-14.88-33.22-33.22V33.22C0,14.87,14.87,0,33.22,0H165.11c18.34,0,33.22,14.88,33.22,33.22V165.11h0Z"/><path class="cls-1" d="M147.16,64.39v-29.85h-47.94c-20.34,0-38.55,12.88-45.32,32.05-1.82,5.15-2.75,10.55-2.75,16.04,0,4.64,.67,9.23,1.97,13.64,6.01,20.4,24.35,34.23,45.62,34.43h.32c8.23,0,14.92-6.69,14.92-14.92s-6.58-14.79-14.67-14.92h-.31c-9.94-.12-18.01-8.3-18.01-18.23s8.17-18.23,18.22-18.23h.36c-2.69-.07,37.26-.01,47.58,0"/><path class="cls-1" d="M147.16,115.7c0-4.64-.67-9.23-1.97-13.64-6.02-20.4-24.35-34.24-45.63-34.44h-.32c-8.23,0-14.92,6.7-14.92,14.93s6.58,14.79,14.68,14.92h.3c9.94,.12,18.01,8.3,18.01,18.23s-8.17,18.23-18.22,18.23h-.35c-4.43,.03-39.5,0-47.58,0v29.85h47.92c20.34,0,38.55-12.88,45.32-32.05,1.82-5.16,2.75-10.56,2.75-16.05"/></g></svg>