<?xml version="1.0" encoding="UTF-8"?><svg id="logo_AbsoluteZero" xmlns="http://www.w3.org/2000/svg" viewBox="0 0 276.54 260"><path d="M15.42,30.85C6.92,30.85,0,23.93,0,15.42S6.92,0,15.42,0s15.42,6.92,15.42,15.42-6.92,15.42-15.42,15.42Zm0-26.44c-6.08,0-11.02,4.94-11.02,11.02s4.94,11.02,11.02,11.02,11.02-4.94,11.02-11.02S21.5,4.41,15.42,4.41Z"/><g><path d="M53.42,171.6c-1.25,3.4-1.27,7.15-.04,10.54l4.31,12.02h28.09l-6.17-17.18,15.5-42.06h-28.18l-13.52,36.67Zm24.84,1.6v0Z"/><path d="M113.23,85.82h61.1l6.86,18.61h28.18l-12.89-34.96c-2.23-6.03-8.04-10.09-14.47-10.09H105.55c-6.43,0-12.25,4.06-14.47,10.09l-12.89,34.96h28.18l6.86-18.61Z"/><path d="M234.13,171.6l-13.52-36.67h-28.18l15.5,42.06-6.17,17.18h28.09l4.31-12.01c1.23-3.41,1.21-7.16-.04-10.56Zm-24.85,1.63v0Zm.04,7.51v0Z"/></g><path d="M143.78,8.81C70.57,8.81,11.02,66.26,11.02,136.86c0,57.14,39.54,107.55,96.34,123.14l7.22-3.14-4.67-7.55c-51.84-14.39-87.87-60.39-87.87-112.45,0-64.53,54.61-117.03,121.74-117.03s121.74,52.5,121.74,117.03c0,52.05-36.05,98.05-87.87,112.45l-4.67,7.55,7.22,3.14c56.8-15.59,96.34-66,96.34-123.14,0-70.61-59.56-128.05-132.76-128.05Z"/></svg>