<?xml version="1.0" encoding="UTF-8"?><svg id="logo_Maturix" xmlns="http://www.w3.org/2000/svg" viewBox="0 0 560 171.44"><defs><style>.cls-1{fill:#12110c;}</style></defs><g><path class="cls-1" d="M220.82,145.05v-13.4h-14.04c-4.17,0-6.78,.54-7.82,1.62-1.04,1.08-1.57,3.55-1.57,7.41,0,3.45,.56,5.87,1.67,7.26,1.11,1.39,3.45,2.08,7.02,2.08h1.81c1.75,0,3.22-.03,4.39-.1,1.17-.07,2.5-.26,3.99-.56,1.48-.3,2.61-.81,3.38-1.52,.77-.71,1.16-1.64,1.16-2.79m9.09,9.95h-8.78v-4.67c-.74,3.79-5.65,5.69-14.75,5.69-6.73,0-11.39-1.03-13.98-3.09-2.59-2.07-3.89-6.25-3.89-12.54,0-5.48,1.21-9.25,3.64-11.32,2.42-2.06,7.1-3.09,14.03-3.09h14.64v-7.81c0-2.71-.83-4.54-2.48-5.48s-4.77-1.42-9.34-1.42c-4.98,0-10.57,.4-16.76,1.22v-6.7c6.66-.61,12.69-.91,18.07-.91,8.21,0,13.53,1,15.95,3,2.42,2,3.64,6.14,3.64,12.43v34.72Z"/><path class="cls-1" d="M299.58,155.2c-3.23,.54-6.63,.81-10.2,.81-6.13,0-10.4-1.07-12.83-3.2-2.42-2.13-3.64-6.17-3.64-12.13v-28.83h-10.91v-5.99h10.91v-15.23h9.19v15.23h17.47v5.99h-17.47v29.33c0,3.52,.67,5.88,2.02,7.06,1.35,1.18,4.07,1.78,8.18,1.78,1.08,0,3.5-.27,7.27-.81v5.99Z"/><path class="cls-1" d="M374.81,154.99h-9.09v-5.99c-.94,4.67-6.3,7-16.06,7-6.46,0-10.91-1.17-13.33-3.5-2.42-2.34-3.63-5.87-3.63-10.61v-36.04h9.09v35.53c0,1.22,.1,2.23,.3,3.04,.2,.81,.62,1.64,1.26,2.49,.64,.85,1.71,1.49,3.23,1.93,1.51,.44,3.41,.66,5.7,.66,5.05,0,8.55-.47,10.5-1.42,1.95-.95,2.93-2.67,2.93-5.18v-37.05h9.09v49.13Z"/><path class="cls-1" d="M440.14,112.66h-5.05c-4.18,0-7.26,.54-9.24,1.63-1.98,1.08-2.97,3.11-2.97,6.09v34.61h-9.09v-49.13h8.59v8.02c0-2.37,1.47-4.46,4.39-6.29,2.93-1.83,5.91-2.74,8.94-2.74h4.44v7.82Z"/></g><path class="cls-1" d="M481.54,154.99h-9.09v-49.13h9.09v49.13Zm0-57.35h-9.09v-9.54h9.09v9.54Z"/><polygon class="cls-1" points="560 154.99 550 154.99 536.77 135.61 523.65 154.99 513.65 154.99 531.83 129.72 514.66 105.86 524.65 105.86 536.77 123.83 548.99 105.86 558.99 105.86 541.83 129.72 560 154.99"/><g><path class="cls-1" d="M220.82,145.05v-13.4h-14.04c-4.17,0-6.78,.54-7.82,1.62-1.04,1.08-1.57,3.55-1.57,7.41,0,3.45,.56,5.87,1.67,7.26,1.11,1.39,3.45,2.08,7.02,2.08h1.81c1.75,0,3.22-.03,4.39-.1,1.17-.07,2.5-.26,3.99-.56,1.48-.3,2.61-.81,3.38-1.52,.77-.71,1.16-1.64,1.16-2.79m9.09,9.95h-8.78v-4.67c-.74,3.79-5.65,5.69-14.75,5.69-6.73,0-11.39-1.03-13.98-3.09-2.59-2.07-3.89-6.25-3.89-12.54,0-5.48,1.21-9.25,3.64-11.32,2.42-2.06,7.1-3.09,14.03-3.09h14.64v-7.81c0-2.71-.83-4.54-2.48-5.48s-4.77-1.42-9.34-1.42c-4.98,0-10.57,.4-16.76,1.22v-6.7c6.66-.61,12.69-.91,18.07-.91,8.21,0,13.53,1,15.95,3,2.42,2,3.64,6.14,3.64,12.43v34.72Z"/><path class="cls-1" d="M299.58,155.2c-3.23,.54-6.63,.81-10.2,.81-6.13,0-10.4-1.07-12.83-3.2-2.42-2.13-3.64-6.17-3.64-12.13v-28.83h-10.91v-5.99h10.91v-15.23h9.19v15.23h17.47v5.99h-17.47v29.33c0,3.52,.67,5.88,2.02,7.06,1.35,1.18,4.07,1.78,8.18,1.78,1.08,0,3.5-.27,7.27-.81v5.99Z"/><path class="cls-1" d="M374.81,154.99h-9.09v-5.99c-.94,4.67-6.3,7-16.06,7-6.46,0-10.91-1.17-13.33-3.5-2.42-2.34-3.63-5.87-3.63-10.61v-36.04h9.09v35.53c0,1.22,.1,2.23,.3,3.04,.2,.81,.62,1.64,1.26,2.49,.64,.85,1.71,1.49,3.23,1.93,1.51,.44,3.41,.66,5.7,.66,5.05,0,8.55-.47,10.5-1.42,1.95-.95,2.93-2.67,2.93-5.18v-37.05h9.09v49.13Z"/><path class="cls-1" d="M440.14,112.66h-5.05c-4.18,0-7.26,.54-9.24,1.63-1.98,1.08-2.97,3.11-2.97,6.09v34.61h-9.09v-49.13h8.59v8.02c0-2.37,1.47-4.46,4.39-6.29,2.93-1.83,5.91-2.74,8.94-2.74h4.44v7.82Z"/></g><path class="cls-1" d="M481.54,154.99h-9.09v-49.13h9.09v49.13Zm0-57.35h-9.09v-9.54h9.09v9.54Z"/><polygon class="cls-1" points="560 154.99 550 154.99 536.77 135.61 523.65 154.99 513.65 154.99 531.83 129.72 514.66 105.86 524.65 105.86 536.77 123.83 548.99 105.86 558.99 105.86 541.83 129.72 560 154.99"/><path class="cls-1" d="M152.35,154.99h-9.09v-35.42c0-1.22-.1-2.23-.3-3.05-.2-.81-.62-1.64-1.26-2.49-.64-.84-1.72-1.49-3.23-1.93-1.52-.44-3.42-.66-5.71-.66-5.32,0-8.73,.58-10.25,1.73-1.52,1.15-2.27,3.28-2.27,6.39v35.42h-9.09v-35.42c0-1.22-.1-2.23-.3-3.05-.2-.81-.62-1.64-1.26-2.49-.64-.84-1.7-1.49-3.18-1.93-1.48-.44-3.37-.66-5.66-.66-5.38,0-8.97,.56-10.75,1.67-1.78,1.12-2.67,3.27-2.67,6.45v35.42h-9.09v-49.13h9.09v5.99c.94-4.67,6.43-7.01,16.46-7.01,8.14,0,13.23,2.23,15.25,6.7,.67-2.3,2.57-3.99,5.7-5.07s6.81-1.63,11.06-1.63c6.26,0,10.59,1.17,12.98,3.5,2.39,2.34,3.58,5.88,3.58,10.61v36.04ZM0,171.44H170.33V0H0V171.44Z"/></svg>