<?xml version="1.0" encoding="UTF-8"?><svg id="logo_FreeSense" xmlns="http://www.w3.org/2000/svg" xmlns:xlink="http://www.w3.org/1999/xlink" viewBox="0 0 560 141.57"><defs><style>.cls-1,.cls-2{fill:#00c9b9;}.cls-3{fill:#2fc9b8;}.cls-4{fill:url(#Sfumatura_senza_nome_4);}.cls-4,.cls-5,.cls-2,.cls-6,.cls-7{fill-rule:evenodd;}.cls-4,.cls-5,.cls-6,.cls-7{isolation:isolate;opacity:.5;}.cls-5{fill:url(#Sfumatura_senza_nome_2);}.cls-6{fill:url(#Sfumatura_senza_nome_4-3);}.cls-7{fill:url(#Sfumatura_senza_nome_4-2);}</style><linearGradient id="Sfumatura_senza_nome_2" x1="31.44" y1="63.46" x2="31.44" y2="42.57" gradientTransform="translate(0 143.57) scale(1 -1)" gradientUnits="userSpaceOnUse"><stop offset="0" stop-color="#00c9b9"/><stop offset="1" stop-color="#fff"/></linearGradient><linearGradient id="Sfumatura_senza_nome_4" x1="56.99" y1="86.67" x2="56.99" y2="42.55" gradientTransform="translate(0 143.57) scale(1 -1)" gradientUnits="userSpaceOnUse"><stop offset="0" stop-color="#2fc9b8"/><stop offset="1" stop-color="#fff"/></linearGradient><linearGradient id="Sfumatura_senza_nome_4-2" x1="82.35" y1="72.52" x2="82.35" y2="42.55" xlink:href="#Sfumatura_senza_nome_4"/><linearGradient id="Sfumatura_senza_nome_4-3" x1="107.91" y1="98.29" x2="107.91" y2="42.55" xlink:href="#Sfumatura_senza_nome_4"/></defs><path class="cls-1" d="M70.79,141.57C31.84,141.57,0,109.93,0,70.79S31.84,0,70.79,0s70.79,31.84,70.79,70.79-31.64,70.79-70.79,70.79Zm0-134.68C35.7,6.9,6.9,35.7,6.9,70.79s28.6,63.89,63.89,63.89,63.89-28.6,63.89-63.89S106.08,6.9,70.79,6.9Z"/><path class="cls-5" d="M31.44,87.01c-3.85,0-6.9-3.04-6.9-6.9v13.99c0,3.85,3.04,6.9,6.9,6.9s6.9-3.04,6.9-6.9v-13.99c0,3.85-3.04,6.9-6.9,6.9Z"/><path class="cls-4" d="M56.99,63.89c-3.85,0-6.9-3.04-6.9-6.9v37.12c0,3.85,3.04,6.9,6.9,6.9s6.9-3.04,6.9-6.9V56.99c0,3.65-3.25,6.9-6.9,6.9Z"/><path class="cls-2" d="M56.99,49.89c3.85,0,6.9,3.04,6.9,6.9s-3.04,6.9-6.9,6.9-6.9-3.04-6.9-6.9c-.2-3.65,3.04-6.9,6.9-6.9Z"/><path class="cls-2" d="M31.44,73.22c3.85,0,6.9,3.04,6.9,6.9s-3.04,6.9-6.9,6.9-6.9-3.04-6.9-6.9c-.2-3.85,3.04-6.9,6.9-6.9Z"/><path class="cls-7" d="M82.35,77.88c-3.85,0-6.9-3.04-6.9-6.69v22.51c0,4.06,3.04,7.5,6.9,7.5s6.9-3.25,6.9-7.5v-22.51c0,3.65-3.04,6.69-6.9,6.69Z"/><path class="cls-2" d="M82.35,63.89c3.85,0,6.9,3.04,6.9,6.9s-3.04,6.9-6.9,6.9-6.9-3.04-6.9-6.9,3.04-6.9,6.9-6.9Z"/><path class="cls-6" d="M107.9,52.33c-3.85,0-6.9-3.04-6.9-6.9v48.68c0,3.85,3.04,6.9,6.9,6.9s6.9-3.04,6.9-6.9V45.43c.2,3.65-3.04,6.9-6.9,6.9Z"/><path class="cls-2" d="M107.9,38.33c3.85,0,6.9,3.04,6.9,6.9s-3.04,6.9-6.9,6.9-6.9-3.04-6.9-6.9,3.04-6.9,6.9-6.9Z"/><path class="cls-3" d="M188.63,43v1.42c0,.41-.2,.61-.2,.81s-.2,.41-.2,.41c-.2,0-.2,.2-.41,.2s-.41,0-.81-.2c-.41-.2-.61-.2-1.22-.41-.41-.2-1.01-.41-1.62-.41-.61-.2-1.42-.2-2.23-.2-1.22,0-2.03,.2-2.84,.61-.81,.41-1.42,1.01-1.83,1.62-.41,.81-.81,1.83-1.01,3.04s-.41,2.64-.41,4.46v4.46h9.13c.2,0,.41,0,.61,.2s.41,.2,.41,.61c.2,.2,.2,.61,.41,1.01,0,.41,.2,.81,.2,1.42,0,1.01-.2,1.83-.41,2.43-.2,.41-.61,.81-1.01,.81h-9.13v35.9c0,.2,0,.41-.2,.61-.2,.2-.41,.41-.61,.41-.2,.2-.61,.2-1.22,.2h-3.65c-.41,0-.81-.2-1.22-.2-.2-.2-.41-.2-.61-.41-.2-.2-.2-.41-.2-.61v-36.31h-5.88c-.41,0-.81-.2-1.01-.81-.2-.41-.41-1.22-.41-2.43v-1.42c0-.41,.2-.81,.2-1.01,.2-.2,.2-.41,.41-.61,.2-.2,.41-.2,.61-.2h5.88v-4.26c0-2.84,.2-5.27,.81-7.3,.61-2.03,1.42-3.65,2.43-5.07,1.01-1.22,2.43-2.23,4.06-2.84,1.62-.61,3.65-1.01,5.88-1.01,1.01,0,2.03,0,3.04,.2,1.01,.2,1.83,.41,2.23,.61,.61,.2,.81,.41,1.01,.61s.41,.41,.41,.61c.2,.2,.2,.61,.2,1.01,.41,1.01,.41,1.42,.41,2.03Z"/><path class="cls-3" d="M223.51,62.47v1.62c0,.41,0,.81-.2,1.01,0,.2-.2,.41-.41,.61-.2,.2-.41,.2-.61,.2s-.61,0-.81-.2c-.41-.2-.81-.2-1.22-.41-.41-.2-1.01-.2-1.42-.41-.61-.2-1.22-.2-1.83-.2-.81,0-1.42,.2-2.23,.41-.81,.2-1.42,.81-2.23,1.42-.81,.61-1.62,1.62-2.43,2.84-.81,1.22-1.83,2.64-2.84,4.26v26.98c0,.2,0,.41-.2,.61-.2,.2-.41,.41-.61,.41-.2,.2-.61,.2-1.22,.2h-3.65c-.41,0-.81-.2-1.22-.2-.2-.2-.41-.2-.61-.41-.2-.2-.2-.41-.2-.61V59.83c0-.2,0-.41,.2-.61,0-.2,.2-.41,.61-.41,.2-.2,.61-.2,1.01-.2h3.25c.41,0,.81,.2,1.01,.2,.2,.2,.41,.2,.61,.41,.2,.2,.2,.41,.2,.61v5.88c1.22-1.62,2.23-3.04,3.25-4.06s1.83-1.83,2.84-2.43c.81-.61,1.83-1.01,2.64-1.22s1.83-.41,2.64-.41h1.42c.41,0,1.01,.2,1.62,.2,.61,.2,1.01,.2,1.42,.41,.41,.2,.81,.2,1.01,.41l.41,.41c0,.2,.2,.41,.2,.61v1.01c-.41,.61-.41,1.22-.41,1.83Z"/><path class="cls-3" d="M271.58,78.7c0,1.22-.2,2.03-.81,2.43s-1.22,.81-2.03,.81h-26.98c0,2.23,.2,4.26,.61,6.08,.41,1.83,1.22,3.45,2.23,4.66,1.01,1.22,2.43,2.23,4.26,3.04,1.62,.61,3.85,1.01,6.29,1.01,2.03,0,3.65-.2,5.27-.41,1.62-.41,2.84-.61,4.06-1.01,1.22-.41,2.03-.81,2.84-1.01,.81-.41,1.22-.41,1.62-.41,.2,0,.41,0,.61,.2l.41,.41c0,.2,.2,.61,.2,.81v2.43c0,.2,0,.61-.2,.81,0,.2-.2,.41-.2,.61-.2,.2-.2,.41-.41,.61-.2,.2-.61,.41-1.42,.81-.81,.41-1.83,.81-3.25,1.22-1.22,.41-2.84,.61-4.46,1.01-1.62,.2-3.65,.41-5.48,.41-3.45,0-6.29-.41-8.92-1.42-2.64-1.01-4.66-2.43-6.49-4.26-1.83-1.83-3.04-4.26-3.85-6.9-.81-2.84-1.42-6.08-1.42-9.74,0-3.45,.41-6.69,1.42-9.53,.81-2.84,2.23-5.27,3.85-7.1,1.62-2.03,3.85-3.45,6.29-4.46,2.43-1.01,5.07-1.62,8.11-1.62,3.25,0,5.88,.61,8.32,1.62,2.23,1.01,4.06,2.43,5.68,4.26,1.42,1.83,2.43,3.85,3.25,6.08,.61,2.43,1.01,4.87,1.01,7.5v1.01h-.41Zm-7.5-2.23c0-3.85-.81-7.1-2.64-9.33-1.83-2.23-4.66-3.45-8.32-3.45-1.83,0-3.45,.41-4.87,1.01-1.42,.61-2.64,1.62-3.45,2.84-1.01,1.22-1.62,2.43-2.23,4.06-.61,1.62-.81,3.04-.81,4.87h22.31Z"/><path class="cls-3" d="M322.69,78.7c0,1.22-.2,2.03-.81,2.43s-1.22,.81-2.03,.81h-26.98c0,2.23,.2,4.26,.61,6.08,.41,1.83,1.22,3.45,2.23,4.66,1.01,1.22,2.43,2.23,4.26,3.04,1.62,.61,3.85,1.01,6.29,1.01,2.03,0,3.65-.2,5.27-.41,1.62-.41,2.84-.61,4.06-1.01,1.22-.41,2.03-.81,2.84-1.01,.81-.41,1.22-.41,1.62-.41,.2,0,.41,0,.61,.2l.41,.41c0,.2,.2,.61,.2,.81v2.43c0,.2,0,.61-.2,.81,0,.2-.2,.41-.2,.61-.2,.2-.2,.41-.41,.61-.2,.2-.61,.41-1.42,.81-.81,.41-1.83,.81-3.25,1.22-1.22,.41-2.84,.61-4.46,1.01-1.62,.2-3.65,.41-5.48,.41-3.45,0-6.29-.41-8.92-1.42-2.64-1.01-4.66-2.43-6.49-4.26-1.83-1.83-3.04-4.26-3.85-6.9-.81-2.84-1.42-6.08-1.42-9.74,0-3.45,.41-6.69,1.42-9.53,.81-2.84,2.23-5.27,3.85-7.1,1.62-2.03,3.85-3.45,6.29-4.46s5.07-1.62,8.11-1.62c3.25,0,5.88,.61,8.32,1.62,2.23,1.01,4.06,2.43,5.68,4.26,1.42,1.83,2.43,3.85,3.25,6.08,.61,2.43,1.01,4.87,1.01,7.5v1.01h-.41Zm-7.71-2.23c0-3.85-.81-7.1-2.64-9.33-1.83-2.23-4.66-3.45-8.32-3.45-1.83,0-3.45,.41-4.87,1.01-1.42,.61-2.64,1.62-3.45,2.84-1.01,1.22-1.62,2.43-2.23,4.06s-.81,3.04-.81,4.87h22.31Z"/><path class="cls-3" d="M364.07,89.65c0,2.03-.41,4.06-1.22,5.68-.81,1.62-1.83,3.04-3.25,4.06-1.42,1.22-3.04,2.03-5.07,2.64s-4.06,.81-6.49,.81c-1.42,0-2.84-.2-4.26-.41s-2.43-.61-3.65-.81c-1.01-.41-2.03-.81-2.64-1.01-.81-.41-1.22-.81-1.62-1.01-.41-.2-.61-.81-.81-1.22-.2-.61-.2-1.22-.2-2.23v-1.42c0-.41,.2-.81,.2-1.01s.2-.41,.41-.61c.2-.2,.41-.2,.61-.2,.41,0,.81,.2,1.42,.61,.61,.41,1.42,.81,2.43,1.42,1.01,.41,2.03,1.01,3.45,1.42,1.22,.41,2.84,.61,4.46,.61,1.22,0,2.43-.2,3.45-.41,1.01-.2,2.03-.61,2.64-1.22,.81-.61,1.42-1.22,1.83-2.03,.41-.81,.61-1.83,.61-2.84,0-1.22-.2-2.03-.81-2.84-.61-.81-1.42-1.42-2.43-2.03s-2.03-1.22-3.25-1.62c-1.22-.41-2.43-1.01-3.85-1.42-1.22-.61-2.64-1.01-3.85-1.83-1.22-.61-2.43-1.42-3.25-2.43-1.01-1.01-1.83-2.03-2.43-3.45-.61-1.22-.81-2.84-.81-4.66,0-1.62,.41-3.25,1.01-4.66,.61-1.42,1.62-2.84,2.84-3.85,1.22-1.01,2.84-2.03,4.66-2.64,1.83-.61,4.06-1.01,6.49-1.01,1.01,0,2.23,0,3.25,.2l3.04,.61c.81,.2,1.62,.61,2.23,.81,.61,.41,1.01,.61,1.42,.81,.41,.2,.61,.41,.61,.61,.2,.2,.2,.41,.2,.61s0,.61,.2,.81v2.64c0,.41-.2,.61-.2,1.01-.2,.2-.2,.41-.41,.61-.2,.2-.41,.2-.41,.2-.2,0-.61-.2-1.22-.41-.61-.41-1.22-.61-2.03-1.01-.81-.41-1.83-.81-2.84-1.01-1.01-.41-2.43-.41-3.85-.41-1.22,0-2.43,.2-3.45,.41-1.01,.2-1.83,.61-2.43,1.22-.61,.61-1.01,1.22-1.42,1.83-.41,.81-.41,1.62-.41,2.43,0,1.22,.2,2.23,.81,3.04s1.42,1.42,2.43,2.03,2.03,1.22,3.25,1.62c1.22,.41,2.43,1.01,3.85,1.42,1.22,.61,2.64,1.01,3.85,1.83,1.22,.61,2.43,1.42,3.45,2.23s1.83,2.03,2.43,3.25c.61,1.01,1.01,2.64,1.01,4.26Z"/><path class="cls-3" d="M414.57,78.7c0,1.22-.2,2.03-.81,2.43s-1.22,.81-2.03,.81h-26.98c0,2.23,.2,4.26,.61,6.08,.41,1.83,1.22,3.45,2.23,4.66,1.01,1.22,2.43,2.23,4.26,3.04,1.62,.61,3.85,1.01,6.29,1.01,2.03,0,3.65-.2,5.27-.41,1.62-.41,2.84-.61,4.06-1.01,1.22-.41,2.03-.81,2.84-1.01,.81-.41,1.22-.41,1.62-.41,.2,0,.41,0,.61,.2l.41,.41c0,.2,.2,.61,.2,.81v2.43c0,.2,0,.61-.2,.81,0,.2-.2,.41-.2,.61-.2,.2-.2,.41-.41,.61-.2,.2-.61,.41-1.42,.81-.81,.41-1.83,.81-3.25,1.22-1.22,.41-2.84,.61-4.46,1.01-1.62,.2-3.65,.41-5.48,.41-3.45,0-6.29-.41-8.92-1.42s-4.66-2.43-6.49-4.26c-1.83-1.83-3.04-4.26-3.85-6.9-.81-2.84-1.42-6.08-1.42-9.74,0-3.45,.41-6.69,1.42-9.53,.81-2.84,2.23-5.27,3.85-7.1,1.62-2.03,3.85-3.45,6.29-4.46,2.43-1.01,5.07-1.62,8.11-1.62,3.25,0,5.88,.61,8.32,1.62,2.23,1.01,4.06,2.43,5.68,4.26,1.42,1.83,2.43,3.85,3.25,6.08,.61,2.43,1.01,4.87,1.01,7.5v1.01h-.41Zm-7.71-2.23c0-3.85-.81-7.1-2.64-9.33-1.83-2.23-4.66-3.45-8.32-3.45-1.83,0-3.45,.41-4.87,1.01-1.42,.61-2.64,1.62-3.45,2.84-1.01,1.22-1.62,2.43-2.23,4.06s-.81,3.04-.81,4.87h22.31Z"/><path class="cls-3" d="M465.48,101.01c0,.2,0,.41-.2,.61-.2,.2-.41,.41-.61,.41-.2,.2-.61,.2-1.22,.2h-3.65c-.41,0-.81-.2-1.22-.2-.2-.2-.41-.2-.61-.41-.2-.2-.2-.41-.2-.61v-24.14c0-2.43-.2-4.26-.61-5.68-.41-1.42-.81-2.64-1.62-3.65-.61-1.01-1.62-1.83-2.64-2.43-1.01-.61-2.43-.81-3.85-.81-1.83,0-3.85,.61-5.68,2.03-1.83,1.42-3.85,3.25-5.88,5.88v28.6c0,.2,0,.41-.2,.61-.2,.2-.41,.41-.61,.41-.2,.2-.61,.2-1.22,.2h-3.65c-.41,0-.81-.2-1.22-.2-.2-.2-.41-.2-.61-.41s-.2-.41-.2-.61V59.83c0-.2,0-.41,.2-.61,0-.2,.2-.41,.61-.41,.2-.2,.61-.2,1.01-.2h3.25c.41,0,.81,.2,1.01,.2,.2,.2,.41,.2,.61,.41,.2,.2,.2,.41,.2,.61v5.48c2.23-2.64,4.66-4.46,6.9-5.68,2.23-1.22,4.66-1.83,6.9-1.83,2.64,0,5.07,.41,6.9,1.42s3.45,2.23,4.46,3.65c1.22,1.62,2.03,3.45,2.43,5.48,.41,2.03,.81,4.66,.81,7.5v25.15h.41Z"/><path class="cls-3" d="M509.09,89.65c0,2.03-.41,4.06-1.22,5.68-.81,1.62-1.83,3.04-3.25,4.06-1.42,1.22-3.04,2.03-5.07,2.64s-4.06,.81-6.49,.81c-1.42,0-2.84-.2-4.26-.41s-2.43-.61-3.65-.81c-1.01-.41-2.03-.81-2.64-1.01-.81-.41-1.22-.81-1.62-1.01-.41-.2-.61-.81-.81-1.22-.2-.61-.2-1.22-.2-2.23v-1.42c0-.41,.2-.81,.2-1.01s.2-.41,.41-.61c.2-.2,.41-.2,.61-.2,.41,0,.81,.2,1.42,.61,.61,.41,1.42,.81,2.43,1.42,1.01,.41,2.03,1.01,3.45,1.42,1.22,.41,2.84,.61,4.46,.61,1.22,0,2.43-.2,3.45-.41,1.01-.2,2.03-.61,2.64-1.22,.81-.61,1.42-1.22,1.83-2.03,.41-.81,.61-1.83,.61-2.84,0-1.22-.2-2.03-.81-2.84-.61-.81-1.42-1.42-2.43-2.03s-2.03-1.22-3.25-1.62c-1.22-.41-2.43-1.01-3.85-1.42-1.22-.61-2.64-1.01-3.85-1.83-1.22-.61-2.43-1.42-3.25-2.43-1.01-1.01-1.83-2.03-2.43-3.45-.61-1.22-.81-2.84-.81-4.66,0-1.62,.41-3.25,1.01-4.66,.61-1.42,1.62-2.84,2.84-3.85,1.22-1.01,2.84-2.03,4.66-2.64,1.83-.61,4.06-1.01,6.49-1.01,1.01,0,2.23,0,3.25,.2l3.04,.61c.81,.2,1.62,.61,2.23,.81,.61,.41,1.01,.61,1.42,.81,.41,.2,.61,.41,.61,.61,.2,.2,.2,.41,.2,.61s0,.61,.2,.81v2.64c0,.41-.2,.61-.2,1.01-.2,.2-.2,.41-.41,.61-.2,.2-.41,.2-.41,.2-.2,0-.61-.2-1.22-.41-.61-.41-1.22-.61-2.03-1.01-.81-.41-1.83-.81-2.84-1.01-1.01-.41-2.43-.41-3.85-.41-1.22,0-2.43,.2-3.45,.41-1.01,.2-1.83,.61-2.43,1.22-.61,.61-1.01,1.22-1.42,1.83-.41,.81-.41,1.62-.41,2.43,0,1.22,.2,2.23,.81,3.04s1.42,1.42,2.43,2.03,2.03,1.22,3.25,1.62c1.22,.41,2.43,1.01,3.85,1.42,1.22,.61,2.64,1.01,3.85,1.83,1.22,.61,2.43,1.42,3.45,2.23s1.83,2.03,2.43,3.25c.61,1.01,1.01,2.64,1.01,4.26Z"/><path class="cls-3" d="M559.59,78.7c0,1.22-.2,2.03-.81,2.43s-1.22,.81-2.03,.81h-26.98c0,2.23,.2,4.26,.61,6.08,.41,1.83,1.22,3.45,2.23,4.66,1.01,1.22,2.43,2.23,4.26,3.04,1.62,.61,3.85,1.01,6.29,1.01,2.03,0,3.65-.2,5.27-.41,1.62-.41,2.84-.61,4.06-1.01s2.03-.81,2.84-1.01c.81-.41,1.22-.41,1.62-.41,.2,0,.41,0,.61,.2l.41,.41c0,.2,.2,.61,.2,.81v2.43c0,.2,0,.61-.2,.81,0,.2-.2,.41-.2,.61-.2,.2-.2,.41-.41,.61-.2,.2-.61,.41-1.42,.81-.81,.41-1.83,.81-3.25,1.22-1.22,.41-2.84,.61-4.46,1.01-1.62,.2-3.65,.41-5.48,.41-3.45,0-6.29-.41-8.92-1.42-2.64-1.01-4.67-2.43-6.49-4.26-1.83-1.83-3.04-4.26-3.85-6.9-.81-2.84-1.42-6.08-1.42-9.74,0-3.45,.41-6.69,1.42-9.53,.81-2.84,2.23-5.27,3.85-7.1,1.62-2.03,3.85-3.45,6.29-4.46,2.43-1.01,5.07-1.62,8.11-1.62,3.25,0,5.88,.61,8.32,1.62,2.23,1.01,4.06,2.43,5.68,4.26,1.42,1.83,2.43,3.85,3.25,6.08,.61,2.43,1.01,4.87,1.01,7.5v1.01h-.41Zm-7.5-2.23c0-3.85-.81-7.1-2.64-9.33-1.83-2.23-4.66-3.45-8.32-3.45-1.83,0-3.45,.41-4.87,1.01-1.42,.61-2.64,1.62-3.45,2.84-1.01,1.22-1.62,2.43-2.23,4.06-.61,1.62-.81,3.04-.81,4.87h22.31Z"/></svg>