<?xml version="1.0" encoding="UTF-8"?><svg id="logo_Floud" xmlns="http://www.w3.org/2000/svg" viewBox="0 0 560 127"><defs><style>.cls-1{fill:#2c285b;}</style></defs><polygon class="cls-1" points="17.26 55.74 51.01 55.74 51.01 47.22 25.78 47.22 25.78 23.87 94.4 23.87 94.4 15.34 17.26 15.34 17.26 55.74"/><polygon class="cls-1" points="17.26 127 25.78 127 25.78 71.09 68.06 71.09 68.06 62.56 17.26 62.56 17.26 127"/><path class="cls-1" d="M291.08,63.5c0-26.6-21.56-48.16-48.16-48.16s-48.16,21.56-48.16,48.16,21.56,48.16,48.16,48.16c26.58-.03,48.13-21.57,48.16-48.16Zm-48.16,39.63c-21.89,0-39.63-17.75-39.63-39.63s17.75-39.63,39.63-39.63,39.63,17.75,39.63,39.63c-.02,21.88-17.75,39.61-39.63,39.63Z"/><path class="cls-1" d="M496.5,0h-66.06V73.94c0,16.01-12.97,28.98-28.98,28.98s-28.98-12.97-28.98-28.98V.06H240.63c-35.02,1.24-62.4,30.64-61.16,65.66,.63,17.74,8.66,34.4,22.13,45.94h14.83c-26.6-14.63-36.31-48.05-21.68-74.65,9.66-17.57,28.12-28.48,48.17-28.48h121.04V73.94c0,20.71,16.79,37.5,37.5,37.5s37.5-16.79,37.5-37.5V8.52h57.53c30.36,0,54.98,24.61,54.98,54.98s-24.61,54.98-54.98,54.98v8.52c35.07,0,63.5-28.43,63.5-63.5S531.57,0,496.5,0Z"/><path class="cls-1" d="M496.5,103.14v8.52c26.6,0,48.16-21.56,48.16-48.16s-21.56-48.16-48.16-48.16v8.52c21.89,0,39.63,17.75,39.63,39.63s-17.75,39.63-39.63,39.63Z"/><path class="cls-1" d="M445.78,73.94c0,24.48-19.84,44.32-44.32,44.32s-44.32-19.84-44.32-44.32V15.34h-8.52v58.6c0,29.19,23.66,52.85,52.85,52.85s52.85-23.66,52.85-52.85V23.87h25V15.34h-33.52v58.6Z"/><path class="cls-1" d="M128.15,111.66h61.22c-2.41-2.67-4.62-5.52-6.6-8.52h-46.1V0H0V127H8.52V8.52h119.63V111.66Z"/><path class="cls-1" d="M297.9,63.5c-.03,30.35-24.63,54.94-54.98,54.98H119.97V15.34h-8.52V127H242.92c35.04,.03,63.47-28.36,63.5-63.4,.01-14.45-4.91-28.46-13.94-39.74h39.09V15.34h-62.16c17.56,9.66,28.48,28.11,28.49,48.16Z"/></svg>