<?xml version="1.0" encoding="UTF-8"?><svg id="logo_Sirus" xmlns="http://www.w3.org/2000/svg" viewBox="0 0 560 149.06"><defs><style>.cls-1{fill:#004d5a;}.cls-2{fill:#ef7627;}</style></defs><g><path class="cls-1" d="M370.24,30.11c-10.86-.11-21.73-.06-32.6,0-6.22,.03-10.11,4-10.11,10.25-.02,23.07-.02,46.13,0,69.2,0,6.11,3.74,9.92,9.59,9.97,5.91,.04,9.74-3.68,9.81-9.76,.08-6.99,.02-13.97,.02-20.96,0-1.18,0-2.37,0-3.7h17.93c.49,1.29,.94,2.41,1.36,3.55,2.94,8.01,5.88,16.01,8.81,24.02,1.41,3.84,3.89,6.46,8.15,6.82,7.79,.65,12.88-5.8,10.3-13.19-2.95-8.46-6.11-16.84-9.28-25.54,5.95-4.21,9.34-9.67,10.31-16.45,.45-3.16,.37-6.42,.33-9.62-.19-14.37-10.22-24.42-24.62-24.57Zm-4.23,35.26c-5.88,0-11.75-.04-17.63-.08-.31,0-.62-.18-1.3-.39v-14.97c.9-.12,1.74-.32,2.57-.32,6.54-.03,13.08-.05,19.63,0,4.42,.03,5.98,1.6,6.17,5.99,.38,8.6-.75,9.78-9.44,9.77Z"/><path class="cls-1" d="M213.65,65.76c-6.41-1.47-13.16-1.44-19.76-2.1-3.48-.35-6.95-.72-10.63-1.1-.45-2.56-.97-4.48-1.09-6.43-.29-4.43,1.78-6.58,6.28-6.63,5.32-.06,10.65-.07,15.97,0,3.92,.06,4.69,.73,5.65,4.63,.91,3.72,2.85,6.5,6.72,7.48,7.04,1.78,12.71-2.8,12.5-10.05-.31-10.68-8.49-19.85-19.92-21.09-7.89-.86-15.94-.73-23.9-.44-6.66,.25-12.38,3.22-16.83,8.33-5.76,6.62-6.86,14.46-5.75,22.79,1.62,12.15,7.52,18.59,19.4,20.87,4.11,.79,8.37,.79,12.56,1.14,5.14,.43,10.43-.21,15.97,2.28,0,2.65,.06,5.19-.01,7.72-.12,4.49-1.5,5.98-6.04,6.1-5.32,.14-10.65,.14-15.97,0-4.62-.12-5.88-1.38-6.76-6.06-1.15-6.18-5.31-9.21-11.4-8.31-5.41,.8-8.6,5.22-8.02,11.11,1.16,11.76,9.02,20.85,20.79,22.14,8.75,.96,17.76,.94,26.51,.01,11.37-1.21,18.92-9.66,20.23-21.01,.37-3.18,.19-6.43,.18-9.64-.06-11.48-5.58-19.23-16.68-21.77Z"/><path class="cls-1" d="M559.97,88.35c0-13.13-6.15-20.92-19.05-23.26-5.74-1.04-11.68-.96-17.53-1.45-3.38-.28-6.76-.69-10.47-1.07-.45-2.64-.94-4.46-1.04-6.31-.25-4.77,1.65-6.74,6.44-6.78,5.32-.05,10.65-.07,15.97,.02,3.74,.06,4.58,.84,5.47,4.47,1.49,6.03,5.68,8.87,11.48,7.76,5.62-1.08,8.63-5.65,7.67-11.65-1.76-10.96-9.21-18.53-20.33-19.71-6.7-.71-13.5-.53-20.26-.54-14.38-.04-24.75,8.87-25.89,23.19-1.32,16.54,4.89,27.12,21.98,29.37,5.91,.78,11.94,.7,17.9,1.19,2.59,.21,5.14,.84,8.24,1.37,0,3.01,.04,5.54,0,8.05-.09,4.63-1.52,6.16-6.23,6.28-4.77,.13-9.54,.06-14.31,.04-6.11-.03-7.08-.84-8.4-6.89-1.19-5.46-5.35-8.29-11.08-7.54-5.11,.67-8.49,4.71-8.33,9.94,.36,11.53,8.6,21.83,20.07,23.18,8.95,1.05,18.19,1.06,27.17,.19,10.93-1.05,18.32-8.8,20.15-19.58,.57-3.35,.38-6.85,.38-10.29Z"/><path class="cls-1" d="M467.91,29.61c-5.71-.14-9.55,3.23-10.02,8.85-.1,1.21-.07,2.44-.07,3.66,0,16.64,0,33.28-.01,49.92,0,5.85-1.37,7.21-7.28,7.27-4.44,.05-8.87,.04-13.31,0-6.43-.05-7.82-1.44-7.82-7.83,0-17.08,.07-34.17-.09-51.25-.02-2.31-.7-4.9-1.91-6.84-2.18-3.51-6.81-4.64-10.98-3.37-4.1,1.25-6.45,4.27-6.5,8.99-.11,9.43-.03,18.86-.03,28.29h-.01c0,8.76-.08,17.53,.02,26.29,.15,13.77,8.65,23.67,22.21,24.95,7.58,.71,15.33,.67,22.92,0,12.37-1.09,20.25-9.05,22.08-21.18,.13-.87,.2-1.77,.2-2.65,.01-18.53,.04-37.05,0-55.58-.02-5.59-3.89-9.39-9.4-9.53Z"/><path class="cls-1" d="M298.31,49.58c3.38-.07,6.36-1.15,8.34-4.05,2.17-3.18,2.36-6.66,.82-10.13-1.55-3.48-4.47-5.19-8.2-5.26-6.21-.12-12.42-.06-18.63-.06-7.32,0-14.64-.11-21.96,.05-6.35,.14-10.55,5.31-9.52,11.36,.83,4.86,4.52,7.92,9.92,8.08,3.27,.1,6.54,.02,9.72,.02v49.75c-3.52,0-6.83-.06-10.13,.02-4.3,.1-7.42,2.07-8.97,6.16-2.59,6.82,2.02,13.23,9.72,13.29,12.86,.1,25.73,.04,38.6,0,1.2,0,2.44-.2,3.6-.53,4.69-1.34,7.12-5.22,6.7-10.49-.37-4.58-3.67-7.91-8.42-8.36-1.76-.17-3.54-.09-5.32-.11-1.93-.01-3.86,0-5.79,0V49.6c3.34,0,6.43,.05,9.52-.01Z"/></g><g><polygon class="cls-1" points="107.49 99.37 73.93 149.06 6.67 149.06 73.86 49.57 107.49 99.37"/><polygon class="cls-2" points="0 49.62 33.51 0 100.61 0 33.55 99.29 0 49.62"/></g></svg>