<?xml version="1.0" encoding="UTF-8"?><svg id="logo_Phoops" xmlns="http://www.w3.org/2000/svg" xmlns:xlink="http://www.w3.org/1999/xlink" viewBox="0 0 560 184.99"><defs><style>.cls-1{fill:#362e82;}.cls-2{fill:#2d2e82;}.cls-3{fill:url(#Sfumatura_senza_nome_5);}</style><linearGradient id="Sfumatura_senza_nome_5" x1="1552.37" y1="1188.09" x2="1479.81" y2="1260.65" gradientTransform="translate(1307.19 -1433.33) rotate(90)" gradientUnits="userSpaceOnUse"><stop offset="0" stop-color="#312782"/><stop offset="1" stop-color="#e5007e"/></linearGradient></defs><g><path class="cls-1" d="M223.26,143.19v-55.32c0-2.76,2.28-5.05,5.05-5.05s4.85,1.81,5.23,3.9c3.52-2.28,8.09-3.9,12.95-3.9,12.66,0,23.04,10.85,23.04,23.9s-10.38,23.61-23.04,23.61c-4.76,0-9.33-1.43-12.76-3.9v16.76c0,2.67-2.38,5.14-5.43,5.14-2.76,0-5.05-2.48-5.05-5.14Zm10.47-36.47c0,3.71,1.24,7.33,3.71,9.52,2.38,2.67,5.52,4,9.05,4,3.24,0,6.47-1.33,8.95-4,2.19-2.19,3.71-5.81,3.71-9.52s-1.52-7.14-3.71-9.62c-2.48-2.57-5.71-3.9-8.95-3.9-3.52,0-6.67,1.34-9.05,3.9-2.48,2.48-3.71,5.9-3.71,9.62Z"/><path class="cls-1" d="M296.67,125.19c0,2.95-2.38,5.24-5.33,5.24-2.38,0-4.38-1.71-5.05-3.9-.09-.38-.19-.86-.19-1.33v-56.18c0-2.95,2.38-5.24,5.24-5.24s5.33,2.28,5.33,5.24v16.57c3.05-1.62,6.48-2.76,10.19-2.76,11.52,0,20.76,9.42,20.76,20.85v21.52c0,2.95-2.28,5.24-5.24,5.24s-5.23-2.28-5.23-5.24v-21.52c0-5.62-4.57-10.19-10.28-10.28-5.62,.1-10.09,4.67-10.19,10.28v21.52Z"/><path class="cls-1" d="M348.84,123.48c-4.1-4.19-6.57-10.09-6.57-16.76s2.47-12.09,6.57-16.66c4.28-4.47,9.81-7.23,16.38-7.23s12,2.76,15.9,7.23c4.29,4.57,6.66,10.19,6.66,16.66s-2.38,12.57-6.66,16.76c-3.9,4.47-9.62,7.23-15.9,7.23s-12.09-2.76-16.38-7.23Zm3.81-16.76c0,4.09,1.24,7.43,3.43,10.09,2.38,2.28,5.52,3.52,9.14,3.52,3.33,0,6.38-1.24,8.76-3.52,2.38-2.67,3.71-6,3.71-10.09s-1.33-7.33-3.71-9.9c-2.38-2.1-5.43-3.62-8.76-3.62-3.62,0-6.76,1.52-9.14,3.62-2.19,2.57-3.43,6-3.43,9.9Z"/><path class="cls-1" d="M408.34,123.48c-4.1-4.19-6.57-10.09-6.57-16.76s2.47-12.09,6.57-16.66c4.28-4.47,9.81-7.23,16.38-7.23s12,2.76,15.9,7.23c4.29,4.57,6.66,10.19,6.66,16.66s-2.38,12.57-6.66,16.76c-3.9,4.47-9.62,7.23-15.9,7.23s-12.09-2.76-16.38-7.23Zm3.81-16.76c0,4.09,1.24,7.43,3.43,10.09,2.38,2.28,5.52,3.52,9.14,3.52,3.33,0,6.38-1.24,8.76-3.52,2.38-2.67,3.71-6,3.71-10.09s-1.33-7.33-3.71-9.9c-2.38-2.1-5.43-3.62-8.76-3.62-3.62,0-6.76,1.52-9.14,3.62-2.19,2.57-3.43,6-3.43,9.9Z"/><path class="cls-1" d="M463.46,143.19v-55.32c0-2.76,2.28-5.05,5.05-5.05s4.86,1.81,5.24,3.9c3.52-2.28,8.09-3.9,12.95-3.9,12.66,0,23.04,10.85,23.04,23.9s-10.38,23.61-23.04,23.61c-4.76,0-9.33-1.43-12.76-3.9v16.76c0,2.67-2.38,5.14-5.43,5.14-2.76,0-5.05-2.48-5.05-5.14Zm10.47-36.47c0,3.71,1.24,7.33,3.71,9.52,2.38,2.67,5.52,4,9.04,4,3.24,0,6.47-1.33,8.95-4,2.19-2.19,3.71-5.81,3.71-9.52s-1.52-7.14-3.71-9.62c-2.48-2.57-5.71-3.9-8.95-3.9-3.52,0-6.66,1.34-9.04,3.9-2.48,2.48-3.71,5.9-3.71,9.62Z"/><path class="cls-1" d="M524.01,116.81c1.72-2.28,5.05-2.57,7.14-.76,2.48,2.09,6.76,4.29,10.47,4.19,2.57,0,4.95-.86,6.47-1.81,1.33-1.14,1.71-2.1,1.71-2.86,0-.48-.1-.67-.28-.95-.1-.29-.48-.67-1.24-1.14-1.33-.95-4.19-2-7.62-2.67h-.1c-2.95-.57-5.81-1.33-8.28-2.48-2.57-1.24-4.86-2.95-6.57-5.52-1.05-1.71-1.62-3.81-1.62-6,0-4.38,2.48-8.09,5.62-10.47,3.33-2.28,7.33-3.52,11.71-3.52,6.57,0,11.24,3.14,14.28,5.23,2.28,1.52,2.95,4.67,1.52,7.05-1.52,2.28-4.67,2.95-7.05,1.34-3.05-2-5.71-3.52-8.76-3.52-2.38,0-4.47,.76-5.71,1.71-1.24,.86-1.52,1.72-1.52,2.19,0,.38,0,.48,.19,.76,.1,.19,.38,.57,1.05,.95,1.24,.86,3.71,1.71,6.95,2.28l.1,.1h.1c3.14,.57,6.09,1.43,8.85,2.76,2.57,1.14,5.14,2.95,6.76,5.62,1.14,1.9,1.81,4.09,1.81,6.29,0,4.67-2.57,8.57-6,11.04-3.43,2.38-7.71,3.81-12.38,3.81-7.43-.1-13.14-3.52-16.95-6.57-2.1-1.71-2.38-4.95-.67-7.05Z"/></g><g><circle class="cls-2" cx="106.53" cy="164.1" r="20.89"/><path class="cls-3" d="M38.62,119.91l.62-.59c.15-.15,.31-.29,.46-.44l1.73-1.66c.13-.12,9.09-9.39,21.94-9.23,6.29,.08,13.51,3.45,21.09,9.26l1.16,1.11c.76,.82,1.56,1.61,2.43,2.31l.06,.06h0c.84,.66,1.73,1.27,2.66,1.83,.2,.12,.39,.25,.59,.36,.34,.19,.69,.36,1.04,.53,.28,.14,.56,.28,.85,.41,.33,.15,.66,.28,1,.41,.33,.13,.67,.25,1.01,.37,.32,.11,.64,.21,.96,.3,.38,.11,.77,.21,1.16,.3,.3,.07,.6,.14,.9,.2,.46,.09,.92,.15,1.39,.21,.25,.03,.5,.08,.76,.1,.73,.07,1.47,.11,2.22,.11,.8,0,1.59-.04,2.37-.12,1.56-.16,3.07-.47,4.52-.92,2.18-.68,4.22-1.67,6.07-2.92,2.47-1.67,4.6-3.8,6.26-6.26,2.5-3.7,3.96-8.16,3.96-12.96,0-.75-.04-1.49-.11-2.22-.02-.25-.07-.5-.1-.76-.06-.47-.12-.93-.21-1.39-.06-.3-.13-.6-.2-.9-.09-.39-.19-.78-.3-1.16-.09-.32-.19-.65-.3-.96-.11-.34-.24-.67-.37-1.01-.13-.34-.26-.67-.41-1-.13-.29-.27-.57-.41-.85-.17-.35-.34-.71-.54-1.05-.11-.2-.23-.38-.35-.58-.56-.93-1.17-1.83-1.85-2.67h.01l-.06-.07c-.56-.69-1.17-1.35-1.81-1.97l-1.48-1.61c-5.85-7.63-9.27-14.84-9.38-21.09-.22-12.64,8.85-21.4,9.34-21.94l1.68-1.76c.12-.12,.23-.25,.35-.37l.65-.68h-.03c3.67-4.1,5.92-9.5,5.92-15.44C125.92,10.38,115.54,0,102.73,0c-12.81,0-23.19,10.38-23.19,23.19,0,5.94,2.25,11.34,5.92,15.44h-.03l.59,.62c.15,.15,.29,.31,.44,.46l1.66,1.73c.12,.13,9.39,9.09,9.23,21.94-.08,6.29-3.45,13.51-9.26,21.09l-1.11,1.16c-.08,.07-.14,.16-.22,.23-.22,.21-.47,.41-.68,.63l-1.62,1.48c-7.63,5.85-14.84,9.27-21.09,9.38-12.64,.22-21.4-8.85-21.94-9.34l-1.76-1.68c-.12-.12-.25-.23-.37-.35l-.68-.65v.03c-4.1-3.67-9.5-5.92-15.44-5.92-12.81,0-23.19,10.38-23.19,23.19s10.38,23.19,23.19,23.19c5.94,0,11.34-2.25,15.44-5.92v.03Z"/><path class="cls-2" d="M164.52,127.01c-11.54,0-20.89-9.35-20.89-20.89,0-6.22,2.72-11.81,7.03-15.64,3.69-3.27,8.54-5.26,13.86-5.26,11.54,0,20.89,9.35,20.89,20.89s-9.35,20.89-20.89,20.89Z"/></g></svg>