<?xml version="1.0" encoding="UTF-8"?><svg id="logo_OuranosWS" xmlns="http://www.w3.org/2000/svg" viewBox="0 0 560 57.85"><defs><style>.cls-1{stroke:#c6c6c6;stroke-linecap:round;stroke-linejoin:round;stroke-width:.92px;}.cls-1,.cls-2{fill:#c00;}.cls-3{fill:#0b5394;}</style></defs><path class="cls-2" d="M541.99,56.22c-3.29,0-6.55-.56-9.78-1.67-3.23-1.14-5.86-2.82-7.88-5.05-.62-.65-.87-1.39-.75-2.22,.12-.85,.53-1.58,1.24-2.19,.79-.56,1.6-.78,2.42-.66,.85,.1,1.55,.45,2.11,1.07,1.35,1.56,3.12,2.76,5.31,3.61,2.21,.83,4.66,1.24,7.33,1.24,4.14,0,7.12-.71,8.95-2.14,1.85-1.42,2.8-3.14,2.86-5.14,0-2-.95-3.66-2.86-4.96-1.89-1.33-5-2.35-9.35-3.06-5.64-.9-9.77-2.47-12.41-4.7-2.62-2.23-3.92-4.88-3.92-7.94,0-2.85,.75-5.22,2.25-7.13,1.52-1.9,3.53-3.33,6.03-4.27,2.52-.94,5.28-1.41,8.28-1.41,3.75,0,6.97,.64,9.67,1.93,2.71,1.27,4.91,2.99,6.58,5.17,.56,.73,.78,1.49,.66,2.28-.1,.77-.54,1.4-1.33,1.9-.67,.4-1.44,.54-2.31,.4-.87-.15-1.61-.57-2.22-1.24-1.39-1.62-3-2.8-4.85-3.55s-3.96-1.13-6.35-1.13c-3.08,0-5.54,.63-7.39,1.88-1.83,1.25-2.74,2.83-2.74,4.73,0,1.29,.35,2.4,1.04,3.35s1.89,1.78,3.58,2.51c1.71,.73,4.11,1.35,7.19,1.85,4.17,.67,7.47,1.66,9.9,2.97,2.44,1.31,4.17,2.85,5.19,4.62,1.04,1.75,1.56,3.66,1.56,5.71,0,2.62-.77,4.92-2.31,6.9-1.54,1.98-3.67,3.54-6.38,4.68-2.69,1.12-5.8,1.67-9.32,1.67Z"/><path class="cls-2" d="M474.44,55.79c-.73,0-1.38-.19-1.93-.58-.56-.4-.95-.91-1.18-1.53l-13.04-39.16c-.33-1.4-.3-2.51,.09-3.32s1.16-1.21,2.34-1.21c.73,0,1.38,.2,1.93,.61,.56,.38,.97,.99,1.24,1.82l11.66,35.58h-1.85l10.79-35.5c.23-.73,.61-1.33,1.13-1.79,.54-.48,1.22-.72,2.05-.72s1.53,.23,2.05,.69c.54,.44,.91,1.05,1.13,1.82l10.3,34.66h-1.41l11.37-34.75c.56-1.62,1.6-2.42,3.12-2.42,1.23,0,2.07,.46,2.51,1.39s.44,1.97,0,3.15l-13.07,39.16c-.21,.62-.59,1.13-1.13,1.53-.52,.38-1.14,.58-1.88,.58-.73,0-1.39-.19-1.99-.58-.58-.4-.95-.91-1.13-1.53l-10.53-34.98h1.01l-10.56,34.98c-.21,.67-.6,1.19-1.15,1.56-.56,.37-1.17,.55-1.85,.55Z"/><path class="cls-3" d="M353.25,37.26c-1.02-1.77-2.75-3.31-5.19-4.62-2.42-1.31-5.72-2.3-9.9-2.97-3.08-.5-5.47-1.12-7.19-1.85-1.69-.73-2.89-1.57-3.58-2.51s-1.04-2.06-1.04-3.35c0-1.9,.91-3.48,2.74-4.73,1.85-1.25,4.31-1.88,7.39-1.88,2.39,0,4.5,.38,6.35,1.13s3.46,1.93,4.85,3.55c.62,.67,1.36,1.09,2.22,1.24,.87,.13,1.64,0,2.31-.4,.79-.5,1.23-1.14,1.33-1.9,.12-.79-.11-1.55-.66-2.28-1.67-2.17-3.87-3.9-6.58-5.17-2.69-1.29-5.92-1.93-9.67-1.93-3,0-5.76,.47-8.28,1.41-2.5,.94-4.51,2.37-6.03,4.27-1.5,1.9-2.25,4.28-2.25,7.13,0,3.06,1.31,5.7,3.92,7.94,2.64,2.23,6.77,3.8,12.41,4.7,4.35,.71,7.46,1.73,9.35,3.06,1.9,1.31,2.86,2.96,2.86,4.96-.06,2-1.01,3.71-2.86,5.14-1.83,1.42-4.81,2.14-8.95,2.14-2.67,0-5.12-.41-7.33-1.24-2.19-.85-3.96-2.05-5.31-3.61-.56-.62-1.26-.97-2.11-1.07-.83-.12-1.64,.11-2.42,.66-.71,.62-1.13,1.35-1.24,2.19-.12,.83,.13,1.57,.75,2.22,2.02,2.23,4.65,3.92,7.88,5.05,3.23,1.12,6.49,1.67,9.78,1.67,3.52,0,6.63-.56,9.32-1.67,2.71-1.14,4.84-2.69,6.38-4.68s2.31-4.28,2.31-6.9c0-2.06-.52-3.96-1.56-5.71Z"/><path class="cls-3" d="M296.91,12.62c-3.48-2.02-7.46-3.03-11.95-3.03s-8.46,1.01-11.98,3.03c-3.5,2-6.26,4.76-8.28,8.28-2,3.5-3,7.51-3,12.03s1,8.46,3,11.98c2.02,3.52,4.78,6.29,8.28,8.31,3.52,2,7.51,3,11.98,3s8.47-1,11.95-3c3.48-2.02,6.24-4.79,8.28-8.31,2.04-3.52,3.06-7.51,3.06-11.98-.06-4.52-1.1-8.53-3.12-12.03-2-3.52-4.74-6.28-8.22-8.28Zm2.8,29.29c-1.44,2.62-3.45,4.68-6.03,6.18-2.56,1.5-5.46,2.25-8.72,2.25s-6.14-.75-8.72-2.25c-2.56-1.5-4.58-3.56-6.06-6.18-1.46-2.64-2.19-5.63-2.19-8.98s.73-6.35,2.19-9c1.48-2.66,3.5-4.73,6.06-6.23,2.58-1.5,5.48-2.25,8.72-2.25s6.16,.75,8.72,2.25c2.58,1.5,4.59,3.58,6.03,6.23s2.16,5.66,2.16,9-.72,6.34-2.16,8.98Z"/><path class="cls-3" d="M239.75,11.98c-3.12-1.65-6.66-2.48-10.62-2.48-3.62,0-6.91,.8-9.87,2.4-2.09,1.11-3.86,2.53-5.37,4.23v-2.88c0-1-.29-1.79-.87-2.37-.58-.6-1.35-.89-2.31-.89s-1.8,.3-2.4,.89c-.58,.58-.87,1.37-.87,2.37V52.61c0,.94,.29,1.71,.87,2.31,.6,.58,1.39,.87,2.4,.87s1.73-.29,2.31-.87c.58-.6,.87-1.37,.87-2.31V27.82c0-2.35,.64-4.43,1.93-6.26,1.29-1.85,3.03-3.3,5.22-4.36,2.21-1.06,4.68-1.59,7.42-1.59s5.4,.56,7.65,1.67c2.27,1.12,4.06,2.79,5.37,5.02,1.33,2.23,1.99,5.08,1.99,8.54v21.76c0,.89,.3,1.64,.89,2.25,.62,.62,1.4,.92,2.37,.92,.88,0,1.64-.31,2.25-.92,.62-.62,.92-1.37,.92-2.25V30.85c0-4.58-.91-8.46-2.74-11.63-1.81-3.19-4.28-5.61-7.42-7.24Z"/><path class="cls-3" d="M191.75,20.96c-2.04-3.52-4.8-6.29-8.28-8.31-3.48-2.04-7.44-3.06-11.86-3.06s-8.37,1.02-11.89,3.06c-3.5,2.02-6.27,4.79-8.31,8.31-2.04,3.52-3.06,7.51-3.06,11.98s.99,8.37,2.97,11.89c1.98,3.52,4.68,6.3,8.08,8.34s7.25,3.06,11.54,3.06,7.72-.93,10.94-2.8c2.62-1.54,4.77-3.53,6.49-5.94v5.13c0,.94,.3,1.71,.89,2.31,.62,.58,1.4,.87,2.37,.87s1.72-.29,2.34-.87c.62-.6,.92-1.37,.92-2.31v-19.68c-.06-4.46-1.11-8.46-3.15-11.98Zm-11.46,27.13c-2.54,1.5-5.44,2.25-8.69,2.25s-6.05-.75-8.63-2.25c-2.56-1.5-4.59-3.58-6.09-6.23s-2.25-5.63-2.25-8.92,.75-6.33,2.25-8.95c1.5-2.64,3.53-4.71,6.09-6.23,2.58-1.54,5.45-2.31,8.63-2.31s6.15,.77,8.69,2.31c2.54,1.52,4.54,3.6,6,6.23,1.48,2.62,2.22,5.6,2.22,8.95s-.74,6.26-2.22,8.92c-1.46,2.66-3.46,4.73-6,6.23Z"/><path class="cls-3" d="M142.39,10.6c-1.39-.73-3.36-1.1-5.92-1.1-3.25,0-6.2,.78-8.86,2.34-2.15,1.27-3.96,2.96-5.45,5.03v-3.7c0-1-.28-1.78-.84-2.34-.56-.56-1.35-.84-2.37-.84s-1.78,.28-2.34,.84c-.56,.56-.84,1.34-.84,2.34V52.61c0,1,.28,1.78,.84,2.34,.56,.56,1.34,.84,2.34,.84s1.81-.28,2.37-.84c.56-.56,.84-1.34,.84-2.34V27.56c0-2.62,.71-4.87,2.14-6.75,1.42-1.9,3.35-3.32,5.77-4.24s5.19-1.24,8.31-.95c.96,.04,1.82,.09,2.57,.14s1.39-.05,1.9-.32c.54-.29,.92-.85,1.15-1.67,.33-1.4-.21-2.46-1.62-3.17Z"/><path class="cls-3" d="M99.79,10.88c-.62-.6-1.39-.89-2.34-.89s-1.73,.3-2.31,.89c-.58,.58-.87,1.34-.87,2.28v24.79c0,2.35-.64,4.44-1.93,6.29-1.29,1.83-3.04,3.28-5.25,4.36-2.19,1.06-4.66,1.59-7.39,1.59s-5.41-.56-7.68-1.67c-2.25-1.12-4.04-2.79-5.37-5.02-1.31-2.23-1.96-5.08-1.96-8.54V13.16c0-.89-.31-1.64-.92-2.25-.6-.62-1.38-.92-2.34-.92-.88,0-1.64,.31-2.25,.92-.62,.62-.92,1.37-.92,2.25v21.79c0,4.58,.9,8.46,2.71,11.63,1.83,3.17,4.3,5.59,7.42,7.24,3.14,1.64,6.69,2.45,10.65,2.45,3.62,0,6.91-.79,9.87-2.37,2.1-1.13,3.88-2.57,5.37-4.28v2.89c0,1,.29,1.8,.87,2.4,.58,.58,1.35,.87,2.31,.87s1.72-.29,2.34-.87c.62-.6,.92-1.39,.92-2.4V13.16c0-.94-.31-1.7-.92-2.28Z"/><path class="cls-3" d="M43.43,20.9c-2-3.52-4.74-6.28-8.22-8.28-3.48-2.02-7.46-3.03-11.95-3.03s-8.46,1.01-11.98,3.03c-3.5,2-6.26,4.76-8.28,8.28-2,3.5-3,7.51-3,12.03s1,8.46,3,11.98c2.02,3.52,4.78,6.29,8.28,8.31,3.52,2,7.51,3,11.98,3s8.47-1,11.95-3c3.48-2.02,6.24-4.79,8.28-8.31s3.06-7.51,3.06-11.98c-.06-4.52-1.1-8.53-3.12-12.03Zm-5.43,21.01c-1.44,2.62-3.45,4.68-6.03,6.18-2.56,1.5-5.46,2.25-8.72,2.25s-6.14-.75-8.72-2.25c-2.56-1.5-4.58-3.56-6.06-6.18-1.46-2.64-2.19-5.63-2.19-8.98s.73-6.35,2.19-9c1.48-2.66,3.5-4.73,6.06-6.23,2.58-1.5,5.48-2.25,8.72-2.25s6.16,.75,8.72,2.25c2.58,1.5,4.59,3.58,6.03,6.23s2.16,5.66,2.16,9-.72,6.34-2.16,8.98Z"/><polygon class="cls-1" points="398.03 37.65 409.13 36.54 401.42 44.6 405.91 54.8 395.86 49.96 387.54 57.38 389.04 46.34 379.41 40.72 390.38 38.73 392.75 27.83 398.03 37.65"/><polygon class="cls-1" points="393.01 8.13 402.31 5.73 396.8 13.61 401.96 21.71 392.77 18.91 386.65 26.32 386.48 16.71 377.54 13.18 386.63 10.05 387.22 .46 393.01 8.13"/><polygon class="cls-1" points="432.35 27.24 443.77 30 433.3 35.33 434.21 47.04 425.9 38.73 415.05 43.22 420.38 32.75 412.76 23.81 424.36 25.65 430.51 15.64 432.35 27.24"/></svg>