<?xml version="1.0" encoding="UTF-8"?><svg id="logo_Bosonit" xmlns="http://www.w3.org/2000/svg" viewBox="0 0 560 146.09"><defs><style>.cls-1{fill:#91383c;}.cls-2{fill:#e28033;}.cls-3{fill:#c9434b;}.cls-4{fill:#43a4db;}.cls-5{fill:#555;}.cls-6{fill:#6360aa;}</style></defs><path class="cls-5" d="M141.53,45.38h40.04c9.81,0,16.73,2.46,21.3,7.03,3.34,3.33,5.15,7.89,5.02,12.61v.22c0,9.03-5.14,14.39-12.05,17.4,9.48,3.13,15.51,8.48,15.51,19.08v.22c0,13.37-10.93,21.52-29.56,21.52h-40.27V45.38Zm34.69,31.12c6.58,0,10.26-2.23,10.26-6.8v-.22c0-4.24-3.34-6.69-9.81-6.69h-14.06v13.71h13.61Zm3.12,29.56c6.58,0,10.38-2.56,10.38-7.13v-.22c0-4.24-3.35-7.03-10.6-7.03h-16.5v14.43l16.73-.04Z"/><path class="cls-5" d="M216.97,93.57v-.22c0-17.17,14.05-31.56,33.46-31.56s33.24,14.17,33.24,31.34v.22c0,17.18-14.05,31.57-33.46,31.57s-33.24-14.17-33.24-31.35Zm46.07,0v-.22c0-7.36-5.35-13.61-12.83-13.61s-12.61,6.13-12.61,13.37v.22c0,7.37,5.35,13.62,12.83,13.62,7.69,.04,12.6-6.13,12.6-13.38h0Z"/><path class="cls-5" d="M286.46,115.91l7.92-12.82c6.92,4.57,14.51,6.91,20.75,6.91,3.68,0,5.35-1.11,5.35-3.23v-.22c0-2.35-3.35-3.35-9.71-5.14-11.93-3.12-21.4-7.13-21.4-19.3v-.22c0-12.83,10.26-19.96,24.2-19.96,8.78-.02,17.4,2.42,24.88,7.03l-7.25,13.37c-6.24-3.46-13.05-5.58-17.83-5.58-3.24,0-4.9,1.23-4.9,2.91v.22c0,2.34,3.45,3.46,9.81,5.35,11.94,3.35,21.4,7.47,21.4,19.19v.22c.05,13.25-9.92,20.19-24.65,20.19-10.22,.1-20.21-3.02-28.56-8.92Z"/><path class="cls-5" d="M343.93,93.57v-.22c0-17.17,14.05-31.56,33.46-31.56s33.24,14.17,33.24,31.34v.22c0,17.18-14.05,31.57-33.46,31.57s-33.24-14.17-33.24-31.35Zm46.07,0v-.22c0-7.36-5.35-13.61-12.83-13.61s-12.61,6.13-12.61,13.37v.22c0,7.37,5.35,13.62,12.83,13.62,7.69,.04,12.61-6.13,12.61-13.38Z"/><path class="cls-5" d="M418.66,63.12h21.19v8.48c3.91-5.02,9.49-9.81,18.07-9.81,12.82,0,20.51,8.48,20.51,22.2v39.48h-21.18v-32.69c0-6.58-3.46-10.16-8.48-10.16s-8.92,3.57-8.92,10.16v32.68h-21.2V63.12Z"/><rect class="cls-5" x="489.31" y="63.12" width="21.19" height="60.35"/><path class="cls-5" d="M524.75,104.73v-24.55h-7.13v-17.07h7.13v-15.27h21.19v15.27h14.05v17.07h-14.05v20.42c0,4.24,1.9,6.02,5.8,6.02,2.79-.06,5.53-.74,8.02-2.01v16.65c-4.54,2.38-9.6,3.57-14.72,3.46-12.74-.03-20.3-5.61-20.3-19.99Z"/><path class="cls-5" d="M511.56,43.08c0,6.44-5.22,11.65-11.65,11.65s-11.65-5.22-11.65-11.65,5.22-11.65,11.65-11.65c6.43,0,11.65,5.22,11.65,11.65Z"/><path class="cls-2" d="M33.06,1.6L4.16,20.8C.58,23.27,0,25.42,0,29.06v117.03l4.16-2.82,30.62-20.69c1.78-1.37,2.53-2.82,2.53-5.89l.25-113.12c-.89-1.54-2.25-3.57-2.25-3.57l-2.25,1.6Z"/><path class="cls-3" d="M114.94,119.32L37.56,3.57h0l-2.25-3.57-2.67,1.72h0l-.08,.06-2.24,1.45h.05L4.46,20.56c-3.11,2.11-3.69,5.81-1.63,9.1l76.03,113.75c.06,.09,.14,.17,.21,.25l1.67,2.43,33.4-22.74c1.32-.8,1.74-2.51,.94-3.83-.04-.07-.08-.13-.13-.2Z"/><path class="cls-1" d="M4.16,20.8l-.42,.29c-2.47,2.18-2.81,5.55-.89,8.57l34.51,51.66,.2-77.76h0l-2.25-3.57-2.25,1.6L4.16,20.8Z"/><path class="cls-4" d="M98.34,14.27h0l-13.93,9.9c-2.35,1.78-3.78,3.57-3.78,8.1V114.61l.1,31.48,34.15-23.18c2.74-1.87,3.02-2.53,3.02-5.7V.26l-19.56,14.01Z"/><path class="cls-6" d="M114.94,119.32l-34.31-51.32v46.62l.1,31.48,33.45-22.69c1.32-.83,1.72-2.58,.89-3.9-.04-.06-.08-.12-.12-.18Z"/></svg>