<?xml version="1.0" encoding="UTF-8"?><svg id="logo_Movisat" xmlns="http://www.w3.org/2000/svg" viewBox="0 0 560 144.8"><defs><style>.cls-1,.cls-2{fill:#202640;}.cls-2{fill-rule:evenodd;}</style></defs><polygon class="cls-2" points="219.11 118.3 224.09 48.42 247.35 48.42 253.44 85.28 259.51 48.42 282.74 48.42 287.71 118.3 269.9 118.3 268.42 68.81 260.66 118.3 246.16 118.3 238.4 68.81 236.87 118.3 219.11 118.3"/><path class="cls-2" d="M310.75,82.95c0,7.27,.48,12.23,1.44,14.9,.96,2.66,2.63,3.99,5.03,3.99s4.02-1.31,4.96-3.94c.94-2.63,1.41-7.61,1.41-14.95s-.47-12.32-1.41-14.97c-.94-2.65-2.6-3.97-4.96-3.97s-4.07,1.34-5.03,4.02c-.96,2.68-1.44,7.65-1.44,14.92Zm-19.7,.46c0-11.54,2.29-20.49,6.87-26.84,4.58-6.35,11.02-9.52,19.32-9.52s14.67,3.17,19.22,9.5c4.55,6.33,6.82,15.28,6.82,26.86s-2.27,20.48-6.8,26.79c-4.53,6.31-10.95,9.47-19.25,9.47s-14.78-3.17-19.34-9.5c-4.56-6.33-6.85-15.25-6.85-26.77Z"/><polygon class="cls-2" points="344.37 48.42 363.86 48.42 371.13 94.08 378.46 48.42 397.88 48.42 381.9 118.3 360.32 118.3 344.37 48.42"/><rect class="cls-1" x="401.76" y="48.42" width="19.5" height="69.88"/><path class="cls-2" d="M427.53,95.07c2.78,2.21,5.34,3.88,7.68,5.04,2.34,1.15,4.39,1.73,6.15,1.73,1.56,0,2.85-.46,3.85-1.39,1.01-.93,1.51-2.09,1.51-3.5,0-1.66-1.69-4.09-5.08-7.28l-.19-.19c-5.84-5.39-9.59-9.57-11.25-12.53-1.66-2.97-2.49-6.17-2.49-9.61,0-5.9,2-10.76,6.01-14.57,4-3.81,9.15-5.72,15.44-5.72,2.46,0,5,.33,7.64,1,2.63,.67,5.35,1.68,8.16,3.02v18.13c-2.33-1.85-4.52-3.24-6.56-4.18-2.04-.94-3.91-1.41-5.6-1.41-1.47,0-2.65,.39-3.54,1.17-.89,.78-1.34,1.79-1.34,3.03,0,1.78,1.68,3.98,5.03,6.59l.58,.48c5.82,4.66,9.58,8.49,11.31,11.51,1.73,3.01,2.59,6.56,2.59,10.65,0,6.82-2.15,12.3-6.46,16.43-4.31,4.13-10.02,6.2-17.14,6.2-2.74,0-5.44-.43-8.09-1.29-2.65-.86-5.38-2.2-8.18-4.02v-19.29Z"/><path class="cls-2" d="M467.46,118.3l15.29-69.88h21.97l15.27,69.88h-19l-1.48-10.29h-11.54l-1.48,10.29h-19.03Zm22.43-24.4h7.76l-3.93-25.9-3.83,25.9Z"/><polygon class="cls-2" points="548.43 118.3 528.83 118.3 528.83 66.16 517.27 66.16 517.27 48.42 560 48.42 560 66.16 548.43 66.16 548.43 118.3"/><circle class="cls-1" cx="44.55" cy="62.96" r="7.39" transform="translate(-4.35 3.32) rotate(-4.07)"/><g><polygon class="cls-1" points="190.84 5.17 194.4 10.41 196.57 9.14 190.22 0 183.69 16.68 187.17 14.64 190.84 5.17"/><polygon class="cls-1" points="204.22 20.14 203.27 23.44 207.1 29.07 201.21 30.57 200.37 33.47 211.54 30.66 204.22 20.14"/><polygon class="cls-1" points="178.79 36.3 180.14 32.82 177.98 31.26 174.55 40 186.04 37.1 183.33 35.14 178.79 36.3"/><polygon class="cls-1" points="203.08 24.1 201.38 29.98 206.24 28.74 203.08 24.1"/><polygon class="cls-1" points="193.94 10.68 190.97 6.31 187.91 14.21 193.94 10.68"/><polygon class="cls-1" points="180.58 33.14 179.66 35.52 182.77 34.73 180.58 33.14"/><polygon class="cls-1" points="198.35 12.16 182.06 21.56 177.33 24.24 180.15 26.43 191.69 35.39 195.03 38.1 196.08 34.28 201.19 16.24 203.23 9.3 198.35 12.16"/><path class="cls-1" d="M204.01,19.36l5-17.18c-.04,.14-5.32,3.26-11.98,7.14l-.46,.27c-4.05,2.36-8.57,4.98-12.7,7.37-7.13,4.12-13.69,7.9-13.69,7.9l7.79,5.71,.44,.33,7.98,5.84,.56,.41,9.8,7.18,3.03-10.42,.17-.59,3.87-13.29,.19-.66Zm-2.42-2.55l-4.9,17.33-.17,.59-1.18,4.17-3.76-2.92-.53-.41-11.09-8.61-.44-.34-3.1-2.41,5.96-3.44,15.67-9.04,.46-.27,5.48-3.16-2.22,7.84-.19,.66Z"/></g><path class="cls-1" d="M208.96,37.01c-.45-2.63-2.04-4.66-4.72-6.04-.47-.24-.97-.45-1.51-.65v2.48h-1.14c.5,.18,.96,.38,1.39,.6,1.9,.98,2.98,2.31,3.28,4.07,.86,5.01-4.66,13.24-15.4,23.17-1.33-1.3-3.15-2.1-5.15-2.1-4.08,0-7.39,3.31-7.39,7.39,0,1.56,.49,3.01,1.32,4.2-16.99,13.31-41.37,28.51-71.01,42.78-46.65,22.45-89.77,33.96-102.54,27.37-1.9-.98-2.98-2.31-3.28-4.07-1.07-6.21,7.67-17.38,24.04-30.61,.27,0,.54,.01,.81,.01,21.93,0,61.79-17.73,86.07-31.34,17.53-9.83,42.62-25.19,56.38-39.52,3.84-.91,6.68-1.41,10.02-1.94l-3.12-2.3c-2.43,.37-1.1,.2-3.78,.76,1.26-1.51,2.38-3,3.32-4.47h-1.19v-3.32c-1.46,2.69-3.72,5.65-6.73,8.83-19.18,4.58-43.57,13.57-69.38,25.99-29.69,14.29-55.55,30.23-73.43,44.52-2.02-.11-3.81-.4-5.34-.9-2.53-.83-4.19-2.18-5.06-4.1-4.65-10.3,31.23-37.62,67.14-57.02,28.85-15.59,66-28.6,84.37-28.6,4.98,0,8.58,.96,10.26,3.08,.43,2.02,.01,4.35-1.19,6.95h2.69c1.32-3.02,1.76-5.23,1.1-7.86l-.06-.25-.15-.21c-9.45-13.31-64.12,6.04-98.3,24.5C50.36,55.11,6.65,85.01,12.94,98.95c1.19,2.63,3.44,4.5,6.69,5.57,.99,.32,2.06,.57,3.21,.75C7.47,118.06-1.14,129.34,.12,136.67c.45,2.63,2.04,4.66,4.72,6.04,2.74,1.41,6.65,2.09,11.54,2.09,19.6,0,54.93-10.9,93.44-29.43,28.83-13.87,54.04-29.3,71.84-43.27,1.17,.77,2.56,1.22,4.06,1.22,4.08,0,7.39-3.31,7.39-7.39,0-1.06-.23-2.06-.63-2.98,11.41-10.52,17.56-19.68,16.48-25.95Zm-108.51,23.76c23.51-11.31,46.12-19.85,64.41-24.69-10.99,10.3-28.89,22.61-52.46,35.81-27.4,15.35-62.11,29.58-81.98,30.88,16.94-13.13,40.94-28.01,70.02-42.01Z"/></svg>