<?xml version="1.0" encoding="UTF-8"?><svg id="logo_Bettair" xmlns="http://www.w3.org/2000/svg" xmlns:xlink="http://www.w3.org/1999/xlink" viewBox="0 0 560 164.39"><defs><style>.cls-1{fill:#202b54;}.cls-2{fill:#4364ac;}.cls-3{fill:url(#Degradado_sin_nombre);}</style><linearGradient id="Degradado_sin_nombre" x1="-459.91" y1="-1244.39" x2="-410.41" y2="-1244.39" gradientTransform="translate(53.68 -1224.92) rotate(-180)" gradientUnits="userSpaceOnUse"><stop offset="0" stop-color="#4364ac"/><stop offset="0" stop-color="#4364ac"/><stop offset="1" stop-color="#212c4b"/></linearGradient></defs><g><path class="cls-1" d="M53.36,61.46c-14.99,0-26.18,7-30.58,14.59V16.69H0V161.39H22.59v-12.99c5.6,9.39,16.19,15.39,29.98,15.39,28.38,0,45.77-22.18,45.77-51.56s-15.79-50.77-44.97-50.77Zm-4.6,81.74c-14.79,0-26.18-11.59-26.18-30.78s11.39-30.38,26.18-30.38,26.18,10.99,26.18,30.38-10.99,30.78-26.18,30.78Z"/><path class="cls-1" d="M156.04,61.06c-24.58,0-47.37,20.39-47.37,51.17,0,32.98,23.38,52.16,49.77,52.16,23.38,0,38.77-13.79,43.97-30.78l-19.59-6.2c-3.2,9.6-10.39,16.99-24.38,16.99s-25.98-10.59-26.58-25.38h71.15c.2-.4,.6-3.6,.6-7.4,0-30.78-17.59-50.56-47.57-50.56Zm-23.58,40.97c.8-10.39,9.19-21.59,23.78-21.59,15.99,0,23.59,10.19,23.98,21.59h-47.77Z"/><path class="cls-1" d="M309.71,129.81v-45.17h20.19v-20.58h-20.19v-29.78h-20.99v14.59c0,8.59-4.6,15.19-14.99,15.19h-23.01v-29.78h-20.99v14.59c0,8.59-4.6,15.19-14.99,15.19h-5v20.58h17.99v48.97c0,18.19,11.19,28.98,29.18,28.98,8.39,0,12.79-1.6,14.19-2.2v-19.19c-1,.2-4.79,.8-7.99,.8-8.59,0-12.39-3.6-12.39-12.19v-45.17h35.99v48.97c0,18.19,11.19,28.98,29.18,28.98,8.39,0,12.79-1.6,14.19-2.2v-19.19c-1,.2-4.79,.8-7.99,.8-8.59,0-12.39-3.6-12.39-12.19Z"/><rect class="cls-1" x="460.77" y="64.06" width="22.98" height="97.33"/><path class="cls-1" d="M553.8,62.86c-12.79,0-23.59,6.2-28.18,16.79v-15.59h-22.59v97.33h23.18v-46.37c0-18.19,8.2-28.58,26.19-28.58,2.4,0,5,.2,7.59,.6v-23.59c-1-.2-3.4-.6-6.2-.6Z"/><path class="cls-1" d="M418.49,76.05c-4.4-7.6-15.59-14.59-30.58-14.59-29.18,0-44.97,22.19-44.97,50.77s17.39,51.56,45.77,51.56c13.79,0,24.38-6,29.98-15.39v12.99h22.59V64.06h-22.79v11.99Zm-25.98,67.15c-15.19,0-26.18-11.59-26.18-30.78s10.79-30.38,26.18-30.38,26.18,10.99,26.18,30.38-11.39,30.78-26.18,30.78Z"/></g><g><path class="cls-3" d="M471.99,38.94c3.59,.02,6.97-.91,9.88-2.54,.27-.17,.54-.33,.81-.49,2.86-1.6,6.18-2.52,9.75-2.5,3.58,.02,6.93,.98,9.83,2.62,.16,.09,.32,.19,.48,.28,2.89,1.65,6.24,2.6,9.83,2.62,10.95,.06,19.6-8.67,19.65-19.24C532.26,8.86,523.71,.05,512.75,0c-3.79-.02-7.33,1.01-10.35,2.81v-.02c-2.99,1.74-6.47,2.73-10.18,2.72-3.6-.02-6.94-.98-9.8-2.65C479.44,1.07,475.94,.02,472.19,0c-10.95-.06-19.6,8.67-19.66,19.24-.05,10.84,8.5,19.64,19.45,19.7Z"/><path class="cls-2" d="M512.61,0c10.87,0,19.66,8.77,19.66,19.6s-8.79,19.34-19.66,19.34-19.4-8.51-19.4-19.34S502.01,0,512.61,0"/></g></svg>