<?xml version="1.0" encoding="UTF-8"?><svg id="logo_FutureIntelligence" xmlns="http://www.w3.org/2000/svg" viewBox="0 0 550.47 179.92"><defs><style>.cls-1{fill:#bed630;}.cls-2{fill:#808184;}</style></defs><path class="cls-1" d="M115.43,31.41h31.92c.71,0,1.29-.57,1.29-1.29V9.04c0-.71-.58-1.29-1.29-1.29h-30.63c-.71,0-1.29,.58-1.29,1.29V31.41ZM3.87,179.92c-2.14,0-3.87-1.73-3.87-3.87V40.44c0-4.98,4.05-9.04,9.04-9.04H107.68V9.04c0-4.98,4.05-9.04,9.04-9.04h30.63c4.98,0,9.04,4.05,9.04,9.04V30.12c0,4.98-4.05,9.04-9.04,9.04h-31.92V170.74c.17,.06,1.23,.76,2.2,1.29h29.72c.71,0,1.29-.57,1.29-1.29V103.68c0-4.35,2.24-5.69,3.58-6.1,1.34-.43,3.95-.56,6.4,3.03l46.95,68.85c.88,1.3,3.3,2.57,4.87,2.57h30.72c.71,0,1.29-.57,1.29-1.29V35.34c0-2.14,1.74-3.88,3.87-3.88s3.87,1.74,3.87,3.88V170.74c0,4.98-4.05,9.03-9.04,9.03h-30.72c-4.11,0-8.96-2.56-11.28-5.96l-42.76-62.7-.02,59.63c0,4.98-4.05,9.03-9.04,9.03l-32.22-.33c-1.74-.79-7.45-3.72-7.45-8.7V39.15H9.04c-.71,0-1.29,.57-1.29,1.29V176.05c0,2.14-1.73,3.87-3.87,3.87"/><path class="cls-2" d="M209.16,107.76V35.34c0-2.14-1.74-3.87-3.87-3.87s-3.87,1.74-3.87,3.87l-.03,64.82-22.05-32.87c-2.29-3.42-7.13-6-11.25-6H52.76c-4.98,0-9.04,4.05-9.04,9.03v14.38c0,4.98,4.05,9.04,9.04,9.04h22.35c.71,0,1.29,.58,1.29,1.29v18.13c0,.72-.58,1.29-1.29,1.29h-22.35c-4.98,0-9.04,4.05-9.04,9.04v52.56c0,2.14,1.73,3.87,3.87,3.87s3.88-1.74,3.88-3.87v-52.56c0-.71,.58-1.29,1.29-1.29h22.35c4.98,0,9.04-4.06,9.04-9.04v-18.13c0-4.99-4.06-9.04-9.04-9.04h-22.35c-.71,0-1.29-.58-1.29-1.29v-14.38c0-.71,.58-1.29,1.29-1.29h115.31c1.56,0,3.95,1.27,4.82,2.57l26.29,39.19c1.76,2.63,3.63,3.26,5.03,3.26,.52,0,.98-.09,1.35-.2,1.34-.4,3.59-1.74,3.59-6.1"/><path class="cls-2" d="M308.13,71.72c-1.84-.31-4.73-.86-7.75-.86-3.63,0-7.56,.86-7.56,5.1v9.78h10.7c.86,0,1.54,.74,1.54,1.6s-.68,1.6-1.54,1.6h-10.7v17.28c0,.92-.8,1.72-1.73,1.72s-1.72-.8-1.72-1.72v-29.95c0-7.57,6.15-8.49,12.05-8.49,2.46,0,5.29,.25,7.14,.86,1.05,.31,1.35,.92,1.35,1.66s-.74,1.6-1.78,1.42"/><path class="cls-2" d="M332.6,107.94c-.92,0-1.72-.8-1.72-1.72v-5.47c-1.35,1.28-6.03,7.19-10.58,7.19-4.31,0-7.26-3.44-7.26-9.65v-16.79c0-.92,.8-1.72,1.72-1.72s1.72,.8,1.72,1.72v16.85c0,5.11,2.21,6.21,3.87,6.21,3.51,0,8.55-6.39,10.52-8.06v-15.01c0-.92,.74-1.72,1.66-1.72,.98,0,1.78,.8,1.78,1.72v24.72c0,.92-.8,1.72-1.72,1.72"/><path class="cls-2" d="M358.08,107.02c-1.35,.43-1.54,.86-4.92,.86-4,0-7.32-2.33-7.32-7.38v-17.04h-4.49c-.86,0-1.6-.74-1.6-1.6s.74-1.6,1.6-1.6h4.43v-8.36c0-.92,.86-1.72,1.78-1.72,.98,0,1.72,.8,1.72,1.72v8.36h6.33c.86,0,1.6,.68,1.6,1.54s-.86,1.66-1.72,1.66h-6.27v16.6c0,3.75,2.09,4.68,4.06,4.68,2.59,0,3.14-.86,4.31-.86,.92,0,1.54,.61,1.54,1.54,0,.74-.43,1.41-1.05,1.6"/><path class="cls-2" d="M383.91,107.94c-.92,0-1.72-.8-1.72-1.72v-5.47c-1.35,1.28-6.03,7.19-10.58,7.19-4.31,0-7.26-3.44-7.26-9.65v-16.79c0-.92,.8-1.72,1.72-1.72s1.72,.8,1.72,1.72v16.85c0,5.11,2.21,6.21,3.87,6.21,3.51,0,8.55-6.39,10.52-8.06v-15.01c0-.92,.74-1.72,1.66-1.72,.98,0,1.78,.8,1.78,1.72v24.72c0,.92-.8,1.72-1.72,1.72"/><path class="cls-2" d="M405.89,83.41c-.31,0-1.05,.18-1.05,.18-1.54,.55-3.87,2.28-7.87,7.5v15.13c0,.92-.8,1.72-1.73,1.72s-1.72-.8-1.72-1.72v-24.72c0-.92,.8-1.72,1.72-1.72s1.73,.8,1.73,1.72v5.29c.98-1.41,5.47-7.01,8.18-7.01,1.23,0,1.97,.74,1.97,2.03,0,.74-.55,1.6-1.23,1.6"/><path class="cls-2" d="M427.91,87.53c0-2.4-1.29-4.62-5.17-4.62h-2.4c-3.01,0-5.29,1.29-5.29,4.62v3.56h12.85v-3.56Zm.43,6.76h-13.28v5.9c0,2.83,2.64,4.43,4.86,4.43,5.1,0,6.15-.62,7.74-.62,1.05,0,1.66,.68,1.66,1.41,0,.68-.49,1.41-1.48,1.66-1.84,.49-6.58,.86-7.69,.86-4.43,0-8.55-3.07-8.55-8.12v-11.99c0-5.17,3.87-8.06,8.55-8.06h2.89c4.86,0,8,3.75,8,7.93v4c0,2.28-1.05,2.59-2.71,2.59"/><path class="cls-2" d="M290.91,156.7c-.98,0-1.78-.8-1.78-1.72v-36.84c0-.98,.8-1.78,1.78-1.78,.92,0,1.66,.8,1.66,1.72v36.9c0,.92-.74,1.72-1.66,1.72"/><path class="cls-2" d="M319.65,156.7c-.92,0-1.72-.8-1.72-1.72v-16.91c0-5.04-2.22-6.15-3.87-6.15-3.51,0-8.55,6.33-10.58,7.99v15.07c0,.92-.67,1.72-1.6,1.72-.98,0-1.78-.8-1.78-1.72v-24.78c0-.92,.8-1.72,1.72-1.72s1.72,.8,1.72,1.72v5.54c1.35-1.36,6.03-7.26,10.58-7.26,4.3,0,7.26,3.45,7.26,9.65v16.85c0,.92-.8,1.72-1.72,1.72"/><path class="cls-2" d="M344.15,155.78c-1.35,.43-1.54,.86-4.92,.86-4,0-7.31-2.33-7.31-7.38v-17.03h-4.49c-.86,0-1.6-.74-1.6-1.6s.74-1.6,1.6-1.6h4.43v-8.36c0-.92,.86-1.72,1.79-1.72,.98,0,1.72,.8,1.72,1.72v8.36h6.34c.86,0,1.6,.68,1.6,1.54s-.86,1.66-1.72,1.66h-6.27v16.6c0,3.75,2.09,4.67,4.06,4.67,2.59,0,3.13-.86,4.3-.86,.92,0,1.54,.62,1.54,1.54,0,.74-.44,1.41-1.05,1.6"/><path class="cls-2" d="M366.28,136.29c0-2.4-1.29-4.62-5.17-4.62h-2.4c-3.02,0-5.29,1.29-5.29,4.62v3.56h12.85v-3.56Zm.43,6.76h-13.28v5.9c0,2.83,2.64,4.43,4.86,4.43,5.1,0,6.15-.62,7.75-.62,1.05,0,1.66,.68,1.66,1.41,0,.68-.49,1.41-1.47,1.66-1.85,.49-6.58,.86-7.69,.86-4.43,0-8.55-3.07-8.55-8.12v-11.99c0-5.17,3.88-8.06,8.55-8.06h2.89c4.86,0,8,3.75,8,7.93v4c0,2.28-1.05,2.59-2.71,2.59"/><path class="cls-2" d="M387.82,155.78c-1.66,.55-1.97,.86-4.92,.86-4,0-7.38-2.33-7.38-7.38v-34.81c0-.92,.8-1.72,1.72-1.72s1.72,.8,1.72,1.72v34.38c0,3.75,2.09,4.67,4.06,4.67,2.33,0,3.26-.86,4.3-.86,.92,0,1.54,.62,1.54,1.48,0,.74-.43,1.48-1.05,1.66"/><path class="cls-2" d="M405.81,155.78c-1.66,.55-1.97,.86-4.92,.86-4,0-7.38-2.33-7.38-7.38v-34.81c0-.92,.8-1.72,1.72-1.72s1.72,.8,1.72,1.72v34.38c0,3.75,2.09,4.67,4.06,4.67,2.33,0,3.26-.86,4.3-.86,.92,0,1.54,.62,1.54,1.48,0,.74-.43,1.48-1.05,1.66"/><path class="cls-2" d="M414.22,121.77c-1.36,0-2.46-1.11-2.46-2.4,0-1.42,1.17-2.58,2.58-2.58,1.29,0,2.4,1.11,2.4,2.46s-1.17,2.52-2.52,2.52m.86,34.93c-.92,0-1.72-.8-1.72-1.72v-22.14c0-.43-.3-.61-.8-.61h-4c-.86,0-1.6-.74-1.6-1.6s.74-1.6,1.6-1.6h6.52c.92,0,1.72,.8,1.72,1.72v24.23c0,.92-.8,1.72-1.72,1.72"/><path class="cls-2" d="M438.1,132.23h-6.46c-3.44,0-4.36,3.2-4.36,5.72,0,3.81,1.35,6.27,4.36,6.27h6.03c3.08,0,4.3-2.89,4.3-6.09,0-2.52-.79-5.9-3.87-5.9m1.9,24.78h-10.76c-4,0-4.49,3.51-4.49,5.6,0,1.91,.92,6.33,4.37,6.33h11.01c3.26,0,4.3-4.06,4.3-6.21,0-1.85-.86-5.72-4.43-5.72m7.38-24.78h-3.32c.67,1.05,1.35,4.61,1.35,5.72,0,5.41-2.21,9.41-7.68,9.41h-5.11v6.46h7.44c5.97,0,7.81,5.35,7.81,8.79s-1.66,9.53-7.69,9.53h-11.13c-5.66,0-7.75-5.47-7.75-9.41,0-3.32,1.11-8.86,7.87-8.86v-6.89s-5.35-.55-5.35-8.85c0-4.8,2.52-9.1,7.75-9.1h15.8c.92,0,1.6,.73,1.6,1.6s-.68,1.6-1.6,1.6"/><path class="cls-2" d="M470.18,136.29c0-2.4-1.29-4.62-5.17-4.62h-2.4c-3.02,0-5.29,1.29-5.29,4.62v3.56h12.85v-3.56Zm.43,6.76h-13.28v5.9c0,2.83,2.64,4.43,4.85,4.43,5.11,0,6.15-.62,7.75-.62,1.05,0,1.66,.68,1.66,1.41,0,.68-.49,1.41-1.48,1.66-1.84,.49-6.58,.86-7.69,.86-4.43,0-8.55-3.07-8.55-8.12v-11.99c0-5.17,3.87-8.06,8.55-8.06h2.89c4.86,0,8,3.75,8,7.93v4c0,2.28-1.05,2.59-2.71,2.59"/><path class="cls-2" d="M499.2,156.7c-.92,0-1.72-.8-1.72-1.72v-16.91c0-5.04-2.22-6.15-3.87-6.15-3.51,0-8.55,6.33-10.58,7.99v15.07c0,.92-.67,1.72-1.6,1.72-.98,0-1.78-.8-1.78-1.72v-24.78c0-.92,.8-1.72,1.72-1.72s1.72,.8,1.72,1.72v5.54c1.35-1.36,6.03-7.26,10.58-7.26,4.31,0,7.26,3.45,7.26,9.65v16.85c0,.92-.8,1.72-1.72,1.72"/><path class="cls-2" d="M524.26,155.97c-2.15,.67-6.82,.73-7.62,.73-4.92,0-8.67-3.2-8.67-8.05v-12.06c0-4.86,3.75-8.06,8.67-8.06,1.05,0,5.6,.12,7.62,.74,.98,.31,1.29,.92,1.29,1.66s-.74,1.48-1.72,1.48c-.92,0-4.06-.74-6.52-.74-3.01,0-5.9,1.17-5.9,4.74v12.42c0,3.57,2.89,4.73,5.9,4.73,2.4,0,5.54-.74,6.52-.74s1.72,.74,1.72,1.41c0,.74-.31,1.41-1.29,1.73"/><path class="cls-2" d="M547.34,136.29c0-2.4-1.29-4.62-5.17-4.62h-2.4c-3.01,0-5.29,1.29-5.29,4.62v3.56h12.85v-3.56Zm.43,6.76h-13.28v5.9c0,2.83,2.65,4.43,4.86,4.43,5.11,0,6.15-.62,7.75-.62,1.05,0,1.66,.68,1.66,1.41,0,.68-.49,1.41-1.48,1.66-1.85,.49-6.58,.86-7.69,.86-4.43,0-8.55-3.07-8.55-8.12v-11.99c0-5.17,3.87-8.06,8.55-8.06h2.89c4.86,0,8,3.75,8,7.93v4c0,2.28-1.05,2.59-2.71,2.59"/></svg>