<?xml version="1.0" encoding="UTF-8"?><svg id="logo_GymCraft" xmlns="http://www.w3.org/2000/svg" viewBox="0 0 560 68.49"><defs><style>.cls-1{fill:#3e3e3e;}.cls-2{fill:#2ea3f2;}</style></defs><polygon class="cls-2" points="517.82 10.04 527.42 0 560 34.35 527.49 68.49 517.72 58.39 540.6 34.35 517.82 10.04"/><polygon class="cls-2" points="487.75 10.04 497.36 0 529.93 34.35 497.42 68.49 487.65 58.39 510.54 34.35 487.75 10.04"/><polygon class="cls-1" points="153.09 57.62 145.14 57.62 129.89 26.59 129.48 26.68 129.48 57.53 121.16 57.53 121.16 7.13 129.7 7.13 148.82 46.04 149.24 46.05 167.6 7.1 176.31 7.1 176.31 57.58 167.89 57.58 167.89 27.26 167.45 27.14 153.09 57.62"/><polygon class="cls-2" points="457.67 10.04 467.28 0 499.85 34.35 467.35 68.49 457.58 58.39 480.46 34.35 457.67 10.04"/><path class="cls-1" d="M43.3,13.54c-1.98,2.02-3.85,3.93-5.79,5.91-2.2-2.1-4.81-3.57-7.79-4.25-10.32-2.36-20.69,3.81-21.06,16.01-.07,2.38,.16,4.84,.7,7.16,1.39,5.92,5.21,9.65,11.14,11.01,6.49,1.49,12.38,.35,17.26-4.48,.19-.19,.35-.4,.54-.62v-7.32h-8.25v-7.92h16.66v28.7h-7.16l-.54-4.49c-.72,.53-1.23,.88-1.72,1.26-3.11,2.42-6.69,3.57-10.59,3.8-3.73,.22-7.41-.09-10.95-1.37-5.96-2.14-10.39-6.04-12.95-11.82-3.63-8.21-3.86-16.5,.05-24.72C7.1,11.46,16.61,5.87,26.51,6.32c5.85,.27,10.99,2.24,15.48,5.97,.33,.27,.64,.57,.95,.87,.15,.15,.29,.31,.36,.39Z"/><path class="cls-1" d="M291.06,57.61h-9.86l-13.24-21.08h-4.93v21h-8.44V28.14h7.97l-8.06-14.16-.04-6.93s11.78-.05,16.89,0c3.43,.03,6.72,.79,9.77,2.38,5.45,2.84,7.61,7.45,7.33,13.23-.29,6-3.44,9.97-8.94,12.19-.64,.26-1.29,.51-2.21,.87,4.56,7.26,13.75,21.89,13.75,21.89Zm-18.57-29.6s3.38-.51,4.78-1.34c1.98-1.18,2.88-2.96,2.76-5.25-.14-2.64-1.68-4.18-4.01-5.1-3.62-1.43-11.44-.87-11.44-.87l7.91,12.56Z"/><path class="cls-1" d="M231.4,45.41c2.07,1.99,3.99,3.84,5.97,5.76-1.75,1.84-3.87,3.26-6.16,4.46-9.99,5.26-23.51,2.83-30.82-5.61-5.11-5.9-6.8-12.89-6.13-20.51,.57-6.54,3.01-12.26,7.93-16.75,5.19-4.74,11.43-6.63,18.36-6.42,6.02,.18,11.3,2.3,15.84,6.25,.36,.31,.77,.58,1,.75-2.04,2.08-3.9,3.98-5.86,5.97-.56-.42-1.26-.97-2-1.49-6.46-4.53-15.73-4.12-21.38,.96-2.12,1.91-3.61,4.25-4.45,6.97-1.04,3.33-1.27,6.73-.7,10.17,1.48,8.9,8.59,14.51,17.76,14.01,3.48-.19,6.59-1.39,9.36-3.5,.51-.39,1.01-.79,1.29-1.02Z"/><path class="cls-1" d="M310.46,57.57h-9.05l20.07-51.48h.34l20.13,51.44h-9.05l-2.19-5.59h-18.11l-2.14,5.62Zm5.03-13.21h12.32l-5.94-16.89h-.44l-5.93,16.89Z"/><polygon class="cls-1" points="389.72 15.52 364.51 15.52 364.51 28.06 385.37 28.06 385.37 36.41 364.49 36.41 364.49 57.53 356.05 57.53 356.05 7.14 389.72 7.14 389.72 15.52"/><path class="cls-1" d="M60.46,7.1h10.23l13.04,18.04,12.95-18.04h10.22s-12.45,17.5-18.1,25.33c-.63,.87-.91,1.75-.9,2.82v22.29h-8.32v-22.08c0-1.24-.42-2.25-1.15-3.26-5.6-7.73-17.98-25.11-17.98-25.11Z"/><polygon class="cls-1" points="421.03 57.57 412.52 57.57 412.52 14.72 401.98 14.72 401.98 7.19 431.48 7.19 431.48 14.66 421.03 14.66 421.03 57.57"/><path d="M466.71,48.6l-.03,.02,.03-.02Z"/><path d="M466.69,19.94l.02,.02-.02-.02Z"/></svg>