<?xml version="1.0" encoding="UTF-8"?><svg id="logo_Sensei" xmlns="http://www.w3.org/2000/svg" viewBox="0 0 560 103.72"><defs><style>.cls-1{fill:#272b30;}</style></defs><path class="cls-1" d="M560,1.19h-21.43V103.42h21.43V1.19Z"/><path class="cls-1" d="M262.88,1.43c-10.1,0-19.71,2.9-28.09,8.46V2.88h-21.43V103.18h21.43V50.01c.49-15.23,13.3-27.07,28.83-26.59,14.78,.48,26.85,12.08,27.1,26.59v53.17h21.43V50.01c.49-26.59-21.68-48.34-49.27-48.58Z"/><path class="cls-1" d="M410.45,66.93c-1.48-5.56-4.93-10.63-9.61-14.02-4.19-2.66-8.62-4.59-13.3-5.8,0,0,.49,0-32.03-8.94-1.72-.48-3.45-.97-5.17-1.69-2.46-1.45-3.2-4.35-1.97-6.77,.49-.73,1.23-1.45,1.97-1.93,12.81-9.18,30.8-7.25,41.39,4.59l18.72-10.15c-17-22.96-49.77-27.8-72.93-11.12-.99,.73-1.97,1.45-2.96,2.18-6.16,4.83-9.61,12.08-9.36,19.82,.25,7.49,4.19,14.5,10.35,18.85,2.96,1.93,6.16,3.38,9.61,4.35,0,0,28.09,8.22,37.2,10.88,4.68,1.21,5.91,2.9,6.16,5.08,0,1.21-.25,2.42-.99,3.38-.99,.97-2.22,1.93-3.45,2.66-4.93,2.9-10.59,4.35-16.26,4.59-9.36,0-18.48-4.11-24.39-11.36l-18.48,10.15c16.26,23.2,48.78,29,72.68,13.05,1.23-.72,2.22-1.69,3.45-2.42,8.13-6.28,11.83-15.95,9.36-25.38Z"/><path class="cls-1" d="M497.18,72c-11.09,12.81-30.55,14.26-43.61,3.63-4.19-3.38-7.14-7.98-9.12-12.81h80.32c6.16-27.8-11.83-55.35-40.41-61.63-28.33-6.04-56.42,11.6-62.82,39.64-6.16,27.8,11.83,55.35,40.41,61.63,20.2,4.35,41.39-3.38,53.71-19.82l-18.48-10.63Zm-23.41-50.03c13.06,0,24.88,8.22,29.32,20.3h-58.64c4.43-12.33,16.01-20.3,29.32-20.3Z"/><path class="cls-1" d="M171.72,72c-5.91,6.77-14.29,10.63-23.41,10.63-13.06,0-24.64-7.98-29.07-20.06h80.07c.74-3.38,.99-7.01,.99-10.39,.25-28.52-23.16-51.72-52.23-51.72-28.83-.24-52.48,22.72-52.48,51.24-.25,28.52,23.16,51.72,52.23,51.72,16.75,0,32.77-7.73,42.62-21.03l-18.72-10.39Zm-23.41-50.03c13.06,0,24.88,8.22,29.32,20.3h-58.39c4.44-12.33,16.01-20.3,29.07-20.3Z"/><path class="cls-1" d="M85.24,67.17c-1.48-5.56-4.93-10.63-9.61-14.02-4.19-2.66-8.62-4.83-13.3-6.04,0,0,.49,0-32.03-8.94-1.72-.24-3.45-.97-5.17-1.69-2.46-1.45-3.2-4.35-1.97-6.77,.49-.73,1.23-1.45,1.97-1.93,13.06-8.94,30.8-7.01,41.39,4.83l18.72-10.15C75.39,9.4,59.62,1.67,43.11,1.67,30.8,1.67,18.97,6.02,9.61,13.75-.99,21.97-2.71,37.2,5.67,47.83c1.48,1.69,3.2,3.38,5.17,4.59,2.96,1.93,6.16,3.38,9.61,4.35,0,0,28.09,8.22,37.2,10.88,4.68,1.21,5.91,2.9,6.16,5.08,0,1.21-.25,2.42-.99,3.38-.99,.97-2.22,1.93-3.45,2.66-4.93,2.9-10.59,4.35-16.26,4.35-9.61,0-18.48-4.35-24.39-11.6L0,81.43c16.26,23.2,48.78,29,72.43,13.05,1.23-.73,2.46-1.69,3.45-2.66,7.88-5.56,11.58-15.47,9.36-24.65Z"/></svg>