<?xml version="1.0" encoding="UTF-8"?><svg id="logo_FueLoyal" xmlns="http://www.w3.org/2000/svg" viewBox="0 0 560 184.08"><defs><style>.cls-1{fill:#39c;}</style></defs><g><polygon points="0 143.53 6.63 143.53 6.63 114.8 41.81 114.8 41.81 108.51 6.63 108.51 6.63 83.02 45.21 83.02 45.21 76.73 0 76.73 0 143.53"/><path d="M111.66,124.42c-.91,1.6-2.12,3.04-3.61,4.31-1.63,1.4-3.51,2.6-5.57,3.56-2.09,.99-4.35,1.76-6.72,2.31-2.35,.55-4.81,.84-7.32,.84-3.2,0-6.24-.62-9.02-1.84-2.78-1.22-5.24-3-7.31-5.28-2.08-2.3-3.77-5.16-5.01-8.5-1.24-3.36-1.88-7.19-1.88-11.39v-31.57h-7.64v31.57c0,5.24,.81,10.01,2.42,14.18,1.61,4.17,3.83,7.79,6.6,10.77,2.79,2.98,6.09,5.28,9.81,6.82,3.7,1.55,7.73,2.33,11.97,2.33,5.02,0,9.85-.91,14.36-2.7,3.3-1.31,6.28-3.02,8.91-5.11v7.04h7.64V76.87h-7.64v47.56Z"/><path d="M188.65,85.9c-2.85-2.97-6.35-5.35-10.39-7.09-4.04-1.73-8.67-2.6-13.8-2.6s-9.77,.87-13.84,2.6c-4.08,1.73-7.58,4.12-10.4,7.09-2.81,2.96-5.01,6.49-6.55,10.5-1.54,3.97-2.31,8.28-2.31,12.8s.9,8.87,2.67,12.87c1.76,3.98,4.15,7.5,7.11,10.45,2.95,2.96,6.48,5.34,10.46,7.06,4,1.73,8.33,2.61,12.86,2.61,6.93,0,12.87-1.33,17.68-3.93,4.79-2.61,8.77-6.14,11.84-10.51l.96-1.39-6.19-3.98-.88,1.35c-2.26,3.49-5.33,6.29-9.14,8.31-3.81,2.04-8.62,3.06-14.27,3.06-3.5,0-6.83-.69-9.91-2.06-3.11-1.38-5.83-3.27-8.09-5.6-2.28-2.34-4.11-5.12-5.45-8.26-1.13-2.64-1.79-5.45-1.97-8.37h58.41v-1.61c0-4.51-.75-8.81-2.25-12.79-1.51-4.01-3.72-7.55-6.58-10.53Zm-24.18-2.6c3.67,0,7.03,.58,9.99,1.71,2.95,1.13,5.52,2.7,7.62,4.68,2.11,1.98,3.83,4.34,5.09,7,1.03,2.17,1.79,4.49,2.26,6.94h-49.96c.43-2.43,1.18-4.76,2.23-6.92,1.3-2.67,3.03-5.03,5.15-7.02,2.11-1.97,4.67-3.55,7.62-4.68,2.96-1.13,6.31-1.71,9.98-1.71Z"/><polygon points="404.02 131.13 378.75 76.87 370.44 76.87 400.03 140.12 385.89 168.21 394.27 168.21 407.58 140.83 437.28 76.87 428.98 76.87 404.02 131.13"/><path d="M499.19,87.45c-2.46-2.79-5.39-5.14-8.76-7.05-4.88-2.77-10.28-4.18-16.04-4.18-4.54,0-8.87,.88-12.87,2.61-3.99,1.72-7.51,4.1-10.46,7.05-2.95,2.95-5.33,6.48-7.06,10.47-1.73,4.01-2.61,8.33-2.61,12.87s.88,8.85,2.61,12.86c1.72,3.99,4.1,7.51,7.06,10.46,2.95,2.96,6.48,5.34,10.46,7.06,3.99,1.73,8.32,2.61,12.87,2.61,5.75,0,11.15-1.38,16.03-4.11,3.37-1.89,6.31-4.25,8.77-7.07v10.74h7.64V76.76h-7.64v10.68h0Zm-24.8,47.67c-3.5,0-6.82-.69-9.86-2.06-3.07-1.38-5.79-3.27-8.09-5.61-2.3-2.32-4.14-5.09-5.45-8.24-1.31-3.11-1.97-6.49-1.97-9.99s.66-6.86,1.97-9.95c1.31-3.1,3.14-5.88,5.45-8.25,2.29-2.37,5.03-4.28,8.08-5.65,3.04-1.37,6.35-2.06,9.86-2.06s6.8,.69,9.85,2.06c3.06,1.37,5.76,3.28,8.03,5.64,2.27,2.38,4.11,5.17,5.46,8.29,1.34,3.09,2.01,6.43,2.01,9.93s-.67,6.86-2.01,9.98c-1.36,3.14-3.19,5.92-5.46,8.26-2.26,2.33-4.97,4.22-8.03,5.6-3.04,1.36-6.35,2.05-9.85,2.05Z"/><path d="M558.38,135.57c-.17,0-15.12-.01-15.48-.01-5.06-.1-8.93-1.7-11.81-4.91-2.98-3.3-4.49-7.93-4.49-13.73v-40.18h-7.62l-.02,40.18c0,3.85,.59,7.37,1.75,10.47,1.16,3.14,2.84,5.87,4.97,8.1,2.14,2.25,4.75,3.99,7.75,5.17,2.81,1.12,5.98,1.71,9.42,1.77h17.15v-6.86h-1.62Z"/><path d="M355.01,84.27c-3.02-3.01-6.6-5.43-10.66-7.19-4.08-1.77-8.49-2.66-13.11-2.66s-9.03,.89-13.11,2.66c-4.06,1.76-7.65,4.17-10.66,7.19-3.02,3.02-5.44,6.6-7.19,10.67-1.76,4.08-2.66,8.48-2.66,13.11s.89,9.03,2.66,13.11c1.76,4.06,4.17,7.65,7.19,10.66,3,3.02,6.59,5.44,10.66,7.19,4.08,1.77,8.49,2.67,13.11,2.67s9.03-.89,13.11-2.67c4.07-1.76,7.65-4.17,10.66-7.18,3.01-3.01,5.44-6.6,7.19-10.67,1.76-4.07,2.65-8.48,2.65-13.11s-.89-9.03-2.65-13.11c-1.76-4.07-4.19-7.66-7.19-10.67Zm-23.78,50.25c-3.57,0-6.96-.71-10.06-2.11-3.13-1.41-5.91-3.32-8.27-5.72-2.35-2.39-4.22-5.22-5.56-8.42-1.33-3.19-2.01-6.63-2.01-10.21s.68-7,2.01-10.16c1.34-3.18,3.22-6.02,5.57-8.43,2.35-2.42,5.13-4.37,8.26-5.78,3.12-1.4,6.51-2.11,10.06-2.11s6.95,.71,10.06,2.11c3.13,1.41,5.89,3.34,8.21,5.76,2.32,2.43,4.21,5.28,5.58,8.46,1.37,3.14,2.06,6.56,2.06,10.14s-.69,7.01-2.06,10.2c-1.37,3.2-3.25,6.04-5.57,8.43-2.32,2.39-5.08,4.32-8.21,5.71-3.1,1.39-6.49,2.11-10.06,2.11Z"/><path d="M247.31,133.65l26-73.12-4.45-14.57s-35.03,96.93-35.09,96.88h64.18s-2.83-9.19-2.83-9.19h-47.82Z"/></g><path class="cls-1" d="M299.01,146.05s-8.01,38.02-46.22,38.02c-30.68,0-52.68-25.64-44.08-55.52,.02-.08,46.04-128.56,46.04-128.56l12.06,39.43-38.53,106.62h70.73Z"/></svg>