<?xml version="1.0" encoding="UTF-8"?><svg id="logo_Netzlink" xmlns="http://www.w3.org/2000/svg" viewBox="0 0 590 153.85"><defs><style>.cls-1{fill:#c10d0e;}.cls-2,.cls-3{fill:#6f6f6e;}.cls-3{fill-rule:evenodd;}</style></defs><path class="cls-1" d="M493,60.21c0-7.24,5.87-13.1,13.1-13.1s13.1,5.87,13.1,13.1-5.86,13.1-13.1,13.1-13.1-5.87-13.1-13.1h0Z"/><path class="cls-1" d="M493,140.75c0-7.24,5.87-13.1,13.1-13.1s13.1,5.87,13.1,13.1-5.86,13.1-13.1,13.1-13.1-5.87-13.1-13.1h0Z"/><path class="cls-1" d="M563.79,102.74c0-7.24,5.87-13.1,13.1-13.1s13.11,5.87,13.11,13.1-5.87,13.1-13.11,13.1-13.1-5.87-13.1-13.1h0Z"/><path class="cls-1" d="M528.71,82.96c0-7.24,5.86-13.1,13.1-13.1s13.1,5.87,13.1,13.1-5.87,13.1-13.1,13.1-13.1-5.87-13.1-13.1h0Z"/><path class="cls-1" d="M528.9,122.64c0-7.24,5.86-13.1,13.1-13.1s13.1,5.87,13.1,13.1-5.87,13.1-13.1,13.1-13.1-5.87-13.1-13.1h0Z"/><polygon class="cls-2" points="258.68 13.87 258.68 102.51 278.02 102.51 278.02 13.87 258.68 13.87 258.68 13.87"/><path class="cls-3" d="M296.19,28.69h19.08V13.75h-19.08v14.94h0Zm0,73.82h19.08V36.85h-19.08V102.51h0Z"/><path class="cls-2" d="M352.68,37.1h-19.46V102.51h19.34v-35.4c0-8.16,0-16.32,10.17-16.32,3.77,0,7.16,1.51,8.66,5.02,.75,1.76,.88,3.89,.88,9.79v36.91h19.21V57.69c0-10.17-1.76-16.07-8.66-19.71-3.39-1.88-7.78-2.64-11.68-2.64-4.65,0-8.91,1.13-11.93,2.39-3.39,1.63-4.65,3.14-6.53,5.15v-5.77h0Z"/><polygon class="cls-2" points="409.46 102.51 428.29 102.51 428.29 82.05 436.57 74.26 453.4 102.51 475.75 102.51 450.26 60.33 472.86 36.98 449.63 36.98 428.41 59.45 428.41 13.87 409.46 13.87 409.46 102.51 409.46 102.51"/><path class="cls-2" d="M55.78,65.27c0-15.53-.15-21.41-4.82-27.59-6.18-8.14-15.68-8.59-19.6-8.59-12.82,0-20.05,7.24-22.46,14.47v-12.81H0V102.51H8.89v-31.51c0-15.07,0-19.75,4.52-25.78,3.77-4.97,8.59-8.14,16.73-8.14s12.21,3.62,14.02,6.18c2.71,3.92,2.71,7.99,2.71,22.01v37.24h8.89v-37.24h0Z"/><path class="cls-3" d="M127.84,81.25c-6.18,12.36-15.23,15.08-23.07,15.08-3.02,0-16.43,0-22.16-14.77-2.11-5.58-2.41-11.16-2.26-14.93h55.78c.6-18.69-10.7-37.69-32.41-37.69-17.49,0-33.17,13.27-33.17,37.08,0,20.05,10.4,38.29,34.22,38.29,15.53,0,22.46-7.69,24.57-9.95,3.77-4.22,5.73-8.29,6.78-10.85l-8.29-2.26h0Zm-47.34-21.86c1.66-13.72,10.7-22.46,23.07-22.46,7.09,0,11.91,2.71,14.93,5.43,4.82,4.52,6.78,10.7,7.54,17.03h-45.53Z"/><path class="cls-2" d="M161.75,38.14h19.11v-7.54h-19.11V0h-8.59V30.6h-10.3v7.54h10.3v44.77c0,13.72,0,20.95,12.97,20.95,4.37,0,7.84-1.06,11.46-3.47v-8.89c-3.17,2.41-6.78,4.52-9.95,4.52-3.47,0-5.88-1.96-5.88-8.74V38.14h0Z"/><polygon class="cls-2" points="243.74 94.52 202.35 94.52 241.25 35.88 241.25 30.6 189.96 30.6 189.96 38.29 228.73 38.29 189.84 96.93 189.84 102.51 243.74 102.51 243.74 94.52 243.74 94.52"/></svg>