<?xml version="1.0" encoding="UTF-8"?><svg id="logo_Everimpact" xmlns="http://www.w3.org/2000/svg" viewBox="0 0 560 113.05"><defs><style>.cls-1{fill:#1d1d1b;}</style></defs><path class="cls-1" d="M185.09,32.49c-1.71,.86-3.67,2.44-5.88,4.76v-4.65h-12.04v52.1h12.04v-27.01c0-9.91,3.28-14.87,9.84-14.87,2.17,0,4.4,.82,6.69,2.46l5.51-11.02c-3.46-2.07-6.78-3.1-9.95-3.1-2.39,0-4.46,.45-6.21,1.34Z"/><polygon class="cls-1" points="508.41 13.5 496.37 13.5 496.37 32.6 491.24 32.6 491.24 43.83 496.37 43.83 496.37 84.7 508.41 84.7 508.41 43.83 517.77 43.83 517.77 32.6 508.41 32.6 508.41 13.5"/><rect class="cls-1" x="207.11" y="32.6" width="12.04" height="52.1"/><polygon class="cls-1" points="78.12 61.86 64.64 32.6 51.16 32.6 78.01 88.29 105.08 32.6 91.55 32.6 78.12 61.86"/><polygon class="cls-1" points="0 84.7 45.58 84.7 45.58 72.99 12.46 72.99 12.46 45.39 44.61 45.39 44.61 33.67 12.46 33.67 12.46 13.82 45.58 13.82 45.58 2.11 0 2.11 0 84.7"/><path class="cls-1" d="M418.69,38.65c-4.81-4.99-10.25-7.49-16.31-7.49-7.03,0-12.87,2.6-17.55,7.81-4.67,5.21-7.01,11.71-7.01,19.52s2.34,14.59,7.01,19.9c4.71,5.21,10.66,7.81,17.87,7.81,5.71,0,11.04-2.32,15.99-6.95v5.46h12.09V32.6h-12.09v6.05Zm-3.37,32.2c-2.75,3.07-6.35,4.6-10.81,4.6-4.17,0-7.63-1.59-10.38-4.76-2.67-3.14-4.01-7.2-4.01-12.2,0-4.67,1.37-8.59,4.12-11.77,2.78-3.14,6.24-4.71,10.38-4.71,4.39,0,7.95,1.55,10.7,4.65,2.74,3.17,4.12,7.2,4.12,12.09s-1.37,8.92-4.12,12.09Z"/><path class="cls-1" d="M213.1,3.18c-2.14,0-3.98,.77-5.51,2.3-1.53,1.53-2.3,3.35-2.3,5.46,0,2.21,.77,4.08,2.3,5.62,1.53,1.53,3.39,2.3,5.56,2.3s4.01-.77,5.51-2.3c1.53-1.53,2.3-3.39,2.3-5.56s-.77-4.01-2.3-5.51c-1.53-1.53-3.39-2.3-5.56-2.3Z"/><path class="cls-1" d="M345.05,31.16c-6.03,0-11.41,2.37-16.15,7.12v-5.67h-12.04V113.05h12.04v-34.18c4.81,4.89,10.27,7.33,16.37,7.33,7.06,0,12.91-2.59,17.55-7.76,4.67-5.21,7.01-11.72,7.01-19.53s-2.35-14.6-7.06-19.85c-4.64-5.28-10.54-7.92-17.71-7.92Zm8.29,39.58c-2.71,3.14-6.15,4.71-10.32,4.71-4.42,0-7.99-1.55-10.7-4.65-2.75-3.17-4.12-7.2-4.12-12.09s1.37-9.02,4.12-12.09c2.75-3.07,6.33-4.6,10.75-4.6,4.17,0,7.63,1.59,10.38,4.76,2.71,3.14,4.06,7.2,4.06,12.2,0,4.71-1.39,8.63-4.17,11.77Z"/><path class="cls-1" d="M449.34,39.18c-5.49,5.35-8.24,11.91-8.24,19.69s2.71,14.28,8.13,19.52c5.42,5.21,12.16,7.81,20.22,7.81,4.89,0,9.77-1.27,14.66-3.8v-15.89c-2.89,3.49-5.4,5.85-7.54,7.06-2.21,1.25-4.76,1.87-7.65,1.87-4.53,0-8.26-1.57-11.18-4.71-2.89-3.14-4.33-7.15-4.33-12.04s1.5-8.75,4.49-11.93c3-3.17,6.76-4.76,11.29-4.76,2.89,0,5.4,.64,7.54,1.93,2.17,1.25,4.64,3.55,7.38,6.9v-15.99c-4.57-2.46-9.41-3.69-14.55-3.69-7.99,0-14.73,2.67-20.22,8.02Z"/><path class="cls-1" d="M286.26,31.16c-6.45,0-11.57,2.57-15.35,7.7-3.42-5.14-8.08-7.7-13.96-7.7-2.64,0-4.83,.45-6.58,1.34-1.64,.86-3.62,2.5-5.94,4.92v-4.81h-12.04v52.1h12.04v-26.91c0-5.46,.78-9.45,2.33-11.98,1.55-2.53,4.02-3.8,7.41-3.8,5.35,0,8.02,4.64,8.02,13.91v28.78h12.09v-26.91c0-5.53,.76-9.54,2.27-12.04,1.52-2.5,3.93-3.74,7.25-3.74,2.85,0,4.9,1.05,6.15,3.16,1.21,2.07,1.82,5.6,1.82,10.59v28.94h12.09V52.5c0-14.23-5.87-21.34-17.6-21.34Z"/><path class="cls-1" d="M544.74,0c-8.43,0-15.26,6.83-15.26,15.26s6.83,15.26,15.26,15.26,15.26-6.83,15.26-15.26-6.83-15.26-15.26-15.26Zm0,25.02c-5.39,0-9.76-4.37-9.76-9.76s4.37-9.76,9.76-9.76,9.76,4.37,9.76,9.76-4.37,9.76-9.76,9.76Z"/><path class="cls-1" d="M131.5,31.16c-7.6,0-13.7,2.51-18.3,7.54-4.57,5.1-6.85,11.77-6.85,20.01s2.35,14.98,7.06,20.01c4.71,4.99,10.95,7.49,18.72,7.49,2.71,0,5.22-.29,7.54-.86,2.32-.57,4.48-1.47,6.47-2.7,2-1.23,3.87-2.8,5.62-4.71,1.04-1.13,2.04-2.42,3.01-3.82l-9.78-6.37c-1.83,2.59-3.5,4.45-5,5.56-1.96,1.43-4.44,2.14-7.44,2.14-3.85,0-7.01-1.25-9.47-3.74-2.46-2.53-3.85-5.94-4.17-10.22h37.34l.05-2.83c0-8.59-2.21-15.32-6.63-20.17-4.46-4.89-10.52-7.33-18.19-7.33Zm-11.77,20.49c.39-1.5,.96-2.84,1.71-4.01,.75-1.18,1.65-2.18,2.7-3.02,1.05-.84,2.22-1.48,3.5-1.93,1.28-.45,2.66-.67,4.12-.67,6.42,0,10.47,3.21,12.14,9.63h-24.18Z"/></svg>