<?xml version="1.0" encoding="UTF-8"?><svg id="logo_Telenet" xmlns="http://www.w3.org/2000/svg" viewBox="0 0 260 260"><defs><style>.cls-1{fill:#ffc421;}.cls-2{fill:#ffc410;}</style></defs><path class="cls-1" d="M254.73,46.08c-2.63-21.39-19.09-38.18-40.48-40.81,0,0-34.23-5.27-84.25-5.27S45.75,5.27,45.75,5.27C24.35,7.9,7.9,24.68,5.27,46.08c0,0-5.27,38.51-5.27,83.92s5.27,83.92,5.27,83.92c2.63,21.39,19.09,38.18,40.48,40.81,0,0,34.23,5.27,84.25,5.27s84.25-5.27,84.25-5.27c21.39-2.63,38.18-19.42,40.48-40.81,0,0,5.27-38.51,5.27-83.92s-5.27-83.92-5.27-83.92m-34.23,144.81c-1.97,15.47-13.82,27.65-29.29,29.62,0,0-24.68,3.95-61.22,3.95s-61.22-3.95-61.22-3.95c-15.47-1.97-27.65-13.82-29.29-29.62,0,0-3.95-27.65-3.95-60.89s3.95-60.89,3.95-60.89c1.97-15.47,13.82-27.65,29.29-29.62,0,0,24.68-3.95,61.22-3.95s61.22,3.95,61.22,3.95c15.47,1.97,27.65,13.82,29.29,29.62,0,0,3.95,27.65,3.95,60.89-.33,32.91-3.95,60.89-3.95,60.89"/><path class="cls-2" d="M182.66,104.99v-13.49c0-1.32-1.65-1.65-1.65-1.65-6.58-1.65-13.16-2.63-19.42-2.96-6.25,0-12.18,.66-18.1,1.97,0,0-1.65,.33-1.65,1.97v13.16c0,2.63,1.65,1.97,1.65,1.97,5.59-.66,11.52-1.32,17.77-.99,6.58,0,13.16,.66,19.09,1.97,.33-.33,2.3,0,2.3-1.97"/><path class="cls-2" d="M116.84,96.76c0-16.78-20.08-16.78-20.08-16.78,0,0-20.08,0-20.08,16.78s20.08,16.78,20.08,16.78c0,0,20.08,.33,20.08-16.78"/><path class="cls-2" d="M130,181.67c-26,0-47.72-15.14-54.63-20.73,0,0-2.3-2.3-2.3-4.28v-6.91c0-3.62,2.63-1.65,2.63-1.65,7.24,4.61,27.65,15.47,54.3,15.47s47.06-11.52,54.3-15.47c0,0,2.63-1.97,2.63,1.65v6.91c0,1.97-2.3,4.28-2.3,4.28-6.91,5.59-28.63,20.73-54.63,20.73"/></svg>