<?xml version="1.0" encoding="UTF-8"?><svg id="logo_StoneOne" xmlns="http://www.w3.org/2000/svg" viewBox="0 0 560 161.96"><defs><style>.cls-1{fill:#3269aa;}.cls-2{fill:#12100b;}</style></defs><polygon points="362.96 153.09 348.78 161.96 351.1 0 366.91 4.19 362.96 153.09"/><polygon class="cls-1" points="348.78 161.96 293.43 140.73 285.52 9.66 351.1 0 348.78 161.96"/><g><path class="cls-2" d="M47.25,137.95c0,3.77-.93,6.99-2.77,9.67-1.85,2.69-4.59,4.72-8.21,6.1-3.62,1.38-8.02,2.07-13.21,2.07s-9.19-.75-12.72-2.25c-3.53-1.5-6.14-3.38-7.82-5.63-1.68-2.25-2.52-4.51-2.52-6.78,0-1.5,.54-2.78,1.61-3.85,1.08-1.07,2.44-1.6,4.09-1.6,1.45,0,2.55,.35,3.33,1.05,.78,.7,1.51,1.68,2.22,2.95,1.41,2.44,3.1,4.25,5.07,5.45,1.97,1.2,4.65,1.8,8.06,1.8,2.76,0,5.02-.61,6.79-1.83,1.76-1.21,2.65-2.61,2.65-4.18,0-2.4-.91-4.15-2.75-5.25-1.83-1.1-4.86-2.15-9.06-3.15-4.75-1.17-8.61-2.39-11.59-3.68-2.98-1.28-5.36-2.97-7.14-5.07-1.79-2.1-2.68-4.68-2.68-7.75,0-2.73,.83-5.31,2.47-7.75,1.65-2.43,4.08-4.38,7.29-5.83,3.21-1.45,7.1-2.17,11.64-2.17,3.57,0,6.77,.37,9.62,1.1,2.84,.74,5.21,1.72,7.12,2.95,1.9,1.23,3.35,2.6,4.34,4.1,.99,1.5,1.49,2.97,1.49,4.4,0,1.56-.53,2.85-1.59,3.85-1.06,1-2.57,1.5-4.52,1.5-1.41,0-2.62-.4-3.62-1.2-.99-.8-2.12-2-3.41-3.6-1.04-1.33-2.27-2.4-3.68-3.2-1.41-.8-3.34-1.2-5.76-1.2s-4.56,.52-6.21,1.57c-1.65,1.05-2.47,2.36-2.47,3.93,0,1.44,.61,2.61,1.82,3.53,1.21,.91,2.84,1.67,4.9,2.27,2.05,.6,4.88,1.33,8.48,2.2,4.28,1.03,7.77,2.27,10.48,3.7,2.71,1.43,4.76,3.13,6.15,5.07,1.4,1.95,2.1,4.17,2.1,6.67Z"/><path class="cls-2" d="M59.68,101.5h1.51v-8.2c0-2.2,.06-3.92,.18-5.17,.12-1.25,.45-2.33,.98-3.23,.54-.93,1.31-1.69,2.33-2.27,1.01-.58,2.14-.88,3.38-.88,1.76,0,3.34,.65,4.75,1.95,.95,.87,1.54,1.93,1.79,3.18,.26,1.25,.38,3.02,.38,5.32v9.3h5.05c1.96,0,3.45,.46,4.47,1.38,1.02,.92,1.54,2.09,1.54,3.52,0,1.83-.73,3.12-2.2,3.85-1.46,.73-3.56,1.1-6.29,1.1h-2.57v25.1c0,2.13,.07,3.78,.23,4.93,.15,1.15,.56,2.08,1.21,2.8,.65,.72,1.73,1.08,3.21,1.08,.8,0,1.9-.14,3.28-.42,1.39-.29,2.46-.43,3.24-.43,1.11,0,2.11,.44,3.01,1.33,.89,.88,1.33,1.97,1.33,3.27,0,2.2-1.21,3.88-3.64,5.05-2.42,1.17-5.91,1.75-10.44,1.75s-7.58-.72-9.8-2.15c-2.22-1.43-3.67-3.41-4.37-5.95-.69-2.53-1.04-5.91-1.04-10.15v-26.2h-1.82c-1.98,0-3.5-.47-4.54-1.4-1.04-.93-1.56-2.12-1.56-3.55s.54-2.61,1.64-3.52c1.09-.92,2.69-1.38,4.77-1.38Z"/><path class="cls-2" d="M147.11,128.05c0,4.07-.63,7.82-1.92,11.25-1.28,3.43-3.12,6.38-5.55,8.85-2.43,2.47-5.32,4.36-8.69,5.67-3.36,1.32-7.15,1.98-11.36,1.98s-7.92-.67-11.26-2c-3.34-1.33-6.22-3.24-8.66-5.73-2.44-2.48-4.29-5.42-5.55-8.8-1.26-3.38-1.9-7.13-1.9-11.23s.64-7.92,1.92-11.35c1.28-3.43,3.12-6.37,5.5-8.8,2.4-2.43,5.29-4.31,8.69-5.63,3.4-1.32,7.15-1.97,11.26-1.97s7.96,.67,11.36,2c3.41,1.33,6.32,3.23,8.74,5.7,2.42,2.47,4.27,5.4,5.52,8.8,1.27,3.4,1.89,7.15,1.89,11.25Zm-13.83,0c0-5.56-1.24-9.9-3.71-13-2.47-3.1-5.8-4.65-9.97-4.65-2.69,0-5.07,.69-7.12,2.08-2.05,1.38-3.63,3.42-4.74,6.12-1.11,2.7-1.67,5.85-1.67,9.45s.54,6.68,1.64,9.35c1.09,2.67,2.66,4.71,4.69,6.13,2.03,1.42,4.44,2.12,7.2,2.12,4.17,0,7.49-1.55,9.97-4.67,2.47-3.11,3.71-7.43,3.71-12.93Z"/><path class="cls-2" d="M170.5,107.86v1.65c2.42-3.16,5.07-5.49,7.95-6.97,2.88-1.48,6.19-2.23,9.92-2.23s6.89,.78,9.75,2.35c2.86,1.57,4.99,3.78,6.41,6.65,.91,1.67,1.5,3.47,1.78,5.4,.27,1.93,.4,4.4,.4,7.4v25.4c0,2.73-.64,4.8-1.89,6.2-1.27,1.4-2.9,2.1-4.92,2.1s-3.72-.72-5-2.15c-1.28-1.43-1.92-3.48-1.92-6.15v-22.75c0-4.5-.64-7.94-1.89-10.33-1.27-2.38-3.78-3.58-7.55-3.58-2.46,0-4.69,.73-6.71,2.18-2.02,1.45-3.5,3.44-4.44,5.97-.67,2.03-1.01,5.84-1.01,11.4v17.1c0,2.77-.65,4.84-1.94,6.23-1.29,1.38-2.97,2.07-5.03,2.07s-3.61-.72-4.9-2.15c-1.28-1.43-1.92-3.48-1.92-6.15v-39.45c0-2.6,.57-4.54,1.72-5.83,1.15-1.28,2.71-1.92,4.7-1.92,1.21,0,2.31,.28,3.28,.85,.98,.57,1.76,1.42,2.35,2.55,.59,1.13,.89,2.52,.89,4.15Z"/><path class="cls-2" d="M258.9,131.4h-26.96c.03,3.1,.67,5.83,1.89,8.2,1.23,2.36,2.86,4.15,4.9,5.35,2.03,1.2,4.27,1.8,6.74,1.8,1.65,0,3.15-.19,4.51-.57,1.37-.39,2.69-.98,3.96-1.8,1.28-.82,2.45-1.69,3.53-2.62,1.08-.94,2.47-2.2,4.2-3.8,.7-.6,1.71-.9,3.02-.9,1.42,0,2.56,.39,3.43,1.15,.87,.77,1.31,1.85,1.31,3.25,0,1.23-.49,2.68-1.46,4.32-.98,1.65-2.45,3.24-4.42,4.75-1.97,1.52-4.44,2.78-7.42,3.78-2.98,1-6.4,1.5-10.27,1.5-8.85,0-15.73-2.5-20.65-7.5-4.91-5-7.37-11.78-7.37-20.35,0-4.04,.61-7.78,1.82-11.23,1.21-3.45,2.98-6.41,5.3-8.87,2.32-2.47,5.18-4.36,8.58-5.67,3.4-1.32,7.17-1.98,11.31-1.98,5.39,0,10,1.12,13.86,3.37,3.85,2.25,6.74,5.16,8.65,8.73,1.92,3.56,2.88,7.2,2.88,10.9,0,3.43-.99,5.66-2.97,6.67-1.99,1.02-4.78,1.53-8.38,1.53Zm-26.96-7.75h24.99c-.34-4.67-1.61-8.16-3.82-10.48-2.2-2.32-5.1-3.47-8.71-3.47s-6.25,1.18-8.46,3.52c-2.2,2.35-3.54,5.83-4.01,10.43Z"/><path class="cls-2" d="M436.86,128.05c0,4.07-.64,7.82-1.92,11.25-1.28,3.43-3.12,6.38-5.54,8.85-2.42,2.47-5.32,4.36-8.69,5.67-3.37,1.32-7.16,1.98-11.36,1.98s-7.93-.67-11.26-2c-3.34-1.33-6.23-3.24-8.67-5.73-2.44-2.48-4.29-5.42-5.55-8.8-1.26-3.38-1.89-7.13-1.89-11.23s.64-7.92,1.92-11.35c1.28-3.43,3.12-6.37,5.5-8.8,2.4-2.43,5.29-4.31,8.69-5.63,3.39-1.32,7.15-1.97,11.26-1.97s7.95,.67,11.36,2c3.4,1.33,6.31,3.23,8.74,5.7,2.42,2.47,4.26,5.4,5.52,8.8,1.27,3.4,1.9,7.15,1.9,11.25Zm-13.83,0c0-5.56-1.24-9.9-3.72-13-2.48-3.1-5.79-4.65-9.96-4.65-2.69,0-5.07,.69-7.13,2.08-2.05,1.38-3.63,3.42-4.74,6.12-1.11,2.7-1.67,5.85-1.67,9.45s.54,6.68,1.64,9.35c1.09,2.67,2.66,4.71,4.69,6.13,2.04,1.42,4.44,2.12,7.2,2.12,4.17,0,7.49-1.55,9.96-4.67,2.47-3.11,3.72-7.43,3.72-12.93Z"/><path class="cls-2" d="M460.24,107.86v1.65c2.42-3.16,5.07-5.49,7.95-6.97,2.88-1.48,6.18-2.23,9.92-2.23s6.89,.78,9.75,2.35c2.86,1.57,4.99,3.78,6.41,6.65,.91,1.67,1.5,3.47,1.77,5.4,.26,1.93,.4,4.4,.4,7.4v25.4c0,2.73-.63,4.8-1.89,6.2-1.26,1.4-2.91,2.1-4.93,2.1s-3.72-.72-5-2.15c-1.28-1.43-1.92-3.48-1.92-6.15v-22.75c0-4.5-.64-7.94-1.89-10.33-1.27-2.38-3.78-3.58-7.55-3.58-2.46,0-4.69,.73-6.71,2.18-2.02,1.45-3.5,3.44-4.44,5.97-.67,2.03-1.01,5.84-1.01,11.4v17.1c0,2.77-.65,4.84-1.94,6.23-1.29,1.38-2.97,2.07-5.03,2.07s-3.61-.72-4.9-2.15c-1.28-1.43-1.92-3.48-1.92-6.15v-39.45c0-2.6,.57-4.54,1.72-5.83,1.14-1.28,2.71-1.92,4.7-1.92,1.21,0,2.31,.28,3.28,.85,.98,.57,1.76,1.42,2.35,2.55,.59,1.13,.89,2.52,.89,4.15Z"/><path class="cls-2" d="M548.64,131.4h-26.96c.03,3.1,.67,5.83,1.9,8.2,1.23,2.36,2.86,4.15,4.89,5.35,2.04,1.2,4.28,1.8,6.74,1.8,1.65,0,3.15-.19,4.52-.57,1.36-.39,2.68-.98,3.96-1.8,1.28-.82,2.45-1.69,3.53-2.62,1.08-.94,2.47-2.2,4.19-3.8,.7-.6,1.71-.9,3.03-.9,1.41,0,2.55,.39,3.43,1.15,.87,.77,1.31,1.85,1.31,3.25,0,1.23-.49,2.68-1.46,4.32-.97,1.65-2.45,3.24-4.42,4.75-1.97,1.52-4.44,2.78-7.42,3.78-2.98,1-6.4,1.5-10.27,1.5-8.85,0-15.74-2.5-20.65-7.5-4.91-5-7.37-11.78-7.37-20.35,0-4.04,.61-7.78,1.82-11.23,1.21-3.45,2.98-6.41,5.31-8.87,2.32-2.47,5.18-4.36,8.58-5.67,3.4-1.32,7.17-1.98,11.31-1.98,5.39,0,10,1.12,13.86,3.37,3.85,2.25,6.74,5.16,8.65,8.73,1.92,3.56,2.88,7.2,2.88,10.9,0,3.43-.99,5.66-2.98,6.67-1.99,1.02-4.78,1.53-8.38,1.53Zm-26.96-7.75h24.99c-.34-4.67-1.61-8.16-3.82-10.48-2.2-2.32-5.1-3.47-8.7-3.47s-6.25,1.18-8.46,3.52c-2.2,2.35-3.54,5.83-4.01,10.43Z"/></g></svg>