<?xml version="1.0" encoding="UTF-8"?><svg id="loho_Hostabee" xmlns="http://www.w3.org/2000/svg" viewBox="0 0 560 186.61"><defs><style>.cls-1{fill:#ffcf08;}.cls-2{fill:#1d1d1b;}</style></defs><g><path class="cls-1" d="M.05,35.62L0,83.39c0,4.21,2.24,8.11,5.89,10.22l41.34,23.92c3.65,2.11,8.14,2.12,11.8,.01l41.38-23.84c3.65-2.1,5.9-5.99,5.91-10.21l.05-47.76c0-4.21-2.24-8.11-5.89-10.22L59.13,1.59c-3.65-2.11-8.15-2.12-11.8-.01L5.96,25.42C2.3,27.52,.05,31.41,.05,35.62"/><path class="cls-2" d="M23.5,114.63l27.59,15.96c1.26,.73,2.81,.73,4.08,0l27.68-15.94c3.49-2.01,7.47,1.72,5.69,5.33l-31.67,64.35c-1.49,3.03-5.81,3.04-7.31,0L17.81,119.96c-1.78-3.61,2.21-7.35,5.7-5.33"/></g><g><path class="cls-2" d="M148.47,131.56V55.35l9.33-1.6v26.67c1.74-.67,3.59-1.19,5.56-1.56,1.97-.37,3.93-.55,5.87-.55,4.15,0,7.59,.59,10.33,1.76,2.74,1.17,4.93,2.81,6.57,4.91,1.64,2.11,2.79,4.63,3.46,7.57,.67,2.95,1,6.19,1,9.73v29.28h-9.33v-27.28c0-3.21-.22-5.95-.65-8.22-.44-2.27-1.15-4.11-2.15-5.51-1-1.41-2.34-2.42-4.01-3.06-1.67-.64-3.74-.95-6.22-.95-1,0-2.04,.06-3.11,.2-1.07,.14-2.09,.28-3.06,.45-.97,.17-1.85,.35-2.61,.55-.77,.2-1.32,.37-1.65,.5v43.32h-9.33Z"/><path class="cls-2" d="M251.76,105.49c0,4.15-.6,7.89-1.8,11.23-1.21,3.34-2.89,6.22-5.07,8.63-2.17,2.41-4.76,4.26-7.77,5.56-3.01,1.31-6.28,1.96-9.83,1.96s-6.82-.65-9.83-1.96c-3-1.3-5.6-3.16-7.77-5.56-2.17-2.41-3.86-5.28-5.06-8.63-1.2-3.34-1.81-7.08-1.81-11.23s.6-7.8,1.81-11.18c1.2-3.38,2.89-6.27,5.06-8.68,2.17-2.41,4.77-4.26,7.77-5.56,3.01-1.31,6.28-1.96,9.83-1.96s6.82,.65,9.83,1.96c3.01,1.3,5.6,3.16,7.77,5.56,2.17,2.41,3.86,5.3,5.07,8.68,1.2,3.38,1.8,7.1,1.8,11.18m-9.73,0c0-5.89-1.32-10.55-3.96-13.99-2.64-3.44-6.23-5.16-10.78-5.16s-8.14,1.72-10.78,5.16-3.96,8.1-3.96,13.99,1.32,10.55,3.96,13.99,6.23,5.16,10.78,5.16,8.14-1.72,10.78-5.16c2.64-3.44,3.96-8.1,3.96-13.99"/><path class="cls-2" d="M277.03,124.84c3.81,0,6.64-.5,8.48-1.51,1.83-1,2.75-2.6,2.75-4.81s-.9-4.08-2.71-5.42c-1.8-1.34-4.78-2.84-8.92-4.52-2.01-.8-3.93-1.61-5.77-2.46-1.84-.83-3.43-1.82-4.76-2.96-1.34-1.13-2.41-2.5-3.21-4.11-.8-1.6-1.2-3.58-1.2-5.92,0-4.61,1.7-8.27,5.11-10.98,3.41-2.71,8.05-4.06,13.94-4.06,1.47,0,2.94,.08,4.41,.25,1.47,.17,2.84,.37,4.11,.6,1.27,.24,2.39,.49,3.36,.75,.97,.27,1.72,.5,2.26,.7l-1.7,8.03c-1-.53-2.57-1.09-4.71-1.66-2.14-.57-4.71-.85-7.72-.85-2.61,0-4.88,.52-6.82,1.56-1.94,1.04-2.91,2.66-2.91,4.86,0,1.14,.21,2.14,.65,3,.44,.87,1.1,1.66,2.01,2.36,.9,.7,2.02,1.35,3.36,1.96,1.34,.6,2.94,1.23,4.81,1.9,2.48,.94,4.68,1.85,6.62,2.76,1.94,.9,3.6,1.96,4.97,3.16s2.42,2.66,3.16,4.36c.73,1.7,1.11,3.79,1.11,6.27,0,4.81-1.79,8.45-5.36,10.93-3.58,2.47-8.68,3.71-15.29,3.71-4.61,0-8.22-.39-10.83-1.16-2.6-.77-4.38-1.35-5.31-1.75l1.7-8.03c1.07,.41,2.77,1,5.11,1.81s5.45,1.2,9.33,1.2"/><path class="cls-2" d="M318.34,79.42h19.75v7.82h-19.75v24.07c0,2.6,.2,4.76,.6,6.46,.4,1.7,1,3.04,1.8,4.01,.8,.97,1.81,1.65,3.01,2.06,1.2,.4,2.61,.6,4.21,.6,2.8,0,5.06-.32,6.77-.95,1.7-.64,2.89-1.09,3.56-1.35l1.81,7.72c-.94,.47-2.57,1.05-4.91,1.76-2.34,.7-5.01,1.05-8.02,1.05-3.54,0-6.47-.46-8.77-1.36-2.31-.9-4.16-2.26-5.57-4.06-1.4-1.81-2.39-4.03-2.96-6.67-.57-2.64-.85-5.7-.85-9.18v-46.53l9.33-1.6v16.14Z"/><path class="cls-2" d="M366.77,78.11c3.74,0,6.9,.48,9.47,1.45,2.57,.97,4.65,2.34,6.22,4.11,1.57,1.78,2.69,3.88,3.36,6.32,.67,2.44,1,5.13,1,8.07v32.59c-.8,.14-1.92,.32-3.36,.55-1.44,.24-3.06,.45-4.86,.65-1.81,.21-3.76,.39-5.87,.55-2.11,.17-4.2,.25-6.27,.25-2.94,0-5.65-.3-8.12-.9-2.47-.6-4.61-1.56-6.41-2.86-1.81-1.3-3.21-3.02-4.21-5.16-1-2.14-1.51-4.71-1.51-7.72s.59-5.34,1.76-7.42c1.17-2.07,2.76-3.74,4.77-5.01,2-1.27,4.34-2.21,7.02-2.81,2.67-.6,5.48-.9,8.42-.9,.94,0,1.91,.05,2.91,.15,1,.1,1.95,.24,2.86,.41,.9,.17,1.69,.32,2.35,.45,.67,.14,1.14,.23,1.41,.3v-2.61c0-1.54-.17-3.06-.51-4.56-.33-1.51-.93-2.84-1.8-4.01-.87-1.16-2.06-2.1-3.56-2.8-1.51-.7-3.46-1.05-5.87-1.05-3.07,0-5.76,.22-8.07,.65-2.3,.44-4.03,.89-5.16,1.36l-1.11-7.72c1.2-.53,3.21-1.05,6.01-1.55,2.81-.5,5.85-.75,9.13-.75m.8,46.73c2.21,0,4.16-.05,5.87-.15,1.7-.1,3.13-.28,4.26-.55v-15.55c-.68-.33-1.76-.62-3.26-.85s-3.33-.35-5.47-.35c-1.4,0-2.89,.1-4.46,.3-1.57,.2-3,.62-4.31,1.25s-2.39,1.51-3.26,2.6c-.87,1.11-1.3,2.56-1.3,4.36,0,3.34,1.07,5.67,3.21,6.97,2.14,1.31,5.04,1.96,8.72,1.96"/><path class="cls-2" d="M411.6,81.72c1.14-.73,2.86-1.51,5.16-2.3,2.3-.8,4.97-1.2,7.97-1.2,3.74,0,7.07,.67,9.98,2,2.91,1.34,5.36,3.21,7.36,5.62,2.01,2.41,3.53,5.28,4.57,8.62,1.04,3.34,1.55,7.02,1.55,11.03,0,4.21-.62,8.01-1.85,11.38-1.24,3.38-2.99,6.23-5.27,8.57-2.27,2.34-5.01,4.14-8.22,5.42-3.21,1.27-6.82,1.9-10.83,1.9-4.35,0-8.19-.3-11.53-.9-3.34-.6-6.08-1.2-8.22-1.81V55.35l9.33-1.6v27.97Zm0,41.72c.93,.27,2.26,.52,3.96,.75,1.7,.24,3.83,.35,6.37,.35,5.01,0,9.02-1.66,12.03-4.97,3-3.31,4.51-8.01,4.51-14.09,0-2.67-.27-5.18-.8-7.52-.53-2.34-1.4-4.36-2.6-6.07s-2.76-3.04-4.66-4.01c-1.9-.96-4.19-1.45-6.87-1.45s-4.88,.44-7.02,1.31c-2.14,.87-3.78,1.77-4.91,2.71v32.99Z"/><path class="cls-2" d="M458.42,105.59c0-4.61,.67-8.64,2.01-12.09,1.34-3.44,3.11-6.3,5.31-8.57,2.21-2.28,4.75-3.98,7.62-5.12,2.87-1.13,5.81-1.7,8.82-1.7,7.02,0,12.4,2.19,16.14,6.57,3.74,4.37,5.62,11.04,5.62,20v1.55c0,.64-.03,1.22-.1,1.76h-35.7c.41,5.42,1.97,9.53,4.71,12.34,2.74,2.81,7.02,4.21,12.84,4.21,3.27,0,6.03-.28,8.27-.86,2.24-.57,3.92-1.12,5.06-1.65l1.31,7.82c-1.14,.6-3.13,1.23-5.97,1.9-2.84,.67-6.07,1-9.67,1-4.55,0-8.47-.69-11.78-2.05-3.31-1.37-6.03-3.26-8.17-5.67s-3.72-5.27-4.76-8.57c-1.04-3.31-1.56-6.93-1.56-10.88m35.8-5.11c.06-4.21-.98-7.67-3.16-10.38-2.17-2.71-5.16-4.06-8.97-4.06-2.14,0-4.03,.42-5.67,1.25-1.64,.84-3.03,1.92-4.17,3.26-1.13,1.34-2.02,2.88-2.66,4.61-.63,1.74-1.05,3.51-1.25,5.31h25.87Z"/><path class="cls-2" d="M514.48,105.59c0-4.61,.67-8.64,2.01-12.09,1.34-3.44,3.11-6.3,5.32-8.57,2.2-2.28,4.74-3.98,7.62-5.12,2.87-1.13,5.81-1.7,8.82-1.7,7.02,0,12.4,2.19,16.14,6.57,3.74,4.37,5.62,11.04,5.62,20v1.55c0,.64-.03,1.22-.1,1.76h-35.7c.4,5.42,1.97,9.53,4.71,12.34,2.74,2.81,7.02,4.21,12.84,4.21,3.27,0,6.03-.28,8.27-.86,2.24-.57,3.93-1.12,5.07-1.65l1.3,7.82c-1.14,.6-3.13,1.23-5.97,1.9s-6.07,1-9.67,1c-4.55,0-8.47-.69-11.78-2.05-3.31-1.37-6.03-3.26-8.17-5.67-2.14-2.41-3.73-5.27-4.77-8.57-1.04-3.31-1.56-6.93-1.56-10.88m35.8-5.11c.06-4.21-.98-7.67-3.16-10.38-2.17-2.71-5.16-4.06-8.97-4.06-2.14,0-4.03,.42-5.67,1.25-1.64,.84-3.03,1.92-4.16,3.26-1.14,1.34-2.03,2.88-2.66,4.61-.64,1.74-1.05,3.51-1.25,5.31h25.87Z"/></g></svg>