<?xml version="1.0" encoding="UTF-8"?><svg id="logo_Ray" xmlns="http://www.w3.org/2000/svg" viewBox="0 0 470.03 260"><defs><style>.cls-1{fill:#00bfa6;}.cls-2{fill:#939;}.cls-3{fill:#339;}</style></defs><circle class="cls-1" cx="15.49" cy="137.65" r="15.49"/><circle class="cls-1" cx="15.51" cy="99.75" r="15.49"/><circle class="cls-2" cx="116.14" cy="15.51" r="15.49"/><circle class="cls-2" cx="78.24" cy="15.49" r="15.49"/><g><path class="cls-3" d="M136.04,136.31c3.24,4.09,6.36,8.04,9.48,11.99,4.88,6.16,9.75,12.32,14.63,18.47,2.31,2.92,4.17,6.03,4.44,9.88,.55,7.56-4.09,14.01-11.52,15.63-7.27,1.58-13.22-.84-17.76-6.63-10.76-13.7-21.48-27.42-32.16-41.18-.96-1.24-1.93-1.72-3.5-1.7-7.43,.09-14.86,.04-22.3,.04h-1.73c0,.65,0,1.19,0,1.72-.01,10.89-.02,21.77-.03,32.66,0,8.73-6.77,15.45-15.55,15.46-8.86,0-15.7-6.72-15.7-15.47,0-38.68,.02-77.36,.03-116.04,0-8.51,5.03-14.75,13.06-16.21,1-.18,2.04-.23,3.06-.23,17.68,.02,35.37-.11,53.04,.15,11.8,.18,23.01,2.92,33,9.55,10.46,6.94,16.38,16.85,18.45,29.07,1.65,9.73,.95,19.33-2.88,28.53-4.57,10.98-12.78,18.34-23.45,23.18-.81,.37-1.64,.71-2.62,1.14Zm-60.35-42.3h-.07c0,6.23,.03,12.46-.03,18.7-.01,1.22,.31,1.58,1.55,1.58,10.85-.05,21.7-.02,32.54-.03,3.44,0,6.8-.55,10.07-1.61,9.02-2.92,14.15-9.57,14.3-18.46,.15-9.46-4.31-15.73-13.29-18.67-3.94-1.29-8.01-1.7-12.12-1.72-10.42-.04-20.84-.02-31.26-.01q-1.7,0-1.7,1.65c0,6.19,0,12.38,0,18.57Z"/><path class="cls-3" d="M405.77,146.96c1.77-4.49,3.42-8.64,5.06-12.81,10.01-25.39,19.99-50.78,30.03-76.15,2.17-5.47,5.92-9.23,11.99-10.14,10.45-1.57,19.94,8.06,16.44,19.43-1.83,5.94-4.13,11.74-6.27,17.58-14.92,40.75-29.92,81.48-44.74,122.27-3.8,10.46-8.8,20.15-15.95,28.69-6.83,8.15-14.86,14.79-24.52,19.37-12.6,5.98-25.56,5.92-38.72,2.27-3.41-.95-6.84-1.91-9.58-4.36-4.33-3.87-5.91-8.68-4.2-14.22,1.74-5.65,5.65-9.1,11.63-9.99,2.93-.44,5.81,.09,8.35,1.37,6.4,3.22,12.55,2.03,18.78-.41,8.43-3.31,14.82-8.95,19.57-16.58,3.81-6.11,6.46-12.78,9.28-19.36,.18-.41,0-1.07-.21-1.53-8.85-19.91-17.73-39.81-26.6-59.71-9.22-20.68-18.43-41.36-27.67-62.04-1.95-4.36-2.79-8.81-1-13.39,2.23-5.69,6.55-8.87,12.55-9.55,5.8-.65,10.71,1.32,13.97,6.23,1.82,2.74,3.14,5.85,4.48,8.88,12.21,27.52,24.38,55.05,36.56,82.58,.18,.42,.4,.82,.76,1.54Z"/><path class="cls-3" d="M188.7,179.2c.59-2.16,.9-4.45,1.82-6.45,17.6-38.51,35.26-76.99,52.93-115.46,2.6-5.66,6.71-9.61,13.05-10.55,8.53-1.27,15.63,1.51,19.54,10.04,17.57,38.38,35.11,76.78,52.67,115.16,2.67,5.83,2.6,11.44-1.55,16.58-5.74,7.11-16.65,7.14-22.51,.08-1.18-1.42-2.18-3.07-2.95-4.76-3.69-7.97-7.29-15.98-10.87-24-.44-.98-.98-1.27-2.02-1.27-19.51,0-39.03-.01-58.54-.07-1.12,0-1.63,.36-2.08,1.37-3.66,8.26-7.37,16.51-11.09,24.74-2.38,5.28-6.39,8.42-12.23,9.05-8.64,.92-15.81-5.6-15.8-14.35l-.36-.1Zm52.7-49.2h36.23c-6.02-13.41-11.98-26.69-18.08-40.26-6.11,13.56-12.09,26.81-18.15,40.26Z"/></g></svg>