<?xml version="1.0" encoding="UTF-8"?>
<svg id="Livello_1" data-name="Livello 1" xmlns="http://www.w3.org/2000/svg" viewBox="0 0 560 104.83">
  <defs>
    <style>
      .cls-1 {
        fill: #d01a2d;
        stroke-width: 0px;
      }
    </style>
  </defs>
  <g id="Capa_2" data-name="Capa 2">
    <g>
      <path class="cls-1" d="m170.03,25.58c-13.21,0-23.05,5.2-29.37,13.21h-.28v-11.24h-19.39v74.48h19.39v-40.05c0-15.88,13.07-21.5,23.19-21.5,16.02,0,18.69,9.13,18.69,17.15v44.41h19.39v-50.59c0-20.1-15.6-25.86-31.61-25.86h-.01Z"/>
      <path class="cls-1" d="m242.82,75.6v-34.01h20.24v-14.06h-20.24V4.5h-19.39v23.05h-15.46v14.06h15.46v39.63c0,14.06,1.83,22.48,25.44,22.48,5.9,0,9.69-.42,14.9-1.12v-14.06c-4.63.14-9.13.28-13.92.28-6.61,0-7.03-4.64-7.03-13.21h0Z"/>
      <path class="cls-1" d="m317.03,24.73c-26.42,0-44.83,15.88-44.83,40.75,0,19.82,12.51,39.35,46.09,39.35,28.38,0,38.51-16.45,42.72-24.73h-21.08c-3.79,6.18-9.41,10.68-22.2,10.68-19.26,0-24.87-12.79-25.29-21.08h70.26v-2.81c0-21.78-12.65-42.16-45.67-42.16h0Zm-24.59,32.6c3.23-15.18,15.88-19.39,24.87-19.39,9.55,0,22.77,4.49,25.16,19.39h-50.03Z"/>
      <path class="cls-1" d="m395.72,42.02h-.28v-14.48h-19.39v74.48h19.39v-35.98c0-17.29,13.92-22.49,23.75-22.49,3.37,0,7.02.14,12.37,1.83v-19.11c-2.53-.42-4.78-.7-7.73-.7-14.9,0-22.9,8-28.1,16.44h0Z"/>
      <path class="cls-1" d="m521.08,85.03v-35.28c0-9.69-1.12-25.01-40.05-25.01-22.06,0-36.54,6.04-39.35,25.57h18.97c.7-8.29,7.59-12.37,20.38-12.37,11.24,0,21.08,2.11,21.08,10.68,0,5.76-2.95,6.74-30.77,9.41-12.37,1.12-33.45,2.95-33.45,23.47,0,14.62,10.96,23.33,30.35,23.33,21.78,0,31.19-6.6,34.99-10.26.56,2.81,1.97,9.55,14.62,9.55,6.6,0,9.97-.98,13.78-1.69v-13.64c-1.54.28-4.49.42-6.32.42-1.29,0-4.23-.14-4.23-4.21v.03Zm-19.4-12.93c0,16.44-17.57,20.38-27.96,20.38-6.6,0-15.6-1.83-15.6-11.66,0-6.32,3.51-9.55,18.13-11.24,13.78-1.54,19.82-2.25,25.44-4.63v7.16h-.01Z"/>
      <rect class="cls-1" x="540.61" width="19.39" height="102.03"/>
      <path class="cls-1" d="m44.68,1.69L0,102.03h22.76l9.73-23.63c7.81,2.48,15.94,3.76,24.29,3.76s16.57-1.29,24.42-3.79l9.71,23.67h23.47L69.7,1.69s-25.02,0-25.02,0Zm12.11,64.14c-6.2,0-12.21-.96-18.02-2.66l.72-1.75h0l17.43-42.3,18.05,44.01c-5.86,1.73-11.93,2.7-18.18,2.7Z"/>
    </g>
  </g>
</svg>