<?xml version="1.0" encoding="UTF-8"?><svg id="logo_WiseTown" xmlns="http://www.w3.org/2000/svg" viewBox="0 0 560 118.16"><defs><style>.cls-1{fill:#ffcc03;}.cls-2{fill:#e72c46;}.cls-3{fill:#d8d8d8;}.cls-4{fill:#87bf59;}.cls-5{fill:#378bcb;}.cls-6{fill:none;stroke:#87bf59;stroke-miterlimit:10;stroke-width:1.75px;}</style></defs><rect class="cls-3" x="10.24" y="16.37" width="76.29" height="2.42"/><g><path class="cls-5" d="M14,114.45c-4.42-2.21-7.86-5.28-10.31-9.21-2.46-3.93-3.68-8.29-3.68-13.07V48.34c0-2.09,.74-3.9,2.21-5.43,1.47-1.53,3.25-2.3,5.34-2.3s3.9,.77,5.43,2.3c1.53,1.54,2.3,3.35,2.3,5.43v43.83c0,3.07,1.23,5.52,3.68,7.37,2.45,1.84,5.77,2.76,9.94,2.76s7.49-.92,9.94-2.76c2.45-1.84,3.68-4.3,3.68-7.37V48.34c0-2.09,.77-3.9,2.3-5.43,1.53-1.53,3.34-2.3,5.43-2.3s3.87,.77,5.34,2.3c1.47,1.54,2.21,3.35,2.21,5.43v43.83c0,3.07,1.23,5.52,3.68,7.37,2.45,1.84,5.77,2.76,9.94,2.76s7.49-.92,9.94-2.76c2.45-1.84,3.68-4.3,3.68-7.37V48.34c0-2.09,.74-3.9,2.21-5.43,1.47-1.53,3.25-2.3,5.34-2.3s3.9,.77,5.43,2.3c1.53,1.54,2.3,3.35,2.3,5.43v43.83c0,4.79-1.23,9.15-3.68,13.07-2.46,3.93-5.89,7-10.31,9.21-4.42,2.21-9.39,3.31-14.92,3.31-8.59,0-15.65-2.58-21.18-7.73-2.58,2.46-5.74,4.36-9.48,5.71-3.75,1.35-7.71,2.03-11.88,2.03-5.52,0-10.5-1.11-14.92-3.31Z"/><path class="cls-5" d="M110.02,109.21c-3.68-4.66-5.05-11.52-5.05-17.78V48.08c0-2.45,.77-4.33,2.3-5.62,1.53-1.29,3.34-1.93,5.43-1.93s3.87,.64,5.34,1.93c1.47,1.29,2.21,3.16,2.21,5.62v43.35c0,2.33,.61,5.23,1.84,6.95,1.23,1.72,2.88,2.89,4.97,3.5,2.33,.62,4.08,1.69,5.25,3.22,1.17,1.54,1.75,3.22,1.75,5.06,0,2.21-.36,4.45-2.01,5.92-1.66,1.47-4.31,2.28-7.01,1.79-6.02-.98-11.34-4-15.02-8.67Z"/><path class="cls-5" d="M160.95,117.76c-8.35,0-15.59-2.33-21.73-7-2.09-1.35-3.13-3.19-3.13-5.52,0-2.09,.8-3.99,2.39-5.71,1.59-1.72,3.5-2.58,5.71-2.58,1.59,0,3.13,.55,4.6,1.66,4.42,2.7,8.9,4.05,13.44,4.05,3.32,0,5.86-.58,7.64-1.75,1.78-1.17,2.61-2.61,2.49-4.33-.37-1.84-1.6-3.47-3.68-4.88-2.09-1.41-5.28-3.1-9.58-5.06-4.91-2.21-8.96-4.3-12.15-6.26-3.19-1.96-5.96-4.51-8.29-7.64-2.33-3.13-3.5-6.97-3.5-11.51,0-6.01,2.45-10.92,7.37-14.73,4.91-3.8,11.42-5.71,19.52-5.71s15.28,2.33,21.91,7c2.09,1.35,3.13,3.25,3.13,5.71,0,2.09-.8,3.99-2.39,5.71-1.6,1.72-3.44,2.58-5.52,2.58-1.72,0-3.38-.61-4.97-1.84-3.19-2.45-7.49-3.68-12.89-3.68-3.32,0-6.05,.55-8.19,1.66-2.15,1.1-3.1,2.52-2.85,4.24,.24,1.84,1.47,3.5,3.68,4.97,2.21,1.47,5.52,3.19,9.94,5.16,5.03,2.33,9.12,4.45,12.25,6.35,3.13,1.9,5.86,4.42,8.19,7.55,2.33,3.13,3.5,6.91,3.5,11.33,0,5.28-1.9,9.73-5.71,13.35-3.81,3.62-8.9,5.8-15.28,6.54-1.35,.24-3.32,.37-5.89,.37Z"/><path class="cls-5" d="M208.92,112.61c-5.83-3.44-10.47-8.1-13.9-14-3.44-5.89-5.16-12.34-5.16-19.34,0-6.38,1.44-12.4,4.33-18.05,2.88-5.65,6.91-10.25,12.06-13.81,6.51-4.54,13.75-6.81,21.73-6.81,4.91,0,9.73,.95,14.46,2.85,4.72,1.9,8.93,4.7,12.61,8.38,1.96,1.97,2.95,4.17,2.95,6.63,0,2.21-.92,4.18-2.76,5.89l-29.1,25.04c-1.23,.74-2.52,1.1-3.87,1.1-1.84,0-3.41-.74-4.7-2.21-1.29-1.47-1.93-3.25-1.93-5.34,0-2.58,1.04-4.85,3.13-6.81l20.26-16.94c-3.19-1.96-6.69-2.95-10.5-2.95s-7.64,1.01-11.14,3.04c-3.5,2.03-6.35,4.79-8.56,8.29-2.21,3.5-3.32,7.4-3.32,11.69,0,6.39,2.18,11.79,6.54,16.21,4.36,4.42,9.73,6.63,16.11,6.63,5.77,0,10.74-1.9,14.92-5.71,1.72-1.59,3.56-2.39,5.52-2.39,2.09,0,3.96,.83,5.62,2.49s2.49,3.53,2.49,5.62c0,1.97-.74,3.68-2.21,5.16-3.56,3.31-7.64,5.89-12.25,7.73-4.6,1.84-9.3,2.76-14.09,2.76-7,0-13.41-1.72-19.24-5.16Z"/><path class="cls-5" d="M274.02,114.45c-4.42-2.21-7.86-5.28-10.31-9.21-2.46-3.93-3.68-8.29-3.68-13.07V7.55c0-2.45,.77-4.33,2.3-5.62,1.53-1.29,3.34-1.93,5.43-1.93s3.87,.65,5.34,1.93c1.47,1.29,2.21,3.16,2.21,5.62V42.81c2.95-1.47,6.2-2.21,9.76-2.21h17.5c2.45,0,4.36,.77,5.71,2.3,1.35,1.54,2.03,3.29,2.03,5.25,0,2.09-.68,3.9-2.03,5.43-1.35,1.54-3.25,2.3-5.71,2.3h-17.5c-2.09,0-4.21,.71-6.35,2.12-2.15,1.41-3.29,2.79-3.41,4.14v30.02c0,3.07,1.23,5.52,3.68,7.37,2.45,1.84,5.77,2.76,9.94,2.76s7.49-.92,9.94-2.76c2.45-1.84,3.68-4.3,3.68-7.37,0-2.7,.77-4.79,2.3-6.26,1.53-1.47,3.34-2.21,5.43-2.21,1.96,0,3.71,.74,5.25,2.21,1.53,1.47,2.3,3.56,2.3,6.26,0,4.79-1.23,9.15-3.68,13.07-2.46,3.93-5.89,7-10.31,9.21-4.42,2.21-9.39,3.31-14.92,3.31s-10.5-1.11-14.92-3.31Z"/><path class="cls-5" d="M338.93,112.61c-5.83-3.44-10.47-8.1-13.9-14-3.44-5.89-5.16-12.34-5.16-19.34s1.72-13.47,5.16-19.43c3.44-5.95,8.07-10.65,13.9-14.09,5.83-3.44,12.25-5.16,19.24-5.16s13.41,1.72,19.24,5.16c5.83,3.44,10.46,8.13,13.9,14.09,3.44,5.96,5.16,12.43,5.16,19.43s-1.72,13.44-5.16,19.34c-3.44,5.89-8.07,10.56-13.9,14-5.83,3.44-12.25,5.16-19.24,5.16s-13.41-1.72-19.24-5.16Zm35.27-17.13c4.42-4.42,6.63-9.82,6.63-16.21,0-4.17-1.01-8.01-3.04-11.51-2.03-3.5-4.79-6.29-8.29-8.38-3.5-2.09-7.27-3.13-11.33-3.13-6.26,0-11.6,2.24-16.02,6.72-4.42,4.48-6.63,9.91-6.63,16.3s2.18,11.79,6.54,16.21c4.36,4.42,9.73,6.63,16.11,6.63s11.6-2.21,16.02-6.63Z"/><path class="cls-5" d="M412.31,114.45c-4.42-2.21-7.86-5.28-10.31-9.21-2.46-3.93-3.68-8.29-3.68-13.07V48.34c0-2.09,.74-3.9,2.21-5.43,1.47-1.53,3.25-2.3,5.34-2.3s3.9,.77,5.43,2.3c1.53,1.54,2.3,3.35,2.3,5.43v43.83c0,3.07,1.23,5.52,3.68,7.37,2.45,1.84,5.77,2.76,9.94,2.76s7.49-.92,9.94-2.76c2.45-1.84,3.68-4.3,3.68-7.37V48.34c0-2.09,.77-3.9,2.3-5.43,1.53-1.53,3.34-2.3,5.43-2.3s3.87,.77,5.34,2.3c1.47,1.54,2.21,3.35,2.21,5.43v43.83c0,3.07,1.23,5.52,3.68,7.37,2.45,1.84,5.77,2.76,9.94,2.76s7.49-.92,9.94-2.76c2.45-1.84,3.68-4.3,3.68-7.37V48.34c0-2.09,.74-3.9,2.21-5.43,1.47-1.53,3.25-2.3,5.34-2.3s3.9,.77,5.43,2.3c1.53,1.54,2.3,3.35,2.3,5.43v43.83c0,4.79-1.23,9.15-3.68,13.07-2.46,3.93-5.89,7-10.31,9.21-4.42,2.21-9.39,3.31-14.92,3.31-8.59,0-15.65-2.58-21.18-7.73-2.58,2.46-5.74,4.36-9.48,5.71-3.75,1.35-7.71,2.03-11.88,2.03-5.52,0-10.5-1.11-14.92-3.31Z"/><path class="cls-5" d="M544.72,66.2c0-2.95-1.26-5.37-3.77-7.27-2.52-1.9-5.86-2.85-10.04-2.85-4.79,0-9.39,1.6-13.81,4.79v49.39c0,2.46-.77,4.39-2.3,5.8-1.54,1.41-3.29,2.12-5.25,2.12-2.09,0-3.9-.71-5.43-2.12-1.54-1.41-2.3-3.34-2.3-5.8V48.34c0-2.45,.77-4.36,2.3-5.71,1.53-1.35,3.34-2.03,5.43-2.03,2.7,0,4.79,1.1,6.26,3.31,4.79-2.09,9.82-3.13,15.1-3.13,5.65,0,10.68,1.1,15.1,3.31,4.42,2.21,7.85,5.25,10.31,9.12,2.45,3.87,3.68,8.19,3.68,12.98v44.13c0,2.33-.77,4.17-2.3,5.52-1.54,1.35-3.29,2.03-5.25,2.03-2.09,0-3.9-.68-5.43-2.03-1.54-1.35-2.3-3.19-2.3-5.52v-44.13Z"/></g><circle class="cls-2" cx="7.64" cy="17.66" r="7.64"/><circle class="cls-1" cx="50.18" cy="17.66" r="7.64"/><circle class="cls-4" cx="102.66" cy="17.66" r="7.64"/><circle class="cls-6" cx="102.73" cy="17.66" r="16.79"/></svg>