<?xml version="1.0" encoding="UTF-8"?><svg id="logo_Agricolus" xmlns="http://www.w3.org/2000/svg" viewBox="0 0 386.2 52.87"><defs><style>.cls-1{fill:none;}.cls-2{fill:#66725d;}.cls-3{fill:#356a54;}.cls-4{fill:#a3a364;}.cls-5{fill:#709466;}.cls-6{fill:#a39360;}.cls-7{fill:#546f54;}.cls-8{fill:#86a068;}.cls-9{fill:#6d7b57;}.cls-10{fill:#628263;}.cls-11{fill:#3c7d58;}.cls-12{fill:#517e73;}</style></defs><path class="cls-1" d="M224.49,15.34c-1.93,2.26-2.89,5.99-2.89,11.19,0,3.96,.57,7.06,1.7,9.3,.34,.68,.73,1.3,1.18,1.82,1.92,2.26,4.53,3.38,7.83,3.38s6.02-1.1,7.88-3.31c1.86-2.21,2.79-6.17,2.79-11.89,0-4.81-.97-8.33-2.91-10.55-1.28-1.46-2.86-2.43-4.74-2.93-.98-.26-2.02-.4-3.16-.4-3.19,0-5.74,1.13-7.67,3.38Z"/><path class="cls-1" d="M207.18,16.45l-11.5,2.56c-.49-1.56-1-2.7-1.53-3.42-.12-.17-.26-.32-.39-.47-.81-.98-1.76-1.76-2.86-2.32-1.28-.65-2.71-.98-4.29-.98-.24,0-.46,.02-.69,.04-3.24,.18-5.76,1.59-7.54,4.28-1.27,1.88-1.97,4.7-2.13,8.46-.02,.52-.03,1.06-.03,1.61,0,1.97,.11,3.72,.32,5.26,.39,2.88,1.14,5.02,2.26,6.39,1.72,2.1,4.14,3.15,7.25,3.15,.67,0,1.3-.05,1.89-.13,2.1-.29,3.75-1.09,4.96-2.41,1.55-1.7,2.67-4.16,3.37-7.39l10.3,3.11c-.16-.74-.29-1.51-.4-2.3-.24-1.71-.37-3.51-.37-5.42,0-3.7,.46-7.04,1.37-10.02Z"/><path class="cls-1" d="M116.45,11.19h-1.49v10.39h6.66c.72,0,2.12-.23,4.18-.7,1.05-.21,1.9-.74,2.56-1.6,.66-.86,.99-1.85,.99-2.96,0-1.65-.52-2.92-1.57-3.8-.58-.49-1.45-.84-2.6-1.06-.92-.18-2.01-.27-3.3-.27h-5.45Z"/><path class="cls-1" d="M145.07,17.51c-.25,1.82-.8,3.45-1.65,4.89-1.21,2.06-2.87,3.73-4.99,5-.37,.23-.8,.44-1.25,.64-1.18,.53-2.6,.99-4.3,1.38,1.4,.47,2.52,.94,3.35,1.4,.29,.16,.54,.32,.76,.48,.58,.42,1.42,1.31,2.53,2.69,.2,.24,.37,.47,.54,.69,.8,1.04,1.36,1.87,1.67,2.48l.55,1.06,2.79,5.4V17.51Z"/><path class="cls-1" d="M361.02,31.04c-6.93-1.56-11.87-3.63-14.82-6.21-2.12-1.84-3.48-4.04-4.09-6.59v13.09c0,.08,0,.16,0,.24,0,1.15-.08,2.28-.23,3.38l2.41-.15,3.48-.22,7.08-.44c.33,2.44,.99,4.3,1.99,5.58,1.16,1.48,2.68,2.42,4.56,2.84,.75,.17,1.55,.26,2.42,.26s1.68-.11,2.41-.27c1.11-.25,2.07-.68,2.8-1.32,1.22-1.06,1.83-2.28,1.83-3.68s-.58-2.51-1.74-3.56c-.48-.43-1.22-.84-2.2-1.25-1.35-.56-3.19-1.1-5.51-1.63-.13-.03-.24-.06-.37-.09Z"/><polygon class="cls-1" points="32.33 32.5 33.28 32.5 27.64 14.12 25.33 21.7 22.05 32.5 32.33 32.5"/><g><path class="cls-3" d="M384.52,15.24c-.65-5.3-2.69-9.17-6.12-11.6-2.15-1.52-4.92-2.57-8.29-3.14-.44,3.76-.92,8.05-1.4,12.63,.41,.84,.72,1.83,.92,2.98l14.89-.87Z"/><path class="cls-3" d="M384.16,27.79c-1.36-2.26-3.53-4.14-6.52-5.67-2.15-1.1-5.33-2.18-9.5-3.26-.44,4.55-.87,9.26-1.23,13.88,.99,.41,1.73,.82,2.2,1.25,1.16,1.05,1.74,2.23,1.74,3.56,0,1.4-.61,2.62-1.83,3.68-.74,.64-1.69,1.06-2.8,1.32-.22,3.64-.37,7.1-.45,10.26,3.97-.19,7.35-.88,10.1-2.09,3.26-1.43,5.79-3.53,7.6-6.3,1.82-2.77,2.72-5.79,2.72-9.07,0-2.79-.68-5.31-2.04-7.57Z"/></g><g><path class="cls-9" d="M361.39,9.55c.17,0,.32-.03,.5-.03,2.23,0,3.98,.52,5.25,1.57,.64,.52,1.16,1.21,1.58,2.05,.48-4.57,.96-8.87,1.4-12.63-2-.34-4.22-.51-6.65-.51-.71,0-1.4,.01-2.07,.04-4.35,.15-7.85,.81-10.5,1.97-3.06,1.34-5.35,3.17-6.87,5.51-.91,1.39-1.55,2.84-1.91,4.34V.87h-14.28c3.98,6.71,9.08,15.3,14.28,24.1v-6.74c.61,2.56,1.97,4.76,4.09,6.59,2.95,2.58,7.89,4.65,14.82,6.21,.13,.03,.25,.06,.37,.09,2.32,.52,4.16,1.07,5.51,1.63,.37-4.62,.79-9.33,1.23-13.88-1.63-.42-3.4-.84-5.34-1.26-.51-.11-.97-.21-1.4-.32-1.98-.49-3.29-1.01-3.9-1.56-.77-.65-1.15-1.38-1.15-2.2,0-1.12,.47-2.06,1.4-2.84,.84-.7,2.07-1.07,3.65-1.14Z"/><path class="cls-9" d="M361.39,42.56c-1.87-.42-3.4-1.36-4.56-2.84-1-1.28-1.66-3.14-1.99-5.58l-7.08,.44c3.79,6.46,7.44,12.69,10.52,18.04,.99,.1,2.02,.16,3.1,.2,.71,.02,1.43,.04,2.17,.04s1.49-.02,2.21-.06c.08-3.16,.23-6.62,.45-10.26-.73,.17-1.52,.27-2.41,.27s-1.67-.09-2.42-.26Z"/></g><path class="cls-5" d="M324.02,38.62c-1.55,1.55-3.68,2.32-6.4,2.32-1.61,0-3.02-.28-4.22-.82-3.01,3.32-6.31,6.99-9.33,10.48,1.85,.85,4.05,1.44,6.66,1.75,2.94,.35,5.66,.52,8.15,.52,4.3,0,7.98-.57,11.05-1.71,2.21-.81,4.32-2.22,6.33-4.23,.92-.92,1.72-1.93,2.42-2.99-4-3.71-8.18-7.61-12.35-11.52-.07,2.65-.83,4.73-2.31,6.2Z"/><g><polygon class="cls-6" points="75.09 22.84 75.09 33.48 85.15 33.48 87.92 22.84 75.09 22.84"/><path class="cls-6" d="M75.09,41.67c-3.72,0-6.62-1.19-8.7-3.56-2.08-2.37-3.12-6.32-3.12-11.86,0-5.21,1.03-9.02,3.09-11.42,.41-.48,.86-.9,1.33-1.29l-14.49-5.03c-.86,1.04-1.63,2.15-2.31,3.36-2.3,4.13-3.45,8.98-3.45,14.56,0,1.5,.08,2.95,.25,4.35L37.24,2.98,31.16,.87h-11.94l-2.71,7.2-4,10.63c2.9,4.73,5.93,9.65,8.9,14.48,2.19,3.55,4.34,7.04,6.41,10.37h8.74l2.56,8.44h16.54l-3.12-8.31c1.86,2.55,4.18,4.58,6.95,6.08,3.82,2.07,8.77,3.1,14.84,3.1,2.08,0,4.03-.11,5.87-.31l3.41-13.13c-1.25,.64-2.41,1.15-3.46,1.49-1.6,.51-3.29,.77-5.06,.77Zm-53.04-9.17l3.28-10.8,2.3-7.58,5.64,18.38h-11.23Z"/></g><g><path class="cls-8" d="M143.84,8.5c-.29-.6-.6-1.18-.98-1.72-1.58-2.27-3.66-3.82-6.24-4.66-1.82-.59-4.22-.97-7.18-1.14-1.24-.07-2.57-.11-4.01-.11h-5.15l-3.82,10.32h5.45c1.28,0,2.38,.09,3.3,.27,1.14,.22,2.02,.57,2.6,1.06,1.05,.88,1.57,2.15,1.57,3.8,0,1.12-.33,2.1-.99,2.96-.66,.86-1.52,1.39-2.56,1.6-2.07,.47-3.47,.7-4.18,.7h-6.66v-6.36l-13.62,36.77h13.62V31.24h1.4c.27,0,.53,.03,.79,.06,1.12,.12,2.15,.49,3.08,1.13,.84,.61,1.79,1.92,2.86,3.94l8.44,15.62h10.75v-13.76l-.55-1.06c-.31-.61-.87-1.45-1.67-2.48l-5.3,.47,1.48-4.33c-.83-.47-1.95-.93-3.35-1.4,1.7-.39,3.13-.85,4.3-1.38l6.66-19.55Z"/><polygon class="cls-8" points="145.07 .87 145.07 4.91 146.44 .87 145.07 .87"/></g><g><path class="cls-11" d="M187.95,40.88c-.6,.08-1.22,.13-1.89,.13-3.11,0-5.53-1.05-7.25-3.15-1.12-1.37-1.87-3.51-2.26-6.39l-15.63,1.38c.6,3.48,1.7,6.5,3.32,9.07,2.56,4.07,5.6,6.91,9.12,8.52,3.52,1.61,8.06,2.42,13.62,2.42,4.58,0,8.35-.66,11.32-1.99,.86-.39,1.68-.83,2.47-1.33l-12.34-2.07-.46-6.6Z"/><path class="cls-11" d="M217.25,48.03c-.19,.38-.37,.75-.53,1.08,.44,.27,.89,.52,1.34,.76l-.81-1.84Z"/><polygon class="cls-11" points="145.07 34.25 145.07 43.64 142.28 38.24 142.28 52 145.07 52 150.93 52 160.9 52 160.9 32.85 150.93 33.74 145.07 34.25"/></g><g><path class="cls-10" d="M12.51,18.7L0,52H16.13l2.49-8.44h9.2c-2.06-3.33-4.22-6.83-6.41-10.37-2.98-4.83-6-9.75-8.9-14.48Z"/><path class="cls-10" d="M185.1,.04c-7.68,.2-13.68,2.44-17.97,6.77-3.26,3.29-5.34,7.61-6.24,12.96V.87h-14.46l-1.37,4.03v7.7c-.21-1.49-.63-2.85-1.23-4.1l-6.66,19.55c.45-.2,.87-.42,1.25-.64,2.12-1.28,3.78-2.95,4.99-5,.85-1.44,1.4-3.07,1.65-4.89v16.74l5.86-.52,9.97-.88v-.05s0,.03,.01,.05l15.63-1.38c-.21-1.54-.32-3.29-.32-5.26,0-.56,.01-1.09,.03-1.61,.15-3.76,.86-6.58,2.13-8.46,1.78-2.69,4.3-4.11,7.54-4.28L185.1,.04Z"/><path class="cls-10" d="M136.99,31.32c-.22-.16-.47-.32-.76-.48l-1.48,4.33,5.3-.47c-.17-.22-.34-.45-.54-.69-1.1-1.37-1.95-2.27-2.53-2.69Z"/></g><path class="cls-2" d="M208.59,28.44L223.94,.92c-4.46,1.07-8.19,3.08-11.16,6.06-1.75,1.75-3.17,3.76-4.26,6.03-1.74-3.95-4.11-6.99-7.1-9.1-2.52-1.78-5.71-2.94-9.52-3.5-1.76-.26-3.64-.4-5.67-.4-.39,0-.75,.03-1.12,.04l.82,11.82c.23-.01,.45-.04,.69-.04,1.58,0,3.01,.33,4.29,.98,1.1,.56,2.05,1.34,2.86,2.32,.13,.16,.27,.31,.39,.47,.53,.72,1.05,1.86,1.53,3.42l11.5-2.56c-.92,2.98-1.37,6.32-1.37,10.02,0,1.91,.13,3.71,.37,5.42,.11,.78,.24,1.55,.4,2.3l-10.3-3.11c-.7,3.23-1.82,5.7-3.37,7.39-1.2,1.32-2.86,2.12-4.96,2.41l.46,6.6,12.34,2.07c1.9-1.2,3.56-2.72,4.98-4.56,1.12-1.46,2.07-3.11,2.86-4.97,.23,.47,.48,.93,.75,1.38,1.96,3.32,4.44,5.89,7.4,7.72,.16-.33,.34-.7,.53-1.08l-5.51-12.46-3.15-7.13Z"/><g><path class="cls-7" d="M83.56,17.19l15.24-2.72c-.93-3.3-2.32-6.03-4.17-8.18-1.85-2.15-4.17-3.74-6.98-4.76-2.8-1.02-7.03-1.53-12.68-1.53s-10.52,.82-13.98,2.48c-3.14,1.51-5.74,3.53-7.81,6.04l14.49,5.03c1.87-1.54,4.18-2.32,6.95-2.32,2.32,0,4.23,.51,5.73,1.53,1.5,1.02,2.56,2.5,3.19,4.43Z"/><polygon class="cls-7" points="31.16 .87 37.24 2.98 36.45 .87 31.16 .87"/><path class="cls-7" d="M99.09,22.84h-11.17l-2.77,10.64h.5v4.81c-.71,.43-1.39,.79-2.05,1.13l-3.41,13.13c2.52-.28,4.83-.75,6.91-1.41,3.49-1.12,7.48-3.19,11.99-6.23v7.08h2.25l13.62-36.77v-4.03h1.49l3.82-10.32h-21.18V22.84Z"/><path class="cls-7" d="M257.28,.87v.89l.05-.89h-.05Z"/><path class="cls-7" d="M241.45,1.11c-2.78-.73-5.85-1.11-9.25-1.11-2.99,0-5.74,.31-8.26,.92l-15.35,27.52,3.15,7.13,5.51,12.46,.81,1.84c.15,.08,.29,.16,.45,.24,3.78,1.84,8.55,2.76,14.32,2.76,1.64,0,3.19-.1,4.67-.28,3.65-.44,6.83-1.4,9.54-2.91,3.44-1.93,6.14-4.56,8.12-7.87,.49-9.26,1.03-19.39,1.47-27.78-1.14-2.75-2.72-5.14-4.76-7.17-2.76-2.74-6.25-4.65-10.42-5.74Zm-1.26,36.62c-1.86,2.21-4.49,3.31-7.88,3.31s-5.91-1.13-7.83-3.38c-.45-.53-.84-1.14-1.18-1.82-1.13-2.25-1.7-5.35-1.7-9.3,0-5.21,.96-8.94,2.89-11.19,1.93-2.26,4.49-3.38,7.67-3.38,1.14,0,2.19,.14,3.16,.4,1.88,.5,3.46,1.47,4.74,2.93,1.94,2.22,2.91,5.74,2.91,10.55,0,5.72-.93,9.68-2.79,11.89Z"/></g><path class="cls-12" d="M311.19,38.59c-1.19-1.21-1.92-2.78-2.19-4.72-.08-.57-.13-1.18-.13-1.82V15.99c-6.16-5.82-11.66-11.03-15.76-14.93V31.33c0,2.36,.43,5.05,1.3,8.08h-21.33V.87h-15.75l-.05,.89V15.76c-.2-.6-.42-1.17-.65-1.74-.45,8.4-.98,18.53-1.47,27.78,.21-.35,.41-.69,.6-1.06,.6-1.14,1.1-2.37,1.52-3.69v14.94h40.46v-6.37c.07,.08,.13,.16,.2,.23,1.64,1.91,3.45,3.38,5.42,4.41,.23,.12,.48,.22,.72,.32,3.02-3.48,6.32-7.16,9.33-10.48-.84-.38-1.58-.88-2.21-1.53Z"/><g><path class="cls-4" d="M347.76,34.58l-3.48,.22-2.41,.15c.15-1.1,.22-2.23,.23-3.38,0-.08,0-.16,0-.24v-6.36c-5.2-8.8-10.29-17.39-14.28-24.1h-1.49v31.18c0,.12,0,.24-.01,.36,4.18,3.91,8.35,7.81,12.35,11.52,.82-1.25,1.5-2.6,2.01-4.05l.02-.05c.94,3.08,2.53,5.75,4.79,8.01,2.3,2.3,5.85,3.8,10.66,4.52,.61,.09,1.24,.17,1.89,.23,.08,0,.16,.02,.24,.02-3.09-5.35-6.73-11.59-10.52-18.04Z"/><path class="cls-4" d="M293.11,.87v.19c4.1,3.9,9.6,9.11,15.76,14.93V.87h-15.76Z"/></g></svg>