<?xml version="1.0" encoding="UTF-8"?><svg id="logo_Waste4Think" xmlns="http://www.w3.org/2000/svg" viewBox="0 0 560 108.16"><defs><style>.cls-1{fill:#008fff;}.cls-2{fill:#8ddf00;}.cls-3{fill:#061d54;}.cls-4{isolation:isolate;}</style></defs><g id="_think" class="cls-4"><g class="cls-4"><path class="cls-2" d="M359.15,66.39h10.17v4.52h-10.17v16.48h-5.38v-16.48h-30.68v-3.05l30.19-45.69h5.87v44.21Zm-29.47,0h24.1V29.12l-2.37,4.12-21.72,33.15Z"/></g><g class="cls-4"><path class="cls-1" d="M380.02,26.52v12.41h10.03v4.39h-10.03v32.33c0,2.69,.49,4.69,1.46,6.01,.97,1.32,2.59,1.97,4.86,1.97,.9,0,2.34-.15,4.34-.45l.22,4.35c-1.4,.5-3.31,.75-5.73,.75-3.67,0-6.35-1.07-8.02-3.2-1.67-2.13-2.51-5.28-2.51-9.43V43.32h-8.91v-4.39h8.91v-12.41h5.38Z"/><path class="cls-1" d="M406.49,47.13c1.76-2.9,4.02-5.14,6.76-6.72,2.75-1.58,5.75-2.37,9-2.37,5.2,0,9.06,1.46,11.6,4.39,2.54,2.93,3.82,7.32,3.85,13.17v31.8h-5.33v-31.85c-.03-4.33-.95-7.55-2.75-9.68-1.81-2.12-4.7-3.18-8.67-3.18-3.31,0-6.25,1.04-8.8,3.11-2.55,2.08-4.44,4.88-5.67,8.4v33.19h-5.33V18.6h5.33v28.53Z"/><path class="cls-1" d="M451.2,24.93c0-1.01,.33-1.86,.99-2.56,.66-.7,1.55-1.05,2.69-1.05s2.04,.35,2.71,1.05,1.01,1.55,1.01,2.56-.34,1.85-1.01,2.54c-.67,.68-1.58,1.02-2.71,1.02s-2.03-.34-2.69-1.02c-.66-.68-.99-1.53-.99-2.54Zm6.32,62.46h-5.38V38.93h5.38v48.47Z"/><path class="cls-1" d="M477.18,38.93l.18,8.29c1.82-2.99,4.09-5.26,6.81-6.83,2.72-1.57,5.72-2.35,9-2.35,5.2,0,9.06,1.46,11.6,4.39,2.54,2.93,3.82,7.32,3.85,13.17v31.8h-5.33v-31.85c-.03-4.33-.95-7.55-2.75-9.68-1.81-2.12-4.7-3.18-8.67-3.18-3.31,0-6.25,1.04-8.8,3.11-2.55,2.08-4.44,4.88-5.67,8.4v33.19h-5.33V38.93h5.11Z"/><path class="cls-1" d="M533.98,62.99l-6.14,5.91v18.5h-5.38V18.6h5.38V62.63l5.06-5.46,18.54-18.23h6.76l-20.56,20.43,22.35,28.04h-6.41l-19.62-24.41Z"/></g></g><g id="Waste"><circle id="Oval-1264" class="cls-1" cx="264.33" cy="25.31" r="3.29"/><circle id="Oval-1264-2" class="cls-2" cx="257.09" cy="25.31" r="3.29"/><circle id="Oval-1264-3" class="cls-3" cx="271.56" cy="25.31" r="3.29"/><circle id="Oval-1264-4" class="cls-1" cx="278.79" cy="25.31" r="3.29"/><circle id="Oval-1264-5" class="cls-2" cx="286.02" cy="25.31" r="3.29"/><circle id="Oval-1264-6" class="cls-3" cx="293.26" cy="25.31" r="3.29"/><circle id="Oval-1264-7" class="cls-2" cx="271.56" cy="39.78" r="3.29"/><circle id="Oval-1264-8" class="cls-3" cx="264.33" cy="47.01" r="3.29"/><circle id="Oval-1264-9" class="cls-3" cx="271.56" cy="47.01" r="3.29"/><circle id="Oval-1264-10" class="cls-3" cx="264.33" cy="54.25" r="3.29"/><circle id="Oval-1264-11" class="cls-3" cx="307.72" cy="25.31" r="3.29"/><circle id="Oval-1264-12" class="cls-1" cx="300.49" cy="25.31" r="3.29"/><circle id="Oval-1264-13" class="cls-1" cx="257.09" cy="32.55" r="3.29"/><circle id="Oval-1264-14" class="cls-2" cx="264.33" cy="32.55" r="3.29"/><circle id="Oval-1264-15" class="cls-3" cx="271.56" cy="32.55" r="3.29"/><circle id="Oval-1264-16" class="cls-3" cx="286.02" cy="32.55" r="3.29"/><circle id="Oval-1264-17" class="cls-1" cx="293.26" cy="32.55" r="3.29"/><circle id="Oval-1264-18" class="cls-2" cx="300.49" cy="32.55" r="3.29"/><circle id="Oval-1264-19" class="cls-3" cx="307.72" cy="32.55" r="3.29"/><circle id="Oval-1264-20" class="cls-1" cx="278.79" cy="32.55" r="3.29"/><circle id="Oval-1264-21" class="cls-1" cx="286.02" cy="83.18" r="3.29"/><circle id="Oval-1264-22" class="cls-2" cx="293.26" cy="83.18" r="3.29"/><circle id="Oval-1264-23" class="cls-3" cx="300.49" cy="83.18" r="3.29"/><circle id="Oval-1264-24" class="cls-1" cx="307.72" cy="83.18" r="3.29"/><circle id="Oval-1264-25" class="cls-3" cx="293.26" cy="90.41" r="3.29"/><circle id="Oval-1264-26" class="cls-1" cx="300.49" cy="90.41" r="3.29"/><circle id="Oval-1264-27" class="cls-2" cx="307.72" cy="90.41" r="3.29"/><circle id="Oval-1264-28" class="cls-1" cx="286.02" cy="90.41" r="3.29"/><circle id="Oval-1264-29" class="cls-3" cx="271.56" cy="61.48" r="3.29"/><circle id="Oval-1264-30" class="cls-1" cx="278.79" cy="61.48" r="3.29"/><circle id="Oval-1264-31" class="cls-3" cx="264.33" cy="68.71" r="3.29"/><circle id="Oval-1264-32" class="cls-1" cx="271.56" cy="68.71" r="3.29"/><circle id="Oval-1264-33" class="cls-2" cx="286.02" cy="61.48" r="3.29"/><circle id="Oval-1264-34" class="cls-2" cx="293.26" cy="61.48" r="3.29"/><circle id="Oval-1264-35" class="cls-2" cx="264.33" cy="75.94" r="3.29"/><circle id="Oval-1264-36" class="cls-2" cx="271.56" cy="75.94" r="3.29"/><circle id="Oval-1264-37" class="cls-2" cx="278.79" cy="83.18" r="3.29"/><circle id="Oval-1264-38" class="cls-1" cx="264.33" cy="61.48" r="3.29"/><circle id="Oval-1264-39" class="cls-3" cx="271.56" cy="83.18" r="3.29"/><circle id="Oval-1264-40" class="cls-3" cx="278.79" cy="90.41" r="3.29"/><circle id="Oval-1264-41" class="cls-3" cx="264.33" cy="90.41" r="3.29"/><circle id="Oval-1264-42" class="cls-1" cx="271.56" cy="90.41" r="3.29"/><circle id="Oval-1264-43" class="cls-1" cx="264.33" cy="83.18" r="3.29"/><circle id="Oval-1264-44" class="cls-3" cx="286.02" cy="54.25" r="3.29"/><circle id="Oval-1264-45" class="cls-1" cx="293.26" cy="54.25" r="3.29"/><circle id="Oval-1264-46" class="cls-1" cx="300.49" cy="61.48" r="3.29"/><circle id="Oval-1264-47" class="cls-1" cx="300.49" cy="104.88" r="3.29"/><circle id="Oval-1264-48" class="cls-1" cx="293.26" cy="3.62" r="3.29"/><circle id="Oval-1264-49" class="cls-1" cx="321.86" cy="25.31" r="3.29"/><circle id="Oval-1264-50" class="cls-2" cx="300.49" cy="54.25" r="3.29"/><circle id="Oval-1264-51" class="cls-2" cx="300.49" cy="10.52" r="3.29"/><circle id="Oval-1264-52" class="cls-1" cx="278.79" cy="54.25" r="3.29"/><circle id="Oval-1264-53" class="cls-1" cx="264.33" cy="39.78" r="3.29"/><circle id="Oval-1264-54" class="cls-1" cx="271.56" cy="54.25" r="3.29"/><circle id="Oval-1264-55" class="cls-1" cx="206.46" cy="32.55" r="3.29"/><circle id="Oval-1264-56" class="cls-1" cx="220.93" cy="32.55" r="3.29"/><circle id="Oval-1264-57" class="cls-2" cx="213.7" cy="32.55" r="3.29"/><circle id="Oval-1264-58" class="cls-1" cx="228.16" cy="32.55" r="3.29"/><circle id="Oval-1264-59" class="cls-1" cx="242.63" cy="32.55" r="3.29"/><circle id="Oval-1264-60" class="cls-2" cx="235.39" cy="32.55" r="3.29"/><circle id="Oval-1264-61" class="cls-1" cx="242.63" cy="25.31" r="3.29"/><circle id="Oval-1264-62" class="cls-1" cx="249.86" cy="25.31" r="3.29"/><circle id="Oval-1264-63" class="cls-3" cx="206.46" cy="25.31" r="3.29"/><circle id="Oval-1264-64" class="cls-1" cx="213.7" cy="25.31" r="3.29"/><circle id="Oval-1264-65" class="cls-2" cx="220.93" cy="25.31" r="3.29"/><circle id="Oval-1264-66" class="cls-3" cx="228.16" cy="25.31" r="3.29"/><circle id="Oval-1264-67" class="cls-3" cx="228.16" cy="3.62" r="3.29"/><circle id="Oval-1264-68" class="cls-1" cx="257.09" cy="18.08" r="3.29"/><circle id="Oval-1264-69" class="cls-3" cx="242.63" cy="10.85" r="3.29"/><circle id="Oval-1264-70" class="cls-1" cx="228.16" cy="47.01" r="3.29"/><circle id="Oval-1264-71" class="cls-3" cx="228.16" cy="39.78" r="3.29"/><circle id="Oval-1264-72" class="cls-1" cx="228.16" cy="61.48" r="3.29"/><circle id="Oval-1264-73" class="cls-3" cx="228.16" cy="54.25" r="3.29"/><circle id="Oval-1264-74" class="cls-1" cx="235.39" cy="54.25" r="3.29"/><circle id="Oval-1264-75" class="cls-3" cx="235.39" cy="61.48" r="3.29"/><circle id="Oval-1264-76" class="cls-1" cx="235.39" cy="25.31" r="3.29"/><circle id="Oval-1264-77" class="cls-2" cx="235.39" cy="47.01" r="3.29"/><circle id="Oval-1264-78" class="cls-1" cx="235.39" cy="39.78" r="3.29"/><circle id="Oval-1264-79" class="cls-2" cx="228.16" cy="75.94" r="3.29"/><circle id="Oval-1264-80" class="cls-1" cx="228.16" cy="68.71" r="3.29"/><circle id="Oval-1264-81" class="cls-1" cx="235.39" cy="68.71" r="3.29"/><circle id="Oval-1264-82" class="cls-2" cx="235.39" cy="83.18" r="3.29"/><circle id="Oval-1264-83" class="cls-1" cx="235.39" cy="75.94" r="3.29"/><circle id="Oval-1264-84" class="cls-1" cx="228.16" cy="90.41" r="3.29"/><circle id="Oval-1264-85" class="cls-3" cx="228.16" cy="83.18" r="3.29"/><circle id="Oval-1264-86" class="cls-1" cx="235.39" cy="90.41" r="3.29"/><circle id="Oval-1264-87" class="cls-3" cx="249.86" cy="32.55" r="3.29"/><circle id="Oval-1264-88" class="cls-3" cx="155.83" cy="75.94" r="3.29"/><circle id="Oval-1264-89" class="cls-3" cx="170.3" cy="90.41" r="3.29"/><circle id="Oval-1264-90" class="cls-3" cx="192" cy="75.94" r="3.29"/><circle id="Oval-1264-91" class="cls-3" cx="163.07" cy="75.94" r="3.29"/><circle id="Oval-1264-92" class="cls-1" cx="163.07" cy="68.71" r="3.29"/><circle id="Oval-1264-93" class="cls-2" cx="155.83" cy="68.71" r="3.29"/><circle id="Oval-1264-94" class="cls-1" cx="163.07" cy="83.18" r="3.29"/><circle id="Oval-1264-95" class="cls-1" cx="177.53" cy="83.18" r="3.29"/><circle id="Oval-1264-96" class="cls-2" cx="170.3" cy="83.18" r="3.29"/><circle id="Oval-1264-97" class="cls-1" cx="184.76" cy="83.18" r="3.29"/><circle id="Oval-1264-98" class="cls-1" cx="199.23" cy="83.18" r="3.29"/><circle id="Oval-1264-99" class="cls-2" cx="192" cy="83.18" r="3.29"/><circle id="Oval-1264-100" class="cls-1" cx="199.23" cy="68.71" r="3.29"/><circle id="Oval-1264-101" class="cls-2" cx="192" cy="68.71" r="3.29"/><circle id="Oval-1264-102" class="cls-1" cx="192" cy="54.25" r="3.29"/><circle id="Oval-1264-103" class="cls-2" cx="184.76" cy="54.25" r="3.29"/><circle id="Oval-1264-104" class="cls-1" cx="177.53" cy="54.25" r="3.29"/><circle id="Oval-1264-105" class="cls-1" cx="170.3" cy="32.55" r="3.29"/><circle id="Oval-1264-106" class="cls-2" cx="163.07" cy="32.55" r="3.29"/><circle id="Oval-1264-107" class="cls-1" cx="155.83" cy="32.55" r="3.29"/><circle id="Oval-1264-108" class="cls-2" cx="170.3" cy="54.25" r="3.29"/><circle id="Oval-1264-109" class="cls-2" cx="199.23" cy="75.94" r="3.29"/><circle id="Oval-1264-110" class="cls-2" cx="206.46" cy="75.94" r="3.29"/><circle id="Oval-1264-111" class="cls-1" cx="177.53" cy="90.41" r="3.29"/><circle id="Oval-1264-112" class="cls-1" cx="192" cy="90.41" r="3.29"/><circle id="Oval-1264-113" class="cls-2" cx="184.76" cy="90.41" r="3.29"/><circle id="Oval-1264-114" class="cls-3" cx="184.76" cy="61.48" r="3.29"/><circle id="Oval-1264-115" class="cls-3" cx="177.53" cy="61.48" r="3.29"/><circle id="Oval-1264-116" class="cls-1" cx="192" cy="61.48" r="3.29"/><circle id="Oval-1264-117" class="cls-2" cx="199.23" cy="61.48" r="3.29"/><circle id="Oval-1264-118" class="cls-1" cx="192.33" cy="39.78" r="3.29"/><circle id="Oval-1264-119" class="cls-2" cx="199.56" cy="39.78" r="3.29"/><circle id="Oval-1264-120" class="cls-3" cx="163.07" cy="47.01" r="3.29"/><circle id="Oval-1264-121" class="cls-1" cx="170.3" cy="47.01" r="3.29"/><circle id="Oval-1264-122" class="cls-1" cx="163.07" cy="54.25" r="3.29"/><circle id="Oval-1264-123" class="cls-2" cx="177.53" cy="47.01" r="3.29"/><circle id="Oval-1264-124" class="cls-3" cx="163.07" cy="25.31" r="3.29"/><circle id="Oval-1264-125" class="cls-1" cx="170.3" cy="25.31" r="3.29"/><circle id="Oval-1264-126" class="cls-2" cx="177.53" cy="25.31" r="3.29"/><circle id="Oval-1264-127" class="cls-3" cx="184.76" cy="25.31" r="3.29"/><circle id="Oval-1264-128" class="cls-2" cx="184.76" cy="32.55" r="3.29"/><circle id="Oval-1264-129" class="cls-3" cx="192" cy="32.55" r="3.29"/><circle id="Oval-1264-130" class="cls-1" cx="192" cy="25.31" r="3.29"/><circle id="Oval-1264-131" class="cls-1" cx="199.23" cy="32.55" r="3.29"/><circle id="Oval-1264-132" class="cls-2" cx="177.53" cy="18.08" r="3.29"/><circle id="Oval-1264-133" class="cls-3" cx="155.83" cy="39.78" r="3.29"/><circle id="Oval-1264-134" class="cls-1" cx="163.07" cy="39.78" r="3.29"/><circle id="Oval-1264-135" class="cls-2" cx="170.3" cy="39.78" r="3.29"/><circle id="Oval-1264-136" class="cls-3" cx="90.74" cy="90.08" r="3.29"/><circle id="Oval-1264-137" class="cls-3" cx="97.97" cy="90.08" r="3.29"/><circle id="Oval-1264-138" class="cls-3" cx="119.67" cy="68.38" r="3.29"/><circle id="Oval-1264-139" class="cls-3" cx="126.9" cy="68.38" r="3.29"/><circle id="Oval-1264-140" class="cls-3" cx="105.2" cy="82.85" r="3.29"/><circle id="Oval-1264-141" class="cls-1" cx="97.97" cy="82.85" r="3.29"/><circle id="Oval-1264-142" class="cls-3" cx="119.67" cy="75.62" r="3.29"/><circle id="Oval-1264-143" class="cls-3" cx="148.6" cy="82.85" r="3.29"/><circle id="Oval-1264-144" class="cls-1" cx="112.44" cy="75.62" r="3.29"/><circle id="Oval-1264-145" class="cls-1" cx="105.2" cy="75.62" r="3.29"/><circle id="Oval-1264-146" class="cls-2" cx="97.97" cy="75.62" r="3.29"/><circle id="Oval-1264-147" class="cls-1" cx="112.44" cy="53.92" r="3.29"/><circle id="Oval-1264-148" class="cls-2" cx="105.2" cy="53.92" r="3.29"/><circle id="Oval-1264-149" class="cls-1" cx="112.44" cy="68.38" r="3.29"/><circle id="Oval-1264-150" class="cls-3" cx="112.44" cy="61.15" r="3.29"/><circle id="Oval-1264-151" class="cls-3" cx="112.44" cy="46.68" r="3.29"/><circle id="Oval-1264-152" class="cls-1" cx="105.2" cy="61.15" r="3.29"/><circle id="Oval-1264-153" class="cls-3" cx="119.34" cy="39.45" r="3.29"/><circle id="Oval-1264-154" class="cls-1" cx="112.11" cy="39.45" r="3.29"/><circle id="Oval-1264-155" class="cls-3" cx="133.81" cy="39.45" r="3.29"/><circle id="Oval-1264-156" class="cls-1" cx="126.57" cy="39.45" r="3.29"/><circle id="Oval-1264-157" class="cls-3" cx="119.01" cy="24.99" r="3.29"/><circle id="Oval-1264-158" class="cls-3" cx="118.35" cy="3.29" r="3.29"/><circle id="Oval-1264-159" class="cls-1" cx="126.25" cy="24.99" r="3.29"/><circle id="Oval-1264-160" class="cls-3" cx="133.81" cy="46.68" r="3.29"/><circle id="Oval-1264-161" class="cls-1" cx="126.57" cy="46.68" r="3.29"/><circle id="Oval-1264-162" class="cls-2" cx="105.2" cy="68.38" r="3.29"/><circle id="Oval-1264-163" class="cls-1" cx="134.14" cy="75.62" r="3.29"/><circle id="Oval-1264-164" class="cls-1" cx="141.37" cy="82.85" r="3.29"/><circle id="Oval-1264-165" class="cls-2" cx="126.9" cy="75.62" r="3.29"/><circle id="Oval-1264-166" class="cls-3" cx="126.9" cy="53.92" r="3.29"/><circle id="Oval-1264-167" class="cls-2" cx="134.14" cy="53.92" r="3.29"/><circle id="Oval-1264-168" class="cls-3" cx="133.81" cy="61.15" r="3.29"/><circle id="Oval-1264-169" class="cls-2" cx="141.04" cy="61.15" r="3.29"/><circle id="Oval-1264-170" class="cls-3" cx="141.37" cy="68.38" r="3.29"/><circle id="Oval-1264-171" class="cls-1" cx="134.14" cy="68.38" r="3.29"/><circle id="Oval-1264-172" class="cls-1" cx="148.6" cy="75.62" r="3.29"/><circle id="Oval-1264-173" class="cls-2" cx="141.37" cy="75.62" r="3.29"/><circle id="Oval-1264-174" class="cls-1" cx="119.01" cy="32.22" r="3.29"/><circle id="Oval-1264-175" class="cls-2" cx="111.78" cy="32.22" r="3.29"/><circle id="Oval-1264-176" class="cls-2" cx="126.25" cy="32.22" r="3.29"/><circle id="Oval-1264-177" class="cls-1" cx="148.93" cy="90.08" r="3.29"/><circle id="Oval-1264-178" class="cls-2" cx="141.7" cy="90.08" r="3.29"/><circle id="Oval-1264-179" class="cls-3" cx="17.42" cy="24.99" r="3.29"/><circle id="Oval-1264-180" class="cls-3" cx="24.66" cy="32.22" r="3.29"/><circle id="Oval-1264-181" class="cls-3" cx="24.66" cy="39.45" r="3.29"/><circle id="Oval-1264-182" class="cls-3" cx="31.89" cy="53.92" r="3.29"/><circle id="Oval-1264-183" class="cls-1" cx="17.42" cy="32.22" r="3.29"/><circle id="Oval-1264-184" class="cls-1" cx="17.42" cy="18.08" r="3.29"/><circle id="Oval-1264-185" class="cls-1" cx="17.42" cy="39.45" r="3.29"/><circle id="Oval-1264-186" class="cls-3" cx="24.99" cy="61.15" r="3.29"/><circle id="Oval-1264-187" class="cls-1" cx="32.22" cy="61.15" r="3.29"/><circle id="Oval-1264-188" class="cls-3" cx="47.01" cy="46.68" r="3.29"/><circle id="Oval-1264-189" class="cls-1" cx="54.25" cy="46.68" r="3.29"/><circle id="Oval-1264-190" class="cls-3" cx="61.48" cy="46.68" r="3.29"/><circle id="Oval-1264-191" class="cls-3" cx="69.04" cy="75.62" r="3.29"/><circle id="Oval-1264-192" class="cls-1" cx="76.27" cy="75.62" r="3.29"/><circle id="Oval-1264-193" class="cls-3" cx="76.27" cy="61.15" r="3.29"/><circle id="Oval-1264-194" class="cls-1" cx="83.51" cy="61.15" r="3.29"/><circle id="Oval-1264-195" class="cls-1" cx="90.74" cy="53.92" r="3.29"/><circle id="Oval-1264-196" class="cls-3" cx="83.51" cy="75.62" r="3.29"/><circle id="Oval-1264-197" class="cls-1" cx="83.51" cy="46.68" r="3.29"/><circle id="Oval-1264-198" class="cls-3" cx="83.51" cy="53.92" r="3.29"/><circle id="Oval-1264-199" class="cls-3" cx="90.74" cy="46.68" r="3.29"/><circle id="Oval-1264-200" class="cls-1" cx="83.51" cy="24.99" r="3.29"/><circle id="Oval-1264-201" class="cls-1" cx="97.97" cy="24.66" r="3.29"/><circle id="Oval-1264-202" class="cls-3" cx="90.74" cy="24.99" r="3.29"/><circle id="Oval-1264-203" class="cls-1" cx="53.59" cy="24.99" r="3.29"/><circle id="Oval-1264-204" class="cls-1" cx="60.82" cy="17.75" r="3.29"/><circle id="Oval-1264-205" class="cls-3" cx="60.82" cy="24.99" r="3.29"/><circle id="Oval-1264-206" class="cls-1" cx="61.48" cy="53.92" r="3.29"/><circle id="Oval-1264-207" class="cls-1" cx="47.01" cy="68.38" r="3.29"/><circle id="Oval-1264-208" class="cls-1" cx="31.89" cy="46.68" r="3.29"/><circle id="Oval-1264-209" class="cls-2" cx="24.99" cy="24.99" r="3.29"/><circle id="Oval-1264-210" class="cls-3" cx="53.92" cy="32.22" r="3.29"/><circle id="Oval-1264-211" class="cls-2" cx="61.48" cy="32.22" r="3.29"/><circle id="Oval-1264-212" class="cls-2" cx="47.01" cy="61.15" r="3.29"/><circle id="Oval-1264-213" class="cls-2" cx="68.71" cy="53.92" r="3.29"/><circle id="Oval-1264-214" class="cls-1" cx="83.51" cy="39.45" r="3.29"/><circle id="Oval-1264-215" class="cls-2" cx="90.74" cy="39.45" r="3.29"/><circle id="Oval-1264-216" class="cls-2" cx="46.36" cy="24.99" r="3.29"/><circle id="Oval-1264-217" class="cls-2" cx="10.19" cy="24.99" r="3.29"/><circle id="Oval-1264-218" class="cls-3" cx="32.22" cy="68.38" r="3.29"/><circle id="Oval-1264-219" class="cls-3" cx="47.01" cy="53.92" r="3.29"/><circle id="Oval-1264-220" class="cls-2" cx="39.78" cy="68.38" r="3.29"/><circle id="Oval-1264-221" class="cls-1" cx="39.78" cy="75.62" r="3.29"/><circle id="Oval-1264-222" class="cls-1" cx="10.52" cy="61.15" r="3.29"/><circle id="Oval-1264-223" class="cls-1" cx="3.29" cy="75.62" r="3.29"/><circle id="Oval-1264-224" class="cls-3" cx="24.99" cy="75.62" r="3.29"/><circle id="Oval-1264-225" class="cls-3" cx="10.19" cy="83.51" r="3.29"/><circle id="Oval-1264-226" class="cls-2" cx="32.55" cy="75.62" r="3.29"/><circle id="Oval-1264-227" class="cls-1" cx="47.01" cy="82.85" r="3.29"/><circle id="Oval-1264-228" class="cls-1" cx="32.22" cy="90.08" r="3.29"/><circle id="Oval-1264-229" class="cls-1" cx="39.78" cy="90.08" r="3.29"/><circle id="Oval-1264-230" class="cls-3" cx="32.22" cy="82.85" r="3.29"/><circle id="Oval-1264-231" class="cls-2" cx="39.78" cy="82.85" r="3.29"/><circle id="Oval-1264-232" class="cls-1" cx="61.48" cy="39.45" r="3.29"/><circle id="Oval-1264-233" class="cls-3" cx="46.68" cy="39.45" r="3.29"/><circle id="Oval-1264-234" class="cls-2" cx="54.25" cy="39.45" r="3.29"/><circle id="Oval-1264-235" class="cls-2" cx="54.25" cy="53.92" r="3.29"/><circle id="Oval-1264-236" class="cls-1" cx="68.71" cy="61.15" r="3.29"/><circle id="Oval-1264-237" class="cls-2" cx="61.48" cy="61.15" r="3.29"/><circle id="Oval-1264-238" class="cls-2" cx="24.99" cy="68.38" r="3.29"/><circle id="Oval-1264-239" class="cls-1" cx="83.51" cy="68.38" r="3.29"/><circle id="Oval-1264-240" class="cls-3" cx="68.71" cy="68.38" r="3.29"/><circle id="Oval-1264-241" class="cls-2" cx="76.27" cy="68.38" r="3.29"/><circle id="Oval-1264-242" class="cls-3" cx="69.04" cy="82.85" r="3.29"/><circle id="Oval-1264-243" class="cls-2" cx="76.6" cy="82.85" r="3.29"/><circle id="Oval-1264-244" class="cls-2" cx="61.48" cy="68.38" r="3.29"/><circle id="Oval-1264-245" class="cls-3" cx="90.74" cy="32.22" r="3.29"/><circle id="Oval-1264-246" class="cls-2" cx="83.51" cy="32.22" r="3.29"/><circle id="Oval-1264-247" class="cls-2" cx="90.74" cy="10.52" r="3.29"/><circle id="Oval-1264-248" class="cls-3" cx="76.27" cy="90.08" r="3.29"/><circle id="Oval-1264-249" class="cls-2" cx="47.01" cy="75.62" r="3.29"/><circle id="Oval-1264-250" class="cls-2" cx="69.04" cy="90.08" r="3.29"/><circle id="Oval-1264-251" class="cls-2" cx="24.66" cy="46.68" r="3.29"/><circle id="Oval-1264-252" class="cls-2" cx="24.66" cy="53.92" r="3.29"/></g></svg>