<?xml version="1.0" encoding="UTF-8"?><svg id="logo_ConnectRobotics" xmlns="http://www.w3.org/2000/svg" viewBox="0 0 560 152.27"><defs><style>.cls-1{fill:#007dc0;}</style></defs><g><g><path class="cls-1" d="M60.48,15.97V0C30,6.28,6.04,30.41,0,60.98H15.93c5.5-21.96,22.67-39.29,44.55-45.01Z"/><path class="cls-1" d="M136.58,60.98h15.93C146.47,30.41,122.51,6.28,92.03,0V15.97c21.87,5.72,39.05,23.05,44.55,45.01Z"/><path class="cls-1" d="M92.03,136.3v15.97c30.06-6.2,53.78-29.76,60.22-59.73h-16c-5.83,21.37-22.76,38.15-44.22,43.77Z"/><path class="cls-1" d="M16.26,92.54H.26c6.44,29.97,30.16,53.53,60.22,59.73v-15.97c-21.46-5.61-38.39-22.4-44.22-43.77Z"/></g><path class="cls-1" d="M26.77,105.85S59.64,52.1,76.03,25.3c.78,.93,49.72,80.55,49.72,80.55H26.77Z"/></g><g><g><path class="cls-1" d="M395.16,65.79c-.14,.02-.36,.06-.57,.06-4.41,.12-13.5,.05-14.49-.11-.07-.1-.17-.21-.23-.35-1.14-2.45-2.28-4.91-3.42-7.36-.56-1.21-1.12-2.42-1.69-3.63-1.32-2.82-2.66-5.63-3.98-8.45-2.18-4.67-4.36-9.33-6.54-14-1.05-2.25-2.1-4.5-3.16-6.75-.14-.29-.23-.62-.59-.85-.05,.2-.11,.33-.12,.47-.02,.37-.01,.74-.01,1.11,0,12.8,0,25.59,0,38.39v1.28c-.36,.36-.75,.24-1.11,.24-3.19,0-6.38,0-9.58,0-.48,0-.97,0-1.45,0-.18,0-.36-.04-.59-.08-.03-.25-.06-.46-.07-.67-.01-.22,0-.44,0-.67,0-19.21,0-38.43,0-57.64,0-.44-.05-.88,.08-1.34,.18-.03,.32-.08,.46-.08,4.86,0,9.72,0,14.57,0,.12,.17,.22,.28,.28,.41,1.19,2.55,2.37,5.11,3.55,7.67,.64,1.38,1.29,2.75,1.93,4.13,1.34,2.85,2.68,5.7,4.02,8.55,2.14,4.56,4.27,9.13,6.41,13.7,1,2.15,2.01,4.3,3.02,6.44,.1,.22,.13,.53,.54,.51,.03-.12,.09-.25,.09-.39,.02-.37,.01-.74,.01-1.11,0-12.8,0-25.59,0-38.39v-1.37c.22-.06,.39-.14,.56-.14,3.9,0,7.79,0,11.69,0,.14,0,.28,.04,.38,.06,.07,.07,.1,.09,.11,.13,.02,.03,.03,.07,.03,.1,0,19.81,.02,39.61,.02,59.42,0,.18-.02,.37-.04,.55,0,.03-.04,.06-.13,.16Z"/><path class="cls-1" d="M298.7,65.77c-.34,.04-.55,.08-.76,.09-3.9,.11-10.95,.05-11.96-.11-.02-.19-.06-.4-.08-.62-.01-.26,0-.52,0-.78,0-19.18,0-38.36,0-57.53,0-.44,.02-.88,.03-1.24,.1-.09,.12-.12,.15-.14,.03-.02,.07-.03,.11-.03,4.71-.01,9.43-.02,14.14-.03,.22,0,.44,.02,.71,.03,.13,.21,.28,.42,.39,.65,1.43,3.05,2.86,6.11,4.28,9.17,.64,1.38,1.29,2.75,1.93,4.13,1.34,2.85,2.68,5.7,4.02,8.55,2.14,4.56,4.27,9.13,6.41,13.7,.67,1.44,1.32,2.9,2,4.34,.15,.31,.22,.71,.66,.91,.05-.18,.12-.31,.12-.44,.02-.37,.01-.74,.01-1.11,0-12.83,0-25.67,0-38.5,0-.44-.04-.88,.07-1.36,.21-.03,.39-.06,.57-.07,3.13-.1,11.07-.04,12.08,.1,.03,.19,.06,.4,.08,.61,.01,.22,0,.44,0,.67,0,19.22,0,38.43,0,57.65,0,.44,.05,.88-.08,1.37-.2,.03-.37,.08-.55,.08-4.68,0-9.35,0-14.03,0-.15,0-.29-.03-.48-.05-.43-.59-.7-1.28-1.01-1.95-1.51-3.22-3.01-6.45-4.51-9.67-2.13-4.57-4.27-9.13-6.4-13.7-1.52-3.26-3.04-6.51-4.56-9.77-.89-1.91-1.78-3.83-2.67-5.75-.1-.22-.14-.52-.54-.55-.03,.12-.1,.25-.1,.38-.02,.37-.01,.74-.01,1.11,0,12.8,0,25.6,0,38.39v1.46Z"/><path class="cls-1" d="M275.07,35.69c0,1.22,.06,2.45-.01,3.67-.11,1.85-.34,3.69-.7,5.51-.35,1.78-.84,3.53-1.45,5.24-1.14,3.22-2.82,6.11-5.06,8.69-3.03,3.48-6.77,5.83-11.2,7.1-2.22,.64-4.47,1.03-6.78,1.09-.74,.02-1.49,.18-2.22,.12-1.51-.12-3.03-.13-4.54-.33-2-.27-3.94-.72-5.82-1.41-3.03-1.11-5.73-2.75-8.08-4.99-3.76-3.59-6.11-7.97-7.44-12.95-.62-2.33-.97-4.7-1.21-7.11-.26-2.63-.24-5.26-.12-7.89,.11-2.29,.41-4.57,.9-6.82,.55-2.51,1.36-4.93,2.47-7.24,.92-1.91,2.07-3.68,3.42-5.32,1.14-1.38,2.42-2.61,3.84-3.7,2.38-1.83,5.04-3.11,7.92-3.94,1.71-.5,3.46-.79,5.24-.97,1.56-.16,3.11-.2,4.67-.15,3.54,.1,7.01,.66,10.3,2.04,3.51,1.48,6.52,3.64,8.97,6.58,2.96,3.55,4.82,7.61,5.86,12.09,.42,1.81,.68,3.63,.9,5.47,.21,1.74,.17,3.48,.16,5.22Zm-40.83,.02c.09,1.41,.11,2.82,.27,4.22,.17,1.51,.35,3.02,.72,4.49,.62,2.5,1.56,4.87,3.11,6.95,1.2,1.6,2.65,2.89,4.51,3.68,2.61,1.12,5.3,1.27,8.05,.62,2.04-.48,3.79-1.51,5.24-3,1.41-1.46,2.44-3.17,3.18-5.05,1.16-2.96,1.72-6.04,1.85-9.21,.04-.85,.09-1.7,.13-2.55,.01-.22,0-.44-.02-.67-.03-.48-.1-.96-.1-1.44,0-2.46-.37-4.87-.97-7.25-.64-2.54-1.67-4.91-3.33-6.96-1.28-1.59-2.85-2.8-4.79-3.49-2.25-.81-4.56-.96-6.9-.5-2.29,.45-4.25,1.54-5.86,3.21-1.24,1.29-2.17,2.82-2.89,4.46-1.02,2.33-1.58,4.78-1.86,7.29-.2,1.73-.24,3.47-.35,5.21Z"/><path class="cls-1" d="M446.08,5.41c.04,.26,.07,.43,.08,.61,.09,2.41,.03,9.8-.09,10.73-.19,.04-.39,.1-.6,.11-.3,.02-.59,0-.89,0-6.79,0-13.58,0-20.37,0-.44,0-.89-.07-1.36,.15-.04,.17-.1,.34-.1,.52,0,3.45,0,6.9,0,10.35,0,.14,.04,.29,.07,.49,.2,.05,.41,.14,.61,.16,.33,.03,.67,.01,1,.01,6.35,0,12.69,0,19.04,0,.4,0,.8,.02,1.14,.03,.09,.09,.12,.12,.14,.15,.02,.03,.03,.07,.03,.11,.01,3.45,.02,6.9,.03,10.35,0,.22-.02,.44-.04,.72-.21,.05-.41,.12-.62,.14-.29,.02-.59,0-.89,0-6.35,0-12.69,0-19.04,0-.44,0-.89-.08-1.33,.14-.23,.38-.14,.79-.15,1.19,0,2.97,0,5.93,0,8.9,0,1,0,2,0,3,0,.29,.04,.58,.06,.92,.24,.06,.45,.14,.65,.15,.33,.03,.67,0,1,0,7.05,0,14.1,0,21.15,0h1.27c.05,.2,.13,.37,.13,.54,0,3.49,0,6.97,0,10.46,0,.11-.04,.21-.07,.39-.2,.03-.4,.09-.61,.1-.26,.02-.52,0-.78,0-11.61,0-23.23,0-34.84,0-.44,0-.88,.05-1.37-.1-.03-.22-.07-.43-.08-.65-.01-.22,0-.44,0-.67,0-19.21,0-38.42,0-57.64,0-.44-.06-.88,.06-1.24,.09-.09,.12-.12,.15-.14,.03-.02,.07-.03,.11-.03,11.87-.01,23.75-.02,35.62-.03,.26,0,.52,.02,.9,.04Z"/><path class="cls-1" d="M211.6,62.58c-1.54,1.04-3.14,1.73-4.76,2.36-2.32,.89-4.71,1.56-7.2,1.82-.7,.07-1.4,.14-2.1,.21-.59,.05-1.18,.14-1.77,.14-1.7-.01-3.4-.13-5.1-.31-1.66-.18-3.29-.52-4.9-.97-3.25-.92-6.2-2.42-8.85-4.53-2.95-2.35-5.23-5.24-6.96-8.57-1.32-2.55-2.22-5.25-2.78-8.06-.4-2-.66-4.01-.76-6.05-.05-1.07-.16-2.14-.13-3.22,.05-1.85,.17-3.69,.38-5.54,.22-1.99,.61-3.95,1.18-5.87,.87-2.93,2.08-5.7,3.83-8.23,3.79-5.48,8.9-9.03,15.38-10.6,1.55-.37,3.12-.58,4.71-.74,1.45-.15,2.89-.17,4.33-.15,2.76,.04,5.45,.48,8.1,1.24,2.36,.68,4.6,1.66,6.75,2.83,.19,.1,.37,.23,.53,.34,.13,.89,.15,10.93,.02,12.1-.36-.24-.7-.46-1.03-.7-2.01-1.42-4.15-2.59-6.45-3.45-1.53-.57-3.12-.91-4.74-1.14-1.07-.15-2.14-.2-3.21-.19-2.29,0-4.49,.47-6.57,1.44-1.05,.48-2.01,1.12-2.88,1.88-2.17,1.89-3.72,4.21-4.71,6.91-.91,2.49-1.41,5.05-1.55,7.7-.06,1.07-.17,2.14-.12,3.22,.13,3.04,.48,6.05,1.49,8.95,.78,2.23,1.92,4.26,3.5,6.01,2.02,2.25,4.52,3.7,7.5,4.28,1.71,.33,3.42,.45,5.19,.31,2.66-.21,5.18-.85,7.62-1.88,1.92-.81,3.66-1.95,5.36-3.15,.15-.11,.3-.21,.46-.31,.02-.01,.07,.01,.13,.02,.03,.09,.08,.19,.08,.29,0,3.85,0,7.71,0,11.62Z"/><path class="cls-1" d="M501.53,8.65c.14,.94,.17,10.34,.06,11.99-.22,.13-.32-.07-.45-.16-1.61-1.13-3.26-2.2-5.05-3.03-2.2-1.02-4.5-1.67-6.92-1.97-1.11-.14-2.22-.2-3.33-.17-3.32,.1-6.35,1.03-8.96,3.15-1.58,1.28-2.79,2.86-3.76,4.63-1.19,2.17-1.89,4.49-2.31,6.92-.5,2.87-.52,5.76-.34,8.65,.17,2.67,.71,5.28,1.75,7.77,1.22,2.9,3,5.37,5.62,7.16,2.03,1.38,4.29,2.18,6.75,2.34,.7,.05,1.4,.16,2.1,.14,4.15-.13,8.05-1.18,11.61-3.36,.79-.48,1.56-1,2.34-1.5,.28-.18,.55-.36,.8-.54,.08,.06,.11,.07,.13,.1,.02,.03,.04,.07,.04,.1,0,3.82,0,7.64,0,11.46,0,.11-.05,.21-.1,.39-1.04,.64-2.17,1.19-3.32,1.7-2.35,1.03-4.8,1.76-7.33,2.21-.91,.16-1.84,.23-2.76,.32-.7,.07-1.4,.12-2.11,.16-.48,.02-.97,.03-1.45,0-.74-.04-1.48-.11-2.22-.15-2.04-.11-4.05-.45-6.02-.98-3.25-.89-6.24-2.32-8.93-4.37-2.69-2.06-4.84-4.58-6.57-7.47-1.85-3.09-2.97-6.45-3.67-9.96-.71-3.55-.8-7.14-.69-10.74,.12-3.87,.76-7.66,2.07-11.32,1.51-4.23,3.87-7.92,7.19-10.96,2.89-2.64,6.22-4.53,10-5.6,2-.57,4.03-.92,6.11-1.13,1.74-.18,3.48-.2,5.22-.12,2.15,.1,4.28,.42,6.36,.96,2.48,.65,4.86,1.58,7.13,2.79,.35,.19,.69,.42,.98,.59Z"/><path class="cls-1" d="M507.1,5.48c.2-.05,.3-.1,.41-.1,16.07,0,32.14,0,48.22,0,.1,0,.21,.05,.38,.1,.16,1.24,.05,2.49,.07,3.74,.02,1.22,0,2.45,0,3.67v3.82c-.26,.06-.47,.14-.68,.14-.74,.02-1.48,0-2.23,0-4.45,0-8.91,0-13.36,0-.44,0-.89-.1-1.36,.18-.05,.17-.14,.37-.16,.58-.03,.37-.01,.74-.01,1.11,0,15.17,0,30.35,0,45.52,0,.47,.07,.96-.1,1.48-.18,.03-.35,.1-.52,.1-4.12,0-8.24,0-12.36,0-.11,0-.22-.04-.39-.06-.04-.19-.1-.4-.11-.6-.02-.33,0-.67,0-1,0-15.21,0-30.42,0-45.63,0-.48-.01-.96-.02-1.47-.26-.08-.46-.18-.67-.2-.33-.03-.67-.01-1-.01-4.94,0-9.87,0-14.81,0-.4,0-.81,.05-1.15-.06-.07-.08-.11-.11-.12-.14-.02-.03-.03-.07-.03-.11,0-3.45-.02-6.9-.02-10.35,0-.22,.02-.44,.03-.73Z"/></g><g><path class="cls-1" d="M560,131.1c-.3,.19-.27,.51-.28,.8-.16,2.67-.89,5.17-2.11,7.54-1.58,3.07-4.03,5.18-7.18,6.51-2.24,.95-4.59,1.4-7,1.63-1.56,.15-3.11,.16-4.66,.15-1.82,0-3.63-.23-5.42-.51-2.94-.45-5.8-1.19-8.6-2.19-1.29-.46-2.58-.93-3.83-1.55-.04-.23-.1-.44-.1-.66,0-3.82,0-7.64,0-11.46,0-.18,.04-.35,.08-.62,.39,.21,.72,.37,1.03,.56,2.57,1.57,5.27,2.89,8.12,3.87,1.93,.67,3.91,1.12,5.94,1.36,1.26,.15,2.51,.21,3.77,.15,1.45-.07,2.88-.3,4.21-.91,1.73-.79,3.01-2.01,3.53-3.91,.37-1.36,.34-2.7-.03-4.06-.41-1.48-1.31-2.56-2.61-3.31-1.55-.9-3.25-1.43-4.97-1.9-2.21-.61-4.44-1.16-6.65-1.8-2.18-.63-4.25-1.54-6.16-2.78-3.28-2.13-5.28-5.14-6.17-8.91-.31-1.3-.51-2.62-.52-3.96,0-1.15-.02-2.3,.02-3.45,.1-2.77,.68-5.44,1.91-7.94,1.61-3.29,4.12-5.67,7.49-7.13,2.31-.99,4.72-1.5,7.23-1.6,.89-.04,1.78-.17,2.66-.13,1.52,.06,3.03,.23,4.54,.34,2.41,.18,4.77,.68,7.12,1.19,1.74,.37,3.45,.84,5.17,1.44,.04,.22,.12,.43,.12,.64,0,3.78,0,7.57,0,11.35,0,.11-.04,.21-.08,.38-.29-.12-.56-.23-.81-.35-1.83-.9-3.7-1.7-5.64-2.35-1.94-.65-3.92-1.13-5.94-1.39-1.1-.14-2.22-.24-3.32-.21-1.74,.05-3.48,.19-5.14,.81-1.06,.4-1.98,.99-2.69,1.89-.69,.88-1.02,1.88-1.12,2.97-.05,.55-.05,1.12,0,1.67,.14,1.57,.85,2.82,2.21,3.66,1.37,.85,2.89,1.34,4.44,1.73,2.66,.68,5.33,1.3,7.97,2.01,2.48,.66,4.83,1.68,7,3.06,3,1.9,4.85,4.63,5.74,8.03,.24,.93,.46,1.87,.47,2.84,0,.26,.03,.52,.28,.69v5.79Z"/><path class="cls-1" d="M316.44,114.01c.08,.15,.1,.29,.18,.33,.26,.15,.53,.27,.8,.39,2.4,1.05,4.19,2.77,5.46,5.03,1.33,2.37,2.01,4.92,2.13,7.63,.02,.44,.08,.88,.11,1.33,.02,.26,.04,.52,.02,.78-.05,.85-.09,1.7-.17,2.55-.33,3.31-1.29,6.37-3.48,8.97-.87,1.03-1.9,1.87-3.04,2.57-1.95,1.2-4.08,1.93-6.31,2.36-1.49,.29-3,.41-4.52,.53-2.08,.17-4.15,.11-6.23,.12-5.45,.02-10.91,0-16.36,0h-1.27c-.03-.28-.07-.49-.08-.7-.01-.26,0-.52,0-.78,0-19.21,0-38.42,0-57.63v-1.28c.28-.33,.6-.22,.88-.23,3.04,0,6.09,0,9.13,0,2.6,0,5.2,.03,7.79-.01,2.04-.03,4.08,.08,6.11,.25,2.22,.18,4.4,.57,6.52,1.3,1.77,.62,3.41,1.47,4.79,2.74,1.33,1.22,2.31,2.7,2.95,4.39,.46,1.22,.75,2.47,.95,3.76,.29,1.85,.29,3.7,.15,5.54-.21,2.67-1.04,5.14-2.79,7.24-.82,.99-1.82,1.73-2.91,2.38-.25,.15-.51,.28-.79,.43Zm-19.9,22.02c.4,.29,.78,.2,1.14,.2,1.96,0,3.93,0,5.89,0,.93,0,1.85-.04,2.76-.19,2.66-.44,4.63-1.81,5.48-4.42,.83-2.53,.81-5.11-.16-7.62-.59-1.51-1.68-2.6-3.16-3.28-1.05-.48-2.18-.76-3.33-.78-2.67-.04-5.34-.03-8-.02-.21,0-.41,.1-.64,.16-.03,.29-.07,.55-.07,.8-.11,5.62-.05,14.06,.09,15.13Zm.01-26.56c.26,.04,.48,.09,.69,.09,2.41,0,4.82,.02,7.23-.02,.59,0,1.19-.1,1.75-.27,1.77-.54,3.05-1.64,3.63-3.45,.59-1.81,.6-3.64,.07-5.46-.54-1.84-1.74-3.08-3.59-3.62-.67-.19-1.37-.36-2.07-.38-2.34-.05-4.67-.03-7.01-.02-.24,0-.48,.1-.7,.15-.14,.94-.15,11.86,0,12.97Z"/><path class="cls-1" d="M385.61,116.65c-.02,1.11,.02,2.45-.1,3.78-.15,1.66-.31,3.32-.62,4.96-.47,2.48-1.12,4.91-2.08,7.25-.89,2.17-2.05,4.19-3.48,6.06-2.17,2.85-4.84,5.11-8.08,6.66-2.02,.97-4.14,1.6-6.34,1.97-2.28,.38-4.57,.52-6.87,.39-4.64-.25-8.99-1.43-12.85-4.12-2.72-1.89-4.89-4.3-6.62-7.12-1.98-3.23-3.19-6.75-3.9-10.46-.38-1.96-.6-3.95-.75-5.94-.13-1.67-.13-3.33-.13-5,0-1.71,.2-3.4,.37-5.09,.21-2.07,.62-4.1,1.17-6.1,.92-3.39,2.33-6.56,4.4-9.42,2.1-2.9,4.71-5.24,7.9-6.87,2.36-1.2,4.87-1.95,7.5-2.35,1.44-.22,2.89-.14,4.32-.36,4.57,.1,9.01,.77,13.06,3.08,2.11,1.2,3.98,2.71,5.6,4.52,3.23,3.63,5.2,7.89,6.32,12.58,.48,2.02,.77,4.07,.98,6.13,.18,1.74,.17,3.48,.21,5.45Zm-38.56-.34c-.12,2.71,.11,5.4,.64,8.07,.46,2.31,1.22,4.5,2.39,6.55,.82,1.44,1.83,2.71,3.16,3.7,1.84,1.37,3.93,2.05,6.22,2.08,.78,.01,1.55-.06,2.32-.18,2.33-.38,4.27-1.47,5.85-3.18,1.46-1.57,2.42-3.45,3.16-5.45,1.17-3.17,1.53-6.48,1.69-9.81,.08-1.77,.02-3.55-.12-5.33-.18-2.34-.54-4.63-1.2-6.88-.59-2.01-1.45-3.9-2.72-5.57-1.58-2.07-3.58-3.53-6.18-4.06-1.35-.27-2.69-.38-4.08-.19-2.58,.35-4.74,1.46-6.45,3.38-1.17,1.31-2.04,2.82-2.71,4.44-1.22,2.98-1.73,6.12-1.95,9.31-.07,1.03-.01,2.08-.01,3.11Z"/><path class="cls-1" d="M221.71,116.35c0-.89-.02-1.78,0-2.67,.08-2.75,.45-5.45,1.04-8.14,.63-2.88,1.63-5.62,3.03-8.21,1.96-3.63,4.61-6.62,8.11-8.83,2.31-1.46,4.83-2.42,7.5-2.98,1.49-.31,2.99-.52,4.52-.52,.3,0,.59-.05,.89-.07,.37-.02,.74-.07,1.11-.05,1.04,.05,2.08,.09,3.11,.2,2.37,.25,4.67,.8,6.88,1.7,3.85,1.56,6.95,4.08,9.42,7.38,2.37,3.16,3.9,6.71,4.85,10.53,.44,1.76,.74,3.55,.95,5.35,.3,2.66,.5,5.32,.36,7.98-.11,2.03-.22,4.06-.54,6.08-.3,1.87-.68,3.72-1.22,5.52-1.51,5.05-4.13,9.42-8.18,12.86-1.74,1.48-3.7,2.59-5.82,3.44-1.86,.75-3.81,1.23-5.79,1.53-2.1,.31-4.22,.37-6.33,.22-2.55-.17-5.07-.59-7.5-1.48-3.82-1.4-7-3.68-9.59-6.8-2.85-3.44-4.59-7.42-5.65-11.71-.48-1.94-.74-3.92-.97-5.91-.21-1.81-.17-3.63-.19-5.44Zm38.55,.03c-.01-1.63,0-3.25-.17-4.88-.25-2.3-.69-4.54-1.45-6.71-.68-1.94-1.63-3.74-3.01-5.28-1.1-1.23-2.39-2.22-3.97-2.78-1.8-.64-3.64-.91-5.56-.66-2.25,.3-4.19,1.16-5.85,2.71-1.92,1.8-3.09,4.06-3.91,6.51-1.1,3.3-1.46,6.72-1.53,10.18-.03,1.37,0,2.74,.12,4.11,.12,1.4,.26,2.8,.49,4.19,.43,2.54,1.22,4.96,2.51,7.2,.71,1.23,1.54,2.36,2.64,3.27,1.55,1.29,3.3,2.08,5.31,2.36,2.8,.39,5.4-.11,7.75-1.67,2.05-1.35,3.38-3.31,4.38-5.5,1.48-3.25,2.05-6.71,2.24-10.25,.05-.92,0-1.85,0-2.78Z"/><path class="cls-1" d="M200.26,118.3c.41,.19,.61,.29,.81,.36,1.51,.54,2.71,1.51,3.75,2.7,1.29,1.5,2.26,3.2,3.13,4.97,1.33,2.7,2.39,5.51,3.54,8.28,1.41,3.39,2.8,6.78,4.18,10.18,.22,.54,.52,1.06,.6,1.61-.07,.07-.09,.1-.11,.12-.03,.02-.06,.05-.1,.05-.33,.01-.67,.02-1,.02-4.04,0-8.08,0-12.17,0-.17-.33-.33-.61-.46-.91-1.85-4.53-3.68-9.06-5.54-13.58-.51-1.23-1.06-2.45-1.69-3.63-.45-.85-1.01-1.65-1.6-2.4-1.05-1.34-2.48-2.08-4.15-2.38-.77-.14-1.54-.21-2.32-.19-.82,.02-1.63,0-2.45,0-.29,0-.6-.04-.85,.26-.15,.39-.08,.84-.08,1.28,0,6.75,0,13.5,0,20.26,0,.4,.04,.81-.06,1.18-.95,.15-11.57,.16-12.59,.02-.02-.02-.06-.05-.07-.08-.02-.03-.03-.07-.03-.11,0-19.96-.01-39.92-.02-59.87,0-.11,.04-.21,.07-.39,.2-.02,.41-.07,.62-.07,6.64,0,13.29-.05,19.93,.02,2.44,.03,4.89,.25,7.27,.86,1.8,.46,3.53,1.1,5.12,2.11,2.62,1.68,4.26,4.08,5.14,7.02,.4,1.35,.64,2.73,.76,4.14,.09,1.11,.19,2.22,.12,3.33-.12,2.03-.34,4.05-1.01,6-1.2,3.55-3.47,6.16-6.82,7.84-.43,.22-.88,.4-1.31,.6-.16,.08-.3,.18-.63,.38Zm-16.39-5.34c.32,.04,.61,.1,.89,.1,1.6,0,3.19,.03,4.79,0,1-.03,1.99-.15,2.97-.38,2.22-.52,3.65-1.87,4.29-4.06,.08-.28,.15-.57,.21-.86,.29-1.24,.23-2.5,.22-3.76,0-1.17-.28-2.28-.71-3.35-.47-1.17-1.27-2.06-2.41-2.65-1.29-.67-2.68-.87-4.08-.93-1.85-.08-3.71-.03-5.56-.02-.21,0-.41,.11-.6,.16-.14,.9-.16,14.55,0,15.76Z"/><path class="cls-1" d="M509.09,89.39c.11,1.46,.08,11.11-.03,11.95-.22,.07-.34-.11-.48-.21-1.26-.98-2.58-1.87-3.99-2.63-2.14-1.16-4.41-1.95-6.81-2.31-2.32-.35-4.65-.35-6.95,.25-3.14,.83-5.61,2.61-7.48,5.26-1.59,2.25-2.58,4.74-3.14,7.42-.41,1.92-.67,3.87-.68,5.84,0,1.08-.02,2.15,.01,3.23,.08,2.91,.54,5.75,1.56,8.48,.94,2.53,2.3,4.81,4.31,6.66,1.89,1.73,4.12,2.74,6.62,3.18,.91,.16,1.84,.22,2.77,.22,2.67,0,5.22-.56,7.69-1.55,2.01-.8,3.82-1.96,5.57-3.22,.33-.23,.65-.47,1.01-.72,.12,1.12,.11,11.17-.01,12.08-1.15,.77-2.4,1.4-3.69,1.98-2.35,1.05-4.81,1.74-7.34,2.14-.99,.16-1.99,.25-2.98,.29-1.89,.07-3.78,.04-5.66-.21-4.57-.6-8.77-2.15-12.42-5.02-2.78-2.19-4.96-4.88-6.64-7.98-1.52-2.82-2.55-5.83-3.15-8.98-.36-1.89-.6-3.8-.74-5.72-.1-1.41-.14-2.81-.13-4.22,.02-1.74,.18-3.47,.37-5.2,.21-2.03,.62-4.02,1.16-5.99,1.48-5.31,4.17-9.88,8.34-13.52,2.49-2.17,5.34-3.72,8.51-4.68,2.28-.69,4.61-1.11,6.99-1.17,.59-.01,1.18-.14,1.77-.13,3.84,.09,7.59,.65,11.16,2.18,1.96,.84,3.39,1.55,4.48,2.32Z"/><path class="cls-1" d="M419.39,146.5c-1.15,.14-8.39,.19-12.15,.1-.18,0-.35-.03-.58-.05-.11-1.53-.04-3-.05-4.48-.01-1.48,0-2.97,0-4.45v-30.93c0-1.48,0-2.97,0-4.45,0-1.48,.01-2.96-.01-4.48-.3-.1-.53-.21-.77-.24-.33-.04-.67-.02-1-.02-4.53,0-9.06,0-13.58,0-.4,0-.81-.02-1.14-.03-.37-.38-.26-.77-.26-1.13,0-2.49,0-4.97,0-7.46,0-.7,0-1.41,0-2.11,0-.22,.04-.43,.07-.7,.24-.03,.45-.07,.67-.08,.26-.01,.52,0,.78,0,14.44,0,28.87,0,43.31,0,.44,0,.88,.01,1.38,.02,.04,.22,.11,.39,.11,.56,0,3.41,0,6.82,0,10.24,0,.18-.05,.35-.08,.54-.42,.21-.84,.14-1.23,.14-3.12,0-6.23,0-9.35,0-1.6,0-3.19,0-4.79,0-.4,0-.82-.06-1.18,.25-.2,.37-.12,.79-.12,1.19,0,3.67,0,7.34,0,11.02,0,11.72,0,23.44,0,35.16v1.39Z"/><path class="cls-1" d="M455.98,146.49c-1.03,.14-11.32,.16-12.55,.04-.04-.19-.1-.39-.11-.6-.02-.3,0-.59,0-.89,0-19.17,0-38.34,0-57.51,0-.47-.07-.96,.07-1.38,.08-.06,.1-.09,.13-.11,.03-.02,.07-.03,.1-.03,3.78-.01,7.57-.02,11.35-.03,.26,0,.52,.02,.78,.04,.03,0,.06,.04,.16,.12,.02,.15,.06,.36,.07,.57,.01,.26,0,.52,0,.78,0,19.17,0,38.34,0,57.51v1.49Z"/></g></g></svg>