<?xml version="1.0" encoding="UTF-8"?><svg xmlns="http://www.w3.org/2000/svg" viewBox="0 0 560 166.26"><defs><style>.cls-1,.cls-2{fill:#002f53;}.cls-3{fill:#c5004b;}.cls-4{fill:#d64c81;}.cls-2{mix-blend-mode:multiply;}.cls-5{mix-blend-mode:screen;}.cls-6{isolation:isolate;}</style></defs><g class="cls-6"><g id="logo_DigitalEnabler"><g><g class="cls-5"><path class="cls-1" d="M237.57,1.1h28.53c5.74,0,10.77,.93,15.09,2.8,4.32,1.87,7.92,4.51,10.79,7.94,2.87,3.42,5.01,7.52,6.43,12.29,1.42,4.77,2.13,10.06,2.13,15.87s-.74,10.96-2.23,15.66c-1.49,4.7-3.72,8.73-6.69,12.08-2.97,3.36-6.64,5.95-11,7.78-4.36,1.83-9.44,2.75-15.25,2.75h-27.8V1.1Zm27.39,67.95c4.36,0,8.09-.68,11.2-2.02,3.11-1.35,5.65-3.28,7.62-5.81,1.97-2.52,3.42-5.58,4.36-9.18,.93-3.6,1.4-7.61,1.4-12.03s-.43-8.47-1.3-12.14c-.87-3.66-2.25-6.79-4.15-9.39-1.9-2.59-4.37-4.6-7.42-6.02-3.04-1.42-6.74-2.13-11.1-2.13h-17.32v58.71h16.7Z"/><path class="cls-1" d="M307.27,1.1h10.06V12.3h-10.06V1.1Zm.21,21.47h9.65v55.7h-9.65V22.57Z"/><path class="cls-1" d="M347.21,97.78c-7.33,0-13.02-1.37-17.06-4.1-4.05-2.73-6.35-6.59-6.9-11.57h9.03c.41,2.9,1.94,5,4.56,6.28,2.63,1.28,6.02,1.92,10.17,1.92,4.98,0,8.8-1.12,11.46-3.37s3.99-5.76,3.99-10.53v-1.56c0-1.59,.02-3.09,.05-4.51,.04-1.42,.09-2.57,.16-3.48h-.21c-1.94,2.77-4.2,4.95-6.79,6.54-2.59,1.59-5.86,2.39-9.8,2.39-3.53,0-6.79-.66-9.8-1.97-3.01-1.31-5.59-3.18-7.73-5.6-2.14-2.42-3.82-5.29-5.03-8.61-1.21-3.32-1.82-7.02-1.82-11.1,0-4.29,.62-8.12,1.87-11.51,1.25-3.39,2.96-6.24,5.14-8.56,2.18-2.32,4.72-4.1,7.62-5.34s5.98-1.87,9.23-1.87c4.01,0,7.38,.74,10.11,2.23,2.73,1.49,4.99,3.65,6.8,6.48h.21v-7.37h9.54v53.42c0,3.73-.59,6.97-1.76,9.7-1.18,2.73-2.84,5-4.98,6.79-2.21,1.8-4.84,3.13-7.89,3.99-3.04,.86-6.43,1.3-10.17,1.3Zm-.41-29.87c3.04,0,5.6-.5,7.68-1.5,2.07-1,3.75-2.39,5.03-4.15s2.2-3.85,2.75-6.28c.55-2.42,.83-5.05,.83-7.88,0-5.88-1.33-10.49-3.99-13.85s-6.79-5.03-12.4-5.03c-5.12,0-8.96,1.76-11.51,5.29-2.56,3.53-3.84,8.23-3.84,14.11s1.31,10.65,3.94,14.11c2.63,3.46,6.47,5.19,11.51,5.19Z"/><path class="cls-1" d="M380.51,1.1h10.06V12.3h-10.06V1.1Zm.21,21.47h9.65v55.7h-9.65V22.57Z"/><path class="cls-1" d="M395.55,22.57h8.71V5.04h9.54V22.57h11.52v7.47h-11.52v35.17c0,2.01,.5,3.37,1.51,4.1,1,.73,2.4,1.09,4.2,1.09,.83,0,1.71-.09,2.65-.26,.93-.17,1.67-.33,2.23-.47h.31v8.09c-2.63,.62-5.22,.93-7.78,.93-3.74-.07-6.78-.95-9.13-2.65-2.35-1.69-3.53-4.58-3.53-8.66V30.04h-8.71v-7.47Z"/><path class="cls-1" d="M447.41,79.42c-2.63,0-5.1-.33-7.42-.99-2.32-.66-4.32-1.64-6.02-2.96-1.7-1.31-3.03-2.96-3.99-4.93-.97-1.97-1.45-4.31-1.45-7,0-3.25,.57-5.91,1.71-7.99s2.77-3.73,4.88-4.98c2.11-1.24,4.63-2.21,7.57-2.9,2.94-.69,6.21-1.24,9.8-1.66,2.08-.21,3.94-.48,5.6-.83,1.66-.35,3.08-.81,4.25-1.4s2.07-1.33,2.7-2.23c.62-.9,.93-2.07,.93-3.53,0-3.04-1.02-5.43-3.06-7.16-2.04-1.73-5-2.59-8.87-2.59-4.43,0-7.73,.97-9.91,2.9-2.18,1.94-3.34,4.56-3.48,7.88h-9.34c.07-2.35,.59-4.6,1.56-6.74,.97-2.14,2.39-4.05,4.25-5.7,1.87-1.66,4.2-2.97,7-3.94,2.8-.97,6.07-1.45,9.8-1.45,2.63,0,5.08,.24,7.36,.73,2.28,.48,4.32,1.24,6.12,2.28,2.35,1.38,4.18,3.32,5.5,5.81,1.31,2.49,1.97,5.6,1.97,9.34v26.04c0,2.21,.38,3.87,1.14,4.98,.76,1.11,2.35,1.38,4.77,.83h.42v6.74c-.69,.21-1.44,.4-2.23,.57-.8,.17-1.78,.26-2.96,.26-2.97,0-5.22-.71-6.74-2.13-1.52-1.42-2.56-3.61-3.11-6.59h-.1c-.9,1.24-1.94,2.42-3.11,3.53-1.18,1.11-2.53,2.09-4.05,2.96-1.52,.87-3.23,1.56-5.14,2.07s-4.03,.78-6.38,.78Zm2.39-7.05c2.77,0,5.17-.47,7.21-1.4,2.04-.93,3.73-2.11,5.08-3.53,1.35-1.42,2.35-2.99,3.01-4.72,.66-1.73,.99-3.39,.99-4.98v-9.13c-1.38,.9-3.2,1.68-5.45,2.33-2.25,.66-4.51,1.19-6.8,1.61-2.28,.41-4.36,.85-6.22,1.3-1.87,.45-3.46,1.07-4.77,1.87-1.31,.8-2.33,1.8-3.06,3.01-.73,1.21-1.09,2.78-1.09,4.72,0,1.8,.31,3.27,.93,4.41,.62,1.14,1.45,2.06,2.49,2.75,1.04,.69,2.23,1.16,3.58,1.4,1.35,.24,2.71,.36,4.1,.36Z"/><path class="cls-1" d="M484.76,1.1h9.65V78.28h-9.65V1.1Z"/><path class="cls-1" d="M237.34,89.68h53.31v9.07h-43.03v22.67h38.9v8.57h-38.9v25.29h44.14v9.37h-54.42V89.68Z"/><path class="cls-1" d="M307.88,118.2h.3c1.95-2.75,4.3-4.94,7.05-6.55,2.75-1.61,6.11-2.42,10.08-2.42,5.71,0,10.18,1.51,13.4,4.53,3.22,3.02,4.84,7.39,4.84,13.1v37.79h-9.27v-36.68c0-3.49-1.06-6.18-3.17-8.06-2.12-1.88-5.02-2.82-8.72-2.82-2.08,0-4.01,.35-5.79,1.06-1.78,.7-3.31,1.7-4.58,2.97-1.28,1.28-2.27,2.82-2.97,4.64-.71,1.81-1.06,3.8-1.06,5.94v32.95h-9.37v-54.11h9.27v7.66Z"/><path class="cls-1" d="M367.73,165.76c-2.55,0-4.95-.32-7.2-.96s-4.2-1.59-5.84-2.87c-1.65-1.28-2.94-2.87-3.88-4.79-.94-1.91-1.41-4.18-1.41-6.8,0-3.16,.56-5.74,1.66-7.76,1.11-2.02,2.69-3.63,4.74-4.84,2.05-1.21,4.5-2.15,7.36-2.82,2.85-.67,6.03-1.21,9.52-1.61,2.02-.2,3.83-.47,5.44-.81,1.61-.33,2.99-.79,4.13-1.36,1.14-.57,2.02-1.29,2.62-2.17,.6-.87,.91-2.01,.91-3.43,0-2.96-.99-5.27-2.97-6.95-1.98-1.68-4.85-2.52-8.61-2.52-4.3,0-7.51,.94-9.62,2.82-2.12,1.88-3.24,4.43-3.38,7.66h-9.07c.07-2.28,.57-4.47,1.51-6.55,.94-2.08,2.32-3.93,4.13-5.54,1.81-1.61,4.08-2.89,6.8-3.83,2.72-.94,5.89-1.41,9.52-1.41,2.55,0,4.94,.24,7.16,.71,2.22,.47,4.2,1.21,5.95,2.22,2.28,1.34,4.06,3.23,5.34,5.64,1.28,2.42,1.91,5.44,1.91,9.07v25.29c0,2.15,.37,3.76,1.11,4.84,.74,1.08,2.28,1.34,4.64,.81h.4v6.55c-.67,.2-1.39,.39-2.17,.55-.77,.17-1.73,.25-2.87,.25-2.89,0-5.07-.69-6.55-2.07-1.48-1.38-2.49-3.51-3.02-6.4h-.1c-.87,1.21-1.88,2.35-3.02,3.43-1.14,1.08-2.45,2.03-3.93,2.87-1.48,.84-3.14,1.51-4.99,2.01-1.85,.5-3.91,.76-6.2,.76Zm2.32-6.85c2.69,0,5.02-.45,7-1.36,1.98-.91,3.63-2.05,4.94-3.43,1.31-1.38,2.28-2.9,2.92-4.59,.64-1.68,.96-3.29,.96-4.84v-8.87c-1.34,.87-3.11,1.63-5.29,2.27-2.18,.64-4.38,1.16-6.6,1.56-2.22,.4-4.23,.82-6.05,1.26-1.82,.44-3.36,1.04-4.64,1.81-1.28,.77-2.27,1.75-2.97,2.92-.7,1.18-1.06,2.71-1.06,4.59,0,1.75,.3,3.17,.91,4.28,.6,1.11,1.41,2,2.42,2.67,1.01,.67,2.17,1.13,3.48,1.36,1.31,.24,2.64,.35,3.98,.35Z"/><path class="cls-1" d="M430.21,166.26c-3.63,0-6.92-.79-9.88-2.37s-5.31-3.88-7.05-6.9h-.3v7.66h-9.27V89.68h9.37v19.15c0,2.08-.04,4.03-.1,5.85-.07,1.81-.14,3.29-.2,4.43h.3c1.74-2.89,4.1-5.26,7.05-7.1,2.95-1.85,6.41-2.77,10.38-2.77,3.43,0,6.55,.66,9.37,1.97,2.82,1.31,5.26,3.19,7.31,5.64,2.05,2.45,3.63,5.44,4.74,8.97s1.66,7.51,1.66,11.94-.54,8.31-1.61,11.84-2.62,6.52-4.64,8.97c-2.02,2.45-4.47,4.35-7.36,5.69-2.89,1.34-6.15,2.02-9.77,2.02Zm-1.01-7.76c2.49,0,4.65-.52,6.5-1.56,1.85-1.04,3.39-2.48,4.64-4.33,1.24-1.85,2.17-4.03,2.77-6.55,.6-2.52,.91-5.26,.91-8.21s-.3-5.71-.91-8.26c-.61-2.55-1.51-4.75-2.72-6.6-1.21-1.85-2.74-3.29-4.59-4.33-1.85-1.04-4.01-1.56-6.5-1.56-2.89,0-5.38,.54-7.46,1.61-2.08,1.08-3.81,2.55-5.19,4.43-1.38,1.88-2.4,4.08-3.07,6.6-.67,2.52-1.01,5.22-1.01,8.11s.35,5.69,1.06,8.21c.7,2.52,1.74,4.7,3.12,6.55,1.37,1.85,3.11,3.29,5.19,4.33,2.08,1.04,4.5,1.56,7.25,1.56Z"/><path class="cls-1" d="M459.33,89.68h9.37v74.97h-9.37V89.68Z"/><path class="cls-1" d="M500.85,166.16c-4.17,0-7.88-.74-11.13-2.22-3.26-1.48-6.03-3.51-8.31-6.1-2.28-2.59-4.01-5.61-5.19-9.07-1.18-3.46-1.76-7.17-1.76-11.13s.62-7.57,1.86-11.03c1.24-3.46,2.99-6.48,5.24-9.07,2.25-2.59,4.97-4.62,8.16-6.1,3.19-1.48,6.74-2.22,10.63-2.22s7.59,.74,10.68,2.22c3.09,1.48,5.71,3.53,7.86,6.15,2.22,2.69,3.88,5.91,4.99,9.67,1.11,3.76,1.66,7.96,1.66,12.6h-41.52c.2,2.62,.7,5.07,1.51,7.36,.81,2.28,1.91,4.27,3.32,5.95,1.41,1.68,3.12,2.99,5.14,3.93,2.02,.94,4.33,1.41,6.95,1.41,3.76,0,6.87-.82,9.32-2.47,2.45-1.65,4.11-3.91,4.99-6.8h9.17c-1.21,5.04-3.88,9.12-8.01,12.24-4.13,3.12-9.32,4.69-15.57,4.69Zm-.5-49.68c-2.42,0-4.57,.42-6.45,1.26-1.88,.84-3.49,2-4.84,3.48-1.35,1.48-2.42,3.23-3.23,5.24-.81,2.02-1.35,4.23-1.61,6.65h31.34c-.27-5.24-1.7-9.32-4.28-12.24s-6.23-4.38-10.93-4.38Z"/><path class="cls-1" d="M540.25,120.31h.3c1.68-3.16,3.86-5.69,6.55-7.61,2.69-1.92,5.84-2.87,9.47-2.87,.74,0,1.36,.05,1.86,.15,.5,.1,1.02,.25,1.56,.45v8.87h-.3c-.67-.2-1.28-.34-1.81-.4-.54-.07-1.21-.1-2.02-.1-2.08,0-4.07,.39-5.95,1.16-1.88,.77-3.53,1.86-4.94,3.28-1.41,1.41-2.54,3.12-3.38,5.14-.84,2.02-1.26,4.3-1.26,6.85v29.43h-9.37v-54.11h9.27v9.77Z"/></g><g><g><path class="cls-3" d="M142.32,68.65c-2.87-2.26-6.42-3.39-10.66-3.39-4.62,0-8.19,1.2-10.73,3.59-2.54,2.39-4.14,5.63-4.79,9.73h30.97c-.33-4.36-1.92-7.67-4.79-9.93"/><path class="cls-3" d="M165.77,89.41h-50.07c.28,6.3,2.68,10.72,7.19,13.26,2.75,1.57,6.05,2.36,9.91,2.36,4.09,0,7.42-.96,9.98-2.88,1.4-1.04,2.63-2.48,3.7-4.32h18.35c-.48,3.73-2.71,7.51-6.66,11.36-6.16,6.11-14.78,9.16-25.87,9.16-9.15,0-17.22-2.58-24.22-7.73-6.99-5.15-10.49-13.54-10.49-25.15,0-10.88,3.16-19.23,9.47-25.04,6.31-5.81,14.51-8.71,24.58-8.71,5.98,0,11.37,.98,16.17,2.94,4.8,1.96,8.76,5.06,11.88,9.3,2.82,3.73,4.64,8.06,5.48,12.99,.48,2.89,.68,7.05,.59,12.47M91.77,33.32l16.48,2.16-2.16,16.5-16.48-2.16,2.16-16.49Zm-6.85,38.8l-16.48-2.16,2.16-16.5,16.48,2.16-2.16,16.49Zm-14.9-47.25l16.48,2.16-2.16,16.49-16.48-2.16,2.16-16.5ZM134.95,0h-58.92l-1.87,14.3-13.76-1.8V78.77l12.67,1.66-2.16,16.49-10.52-1.38v67.44h82.9c32.18,0,58.27-26.11,58.27-58.32V58.32C201.56,26.11,172.75,0,134.95,0"/></g><rect class="cls-4" x="15.75" y="24.49" width="16.63" height="16.62" transform="translate(-11.58 52.41) rotate(-82.54)"/><rect class="cls-1" x="30.69" y="32.61" width="16.64" height="16.62" transform="translate(-6.63 74.28) rotate(-82.54)"/><rect class="cls-1" x="52.08" y="24.32" width="16.63" height="16.62" transform="translate(20.19 88.28) rotate(-82.54)"/><rect class="cls-2" x="60.12" y="47.55" width="16.63" height="16.62" transform="translate(4.16 116.46) rotate(-82.54)"/><rect class="cls-3" x="1" y="43.66" width="16.63" height="16.62" transform="translate(-43.42 54.46) rotate(-82.54)"/><rect class="cls-4" x="37.33" y="54.48" width="16.63" height="16.62" transform="translate(-22.53 99.9) rotate(-82.54)"/><rect class="cls-1" x="47.97" y="72.3" width="16.64" height="16.62" transform="translate(-30.95 125.95) rotate(-82.54)"/></g></g></g></g></svg>