<?xml version="1.0" encoding="UTF-8"?><svg id="logo_Telefonica" xmlns="http://www.w3.org/2000/svg" viewBox="0 0 580 139.32"><defs><style>.cls-1{fill:#0166ff;}</style></defs><path class="cls-1" d="M17.52,.3c10.07-1.82,20.69,4.97,23.29,14.85,3.16,11.05-3.24,22.57-14.29,25.72-11.05,3.16-22.57-3.24-25.72-14.29C.16,24.35-.1,22.02,.03,19.7,.35,10.17,8.09,1.63,17.52,.3Z"/><path class="cls-1" d="M66.27,.3c11.35-1.83,22.04,5.88,23.87,17.24,.43,2.68,.34,5.43-.28,8.07-2.05,9.6-11.65,16.77-21.47,16-10.22-.36-19.16-9.28-19.55-19.49-.9-10.34,7.16-20.37,17.43-21.83Z"/><path class="cls-1" d="M113.67,.59c11.19-2.64,22.4,4.3,25.03,15.49,2.64,11.19-4.3,22.4-15.49,25.03s-22.4-4.3-25.03-15.49c-.82-3.48-.73-7.12,.27-10.55,2.11-7.21,7.92-12.74,15.22-14.48Z"/><path class="cls-1" d="M391.09,39.64h12.06c-3.64,4.47-7.4,8.82-11.01,13.37-3.29,.11-6.59,.07-9.88,.06,2.95-4.48,5.89-8.96,8.82-13.42h0Z"/><path class="cls-1" d="M472.88,39.66c4.5-2.32,10.36,1.79,9.7,6.8-.16,5.17-6.9,8.19-10.9,4.95-4.15-2.79-3.44-9.87,1.2-11.75h0Z"/><path class="cls-1" d="M342.82,44.03c4.98-4.67,12.32-2.52,18.45-3.02v10.22c-2.69,0-5.41-.24-8.08,.19-3.15,1.31-1.75,5.42-2.04,8.05h10.14v11.1h-10.12v35.97h-11.61v-35.97h-7.81c0-3.71,0-7.41,0-11.11h7.8c.11-5.21-.94-11.46,3.26-15.43h0Z"/><path class="cls-1" d="M164.07,41.96h50.77v11.55h-19.35v53.02h-12.04c-.03-17.68-.03-35.35,0-53.02-6.46-.03-12.92-.05-19.38-.05,0-3.81,0-7.66,0-11.5h0Z"/><path class="cls-1" d="M263.54,41.95h11.61V106.52h-11.61V41.95Z"/><path class="cls-1" d="M64.84,49.4c11.19-2.63,22.4,4.31,25.04,15.5,2.63,11.19-4.31,22.4-15.5,25.04-11.19,2.63-22.4-4.31-25.04-15.5-1.43-6.06-.07-12.44,3.71-17.39,2.93-3.84,7.1-6.54,11.8-7.65Z"/><path class="cls-1" d="M382.61,58.86c7.08-1.17,14.87,.54,20.35,5.38,10.44,9.1,10.73,27.24,.75,36.78-8.78,8.46-24.15,8.57-33.11,.34-10.17-9.29-10.22-27.32-.11-36.66,3.37-3.1,7.59-5.13,12.13-5.83m.72,10.85c-10.22,3.15-11.75,18.63-3.52,24.71,4.72,3.46,11.25,3.05,15.5-.98,4.97-4.91,5.39-13.46,1.53-19.16-3.03-4.29-8.49-6.14-13.51-4.58Z"/><path class="cls-1" d="M429.41,64.24c7.44-8.48,22.74-7.38,28.61,2.36,2.19,3.62,3.29,7.8,3.19,12.03v27.88h-11.59v-27.03c.09-2.53-.73-5-2.32-6.97-4.04-4.78-12.71-4.47-16.2,.79-1.42,2.01-1.74,4.53-1.7,6.94v26.24h-11.57V59.38h10.64l.94,4.86Z"/><path class="cls-1" d="M504.64,59.67c7.12-2.14,15.44-1.45,21.49,3.15,4.43,3.32,7.16,8.44,8.5,13.73h-11.53c-1.1-2.04-2.24-4.23-4.26-5.5-4.93-3.36-12.31-2.07-15.88,2.69-4.04,5.56-4,13.09,.09,18.6,3.68,4.79,11.31,5.98,16.17,2.36,1.92-1.4,2.91-3.63,3.88-5.71h11.52c-1.4,6.16-4.79,12.15-10.35,15.43-10.13,5.87-24.66,3.15-31.4-6.6-4.91-6.97-5.69-16.4-2.81-24.34,2.45-6.62,7.84-11.72,14.58-13.81h0Z"/><path class="cls-1" d="M549.72,60.7c6.85-3.15,15.32-3.04,21.87,.79,5.21,3.13,8.4,8.77,8.39,14.85,.06,10.07,0,20.12,0,30.19h-9.72c-.33-1.57-.65-3.21-.95-4.81-6.46,6.94-18.2,7.61-25.7,2.01-5.83-4.32-6.66-13.18-2.84-19.08,2.63-4.08,7.42-6.21,12.09-6.87,5.18-.68,10.43-.2,15.66-.35-.14-2.74-.57-5.78-2.8-7.66-4.41-3.93-12.53-1.86-14.04,4.03h-11.5c.9-5.55,4.34-10.71,9.54-13.08m1.41,28.1c-2.27,2.82-.98,7.67,2.56,8.75,4.6,1.52,10.59,.33,13.25-3.99,1.39-2.17,1.44-4.82,1.57-7.31-3.64,0-7.28-.11-10.91,0-2.34,.13-4.91,.64-6.47,2.52v.02Z"/><path class="cls-1" d="M216.39,65.42c8.23-8.49,23.09-9.32,32.08-1.57,6.6,5.41,9.35,14.54,7.82,22.8-11.74,0-23.48-.06-35.22,.05,.83,3.33,2.36,6.72,5.28,8.71,5.25,3.87,13.49,2.72,17.17-2.8h11.92c-2.24,6.23-7.14,11.13-13.37,13.37-8.15,2.79-17.9,1.43-24.46-4.33-10.25-8.86-10.69-26.55-1.22-36.23m8.53,6.29c-1.98,1.92-2.96,4.55-3.8,7.08h24.09c-.69-2.45-1.45-5.01-3.24-6.91-4.22-4.92-12.64-4.74-17.06-.19v.02Z"/><path class="cls-1" d="M287.97,66.25c8.04-9.23,23.59-10.4,32.85-2.41,6.6,5.42,9.35,14.55,7.86,22.8-11.74,0-23.48-.05-35.22,.05,.79,3.15,2.14,6.34,4.81,8.36,5.21,4.27,13.86,3.25,17.64-2.45h11.91c-2.14,6.02-6.77,10.82-12.71,13.17-8.27,3.1-18.33,1.8-25.06-4.09-10-8.69-10.72-25.63-2.04-35.48m8.57,6.29c-1.57,1.79-2.3,4.09-3.06,6.29h24.08c-.69-2.45-1.45-5-3.22-6.91-4.51-5.21-13.65-4.69-17.83,.63h.04Z"/><path class="cls-1" d="M469.97,59.45h11.59v47.08h-11.59c-.01-15.7-.01-31.39,0-47.08Z"/><path class="cls-1" d="M65.66,98.05c11.53-2.59,23.8,6.53,24.64,18.33,1.49,11.33-7.97,22.51-19.4,22.87-10.84,.98-21.23-7.94-22.02-18.79-1.23-10.38,6.53-20.67,16.77-22.42Z"/></svg>