<?xml version="1.0" encoding="UTF-8"?>
<svg id="Livello_1" data-name="Livello 1" xmlns="http://www.w3.org/2000/svg" viewBox="0 0 560 50.46">
  <defs>
    <style>
      .cls-1 {
        fill: #002e67;
      }
    </style>
  </defs>
  <path class="cls-1" d="m45.43,28.08c0,1.58-.29,3-.87,4.25-.58,1.25-1.38,2.32-2.38,3.22-1.01.9-2.18,1.64-3.5,2.24s-2.74,1.07-4.24,1.43c-1.5.35-3.08.6-4.74.74s-3.33.22-5.01.22c-2.37,0-4.71-.12-7.04-.37-2.33-.24-4.5-.54-6.53-.9-2.02-.36-3.83-.75-5.41-1.18-1.58-.43-2.8-.85-3.66-1.25-.55-.28-.97-.64-1.24-1.08-.27-.45-.41-.92-.41-1.42,0-.56.18-1.09.55-1.58.37-.5.92-.74,1.67-.74.3,0,.62.07.96.2.79.32,1.96.68,3.48,1.08,1.53.4,3.28.77,5.24,1.12,1.97.35,4.06.64,6.27.88,2.22.23,4.42.35,6.59.35s4.06-.13,5.91-.4c1.85-.27,3.43-.7,4.75-1.3s2.33-1.34,3.04-2.23c.71-.89,1.07-1.98,1.07-3.28,0-1.03-.28-1.87-.85-2.53-.56-.66-1.41-1.22-2.53-1.69s-2.5-.83-4.13-1.09c-1.63-.26-3.39-.46-5.28-.59-1.88-.14-3.84-.24-5.88-.31-2.03-.08-4.03-.21-5.98-.38-1.94-.18-3.81-.44-5.61-.78-1.79-.34-3.4-.87-4.83-1.56-1.43-.7-2.59-1.66-3.49-2.87-.9-1.21-1.35-2.72-1.35-4.53,0-1.6.3-3.01.91-4.25s1.43-2.3,2.46-3.17c1.04-.88,2.23-1.6,3.58-2.15s2.78-.99,4.31-1.3c1.53-.32,3.13-.54,4.78-.67,1.66-.14,3.31-.2,4.97-.2,2.06,0,4.08.09,6.06.28s3.85.44,5.6.76,3.33.68,4.74,1.07c1.42.39,2.58.8,3.47,1.23.46.22.79.53.99.93.21.39.31.79.31,1.18,0,.62-.22,1.21-.66,1.78-.44.56-1.07.84-1.89.84-.45,0-.83-.09-1.15-.26-1.04-.43-2.23-.83-3.58-1.2s-2.77-.67-4.29-.92c-1.51-.25-3.07-.45-4.69-.58s-3.22-.2-4.79-.2c-2.19,0-4.27.12-6.24.37-1.96.25-3.65.65-5.06,1.21-1.41.55-2.49,1.24-3.23,2.05-.74.81-1.11,1.82-1.11,3.02,0,.81.27,1.48.8,2.02.54.54,1.38,1.01,2.51,1.41,1.13.4,2.52.71,4.16.93,1.65.22,3.41.39,5.3.52,1.89.12,3.86.23,5.91.33s4.04.26,5.99.5c1.95.23,3.82.56,5.62.98s3.41,1.03,4.84,1.83c1.43.79,2.58,1.85,3.47,3.17.88,1.31,1.33,2.92,1.33,4.83Zm70.15-7.97c0,3.33-.51,6.27-1.53,8.81-1.01,2.54-2.59,4.65-4.72,6.34-2.12,1.69-4.76,2.94-7.9,3.75-3.14.81-6.82,1.21-11.04,1.21s-7.9-.4-11.05-1.21c-3.14-.81-5.77-2.05-7.89-3.75-2.11-1.69-3.68-3.8-4.7-6.34s-1.53-5.47-1.53-8.81.51-6.27,1.53-8.81,2.59-4.65,4.7-6.34c2.12-1.69,4.75-2.94,7.89-3.75,3.15-.81,6.83-1.21,11.05-1.21s7.9.4,11.04,1.21c3.15.81,5.78,2.05,7.9,3.75,2.13,1.69,3.7,3.81,4.72,6.35,1.02,2.54,1.53,5.47,1.53,8.8Zm-44.85,0c0,2.85.39,5.22,1.18,7.11s1.96,3.44,3.52,4.63,3.58,2.07,6.07,2.64c2.49.56,5.45.84,8.89.84s6.41-.28,8.89-.84c2.49-.56,4.52-1.44,6.09-2.64,1.57-1.19,2.75-2.74,3.53-4.63.78-1.89,1.18-4.26,1.18-7.11,0-2.82-.39-5.19-1.18-7.09-.78-1.91-1.95-3.45-3.53-4.65-1.57-1.19-3.6-2.07-6.09-2.63-2.49-.56-5.45-.84-8.89-.84s-6.41.28-8.89.84c-2.49.56-4.51,1.43-6.07,2.63s-2.73,2.74-3.52,4.65-1.18,4.27-1.18,7.09Zm91.01,11.06l18.95-28.47c.42-.66.9-1.16,1.43-1.5.54-.34,1.1-.52,1.7-.52.85,0,1.52.32,2.03.95.51.63.77,1.36.77,2.18v32.08c0,.78-.14,1.58-.42,2.41-.28.82-1.06,1.23-2.35,1.23-1.15,0-1.89-.41-2.23-1.22-.33-.81-.5-1.62-.5-2.43V11.6l-16.65,24.55c-.79,1.13-1.7,1.7-2.72,1.7-1.08,0-1.99-.57-2.73-1.72l-16.63-24.53v24.29c0,.81-.17,1.61-.51,2.43-.33.81-1.08,1.22-2.23,1.22-1.28,0-2.06-.41-2.35-1.23-.28-.83-.42-1.63-.42-2.41V3.8c0-.82.25-1.55.76-2.18.51-.63,1.19-.95,2.05-.95.57,0,1.12.17,1.65.52.53.34,1.02.83,1.47,1.48l18.95,28.49Zm84.91-1.16l9.54-26.66c.2-.51.48-1.08.85-1.72.36-.64.99-.96,1.9-.96s1.56.28,1.94.83c.38.55.57,1.09.57,1.62,0,.37-.05.72-.15,1.06-.1.33-.2.66-.32.99l-11.46,31.8c-.28.57-.59,1.15-.93,1.72-.34.56-.98.85-1.94.85s-1.6-.29-1.97-.87c-.37-.59-.65-1.18-.85-1.77l-9.52-26.45-9.46,26.45c-.22.62-.54,1.21-.96,1.78-.41.56-1.06.85-1.94.85-.94,0-1.59-.29-1.96-.87-.37-.58-.65-1.17-.86-1.76l-11.4-31.73c-.11-.29-.23-.61-.36-.94-.12-.33-.19-.7-.19-1.11,0-.54.2-1.08.59-1.63.4-.55,1.05-.82,1.95-.82.96,0,1.61.32,1.96.96.35.64.62,1.21.82,1.72l9.44,26.64,9.53-26.65c.2-.5.47-1.07.82-1.71.35-.64.99-.96,1.93-.96,1,0,1.69.29,2.05.87.37.58.67,1.19.9,1.83l9.46,26.63Zm22.89.89c0,.73.19,1.35.56,1.85.37.5.95.93,1.73,1.31.79.38,1.79.66,2.99.85,1.21.19,2.55.28,4.03.28,1.81,0,3.42-.13,4.81-.38,1.39-.26,2.6-.58,3.61-.96,1.02-.38,1.87-.79,2.54-1.23.68-.44,1.09-.72,1.23-.85v-4.71c-1.36-.19-3.18-.41-5.46-.68-2.28-.27-4.57-.41-6.86-.41-1.6,0-2.99.09-4.19.27-1.19.17-2.15.45-2.87.83s-1.26.86-1.61,1.45c-.34.59-.52,1.37-.52,2.35Zm12.39-14.92c-2.04,0-3.78.05-5.21.16s-2.65.24-3.65.41-1.84.34-2.52.52c-.67.18-1.33.39-1.99.63-.86,0-1.51-.28-1.97-.83-.46-.55-.68-1.15-.68-1.78,0-.85.38-1.47,1.15-1.85.24-.12.71-.28,1.41-.5s1.66-.43,2.86-.64,2.68-.4,4.44-.55c1.76-.16,3.82-.24,6.2-.24,1.17,0,2.33.08,3.49.23s2.28.43,3.36.85c1.08.41,2.09.98,3.04,1.73.96.74,1.77,1.7,2.44,2.87.68,1.16,1.2,2.53,1.57,4.11.38,1.57.57,3.4.57,5.47v9.33c0,.3-.02.63-.05.98-.03.36-.13.73-.3,1.12-.17.39-.45.75-.84,1.07-.38.32-.89.47-1.51.47-1.12,0-1.85-.41-2.18-1.23-.33-.82-.5-1.67-.5-2.54l1.02-1.2c.47.5.32,1.07-.46,1.72s-1.75,1.25-2.91,1.78c-1.16.53-2.52.96-4.09,1.29-1.57.33-3.4.5-5.5.5-1.96,0-3.82-.15-5.58-.44-1.75-.3-3.32-.79-4.7-1.48s-2.5-1.62-3.36-2.79-1.29-2.59-1.29-4.25c0-1.84.39-3.39,1.18-4.65.79-1.26,1.85-2.26,3.2-2.98,1.34-.73,2.85-1.24,4.53-1.51,1.69-.28,3.47-.42,5.36-.42,1.4,0,2.8.05,4.2.15,1.4.1,2.74.24,4.02.43,1.27.19,2.46.43,3.57.72,1.1.29,1.6.66,1.48,1.11-.45-1.23-.93-2.42-1.43-3.56-.5-1.14-1.14-2.02-1.94-2.63-.79-.61-1.74-1.02-2.86-1.24-1.11-.22-2.3-.33-3.58-.33Zm42.5-3.84c.59.17,1.02.48,1.29.93.27.45.41.9.41,1.37,0,.6-.21,1.17-.63,1.71-.42.54-1.04.8-1.85.8-.28,0-.43-.07-.46-.22-.03-.15-.11-.11-.25.12-.82-.23-1.59-.41-2.29-.52-.7-.12-1.47-.18-2.3-.18-1.18,0-2.29.11-3.34.34-1.04.22-1.97.55-2.78.99-.81.43-1.5.98-2.07,1.64-.57.65-.98,1.35-1.23,2.1v14.69c0,.7-.14,1.48-.41,2.35-.27.86-1.01,1.29-2.23,1.29-.6,0-1.1-.15-1.51-.44-.41-.29-.7-.64-.87-1.05-.16-.41-.26-.79-.29-1.15-.02-.36-.03-.69-.03-1.01V15.15c0-.71.17-1.42.52-2.13.34-.71,1.12-1.07,2.32-1.07,1.09,0,1.78.36,2.07,1.07.29.72.44,1.42.44,2.12l-1.38,3.75c-.47-1.8-.21-3.19.79-4.15,1.01-.97,2.1-1.7,3.28-2.21,1.18-.5,2.37-.83,3.57-1,1.19-.16,2.25-.25,3.15-.25.86,0,1.6.03,2.24.08.64.06,1.19.13,1.66.21.47.08.87.17,1.22.27.35.09.68.18.99.26Zm20.01,3.84c-1.91,0-3.58.16-5,.47-1.41.32-2.58.8-3.51,1.45-.92.65-1.63,1.48-2.14,2.5-.51,1.01-.77,1.82-.8,2.42h21.6v-.37c0-.9-.16-1.72-.47-2.48s-.85-1.42-1.59-2c-.74-.59-1.77-1.06-3.09-1.43-1.32-.37-2.98-.56-5-.56Zm-1.69,19.22c1.98,0,3.7-.12,5.16-.37s2.7-.54,3.73-.88c1.03-.34,1.87-.69,2.52-1.05.65-.36,1.2-.69,1.66-1,.38-.14.68-.2.88-.2.65,0,1.2.26,1.66.77.46.51.69,1.07.69,1.68,0,.72-.27,1.27-.82,1.65-.2.2-.67.54-1.39,1.01-.72.46-1.72.92-2.99,1.37s-2.82.85-4.65,1.18-3.98.51-6.46.51c-2.67,0-4.96-.34-6.89-1.03-1.92-.69-3.51-1.67-4.77-2.95-1.25-1.28-2.15-2.79-2.71-4.54-.55-1.75-.82-3.63-.82-5.66,0-2.71.45-5,1.34-6.86.9-1.87,2.13-3.36,3.69-4.49s3.36-1.91,5.39-2.35c2.03-.45,4.19-.67,6.48-.67,4.8,0,8.47.98,11.02,2.93,2.54,1.95,3.81,4.75,3.81,8.4,0,.36-.03.75-.08,1.17-.05.42-.12.83-.21,1.23-.09.39-.25.87-.48,1.41-.23.54-.69.81-1.39.81h-9.54l-14.65-.3c.02.91.24,1.97.67,3.19s1.03,2.19,1.8,2.91c.78.72,1.77,1.26,2.98,1.61,1.22.35,2.68.52,4.38.52Zm20.5,1.29c0-1,.32-1.83.96-2.49.65-.67,1.48-1,2.49-1,.94,0,1.76.32,2.46.97.7.64,1.06,1.48,1.06,2.51,0,1.02-.36,1.84-1.07,2.46-.71.61-1.53.92-2.45.92-1,0-1.82-.32-2.48-.95-.65-.63-.98-1.44-.98-2.43Zm39.24-5.09c0-.69-.28-1.25-.83-1.68-.55-.43-1.41-.77-2.6-1.03s-2.61-.43-4.26-.5-3.36-.14-5.13-.19c-1.77-.06-3.54-.16-5.3-.3s-3.39-.47-4.88-.96c-1.48-.5-2.73-1.27-3.75-2.31-1.02-1.05-1.53-2.48-1.53-4.3s.5-3.32,1.49-4.48c.99-1.17,2.22-2.06,3.69-2.69,1.48-.63,3.09-1.06,4.84-1.29,1.76-.23,3.53-.35,5.32-.35,2.91,0,5.65.24,8.2.73,2.56.48,4.94,1.31,7.14,2.48.5.24.83.55,1.01.93s.29.76.32,1.13c0,.65-.21,1.23-.62,1.74s-.94.77-1.6.77c-.47,0-.7-.27-.68-.82-1.88-.47-3.93-.97-6.15-1.5-2.22-.53-4.72-.79-7.51-.79-1.4,0-2.76.09-4.06.26-1.3.17-2.4.44-3.32.8s-1.61.79-2.06,1.29c-.45.49-.68,1.08-.68,1.78,0,.61.27,1.12.8,1.5.54.38,1.41.7,2.6.94s2.62.39,4.28.46,3.37.13,5.15.19c1.78.06,3.55.18,5.31.36,1.76.17,3.39.52,4.88,1.04,1.49.52,2.74,1.32,3.75,2.41s1.51,2.55,1.51,4.38c0,1.67-.5,3.07-1.51,4.18s-2.27,1.98-3.79,2.6c-1.51.61-3.2,1.04-5.07,1.3s-3.79.39-5.75.39c-1.18,0-2.47-.03-3.86-.08-1.39-.05-2.79-.18-4.2-.4-1.41-.22-2.8-.56-4.16-1.01-1.35-.46-2.56-1.11-3.61-1.94-.65-.52-.98-1.16-.98-1.93,0-.6.2-1.16.6-1.66.4-.51.94-.76,1.62-.76.57,0,1.01.15,1.29.46.73.5,1.58.93,2.53,1.29.96.36,1.99.63,3.09.84,1.1.2,2.27.34,3.5.41,1.23.07,2.52.11,3.86.11,1.57,0,3.06-.08,4.49-.23s2.64-.4,3.65-.75c1.01-.35,1.76-.75,2.23-1.21.48-.46.72-.99.72-1.61Zm29.87-20.08c2.05,0,4.02.22,5.9.65,1.88.43,3.56,1.2,5.04,2.3,1.48,1.09,2.64,2.55,3.5,4.37.86,1.81,1.29,4.05,1.29,6.7,0,2.59-.36,4.81-1.07,6.68-.71,1.87-1.76,3.39-3.15,4.57-1.39,1.18-3.05,2.02-5,2.53-1.94.5-4.11.75-6.52.75-1.82,0-3.5-.11-5.03-.33-1.53-.23-2.92-.51-4.18-.86-1.26-.36-2.38-.75-3.38-1.18-1-.43-1.41-.84-1.25-1.23l.57,10.54c0,.3,0,.63-.02.98-.01.36-.1.74-.26,1.15-.16.41-.44.76-.82,1.07-.38.3-.9.46-1.54.46s-1.19-.17-1.57-.5c-.38-.33-.65-.69-.8-1.1-.15-.41-.24-.8-.25-1.18-.01-.37-.02-.73-.02-1.07V14.92c0-1.17.28-1.95.85-2.36.57-.41,1.16-.61,1.76-.61.7,0,1.31.21,1.82.64.51.43.76,1.2.76,2.32l-1.38,4.28c-.56-1.37-.47-2.46.27-3.27.75-.82,1.6-1.5,2.54-2.04.95-.55,1.95-.99,3.01-1.33,1.06-.34,2.12-.6,3.17-.78,1.06-.19,2.09-.31,3.08-.38.99-.07,1.88-.1,2.67-.1Zm0,4.67c-1.24.02-2.59.12-4.06.3-1.46.17-2.84.48-4.13.92-1.29.43-2.38,1-3.28,1.71-.9.7-1.48,1.52-1.75,2.48v11.29c.32.12.99.35,2.03.7,1.04.34,2.15.65,3.31.92,1.17.27,2.41.49,3.72.66,1.31.16,2.69.25,4.14.25,1.94,0,3.57-.19,4.88-.57,1.31-.38,2.36-.96,3.15-1.72.79-.76,1.38-1.76,1.77-2.99.39-1.23.58-2.76.58-4.59,0-1.83-.26-3.34-.79-4.53-.52-1.19-1.23-2.13-2.13-2.82-.89-.69-1.98-1.2-3.27-1.52-1.29-.32-2.68-.48-4.18-.48Zm26.64,14.92c0,.73.19,1.35.56,1.85.37.5.95.93,1.73,1.31.79.38,1.79.66,2.99.85,1.21.19,2.55.28,4.03.28,1.81,0,3.42-.13,4.81-.38,1.39-.26,2.6-.58,3.61-.96,1.02-.38,1.87-.79,2.54-1.23.68-.44,1.09-.72,1.23-.85v-4.71c-1.36-.19-3.18-.41-5.46-.68-2.28-.27-4.57-.41-6.86-.41-1.6,0-2.99.09-4.19.27-1.19.17-2.15.45-2.87.83-.72.38-1.26.86-1.61,1.45-.34.59-.52,1.37-.52,2.35Zm12.39-14.92c-2.04,0-3.78.05-5.21.16-1.43.11-2.65.24-3.65.41-1,.16-1.84.34-2.52.52-.67.18-1.33.39-1.99.63-.86,0-1.51-.28-1.97-.83s-.68-1.15-.68-1.78c0-.85.38-1.47,1.15-1.85.24-.12.71-.28,1.41-.5.7-.21,1.66-.43,2.86-.64s2.68-.4,4.44-.55c1.76-.16,3.82-.24,6.2-.24,1.17,0,2.33.08,3.49.23,1.16.15,2.28.43,3.36.85,1.08.41,2.09.98,3.04,1.73.96.74,1.77,1.7,2.44,2.87.68,1.16,1.2,2.53,1.57,4.11.38,1.57.57,3.4.57,5.47v9.33c0,.3-.02.63-.05.98-.03.36-.13.73-.3,1.12-.17.39-.45.75-.84,1.07-.38.32-.89.47-1.51.47-1.12,0-1.85-.41-2.18-1.23-.33-.82-.5-1.67-.5-2.54l1.02-1.2c.47.5.32,1.07-.46,1.72s-1.75,1.25-2.91,1.78c-1.16.53-2.52.96-4.09,1.29-1.57.33-3.4.5-5.5.5-1.96,0-3.82-.15-5.58-.44-1.75-.3-3.32-.79-4.7-1.48-1.38-.69-2.5-1.62-3.36-2.79-.86-1.17-1.29-2.59-1.29-4.25,0-1.84.39-3.39,1.18-4.65.79-1.26,1.85-2.26,3.2-2.98,1.34-.73,2.85-1.24,4.53-1.51,1.69-.28,3.47-.42,5.36-.42,1.4,0,2.8.05,4.2.15,1.4.1,2.74.24,4.02.43,1.27.19,2.46.43,3.57.72,1.1.29,1.6.66,1.48,1.11-.45-1.23-.93-2.42-1.43-3.56-.5-1.14-1.14-2.02-1.94-2.63-.79-.61-1.74-1.02-2.86-1.24-1.11-.22-2.3-.33-3.58-.33Zm38.24,0c-2.38,0-4.37.19-5.97.57-1.6.37-2.86.94-3.79,1.69-.93.75-1.62,1.73-2.06,2.93s-.67,2.71-.67,4.51.24,3.31.73,4.49c.49,1.18,1.22,2.13,2.2,2.87.98.73,2.26,1.27,3.84,1.62,1.58.36,3.48.53,5.69.53.98,0,1.97-.07,2.98-.21,1.02-.14,2-.32,2.93-.54s1.78-.46,2.54-.73c.77-.26,1.42-.53,1.94-.79.53-.17.93-.26,1.21-.26.66,0,1.2.22,1.63.65.43.43.65.95.65,1.57,0,.42-.12.84-.36,1.24-.24.4-.59.73-1.07.98-2.02,1.04-4.11,1.76-6.25,2.16-2.14.39-4.2.59-6.18.59-2.55,0-4.91-.21-7.07-.62-2.15-.42-4.04-1.17-5.65-2.27s-2.87-2.56-3.77-4.4c-.9-1.85-1.35-4.15-1.35-6.89s.41-4.98,1.23-6.85c.83-1.87,2.03-3.37,3.62-4.51,1.59-1.13,3.47-1.92,5.66-2.36s4.62-.66,7.33-.66c1.98,0,4.04.2,6.18.6,2.14.39,4.23,1.11,6.26,2.16.47.25.83.58,1.07.99.24.4.36.81.36,1.23,0,.62-.22,1.14-.65,1.57s-.98.64-1.63.64c-.28,0-.68-.09-1.21-.26-.52-.26-1.17-.52-1.94-.78-.77-.26-1.61-.51-2.54-.73s-1.91-.4-2.93-.54c-1.02-.15-2-.22-2.95-.22Zm35.52,0c-1.91,0-3.58.16-5,.47-1.41.32-2.58.8-3.51,1.45-.92.65-1.63,1.48-2.14,2.5-.51,1.01-.77,1.82-.8,2.42h21.6v-.37c0-.9-.16-1.72-.47-2.48s-.85-1.42-1.59-2c-.74-.59-1.77-1.06-3.09-1.43-1.32-.37-2.98-.56-5-.56Zm-1.69,19.22c1.98,0,3.7-.12,5.16-.37s2.7-.54,3.73-.88c1.03-.34,1.87-.69,2.52-1.05.65-.36,1.2-.69,1.66-1,.38-.14.68-.2.88-.2.65,0,1.2.26,1.66.77.46.51.69,1.07.69,1.68,0,.72-.27,1.27-.82,1.65-.2.2-.67.54-1.39,1.01-.72.46-1.72.92-2.99,1.37s-2.82.85-4.65,1.18-3.98.51-6.46.51c-2.67,0-4.96-.34-6.89-1.03-1.92-.69-3.51-1.67-4.77-2.95-1.25-1.28-2.15-2.79-2.71-4.54-.55-1.75-.82-3.63-.82-5.66,0-2.71.45-5,1.34-6.86.9-1.87,2.13-3.36,3.69-4.49s3.36-1.91,5.39-2.35c2.03-.45,4.19-.67,6.48-.67,4.8,0,8.47.98,11.02,2.93,2.54,1.95,3.81,4.75,3.81,8.4,0,.36-.03.75-.08,1.17s-.12.83-.21,1.23c-.09.39-.25.87-.48,1.41-.23.54-.69.81-1.39.81h-9.54l-14.65-.3c.02.91.24,1.97.67,3.19s1.03,2.19,1.8,2.91c.78.72,1.77,1.26,2.98,1.61,1.22.35,2.68.52,4.38.52Z"/>
</svg>