<?xml version="1.0" encoding="UTF-8"?><svg id="logo_SnifferBike" xmlns="http://www.w3.org/2000/svg" viewBox="0 0 636.19 156.07"><defs><style>.cls-1{fill:#1290c6;}.cls-2{fill:#2d2d2d;}.cls-3{fill:#515150;}</style></defs><g><path class="cls-1" d="M55.49,140.97s3.67,8.83,8.98,4.69c4.25-3.31,3.46-8.02,2.98-9.78-.02-.07-.04-.14-.06-.2-.09-.31-.17-.5-.17-.5h.02c-.52-2.04-.85-4.12-.94-6.22-.99-21.44,3.65-41.57,13.88-60.32l-.04,.03s3.48-5.05-1.61-8.55c-4.89-3.37-9.37,2.49-9.72,2.95-4.95,7.85-9.77,18.87-12.97,34.27-4.38,21.04-3.36,34.78-.35,43.63Z"/><path class="cls-3" d="M158.86,66.23c-.49-4.41-1.63-8.66-3.85-12.55-3.5-6.14-9.51-7.35-15.1-3.01-.71,.55-1.38,1.16-2.69,2.27,2.31-9.87,4.48-18.96,6.53-28.07,.66-2.93,1.04-5.76,5.11-5.78,1.49-.01,2.66-1.34,2.74-3.02,.07-1.6-1.09-2.4-2.37-3.08-1.51-.8-3.2-.91-4.82-1.06-3.55-.33-7.15-.8-10.64,.43-1.16,.41-2.19,1.17-2.06,2.6,.12,1.26,.83,2.25,2.04,2.73,.59,.23,1.27,.2,1.87,.42,1.18,.44,3.39-.19,2.81,2.29-.45,1.92-.29,4.38-3.62,3.98-8.28-1.01-16.58-1.87-24.88-2.74-1.51-.16-1.88-.77-1.46-2.18,.81-2.73,1.62-5.46,2.24-8.23,.37-1.63,1.23-1.81,2.59-1.45,2.48,.65,4.98,1.27,7.47,1.9,1.77,.45,3.69,.84,4.43-1.35,.78-2.3-.92-3.38-2.81-3.95C108.41,2.17,94.24-.67,79.55,.14c-1.09,.06-2.21,.24-3.24,.58-1.78,.58-2.73,1.94-2.45,3.8,.27,1.81,1.53,2.63,3.36,2.53,1.47-.08,2.95-.05,4.4-.23,6.81-.83,13.55,.05,20.29,.85,1.77,.21,2.22,1.13,1.72,2.9-2.82,10.08-5.57,20.17-8.29,30.28-.38,1.4-1,2.16-2.55,2.39-1.5,.22-2.9,.68-4.22,1.32h0s-1.32,.43-3.44,1.68c-.2,.14-7.51,5.06-3.57,9.64,3.09,3.59,6.86,1.41,8.96,.05,.33-.24,.67-.47,1.05-.67,.12-.07,.23-.13,.32-.16h0c.59-.27,1.26-.48,2.08-.55-1.64,5.56-3.18,10.81-4.72,16.05-2.68,9.07-5.36,18.13-8.03,27.2-.34,1.14-.72,2.29-.89,3.46-.32,2.18,.54,3.86,2.69,4.52,2.2,.68,3.75-.39,4.67-2.36,.46-.99,.75-2.07,1.06-3.12,3.94-13.38,7.87-26.77,11.82-40.15,.1-.34,.3-.66,.59-1.27,1.83,3.39,2.56,6.87,2.78,10.37,1.34,21.74-3.6,42.11-13.77,61.26-2.51,4.73-5.65,9.05-10.03,12.29-1.9,1.41-3.64,2.1-5.21,2.1h-.03c-.2,0-.4,0-.6-.03-1.44-.02-4.97,.34-6.23,4.18-1.59,4.87,1.09,7.65,6.85,6.91,1.34-.3,2.71-.8,4.09-1.53,2.3-1.2,4.31-2.79,6.18-4.57,4.99-4.75,8.71-10.41,11.88-16.47,8.67-16.6,13.13-34.36,14.51-53.63,1.06,5.3,2.02,9.96,2.92,14.62,.47,2.44,1.35,4.45,4.26,4.55,1.28,.04,1.18,.81,1.06,1.71-.82,6.3-1.01,12.62-.35,18.94,.59,5.6,1.57,11.13,4.7,15.97,3.61,5.58,9.08,6.48,14.41,2.47,2.23-1.68,4.05-3.75,5.61-6.03,0,0,4.63-7.15,7.23-13.37,6.53-16.87,9.49-34.27,7.46-52.38m-36.45,19.89c-.41,1.67-.83,3.34-1.24,5.01-.28,.01-.55,.02-.83,.03-.92-4.63-1.87-9.26-2.75-13.9-2.86-15.03-5.65-30.08-8.6-45.09-.46-2.37,.01-3.21,2.47-3.08,7.42,.4,14.83,.77,22.26,.99,2.83,.08,1.97,1.7,1.62,3.14-4.29,17.63-8.61,35.26-12.92,52.89m26.33,24.08c-1.98,6.43-4.48,12.65-8.54,18.1-.93,1.24-1.98,2.43-3.15,3.44-1.04,.9-2.03,1.44-2.96,1.65-1,.15-10.82,.67-4.82-35.32,.26-.04,.54-.06,.85-.07,4.49-.18,8.97-.59,13.44-.96,1.72-.14,3.17-.88,3.06-2.83-.11-2.1-1.72-2.6-3.55-2.59-2.11,0-4.23,0-6.34,0v.03c-2.02,0-4.05-.1-6.06,.03-.08,0-.15,0-.23,0,4.88-24.48,12.39-35.42,16.73-35.8,1.31,.11,2.47,1.05,3.55,2.84,1.79,2.97,2.47,6.32,2.87,9.7,1.68,14.3-.63,28.16-4.84,41.78"/><path class="cls-1" d="M29.35,142.94s3.94,10.59,10.15,5.83c4.97-3.81,4.21-9.43,3.71-11.53-.02-.08-.04-.16-.06-.24-.1-.37-.17-.6-.17-.6h.03c-.54-2.44-.85-4.92-.89-7.41-.49-25.49,5.44-49.26,17.73-71.22l-.04,.04s4.14-5.9-1.59-10.2c-5.51-4.14-10.82,2.68-11.23,3.22-5.92,9.18-11.77,22.13-15.9,40.32-5.65,24.85-4.91,41.2-1.72,51.8h0Z"/><path class="cls-1" d="M2.29,146.46s2.72,7.88,10.64,5.96c5.81-1.41,2.93-27.18,4.2-40.77,2.62-28.04,7.03-46.99,23.15-72.45l-.04,.04s4.24-6.19-1.78-10.61c-5.78-4.25-11.24,2.91-11.65,3.48-6.06,9.63-19.25,34.78-23.32,60.39-4.17,26.22-4.63,42.97-1.2,53.97h0Z"/></g><g><path class="cls-1" d="M190.71,106.03c3.59,3.59,9.12,6.58,15.92,6.58,4.41,0,7.1-1.87,7.1-4.26,0-2.84-3.21-3.96-8.52-5.08-8.22-1.65-19.73-3.74-19.73-15.54,0-8.37,7.1-15.62,19.88-15.62,8,0,14.94,2.39,20.25,6.95l-7.02,9.19c-4.19-3.44-9.64-5.16-14.05-5.16s-5.9,1.72-5.9,3.88c0,2.62,3.06,3.51,8.59,4.56,8.22,1.72,19.58,4.11,19.58,15.39,0,10.01-7.4,16.66-20.77,16.66-10.09,0-17.11-3.14-22.12-7.92l6.8-9.64Z"/><path class="cls-1" d="M245.62,92.58v30.11h-12.85v-49.84h13.23l20.18,28.69v-28.69h12.92v49.84h-12.4l-21.07-30.11Z"/><path class="cls-1" d="M288.05,72.85h12.85v49.84h-12.85v-49.84Z"/><path class="cls-1" d="M309.86,72.85h36.54v10.83h-23.69v8.29h23.17v10.91h-23.17v19.8h-12.85v-49.84Z"/><path class="cls-1" d="M353.34,72.85h36.54v10.83h-23.69v8.29h23.17v10.91h-23.17v19.8h-12.85v-49.84Z"/><path class="cls-1" d="M396.81,72.85h36.54v10.83h-23.69v8.29h23.17v10.91h-23.17v8.97h23.69v10.83h-36.54v-49.84Z"/><path class="cls-1" d="M460.24,105.81h-6.58v16.89h-12.85v-49.84h24.96c11.06,0,17.33,7.32,17.33,16.59,0,8.67-5.3,13.3-9.94,14.94l10.16,18.31h-14.72l-8.37-16.89Zm3.59-22.12h-10.16v11.21h10.16c3.36,0,6.2-2.17,6.2-5.61s-2.84-5.6-6.2-5.6Z"/></g><g><path class="cls-2" d="M498.28,72.96h19.21c6.72,0,12.33,4.41,12.33,11.28s-5.38,12.78-11.58,13.45c4.11,1.12,7.25,5.61,7.25,10.31,0,7.55-5.38,14.8-16.89,14.8h-21.3l10.98-49.84Zm13.68,26.23h-15.17l-4.41,19.73h16.44c7.99,0,12.25-5.53,12.25-11.13,0-4.86-3.36-8.59-9.12-8.59Zm4.48-22.34h-14.72l-4.04,18.46h16.29c8.29,0,11.13-5.61,11.13-10.61,0-4.48-3.81-7.85-8.67-7.85Z"/><path class="cls-2" d="M544.15,72.96h4.26l-10.98,49.84h-4.26l10.98-49.84Z"/><path class="cls-2" d="M564.99,99.04l-7.02,6.35-3.88,17.41h-4.26l10.98-49.84h4.26l-5.9,26.75,29.59-26.75h5.83l-26.45,23.76,17.48,26.08h-5.08l-15.54-23.76Z"/><path class="cls-2" d="M604.59,72.96h31.61l-.82,3.88h-27.35l-4.04,18.46h26.75l-.9,3.88h-26.75l-4.41,19.73h27.27l-.75,3.88h-31.61l10.98-49.84Z"/></g></svg>