<?xml version="1.0" encoding="UTF-8"?><svg id="logo_LahakX" xmlns="http://www.w3.org/2000/svg" viewBox="0 0 560 233.91"><defs><style>.cls-1{fill:#012f54;}.cls-2{fill:#8ebe3e;}</style></defs><g><g><path class="cls-1" d="M119.19,176.91h10.14v47.82h24.23v9.18h-34.38v-57Z"/><path class="cls-1" d="M179.41,176.91h8.78l24.56,57h-11.59l-5.31-13.04h-24.72l-5.15,13.04h-11.35l24.8-57Zm12.88,35.26l-8.78-23.19-8.94,23.19h17.71Z"/><path class="cls-1" d="M219.1,176.91h10.14v22.7h26.65v-22.7h10.14v57h-10.14v-25.12h-26.65v25.12h-10.14v-57Z"/><path class="cls-1" d="M297.19,176.91h8.78l24.55,57h-11.59l-5.31-13.04h-24.72l-5.15,13.04h-11.35l24.8-57Zm12.88,35.26l-8.78-23.19-8.94,23.19h17.71Z"/><path class="cls-1" d="M336.88,176.91h10.14v24.15h.48l23.59-24.15h13.69l-26.65,26.33,28.42,30.67h-14.25l-24.72-28.02h-.56v28.02h-10.14v-57Z"/><path class="cls-2" d="M405.95,204.12l-19-27.21h12.8l13.44,21.09,13.28-21.09h12.32l-18.68,27.21,20.69,29.79h-12.88l-15.05-24.07-14.98,24.07h-12.24l20.29-29.79Z"/></g><g><path class="cls-2" d="M280.2,44.29c1.64,8.63,5.39,16.36,9.4,23.97,5.55,10.54,11.89,20.6,18.5,30.49,1.47,2.2,3.15,4.27,4.52,6.53,2.79,4.58,4.48,9.56,5.03,14.92,1.32,12.95-2.83,23.85-12.41,32.61-5.27,4.82-11.53,7.72-18.59,8.93-7.68,1.32-15.07,.36-22.14-2.87-7.68-3.51-13.53-9.02-17.53-16.47-2.51-4.68-3.94-9.66-4.33-14.98-.68-9.28,1.8-17.59,7.12-25.17,3.35-4.78,6.6-9.63,9.74-14.55,5.7-8.94,11-18.11,15.45-27.75,2.11-4.57,3.99-9.22,4.98-14.19,.09-.46,.16-.92,.26-1.47Zm-.25,109.1l.1-.32c-.8-.27-1.6-.54-2.4-.82-4.73-1.63-8.91-4.12-12.23-7.92-2.21-2.53-4.45-5.06-5-8.54-.26-1.64-.37-3.31-.53-4.97-.11-1.13-.07-2.27-.28-3.38-.52-2.7-3.51-4.53-6-3.76-2.23,.69-3.53,3.06-3.13,5.54,.86,5.29,3.24,9.76,6.99,13.59,4.63,4.73,9.88,8.36,16.46,9.77,1.99,.43,3.98,.93,6.03,.8Z"/><g><path class="cls-1" d="M265.5,43.91c-12.6-.18-25.2-.33-37.8-.55-4.65-.08-9.3-.24-13.94-.47-6.91-.34-13.82-.76-20.73-1.19-5.34-.33-10.69-.66-16.02-1.12-7.49-.65-14.97-1.34-22.44-2.15-8.49-.93-16.98-1.85-25.44-3.06-9.89-1.41-19.76-3.03-29.61-4.74-15.98-2.77-31.79-6.38-47.39-10.81C36.1,15.27,20.41,9.77,5.34,2.61,3.64,1.81,1.96,.96,0,0,.24,1.47,.38,2.7,.63,3.9c1.75,8.44,4.94,16.33,9.2,23.79,6.96,12.21,16.25,22.36,27.41,30.84,12.35,9.39,26.09,16.1,40.72,21.09,16.66,5.69,33.85,8.86,51.31,10.66,8.77,.91,17.57,1.42,26.38,1.52,8.27,.1,16.55-.06,24.82-.3,6.04-.17,12.07-.65,18.32-1-.33,.75-.61,1.33-.84,1.93-3.13,8.1-1.94,15.49,3.77,22.07,3.06,3.53,6.87,6.08,10.97,8.22,5.45,2.83,11.22,4.79,17.15,6.32,.34,.09,.69,.12,1.07,.18,.02-.3,.06-.46,.03-.6-1.24-5.63-.34-11.01,2.18-16.07,1.9-3.82,4.05-7.52,6.31-11.14,4.99-7.98,10.17-15.83,15.16-23.81,4.59-7.34,8.78-14.9,11.91-23.01,1.32-3.42,2.43-6.91,3.11-10.69-1.44,0-2.78,.02-4.11,0Z"/><path class="cls-1" d="M55.3,82.58s.05,.01,.07,.02l-.04-.05-.03,.03Z"/><path class="cls-1" d="M193.1,122.77c-5.4-5.66-8.5-12.31-8.35-20.29,0-.41-.05-.83-.08-1.33-.47,0-.83-.02-1.2,0-3.99,.21-7.99,.45-11.98,.64-8.75,.41-17.5,.66-26.26,.39-7.14-.22-14.27-.49-21.35-1.42-6.91-.9-13.83-1.78-20.67-3.09-16.08-3.08-31.6-8-46.56-14.68-.41-.18-.87-.26-1.3-.38,1.22,1.47,2.37,3,3.68,4.39,7.47,7.94,15.7,15.02,24.55,21.39,16.41,11.83,34.26,20.75,53.7,26.4,10.61,3.09,21.43,5.07,32.46,5.96,6.69,.54,13.39,.71,20.09,.47,8.11-.3,16.17-1.17,24.16-2.55,2.3-.4,4.58-.88,6.86-1.32-.88-.49-1.77-.67-2.64-.89-9.58-2.35-18.23-6.45-25.13-13.69Z"/></g><g><path class="cls-1" d="M558.25,.85c-10.35,5.2-21.09,9.48-32.04,13.24-14.48,4.97-29.24,8.9-44.17,12.24-14.03,3.14-28.17,5.7-42.39,7.79-8.55,1.25-17.13,2.37-25.72,3.36-9.18,1.06-18.38,1.97-27.59,2.82-6.51,.6-13.04,1.02-19.57,1.42-9.06,.55-18.13,1.07-27.2,1.46-7.62,.33-15.24,.53-22.86,.65-7.68,.12-15.37,.06-23.05,.09-1.02,0-2.03,0-3.23,0,.07,.47,.09,.74,.15,1,.89,4.19,2.27,8.22,3.93,12.16,3.29,7.8,7.46,15.12,11.97,22.26,4.9,7.77,9.95,15.46,14.83,23.25,1.95,3.11,3.77,6.32,5.42,9.6,2.3,4.58,3.37,9.45,2.67,14.61-.11,.78-.23,1.56-.36,2.39,.28,.02,.44,.08,.58,.04,6.61-1.71,13.05-3.88,19.05-7.2,3.67-2.03,7.02-4.49,9.77-7.68,4.56-5.3,6.33-11.36,4.72-18.24-.44-1.87-1.16-3.68-1.77-5.6,1.44,.08,2.88,.17,4.33,.24,7.83,.38,15.65,.87,23.49,1.08,5.73,.16,11.46,.01,17.19-.13,4.97-.12,9.94-.38,14.9-.66,7.99-.46,15.93-1.38,23.85-2.58,9.74-1.48,19.35-3.5,28.8-6.26,14.23-4.15,27.81-9.79,40.36-17.77,11.81-7.51,22.09-16.67,30.29-28.06,7.13-9.89,12.31-20.69,14.82-32.68,.23-1.12,.36-2.27,.57-3.64-.78,.37-1.27,.58-1.75,.82Z"/><path class="cls-1" d="M480.49,91.64c-17.5,5.54-35.45,8.76-53.74,10-9.12,.62-18.25,.92-27.4,.51-7.56-.34-15.12-.66-22.68-.99-.45-.02-.91,0-1.17,0-.29,2.66-.35,5.11-.84,7.47-1.44,6.96-5.39,12.43-10.7,16.97-6.46,5.53-14.01,8.9-22.22,10.86-.87,.21-1.74,.42-2.93,.7,.49,.16,.63,.23,.78,.26,9.97,2.1,20.04,3.37,30.21,3.79,11.66,.47,23.25-.26,34.74-2.23,16.41-2.81,32.06-8,46.93-15.46,17.84-8.96,33.82-20.5,47.82-34.75,1.91-1.94,3.6-4.09,5.39-6.15-.53,.17-1.08,.29-1.59,.52-7.38,3.24-14.91,6.08-22.59,8.52Z"/><path class="cls-1" d="M504.71,82.56l-.04,.05s.05-.01,.07-.02l-.03-.03Z"/></g></g></g><path d="M112.01,90.31l-.09-.04,.06,.07,.02-.02Z"/><path d="M444.17,90.34l-.02-.02,.02,.02Z"/></svg>