<?xml version="1.0" encoding="UTF-8"?><svg id="logo_Carto" xmlns="http://www.w3.org/2000/svg" viewBox="0 0 560 219.88"><defs><style>.cls-1,.cls-2{fill:#162945;}.cls-3{fill:rgba(22,41,69,.1);}.cls-3,.cls-2{fill-rule:evenodd;}</style></defs><path id="Symbol" class="cls-3" d="M450.06,219.88c60.72,0,109.94-49.22,109.94-109.94S510.78,0,450.06,0s-109.94,49.22-109.94,109.94,49.22,109.94,109.94,109.94Z"/><circle class="cls-1" cx="450.06" cy="109.94" r="37.79"/><path id="_Tracciato_composto_" class="cls-2" d="M336.31,146.17h19.4v-54.75h21.01v-17.56h-61.32v17.56h20.91v54.75Z"/><path class="cls-2" d="M264.02,120.96c8.7-3.82,14.4-11.16,14.4-22.31v-.21c0-7.13-2.1-12.6-6.2-16.84-4.7-4.85-12.1-7.75-22.81-7.75h-33.11v72.31h19.4v-21.9h8.6l14.1,21.9h22.31l-16.7-25.2Zm-5-20.97c0,5.27-3.9,8.57-10.4,8.57h-12.9v-17.46h12.8c6.4,0,10.5,2.89,10.5,8.68v.21Z"/><path class="cls-2" d="M148.71,73.34h-18.7l-29.71,72.82h20.3l5-13.02h27.11l5,13.02h20.81l-29.81-72.82Zm-17.4,44.21l7.9-20.45,7.8,20.45h-15.7Z"/><path class="cls-2" d="M36.11,147.61c15.4,0,24.31-6.92,30.91-16.32l-14.6-10.74c-4.2,5.27-8.5,8.78-15.8,8.78-9.8,0-16.7-8.47-16.7-19.32v-.21c0-10.54,6.9-19.21,16.7-19.21,6.7,0,11.3,3.41,15.3,8.47l14.6-11.67c-6.2-8.78-15.4-14.98-29.71-14.98C15.6,72.41,0,88.94,0,110.01v.21c0,21.59,16.1,37.39,36.11,37.39h0Z"/></svg>