<?xml version="1.0" encoding="UTF-8"?><svg id="logo_Yggio" xmlns="http://www.w3.org/2000/svg" viewBox="0 0 560 142.69"><defs><style>.cls-1{fill:#01676c;}</style></defs><path class="cls-1" d="M517.64,26.18c-25.8,0-42.5,19.58-42.5,45.24s16.7,45.09,42.5,45.09,42.36-19.73,42.36-45.09-16.41-45.24-42.36-45.24Zm0,82.57c-21.19,0-34.01-17.01-34.01-37.34s12.82-37.47,34.01-37.47,34.16,17.01,34.16,37.47-12.97,37.34-34.16,37.34Z"/><rect class="cls-1" x="448.2" y="28.06" width="8.2" height="86.44"/><path class="cls-1" d="M391.5,75.45h32.28v1.59c-.14,19.32-12.25,31.72-29.98,31.72-21.48,0-34.01-17.02-34.01-37.34s12.82-37.47,34.45-37.47c16.72,0,25.66,9.95,25.66,9.95l4.76-6.2s-9.51-11.51-30.41-11.51c-26.09,0-42.93,19.59-42.93,45.24s16.41,45.09,42.5,45.09c23.93,0,38.18-16.7,38.18-43.08v-5.61h-40.48v7.62Z"/><path class="cls-1" d="M299.28,75.45h32.28v1.59c-.14,19.32-12.25,31.72-29.98,31.72-21.48,0-34.02-17.02-34.02-37.34s12.83-37.47,34.45-37.47c16.72,0,25.66,9.95,25.66,9.95l4.76-6.2s-9.51-11.51-30.41-11.51c-26.09,0-42.93,19.59-42.93,45.24s16.41,45.09,42.5,45.09c23.93,0,38.18-16.7,38.18-43.08v-5.61h-40.48v7.62Z"/><polygon class="cls-1" points="221.89 68.68 219.3 73.87 218.87 73.87 216.43 68.68 192.37 28.05 182.71 28.05 214.85 81.22 214.85 114.5 223.04 114.5 223.04 81.22 255.18 28.05 245.67 28.05 221.89 68.68"/><path class="cls-1" d="M144.53,71.07v.07c-.03,.53,0,.04,0-.07Z"/><path class="cls-1" d="M74,.02c-.58-.01-1.15-.02-1.73-.02-.5,0-1.01,0-1.51,.02,1.08,0,2.16,.02,3.24,0Z"/><path class="cls-1" d="M4.47,46.67h0c.16-.41,.3-.84,.46-1.25-.15,.41-.3,.82-.47,1.25Z"/><path class="cls-1" d="M134.6,50c.74-2.65,2.73-3.52,5.1-4.3l.87,2.29c-1.43-4.07-3.23-7.98-5.35-11.68,.18,.33,.03,.96-.18,1.34-2.1,3.78-4.21,7.55-6.4,11.28-.39,.66-1.19,1.09-1.82,1.65-1.77-2.48,1.25-17.85,3.99-21.06-.95-1.29-1.94-2.55-2.98-3.78,.02,.23,0,.45-.1,.57-1.16,1.57-2.28,3.22-3.71,4.55-.88,.81-2.26,1.23-3.49,1.58-1.89,.53-3.83,.9-5.77,1.23-.59,.1-1.42,.05-1.81-.29-.31-.26-.31-1.14-.11-1.61,2.03-4.68,4.53-9.07,8.74-12.57-2.32-2.14-4.79-4.14-7.38-5.96-1.12,1.58-2.73,2.21-4.37,2.75-1.43,.48-2.37,.06-2.9-1.32-.73-1.95-.81-3.87,.46-5.68-1.56-.86-3.17-1.67-4.8-2.42,.03,1.98,.03,3.96-.03,5.94-.01,.38-.3,.75-.52,1.26-2.77-2.55-3.89-5.59-4.39-9.25-1.05-.39-2.11-.75-3.18-1.1,.36,.72,.34,1.82,.31,3.75-.02,1.59-.47,2.97-1.72,4.27-.51-4.37-3.87-6.81-6.67-10.09-3.61-.71-7.31-1.15-11.08-1.3,.41,.12,.61,.43,.58,1-1,.81-1.9,1.79-3.02,2.37-1.27,.66-2.42,.17-3.12-1.1,.03-.36,.23-.82,.07-1.05-.63-.87-.39-1.19,.37-1.26-2.31,.06-4.59,.24-6.84,.51,1.67,.54,3.02,1.44,4.32,2.39,.77,.56,.36,1.4-.31,1.99-3.08,2.72-7.64,2.19-10.03-1.15-.54-.76-.57-1.6-.07-2.24-2.47,.52-4.9,1.16-7.27,1.92,1.31,4.38,.86,8.9,1.5,13.3-.04,.02-.08,.05-.11,.07l-.22,.14s-.08,.05-.11,.07c-1-.85-2.16-1.58-2.98-2.57-2-2.43-3.67-5.02-4.12-8.22-.03-.21-.04-.39-.03-.54-1.21,.51-2.41,1.06-3.59,1.63,.29,.69,.58,1.38,.9,2.06,.88,1.83,1.73,3.67,2.69,5.46,.34,.63,.67,1.06,.13,1.78-.54,.7-.98,1.36-2.04,1.16-2.29-.42-4.56-.95-6.87-1.2-2.25-.24-4.34-.7-6.3-2.26-1.32,.98-2.6,2-3.85,3.07,.03,2.07-.86,2.89-3.53,3.23-1.08,1.05-2.12,2.13-3.12,3.25,.44-.15,.97-.09,1.66,.18,3.52,1.39,5.75,3.61,6.61,7.3,.41,1.75,1.64,3.37,2.67,4.94,.82,1.25,1.9,2.34,2.87,3.49-2.55,2.07-5.03,2.02-7.47,.1-3.04-2.39-5.79-5-7.12-8.64-.72-1.96-1.25-3.99-.38-6.05-2.03,2.36-3.91,4.85-5.62,7.45,3.7,1.56,9.8,6.96,11.66,10.28-1.46,.99-3.08,1.38-4.84,1.14-3.92-.54-6.85-2.71-9.49-5.33-.23-.23-.41-.76-.34-1.05-1.07,1.96-2.05,3.98-2.93,6.05,.05-.1,.1-.21,.16-.31,.2-.38,.85-.74,1.31-.75,.9-.03,1.81,.13,2.69,.34,1.91,.44,2.32,1.97,.93,3.34-1.45,1.44-3.7,1.58-6.25,.34C1.59,54.37,0,62.69,0,71.38c0,.73,4.43,1.4,6.28,.1,6.01-4.23,12.87-5.15,20.11-4.73,8.56,.5,16.85,2.38,24.96,4.81,6.06,1.81,9.84,6.15,11.5,12,1.27,4.45,1.05,8.88-.83,13.2-2.1,4.82-5.56,8.2-10.79,9.91-9.28,3.02-18.83,4.83-28.62,4.9-3.57,.03-7.24-.92-10.69-1.95-.39-.12-.75-.35-1.1-.65,.81,1.28,1.65,2.54,2.54,3.77,3.21-.21,6.1,.24,9.12,1.23-1.61,1.86-3.75,2.38-5.76,3.07,.39,.46,.79,.92,1.19,1.37,2.42-.67,4.82-1.5,7.28-1.94,6.02-1.08,12.06-2.01,18.12-2.9,.76-.11,1.87,.17,2.38,.68,.74,.74,.76,1.81,.11,2.82-1.9,2.96-4.5,5.23-7.6,6.97-2.87,1.6-5.82,3.09-8.93,4.72,.69,.51,1.39,1,2.11,1.49,2.3-1.3,4.38-2.55,6.57-3.58,.67-.31,1.87-.05,2.61,.34,1.01,.53,.54,1.54,.15,2.29-1.01,1.92-2.81,2.99-4.77,3.8,1.56,.9,3.15,1.74,4.78,2.52,3.69-2.66,7.36-4.84,11.87-5.66-.5,3.19-1.87,5.89-3.94,8.33-.15,.17-.29,.31-.45,.43,1.39,.48,2.8,.93,4.22,1.33,.01-.05,.02-.1,.03-.15,.6-2.92,1.92-5.53,3.69-7.96,4.65-6.37,8.27-13.28,11.6-20.35,.62-1.31,1.47-2.52,2.62-3.84,.24,1.34,.47,2.68,.71,4.02-.13,.28-.15,7.55-.03,7.83-.29,5.57-1.9,10.67-5.83,14.95-1.9,2.07-3.79,4.15-5.6,6.29-.22,.26-.44,.51-.68,.72,1.99,.37,4,.65,6.05,.85,.8-1.17,1.45-2.16,2.19-3.11,.79-1.01,1.62-2.02,2.61-2.82,.43-.35,1.57-.51,1.95-.23,2.12,1.62,3.33,3.73,3.74,6.45,1.52-.07,3.03-.18,4.53-.33-1.21-2.88-2.45-5.76-3.48-8.7-.44-1.25-.5-2.65-.56-3.99-.11-2.72-.05-5.44-.15-8.16-.07-2.07-.25-4.14-.42-6.21-.12-1.43,.84-2.09,2.03-2.3,1.12-.2,1.93,.5,2.14,1.59,.34,1.7,.59,3.42,.89,5.13,.57,3.17,1.16,6.33,1.74,9.5,.28,1.56,.37,3.18,.85,4.68,.8,2.52,1.79,5,2.77,7.62,1.51-.28,3-.61,4.48-.99-.93-1.58-1.41-3.2-.73-5.23,1.89,.89,3.68,1.64,5.35,2.58,.48,.27,.68,.69,.64,1.1,.44-.15,.88-.3,1.32-.45-.14-.06-.28-.12-.42-.2-.22-.11-.56-.18-.63-.35-1.38-3.17-4.32-5.12-6.51-7.64-1.2-1.38-2.56-2.64-3.63-4.1-2.53-3.45-3.55-7.19-1.74-11.46,3.94,2.04,6.77,5.29,10.13,7.91,4.41,3.45,6.95,7.93,8.74,12.95,.05,.15,.1,.29,.12,.41,1.66-.77,3.28-1.6,4.87-2.49-1.06-2.4-2.81-4.03-5.01-5.35-.46-.28-.69-1.54-.44-2.13,.77-1.86,3.81-3.19,5.88-2.76,2.87,.59,5.72,1.2,8.57,1.84,.69,.15,1.34,.43,2.17,.71,1.66-1.39,3.26-2.86,4.79-4.39-.49,.09-1.01,.05-1.53-.12-1.75-.56-3.59-1.03-4.89-2.66,3.11-1.36,6.13,.23,9.16-.23,0,.04-.02,.09-.03,.13,1.72-1.93,3.35-3.95,4.85-6.05-1.47,1.1-3.32,1.62-5.37,1.87-9.33,1.14-18.12-.76-26.66-4.17-3.65-1.46-6.88-3.46-9.38-6.48-2.36-2.85-3.8-6.04-3.94-9.66-.13-3.37-.2-6.76,.05-10.12,.46-6.28,3.74-10.96,9.37-14.22,3.86-2.24,8.04-3.74,12.38-4.68l13.22-1.75c4.87-.11,9.36,1.08,13.72,3.19,2.24,1.09,4.9,1.38,7.38,1.98,1.15,.28,2.42,1.08,2.47,2.42-.05-7.29-1.2-14.31-3.3-20.93h-6.64Zm-41.99,62.07c5.82,1.18,10.97,3.3,15.13,7.74-3.47,.54-6.57,.11-9.46-1.28-1.66-.8-3.19-1.88-4.67-2.97-1.11-.82-1.56-2-1-3.48ZM109.59,19.57c.99-1.69,2.62-2.62,4.72-2.7,1.31-.05,1.84,.73,1.99,1.75,.45,3.06-2.77,7.32-6.08,8.09-1.33-2.29-2.07-4.67-.63-7.14Zm-16.47,1.41c.41-1.27,.87-2.55,1.51-3.72,.84-1.53,2.03-1.72,3.29-.5,.74,.71,1.2,1.67,1.78,2.52-.34,1.96-2.53,4.32-4.29,4.49-.82,.08-2.56-1.94-2.29-2.8Zm-3.65,18.55c1.11-2.37,2.33-4.68,3.58-6.98,1.02-1.88,2.13-3.71,3.23-5.55,1.15-1.93,2.99-2.92,5.33-3.46,.72,3.61-.51,6.7-2,9.72-1.67,3.39-4.28,6.07-7.33,8.36-.61,.46-1.78,.88-2.34,.62-1.17-.53-.89-1.8-.46-2.7Zm-15.38-31.75c2.47-2.15,5.02-4.21,7.6-6.25,.28-.22,1.17-.19,1.37,.04,.91,1.06,2,2.14,2.42,3.39,1.1,3.23,1.88,6.56,2.78,9.86,.08,.28,.05,.58,.1,1.18-.48,2.69-1.75,5.24-4.59,6.82-1.68,.93-3.29,.38-4.24-1.43-.59-1.11-.87-2.37-1.5-3.44-1.34-2.25-2.79-4.45-4.26-6.63-1.03-1.52-1.09-2.32,.32-3.54Zm-8.46,12.47c.15-2.74,1.53-4.75,4.35-5.71,1.48-.5,2.13-.18,2.28,1.29,.15,1.43,.12,2.87,.34,4.29,.1,.62,.59,1.19,.94,1.75,.97,1.57,1.98,3.11,2.93,4.69,.18,.31,.22,.75,.2,1.11-.51,6.49-2.55,11.22-7.09,16.44-2.27-3.21-4.5-6.42-6.78-9.59-.75-1.04-.86-2-.18-3.08,2.2-3.44,2.8-7.26,3.01-11.2Zm-12.86,1.67c1.09-3.58,1.07-7.22,.6-10.92-.17-1.35,.12-2.79,.44-4.13,.13-.56,.83-1.3,1.36-1.37,.5-.07,1.3,.51,1.65,1.01,2.59,3.73,4.41,7.73,4.76,12.27,.2,2.54,.77,5.06,.85,7.6,.04,1.24-.65,2.51-1.11,4.12-2.72-1.81-4.91-3.27-7.11-4.73-1.44-.96-1.94-2.16-1.43-3.85Zm-21.24,5.35c-.15-2.3-.04-4.62,.96-6.82,.35-.75,.73-1.04,1.6-.9,2.85,.45,5.72,.78,8.56,1.29,3.75,.67,5.08,2.48,4.87,6.16-.07,1.2,.06,2.41,.19,3.61,.13,1.18,.37,2.35,.61,3.85-2.52-1.19-4.75-2.48-7.15-3.31-2.05-.71-4.28-1.15-6.45-1.25-2.76-.13-3.01-.01-3.18-2.62Zm-2.94,16.94c3.84-1.04,8.95,.54,11.37,3.56,.39,.48,.68,1.06,.88,1.64,.35,1.03-.14,1.94-1.08,2.26-.58,.2-1.6-.04-2.1-.44-2.8-2.32-6.25-3.06-9.7-3.83-.42-.09-.89,.05-1.43,.09-.07-2.1,.41-2.83,2.05-3.27ZM1.93,56.61c.19-1.88,2.65-4.39,4.61-4.68,1.2-.18,2.66,.87,3.26,2.42,.46,1.19-.42,1.83-1.27,2.34-1.16,.69-2.39,1.28-3.62,1.84-1.15,.53-3.09-.75-2.97-1.92Zm20.24,7.63c-1.6,.28-3.18,.67-4.79,.8-2.42,.19-4.86,.19-7.29,.28-2.81,.1-4.88-.95-6.03-3.47,1.9-2.42,6.6-4.43,10.2-2.31,2.06,1.21,4.35,2.05,6.51,3.11,.55,.27,.99,.73,1.48,1.1l-.08,.49Zm19.36-5.96c-1.07,1.46-1.98,3.02-3.03,4.5-.23,.32-.78,.63-1.17,.61-6-.24-11.86-1.23-17.56-3.07-4.62-1.49-6.74-4.97-7.97-9.13-.31-1.04,.45-1.8,1.69-1.91,.1,0,.2,0,.3,0h2.59c1.84,.06,3.49,.12,5.23-1.19,1.05-.79,3.55-.77,4.86-.13,4.99,2.46,9.74,5.34,14.61,8.01,1.19,.66,1.19,1.31,.45,2.31Zm-3.2-17.85c-1.69-1.27-3.79-2.16-4.62-4.29-.03-.09-.15-.16-.16-.24-.11-1.01-.66-2.35-.19-2.95,.48-.61,1.98-.72,3.02-.67,4.07,.19,7.03,2.57,9.84,5.03,3.12,2.73,5.19,6.12,6.06,10.13,.06,.27,.05,.56,.08,.97-5.64-1.36-9.76-4.78-14.02-7.97Zm14.08-8.88c.04-.24,.98-.66,1.08-.57,1.46,1.29,2.87,2.63,4.24,4.01,.13,.14-.02,.63-.16,.9-1.16,2.23-2.35,4.45-3.63,6.86-1.66-3.75-2.03-7.43-1.53-11.21Zm12.35,76.33c-2.66,7.47-6.68,14.07-13.54,18.76-1.28,.87-2.64,1.66-4.05,2.31-1.11,.51-2.58,.8-3.36-.25-.7-.95-.2-2.13,.53-3.21,1.71-2.53,3.22-5.19,4.85-7.77,1.35-2.14,2.4-4.59,4.22-6.28,2.48-2.3,5.51-4.08,8.44-5.88,.82-.5,2.12-.28,3.54-.43-.26,1.14-.36,1.97-.63,2.75Zm21.08-75.45c-.16,.65-.46,1.28-.82,1.86-1.46,2.35-2.02,4.83-1.89,7.59,.07,1.37-.77,2.76-1.09,4.16-.58,2.53-1.17,5.06-1.57,7.62-.63,4.06-1.08,8.15-1.64,12.22-.35,2.59-.72,5.18-1.2,7.75-.1,.51-.65,1.17-1.15,1.35-1.61,.58-3.12,0-4.06-1.24-5.36-7.1-10.63-14.26-15.93-21.41-.32-.43-.55-.92-.83-1.39,2.34-3.15,4.68-6.29,7.14-9.6,.86,1.23,1.6,2.37,2.43,3.45,1.17,1.51,2.38,2.99,3.6,4.47,.95,1.15,2.01,.99,3.2,.29,3.13-1.85,4.97-4.59,6.18-7.82,1.5-4.01,3.02-8.01,4.54-12.01,.17-.45,.33-.96,.66-1.29,.46-.45,1.33-1.19,1.56-1.06,.61,.35,1.32,1.08,1.36,1.69,.08,1.11-.23,2.26-.5,3.37Zm9.29,22.19c-3.07-1.53-5.59-2.77-8.29-4.11,1.31-1.42,2.48-2.78,3.76-4.05,5.04-5,9.51-10.38,12.61-16.72,.21-.43,.54-.82,.91-1.14,.62-.54,.98-.43,1.24,.42,.85,2.74,.11,5.39-.59,7.98-1.51,5.59-3.93,10.8-7.8,15.31-.64,.75-1.23,1.54-1.85,2.33Zm13.19,.02c-2.16,.43-4.96-.8-5.99-2.61-.55-.97-.36-1.72,.61-2.51,1.51-1.23,3.15-2.5,4.15-4.08,3.04-4.87,7.29-8.08,12.96-9.64,2.65-.73,3.8-.03,4.22,2.57,.14,.84,.36,1.67,.52,2.41-.52,3.24-1.25,6.28-2.97,8.99-1.07,1.69-2.76,2.66-4.78,3.07-2.91,.6-5.8,1.23-8.71,1.81Zm33.93,5.96c-.05,.19-.08,.38-.14,.57-1.13,3.36-2.48,3.81-5.47,1.7-3.84-2.7-8.18-3.44-12.81-3.13-1.22,.08-2.43,.27-3.64,.24-.95-.02-1.9-.3-2.85-.47,2.63-2.27,5.65-3.28,8.78-4.05,3.05-.74,6.06-.37,9.02,.39,1.9,.49,3.76,1.14,5.6,1.8,1.42,.5,1.83,1.58,1.51,2.95Z"/></svg>