<?xml version="1.0" encoding="UTF-8"?><svg id="logo_CommuniThings" xmlns="http://www.w3.org/2000/svg" xmlns:xlink="http://www.w3.org/1999/xlink" viewBox="0 0 470.1 260"><defs><style>.cls-1{mask:url(#mask);}.cls-2{fill:#0073b7;}.cls-3{fill:#006db6;}.cls-4{fill:#f2721c;}.cls-5{fill:#e56700;}.cls-6{fill:#c92020;}.cls-7{fill:#d32626;}.cls-8{fill:#5ab741;}.cls-9{fill:#fff;fill-rule:evenodd;}.cls-10{mask:url(#mask-3);}.cls-11{mask:url(#mask-2);}.cls-12{mask:url(#mask-1);}</style><mask id="mask" x="138.77" y="1.19" width="225.2" height="172.98" maskUnits="userSpaceOnUse"><g id="mask-4"><path id="path-3" class="cls-9" d="M252.28,6.14c-14.28,5.13-26.11,13.92-35.44,24.56-27.8,31.78-45.46,43.9-63.21,53.83-14.88,8.33-17.24,13.31-12.94,25.26,1.83,5.08,4.82,13.41,8.01,22.27,3.19,8.86,6.18,17.19,8.01,22.27,4.3,11.96,9.3,14.28,26.06,11.23,20.01-3.65,41.36-5.56,83.03,1.23,13.97,2.28,28.69,1.5,42.96-3.63,43.36-15.6,65.86-63.4,50.27-106.76C346.79,22.38,314.72,1.19,280.52,1.19c-9.37,0-18.91,1.59-28.24,4.95"/></g></mask><mask id="mask-1" x="138.77" width="228.8" height="168" maskUnits="userSpaceOnUse"><g id="mask-6"><path id="path-5" class="cls-9" d="M252.28,6.14c-14.28,5.13-26.11,13.92-35.44,24.56-27.8,31.78-45.46,43.9-63.21,53.83-14.88,8.33-17.24,13.31-12.94,25.26,1.83,5.08,4.82,13.41,8.01,22.27,3.19,8.86,6.18,17.19,8.01,22.27,4.3,11.96,9.3,14.28,26.06,11.23,20.01-3.65,41.36-5.56,83.03,1.23,13.97,2.28,28.69,1.5,42.96-3.63,43.36-15.6,65.86-63.4,50.27-106.76C346.79,22.38,314.72,1.19,280.52,1.19c-9.37,0-18.91,1.59-28.24,4.95"/></g></mask><mask id="mask-2" x="138.77" y="1.19" width="226.78" height="172.19" maskUnits="userSpaceOnUse"><g id="mask-8"><path id="path-7" class="cls-9" d="M252.28,6.14c-14.28,5.13-26.11,13.92-35.44,24.56-27.8,31.78-45.46,43.9-63.21,53.83-14.88,8.33-17.24,13.31-12.94,25.26,1.83,5.08,4.82,13.41,8.01,22.27,3.19,8.86,6.18,17.19,8.01,22.27,4.3,11.96,9.3,14.28,26.06,11.23,20.01-3.65,41.36-5.56,83.03,1.23,13.97,2.28,28.69,1.5,42.96-3.63,43.36-15.6,65.86-63.4,50.27-106.76C346.79,22.38,314.72,1.19,280.52,1.19c-9.37,0-18.91,1.59-28.24,4.95"/></g></mask><mask id="mask-3" x="125.66" y="1.19" width="238.32" height="166.81" maskUnits="userSpaceOnUse"><g id="mask-2-2"><path id="path-1" class="cls-9" d="M252.28,6.14c-14.28,5.13-26.11,13.92-35.44,24.56-27.8,31.78-45.46,43.9-63.21,53.83-14.88,8.33-17.24,13.31-12.94,25.26,1.83,5.08,4.82,13.41,8.01,22.27,3.19,8.86,6.18,17.19,8.01,22.27,4.3,11.96,9.3,14.28,26.06,11.23,20.01-3.65,41.36-5.56,83.03,1.23,13.97,2.28,28.69,1.5,42.96-3.63,43.36-15.6,65.86-63.4,50.27-106.76C346.79,22.38,314.72,1.19,280.52,1.19c-9.37,0-18.91,1.59-28.24,4.95"/></g></mask></defs><g class="cls-1"><path id="Shape" class="cls-8" d="M147.39,135.34s46.92-16.68,46.87-16.82l26.58-9.65-.03-.04c4.34-1.6,6.63-6.25,5.15-10.4-.91-2.46-2.92-4.2-5.32-4.88l.02-.04c-2.97-.88-5.45-3.01-6.54-6.04-1.92-5.24,.99-11.08,6.47-13.06,5.43-1.99,11.43,.65,13.32,5.85,1.09,3.04,.54,6.28-1.14,8.85l.04,.02c-1.46,2.08-1.93,4.71-1.03,7.25,.75,2.03,2.3,3.57,4.22,4.45,1.93,.85,4.18,.98,6.35,.18l27.5-9.99,8.47,23.3s.44,1.35-.28,2.18c-.27,.31-.96,.91-2.47,.4-3.88-1.56-8.25-1.78-12.4-.27-9.14,3.29-13.81,13.65-10.37,23.05,3.39,9.38,13.45,14.27,22.54,11.12l.09-.05c.05,0,.15-.05,.2-.05,1.95-.76,3.77-1.87,5.32-3.23,.05-.03,.09-.08,.12-.07,1.53-1.4,2.81-2.96,3.74-4.72,.83-1.33,1.7-1.31,2.15-1.28,0,0,1.19,.05,1.72,1.42l11.06,30.6-138.95,.78-13.4-38.83Z"/></g><g class="cls-12"><path id="Shape-2" class="cls-4" d="M367.58,47.79l-18.87,6.87-25.41,9.25h.02c-4.36,1.59-6.66,6.22-5.12,10.41,.89,2.43,2.91,4.18,5.29,4.85l-.05,.03c3,.91,5.47,3.02,6.56,6.07,1.89,5.21-.98,11.07-6.44,13.02-5.47,1.99-11.45-.61-13.33-5.83-1.08-3.03-.6-6.25,1.13-8.87l-.03-.02c1.44-2.04,1.92-4.69,1.01-7.22-.75-2.02-2.3-3.6-4.23-4.42-1.92-.82-4.18-.96-6.33-.19v-.04l-27.51,10.02-8.44-23.28s-.46-1.33,.25-2.17c.29-.32,1.02-.93,2.47-.42,3.9,1.58,8.24,1.82,12.39,.3,9.15-3.31,13.78-13.66,10.39-23.09-3.42-9.32-13.43-14.26-22.55-11.11l-.09,.06c-.07,0-.14,.08-.22,.1-1.94,.72-3.76,1.86-5.32,3.18-.05,.05-.07,.11-.14,.1-1.49,1.37-2.78,2.98-3.7,4.69-.83,1.34-1.71,1.34-2.16,1.3,0,0-1.17-.04-1.69-1.44l-8.29-22.77-.29-7.16h120.68V47.79Z"/></g><g class="cls-11"><path id="Shape-3" class="cls-7" d="M365.55,153.67l-57.86,19.71-3.7-10.01-9.52-26.24h-.05c-1.61-4.3-6.24-6.56-10.46-5.02-2.46,.87-4.2,2.92-4.92,5.28h-.01c-.91,2.92-3.12,5.41-6.16,6.52-5.25,1.92-11.11-.92-13.09-6.35-1.98-5.4,.68-11.36,5.96-13.25,3.11-1.13,6.34-.62,8.89,1.04l.02-.04c2.09,1.46,4.73,1.89,7.29,.99,2.07-.73,3.62-2.3,4.47-4.22,.89-1.89,1.01-4.15,.23-6.28l.06-.02-9.9-27.21,23.45-8.55s1.39-.48,2.2,.22c.31,.29,.95,1,.39,2.49-1.57,3.83-1.85,8.17-.32,12.29,3.29,9.09,13.65,13.68,23.17,10.2,9.39-3.42,14.38-13.45,11.28-22.45l-.07-.11c0-.07-.03-.14-.06-.2-.74-1.97-1.87-3.76-3.2-5.28-.05-.05-.08-.09-.11-.11-1.34-1.5-2.93-2.8-4.64-3.7-1.4-.8-1.39-1.72-1.31-2.14,0,0,.01-1.18,1.45-1.71l22.34-8.1c.2,.57-.2-.57,0,0l8.11-2.94,6.05-1.84v97Z"/></g><path id="Shape-4" class="cls-6" d="M150.57,172.46c-2.85,1.04-6-.44-7.04-3.29l-22.3-61.4c-1.03-2.85,.44-6,3.29-7.03,2.85-1.04,6,.43,7.03,3.29l22.3,61.4c1.03,2.86-.43,6-3.29,7.04"/><path id="Shape-5" class="cls-5" d="M135.36,177.99c-2.85,1.04-6-.44-7.04-3.29l-22.3-61.41c-1.03-2.85,.43-6,3.29-7.03,2.85-1.04,6,.43,7.04,3.29l22.3,61.4c1.03,2.85-.44,6-3.29,7.04"/><path id="Shape-6" class="cls-2" d="M120.11,168.19l-16.21-44.62c-6.09,7.24-8.26,17.45-4.8,26.99,3.46,9.54,11.68,15.98,21.01,17.63"/><path class="cls-3" d="M29.77,226.78c-.77-1.22-1.72-2.25-2.83-3.08-1.11-.83-2.34-1.46-3.68-1.89-1.34-.43-2.74-.65-4.21-.65-2.68,0-4.98,.51-6.9,1.53s-3.5,2.37-4.72,4.04-2.13,3.57-2.71,5.68c-.59,2.11-.88,4.28-.88,6.5s.29,4.34,.88,6.47c.58,2.13,1.49,4.03,2.71,5.71s2.8,3.03,4.72,4.04,4.22,1.53,6.9,1.53c1.88,0,3.58-.34,5.09-1.02,1.51-.68,2.81-1.6,3.9-2.77,1.09-1.17,1.98-2.53,2.66-4.1,.68-1.56,1.11-3.25,1.3-5.06h3.85c-.26,2.49-.85,4.73-1.75,6.73s-2.07,3.69-3.51,5.09c-1.43,1.39-3.12,2.47-5.06,3.22-1.94,.75-4.1,1.13-6.47,1.13-3.17,0-5.95-.58-8.34-1.72-2.39-1.15-4.38-2.69-5.96-4.61-1.58-1.92-2.77-4.15-3.56-6.67-.79-2.53-1.19-5.18-1.19-7.97s.4-5.45,1.19-7.97c.79-2.53,1.98-4.76,3.56-6.7,1.58-1.94,3.57-3.49,5.96-4.64,2.39-1.15,5.17-1.73,8.34-1.73,1.92,0,3.8,.28,5.63,.85,1.83,.57,3.49,1.4,4.97,2.52,1.49,1.11,2.73,2.48,3.73,4.1,1,1.62,1.63,3.49,1.89,5.6h-3.84c-.34-1.54-.9-2.93-1.67-4.16Z"/><path class="cls-3" d="M40.76,230.94c.79-2.53,1.98-4.76,3.56-6.7,1.58-1.94,3.57-3.49,5.96-4.64,2.39-1.15,5.17-1.73,8.34-1.73s5.94,.58,8.31,1.73c2.37,1.15,4.35,2.69,5.94,4.64,1.58,1.94,2.77,4.17,3.56,6.7,.79,2.53,1.19,5.18,1.19,7.97s-.4,5.45-1.19,7.97c-.79,2.53-1.98,4.75-3.56,6.67-1.58,1.92-3.56,3.46-5.94,4.61-2.37,1.15-5.14,1.72-8.31,1.72s-5.95-.58-8.34-1.72c-2.39-1.15-4.38-2.69-5.96-4.61-1.58-1.92-2.77-4.15-3.56-6.67-.79-2.53-1.19-5.18-1.19-7.97s.4-5.45,1.19-7.97Zm3.53,14.45c.58,2.13,1.49,4.03,2.71,5.71,1.22,1.68,2.8,3.03,4.72,4.04,1.92,1.02,4.22,1.53,6.9,1.53s4.97-.51,6.87-1.53c1.9-1.02,3.47-2.37,4.69-4.04,1.22-1.68,2.13-3.58,2.71-5.71,.58-2.13,.88-4.29,.88-6.47s-.29-4.39-.88-6.5c-.59-2.11-1.49-4.01-2.71-5.68-1.23-1.68-2.79-3.03-4.69-4.04-1.9-1.02-4.19-1.53-6.87-1.53s-4.97,.51-6.9,1.53-3.5,2.37-4.72,4.04c-1.23,1.68-2.13,3.57-2.71,5.68-.58,2.11-.88,4.28-.88,6.5s.29,4.34,.88,6.47Z"/><path class="cls-3" d="M89.16,218.73l13.4,35.39,13.91-35.39h5.65v40.37h-3.84v-34.88h-.11l-13.79,34.88h-3.62l-13.29-34.88h-.11v34.88h-3.85v-40.37h5.65Z"/><path class="cls-3" d="M135.57,218.73l13.4,35.39,13.91-35.39h5.65v40.37h-3.84v-34.88h-.11l-13.79,34.88h-3.62l-13.29-34.88h-.11v34.88h-3.85v-40.37h5.65Z"/><path class="cls-3" d="M179.9,218.73v24.99c0,2.34,.26,4.32,.79,5.96,.53,1.64,1.3,2.98,2.32,4.01,1.02,1.04,2.26,1.79,3.73,2.26,1.47,.47,3.13,.71,4.98,.71s3.56-.23,5.03-.71c1.47-.47,2.71-1.22,3.73-2.26,1.02-1.04,1.79-2.38,2.32-4.01,.53-1.64,.79-3.63,.79-5.96v-24.99h3.84v25.84c0,2.07-.29,4.04-.88,5.91s-1.51,3.5-2.77,4.89c-1.26,1.39-2.88,2.5-4.86,3.31-1.98,.81-4.38,1.22-7.21,1.22s-5.17-.41-7.15-1.22c-1.98-.81-3.6-1.91-4.86-3.31-1.26-1.39-2.19-3.03-2.77-4.89-.59-1.87-.88-3.83-.88-5.91v-25.84h3.84Z"/><path class="cls-3" d="M219.42,218.73l23.52,34.15h.11v-34.15h3.84v40.37h-4.3l-23.52-34.15h-.11v34.15h-3.84v-40.37h4.3Z"/><path class="cls-3" d="M259.11,218.73v40.37h-3.84v-40.37h3.84Z"/><path class="cls-3" d="M257.58,226.19v-7.46h33.07v7.46h-12.1v32.9h-8.88v-32.9h-12.1Z"/><path class="cls-3" d="M304.17,218.73v15.49h16.34v-15.49h8.88v40.37h-8.88v-17.41h-16.34v17.41h-8.88v-40.37h8.88Z"/><path class="cls-3" d="M346.06,218.73v40.37h-8.88v-40.37h8.88Z"/><path class="cls-3" d="M362.68,218.73l16.85,27.08h.11v-27.08h8.31v40.37h-8.88l-16.79-27.03h-.11v27.03h-8.31v-40.37h8.82Z"/><path class="cls-3" d="M419.67,258.78c-1.92,.81-3.87,1.22-5.82,1.22-3.09,0-5.87-.54-8.34-1.61s-4.55-2.55-6.25-4.44-3-4.1-3.9-6.64c-.9-2.54-1.36-5.29-1.36-8.23s.45-5.81,1.36-8.4c.9-2.58,2.2-4.83,3.9-6.76,1.7-1.92,3.78-3.43,6.25-4.52,2.47-1.09,5.25-1.64,8.34-1.64,2.07,0,4.08,.31,6.02,.93,1.94,.62,3.69,1.54,5.26,2.74,1.56,1.21,2.85,2.69,3.87,4.47,1.02,1.77,1.64,3.81,1.87,6.11h-8.48c-.53-2.26-1.54-3.96-3.05-5.09s-3.33-1.7-5.48-1.7c-2,0-3.69,.39-5.09,1.16-1.39,.77-2.53,1.81-3.39,3.11s-1.5,2.78-1.89,4.44c-.4,1.66-.59,3.37-.59,5.15s.2,3.34,.59,4.95c.4,1.6,1.03,3.04,1.89,4.32,.87,1.28,2,2.31,3.39,3.08,1.39,.77,3.09,1.16,5.09,1.16,2.94,0,5.21-.74,6.81-2.23,1.6-1.49,2.53-3.65,2.8-6.47h-8.93v-6.61h16.96v21.82h-5.65l-.9-4.58c-1.58,2.04-3.33,3.46-5.26,4.27Z"/><path class="cls-3" d="M445.45,249.14c.49,.94,1.14,1.71,1.95,2.29,.81,.59,1.76,1.02,2.85,1.3,1.09,.28,2.22,.42,3.39,.42,.79,0,1.64-.07,2.54-.2s1.75-.39,2.54-.76c.79-.38,1.45-.89,1.98-1.55,.53-.66,.79-1.5,.79-2.52,0-1.09-.35-1.98-1.04-2.66-.7-.68-1.61-1.24-2.74-1.7-1.13-.45-2.41-.85-3.84-1.19-1.43-.34-2.88-.71-4.35-1.13-1.51-.38-2.98-.84-4.41-1.39-1.43-.55-2.71-1.25-3.84-2.12s-2.04-1.95-2.74-3.25c-.7-1.3-1.04-2.87-1.04-4.72,0-2.07,.44-3.87,1.33-5.4,.89-1.53,2.04-2.8,3.48-3.82,1.43-1.02,3.05-1.77,4.86-2.26s3.62-.74,5.43-.74c2.11,0,4.14,.24,6.08,.71,1.94,.47,3.67,1.24,5.17,2.29,1.51,1.06,2.7,2.4,3.59,4.04s1.33,3.63,1.33,5.96h-8.59c-.08-1.21-.33-2.2-.76-3-.43-.79-1.01-1.41-1.73-1.87-.72-.45-1.54-.77-2.46-.96s-1.93-.28-3.03-.28c-.72,0-1.43,.08-2.15,.23s-1.37,.41-1.95,.79c-.59,.38-1.07,.85-1.44,1.41-.38,.57-.57,1.28-.57,2.15,0,.79,.15,1.43,.45,1.92,.3,.49,.89,.94,1.78,1.36,.89,.41,2.11,.83,3.68,1.24,1.56,.42,3.61,.94,6.13,1.58,.75,.15,1.8,.42,3.14,.82,1.34,.4,2.67,1.03,3.98,1.89,1.32,.87,2.46,2.03,3.42,3.48s1.44,3.31,1.44,5.57c0,1.85-.36,3.56-1.07,5.15-.72,1.58-1.78,2.95-3.19,4.1-1.41,1.15-3.17,2.04-5.26,2.68-2.09,.64-4.51,.96-7.26,.96-2.23,0-4.38-.27-6.47-.82-2.09-.55-3.94-1.4-5.54-2.57-1.6-1.17-2.87-2.66-3.82-4.47-.94-1.81-1.39-3.96-1.36-6.45h8.6c0,1.36,.24,2.51,.73,3.45Z"/><g class="cls-10"><path id="Shape-7" class="cls-2" d="M240.78,11l8.95,24.6h.05c1.52,4.33,6.22,6.56,10.43,5.03,2.47-.88,4.21-2.92,4.93-5.3,.95-2.91,3.11-5.37,6.15-6.53,5.28-1.88,11.1,.95,13.1,6.38,1.96,5.38-.72,11.34-5.96,13.25-3.1,1.11-6.31,.62-8.88-1.06l-.02,.06c-2.06-1.47-4.74-1.92-7.25-1-2.09,.78-3.66,2.32-4.49,4.21-.86,1.91-1.02,4.16-.23,6.31h-.08l9.91,27.23-23.48,8.53s-1.38,.45-2.21-.21c-.32-.31-.89-1.02-.38-2.48,1.61-3.86,1.84-8.2,.36-12.32-3.32-9.09-13.68-13.67-23.18-10.2-9.43,3.44-14.43,13.44-11.27,22.45v.12c.05,.07,.1,.11,.1,.16,.75,1.98,1.86,3.79,3.2,5.28,.03,.08,.07,.11,.12,.12,1.35,1.51,2.95,2.76,4.68,3.7,1.34,.78,1.34,1.71,1.28,2.15,0,0-.03,1.18-1.46,1.68l-22.75,8.26-47.33,17.24-19.4-56.61L240.78,11Z"/></g></svg>