<?xml version="1.0" encoding="UTF-8"?><svg id="logo_OrchestraCities" xmlns="http://www.w3.org/2000/svg" viewBox="0 0 560 121.42"><defs><style>.cls-1{fill:#004b56;}.cls-2{fill:#e84e1b;}</style></defs><g><rect class="cls-1" y="66.63" width="3.19" height="43.19"/><rect class="cls-1" x="8.47" y="66.63" width="3.19" height="24.13"/><rect class="cls-1" x="25.47" y="66.63" width="3.19" height="31.2"/><rect class="cls-1" x="67.75" y="66.63" width="3.19" height="31.2"/><rect class="cls-1" x="16.91" y="66.63" width="3.19" height="50.01"/><rect class="cls-1" x="50.8" y="66.63" width="3.19" height="50.01"/><rect class="cls-1" x="93.27" y="66.63" width="3.19" height="50.01"/><rect class="cls-1" x="33.85" y="66.63" width="3.19" height="24.13"/><rect class="cls-1" x="76.32" y="66.63" width="3.19" height="24.13"/><rect class="cls-1" x="101.64" y="66.63" width="3.19" height="36.88"/><rect class="cls-1" x="110.22" y="66.63" width="3.19" height="54.05"/><rect class="cls-1" x="42.42" y="66.63" width="3.19" height="43.19"/><rect class="cls-1" x="59.37" y="66.63" width="3.19" height="43.19"/><rect class="cls-1" x="84.7" y="66.63" width="3.19" height="43.19"/><rect class="cls-1" y="8.75" width="11.67" height="49"/><rect class="cls-1" x="101.64" y="8.75" width="11.77" height="49"/><rect class="cls-1" x="16.91" y="16.32" width="11.75" height="41.45"/><rect class="cls-1" x="33.85" y="33.49" width="11.75" height="24.28"/><rect class="cls-1" x="50.8" y="8.75" width="11.75" height="49.02"/><rect class="cls-1" x="67.75" width="11.75" height="57.77"/><rect class="cls-1" x="84.7" y="23.39" width="11.75" height="34.38"/></g><g><path class="cls-2" d="M181.37,28.46c0,5.05-.94,9.52-2.81,13.41-1.87,3.89-4.54,6.88-7.99,8.98-3.45,2.1-7.38,3.15-11.79,3.15s-8.32-1.02-11.74-3.04c-3.42-2.03-6.08-4.93-7.99-8.7-1.91-3.77-2.91-8.1-3.01-12.98v-2.92c0-5.07,.93-9.55,2.79-13.43,1.86-3.88,4.53-6.87,8-8.98,3.47-2.11,7.43-3.17,11.86-3.17s8.3,1.04,11.74,3.13c3.44,2.09,6.11,5.06,8.02,8.91,1.91,3.85,2.87,8.27,2.9,13.25v2.38Zm-12.7-2.17c0-5.15-.86-9.05-2.58-11.72-1.72-2.67-4.18-4-7.38-4-6.26,0-9.57,4.7-9.92,14.09l-.04,3.81c0,5.07,.84,8.98,2.53,11.7,1.68,2.73,4.18,4.09,7.5,4.09s5.59-1.34,7.29-4.02c1.71-2.68,2.57-6.53,2.6-11.56v-2.38Z"/><path class="cls-2" d="M207.05,34.97h-6.76v18.32h-12.49V1.5h20.38c6.14,0,10.94,1.36,14.41,4.09,3.46,2.72,5.19,6.57,5.19,11.55,0,3.6-.73,6.58-2.19,8.95-1.46,2.37-3.74,4.29-6.85,5.76l10.82,20.91v.53h-13.38l-9.14-18.32Zm-6.76-9.6h7.9c2.37,0,4.16-.62,5.35-1.87,1.2-1.25,1.8-2.99,1.8-5.22s-.6-3.99-1.81-5.26c-1.21-1.27-2.99-1.91-5.34-1.91h-7.9v14.26Z"/><path class="cls-2" d="M277.24,35.76c-.17,3.61-1.14,6.79-2.92,9.55-1.78,2.76-4.27,4.9-7.49,6.42-3.22,1.52-6.88,2.28-11.01,2.28-6.81,0-12.17-2.22-16.08-6.65-3.91-4.44-5.87-10.7-5.87-18.78v-2.56c0-5.07,.88-9.52,2.65-13.32,1.77-3.81,4.31-6.75,7.63-8.82,3.32-2.07,7.16-3.11,11.52-3.11,6.28,0,11.33,1.65,15.15,4.96,3.82,3.31,5.99,7.87,6.51,13.68h-12.45c-.09-3.15-.89-5.42-2.38-6.8-1.5-1.37-3.77-2.06-6.83-2.06s-5.38,1.16-6.83,3.49c-1.45,2.33-2.21,6.04-2.28,11.13v3.66c0,5.53,.69,9.47,2.08,11.84,1.39,2.37,3.78,3.56,7.17,3.56,2.87,0,5.06-.67,6.58-2.03,1.52-1.35,2.32-3.5,2.42-6.44h12.41Z"/><polygon class="cls-2" points="326.43 53.29 314.02 53.29 314.02 31.66 295.63 31.66 295.63 53.29 283.14 53.29 283.14 1.5 295.63 1.5 295.63 22.06 314.02 22.06 314.02 1.5 326.43 1.5 326.43 53.29"/><polygon class="cls-2" points="366.45 31.31 346.82 31.31 346.82 43.69 370.01 43.69 370.01 53.29 334.33 53.29 334.33 1.5 370.08 1.5 370.08 11.14 346.82 11.14 346.82 22.06 366.45 22.06 366.45 31.31"/><path class="cls-2" d="M401.81,39.53c0-1.83-.65-3.25-1.94-4.27-1.29-1.02-3.56-2.07-6.81-3.17-3.25-1.09-5.9-2.15-7.97-3.17-6.71-3.3-10.07-7.83-10.07-13.59,0-2.87,.84-5.4,2.51-7.6,1.67-2.19,4.04-3.9,7.1-5.12,3.06-1.22,6.5-1.83,10.32-1.83s7.06,.66,10.01,1.99c2.95,1.33,5.25,3.22,6.88,5.67,1.64,2.45,2.45,5.26,2.45,8.41h-12.45c0-2.11-.65-3.75-1.94-4.91-1.29-1.16-3.04-1.74-5.25-1.74s-3.99,.49-5.28,1.48c-1.29,.98-1.94,2.24-1.94,3.75,0,1.33,.71,2.53,2.13,3.61,1.42,1.08,3.92,2.19,7.51,3.34,3.58,1.15,6.52,2.39,8.82,3.72,5.6,3.23,8.4,7.67,8.4,13.34,0,4.53-1.71,8.09-5.12,10.67-3.41,2.59-8.1,3.88-14.05,3.88-4.2,0-8-.75-11.4-2.26-3.4-1.51-5.97-3.57-7.68-6.19-1.72-2.62-2.58-5.64-2.58-9.05h12.52c0,2.77,.72,4.82,2.15,6.14,1.43,1.32,3.76,1.97,6.99,1.97,2.06,0,3.69-.44,4.89-1.33,1.2-.89,1.8-2.14,1.8-3.75"/><polygon class="cls-2" points="461.36 11.14 445.81 11.14 445.81 53.29 433.33 53.29 433.33 11.14 418.07 11.14 418.07 1.5 461.36 1.5 461.36 11.14"/><path class="cls-2" d="M485.87,34.97h-6.76v18.32h-12.49V1.5h20.38c6.14,0,10.94,1.36,14.41,4.09,3.46,2.72,5.19,6.57,5.19,11.55,0,3.6-.73,6.58-2.19,8.95-1.46,2.37-3.74,4.29-6.85,5.76l10.81,20.91v.53h-13.38l-9.14-18.32Zm-6.76-9.6h7.9c2.37,0,4.16-.62,5.35-1.87,1.2-1.25,1.8-2.99,1.8-5.22s-.61-3.99-1.81-5.26c-1.21-1.27-2.99-1.91-5.34-1.91h-7.9v14.26Z"/><path class="cls-2" d="M543.57,43.62h-17.11l-2.99,9.68h-13.34L529.13,1.5h11.74l19.14,51.79h-13.41l-3.02-9.68Zm-14.12-9.64h11.13l-5.59-17.96-5.55,17.96Z"/><path class="cls-1" d="M175.73,103.38c-.4,3.58-1.63,6.75-3.66,9.52-2.04,2.76-4.7,4.89-7.97,6.37-3.27,1.48-6.81,2.19-10.6,2.12-3.41-.07-6.39-.86-8.93-2.37-2.54-1.51-4.54-3.69-5.99-6.54-1.46-2.86-2.28-6.15-2.47-9.87-.17-2.92,.14-6.54,.91-10.88,.77-4.34,2.15-8.19,4.13-11.56,1.98-3.37,4.33-6.03,7.06-8,3.84-2.75,8.23-4.08,13.16-3.98,5.36,.1,9.61,1.75,12.75,4.96,3.14,3.22,4.87,7.68,5.18,13.39l-10.39-.04c0-3.27-.65-5.67-1.96-7.18-1.3-1.52-3.33-2.32-6.08-2.42-3.56-.12-6.48,1.15-8.77,3.81-2.29,2.66-3.82,6.53-4.61,11.63-.76,4.96-1.09,8.67-1,11.13,.12,3.13,.82,5.44,2.1,6.92,1.28,1.48,3.07,2.26,5.37,2.33,3.18,.12,5.72-.63,7.63-2.26,1.91-1.62,3.17-3.95,3.79-6.99l10.35-.07Z"/><polygon class="cls-1" points="191.2 120.67 180.78 120.67 189.74 68.88 200.16 68.88 191.2 120.67"/><polygon class="cls-1" points="245.37 77.52 230.01 77.52 222.54 120.67 212.11 120.67 219.58 77.52 204.4 77.52 205.93 68.88 246.9 68.88 245.37 77.52"/><polygon class="cls-1" points="255.19 120.67 244.77 120.67 253.73 68.88 264.16 68.88 255.19 120.67"/><polygon class="cls-1" points="299.23 98.16 279.38 98.16 276.96 112.1 300.3 112.1 298.8 120.67 265.05 120.67 274.05 68.88 307.73 68.88 306.2 77.52 282.97 77.52 280.8 89.87 300.72 89.87 299.23 98.16"/><path class="cls-1" d="M333.63,106.84c.5-2.82-.89-4.98-4.16-6.48l-6.87-2.74c-7.97-3.56-11.75-8.45-11.35-14.69,.17-2.89,1.12-5.45,2.85-7.68,1.73-2.23,4.16-3.98,7.29-5.25,3.13-1.27,6.51-1.88,10.14-1.83,5,.1,9.05,1.58,12.13,4.47,3.08,2.88,4.6,6.74,4.55,11.58h-10.39c.12-2.35-.4-4.17-1.55-5.48-1.15-1.3-2.93-1.98-5.35-2.03-2.37-.05-4.43,.49-6.19,1.62-1.75,1.13-2.8,2.67-3.13,4.64-.45,2.59,1.28,4.64,5.19,6.15l4.7,1.78,2.7,1.25c7,3.46,10.27,8.32,9.82,14.59-.21,3.06-1.19,5.7-2.93,7.91-1.74,2.22-4.12,3.92-7.12,5.11-3,1.18-6.3,1.74-9.91,1.67-3.68-.07-6.95-.84-9.82-2.31-2.87-1.47-5.05-3.54-6.54-6.22-1.4-2.49-2.05-5.33-1.96-8.54l10.42,.04c-.33,5.62,2.43,8.48,8.29,8.57,2.54,0,4.62-.56,6.26-1.67,1.64-1.11,2.61-2.6,2.92-4.45"/></g></svg>