<?xml version="1.0" encoding="UTF-8"?>
<svg id="Livello_1" data-name="Livello 1" xmlns="http://www.w3.org/2000/svg" viewBox="0 0 560 117.83">
  <defs>
    <style>
      .cls-1 {
        fill: #1a3763;
      }

      .cls-2 {
        fill: #193660;
      }

      .cls-3 {
        fill: #4ec4d0;
      }

      .cls-4 {
        isolation: isolate;
      }
    </style>
  </defs>
  <g class="cls-4">
    <g id="Layer-1">
      <g>
        <path class="cls-1" d="M165.16,37.88c-.21-.86-.43-1.14-1.14-1.14s-.93,.29-1.14,1.14l-5.14,21.2h12.56l-5.14-21.2Zm19.28,44.12h-7.57c-.64,0-1.21-.57-1.36-1.21l-3.28-13.56h-16.42l-3.28,13.56c-.14,.64-.72,1.21-1.36,1.21h-7.57c-.71,0-1.28-.5-1.28-1.21,0-.07,.07-.21,.07-.35l11.71-44.76c1.71-6.64,6.85-7.28,9.92-7.28s8.21,.64,9.92,7.28l11.71,44.76c0,.14,.07,.28,.07,.35,0,.72-.57,1.21-1.28,1.21"/>
        <path class="cls-1" d="M215.78,55.02c0-3.43-1.5-6.07-7.64-6.07s-7.71,2.71-7.71,6.07v.57c0,2.64,1.07,5.64,7.71,5.64,5.92,0,7.64-2.07,7.64-5.64v-.57Zm.79,29.77c0-1.57-.93-2.5-8.43-4.28l-6.35-1.5c-1.07,1.5-1.78,2.43-1.78,5v.64c0,2.93,1.78,4.71,8.5,4.71s8.07-1.5,8.07-4.07v-.5Zm9.07-36.55l-2.36,.93c1.14,1.64,1.79,3.21,1.79,5.71v.5c0,8.92-6.14,12.99-16.92,12.99-3.78,0-6.35-.64-7.78-1.21-.86,.57-1.21,1.21-1.21,1.86,0,1.43,.79,2,2.43,2.36l8.42,2c9.71,2.28,15.99,3.78,15.99,11.42v.5c0,7.28-5.35,11.21-17.49,11.21s-17.71-4.36-17.71-11.85v-.64c0-2.93,1.36-5.78,3.64-7.85-2-1.5-3.21-4-3.21-6.57v-.07c0-2.21,.93-4.43,2.86-5.78-2.14-2.21-2.93-4.78-2.93-8.35v-.5c0-7.14,4.64-13.14,16.99-13.14h16.71c1.07,0,1.93,.86,1.93,1.93v3c0,1.07-.28,1.21-1.14,1.57"/>
        <path class="cls-1" d="M252.69,49.23c-3.85,0-6.85,1-9.85,2.57v28.7c0,.78-.64,1.5-1.43,1.5h-6.57c-.79,0-1.43-.72-1.43-1.5V43.17c0-.79,.64-1.43,1.43-1.43h6.21c.79,0,1.43,.64,1.43,1.43v1.5c3.5-2.71,7.35-3.43,10.21-3.43,.79,0,1.43,.64,1.43,1.43v5.14c0,.78-.64,1.43-1.43,1.43"/>
        <path class="cls-1" d="M268.4,82h-6.57c-.79,0-1.43-.71-1.43-1.5V43.17c0-.79,.64-1.43,1.43-1.43h6.57c.79,0,1.43,.64,1.43,1.43v37.34c0,.79-.64,1.5-1.43,1.5m.21-45.62h-6.92c-.79,0-1.5-.64-1.5-1.43v-6.28c0-.79,.71-1.43,1.5-1.43h6.92c.79,0,1.43,.64,1.43,1.43v6.28c0,.79-.64,1.43-1.43,1.43"/>
        <path class="cls-1" d="M313.31,81.36c-3.57,.71-8.21,1.21-15.57,1.21s-19.13-5.07-19.13-21.92v-10.28c0-16.92,10.85-21.99,19.35-21.99,6.85,0,13,.86,15.35,1.28,.93,.21,1.36,.57,1.36,1.5v4.78c0,1-.28,1.5-1.43,1.5h-.21c-3.28-.29-8.21-.57-15.06-.57-4.78,0-9.35,3.36-9.35,13.49v10.28c0,10.14,4.93,13.42,9.14,13.42,2.64,0,4.86-.07,7.07-.21v-18.2c0-.79,.57-1.43,1.36-1.43h7.07c.79,0,1.43,.64,1.43,1.43v23.99c0,.93-.43,1.5-1.36,1.71"/>
        <path class="cls-1" d="M345.09,64.3h-4.5c-6.5,0-7.92,2.07-7.92,6.07v.28c0,3.5,1.57,4.43,5.14,4.43,2.57,0,5.21-.86,7.28-2v-8.78Zm8,17.71h-6.07c-.79,0-1.43-.64-1.43-1.43v-1.14c-3.28,2-6.64,3.14-10.07,3.14-5.92,0-12.35-2.28-12.35-11.92v-.28c0-8.14,5-12.35,17.42-12.35h4.5v-3.14c0-4.64-2.07-5.78-6.28-5.78-4.57,0-9.28,.28-11.64,.57h-.36c-.71,0-1.28-.21-1.28-1.21v-4.57c0-.79,.43-1.29,1.36-1.5,2.86-.57,7-1.14,11.92-1.14,10.14,0,15.71,4.5,15.71,13.64v25.7c0,.79-.64,1.43-1.43,1.43"/>
        <path class="cls-1" d="M382.93,82.07c-1.71,.28-3.28,.5-4.85,.5-8.07,0-11.35-1.79-11.35-11.35v-22.42l-6.71-1c-.79-.14-1.43-.64-1.43-1.43v-3.21c0-.79,.64-1.43,1.43-1.43h6.71v-5.85c0-.79,.64-1.28,1.43-1.43l6.64-1.14h.28c.64,0,1.14,.36,1.14,1.07v7.35h6.43c.79,0,1.43,.64,1.43,1.43v4.21c0,.79-.64,1.43-1.43,1.43h-6.43v22.42c0,3.57,.21,4,2.78,4h3.78c.93,0,1.5,.36,1.5,1.07v4.5c0,.71-.43,1.14-1.36,1.28"/>
        <path class="cls-1" d="M414.13,58.16c0-5.57-3.07-8.78-7.5-8.78s-7.64,3.14-7.64,8.78v.28h15.14v-.28Zm8.07,7h-23.27v.21c0,4.14,1.71,9.07,8.57,9.07,5.21,0,10.14-.43,13.14-.71h.21c.71,0,1.28,.36,1.28,1.07v4.71c0,1.14-.21,1.64-1.5,1.86-4.64,.86-7.43,1.21-13.85,1.21-7.14,0-17.28-3.85-17.28-17.92v-5.28c0-11.14,6.21-18.13,17.13-18.13s16.99,7.5,16.99,18.13v4c0,1.14-.43,1.79-1.43,1.79"/>
        <path class="cls-1" d="M483.67,43.38l-6.5,32.84c-.86,4.29-2,6-6.35,6h-1.93c-3.85,0-5.85-1.86-6.78-5.57l-5.64-21.85c-.07-.28-.07-.36-.21-.36s-.14,.07-.21,.36l-5.64,21.85c-.93,3.71-2.93,5.57-6.78,5.57h-1.93c-4.36,0-5.5-1.71-6.35-6l-6.5-32.84v-.21c0-.79,.64-1.43,1.43-1.43h6.92c.72,0,1.22,.64,1.29,1.28l4.5,30.2c.07,.64,.21,1,.36,1s.36-.29,.5-1l5.93-23.99c.71-2.78,1.57-3.07,4-3.07h5c2.43,0,3.28,.29,4,3.07l5.93,23.99c.14,.71,.35,1,.5,1s.29-.36,.36-1l4.5-30.2c.07-.64,.57-1.28,1.28-1.28h6.93c.78,0,1.43,.64,1.43,1.43v.21Z"/>
        <path class="cls-1" d="M509.52,64.3h-4.5c-6.5,0-7.92,2.07-7.92,6.07v.28c0,3.5,1.57,4.43,5.14,4.43,2.57,0,5.21-.86,7.28-2v-8.78Zm8,17.71h-6.07c-.79,0-1.43-.64-1.43-1.43v-1.14c-3.28,2-6.64,3.14-10.07,3.14-5.93,0-12.35-2.28-12.35-11.92v-.28c0-8.14,5-12.35,17.42-12.35h4.5v-3.14c0-4.64-2.07-5.78-6.28-5.78-4.57,0-9.28,.28-11.64,.57h-.36c-.71,0-1.28-.21-1.28-1.21v-4.57c0-.79,.43-1.29,1.36-1.5,2.86-.57,7-1.14,11.93-1.14,10.14,0,15.71,4.5,15.71,13.64v25.7c0,.79-.64,1.43-1.43,1.43"/>
        <path class="cls-1" d="M559.93,43.38l-11.92,41.69c-2.21,7.78-4.85,11.21-14.56,11.21-2.36,0-5.92-.43-7.57-.93-.79-.21-1.5-.5-1.5-1.21v-4.57c0-.79,.64-1.28,1.43-1.28h.14c2,.07,6.07,.43,8.07,.43,3.07,0,4.64-.86,5.64-4.57l.57-2.14h-1.07c-2.07,0-4.64-.5-6.21-5.93l-9.35-32.7c-.07-.21-.07-.36-.07-.5,0-.71,.43-1.14,1.36-1.14h7.21c.64,0,1.21,.64,1.36,1.28l7.21,29.06c.29,1.21,.57,1.57,1,1.57h.64l7.71-30.7c.14-.64,.71-1.21,1.43-1.21h7.28c.71,0,1.28,.57,1.28,1.21,0,.14,0,.28-.07,.43"/>
        <path class="cls-3" d="M99.86,34.51c9.42,0,17.05-7.63,17.05-17.05S109.27,.41,99.86,.41s-17.05,7.63-17.05,17.05,7.63,17.05,17.05,17.05"/>
        <path class="cls-3" d="M113.84,33.9c-4.32,3.68-10.1,5.7-16.34,5.03-10.33-1.1-18.52-9.68-19.19-20.05-.37-5.73,1.52-11.02,4.85-15.08,1.25-1.52,.18-3.81-1.79-3.81h-17.85c-.92,0-1.77,.54-2.13,1.39-2.51,5.98-3.67,12.66-3.08,19.67,1.71,20.16,18.05,36.4,38.22,37.97,7.04,.55,13.75-.67,19.75-3.25,.84-.36,1.37-1.21,1.37-2.12v-17.97c0-1.97-2.31-3.06-3.81-1.78"/>
        <path class="cls-3" d="M114.57,62.17c-6.17,2.04-12.89,2.84-19.88,2.08-21.68-2.34-39.11-19.68-41.59-41.34-.8-6.97-.04-13.68,1.95-19.84C55.54,1.56,54.44,0,52.85,0h-16.04c-1.06,0-2.01,.72-2.26,1.75-1.22,5.04-1.87,10.3-1.87,15.71s.69,10.91,1.96,16.07c24.36,6.29,43.27,25.01,49.81,49.3,4.95,1.17,10.1,1.81,15.4,1.81s10.91-.69,16.05-1.96c1.03-.26,1.74-1.19,1.74-2.26v-16.05c0-1.6-1.57-2.7-3.09-2.2"/>
        <path class="cls-2" d="M22.3,57.44c-7.04-.55-13.75,.67-19.75,3.25-.84,.36-1.37,1.21-1.37,2.12v17.97c0,1.97,2.31,3.06,3.81,1.78,4.32-3.68,10.1-5.7,16.34-5.03,10.33,1.1,18.52,9.68,19.19,20.05,.37,5.73-1.52,11.02-4.85,15.08-1.25,1.52-.18,3.81,1.78,3.81h17.85c.92,0,1.77-.54,2.13-1.39,2.51-5.98,3.67-12.66,3.08-19.67-1.71-20.16-18.05-36.39-38.22-37.97"/>
        <path class="cls-2" d="M18.98,81.96c-9.42,0-17.05,7.63-17.05,17.05s7.63,17.05,17.05,17.05,17.05-7.63,17.05-17.05-7.63-17.05-17.05-17.05"/>
        <path class="cls-2" d="M84.12,89.91h0c-.3-1.8-.64-3.6-1.08-5.37-.19-.77-.61-2.26-.59-2.26-6.37-22.74-24.4-40.6-47.23-46.74-.57-.15-1.13-.34-1.71-.48-2.64-.63-5.34-1.11-8.08-1.43-2.5-.29-5.04-.45-7.62-.45-5.53,0-10.91,.69-16.05,1.96-1.03,.25-1.74,1.19-1.74,2.25v16.06c0,1.6,1.57,2.7,3.09,2.19,6.16-2.04,12.88-2.84,19.88-2.08,21.68,2.34,39.11,19.67,41.59,41.34,.8,6.97,.04,13.68-1.95,19.84-.49,1.51,.61,3.07,2.2,3.07h16.03c1.06,0,2.01-.72,2.26-1.75,1.22-5.04,1.87-10.3,1.87-15.71,0-3.56-.31-7.04-.85-10.45"/>
      </g>
    </g>
  </g>
</svg>