<?xml version="1.0" encoding="UTF-8"?>
<svg xmlns="http://www.w3.org/2000/svg" viewBox="0 0 60 60">
  <g id="bg" style="fill: #999;">
    <g>
      <path d="M30,59c-15.99,0-29-13.01-29-29S14.01,1,30,1s29,13.01,29,29-13.01,29-29,29Z"/>
      <path d="M30,2c15.44,0,28,12.56,28,28s-12.56,28-28,28S2,45.44,2,30,14.56,2,30,2M30,0C13.43,0,0,13.43,0,30s13.43,30,30,30,30-13.43,30-30S46.57,0,30,0h0Z" style="fill: #fff;"/>
    </g>
  </g>
  <g id="ico">
    <path d="M23.31,43.68v-2.91l4.21-2.95v-5.71l-11.2,4.5v-3.57l11.2-7.87v-6.36c0-.68.24-1.26.73-1.75.49-.49,1.07-.73,1.75-.73s1.26.24,1.75.73c.49.49.73,1.07.73,1.75v6.36l11.2,7.87v3.57l-11.2-4.5v5.71l4.2,2.95v2.91l-6.67-2.02-6.69,2.02Z" style="fill: #fff;"/>
  </g>
</svg>