<?xml version="1.0" encoding="UTF-8"?>
<svg xmlns="http://www.w3.org/2000/svg" viewBox="0 0 60 60">
  <g id="bg">
    <g>
      <path d="M30,59c-15.99,0-29-13.01-29-29S14.01,1,30,1s29,13.01,29,29-13.01,29-29,29Z"/>
      <path d="M30,2c15.44,0,28,12.56,28,28s-12.56,28-28,28S2,45.44,2,30,14.56,2,30,2M30,0C13.43,0,0,13.43,0,30s13.43,30,30,30,30-13.43,30-30S46.57,0,30,0h0Z" style="fill: #fff;"/>
    </g>
  </g>
  <g id="ico">
    <path d="M14.88,39.08v-20.16h2.16v13.68h11.88v-10.8h11.16c1.39,0,2.57.49,3.56,1.48.99.99,1.48,2.17,1.48,3.56v12.24h-2.16v-4.32h-25.92v4.32h-2.16ZM22.8,30.52c-1.02,0-1.89-.36-2.61-1.07-.72-.72-1.07-1.59-1.07-2.61s.36-1.89,1.07-2.61c.72-.72,1.59-1.07,2.61-1.07s1.89.36,2.61,1.07c.72.72,1.07,1.59,1.07,2.61,0,1.02-.36,1.89-1.07,2.61-.72.72-1.59,1.07-2.61,1.07Z" style="fill: #fff;"/>
  </g>
</svg>