<?xml version="1.0" encoding="UTF-8"?>
<svg id="Livello_1" data-name="Livello 1" xmlns="http://www.w3.org/2000/svg" viewBox="0 0 18 17.21">
  <defs>
    <style>
      .cls-1 {
        fill: #002e67;
      }
    </style>
  </defs>
  <path class="cls-1" d="M4.09,17.21H.23V5.6h3.86v11.61ZM2.16,4.01h-.03c-1.29,0-2.13-.89-2.13-2.01S.86,0,2.18,0s2.13.87,2.16,2.01c0,1.11-.84,2.01-2.18,2.01ZM18,17.21h-3.86v-6.21c0-1.56-.56-2.63-1.95-2.63-1.07,0-1.7.72-1.98,1.41-.1.25-.13.59-.13.94v6.48h-3.86s.05-10.52,0-11.61h3.86v1.64c.51-.79,1.43-1.92,3.48-1.92,2.54,0,4.44,1.66,4.44,5.22v6.66Z"/>
  <path class="cls-1" d="M10.08,7.28v-.04s-.02.03-.03.04h.03Z"/>
</svg>