<?xml version="1.0" encoding="UTF-8"?>
<svg xmlns="http://www.w3.org/2000/svg" viewBox="0 0 60 60">
  <g id="bg" style="fill: #999;">
    <g>
      <path d="M30,59c-15.99,0-29-13.01-29-29S14.01,1,30,1s29,13.01,29,29-13.01,29-29,29Z"/>
      <path d="M30,2c15.44,0,28,12.56,28,28s-12.56,28-28,28S2,45.44,2,30,14.56,2,30,2M30,0C13.43,0,0,13.43,0,30s13.43,30,30,30,30-13.43,30-30S46.57,0,30,0h0Z" style="fill: #fff;"/>
    </g>
  </g>
  <g id="ico">
    <path d="M19.2,34.48v-13.4c0-1.11.3-1.99.9-2.65.6-.66,1.4-1.17,2.4-1.52,1-.35,2.15-.58,3.45-.7,1.3-.11,2.65-.17,4.04-.17,1.49,0,2.89.06,4.21.17,1.31.11,2.46.34,3.44.69.98.35,1.75.86,2.31,1.52.56.67.84,1.55.84,2.66v13.4c0,1.29-.44,2.37-1.33,3.26-.89.89-1.98,1.33-3.26,1.33l2.16,2.16v.72h-2.05l-2.88-2.88h-6.87l-2.88,2.88h-2.05v-.72l2.16-2.16c-1.29,0-2.37-.44-3.26-1.33-.89-.89-1.33-1.98-1.33-3.26ZM21.36,27.56h7.56v-5.37h-7.56v5.37ZM31.08,27.56h7.56v-5.37h-7.56v5.37ZM24.96,35.2c.54,0,.99-.18,1.35-.53.36-.35.54-.8.54-1.35s-.18-.99-.53-1.35c-.35-.36-.8-.54-1.35-.54-.54,0-.99.18-1.35.53-.36.35-.54.8-.54,1.35s.18.99.53,1.35c.35.36.8.54,1.35.54ZM35.04,35.2c.54,0,.99-.18,1.35-.53.36-.35.54-.8.54-1.35s-.18-.99-.53-1.35c-.35-.36-.8-.54-1.35-.54-.54,0-.99.18-1.35.53-.36.35-.54.8-.54,1.35s.18.99.53,1.35c.35.36.8.54,1.35.54Z" style="fill: #fff;"/>
  </g>
</svg>