<?xml version="1.0" encoding="UTF-8"?>
<svg id="Livello_1" data-name="Livello 1" xmlns="http://www.w3.org/2000/svg" viewBox="0 0 20 20.03">
  <defs>
    <style>
      .cls-1 {
        fill: #002e67;
      }
    </style>
  </defs>
  <path class="cls-1" d="M18.91,20.03l-3.33-3.33v2.68h-1.56v-5.35h5.35v1.56h-2.71l3.33,3.33-1.09,1.11ZM9.87,19.75c-1.37,0-2.65-.26-3.85-.78-1.2-.52-2.25-1.22-3.13-2.11-.89-.89-1.59-1.93-2.11-3.13-.52-1.2-.78-2.48-.78-3.85s.26-2.65.78-3.85c.52-1.2,1.22-2.25,2.11-3.14s1.93-1.59,3.13-2.11c1.2-.52,2.48-.78,3.85-.78s2.65.26,3.85.78c1.2.52,2.25,1.22,3.14,2.11.89.89,1.59,1.93,2.11,3.13.52,1.2.78,2.48.78,3.85,0,.31-.01.63-.04.94-.03.31-.07.63-.13.94h-1.6c.07-.31.13-.63.16-.94.04-.31.06-.63.06-.94,0-.38-.02-.76-.07-1.13-.05-.38-.13-.75-.23-1.13h-3.86c.07.37.11.75.14,1.13.03.38.04.75.04,1.13,0,.31-.01.63-.03.94-.02.31-.05.63-.09.94h-1.56c.04-.31.07-.63.09-.94.02-.31.03-.63.03-.94,0-.38-.01-.76-.04-1.13-.03-.38-.08-.75-.14-1.13h-5.16c-.07.37-.11.75-.14,1.13-.03.38-.04.76-.04,1.13s.01.76.04,1.13c.03.38.08.75.14,1.12h3.82v1.56h-3.46c.23.82.53,1.6.89,2.35.36.75.81,1.46,1.33,2.12.31,0,.63-.02.94-.05.31-.04.63-.07.94-.11v1.58c-.31.03-.63.07-.94.11-.31.04-.63.06-.94.06ZM1.87,12.13h3.86c-.07-.37-.11-.75-.14-1.13-.03-.38-.04-.76-.04-1.13s.01-.76.04-1.13c.03-.38.08-.75.14-1.12H1.87c-.11.37-.18.75-.23,1.13-.05.38-.07.76-.07,1.13s.02.76.07,1.13c.05.38.13.75.23,1.12ZM2.52,6.06h3.52c.18-.75.42-1.48.71-2.19.3-.7.66-1.38,1.1-2.02-1.17.26-2.21.76-3.14,1.49-.93.74-1.66,1.64-2.2,2.72ZM7.86,17.9c-.42-.65-.78-1.33-1.08-2.03-.3-.7-.55-1.43-.73-2.18h-3.53c.54,1.07,1.28,1.97,2.21,2.71.93.74,1.97,1.24,3.13,1.5ZM7.65,6.06h4.45c-.22-.82-.52-1.6-.89-2.34-.37-.74-.82-1.45-1.33-2.13-.52.66-.96,1.37-1.33,2.12-.37.75-.67,1.54-.89,2.35ZM13.7,6.06h3.53c-.54-1.08-1.28-1.98-2.2-2.72-.93-.74-1.97-1.23-3.14-1.49.42.65.77,1.33,1.06,2.04.29.71.54,1.43.75,2.17Z"/>
</svg>