<?xml version="1.0" encoding="UTF-8"?>
<svg id="Livello_1" data-name="Livello 1" xmlns="http://www.w3.org/2000/svg" viewBox="0 0 530 529.23">
  <defs>
    <style>
      .cls-1 {
        fill: #002e67;
      }

      .cls-2 {
        fill: #fff;
      }

      .cls-3 {
        fill: #9ed9e2;
      }

      .cls-4 {
        fill: #ceecf1;
      }

      .cls-5 {
        fill: #5dc0cf;
      }
    </style>
  </defs>
  <g id="Online_workshop" data-name="Online workshop">
    <path class="cls-4" d="m6.14,433.64c15.63,37.88,52.12,55.81,75.45,67.27,91.93,45.17,231.55,39.96,332.02-42.29,23.51-19.25,139.39-120.09,112.33-256.75C502.01,81.06,381.95,10.92,280.87,1.55,197.13-6.21,87.78,24.22,49.17,97.89c-24.28,46.32,4.93,61.06-14.89,166.04-17.16,90.87-47.26,123.38-28.14,169.71Z"/>
    <g>
      <g>
        <g>
          <rect class="cls-3" x="90.7" y="31.75" width="435.6" height="347.9" rx="20.05" ry="20.05"/>
          <path class="cls-3" d="m526.39,74.62H90.8v-22.76c0-11.1,9-20.1,20.1-20.1h395.39c11.1,0,20.1,9,20.1,20.1v22.76Z"/>
          <rect class="cls-4" x="123.57" y="105.08" width="369.85" height="242.32" rx="16.61" ry="16.61"/>
        </g>
        <g>
          <circle class="cls-2" cx="456.22" cy="53.95" r="7.32" transform="translate(298.9 485.57) rotate(-76.72)"/>
          <circle class="cls-2" cx="480.15" cy="53.95" r="7.32" transform="translate(317.32 508.86) rotate(-76.72)"/>
          <circle class="cls-2" cx="504.07" cy="53.95" r="7.32" transform="translate(109.49 372.23) rotate(-45)"/>
        </g>
        <path class="cls-2" d="m476.81,348.35H140.18c-9.69,0-17.57-7.88-17.57-17.57v-115.86c0-.53.43-.96.96-.96s.96.43.96.96v115.86c0,8.63,7.02,15.65,15.65,15.65h336.62c8.63,0,15.65-7.02,15.65-15.65V121.69c0-8.63-7.02-15.65-15.65-15.65h-188.24c-.53,0-.96-.43-.96-.96s.43-.96.96-.96h188.24c9.69,0,17.57,7.88,17.57,17.57v209.09c0,9.69-7.88,17.57-17.57,17.57Z"/>
        <path class="cls-1" d="m506.24,380.61h-156.48c-.53,0-.96-.43-.96-.96s.43-.96.96-.96h156.48c10.53,0,19.09-8.56,19.09-19.09V51.81c0-10.53-8.56-19.09-19.09-19.09h-217.94c-.53,0-.96-.43-.96-.96s.43-.96.96-.96h217.94c11.59,0,21.01,9.43,21.01,21.01v307.79c0,11.59-9.43,21.01-21.01,21.01Z"/>
      </g>
      <g>
        <rect class="cls-2" x="8.25" y=".96" width="264.13" height="196.69" rx="13.44" ry="13.44"/>
        <g>
          <g>
            <path class="cls-4" d="m246.84,25.78h-44.99c-1.86,0-3.37-1.51-3.37-3.37h0c0-1.86,1.51-3.37,3.37-3.37h44.99c1.86,0,3.37,1.51,3.37,3.37h0c0,1.86-1.51,3.37-3.37,3.37Z"/>
            <path class="cls-4" d="m256.5,40.2h-64.43c-1.86,0-3.37-1.51-3.37-3.37h0c0-1.86,1.51-3.37,3.37-3.37h64.43c1.86,0,3.37,1.51,3.37,3.37h0c0,1.86-1.51,3.37-3.37,3.37Z"/>
            <path class="cls-4" d="m256.66,67.3h-64.38c-1.86,0-3.37-1.51-3.37-3.37h0c0-1.86,1.51-3.37,3.37-3.37h64.38c1.86,0,3.37,1.51,3.37,3.37h0c0,1.86-1.51,3.37-3.37,3.37Z"/>
            <path class="cls-4" d="m256.45,80.31h-62.98c-1.86,0-3.37-1.51-3.37-3.37h0c0-1.86,1.51-3.37,3.37-3.37h62.98c1.86,0,3.37,1.51,3.37,3.37h0c0,1.86-1.51,3.37-3.37,3.37Z"/>
            <path class="cls-4" d="m256.88,93.54h-62.98c-1.86,0-3.37-1.51-3.37-3.37h0c0-1.86,1.51-3.37,3.37-3.37h62.98c1.86,0,3.37,1.51,3.37,3.37h0c0,1.86-1.51,3.37-3.37,3.37Z"/>
            <path class="cls-4" d="m256.66,106.56h-64.38c-1.86,0-3.37-1.51-3.37-3.37h0c0-1.86,1.51-3.37,3.37-3.37h64.38c1.86,0,3.37,1.51,3.37,3.37h0c0,1.86-1.51,3.37-3.37,3.37Z"/>
            <path class="cls-4" d="m256.45,120h-64.38c-1.86,0-3.37-1.51-3.37-3.37h0c0-1.86,1.51-3.37,3.37-3.37h64.38c1.86,0,3.37,1.51,3.37,3.37h0c0,1.86-1.51,3.37-3.37,3.37Z"/>
            <path class="cls-4" d="m215.64,54.33h-23.45c-1.86,0-3.37-1.51-3.37-3.37h0c0-1.86,1.51-3.37,3.37-3.37h23.45c1.86,0,3.37,1.51,3.37,3.37h0c0,1.86-1.51,3.37-3.37,3.37Z"/>
            <path class="cls-4" d="m256.82,54.33h-24.74c-1.86,0-3.37-1.51-3.37-3.37h0c0-1.86,1.51-3.37,3.37-3.37h24.74c1.86,0,3.37,1.51,3.37,3.37h0c0,1.86-1.51,3.37-3.37,3.37Z"/>
          </g>
          <g>
            <path class="cls-4" d="m89.26,130.72H25.8c-1.86,0-3.37-1.51-3.37-3.37h0c0-1.86,1.51-3.37,3.37-3.37h63.45c1.86,0,3.37,1.51,3.37,3.37h0c0,1.86-1.51,3.37-3.37,3.37Z"/>
            <path class="cls-4" d="m149.49,130.51h-48.58c-1.86,0-3.37-1.51-3.37-3.37h0c0-1.86,1.51-3.37,3.37-3.37h48.58c1.86,0,3.37,1.51,3.37,3.37h0c0,1.86-1.51,3.37-3.37,3.37Z"/>
            <path class="cls-4" d="m70.31,116.69H25.59c-1.86,0-3.37-1.51-3.37-3.37h0c0-1.86,1.51-3.37,3.37-3.37h44.72c1.86,0,3.37,1.51,3.37,3.37h0c0,1.86-1.51,3.37-3.37,3.37Z"/>
          </g>
          <rect class="cls-4" x="22.05" y="139.8" width="132.3" height="48.22" rx="4.69" ry="4.69"/>
          <rect class="cls-4" x="165.02" y="139.8" width="97.3" height="48.22" rx="4.69" ry="4.69"/>
          <path class="cls-1" d="m27.18,18.81h147.87c2.83,0,5.12,2.29,5.12,5.12v64.24c0,2.83-2.29,5.12-5.12,5.12H27.18c-2.83,0-5.12-2.29-5.12-5.12V23.93c0-2.83,2.29-5.12,5.12-5.12Z"/>
          <g>
            <path class="cls-2" d="m91.07,56.73h-7.13v7.59c0,.26-.21.47-.46.47h-1.18c-.26,0-.46-.21-.46-.47v-12.63c0-3.09,1.69-4.32,4.94-4.32,1.37,0,3.55.05,4.53.14.14.02.23.19.23.32v1.16c0,.16-.09.28-.26.28h-4.48c-2.46,0-2.86.65-2.86,2.41v3.23s7.13,0,7.13,0c.26,0,.46.21.46.46v.88c0,.25-.21.46-.46.46"/>
            <path class="cls-2" d="m96.55,64.79h-1.28c-.23,0-.42-.21-.42-.46v-16.34c0-.23.16-.44.42-.44h1.28c.23,0,.42.18.42.44v16.34c0,.23-.16.46-.42.46"/>
            <path class="cls-2" d="m113.41,64.95c-1.21,0-2.32-.12-3.64-.58-1.32.46-2.41.58-3.62.58-3.53,0-4.92-2.3-4.92-6.34v-10.63c0-.23.19-.44.44-.44h1.23c.23,0,.44.21.44.44v10.63c0,3.13.63,4.55,3.25,4.55.39,0,1.62-.07,2.14-.21v-14.97c0-.23.19-.44.44-.44h1.25c.26,0,.42.16.42.42v15c.51.14,1.74.21,2.14.21,2.62,0,3.25-1.42,3.25-4.55v-10.63c0-.23.19-.44.44-.44h1.23c.23,0,.44.21.44.44v10.63c0,4.04-1.39,6.34-4.92,6.34"/>
            <path class="cls-2" d="m132.86,64.79h-1.28c-.23,0-.42-.21-.42-.47v-6.87h-7.1v6.87c0,.23-.16.47-.42.47h-1.28c-.23,0-.42-.23-.42-.47v-12.14c0-3.55,1.65-4.81,4.99-4.81h1.35c3.32,0,4.99,1.25,4.99,4.81v12.14c0,.23-.19.47-.42.47m-1.69-12.61c0-2.41-.77-2.95-2.88-2.95h-1.35c-2.11,0-2.88.53-2.88,2.95v3.41h7.1v-3.41Z"/>
            <path class="cls-2" d="m148.39,64.79h-1.49c-.28,0-.42,0-.6-.3l-4.16-6.92h-.6c-.77,0-1.32-.02-2.55-.07v6.83c0,.23-.16.46-.42.46h-1.25c-.23,0-.42-.21-.42-.46v-16.25c0-.32.14-.46.56-.51,1-.12,2.74-.19,4.09-.19,3.67,0,6.5,1.23,6.5,4.99v.16c0,2.6-1.53,4.13-3.64,4.69l4.23,7.06c.04.07.07.14.07.21s-.12.3-.3.3m-2.44-12.42c0-2.32-1.51-3.09-4.41-3.09-.72,0-2,0-2.55.07v6.36c1.02.02,2.02.05,2.55.05,2.85,0,4.41-.72,4.41-3.23v-.16Z"/>
            <path class="cls-2" d="m160.88,64.84c-.88.09-3.16.12-4.53.12-3.25,0-4.95-1.23-4.95-4.32v-8.94c0-3.09,1.7-4.32,4.95-4.32,1.37,0,3.55.05,4.53.14.14.02.23.19.23.32v1.16c0,.16-.09.28-.25.28h-4.48c-2.46,0-2.86.65-2.86,2.41v3.23h7.13c.26,0,.46.21.46.46v.88c0,.26-.21.46-.46.46h-7.13v3.9c0,1.76.4,2.41,2.86,2.41h4.48c.16,0,.25.12.25.28v1.18c0,.14-.09.3-.23.32"/>
            <path class="cls-2" d="m64.29,44.23c.9.15,1.69.43,2.35.82.66.39,1.18.89,1.54,1.46.37.58.57,1.23.59,1.92.02.7-.16,1.44-.54,2.19-.39.75-.96,1.44-1.65,2.04-.7.6-1.52,1.1-2.42,1.49-.9.38-1.86.65-2.84.77-.98.12-1.96.1-2.9-.09-.93-.19-1.73-.52-2.37-.96-.63-.44-1.11-.98-1.42-1.58-.31-.6-.44-1.27-.4-1.96.05-.69.27-1.41.69-2.12.42-.71.99-1.35,1.67-1.9.68-.55,1.46-1.01,2.3-1.36.84-.35,1.74-.6,2.65-.73.92-.13,1.85-.13,2.74.02"/>
            <path class="cls-2" d="m64.71,43.46c1.51.24,2.84.71,3.94,1.36,1.12.65,2.02,1.49,2.65,2.46.64.98,1.02,2.1,1.07,3.29.06,1.21-.21,2.5-.85,3.81-.65,1.33-1.62,2.54-2.82,3.59-1.2,1.06-2.63,1.95-4.19,2.62-1.56.68-3.24,1.13-4.94,1.33-1.69.19-3.39.13-4.99-.24-1.59-.36-2.93-.97-3.99-1.77-1.05-.79-1.82-1.75-2.3-2.82-.47-1.05-.66-2.21-.53-3.41.12-1.18.54-2.4,1.29-3.61.74-1.19,1.72-2.26,2.86-3.18,1.14-.91,2.44-1.68,3.84-2.26,1.39-.59,2.88-1,4.39-1.21,1.51-.21,3.06-.21,4.55.03m-8.17,14.74c1.27.27,2.6.31,3.93.16,1.33-.16,2.65-.52,3.87-1.04,1.22-.53,2.34-1.22,3.29-2.04.94-.82,1.71-1.76,2.23-2.79.51-1.02.74-2.03.7-2.99-.03-.94-.32-1.82-.82-2.6-.5-.77-1.2-1.43-2.09-1.96-.88-.52-1.94-.89-3.14-1.09-1.2-.2-2.44-.2-3.65-.03-1.21.17-2.41.5-3.52.97-1.12.47-2.16,1.08-3.07,1.81-.91.73-1.69,1.59-2.26,2.54-.58.96-.9,1.92-.98,2.86-.08.94.09,1.85.48,2.67.4.83,1.03,1.58,1.87,2.18.85.61,1.92,1.08,3.18,1.35"/>
            <path class="cls-2" d="m76.15,52.81c-.12-1.73-.69-3.34-1.64-4.74-.93-1.38-2.22-2.56-3.82-3.48-1.57-.9-3.44-1.56-5.55-1.89-2.09-.33-4.23-.32-6.34-.03-2.09.29-4.16.87-6.1,1.68-1.94.82-3.77,1.88-5.38,3.15-1.62,1.28-3.03,2.78-4.11,4.47-1.1,1.71-1.75,3.46-1.99,5.16-.25,1.73-.06,3.43.55,4.98.61,1.59,1.66,3.03,3.11,4.22,1.48,1.22,3.37,2.17,5.64,2.75,2.3.58,4.76.72,7.22.46,2.47-.26,4.92-.92,7.2-1.92,2.27-1,4.35-2.32,6.1-3.89,1.72-1.56,3.1-3.36,4.01-5.32.89-1.93,1.24-3.82,1.11-5.58m-2.89,3.55c-.78,1.64-1.95,3.13-3.41,4.43-1.47,1.31-3.22,2.41-5.13,3.24-1.91.83-3.97,1.39-6.04,1.62-2.07.23-4.14.13-6.09-.34-1.92-.46-3.54-1.24-4.81-2.24-1.25-.98-2.16-2.18-2.71-3.5-.54-1.3-.73-2.72-.55-4.18.18-1.44.71-2.92,1.63-4.38.9-1.44,2.1-2.72,3.48-3.82,1.37-1.09,2.94-2,4.61-2.71,1.67-.7,3.45-1.2,5.25-1.45,1.81-.25,3.66-.25,5.45.03,1.81.29,3.41.85,4.75,1.63,1.36.79,2.45,1.8,3.23,2.97.79,1.19,1.26,2.55,1.35,4.01.09,1.48-.22,3.07-.99,4.68"/>
          </g>
        </g>
        <path class="cls-1" d="m230.96,198.61H21.69c-7.94,0-14.4-6.46-14.4-14.4V14.4C7.29,6.46,13.75,0,21.69,0h237.25c7.94,0,14.4,6.46,14.4,14.4v124.34c0,.53-.43.96-.96.96s-.96-.43-.96-.96V14.4c0-6.88-5.6-12.48-12.48-12.48H21.69c-6.88,0-12.48,5.6-12.48,12.48v169.81c0,6.88,5.6,12.48,12.48,12.48h209.26c.53,0,.96.43.96.96s-.43.96-.96.96Z"/>
      </g>
      <g>
        <path class="cls-1" d="m478.25,347.27c-.61-3.2-1.2-5.58-1.72-7.83-3.91-16.66-8.1-30.24-11.16-39.4l-8.3-30.25-102.44,18.63s-3.32,22.37-10.08,58.86h133.71Z"/>
        <g>
          <path class="cls-1" d="m367.87,343.45c11.24,0,18.56-12.25,13.53-22.66-1.15-2.39-2.33-4.79-3.48-7.13-8.64-17.44-33.37-13.63-36.46,5.71-.05.34-.74.68-.79,1.03-1.6,12.24,7.82,23.06,19.75,23.06h7.45Z"/>
          <g>
            <path class="cls-5" d="m441.76,127.36c58.5,16.08,66.85,35.94,66.85,78.94,0,37.49-38.61,58.14-38.61,58.14,0,0,18.54,61.86,8.07,67.85-10.47,5.99-24.8,9.37-40.77,3.31-31.93-12.14-81.76-25.87-96.64-15.22,0,0,23.65-100.05,3.19-138.79,0,0-49.74-13.06-6.5-42.65,27.23-18.63,77.42-19,104.4-11.58Z"/>
            <g>
              <path class="cls-5" d="m353.33,191.43c-13.73,1.59-59.87,15.49-81.62,12.25-24.56-3.66-51.1-48.11-58.65-61.64-1.52-2.73-2.05-5.93-1.45-9.03.92-4.79,3.11-11.61,8.24-14.53,4.28-2.44,12.28-6.58,19.82,1.61,0,0,18.92,29.58,41.71,30.3,21.98.69,46.09-29.1,113.82-26.28l-41.87,67.31Z"/>
              <path class="cls-1" d="m227.38,148.23c-6.77,0-11.14-7.45-11.32-7.77-.26-.46-.11-1.05.35-1.31.46-.27,1.05-.11,1.31.35.04.07,4,6.81,9.66,6.81.04,0,.07,0,.11,0,4.4-.07,8.79-4.12,13.05-12.04.25-.47.83-.64,1.3-.39.47.25.64.83.39,1.3-4.61,8.58-9.56,12.98-14.72,13.05-.05,0-.09,0-.14,0Z"/>
            </g>
            <path class="cls-4" d="m416.86,246.16c-.36,0-.71-.21-.87-.56-.22-.48-.01-1.05.47-1.27,21.6-9.99,32.08-24.65,37.06-35.18,5.41-11.43,5.7-20.62,5.7-20.72.01-.53.45-.95.98-.94.53.01.95.45.94.98,0,.39-.3,9.62-5.85,21.4-5.11,10.85-15.86,25.94-38.03,36.19-.13.06-.27.09-.4.09Z"/>
            <path class="cls-4" d="m426.46,276.33c-.53,0-.95-.42-.96-.95,0-.53.42-.97.95-.97,26.5-.32,44.01-10.17,44.19-10.27.46-.26,1.05-.1,1.31.36.26.46.1,1.05-.36,1.31-.18.1-18.09,10.2-45.12,10.52h-.01Z"/>
          </g>
          <g>
            <path class="cls-2" d="m401.82,273.67s5.45.58,16.24-2.12c8.16-2.04,5.75-28.51-4.17-21.34-8.28,5.99-13.13,6.76-13.13,6.76l-7.99-3.98c-3.13-1.56-6.5-2.59-9.95-2.99-13.76-1.62-12.94,1.56-12.94,1.56-.59,3.21.56,3.7,3.09,4.76l10.77,4.53c1.49.63,1.84,2.66.63,3.77h0c-1.87,1.73-4.02,3.09-6.37,4.02-4.25,1.68-11.64,4.37-19.27,6.09-3.58.81-4.72,5.25-1.42,6.9l23.77,1.75c6.02.44,11.97-1.65,16.48-5.8l4.25-3.91Z"/>
            <path class="cls-1" d="m382.65,284.4c-.54,0-1.09-.02-1.63-.06l-23.77-1.75c-.12,0-.25-.04-.36-.1-1.77-.88-2.69-2.51-2.46-4.37.25-2.09,1.9-3.82,4.1-4.32,7.73-1.75,15.3-4.54,19.13-6.05,2.23-.88,4.28-2.17,6.07-3.82,0,0,0,0,.01-.01.32-.3.47-.75.39-1.21-.08-.45-.35-.8-.75-.97l-10.77-4.53c-2.52-1.06-4.35-1.83-3.68-5.68-.02-.38.11-.87.5-1.32,1.46-1.68,5.88-2.06,13.52-1.16,3.54.42,6.99,1.46,10.27,3.09l7.69,3.83c1.13-.27,5.59-1.58,12.44-6.53,2.78-2.01,4.89-1.51,6.16-.73,3.71,2.26,5.06,9.85,4.19,15.57-.69,4.54-2.65,7.53-5.38,8.21-9.23,2.31-14.6,2.26-16.13,2.17l-3.95,3.63c-4.27,3.93-9.87,6.11-15.57,6.11Zm-25.06-3.71l23.57,1.74c5.72.42,11.47-1.6,15.76-5.55l4.25-3.91c.2-.19.47-.28.75-.25h0c.05,0,5.46.52,15.91-2.09,1.94-.49,3.38-2.91,3.95-6.64.87-5.67-.67-12.04-3.29-13.64-1.15-.7-2.46-.49-4.03.65-8.37,6.05-13.33,6.9-13.54,6.93-.2.03-.4,0-.58-.09l-7.99-3.98c-3.08-1.53-6.32-2.51-9.64-2.9-10.12-1.19-11.7.33-11.87.54,0,.08,0,.16-.01.23-.45,2.46,0,2.65,2.51,3.7l10.77,4.53c1,.42,1.71,1.32,1.9,2.41.19,1.1-.18,2.21-.99,2.96,0,0-.01.01-.02.02-1.96,1.81-4.2,3.22-6.65,4.19-4.73,1.87-11.94,4.45-19.41,6.14-1.63.37-2.48,1.61-2.61,2.68-.12.98.34,1.82,1.26,2.34Zm13.23-29.36s0,0,0,0c0,0,0,0,0,0Zm0,0s0,0,0,0c0,0,0,0,0,0Zm0,0s0,0,0,0c0,0,0,0,0,0Z"/>
          </g>
          <g>
            <g>
              <path class="cls-2" d="m173.73,79.39c.52-1.57,2.08-2.5,3.65-2.15,4.36.96,26.84,5.91,31.03,6.86,4.19.95,4.36,5.62,6.75,9.89,2.08,3.72,9.22,17.33,17.01,26.82,2.35,2.86,2.67,6.96.85,10.2-1.05,1.86-2.38,3.69-3.96,4.77-4.06,2.77-7.12,6.08-15.27-13.43-.5-1.19-1.33-2.21-2.41-2.92-1.52-1-3.91-2.82-6.24-5.58,0,0-13.67,16.69-17.16-17.2-.31-3.01,1.03-5.95,3.57-7.43.2-.12.41-.24.64-.35l-16.37-5.25c-1.71-.55-2.65-2.47-2.06-4.23h0Z"/>
              <path class="cls-1" d="m224.68,138.87c-.38,0-.78-.05-1.18-.17-3.13-.91-6.3-5.69-10.6-15.97-.43-1.03-1.14-1.89-2.06-2.49-1.46-.96-3.58-2.57-5.73-4.95-1.52,1.53-5.09,4.52-8.9,3.38-4.75-1.43-7.84-8.8-9.2-21.91-.31-2.96.83-5.8,2.94-7.58l-14.45-4.63c-1.05-.34-1.92-1.08-2.43-2.09-.53-1.03-.62-2.26-.25-3.36h0c.68-2.04,2.72-3.24,4.76-2.79,7.33,1.61,27.18,5.99,31.03,6.86,3.42.78,4.53,3.61,5.7,6.61.48,1.24.98,2.52,1.67,3.75.23.41.52.93.86,1.56,2.74,5.01,9.17,16.74,16.05,25.12,2.59,3.15,2.96,7.69.94,11.28-1.33,2.36-2.76,4.07-4.25,5.1l-.53.37c-1.36.95-2.75,1.92-4.38,1.92Zm-19.55-25.98c.28,0,.55.12.73.34,2.23,2.65,4.51,4.4,6.03,5.4,1.24.81,2.19,1.97,2.77,3.36,3.89,9.3,6.95,14.16,9.36,14.87,1.22.35,2.29-.33,3.93-1.48l.55-.38c1.25-.85,2.48-2.35,3.66-4.45,1.64-2.91,1.33-6.58-.75-9.12-6.99-8.52-13.48-20.36-16.25-25.41-.34-.62-.63-1.14-.85-1.55-.75-1.35-1.28-2.69-1.79-3.99-1.22-3.12-2.02-4.91-4.34-5.43-3.85-.87-23.7-5.25-31.02-6.86-1.08-.24-2.16.42-2.53,1.52-.21.63-.16,1.3.14,1.89.28.55.74.95,1.3,1.13l16.37,5.25c.37.12.63.45.66.83.03.38-.17.75-.51.93-.21.11-.41.22-.6.33-2.16,1.26-3.37,3.81-3.1,6.5,1.57,15.27,5.13,19.45,7.83,20.27,3.71,1.12,7.59-3.54,7.63-3.58.18-.22.45-.35.74-.35h0Z"/>
            </g>
            <path class="cls-1" d="m208.25,107.16c-.16,0-.33-.04-.48-.13-1.1-.64-3.1-2.06-3.92-2.65-4.46-3.2-6.96-6.39-8.05-8-.79-1.17-1.19-2.49-1.16-3.81.07-2.58,1.77-3.17,2.49-3.43,2.77-.97,7.11,1.64,7.6,1.94.45.28.59.87.31,1.32-.28.45-.87.59-1.32.31-1.54-.95-4.51-2.26-5.96-1.76-.66.23-1.17.41-1.21,1.66-.02.92.26,1.84.83,2.68,1.02,1.51,3.36,4.49,7.57,7.51.62.44,2.71,1.93,3.76,2.55.46.27.61.86.35,1.31-.18.31-.5.48-.83.48Z"/>
            <path class="cls-1" d="m205.31,115c-.26,0-.51-.1-.7-.3-3.71-3.95-3.49-8.18-3.48-8.36.03-.53.49-.93,1.02-.9.53.03.93.49.9,1.01,0,.15-.15,3.61,2.96,6.92.36.39.34.99-.04,1.36-.19.17-.42.26-.66.26Z"/>
          </g>
        </g>
        <g>
          <g>
            <g>
              <path class="cls-2" d="m420.51,126.35l-1.48-40.07-28.11,14.76.31,25.33c.21,5.65,4.84,8.8,4.84,8.8,5.75,4.37,13.79,3.58,19.65-.63l1.36-.97c2.27-1.63,3.57-4.35,3.44-7.21Z"/>
              <path class="cls-1" d="m405.04,139.07c-3.46,0-6.8-1.04-9.56-3.14-.16-.11-5-3.46-5.22-9.53l-.31-25.35c0-.36.19-.69.51-.86l28.11-14.76c.29-.15.64-.15.93.02.29.17.47.47.48.8l1.48,40.07c.14,3.2-1.29,6.2-3.84,8.03l-1.36.97c-3.48,2.5-7.43,3.76-11.23,3.76Zm-13.16-37.45l.3,24.74c.18,5.05,4.38,7.99,4.42,8.02,5.08,3.86,12.69,3.59,18.55-.62l1.36-.97c2.02-1.45,3.15-3.84,3.04-6.38,0,0,0,0,0,0l-1.43-38.55-26.24,13.78Z"/>
            </g>
            <path class="cls-1" d="m378.15,40.38c7.5-.45-1.93,7.5,25.82-.84,11.05-3.32,5.46,9.95,8.33,9.1,10.6-3.15,10.23-3.06,15.4-1.66,3.42.93,5.65,7.42,5.01,12.27-.85,6.4-5.99,8.06-10.54,21.6-3.19,9.5-2.41,15.28-6.11,16.67-3.74,1.4-6.51-3.77-10.71-2.55-5.44,1.57-4.36,11.25-9.66,15.27-3.34,2.53-11.1,3.71-23.55-2.52-2.02-1.01-3.05-3.37-2.46-5.6.76-2.86,1.75-6.47,2.97-9.84,5.82-16.06,11.37-19.69,9.36-23.85-3.09-6.37-14.8-2.72-16.74-7.95-2.02-5.44,2.6-19.48,12.88-20.1Z"/>
            <g>
              <path class="cls-2" d="m404.34,68.02l-2.15,4.12c-1.01,1.94-1.89,3.95-2.63,6.02-1.39,3.88-4.04,10.44-5.48,14.15-4.64,11.92-18.89-1.17-18.89-1.17l-.99-3.28-1.92-.8c-.37-.16-.71-.39-.96-.72-.61-.81-.62-1.89-.09-2.69,2.86-4.35,8.83-14.12,10.98-22.89,0,0,12.23-3.25,22.13,7.26Z"/>
              <path class="cls-1" d="m387.65,98.28c-6.03,0-12.79-6.15-13.11-6.43-.13-.12-.22-.26-.27-.43l-.86-2.85-1.5-.63c-.56-.23-1.03-.59-1.35-1.02-.84-1.11-.89-2.64-.13-3.8,2.55-3.87,8.7-13.82,10.85-22.59.08-.34.35-.61.69-.7.52-.14,12.9-3.27,23.08,7.53.28.3.34.74.15,1.1l-2.15,4.12c-.99,1.9-1.86,3.88-2.58,5.9-1.01,2.82-2.71,7.12-4.07,10.57-.53,1.34-1.02,2.58-1.42,3.6-1.17,3.02-3.04,4.84-5.55,5.42-.58.13-1.18.2-1.78.2Zm-11.62-7.68c1.22,1.07,8.04,6.76,12.96,5.61,1.88-.44,3.25-1.83,4.19-4.25.4-1.02.89-2.26,1.42-3.61,1.36-3.44,3.05-7.72,4.05-10.52.75-2.1,1.66-4.17,2.69-6.14l1.83-3.51c-8.16-8.22-17.82-7.05-20.18-6.61-2.24,8.57-7.8,17.8-10.96,22.6-.32.48-.29,1.12.06,1.58.16.21.39.34.56.41l1.92.8c.26.11.47.33.55.61l.91,3.02Z"/>
            </g>
            <path class="cls-2" d="m401.31,82.42s5.15-9.92,9.02-6.54c3.87,3.38-2.07,14.15-9.02,6.54h0Z"/>
          </g>
          <g>
            <path class="cls-1" d="m382.26,84.43c-1.17,0-2.19-.39-2.96-1.14-1.43-1.38-2.02-3.86-1.81-7.57.16-2.87.99-4.6,2.54-5.29h0c1.13-.5,2.34-.53,3.39-.09.88.37,1.56,1.04,1.86,1.83,1.75,4.65,1.01,8.49-.27,10.53-.64,1.02-1.43,1.62-2.23,1.7-.17.02-.34.02-.51.02Zm-.4-12.47c-.35,0-.71.08-1.06.24h0c-.81.36-1.28,1.58-1.4,3.64-.22,3.84.55,5.43,1.23,6.08.49.47,1.13.66,1.96.58.08-.01.46-.23.89-.99.94-1.67,1.43-4.83,0-8.65-.09-.23-.34-.54-.81-.74-.25-.11-.52-.16-.81-.16Zm-1.45-.64h0,0Z"/>
            <path class="cls-1" d="m405.96,75.02s-.08,0-.13,0l-23.46-3.06c-.53-.07-.9-.55-.83-1.08.07-.53.54-.9,1.08-.83l23.46,3.06c.53.07.9.55.83,1.08-.06.48-.48.84-.95.84Z"/>
            <path class="cls-1" d="m371.98,81.92c-.14,0-.28-.03-.41-.09-.6-.29-1.12-1.12-1.55-2.49-.73-2.33-.98-5.78.54-8.47.53-.95,1.33-1.54,2.31-1.73,2.34-.44,4.9,1.59,5.19,1.82.41.33.47.94.14,1.35-.34.41-.94.47-1.35.14-.55-.44-2.39-1.66-3.62-1.42-.26.05-.65.19-.99.78-1.76,3.13-.39,7.65.25,8.33.42.25.59.79.37,1.24-.17.34-.51.55-.87.55Zm.51-1.76h0Zm-.1-.06s0,0,0,0c0,0,0,0,0,0Z"/>
          </g>
        </g>
      </g>
      <g>
        <circle class="cls-3" cx="224.81" cy="317.21" r="17.76"/>
        <g>
          <circle class="cls-3" cx="282.87" cy="317.21" r="17.76"/>
          <path class="cls-2" d="m276.97,324.08v-13.75c0-.7.74-1.16,1.37-.85l13.75,6.79c.7.35.7,1.34,0,1.69l-13.75,6.96c-.63.32-1.37-.14-1.37-.84Z"/>
        </g>
        <g>
          <circle class="cls-3" cx="340.94" cy="317.21" r="17.76"/>
          <g>
            <path class="cls-2" d="m346.76,323.97c-.25,0-.49-.09-.68-.28l-11.85-11.85c-.38-.37-.38-.98,0-1.36.38-.38.98-.38,1.36,0l11.85,11.85c.38.37.38.98,0,1.36-.19.19-.43.28-.68.28Z"/>
            <path class="cls-2" d="m334.91,323.97c-.25,0-.49-.09-.68-.28-.38-.38-.38-.98,0-1.36l11.85-11.85c.38-.38.98-.38,1.36,0,.38.37.38.98,0,1.36l-11.85,11.85c-.19.19-.43.28-.68.28Z"/>
          </g>
        </g>
      </g>
      <path class="cls-2" d="m256.01,247.07c-.32,0-.63-.16-.81-.44-.29-.45-.16-1.04.29-1.33l31.43-20.2c.45-.29,1.04-.16,1.33.29.29.45.16,1.04-.29,1.33l-31.43,20.2c-.16.1-.34.15-.52.15Z"/>
      <path class="cls-2" d="m214.26,273.91c-.32,0-.63-.16-.81-.44-.29-.45-.16-1.04.29-1.33l28.46-18.29c.45-.29,1.04-.16,1.33.29.29.45.16,1.04-.29,1.33l-28.46,18.29c-.16.1-.34.15-.52.15Z"/>
      <path class="cls-2" d="m241.47,278.51c-.32,0-.63-.16-.81-.44-.29-.45-.16-1.04.29-1.33l73.18-47.04c.45-.29,1.04-.16,1.33.29.29.45.16,1.04-.29,1.33l-73.18,47.04c-.16.1-.34.15-.52.15Z"/>
    </g>
    <g>
      <g>
        <path class="cls-3" d="m155.1,410.8l-89.69-.89c-16.22,0-30.09-10.59-32.93-26.71l-15.35-87.12c-1.83-10.38,6.08-19.9,16.52-19.9h58.52l62.94,134.62Z"/>
        <polygon class="cls-3" points="101.59 517.32 86.83 517.32 86.83 409.75 101.59 410.31 101.59 517.32"/>
        <path class="cls-3" d="m129.06,499.32H62.68c-10.36,0-18.75,8.39-18.75,18.75h103.88c0-10.36-8.39-18.75-18.75-18.75Z"/>
        <path class="cls-4" d="m41.38,344.4c-.46,0-.86-.33-.94-.79l-7.44-42.29c-.09-.52.26-1.02.78-1.11.52-.09,1.02.26,1.11.78l7.44,42.29c.09.52-.26,1.02-.78,1.11-.06,0-.11.01-.17.01Z"/>
      </g>
      <g>
        <path class="cls-1" d="m125.76,205.96c5.89-.52,10.01,4.85,13.31,12.99,2.69,6.64,1.63,12.17-2,15.82-11.76,11.78-24.53,45.79-41.97,56.13-13.92,8.25-43.07,6.72-56.53-10.38-12.8-16.27-14.75-39.82-.26-50.42,13.02-9.53,25.14,6.8,38.96-2.06,13.62-8.74,13.41-15.98,21.47-20.24,8.65-4.57,10.32-.35,27.03-1.83Z"/>
        <g>
          <path class="cls-5" d="m209.75,464.84c-.12.51,5.88,27.99,5.88,27.99l-13.8-2.31-4.16-23.23,12.08-2.45Z"/>
          <g>
            <g>
              <path class="cls-2" d="m208.3,483.81c.84-.71,2.05-1.4,3.59-1.47,2.31-.1,4.42,1.35,5.38,3.48,2.39,5.32,8.7,20.14,10.49,32.25.63,4.28-2.6,7.76-7.63,4.96-8.25-4.6-19.69-15.15-25.68-30.73-.69-1.79-.44-3.81.69-5.36.92-1.26,2.17-2.79,3.63-4.09,1.39-1.24,3.48-1.26,4.92-.08l1.3,1.07c.97.8,2.37.79,3.33-.02Z"/>
              <path class="cls-1" d="m223.53,525c-1.06,0-2.35-.29-3.87-1.14-8.68-4.84-20.09-15.58-26.11-31.23-.81-2.12-.51-4.46.81-6.27,1.22-1.67,2.49-3.1,3.76-4.24,1.75-1.56,4.34-1.61,6.17-.1l1.3,1.07c.61.5,1.49.49,2.1-.02h0c1.24-1.04,2.68-1.63,4.16-1.69,2.62-.12,5.16,1.51,6.3,4.04,2.58,5.74,8.78,20.38,10.56,32.5.38,2.59-.49,4.96-2.27,6.19-.59.41-1.56.88-2.91.88Zm-22.27-42.15c-.66,0-1.32.24-1.85.71-1.17,1.05-2.35,2.37-3.49,3.94-.93,1.28-1.14,2.94-.57,4.44,5.83,15.17,16.86,25.56,25.25,30.24,1.88,1.05,3.57,1.17,4.75.36,1.18-.81,1.74-2.47,1.46-4.33-1.75-11.88-7.86-26.33-10.41-31.99-.82-1.82-2.62-2.99-4.46-2.91-1.07.05-2.08.46-3.01,1.24-1.32,1.11-3.23,1.12-4.56.03l-1.3-1.07c-.53-.44-1.18-.66-1.81-.66Z"/>
            </g>
            <path class="cls-1" d="m224.63,520.17c-1.11,0-12.93-.69-27.13-28.74-.24-.47-.05-1.05.42-1.29.47-.24,1.05-.05,1.29.42,14.05,27.77,25.3,27.69,25.41,27.69.55-.02.98.4.99.93.02.53-.4.97-.93.99-.01,0-.04,0-.07,0Z"/>
            <path class="cls-1" d="m215.79,504.82c-.38,0-.74-.23-.89-.61-.19-.49.05-1.05.54-1.25l6.54-2.58c.49-.19,1.05.05,1.25.54.19.49-.05,1.05-.54,1.25l-6.54,2.58c-.12.05-.23.07-.35.07Z"/>
            <path class="cls-1" d="m213.49,499.81c-.38,0-.75-.23-.9-.61-.19-.49.05-1.05.55-1.24l7.67-2.99c.49-.19,1.05.05,1.24.55.19.49-.05,1.05-.55,1.24l-7.67,2.99c-.11.04-.23.07-.35.07Z"/>
          </g>
          <path class="cls-5" d="m150.86,464.76c-.1.21-.87,3.43-1.46,8.87-1,9.06,9.14,17.44,9.14,17.44l-24.01-3.24.92-20.96,15.42-2.12Z"/>
          <g>
            <g>
              <path class="cls-2" d="m140.07,481.76c1.41-.46,1.09-2.64,2.24-3.67,1.74-1.55,3.91-1.52,5.98-.47,5.18,2.61,19.32,10.11,28.26,18.39,3.16,2.93,2.82,7.68-2.84,8.7-9.27,1.67-24.74.74-39.12-7.56-1.65-.95-2.72-2.68-2.81-4.6-.07-1.57,0-6.76.32-8.69.3-1.85,1.91-3.19,3.77-3.18h1.67c1.26,0,1.33,1.47,2.52,1.08Z"/>
              <path class="cls-1" d="m165.31,506.37c-9.13,0-20.48-2.2-31.2-8.39-1.96-1.13-3.18-3.14-3.29-5.39-.07-1.61,0-6.87.33-8.89.38-2.31,2.36-3.99,4.71-3.99h1.69c.98,0,1.56.57,1.9.91.08.08.2.2.26.24,0,0,.03,0,.06-.02h0c.28-.09.43-.47.68-1.24.24-.75.51-1.6,1.22-2.23,1.9-1.69,4.47-1.91,7.05-.61,5.58,2.82,19.54,10.26,28.48,18.54,1.91,1.77,2.71,4.16,2.1,6.24-.36,1.24-1.55,3.41-5.42,4.11-2.51.45-5.41.72-8.57.72Zm-29.44-24.73c-1.4,0-2.59,1-2.81,2.38-.31,1.87-.38,6.98-.31,8.49.07,1.58.94,3.01,2.33,3.81,13.99,8.08,29.04,9.14,38.47,7.45,2.12-.38,3.51-1.36,3.92-2.76.4-1.38-.2-3.02-1.57-4.29-8.76-8.11-22.53-15.46-28.04-18.24-1.32-.67-3.25-1.15-4.91.33-.32.28-.49.82-.67,1.39-.29.92-.66,2.06-1.9,2.48h0c-1.19.39-1.89-.3-2.27-.67-.28-.28-.37-.35-.55-.35h-1.67s0,0,0,0Zm3.86-.77h0,0Z"/>
            </g>
            <path class="cls-1" d="m165.07,502.16c-6.11,0-15.31-1.66-28.64-7.63-.48-.22-.7-.78-.48-1.27.22-.48.78-.7,1.27-.48,28,12.54,36.93,5.43,37.02,5.36.4-.34,1.01-.29,1.35.1.34.4.31,1-.09,1.34-.21.18-3.08,2.58-10.42,2.58Z"/>
            <path class="cls-1" d="m158.39,493.54c-.16,0-.32-.04-.47-.12-.46-.26-.63-.85-.37-1.31l3.47-6.16c.26-.46.85-.63,1.31-.37.46.26.63.85.37,1.31l-3.47,6.16c-.18.31-.5.49-.84.49Z"/>
            <path class="cls-1" d="m153.48,491.1c-.17,0-.34-.05-.5-.14-.45-.28-.6-.87-.32-1.32l3.91-6.42c.28-.45.87-.6,1.32-.32s.6.87.32,1.32l-3.91,6.42c-.18.3-.5.46-.82.46Z"/>
          </g>
          <path class="cls-1" d="m85.81,359.12s84.04-3.65,93.23,4.88c12.46,11.57,33.87,107.91,33.87,107.91l-20.67,5.8s-31.15-79.07-38.86-79.07-80.48-2.6-80.48-2.6l12.92-36.93Z"/>
          <path class="cls-1" d="m69.28,356.47s-11.08,32.54-2.26,38.47c8.82,5.93,72.4,5.43,70.19,4.69-2.2-.74-5.69,53.28-5.69,74.05l20.02.77s31.9-83.54,28.46-92.87c-6.15-16.69-52.53-22.32-67.68-24.55-3.12-.46-43.04-.56-43.04-.56Z"/>
          <path class="cls-4" d="m169.43,427.86c-.1,0-.2-.01-.29-.05-.51-.16-.78-.7-.62-1.21.72-2.25,1.44-4.46,2.14-6.62,5.58-17.26,10.41-32.16,8.44-38.1-4.19-12.65-35.85-17.55-46.25-19.16-.52-.08-.88-.57-.8-1.1.08-.52.57-.88,1.1-.8,18.55,2.87,43.69,8.11,47.78,20.45,2.17,6.54-2.51,21-8.43,39.3-.7,2.16-1.42,4.37-2.13,6.62-.13.41-.51.67-.91.67Z"/>
        </g>
        <g>
          <g>
            <g>
              <path class="cls-2" d="m79.24,257.81s.3-5.36-3.02,50.56c0,0,2.28,43.27,2.56,48.15s42.6,2.76,42.6,2.76c5.01-21.95,4.46-47.13.97-74.03l7.25-.65.5-16.91c-1.31-4.98-6.85-8.56-10.58-9.89-9.91-4.46-27.49-3.02-40.3,0Z"/>
              <path class="cls-1" d="m102.4,360.69c-.73,0-1.47,0-2.2,0-19.45-.15-22.24-2.06-22.36-4.11-.28-4.83-2.54-47.72-2.57-48.16,0-.04,0-.07,0-.11,1.39-23.46,2.15-36.14,2.55-42.95.2-3.4.32-5.34.39-6.43.03-.42.05-.77.08-1.05,0-.04,0-.08,0-.13v-.11s.03,0,.03,0c.11-.73.33-.97.99-.93.03,0,.12,0,.23.04,12.3-2.84,30.04-4.46,40.36.16,3.45,1.24,9.64,4.85,11.15,10.53.02.09.03.18.03.27l-.5,16.91c-.01.49-.39.88-.87.93l-6.26.56c3.76,29.59,3.4,53.6-1.11,73.37-.1.42-.46.72-.89.75-.1,0-9.29.46-19.04.46Zm-25.21-52.33c.09,1.75,2.29,43.35,2.56,48.09.1.2,1.57,2.21,21.14,2.31,8.65.04,17.23-.31,19.73-.42,4.36-19.64,4.61-43.52.79-72.98-.03-.26.04-.52.2-.72.16-.2.4-.33.66-.36l6.4-.57.47-15.91c-1.2-4.24-5.97-7.68-9.94-9.1-.02,0-.05-.02-.07-.03-9.83-4.42-26.98-2.85-38.99-.1-.16,2.54-.75,12.46-2.97,49.79Z"/>
            </g>
            <path class="cls-5" d="m133.49,358.69l-1.84-89.19c-.62-4.17-2.09-5.85-5.58-8.18-1.37-.91-3.72-1.94-5.63-2.32,0,0-.99-.56-1.2,4.85-.11,2.63,3.24,31.91,3.84,57.01.42,17.56-2.2,32.91-2.03,36.28.01.25,11.57,2.56,12.35,1.79l.08-.23Z"/>
            <path class="cls-1" d="m104.53,304.9c-.35,0-.68-.19-.85-.51-.25-.47-.07-1.05.4-1.3,9.91-5.22,10.57-19.96,10.57-20.11.02-.53.47-.94,1-.92.53.02.94.47.92,1-.02.65-.72,16.01-11.6,21.74-.14.08-.3.11-.45.11Z"/>
            <path class="cls-5" d="m86.39,257.06s-10.19-1.18-16.75,7.78c-6.52,8.9-7.31,19.05-6.08,27.21,2.09,13.85,10.79,29.61,10.39,33.92-.19,2.09-2.41,16.94-10.79,30.23-6.9,10.95-6.61,35.09-5.26,35.88,9.08,5.29,23.98,16.04,41.72,17.32,3.28.24,5.96-1.46,6.43-4.11,1.89-10.6,6.97-41.34,7.74-70.2.66-24.99-17.14-62.94-17.92-66.2-1.9-7.9-9.48-11.82-9.48-11.82Z"/>
          </g>
          <path class="cls-5" d="m95.69,323.9c8.3,18.98,23.14,23.5,47.49,26.74l-2.6,7.18c-36.38,4.54-43.22-2.66-57.93-21.92l13.04-12.01Z"/>
          <g>
            <path class="cls-5" d="m130.85,290.66c1.86,15.7,26.41,38.99,39.61,44.12l-8.85,6.68c-11.41.41-26.25-12.74-31.38-17.4l.62-33.4Z"/>
            <g>
              <path class="cls-2" d="m155.42,336.75c.33-.65.9-1.17,1.59-1.42.49-.18.98-.41,1.45-.66l6.43-3.41c1.2-.59,2.93.78,4.18,1.2,3.77,1.24,11.58,4.16,10.94,6.9-.69,2.96-7.41,1.56-9.79.96-.54-.14-5.48,1.65-7.04,1.77-2.15.16-2.65-.38-3.71-.94-.48-.25-1.02-.37-1.6-.37-.89,0-1.73-.38-2.29-1.07v-.02c-.63-.76-.73-1.82-.29-2.69l.13-.25Z"/>
              <path class="cls-1" d="m162.45,343.07c-1.54,0-2.25-.41-3-.83-.14-.08-.28-.16-.44-.24-.33-.17-.7-.26-1.16-.26-1.2,0-2.31-.53-3.03-1.43-.86-1.07-1.01-2.54-.39-3.75l.13-.25c.45-.89,1.21-1.56,2.12-1.89.39-.14.81-.33,1.32-.6l6.43-3.41c1.3-.64,2.71.07,3.84.64.4.2.78.39,1.09.49,12.5,4.11,11.8,7.06,11.58,8.03-.18.76-.64,1.38-1.34,1.81-2.26,1.38-6.88.54-9.51-.11-.39.05-1.65.43-2.58.7-1.65.49-3.35,1-4.26,1.07-.29.02-.55.03-.79.03Zm3.1-11c-.09,0-.18.01-.24.05l-6.4,3.4c-.6.32-1.1.54-1.57.71-.45.16-.82.5-1.05.95,0,0,0,0,0,0l-.13.25c-.27.54-.21,1.18.17,1.65.37.46.94.72,1.56.73.75,0,1.44.17,2.04.48.18.09.34.19.5.28.73.42,1.17.67,2.69.55.71-.05,2.46-.57,3.86-.99,2.4-.71,3.01-.87,3.48-.75,3.82.96,6.94,1.09,8.15.36.27-.16.41-.35.48-.61.21-.89-2.36-3.16-10.31-5.77-.44-.15-.9-.38-1.35-.6-.6-.3-1.37-.69-1.86-.69Zm-10.13,4.68h0,0Z"/>
            </g>
          </g>
          <g>
            <path class="cls-4" d="m77.64,371.19c-2.61,0-5.49-.52-8.64-1.79-.49-.2-.73-.76-.53-1.25.2-.49.76-.73,1.25-.53,16.22,6.55,24.44-8.2,24.79-8.83.25-.47.83-.64,1.3-.39.47.25.64.84.39,1.3-.08.14-6.4,11.48-18.56,11.48Z"/>
            <path class="cls-4" d="m132.84,325.54c-.51,0-.94-.41-.96-.93l-.87-24.34c-.02-.53.4-.98.93-.99.53-.02.98.4.99.93l.87,24.34c.02.53-.4.98-.93.99-.01,0-.02,0-.03,0Z"/>
            <path class="cls-4" d="m120.49,360.13c-9.2,0-13.72-1.98-19.45-4.49-1.45-.63-2.94-1.29-4.63-1.97-4.94-1.98-8.51-5.05-11.59-9.93-1.41-2.24-2.62-4.63-3.78-6.93-1.02-2.02-2.08-4.11-3.26-6.06-.27-.45-.13-1.04.33-1.32.45-.27,1.04-.13,1.32.33,1.22,2.02,2.29,4.14,3.33,6.19,1.14,2.26,2.33,4.61,3.69,6.77,2.85,4.52,6.14,7.35,10.68,9.17,1.71.69,3.22,1.35,4.68,1.99,7.51,3.29,12.47,5.46,28.56,3.72,1.39-.15,6.67-.09,7.8-.04.53.02.94.47.92,1-.02.53-.47.94-1,.92-1.39-.06-6.37-.09-7.51.03-3.93.42-7.24.61-10.09.61Z"/>
            <path class="cls-4" d="m113.17,343.27c-.15,0-.3-.03-.44-.11l-5.78-2.96-.12-.14c-3.69-4.18-6.45-11.36-8.89-18.5-.17-.5.1-1.05.6-1.22.5-.17,1.05.1,1.22.6,2.35,6.87,4.99,13.76,8.39,17.71l5.45,2.79c.47.24.66.82.42,1.29-.17.33-.51.52-.86.52Z"/>
          </g>
          <g>
            <path class="cls-2" d="m137.4,353.99c.33-.65.9-1.17,1.59-1.42.49-.18.98-.41,1.45-.66l6.43-3.41c1.2-.59,2.93.78,4.18,1.2,3.77,1.24,11.58,4.16,10.94,6.9-.69,2.96-7.41,1.56-9.79.96-.54-.14-5.48,1.65-7.04,1.77-2.15.16-2.65-.38-3.71-.94-.48-.25-1.02-.37-1.6-.37-.89,0-1.73-.38-2.29-1.07v-.02c-.63-.76-.73-1.82-.29-2.69l.13-.25Z"/>
            <path class="cls-1" d="m144.43,360.31c-1.54,0-2.25-.41-3-.83-.14-.08-.28-.16-.44-.24-.33-.17-.7-.26-1.16-.26-1.2,0-2.31-.53-3.03-1.43-.86-1.07-1.01-2.54-.39-3.75l.13-.25s0,0,0,0c.46-.89,1.21-1.56,2.12-1.89.39-.14.81-.33,1.32-.6l6.43-3.41c1.3-.64,2.71.07,3.84.64.4.2.78.39,1.09.49,12.5,4.1,11.8,7.06,11.58,8.03-.18.76-.64,1.38-1.35,1.81-2.26,1.38-6.88.54-9.5-.11-.39.05-1.65.43-2.58.7-1.65.49-3.35,1-4.26,1.07-.29.02-.55.03-.79.03Zm-6.18-5.89l-.13.25c-.27.54-.21,1.19.17,1.65.37.46.94.72,1.56.73.75,0,1.44.17,2.04.48.18.09.34.19.5.28.73.42,1.17.67,2.69.55.71-.05,2.46-.57,3.86-.99,2.4-.71,3.01-.87,3.48-.75,3.82.96,6.94,1.09,8.15.36.27-.16.41-.35.48-.61.21-.89-2.36-3.16-10.31-5.77-.44-.15-.9-.38-1.35-.6-.71-.36-1.69-.85-2.1-.64l-6.4,3.4c-.6.32-1.1.54-1.57.71-.45.16-.82.5-1.06.95h0Z"/>
          </g>
        </g>
        <g>
          <g>
            <path class="cls-2" d="m133.15,246.18c.89-.13,1.5-.98,1.31-1.86-1.22-5.48-.75-14.86-.93-14.59-1.95,2.86-6.02-.73-11.81-.96-3.45-.14-4.78,1.91-5.29,3.58-.16.54-.9.64-1.2.17-.85-1.31-2.28-2.42-4.42-.27-2.38,2.38-.39,7.91,1.77,9.72-.52.6-8.75,9.47-15.07,16.13-1.25,1.32-1.08,3.43.37,4.53l5.61,4.26c3.51,2.66,8.3,2.85,12.01.47l.87-.56c.9-.58,1.05-1.83.32-2.61l-1.7-1.8c-1.38-1.63-1.12-3.71-.24-5.44l3.47-5.88c.8.96,1.8,2.06,2.73,2.71,1.85,1.29,4.15,1.09,5.78-.47,2.24-2.13,3.8-4.53,4.51-6.86l1.93-.27Z"/>
            <path class="cls-1" d="m109.83,269.96c-2.45,0-4.89-.78-6.92-2.32l-5.61-4.26c-.91-.69-1.48-1.74-1.58-2.87-.09-1.13.3-2.26,1.09-3.09,5.45-5.76,12.35-13.18,14.44-15.45-1.36-1.58-2.38-4.13-2.47-6.35-.07-1.71.39-3.12,1.35-4.08,1.09-1.09,2.19-1.58,3.25-1.47.87.09,1.65.57,2.33,1.43.65-1.66,2.23-3.87,6.06-3.72,2.45.1,4.63.77,6.37,1.31,2.79.86,3.91,1.09,4.61.07.24-.35.68-.51,1.08-.38.72.22.72.5.72,2.64,0,2.86,0,8.81.86,12.67.15.67.01,1.39-.39,1.96-.4.58-1.03.97-1.73,1.06h0l-1.34.19c-.83,2.32-2.4,4.62-4.57,6.69-1.97,1.88-4.78,2.1-6.99.56-.6-.42-1.28-1.05-2.03-1.86l-2.79,4.73c-.47.93-1.13,2.82.15,4.33l1.67,1.76c.55.58.8,1.36.71,2.15-.1.79-.54,1.49-1.2,1.92l-.87.56c-1.88,1.21-4.04,1.81-6.18,1.81Zm3.25-37.97c-.55,0-1.17.5-1.6.92-.72.72-.83,1.83-.79,2.64.1,2.29,1.37,4.72,2.5,5.67.2.17.32.41.34.66.02.26-.07.51-.24.71-.51.58-8.62,9.32-15.09,16.16-.41.44-.61,1.01-.57,1.61.05.6.34,1.13.82,1.5l5.61,4.26c3.17,2.41,7.56,2.58,10.91.42l.87-.56c.26-.16.32-.41.34-.54.02-.13.01-.38-.2-.6l-1.7-1.8c-1.49-1.76-1.62-4.13-.4-6.53l3.5-5.93c.16-.27.44-.44.75-.47.31-.02.62.1.82.35.99,1.2,1.85,2.05,2.54,2.54,1.46,1.02,3.25.88,4.56-.37,2.11-2.02,3.58-4.24,4.25-6.44.11-.36.42-.62.78-.67l1.93-.27c.23-.03.36-.17.41-.26.05-.08.14-.24.09-.45-.89-3.99-.9-9.93-.9-12.92-1.44.47-3.21-.08-5.06-.65-1.72-.53-3.67-1.14-5.88-1.23-2.26-.09-3.72.89-4.33,2.9-.19.61-.7,1.05-1.33,1.13-.64.09-1.25-.19-1.59-.73-.29-.44-.73-.98-1.25-1.04-.03,0-.06,0-.09,0Zm20.07,14.19h0,0Z"/>
          </g>
          <g>
            <path class="cls-2" d="m117.1,249.51l1.11,1.55-1.11-1.55Z"/>
            <path class="cls-1" d="m118.21,252.02c-.3,0-.59-.14-.78-.4l-1.11-1.55c-.31-.43-.21-1.03.22-1.34.43-.31,1.03-.21,1.34.22l1.11,1.55c.31.43.21,1.03-.22,1.34-.17.12-.37.18-.56.18Z"/>
          </g>
        </g>
      </g>
      <g>
        <g>
          <path class="cls-3" d="m172.35,356.79l19.48-57.41c1.17-1.8,3.2-2.89,5.39-2.89h51.92c2.36,0,3.87,2.29,3.1,4.31-.31.8-.64,1.6-.9,2.41l-17.6,53.68h0c-.06,3.14-2.61,5.67-5.76,5.67h-95.81c-3.18,0-5.76-2.58-5.76-5.77h45.96Z"/>
          <path class="cls-1" d="m227.97,363.52h-95.81c-3.71,0-6.72-3.02-6.72-6.73,0-.53.43-.96.96-.96h45.27l19.26-56.75c.03-.08.06-.15.1-.21,1.35-2.08,3.67-3.33,6.2-3.33h51.92c1.44,0,2.73.67,3.53,1.83.77,1.12.95,2.53.47,3.78l-.27.69c-.23.58-.44,1.12-.62,1.68l-17.57,53.57c-.16,3.56-3.13,6.43-6.71,6.43Zm-100.52-5.77c.45,2.19,2.39,3.85,4.71,3.85h95.81c2.6,0,4.75-2.12,4.8-4.72,0-.14.03-.27.09-.39l17.57-53.57c.2-.61.43-1.21.66-1.78l.26-.67c.25-.67.16-1.4-.26-2.01-.44-.64-1.15-1-1.95-1h-51.92c-1.83,0-3.52.88-4.52,2.36l-19.44,57.29c-.13.39-.5.65-.91.65h-44.9Z"/>
        </g>
        <path class="cls-4" d="m210.95,325.92c-.73,2.43.39,4.92,2.5,5.56,2.11.64,4.42-.82,5.15-3.25.73-2.43-.39-4.92-2.5-5.56-2.11-.64-4.42.82-5.15,3.25Z"/>
      </g>
      <path class="cls-2" d="m323.92,361.6H93.4c-4.29,0-7.63,4.04-7.15,8.64l15.92,150.89h11.49l-9.96-141.61c-.18-2.5,1.65-4.62,3.97-4.62h197.88c3.47,0,6.2,3.19,5.94,6.92l-9.87,140.2h11.49l16.19-153.9c.37-3.47-2.15-6.52-5.39-6.52Z"/>
    </g>
    <g>
      <g>
        <g>
          <path class="cls-1" d="m192.21,247.64c-.22,0-.44-.07-.62-.23-.41-.34-.46-.95-.12-1.35l3.2-3.8c.34-.41.95-.46,1.35-.12.41.34.46.95.12,1.35l-3.2,3.8c-.19.23-.46.34-.74.34Z"/>
          <path class="cls-1" d="m184.76,256.5c-.22,0-.44-.07-.62-.23-.41-.34-.46-.95-.12-1.35l3.2-3.8c.34-.41.95-.46,1.35-.12.41.34.46.95.12,1.35l-3.2,3.8c-.19.23-.46.34-.74.34Z"/>
          <path class="cls-1" d="m187.56,248.04c-.22,0-.44-.07-.62-.23l-3.8-3.2c-.41-.34-.46-.95-.12-1.35.34-.41.95-.46,1.35-.12l3.8,3.2c.41.34.46.95.12,1.35-.19.23-.46.34-.74.34Z"/>
          <path class="cls-1" d="m196.41,255.49c-.22,0-.44-.07-.62-.23l-3.8-3.2c-.41-.34-.46-.95-.12-1.35.34-.41.95-.46,1.35-.12l3.8,3.2c.41.34.46.95.12,1.35-.19.23-.46.34-.74.34Z"/>
        </g>
        <path class="cls-1" d="m174.66,232.29c-.5,0-.99-.07-1.48-.21-1.39-.4-2.53-1.34-3.22-2.62-1.41-2.62-.47-5.92,2.11-7.36h0c1.24-.69,2.68-.85,4.04-.46,1.39.4,2.53,1.34,3.22,2.62,1.41,2.62.47,5.92-2.1,7.36-.8.44-1.67.67-2.56.67Zm-1.67-8.51c-1.66.93-2.27,3.06-1.35,4.77.45.83,1.18,1.43,2.07,1.69.87.25,1.78.15,2.57-.29,1.66-.93,2.27-3.06,1.35-4.77-.45-.83-1.18-1.43-2.07-1.69-.87-.25-1.78-.15-2.57.29h0Z"/>
        <path class="cls-3" d="m225.64,235.88c-.03-2.15,1.72-3.92,3.9-3.95s3.96,1.69,3.99,3.84c.03,2.15-1.72,3.92-3.9,3.95s-3.96-1.69-3.99-3.84Z"/>
      </g>
      <g>
        <path class="cls-1" d="m368.32,6.65c-.25,0-.49-.09-.68-.28l-2.79-2.79c-.38-.37-.38-.98,0-1.36.38-.38.98-.38,1.36,0l2.79,2.79c.38.37.38.98,0,1.36-.19.19-.43.28-.68.28Z"/>
        <path class="cls-1" d="m378.1,16.41c-.25,0-.49-.09-.68-.28l-2.79-2.79c-.38-.37-.38-.98,0-1.36.38-.38.98-.38,1.36,0l2.79,2.79c.38.37.38.98,0,1.36-.19.19-.43.28-.68.28Z"/>
        <path class="cls-1" d="m365.53,16.41c-.25,0-.49-.09-.68-.28-.37-.38-.37-.98,0-1.36l2.79-2.79c.38-.37.98-.37,1.36,0,.37.38.37.98,0,1.36l-2.79,2.79c-.19.19-.43.28-.68.28Z"/>
        <path class="cls-1" d="m375.31,6.65c-.25,0-.49-.09-.68-.28-.37-.38-.37-.98,0-1.36l2.79-2.79c.38-.37.98-.37,1.36,0,.37.38.37.98,0,1.36l-2.79,2.79c-.19.19-.43.28-.68.28Z"/>
      </g>
      <g>
        <path class="cls-1" d="m430.92,476.76c-.29,0-.58-.13-.76-.38-.32-.42-.24-1.02.18-1.35,26.25-19.97,48.19-44.5,65.19-72.89.27-.46.86-.6,1.32-.33.46.27.6.86.33,1.32-17.13,28.6-39.23,53.31-65.68,73.43-.17.13-.38.2-.58.2Z"/>
        <path class="cls-1" d="m475.58,456.91c-.23,0-.47-.09-.66-.26-.39-.36-.41-.97-.05-1.36,10.62-11.38,20.27-23.81,28.68-36.94.29-.45.88-.58,1.33-.29.45.29.58.88.29,1.33-8.47,13.22-18.19,25.74-28.9,37.21-.19.2-.45.31-.7.31Z"/>
      </g>
    </g>
    <g>
      <g>
        <g>
          <path class="cls-2" d="m264.61,487.3c3.13-6.51,3.43-13.07,0-19.69l2.46-2.98,81.27,2.24-2.32,21.6-79.12.76-2.29-1.92Z"/>
          <path class="cls-3" d="m266.91,490.18c-.23,0-.44-.08-.62-.22l-2.29-1.92c-.34-.28-.44-.76-.25-1.15,3.16-6.58,3.17-12.74.01-18.83-.18-.34-.13-.76.11-1.05l2.46-2.98c.19-.23.47-.35.77-.35l81.27,2.24c.27,0,.52.13.7.33s.26.47.23.73l-2.32,21.6c-.05.48-.46.85-.95.86l-79.12.76h0Zm-1.11-3.14l1.46,1.22,77.91-.75,2.12-19.71-79.76-2.19-1.76,2.14c3.01,6.19,3.02,12.68.04,19.3Z"/>
        </g>
        <path class="cls-3" d="m401.31,462.25h-138.87c-1.46,0-2.64,1.2-2.64,2.67s1.18,2.67,2.64,2.67h71.4c4.2,0,7.61,3.44,7.61,7.69v4.32c0,4.25-3.41,7.69-7.61,7.69h-71.4c-1.46,0-2.64,1.2-2.64,2.67s1.18,2.67,2.64,2.67h138.87c7.75,0,14.04-6.35,14.04-14.18v-2.03c0-7.83-6.28-14.18-14.04-14.18Z"/>
      </g>
      <g>
        <g>
          <path class="cls-2" d="m271.59,524.62h126.79v-28.86h-126.79c3.33,9.43,3.42,19.68,0,28.86Z"/>
          <path class="cls-3" d="m398.37,525.58h-126.79c-.31,0-.61-.15-.79-.41-.18-.26-.22-.59-.11-.88,3.3-8.84,3.29-18.86,0-28.2-.1-.29-.06-.62.12-.87.18-.25.47-.41.78-.41h126.79c.53,0,.96.43.96.96v28.86c0,.53-.43.96-.96.96Zm-125.43-1.92h124.47v-26.94h-124.49c2.87,8.94,2.87,18.41.02,26.94Z"/>
        </g>
        <path class="cls-4" d="m378.87,506.84h-95.97c-.53,0-.96-.43-.96-.96s.43-.96.96-.96h95.97c.53,0,.96.43.96.96s-.43.96-.96.96Z"/>
        <path class="cls-4" d="m378.87,514.9h-78.86c-.53,0-.96-.43-.96-.96s.43-.96.96-.96h78.86c.53,0,.96.43.96.96s-.43.96-.96.96Z"/>
        <path class="cls-5" d="m383.87,497.14h-113.98c-1.2,0-2.18-.99-2.18-2.2h0c0-1.22.97-2.2,2.18-2.2h143.75c5.28,0,9.57,4.33,9.57,9.67v15.2c0,5.34-4.28,9.67-9.57,9.67h-143.75c-1.2,0-2.18-.99-2.18-2.2s.97-2.2,2.18-2.2h113.98c3.73,0,6.76-3.06,6.76-6.83v-12.08c0-3.77-3.03-6.83-6.76-6.83Z"/>
        <path class="cls-4" d="m332.22,474.77h-58.58c-.53,0-.96-.43-.96-.96s.43-.96.96-.96h58.58c.53,0,.96.43.96.96s-.43.96-.96.96Z"/>
      </g>
    </g>
    <g>
      <g>
        <path class="cls-2" d="m500.43,180.66h-99.16c-5.61,0-9.91-4.57-9.91-10.18v-28.7c0-5.61,4.29-10.15,9.91-10.15h3.59v-19.16s13.05,19.16,13.05,19.16c18.96,0,82.53,0,82.53,0,5.61,0,10.42,4.53,10.42,10.15v28.7c0,5.61-4.81,10.18-10.42,10.18Z"/>
        <path class="cls-1" d="m404.86,111.56c.29,0,.58.14.75.4l12.78,18.77h82.05c6.14,0,11.33,5.06,11.33,11.05v28.7c0,6.01-5.19,11.09-11.33,11.09h-99.16c-6.06,0-10.81-4.87-10.81-11.09v-28.7c0-6.2,4.75-11.05,10.81-11.05h2.68v-18.26c0-.4.26-.75.64-.86.09-.03.18-.04.27-.04Zm95.58,68.19c5.16,0,9.52-4.25,9.52-9.28v-28.7c0-5.01-4.36-9.25-9.52-9.25h-82.53c-.3,0-.58-.15-.75-.4l-11.4-16.74v16.23c0,.5-.4.9-.9.9h-3.59c-5.05,0-9,4.06-9,9.25v28.7c0,5.2,3.96,9.28,9,9.28h99.16Z"/>
      </g>
      <g>
        <path class="cls-1" d="m439.02,164.4c-.12,0-.25-.03-.37-.08l-13.66-6.19c-.32-.15-.53-.47-.53-.82,0-.35.21-.68.53-.82l13.66-6.23c.46-.21.99,0,1.2.45.21.45,0,.99-.45,1.2l-11.85,5.41,11.85,5.37c.45.21.66.74.45,1.2-.15.33-.48.53-.82.53Z"/>
        <path class="cls-1" d="m458.58,164.4c-.34,0-.67-.2-.82-.53-.21-.45,0-.99.45-1.2l11.85-5.37-11.85-5.41c-.45-.21-.65-.74-.45-1.2.21-.45.74-.65,1.2-.45l13.66,6.23c.32.15.53.47.53.82,0,.35-.21.68-.53.82l-13.66,6.19c-.12.05-.25.08-.37.08Z"/>
        <path class="cls-1" d="m443.12,171.67c-.11,0-.22-.02-.32-.06-.47-.18-.7-.7-.52-1.17l10.63-27.81c.18-.47.7-.7,1.17-.52.47.18.7.7.52,1.17l-10.63,27.81c-.14.36-.48.58-.84.58Z"/>
      </g>
    </g>
  </g>
</svg>