<?xml version="1.0" encoding="UTF-8"?>
<svg xmlns="http://www.w3.org/2000/svg" viewBox="0 0 60 60">
  <g id="bg" style="fill: #108763;">
    <g>
      <path d="M30,59c-15.99,0-29-13.01-29-29S14.01,1,30,1s29,13.01,29,29-13.01,29-29,29Z"/>
      <path d="M30,2c15.44,0,28,12.56,28,28s-12.56,28-28,28S2,45.44,2,30,14.56,2,30,2M30,0C13.43,0,0,13.43,0,30s13.43,30,30,30,30-13.43,30-30S46.57,0,30,0h0Z" style="fill: #fff;"/>
    </g>
  </g>
  <g id="ico">
    <path d="M21,36.66v-10.8h2.16v10.8h-2.16ZM28.92,36.66v-10.8h2.16v10.8h-2.16ZM16.71,41.7v-2.16h26.58v2.16h-26.58ZM36.84,36.66v-10.8h2.16v10.8h-2.16ZM16.71,22.98v-2.05l13.29-6.51,13.29,6.51v2.05h-26.58Z" style="fill: #fff;"/>
  </g>
</svg>