<?xml version="1.0" encoding="UTF-8"?>
<svg id="Livello_1" xmlns="http://www.w3.org/2000/svg" version="1.1" viewBox="0 0 60 60">
  <!-- Generator: Adobe Illustrator 29.4.0, SVG Export Plug-In . SVG Version: 2.1.0 Build 152)  -->
  <defs>
    <style>
      .st0 {
        fill: #005fb9;
      }

      .st1 {
        fill: #fff;
      }
    </style>
  </defs>
  <g id="bg">
    <g>
      <path class="st0" d="M30,59c-16,0-29-13-29-29S14,1,30,1s29,13,29,29-13,29-29,29Z"/>
      <path class="st1" d="M30,2c15.4,0,28,12.6,28,28s-12.6,28-28,28S2,45.4,2,30,14.6,2,30,2M30,0C13.4,0,0,13.4,0,30s13.4,30,30,30,30-13.4,30-30S46.6,0,30,0h0Z"/>
    </g>
  </g>
  <path class="st1" d="M19.1,42.5l-1.5-1.5,14.6-14.6c-.5-1.1-.6-2.3-.3-3.5.3-1.2.9-2.3,2-3.4,1-1,2.3-1.7,3.8-2s2.7,0,3.7,1,1.3,2.2,1,3.7c-.3,1.5-1,2.8-2.1,3.9-1,1-2,1.6-3.2,1.9-1.2.3-2.3.2-3.3-.2l-2.3,2.3,10.9,10.9-1.5,1.5-10.9-10.9-10.9,10.9ZM23.5,30.3l-4.1-4.1c-1.2-1.2-1.8-2.6-1.8-4.2s.5-3.1,1.6-4.3l8.5,8.5-4.1,4.1Z"/>
</svg>