<?xml version="1.0" encoding="UTF-8"?>
<svg id="Livello_1" xmlns="http://www.w3.org/2000/svg" version="1.1" viewBox="0 0 60 60">
  <!-- Generator: Adobe Illustrator 29.5.1, SVG Export Plug-In . SVG Version: 2.1.0 Build 141)  -->
  <defs>
    <style>
      .st0 {
        fill: #fff;
      }

      .st1 {
        fill: #999;
      }
    </style>
  </defs>
  <g id="bg">
    <g>
      <path class="st1" d="M30,59C14,59,1,46,1,30S14,1,30,1s29,13,29,29-13,29-29,29Z"/>
      <path class="st0" d="M30,2c15.4,0,28,12.6,28,28s-12.6,28-28,28S2,45.4,2,30,14.6,2,30,2M30,0C13.4,0,0,13.4,0,30s13.4,30,30,30,30-13.4,30-30S46.6,0,30,0h0Z"/>
    </g>
  </g>
  <path class="st0" d="M21.8,42c-.4,0-.7,0-1-.4-.3-.3-.4-.6-.4-1v-2.8c-.4-.5-.7-1-1-1.5s-.4-1.2-.4-1.8v-13c0-1.9.9-3.3,2.6-4.2,1.8-.9,4.5-1.3,8.3-1.3s6.7.4,8.4,1.3c1.7.8,2.5,2.2,2.5,4.2v13c0,.7,0,1.3-.4,1.8s-.6,1.1-1,1.5v2.8c0,.4,0,.7-.4,1-.3.3-.6.4-1,.4h-1.4c-.4,0-.7,0-1-.4-.3-.3-.4-.6-.4-1v-1.4h-10.9v1.4c0,.4-.1.7-.4,1s-.6.4-1,.4h-1.4.3ZM21.8,26.9h16.4v-4.1h-16.4s0,4.1,0,4.1ZM25.2,35.2c.6,0,1.1-.2,1.5-.6s.6-.9.6-1.5-.2-1.1-.6-1.5-.9-.6-1.5-.6-1.1.2-1.5.6c-.4.4-.6.9-.6,1.5s.2,1.1.6,1.5.9.6,1.5.6ZM34.8,35.2c.6,0,1.1-.2,1.5-.6s.6-.9.6-1.5-.2-1.1-.6-1.5-.9-.6-1.5-.6-1.1.2-1.5.6c-.4.4-.6.9-.6,1.5s.2,1.1.6,1.5.9.6,1.5.6Z"/>
</svg>