<?xml version="1.0" encoding="UTF-8"?>
<svg xmlns="http://www.w3.org/2000/svg" viewBox="0 0 60 60">
  <g id="bg">
    <g>
      <path d="M30,59c-15.99,0-29-13.01-29-29S14.01,1,30,1s29,13.01,29,29-13.01,29-29,29Z"/>
      <path d="M30,2c15.44,0,28,12.56,28,28s-12.56,28-28,28S2,45.44,2,30,14.56,2,30,2M30,0C13.43,0,0,13.43,0,30s13.43,30,30,30,30-13.43,30-30S46.57,0,30,0h0Z" style="fill: #fff;"/>
    </g>
  </g>
  <g id="ico">
    <g>
      <polygon points="10 21.86 19.11 21.86 19.11 23.3 11.69 23.3 11.69 29.77 17.95 29.77 17.95 31.21 11.69 31.21 11.69 39.2 10 39.2 10 21.86" style="fill: #fff;"/>
      <path d="M36.25,26.45h-4.04c-.8-1.52-2.25-2.32-4.11-2.32-3.13,0-5.31,2.3-5.31,5.88s2.21,5.93,5.46,5.93c2.71,0,4.44-1.6,4.96-4.15h-6.02v-2.76h9.47v3.15c-.7,3.66-3.89,7.02-8.55,7.02-5.09,0-8.95-3.79-8.95-9.18s3.86-9.21,8.92-9.21c3.91,0,7.02,2.04,8.15,5.65" style="fill: #fff;"/>
      <path d="M43.81,39.22c-3.64,0-6.44-1.96-6.49-5.37h3.76c.1,1.44,1.03,2.4,2.66,2.4s2.63-.9,2.63-2.19c0-3.9-9.02-1.55-9-8.08,0-3.25,2.56-5.21,6.16-5.21s6.04,1.88,6.27,5.13h-3.86c-.07-1.19-1-2.12-2.51-2.14-1.38-.05-2.41.64-2.41,2.12,0,3.61,8.97,1.6,8.97,7.95,0,2.84-2.21,5.39-6.19,5.39" style="fill: #fff;"/>
    </g>
  </g>
</svg>