<?xml version="1.0" encoding="UTF-8" standalone="no"?>
<!DOCTYPE svg PUBLIC "-//W3C//DTD SVG 1.1//EN" "http://www.w3.org/Graphics/SVG/1.1/DTD/svg11.dtd">
<svg xmlns="http://www.w3.org/2000/svg" xmlns:xlink="http://www.w3.org/1999/xlink" version="1.1" width="330.873pt" height="81.7728pt" viewBox="0 0 330.873 81.7728">
<g enable-background="new">
<g id="Layer-1" data-name="Layer 1">
<clipPath id="cp0">
<path transform="matrix(1,0,0,-1,0,81.7728)" d="M 0 81.773 L 330.873 81.773 L 330.873 0 L 0 0 Z "/>
</clipPath>
<g clip-path="url(#cp0)">
<path transform="matrix(1,0,0,-1,101.3615,29.776398)" d="M 0 0 C -.116 .463 -.232 .618 -.618 .618 C -1.005 .618 -1.12 .463 -1.236 0 L -4.017 -11.47 L 2.78 -11.47 Z M 10.427 -23.867 L 6.333 -23.867 C 5.985 -23.867 5.677 -23.558 5.6 -23.21 L 3.823 -15.873 L -5.06 -15.873 L -6.836 -23.21 C -6.913 -23.558 -7.223 -23.867 -7.57 -23.867 L -11.664 -23.867 C -12.05 -23.867 -12.358 -23.597 -12.358 -23.21 C -12.358 -23.172 -12.32 -23.095 -12.32 -23.018 L -5.986 1.197 C -5.06 4.789 -2.279 5.136 -.618 5.136 C 1.042 5.136 3.823 4.789 4.75 1.197 L 11.084 -23.018 C 11.084 -23.095 11.122 -23.172 11.122 -23.21 C 11.122 -23.597 10.813 -23.867 10.427 -23.867 " fill="#1a3763"/>
<path transform="matrix(1,0,0,-1,128.7462,39.045499)" d="M 0 0 C 0 1.854 -.812 3.283 -4.133 3.283 C -7.415 3.283 -8.304 1.815 -8.304 0 L -8.304 -.309 C -8.304 -1.738 -7.725 -3.36 -4.133 -3.36 C -.928 -3.36 0 -2.24 0 -.309 Z M .425 -16.104 C .425 -15.255 -.078 -14.752 -4.133 -13.787 L -7.57 -12.976 C -8.149 -13.787 -8.535 -14.289 -8.535 -15.68 L -8.535 -16.027 C -8.535 -17.61 -7.57 -18.576 -3.939 -18.576 C -.232 -18.576 .425 -17.765 .425 -16.375 Z M 5.329 3.669 L 4.055 3.167 C 4.673 2.279 5.021 1.429 5.021 .078 L 5.021 -.193 C 5.021 -5.021 1.699 -7.222 -4.133 -7.222 C -6.18 -7.222 -7.57 -6.874 -8.343 -6.565 C -8.806 -6.874 -8.999 -7.222 -8.999 -7.569 C -8.999 -8.342 -8.574 -8.651 -7.686 -8.844 L -3.129 -9.925 C 2.124 -11.161 5.522 -11.972 5.522 -16.104 L 5.522 -16.375 C 5.522 -20.314 2.626 -22.438 -3.939 -22.438 C -10.196 -22.438 -13.518 -20.082 -13.518 -16.027 L -13.518 -15.68 C -13.518 -14.096 -12.783 -12.551 -11.548 -11.431 C -12.629 -10.62 -13.286 -9.269 -13.286 -7.878 L -13.286 -7.84 C -13.286 -6.643 -12.783 -5.445 -11.741 -4.711 C -12.899 -3.514 -13.324 -2.124 -13.324 -.193 L -13.324 .078 C -13.324 3.939 -10.814 7.184 -4.133 7.184 L 4.904 7.184 C 5.483 7.184 5.947 6.72 5.947 6.141 L 5.947 4.519 C 5.947 3.939 5.793 3.862 5.329 3.669 " fill="#1a3763"/>
<path transform="matrix(1,0,0,-1,148.715,35.916997)" d="M 0 0 C -2.085 0 -3.707 -.541 -5.329 -1.39 L -5.329 -16.916 C -5.329 -17.34 -5.677 -17.727 -6.102 -17.727 L -9.654 -17.727 C -10.079 -17.727 -10.427 -17.34 -10.427 -16.916 L -10.427 3.283 C -10.427 3.708 -10.079 4.055 -9.654 4.055 L -6.295 4.055 C -5.87 4.055 -5.522 3.708 -5.522 3.283 L -5.522 2.472 C -3.63 3.939 -1.544 4.326 0 4.326 C .425 4.326 .772 3.978 .772 3.553 L .772 .772 C .772 .348 .425 0 0 0 " fill="#1a3763"/>
<path transform="matrix(1,0,0,-1,157.214,53.643598)" d="M 0 0 L -3.554 0 C -3.979 0 -4.326 .386 -4.326 .811 L -4.326 21.009 C -4.326 21.434 -3.979 21.782 -3.554 21.782 L 0 21.782 C .425 21.782 .772 21.434 .772 21.009 L .772 .811 C .772 .386 .425 0 0 0 M .115 24.678 L -3.631 24.678 C -4.056 24.678 -4.441 25.026 -4.441 25.451 L -4.441 28.849 C -4.441 29.274 -4.056 29.622 -3.631 29.622 L .115 29.622 C .54 29.622 .888 29.274 .888 28.849 L .888 25.451 C .888 25.026 .54 24.678 .115 24.678 " fill="#1a3763"/>
<path transform="matrix(1,0,0,-1,181.507,53.2959)" d="M 0 0 C -1.932 -.386 -4.441 -.657 -8.42 -.657 C -12.591 -.657 -18.77 2.085 -18.77 11.2 L -18.77 16.761 C -18.77 25.914 -12.899 28.656 -8.304 28.656 C -4.596 28.656 -1.274 28.192 0 27.961 C .502 27.845 .733 27.652 .733 27.15 L .733 24.562 C .733 24.021 .579 23.751 -.039 23.751 L -.155 23.751 C -1.932 23.906 -4.596 24.06 -8.304 24.06 C -10.892 24.06 -13.363 22.245 -13.363 16.761 L -13.363 11.2 C -13.363 5.716 -10.698 3.939 -8.42 3.939 C -6.99 3.939 -5.793 3.978 -4.596 4.055 L -4.596 13.903 C -4.596 14.328 -4.287 14.675 -3.862 14.675 L -.039 14.675 C .386 14.675 .733 14.328 .733 13.903 L .733 .927 C .733 .425 .502 .116 0 0 " fill="#1a3763"/>
<path transform="matrix(1,0,0,-1,198.6954,44.065999)" d="M 0 0 L -2.433 0 C -5.947 0 -6.72 -1.12 -6.72 -3.283 L -6.72 -3.437 C -6.72 -5.33 -5.87 -5.832 -3.939 -5.832 C -2.549 -5.832 -1.12 -5.368 0 -4.75 Z M 4.325 -9.578 L 1.043 -9.578 C .618 -9.578 .271 -9.23 .271 -8.805 L .271 -8.188 C -1.506 -9.269 -3.321 -9.887 -5.175 -9.887 C -8.38 -9.887 -11.856 -8.651 -11.856 -3.437 L -11.856 -3.283 C -11.856 1.12 -9.152 3.399 -2.433 3.399 L 0 3.399 L 0 5.098 C 0 7.608 -1.12 8.226 -3.398 8.226 C -5.87 8.226 -8.419 8.072 -9.693 7.917 L -9.887 7.917 C -10.272 7.917 -10.582 8.033 -10.582 8.574 L -10.582 11.045 C -10.582 11.47 -10.35 11.741 -9.848 11.856 C -8.303 12.166 -6.063 12.475 -3.398 12.475 C 2.086 12.475 5.098 10.042 5.098 5.098 L 5.098 -8.805 C 5.098 -9.23 4.75 -9.578 4.325 -9.578 " fill="#1a3763"/>
<path transform="matrix(1,0,0,-1,219.1662,53.682199)" d="M 0 0 C -.927 -.154 -1.776 -.271 -2.626 -.271 C -6.99 -.271 -8.767 .695 -8.767 5.87 L -8.767 17.997 L -12.396 18.538 C -12.821 18.615 -13.169 18.885 -13.169 19.31 L -13.169 21.048 C -13.169 21.473 -12.821 21.82 -12.396 21.82 L -8.767 21.82 L -8.767 24.987 C -8.767 25.412 -8.419 25.682 -7.994 25.759 L -4.402 26.377 L -4.248 26.377 C -3.9 26.377 -3.63 26.184 -3.63 25.798 L -3.63 21.82 L -.154 21.82 C .271 21.82 .618 21.473 .618 21.048 L .618 18.769 C .618 18.344 .271 17.997 -.154 17.997 L -3.63 17.997 L -3.63 5.87 C -3.63 3.939 -3.515 3.708 -2.124 3.708 L -.077 3.708 C .425 3.708 .734 3.514 .734 3.128 L .734 .695 C .734 .309 .502 .077 0 0 " fill="#1a3763"/>
<path transform="matrix(1,0,0,-1,236.0451,40.744699)" d="M 0 0 C 0 3.013 -1.66 4.75 -4.055 4.75 C -6.449 4.75 -8.188 3.051 -8.188 0 L -8.188 -.154 L 0 -.154 Z M 4.364 -3.785 L -8.226 -3.785 L -8.226 -3.9 C -8.226 -6.141 -7.299 -8.805 -3.592 -8.805 C -.772 -8.805 1.893 -8.574 3.515 -8.419 L 3.631 -8.419 C 4.017 -8.419 4.325 -8.612 4.325 -8.999 L 4.325 -11.547 C 4.325 -12.165 4.21 -12.436 3.515 -12.551 C 1.004 -13.015 -.502 -13.208 -3.978 -13.208 C -7.84 -13.208 -13.324 -11.123 -13.324 -3.514 L -13.324 -.656 C -13.324 5.368 -9.964 9.153 -4.055 9.153 C 1.893 9.153 5.137 5.098 5.137 -.656 L 5.137 -2.819 C 5.137 -3.437 4.905 -3.785 4.364 -3.785 " fill="#1a3763"/>
<path transform="matrix(1,0,0,-1,273.6632,32.749998)" d="M 0 0 L -3.514 -17.765 C -3.978 -20.083 -4.596 -21.009 -6.951 -21.009 L -7.994 -21.009 C -10.079 -21.009 -11.161 -20.005 -11.663 -17.997 L -14.714 -6.179 C -14.752 -6.025 -14.752 -5.986 -14.83 -5.986 C -14.907 -5.986 -14.907 -6.025 -14.945 -6.179 L -17.996 -17.997 C -18.499 -20.005 -19.58 -21.009 -21.665 -21.009 L -22.708 -21.009 C -25.064 -21.009 -25.682 -20.083 -26.145 -17.765 L -29.66 0 L -29.66 .116 C -29.66 .541 -29.312 .888 -28.888 .888 L -25.142 .888 C -24.755 .888 -24.484 .541 -24.446 .193 L -22.013 -16.143 C -21.975 -16.491 -21.897 -16.684 -21.82 -16.684 C -21.742 -16.684 -21.627 -16.529 -21.55 -16.143 L -18.344 -3.167 C -17.958 -1.661 -17.494 -1.506 -16.182 -1.506 L -13.478 -1.506 C -12.165 -1.506 -11.701 -1.661 -11.315 -3.167 L -8.109 -16.143 C -8.032 -16.529 -7.917 -16.684 -7.84 -16.684 C -7.763 -16.684 -7.685 -16.491 -7.646 -16.143 L -5.213 .193 C -5.175 .541 -4.904 .888 -4.519 .888 L -.772 .888 C -.348 .888 0 .541 0 .116 Z " fill="#1a3763"/>
<path transform="matrix(1,0,0,-1,287.6476,44.065999)" d="M 0 0 L -2.433 0 C -5.947 0 -6.72 -1.12 -6.72 -3.283 L -6.72 -3.437 C -6.72 -5.33 -5.87 -5.832 -3.939 -5.832 C -2.549 -5.832 -1.12 -5.368 0 -4.75 Z M 4.325 -9.578 L 1.043 -9.578 C .618 -9.578 .271 -9.23 .271 -8.805 L .271 -8.188 C -1.506 -9.269 -3.321 -9.887 -5.175 -9.887 C -8.381 -9.887 -11.856 -8.651 -11.856 -3.437 L -11.856 -3.283 C -11.856 1.12 -9.153 3.399 -2.433 3.399 L 0 3.399 L 0 5.098 C 0 7.608 -1.12 8.226 -3.398 8.226 C -5.87 8.226 -8.419 8.072 -9.693 7.917 L -9.887 7.917 C -10.273 7.917 -10.582 8.033 -10.582 8.574 L -10.582 11.045 C -10.582 11.47 -10.351 11.741 -9.849 11.856 C -8.304 12.166 -6.063 12.475 -3.398 12.475 C 2.085 12.475 5.098 10.042 5.098 5.098 L 5.098 -8.805 C 5.098 -9.23 4.75 -9.578 4.325 -9.578 " fill="#1a3763"/>
<path transform="matrix(1,0,0,-1,314.9161,32.749998)" d="M 0 0 L -6.449 -22.554 C -7.646 -26.764 -9.075 -28.618 -14.328 -28.618 C -15.603 -28.618 -17.533 -28.386 -18.422 -28.116 C -18.847 -28 -19.232 -27.845 -19.232 -27.459 L -19.232 -24.987 C -19.232 -24.562 -18.885 -24.292 -18.46 -24.292 L -18.383 -24.292 C -17.302 -24.331 -15.101 -24.524 -14.019 -24.524 C -12.358 -24.524 -11.509 -24.061 -10.968 -22.052 L -10.659 -20.894 L -11.238 -20.894 C -12.358 -20.894 -13.749 -20.623 -14.599 -17.688 L -19.657 0 C -19.696 .116 -19.696 .193 -19.696 .27 C -19.696 .656 -19.465 .888 -18.962 .888 L -15.062 .888 C -14.714 .888 -14.405 .541 -14.328 .193 L -10.428 -15.525 C -10.272 -16.182 -10.118 -16.375 -9.887 -16.375 L -9.848 -16.375 L -9.655 -16.375 L -9.539 -16.375 L -5.368 .231 C -5.291 .579 -4.982 .888 -4.596 .888 L -.656 .888 C -.271 .888 .039 .579 .039 .231 C .039 .154 .039 .077 0 0 " fill="#1a3763"/>
<path transform="matrix(1,0,0,-1,66.0381,27.954197)" d="M 0 0 C 5.094 0 9.224 4.13 9.224 9.224 C 9.224 14.318 5.094 18.448 0 18.448 C -5.094 18.448 -9.224 14.318 -9.224 9.224 C -9.224 4.13 -5.094 0 0 0 " fill="#4ec4d0"/>
<path transform="matrix(1,0,0,-1,73.6026,27.622197)" d="M 0 0 C -2.336 -1.992 -5.463 -3.083 -8.84 -2.723 C -14.428 -2.127 -18.86 2.515 -19.222 8.123 C -19.423 11.224 -18.401 14.084 -16.596 16.279 C -15.919 17.103 -16.496 18.339 -17.562 18.339 L -27.218 18.339 C -27.717 18.339 -28.178 18.047 -28.371 17.587 C -29.729 14.352 -30.359 10.738 -30.038 6.948 C -29.112 -3.959 -20.273 -12.741 -9.36 -13.594 C -5.551 -13.891 -1.92 -13.232 1.322 -11.836 C 1.776 -11.64 2.063 -11.183 2.063 -10.687 L 2.063 -.965 C 2.063 .103 .812 .693 0 0 " fill="#4ec4d0"/>
<path transform="matrix(1,0,0,-1,73.9954,42.914899)" d="M 0 0 C -3.335 -1.102 -6.971 -1.536 -10.754 -1.127 C -22.48 .141 -31.912 9.517 -33.251 21.236 C -33.683 25.009 -33.272 28.637 -32.196 31.97 C -31.932 32.79 -32.526 33.631 -33.387 33.631 L -42.062 33.631 C -42.637 33.631 -43.147 33.243 -43.282 32.683 C -43.94 29.956 -44.293 27.111 -44.293 24.185 C -44.293 21.189 -43.921 18.281 -43.234 15.494 C -30.057 12.09 -19.828 1.962 -16.288 -11.173 C -13.61 -11.804 -10.825 -12.151 -7.957 -12.151 C -4.964 -12.151 -2.056 -11.78 .728 -11.093 C 1.285 -10.955 1.67 -10.447 1.67 -9.873 L 1.67 -1.188 C 1.67 -.322 .822 .271 0 0 " fill="#4ec4d0"/>
<path transform="matrix(1,0,0,-1,24.084,40.356397)" d="M 0 0 C -3.81 .298 -7.44 -.362 -10.682 -1.758 C -11.137 -1.953 -11.423 -2.411 -11.423 -2.906 L -11.423 -12.629 C -11.423 -13.696 -10.173 -14.286 -9.36 -13.594 C -7.024 -11.601 -3.897 -10.511 -.52 -10.871 C 5.067 -11.467 9.499 -16.109 9.862 -21.716 C 10.062 -24.818 9.04 -27.678 7.236 -29.873 C 6.559 -30.696 7.136 -31.932 8.201 -31.932 L 17.858 -31.932 C 18.357 -31.932 18.817 -31.641 19.011 -31.181 C 20.369 -27.945 20.999 -24.332 20.677 -20.541 C 19.752 -9.635 10.912 -.853 0 0 " fill="#193660"/>
<path transform="matrix(1,0,0,-1,22.288,53.618196)" d="M 0 0 C -5.094 0 -9.224 -4.13 -9.224 -9.224 C -9.224 -14.318 -5.094 -18.448 0 -18.448 C 5.094 -18.448 9.224 -14.318 9.224 -9.224 C 9.224 -4.13 5.094 0 0 0 " fill="#193660"/>
<path transform="matrix(1,0,0,-1,57.5222,57.922395)" d="M 0 0 C -.001 0 -.002 0 -.003 0 C -.164 .975 -.349 1.945 -.588 2.904 C -.692 3.321 -.917 4.129 -.905 4.126 C -4.35 16.425 -14.106 26.091 -26.455 29.413 C -26.765 29.496 -27.068 29.595 -27.381 29.67 C -28.808 30.013 -30.268 30.269 -31.754 30.441 C -33.107 30.596 -34.481 30.683 -35.876 30.683 C -38.87 30.683 -41.777 30.312 -44.561 29.624 C -45.118 29.487 -45.503 28.978 -45.503 28.405 L -45.503 19.719 C -45.503 18.854 -44.655 18.26 -43.833 18.532 C -40.498 19.633 -36.863 20.067 -33.081 19.658 C -21.353 18.391 -11.922 9.015 -10.582 -2.704 C -10.15 -6.477 -10.561 -10.106 -11.637 -13.439 C -11.901 -14.258 -11.308 -15.1 -10.446 -15.1 L -1.772 -15.1 C -1.196 -15.1 -.686 -14.711 -.551 -14.152 C .107 -11.424 .46 -8.58 .46 -5.653 C .46 -3.728 .291 -1.844 0 0 " fill="#193660"/>
</g>
</g>
</g>
</svg>
