<?xml version="1.0" standalone="no"?>
<!DOCTYPE svg PUBLIC "-//W3C//DTD SVG 20010904//EN"
 "http://www.w3.org/TR/2001/REC-SVG-20010904/DTD/svg10.dtd">
<svg version="1.0" xmlns="http://www.w3.org/2000/svg"
 width="1047.000000pt" height="295.000000pt" viewBox="0 0 1047.000000 295.000000"
 preserveAspectRatio="xMidYMid meet">

<g transform="translate(0.000000,295.000000) scale(0.100000,-0.100000)"
fill="#000000" stroke="none">
<path d="M4565 2929 c-312 -32 -604 -166 -827 -377 -176 -168 -293 -359 -357
-582 l-19 -70 398 0 399 0 31 64 c87 176 296 287 481 256 148 -25 249 -129
274 -283 l6 -37 397 2 397 3 3 75 c12 286 -111 560 -327 732 -214 171 -530
251 -856 217z"/>
<path d="M671 2808 c-37 -113 -270 -842 -281 -880 l-9 -28 1275 0 1274 0 0
163 c0 89 -3 314 -7 500 l-6 337 -397 0 -396 0 -18 -37 c-46 -94 -410 -873
-427 -912 -11 -24 -21 -42 -23 -40 -3 2 -34 213 -71 469 -36 256 -68 477 -71
493 l-6 27 -403 0 -403 0 -31 -92z"/>
<path d="M6255 2868 c-3 -18 -37 -233 -75 -478 -39 -245 -72 -455 -75 -467
l-5 -23 779 0 779 0 49 37 c94 71 156 160 194 275 20 62 24 92 24 203 0 165
-19 217 -105 306 -88 90 -220 144 -411 169 -41 5 -316 10 -611 10 l-537 0 -6
-32z m891 -510 c41 -22 58 -65 50 -122 -16 -106 -88 -154 -242 -163 l-97 -6 6
39 c4 21 15 92 24 158 l17 118 106 -4 c72 -3 115 -9 136 -20z"/>
<path d="M9002 2768 c-80 -151 -432 -855 -432 -863 0 -3 191 -5 425 -5 398 0
425 -1 426 -17 0 -10 26 -270 57 -578 l57 -560 413 -3 c383 -2 412 -1 412 15
0 14 -153 794 -375 1912 -25 124 -45 226 -45 228 0 2 -195 3 -434 3 l-434 0
-70 -132z"/>
<path d="M10265 2893 c-85 -22 -130 -127 -85 -200 74 -122 250 -76 250 65 0
77 -38 122 -115 135 -16 3 -39 3 -50 0z m107 -52 c29 -26 33 -35 33 -81 0 -46
-4 -55 -33 -81 -62 -55 -159 -31 -181 45 -13 49 -3 82 36 116 46 41 100 41
145 1z"/>
<path d="M10240 2755 c0 -43 4 -75 10 -75 6 0 10 13 10 28 0 16 3 31 6 35 11
11 35 -5 50 -34 8 -16 22 -29 30 -29 14 0 13 5 -4 34 -18 30 -19 36 -6 47 17
14 18 41 2 57 -7 7 -31 12 -55 12 l-43 0 0 -75z m83 41 c8 -19 -1 -26 -35 -26
-21 0 -28 5 -28 20 0 15 7 20 29 20 16 0 31 -6 34 -14z"/>
<path d="M317 1693 c-4 -3 -7 -10 -7 -15 0 -4 165 -7 367 -6 282 2 367 6 371
16 3 9 -74 12 -360 12 -201 0 -368 -3 -371 -7z"/>
<path d="M1100 1685 c0 -13 63 -15 527 -13 410 2 527 6 531 16 3 9 -107 12
-527 12 -467 0 -531 -2 -531 -15z"/>
<path d="M2220 1685 c0 -13 46 -15 355 -15 309 0 355 2 355 15 0 13 -46 15
-355 15 -309 0 -355 -2 -355 -15z"/>
<path d="M3330 1685 c0 -13 50 -15 406 -15 320 0 405 3 402 13 -4 9 -96 13
-406 15 -353 2 -402 0 -402 -13z"/>
<path d="M4906 1685 c-5 -13 43 -15 393 -15 345 0 400 2 405 15 5 13 -43 15
-393 15 -345 0 -400 -2 -405 -15z"/>
<path d="M6070 1685 c0 -13 102 -15 871 -15 692 0 870 3 867 13 -4 9 -189 13
-871 15 -767 2 -867 0 -867 -13z"/>
<path d="M8456 1685 c-5 -13 43 -15 394 -15 349 0 400 2 400 15 0 13 -50 15
-394 15 -341 0 -395 -2 -400 -15z"/>
<path d="M250 1484 c-6 -14 -10 -30 -10 -35 0 -5 147 -9 370 -9 289 0 370 3
370 13 0 6 3 22 6 35 l6 22 -366 0 -366 0 -10 -26z"/>
<path d="M1128 1475 l4 -35 454 0 453 0 16 30 c8 16 15 31 15 35 0 3 -213 5
-473 5 l-473 0 4 -35z"/>
<path d="M2210 1473 l0 -38 360 3 360 2 0 35 0 35 -360 0 -360 0 0 -37z"/>
<path d="M3340 1498 c0 -7 3 -23 6 -35 l6 -23 461 0 460 0 -39 35 -39 34 -427
1 c-336 0 -428 -3 -428 -12z"/>
<path d="M4735 1474 l-50 -34 462 0 462 0 16 30 c8 16 15 31 15 35 0 3 -192 5
-427 4 l-428 0 -50 -35z"/>
<path d="M6040 1491 c0 -11 -3 -26 -6 -35 -6 -14 30 -16 360 -16 354 0 366 1
366 19 0 11 3 26 6 35 6 14 -30 16 -360 16 -354 0 -366 -1 -366 -19z"/>
<path d="M7163 1475 l1 -35 358 -2 359 -3 -3 35 -3 35 -357 3 -356 2 1 -35z"/>
<path d="M8347 1475 l-17 -35 470 0 470 0 0 35 0 35 -453 0 -453 0 -17 -35z"/>
<path d="M178 1268 l-15 -53 370 -3 c204 -1 371 -1 373 0 1 2 9 27 17 56 l16
52 -373 0 -373 0 -15 -52z"/>
<path d="M1156 1288 c3 -18 7 -43 10 -55 l4 -23 378 0 378 0 27 55 27 55 -415
0 -414 0 5 -32z"/>
<path d="M2200 1265 l0 -55 365 0 365 0 0 55 0 55 -365 0 -365 0 0 -55z"/>
<path d="M3386 1298 c3 -12 13 -36 20 -55 l14 -33 1023 0 1023 0 37 49 c20 26
37 51 37 55 0 3 -486 6 -1081 6 l-1080 0 7 -22z"/>
<path d="M6005 1265 c-4 -31 -6 -57 -4 -58 2 -1 417 -1 921 1 l918 3 15 51 c8
29 15 53 15 55 0 2 -173 3 -384 3 l-384 0 -53 -27 c-48 -25 -64 -28 -186 -31
l-133 -4 6 31 7 31 -366 0 -366 0 -6 -55z"/>
<path d="M8240 1268 c-16 -29 -30 -56 -30 -60 0 -5 246 -8 546 -8 l547 0 -7
31 c-3 17 -6 44 -6 60 l0 29 -510 0 -510 0 -30 -52z"/>
<path d="M76 949 c-31 -99 -60 -187 -63 -195 -4 -12 48 -14 376 -14 l380 0 21
73 c12 39 37 124 56 188 19 64 34 119 34 123 0 3 -168 6 -373 6 l-373 0 -58
-181z"/>
<path d="M1180 1123 c1 -5 13 -91 28 -193 l28 -185 229 0 230 0 92 185 c50
102 92 188 92 193 1 4 -156 7 -349 7 -192 0 -350 -3 -350 -7z"/>
<path d="M2196 1108 c-3 -13 -8 -101 -11 -195 l-6 -173 375 0 376 0 0 195 0
195 -365 0 -365 0 -4 -22z"/>
<path d="M3502 1084 c50 -71 168 -177 246 -223 85 -51 230 -104 348 -128 137
-27 445 -25 581 5 188 41 330 101 493 208 78 51 210 161 210 174 0 6 -358 10
-956 10 l-955 0 33 -46z"/>
<path d="M5956 963 c-15 -93 -30 -180 -33 -195 l-5 -28 580 0 c599 0 734 6
860 40 179 49 340 173 436 338 6 9 -177 12 -902 12 l-908 0 -28 -167z"/>
<path d="M8080 944 c-52 -102 -96 -190 -98 -195 -2 -5 169 -9 411 -9 l415 0
54 135 53 135 204 0 203 0 -6 23 c-3 12 -6 39 -6 60 l0 37 -568 0 -568 0 -94
-186z"/>
<path d="M1939 391 c-84 -27 -99 -57 -99 -191 0 -115 12 -150 63 -177 42 -22
132 -22 174 0 51 27 63 62 63 177 0 114 -12 150 -60 175 -37 19 -107 27 -141
16z m109 -77 c20 -14 22 -23 22 -114 0 -91 -2 -100 -22 -114 -32 -23 -94 -20
-118 4 -17 17 -20 33 -20 110 0 77 3 93 20 110 24 24 86 27 118 4z"/>
<path d="M6107 386 c-21 -8 -40 -16 -41 -18 -1 -1 -12 -16 -24 -32 -19 -25
-22 -41 -22 -128 0 -158 34 -203 155 -202 114 1 145 42 145 196 0 146 -24 181
-134 194 -23 2 -58 -2 -79 -10z m124 -75 c22 -18 24 -27 24 -111 0 -84 -2 -93
-24 -111 -32 -26 -95 -25 -121 1 -17 17 -20 33 -20 110 0 77 3 93 20 110 26
26 89 27 121 1z"/>
<path d="M8566 390 c-70 -22 -96 -75 -96 -197 0 -97 15 -136 67 -170 37 -24
139 -25 176 0 52 34 62 61 62 178 0 93 -3 111 -21 136 -37 50 -122 74 -188 53z
m119 -85 c22 -21 25 -33 25 -103 0 -103 -19 -132 -86 -132 -71 0 -84 21 -84
130 0 77 3 93 20 110 29 29 94 27 125 -5z"/>
<path d="M1240 200 l0 -190 30 0 30 0 0 123 0 122 42 -75 c46 -83 52 -90 79
-83 19 5 40 36 88 128 l21 40 0 -128 0 -127 30 0 30 0 0 190 0 190 -29 0 c-26
0 -34 -9 -86 -100 -31 -55 -60 -98 -65 -95 -5 3 -32 48 -60 100 -47 87 -54 95
-81 95 l-29 0 0 -190z"/>
<path d="M2390 201 l0 -191 98 0 c111 0 158 17 180 63 17 36 8 91 -19 118 -19
19 -19 22 -5 38 25 27 21 95 -8 128 -23 27 -28 28 -135 31 l-111 4 0 -191z
m193 109 c5 -4 7 -20 5 -36 -3 -28 -5 -29 -66 -34 l-62 -5 0 48 0 48 58 -6
c31 -4 61 -11 65 -15z m5 -152 c7 -7 12 -25 12 -40 0 -35 -32 -50 -97 -47
l-43 3 0 48 0 48 58 0 c32 0 63 -5 70 -12z"/>
<path d="M2920 200 l0 -190 29 0 c18 0 31 6 35 17 8 19 7 330 -1 350 -3 7 -18
13 -34 13 l-29 0 0 -190z"/>
<path d="M3240 200 l0 -191 118 3 117 3 3 27 c4 31 6 30 -83 30 -34 -1 -66 3
-73 7 -8 4 -12 55 -14 156 l-3 150 -32 3 -33 3 0 -191z"/>
<path d="M3706 374 c-9 -24 -7 -337 2 -352 7 -9 39 -12 128 -10 l119 3 3 28
c2 15 0 27 -5 28 -4 0 -46 1 -93 2 l-85 2 -3 47 -3 47 78 3 c77 3 78 3 81 31
4 30 7 29 -88 32 l-65 2 0 44 0 44 68 -3 c89 -4 107 2 107 39 l0 29 -119 0
c-99 0 -120 -3 -125 -16z"/>
<path d="M4587 383 c-12 -19 -137 -348 -137 -360 0 -8 12 -13 30 -13 27 0 33
6 49 43 l18 42 68 0 c72 0 75 -2 95 -58 8 -22 15 -27 45 -27 19 0 35 3 35 8 0
4 -31 88 -69 187 -67 175 -70 180 -99 183 -17 2 -32 -1 -35 -5z m57 -157 c24
-73 22 -76 -29 -76 -25 0 -45 3 -45 8 0 19 45 130 51 124 3 -4 14 -29 23 -56z"/>
<path d="M5004 376 c-3 -9 -4 -77 -2 -153 4 -154 13 -180 71 -204 44 -19 125
-16 165 5 53 28 63 65 60 224 l-3 137 -30 0 -30 0 -5 -143 c-6 -161 -11 -172
-80 -172 -69 0 -74 11 -80 172 l-5 143 -28 3 c-17 2 -29 -2 -33 -12z"/>
<path d="M5527 384 c-4 -4 -7 -18 -7 -31 0 -24 4 -26 70 -27 l35 -1 5 -155 5
-155 32 -3 32 -3 3 158 3 158 35 2 c19 0 43 2 53 2 14 1 18 8 15 29 l-3 27
-136 3 c-74 1 -138 -1 -142 -4z"/>
<path d="M6570 201 l0 -191 30 0 30 0 0 123 0 122 45 -76 c66 -114 81 -114
140 -4 l40 74 5 -117 5 -117 30 0 30 0 3 165 c3 198 1 210 -37 210 -25 0 -33
-10 -82 -100 -30 -55 -58 -98 -62 -97 -4 1 -32 45 -61 97 -48 86 -56 95 -85
98 l-31 3 0 -190z"/>
<path d="M7287 383 c-9 -15 -137 -354 -137 -364 0 -5 14 -9 30 -9 25 0 33 6
47 37 10 21 18 39 19 41 1 2 33 4 71 5 l68 1 19 -42 c17 -37 23 -42 53 -42 20
0 33 5 32 13 0 6 -31 91 -68 187 -66 171 -69 175 -99 178 -16 2 -32 -1 -35 -5z
m59 -160 c13 -37 24 -69 24 -70 0 -2 -23 -3 -51 -3 -36 0 -49 4 -47 13 20 67
43 135 46 132 3 -2 15 -35 28 -72z"/>
<path d="M7643 374 c-11 -30 11 -49 58 -49 l44 1 5 -156 5 -155 32 -3 32 -3 3
157 3 157 50 1 c49 1 50 2 53 34 l3 32 -141 0 c-121 0 -142 -2 -147 -16z"/>
<path d="M8160 200 l0 -191 33 3 32 3 0 185 0 185 -32 3 -33 3 0 -191z"/>
<path d="M9020 200 l0 -191 33 3 32 3 0 133 c0 73 2 127 4 120 2 -7 40 -68 85
-136 76 -116 83 -123 111 -120 l30 3 0 185 0 185 -30 0 -30 0 0 -131 0 -131
-27 46 c-14 25 -53 84 -85 131 -50 74 -62 85 -90 88 l-33 3 0 -191z"/>
</g>
</svg>
