<svg width="411" height="119" viewBox="0 0 411 119" fill="none" xmlns="http://www.w3.org/2000/svg">
<path d="M392.539 35.4695C390.186 35.4695 388.356 36.2062 387.049 37.6795C385.766 39.1528 384.958 41.1489 384.625 43.6678H400.416C400.25 40.9826 399.43 38.9508 397.957 37.5726C396.507 36.1706 394.701 35.4695 392.539 35.4695ZM392.539 27.0931C395.77 27.0931 398.681 27.699 401.271 28.9109C403.862 30.1229 406 32.0358 407.688 34.6497C409.208 36.9547 410.194 39.6281 410.646 42.6697C410.907 44.452 411.014 47.0184 410.967 50.369H384.376C384.519 54.2661 385.742 56.9988 388.047 58.5672C389.449 59.5415 391.137 60.0286 393.109 60.0286C395.2 60.0286 396.899 59.4345 398.206 58.2464C398.919 57.6048 399.549 56.7137 400.095 55.5731H410.468C410.206 57.8781 409.006 60.2187 406.868 62.595C403.541 66.3734 398.883 68.2625 392.895 68.2625C387.952 68.2625 383.592 66.6704 379.813 63.4861C376.035 60.3019 374.146 55.1216 374.146 47.9451C374.146 41.2202 375.845 36.0636 379.243 32.4754C382.665 28.8872 387.097 27.0931 392.539 27.0931Z" fill="black"/>
<path d="M354.114 27.2C358.13 27.2 361.409 28.2575 363.952 30.3724C366.518 32.4635 367.801 35.9448 367.801 40.8162V66.9793H357.393V43.347C357.393 41.3034 357.12 39.735 356.573 38.6419C355.575 36.6458 353.674 35.6478 350.87 35.6478C347.424 35.6478 345.06 37.1092 343.777 40.032C343.111 41.5766 342.779 43.549 342.779 45.949V66.9793H332.656V28.1981H342.458V33.8655C343.765 31.8694 345.001 30.4318 346.165 29.5526C348.256 27.9842 350.906 27.2 354.114 27.2Z" fill="black"/>
<path d="M322.711 23.493H312.41V14.1185H322.711V23.493ZM312.41 28.1268H322.711V66.9793H312.41V28.1268Z" fill="black"/>
<path d="M283.965 35.7191V28.4832H289.383V17.6473H299.435V28.4832H305.744V35.7191H299.435V56.2503C299.435 57.8424 299.637 58.8405 300.041 59.2444C300.445 59.6247 301.681 59.8148 303.748 59.8148C304.057 59.8148 304.378 59.8148 304.71 59.8148C305.067 59.791 305.411 59.7672 305.744 59.7435V67.3358L300.932 67.514C296.132 67.6803 292.853 66.8486 291.094 65.0189C289.954 63.8545 289.383 62.0604 289.383 59.6365V35.7191H283.965Z" fill="black"/>
<path d="M268.745 48.0877C268.104 48.4917 267.45 48.8244 266.785 49.0858C266.143 49.3234 265.252 49.5491 264.111 49.763L261.83 50.1907C259.691 50.5709 258.159 51.0343 257.232 51.5809C255.664 52.5076 254.879 53.9453 254.879 55.8939C254.879 57.6286 255.355 58.888 256.305 59.6722C257.279 60.4326 258.456 60.8128 259.834 60.8128C262.02 60.8128 264.028 60.1712 265.858 58.888C267.711 57.6048 268.674 55.2641 268.745 51.866V48.0877ZM262.579 43.347C264.456 43.1094 265.799 42.8123 266.606 42.4559C268.056 41.838 268.781 40.8756 268.781 39.5687C268.781 37.9765 268.222 36.8834 267.105 36.2894C266.012 35.6715 264.396 35.3626 262.258 35.3626C259.858 35.3626 258.159 35.9567 257.161 37.1448C256.448 38.0241 255.972 39.2122 255.735 40.7093H245.933C246.146 37.3112 247.097 34.519 248.784 32.3328C251.469 28.9109 256.079 27.2 262.614 27.2C266.868 27.2 270.646 28.0436 273.949 29.7308C277.252 31.4179 278.904 34.6022 278.904 39.2835V57.1058C278.904 58.3415 278.928 59.8385 278.975 61.597C279.046 62.9277 279.248 63.8307 279.581 64.306C279.914 64.7812 280.413 65.1733 281.078 65.4822V66.9793H270.028C269.719 66.1951 269.506 65.4585 269.387 64.7693C269.268 64.0802 269.173 63.296 269.102 62.4168C267.7 63.9376 266.084 65.2327 264.254 66.3021C262.068 67.5615 259.596 68.1912 256.84 68.1912C253.323 68.1912 250.412 67.1932 248.107 65.1971C245.826 63.1772 244.685 60.3257 244.685 56.6424C244.685 51.866 246.527 48.4085 250.21 46.2698C252.23 45.1054 255.2 44.2737 259.121 43.7747L262.579 43.347Z" fill="black"/>
<path d="M237.378 66.9793H227.219V14.4393H237.378V66.9793Z" fill="black"/>
<path d="M207.793 48.0877C207.151 48.4917 206.498 48.8244 205.833 49.0858C205.191 49.3234 204.3 49.5491 203.159 49.763L200.878 50.1907C198.739 50.5709 197.207 51.0343 196.28 51.5809C194.711 52.5076 193.927 53.9453 193.927 55.8939C193.927 57.6286 194.403 58.888 195.353 59.6722C196.327 60.4326 197.504 60.8128 198.882 60.8128C201.068 60.8128 203.076 60.1712 204.906 58.888C206.759 57.6048 207.722 55.2641 207.793 51.866V48.0877ZM201.626 43.347C203.504 43.1094 204.846 42.8123 205.654 42.4559C207.104 41.838 207.829 40.8756 207.829 39.5687C207.829 37.9765 207.27 36.8834 206.153 36.2894C205.06 35.6715 203.444 35.3626 201.306 35.3626C198.906 35.3626 197.207 35.9567 196.208 37.1448C195.496 38.0241 195.02 39.2122 194.783 40.7093H184.98C185.194 37.3112 186.145 34.519 187.832 32.3328C190.517 28.9109 195.127 27.2 201.662 27.2C205.916 27.2 209.694 28.0436 212.997 29.7308C216.3 31.4179 217.952 34.6022 217.952 39.2835V57.1058C217.952 58.3415 217.975 59.8385 218.023 61.597C218.094 62.9277 218.296 63.8307 218.629 64.306C218.962 64.7812 219.461 65.1733 220.126 65.4822V66.9793H209.076C208.767 66.1951 208.553 65.4585 208.435 64.7693C208.316 64.0802 208.221 63.296 208.149 62.4168C206.747 63.9376 205.132 65.2327 203.302 66.3021C201.116 67.5615 198.644 68.1912 195.888 68.1912C192.371 68.1912 189.46 67.1932 187.155 65.1971C184.874 63.1772 183.733 60.3257 183.733 56.6424C183.733 51.866 185.575 48.4085 189.258 46.2698C191.278 45.1054 194.248 44.2737 198.169 43.7747L201.626 43.347Z" fill="black"/>
<path d="M168.085 31.1566C168.085 28.4238 167.36 26.4752 165.911 25.3109C164.485 24.1465 162.477 23.5643 159.887 23.5643H149.657V39.034H159.887C162.477 39.034 164.485 38.4043 165.911 37.1448C167.36 35.8854 168.085 33.8893 168.085 31.1566ZM178.957 31.0853C178.957 37.2874 177.388 41.6717 174.251 44.2381C171.115 46.8045 166.635 48.0877 160.813 48.0877H149.657V66.9793H138.75V14.4393H161.633C166.909 14.4393 171.115 15.7938 174.251 18.5027C177.388 21.2117 178.957 25.4059 178.957 31.0853Z" fill="black"/>
<path d="M325.876 100.108V108.751H324.014V92.6906H325.876V95.1124H325.937C327.036 93.2355 328.691 92.2869 330.901 92.2667C332.365 92.2869 333.439 92.5846 334.125 93.1598C334.802 93.735 335.296 94.4666 335.609 95.3546C336.749 93.296 338.495 92.2667 340.846 92.2667C341.966 92.2667 342.854 92.4383 343.51 92.7814C344.176 93.1346 344.671 93.6139 344.994 94.2194C345.327 94.8147 345.559 95.4858 345.69 96.2325C345.791 97.0096 345.841 97.8017 345.841 98.609V108.751H343.979V97.6554C343.979 96.4949 343.742 95.5867 343.268 94.9308C342.774 94.2648 341.865 93.9318 340.543 93.9318C339.111 93.9318 337.9 94.5423 336.911 95.7633C336.517 96.3183 336.25 96.9995 336.108 97.8068C335.937 98.6141 335.851 99.381 335.851 100.108V108.751H333.989V97.6554C333.989 96.4949 333.752 95.5867 333.278 94.9308C332.783 94.2648 331.875 93.9318 330.553 93.9318C329.13 93.9318 327.924 94.5423 326.936 95.7633C326.542 96.3183 326.27 96.9995 326.118 97.8068C325.957 98.6141 325.876 99.381 325.876 100.108Z" fill="black"/>
<path d="M315.311 100.88V108.751H313.464V92.6906H315.311V95.7028H315.386C315.901 94.4212 316.572 93.5231 317.399 93.0084C318.227 92.514 319.302 92.2667 320.624 92.2667V94.2799C318.575 94.2799 317.167 94.9106 316.4 96.172C315.654 97.4536 315.29 99.0227 315.311 100.88Z" fill="black"/>
<path d="M302.49 109.19C300.381 109.169 298.635 108.443 297.252 107.01C295.809 105.607 295.078 103.513 295.058 100.728C295.058 98.3063 295.678 96.2981 296.919 94.7037C298.161 93.1194 300.017 92.3071 302.49 92.2667C304.992 92.3071 306.864 93.1194 308.105 94.7037C309.326 96.2981 309.937 98.3063 309.937 100.728C309.917 103.311 309.246 105.345 307.924 106.828C306.602 108.382 304.791 109.169 302.49 109.19ZM307.954 100.728C307.974 98.7806 307.561 97.166 306.713 95.8844C305.865 94.6028 304.458 93.9519 302.49 93.9318C300.552 93.9721 299.16 94.6634 298.312 96.0055C297.464 97.3476 297.041 98.9218 297.041 100.728C297.041 102.746 297.515 104.366 298.463 105.587C299.372 106.848 300.714 107.489 302.49 107.509C304.437 107.489 305.845 106.788 306.713 105.405C307.54 104.063 307.954 102.504 307.954 100.728Z" fill="black"/>
<path d="M288.261 94.2496H285.87V92.6906H288.261V90.1476C288.191 87.4432 289.326 86.0607 291.667 86.0001C292.222 86.0001 292.737 86.0405 293.211 86.1212V87.8317C292.817 87.7207 292.449 87.6652 292.106 87.6652C291.167 87.6954 290.597 88.0083 290.396 88.6036C290.184 89.2192 290.093 89.9205 290.123 90.7076V92.6906H293.211V94.2496H290.123V108.751H288.261V94.2496Z" fill="black"/>
<path d="M284.492 107.297V108.811C284.27 108.852 283.983 108.912 283.629 108.993C283.256 109.104 282.832 109.169 282.358 109.19C281.45 109.19 280.758 108.952 280.284 108.478C279.759 107.974 279.497 107.146 279.497 105.996V94.2496H277.242V92.6906H279.497V88.2252H281.359V92.6906H284.371V94.2496H281.359V105.254C281.339 106.011 281.424 106.576 281.616 106.949C281.778 107.323 282.232 107.509 282.979 107.509C283.493 107.509 283.998 107.439 284.492 107.297Z" fill="black"/>
<path d="M272.11 100.319C271.323 100.612 270.526 100.819 269.719 100.94C268.911 101.081 268.104 101.172 267.297 101.213C264.32 101.384 262.811 102.524 262.771 104.633C262.791 105.582 263.154 106.293 263.861 106.768C264.547 107.262 265.344 107.509 266.252 107.509C267.796 107.509 269.149 107.126 270.309 106.359C271.47 105.622 272.07 104.447 272.11 102.832V100.319ZM266.404 99.7291L268.977 99.3961C269.35 99.3457 269.774 99.2801 270.249 99.1993C270.703 99.0984 271.096 98.9874 271.429 98.8663C271.732 98.6948 271.929 98.4476 272.02 98.1246C272.08 97.7916 272.11 97.4788 272.11 97.1862C272.11 96.2174 271.808 95.4353 271.202 94.84C270.587 94.2547 269.552 93.9519 268.099 93.9318C266.828 93.9116 265.778 94.1588 264.951 94.6735C264.143 95.2184 263.634 96.1821 263.422 97.5646H261.53C261.722 95.6775 262.428 94.3102 263.649 93.4625C264.86 92.6653 266.358 92.2667 268.145 92.2667C269.81 92.2667 271.192 92.625 272.292 93.3414C273.382 94.1084 273.942 95.4101 273.972 97.2467V105.996C273.942 106.692 274.073 107.136 274.366 107.328C274.638 107.53 275.158 107.499 275.925 107.237V108.69C275.794 108.73 275.597 108.781 275.334 108.841C275.042 108.942 274.749 108.993 274.457 108.993C274.174 108.993 273.896 108.963 273.624 108.902C273.029 108.781 272.635 108.493 272.443 108.039C272.262 107.585 272.161 107.081 272.141 106.526C270.526 108.281 268.528 109.169 266.146 109.19C264.703 109.19 263.467 108.796 262.438 108.009C261.358 107.262 260.808 106.117 260.788 104.573C260.788 101.858 262.66 100.244 266.404 99.7291Z" fill="black"/>
<path d="M256.837 108.751H254.976V86.4391H256.837V108.751Z" fill="black"/>
<path d="M238.038 108.751H235.934V86.4391H244.077C245.55 86.4391 246.761 86.5905 247.71 86.8932C248.659 87.2464 249.39 87.7005 249.905 88.2555C250.904 89.4563 251.393 90.9246 251.373 92.6603C251.323 95.0822 250.419 96.7371 248.664 97.6251C246.928 98.5131 244.975 98.937 242.806 98.8966H238.038V108.751ZM238.038 97.0953H242.866C244.874 97.1155 246.449 96.8178 247.589 96.2023C248.679 95.5766 249.234 94.3455 249.254 92.5089C249.274 89.6733 247.352 88.2454 243.487 88.2252H238.038V97.0953Z" fill="black"/>
<path d="M222.356 108.751H220.494V86.4391H222.356V108.751Z" fill="black"/>
<path d="M213.471 100.319C212.684 100.612 211.886 100.819 211.079 100.94C210.272 101.081 209.465 101.172 208.657 101.213C205.68 101.384 204.172 102.524 204.131 104.633C204.152 105.582 204.515 106.293 205.221 106.768C205.907 107.262 206.705 107.509 207.613 107.509C209.157 107.509 210.509 107.126 211.669 106.359C212.83 105.622 213.43 104.447 213.471 102.832V100.319ZM207.764 99.7291L210.337 99.3961C210.711 99.3457 211.135 99.2801 211.609 99.1993C212.063 99.0984 212.457 98.9874 212.79 98.8663C213.092 98.6948 213.289 98.4476 213.38 98.1246C213.44 97.7916 213.471 97.4788 213.471 97.1862C213.471 96.2174 213.168 95.4353 212.562 94.84C211.947 94.2547 210.913 93.9519 209.459 93.9318C208.188 93.9116 207.139 94.1588 206.311 94.6735C205.504 95.2184 204.994 96.1821 204.782 97.5646H202.89C203.082 95.6775 203.788 94.3102 205.009 93.4625C206.22 92.6653 207.719 92.2667 209.505 92.2667C211.17 92.2667 212.552 92.625 213.652 93.3414C214.742 94.1084 215.302 95.4101 215.333 97.2467V105.996C215.302 106.692 215.433 107.136 215.726 107.328C215.999 107.53 216.518 107.499 217.285 107.237V108.69C217.154 108.73 216.957 108.781 216.695 108.841C216.402 108.942 216.11 108.993 215.817 108.993C215.534 108.993 215.257 108.963 214.984 108.902C214.389 108.781 213.995 108.493 213.804 108.039C213.622 107.585 213.521 107.081 213.501 106.526C211.886 108.281 209.888 109.169 207.507 109.19C206.064 109.19 204.828 108.796 203.798 108.009C202.719 107.262 202.169 106.117 202.148 104.573C202.148 101.858 204.02 100.244 207.764 99.7291Z" fill="black"/>
<path d="M199.969 107.297V108.811C199.747 108.852 199.459 108.912 199.106 108.993C198.733 109.104 198.309 109.169 197.834 109.19C196.926 109.19 196.235 108.952 195.761 108.478C195.236 107.974 194.974 107.146 194.974 105.996V94.2496H192.718V92.6906H194.974V88.2252H196.835V92.6906H199.848V94.2496H196.835V105.254C196.815 106.011 196.901 106.576 197.093 106.949C197.254 107.323 197.708 107.509 198.455 107.509C198.97 107.509 199.474 107.439 199.969 107.297Z" fill="black"/>
<path d="M189.57 108.751H187.708V92.6906H189.57V108.751ZM189.661 89.194H187.617V86.4391H189.661V89.194Z" fill="black"/>
<path d="M180.881 100.789C180.881 98.8007 180.422 97.166 179.504 95.8844C178.576 94.6028 177.223 93.9519 175.447 93.9318C173.863 93.9318 172.571 94.4716 171.572 95.5514C170.563 96.6412 170.028 98.2003 169.968 100.229C169.907 102.297 170.331 104.003 171.239 105.345C172.127 106.768 173.53 107.489 175.447 107.509C177.163 107.489 178.495 106.818 179.443 105.496C180.402 104.194 180.881 102.625 180.881 100.789ZM180.881 95.5211V92.6906H182.728V107.207C182.779 109.417 182.294 111.294 181.275 112.838C180.225 114.452 178.202 115.28 175.205 115.32C172.864 115.28 171.169 114.745 170.119 113.715C169.564 113.241 169.15 112.732 168.878 112.187C168.606 111.672 168.449 111.178 168.409 110.703H170.392C170.704 111.884 171.305 112.671 172.193 113.065C173.081 113.458 174.085 113.655 175.205 113.655C176.487 113.625 177.511 113.393 178.278 112.959C179.035 112.555 179.61 111.99 180.003 111.263C180.397 110.537 180.654 109.74 180.775 108.872C180.886 107.984 180.922 107.086 180.881 106.177C180.256 107.146 179.438 107.878 178.429 108.372C177.41 108.917 176.315 109.19 175.145 109.19C172.703 109.149 170.901 108.281 169.741 106.586C168.57 104.951 167.985 102.989 167.985 100.698C167.965 98.2558 168.53 96.2477 169.68 94.6735C170.841 93.0892 172.692 92.2869 175.235 92.2667C176.305 92.2667 177.37 92.5341 178.429 93.069C179.459 93.624 180.251 94.4414 180.806 95.5211H180.881Z" fill="black"/>
<path d="M163.716 108.751H161.854V92.6906H163.716V108.751ZM163.807 89.194H161.764V86.4391H163.807V89.194Z" fill="black"/>
<path d="M147.081 108.751H139.452V86.4391H147.081C148.322 86.4391 149.528 86.5198 150.699 86.6813C151.859 86.8629 152.944 87.3372 153.953 88.1041C155.426 89.2242 156.42 90.6925 156.935 92.5089C157.45 94.3051 157.697 95.9904 157.677 97.5646C157.677 99.048 157.49 100.536 157.117 102.03C156.703 103.533 155.992 104.866 154.982 106.026C153.943 107.136 152.742 107.868 151.38 108.221C150.018 108.574 148.585 108.751 147.081 108.751ZM141.556 88.2252V106.949H146.612C147.56 106.97 148.469 106.909 149.336 106.768C150.184 106.626 151.022 106.349 151.849 105.935C153.312 105.088 154.306 103.877 154.831 102.302C155.346 100.708 155.593 99.1287 155.573 97.5646C155.593 95.8693 155.356 94.2446 154.861 92.6906C154.316 91.1668 153.272 89.9609 151.728 89.0729C151.062 88.6995 150.285 88.4624 149.397 88.3615C148.489 88.2706 147.56 88.2252 146.612 88.2252H141.556Z" fill="black"/>
<path d="M0.266357 30.9996H17.3615V110.383L0.266357 118.169V30.9996Z" fill="#005DFF"/>
<path d="M84.5404 30.9996H101.635V110.383L84.5404 118.169V30.9996Z" fill="#005DFF"/>
<path d="M28.3577 0.783447H45.4528V110.383L28.3577 118.169V0.783447Z" fill="black"/>
<path d="M56.4491 0.783447H73.5442V110.383L56.4491 118.169V0.783447Z" fill="black"/>
</svg>
