<?xml version="1.0" encoding="UTF-8"?>
<svg id="INTERACT_LOGO_RGB_CORAL" xmlns="http://www.w3.org/2000/svg" viewBox="0 0 283.46 49.32">
  <defs>
    <style>
      .cls-1 {
        fill: #ff375f;
        stroke-width: 0px;
      }
    </style>
  </defs>
  <path class="cls-1" d="M253,20.05v-4.38c0-.44.22-.66.66-.66h6.04V5.42c0-.43.22-.65.65-.65h4.36c.44,0,.65.22.65.65v9.6h12.64c.44,0,.66.22.66.66v4.38c0,.44-.22.66-.66.66h-12.62v14.99c0,2.77.52,4.56,1.43,5.89.98,1.44,2.44,2.11,4.74,2.11,2.11,0,3.4-.31,4.39-1.42.99-1.11,1.5-2.82,1.83-5.18.04-.39.29-.59.73-.59h4.6s.1.02.18.06c.08.04.13.11.15.19.02.08.03.19.03.32,0,3.32-.76,6.16-3.11,8.81-2.05,2.31-5,3.49-8.78,3.49s-6.81-1.2-8.83-3.48c-2.02-2.28-3.06-5.66-3.06-10.12v-15.08h-6.04c-.44,0-.66-.22-.66-.66ZM66.88,20.05v-4.38c0-.44.22-.66.66-.66h6.04V5.42c0-.43.22-.65.65-.65h4.36c.44,0,.65.22.65.65v9.6h12.64c.44,0,.66.22.66.66v4.38c0,.44-.22.66-.66.66h-12.62v14.99c0,2.77.52,4.56,1.43,5.89.98,1.44,2.44,2.11,4.74,2.11,2.11,0,3.4-.31,4.39-1.42.99-1.11,1.5-2.82,1.83-5.18.04-.39.29-.59.73-.59h4.6s.1.02.18.06c.08.04.13.11.15.19.02.08.03.19.03.32,0,3.32-.76,6.16-3.11,8.81-2.05,2.31-5,3.49-8.78,3.49s-6.81-1.2-8.83-3.48c-2.02-2.28-3.06-5.66-3.06-10.12v-15.08h-6.04c-.44,0-.66-.22-.66-.66ZM246,36.78h-3.92c-.92,0-1.18.51-1.24.8-.6,1.93-1.67,3.33-3.17,4.47-1.5,1.13-3.43,1.7-5.5,1.7-3.03,0-5.88-1.12-7.75-3.33-1.88-2.22-2.83-4.98-2.83-8.47s.96-6.39,2.85-8.61c1.88-2.21,4.72-3.18,7.73-3.18,2.07,0,3.88.43,5.38,1.57,1.5,1.14,2.56,2.7,3.16,4.61.07.31.32.82,1.25.82h3.88c.48,0,.77-.28.77-.72,0-.3-.02-.54-.07-.74-.9-3.49-2.43-6.25-4.87-8.22-2.45-1.97-5.64-2.97-9.48-2.97-4.94,0-8.93,1.66-11.86,4.92-2.92,3.26-4.41,7.46-4.41,12.5s1.49,9.25,4.42,12.51c2.94,3.28,6.93,4.94,11.85,4.94,3.85,0,7.04-1,9.48-2.96,2.44-1.96,4.14-4.74,5.03-8.26.05-.2.07-.43.07-.71,0-.33-.2-.69-.77-.69ZM0,48.13v-4.34C0,43.36.23,43.13.69,43.1h8.94v-22.39H2.37c-.44,0-.67-.22-.69-.66v-4.38c0-.44.23-.66.69-.66h12.26c.44,0,.67.22.69.66v27.43h10.02c.44,0,.67.23.69.69v4.34c0,.44-.23.66-.69.66H.69C.23,48.79,0,48.57,0,48.13ZM60.77,28.1c-.03-3.43-1.1-6.66-3.74-9.55-2.36-2.58-6.46-4.08-10.14-4.08-5.95,0-8.42,4.19-8.42,4.19v-2.99c0-.44-.22-.66-.66-.66h-4.33c-.46,0-.69.22-.69.66v12.99c0,.43,0,.86,0,1.28,0,.31,0,.63,0,.97v17.23c0,.44.23.66.69.66h4.33c.44,0,.66-.22.66-.66v-17.11s0-.06,0-.1h0s0,0,0,0c0-.78-.01-1.04,0-1.7,0-.04,0-.07,0-.11,0-.13,0-.25,0-.37,0-.06,0-.11,0-.17,0-.11,0-.22.01-.32,0-.06,0-.53,0-.59,0-.1.01-.19.02-.29,0-.07.01-.14.02-.21,0-.09.02-.18.03-.26,0-.07.02-.15.03-.22.01-.08.03-.16.04-.25.01-.08.03-.15.04-.23.02-.08.04-.16.06-.23.02-.08.03-.15.06-.23.02-.08.05-.15.07-.23.02-.08.05-.15.07-.23.03-.07.06-.15.09-.22.03-.08.06-.15.09-.23.03-.07.07-.15.11-.22.04-.07.07-.15.11-.22.04-.08.09-.16.14-.24.04-.07.08-.14.12-.21.06-.09.12-.18.19-.27.04-.06.08-.12.12-.18.11-.15.23-.3.35-.45,1.82-2.18,4.13-2.89,6.6-2.89,2.1,0,4.39.79,5.72,2.15,1.5,1.54,2.51,3.73,2.51,6v19.83c.02.44.25.66.69.66h4.35c.44,0,.66-.22.66-.66v-20.03h0ZM12.86.15c-2.56,0-4.63,2.07-4.63,4.63s2.07,4.63,4.63,4.63,4.63-2.07,4.63-4.63S15.42.15,12.86.15ZM170.74,22.23c.44-.24.6-.8.35-1.23-.5-.84-1.1-1.66-1.82-2.45-2.36-2.58-6.46-4.08-10.14-4.08-5.95,0-8.42,4.19-8.42,4.19v-2.99c0-.36-.29-.66-.66-.66h-4.33c-.46,0-.69.22-.69.66v12.99c0,.43,0,.86,0,1.28,0,.31,0,.63,0,.97v17.23c0,.44.23.66.69.66h4.33c.36,0,.66-.29.66-.66v-17.11s0-.06,0-.1c0,0,0,0,0,0,0-.78-.01-1.04,0-1.7,0-.04,0-.07,0-.11,0-.13,0-.25,0-.37,0-.06,0-.11,0-.17,0-.11,0-.22.01-.32,0-.06,0-.53,0-.59,0-.1.01-.19.02-.29,0-.07.01-.14.02-.21,0-.09.02-.18.03-.26,0-.07.02-.15.03-.22.01-.08.03-.16.04-.25.01-.08.03-.15.04-.23.02-.08.04-.16.06-.23.02-.08.03-.15.06-.23.02-.08.05-.15.07-.23.02-.08.05-.15.07-.23.03-.07.06-.15.09-.22.03-.08.06-.15.09-.23.03-.07.07-.15.11-.22.04-.07.07-.15.11-.22.04-.08.09-.16.14-.24.04-.07.08-.14.12-.21.06-.09.12-.18.19-.27.04-.06.08-.12.12-.18.11-.15.23-.3.35-.45,1.82-2.18,4.13-2.89,6.6-2.89,2.1,0,4.49.81,5.71,2.14.44.48.88.98,1.22,1.55.24.41.77.54,1.19.31l3.53-1.93ZM136.18,33.17c.44,0,.8-.36.8-.8,0-.68,0-1.57-.03-1.89-.6-7.66-5.76-13.92-12.53-15.58-.5-.12-.98.27-.98.78v4.62c0,.34.21.65.54.75,3.2,1.09,5.75,3.81,6.85,7.29h-19.92c1.09-3.46,3.63-6.18,6.82-7.28.32-.11.53-.41.53-.75v-4.64c0-.52-.48-.91-.99-.78-7.22,1.75-12.62,8.73-12.62,17.07,0,9.67,7.24,17.5,16.18,17.5,6.3,0,11.76-3.9,14.44-9.59.25-.53-.15-1.13-.73-1.13h-4.58c-.27,0-.52.14-.67.36-1.92,2.81-4.98,4.63-8.42,4.63-5.5,0-10.02-4.65-10.5-10.57h20.99,0s4.83,0,4.83,0ZM208.43,28.71v-12.99c0-.44-.23-.66-.69-.66h-4.33c-.36,0-.66.29-.66.66v2.83c-2.15-2.04-4.81-3.48-7.74-4.1-.32-.07-.61.17-.61.49v5.11c0,.23.15.42.37.48,4.72,1.33,8.2,5.93,8.2,11.4,0,6.51-4.93,11.79-11.01,11.79s-11.01-5.28-11.01-11.79c0-5.36,3.34-9.88,7.92-11.32.21-.07.36-.26.36-.48v-5.22c0-.31-.29-.56-.59-.49-7.66,1.56-13.45,8.74-13.45,17.35,0,9.76,7.42,17.67,16.58,17.67,4.22,0,8.07-1.68,11-4.45v3.2c0,.36.29.66.66.66h4.33c.46,0,.69-.22.69-.66v-17.23c0-.33,0-.66,0-.97,0-.42,0-.85,0-1.28Z"/>
</svg>