<svg xmlns="http://www.w3.org/2000/svg" viewBox="0 0 1170.51 675.38"><defs><style>.cls-1{fill:#f1515c;}.cls-2{fill:#393d3d;}</style></defs><g id="Layer_2" data-name="Layer 2"><g id="Layer_1-2" data-name="Layer 1"><path class="cls-1" d="M485.8,68.81l34.43,82.74a49.12,49.12,0,0,0,90.7,0l34.43-82.73a126.29,126.29,0,0,1,21.4,22.73,124.19,124.19,0,0,1,24.14,73.92,125.32,125.32,0,1,1-250.64,0,124.18,124.18,0,0,1,24.13-73.92A126.74,126.74,0,0,1,485.8,68.81M510.37,0A174.44,174.44,0,1,0,620.79,0L565.58,132.68,510.37,0Z"/><path class="cls-2" d="M0,440.75a6.45,6.45,0,0,1,6.45-6.46H37.69a6.68,6.68,0,0,1,6.45,6.46V631.24h86.59a6.44,6.44,0,0,1,6.45,6.45v27.85a6.44,6.44,0,0,1-6.45,6.45H6.45A6.45,6.45,0,0,1,0,665.54Z"/><path class="cls-2" d="M273,430.9A122,122,0,0,1,395.27,553.48c0,67.91-54.33,121.9-122.24,121.9s-121.9-54-121.9-121.9S205.12,430.9,273,430.9Zm0,200.34c42.79,0,78.1-35,78.1-77.76S315.82,475,273,475s-77.76,35.66-77.76,78.44A78,78,0,0,0,273,631.24Z"/><path class="cls-2" d="M428.62,440.75a6.46,6.46,0,0,1,6.46-6.46h77.76c40.4,0,71.64,27.17,71.64,62.82,0,26.15-21.39,46.52-37.35,54,18,5.78,44.15,24.11,44.15,55.35,0,38-32.6,65.54-74,65.54H435.08a6.45,6.45,0,0,1-6.46-6.45Zm80.14,93.38c17.32,0,29.2-13.59,29.2-30.57s-11.88-28.86-29.2-28.86H472.43v59.43Zm4.76,97.79c17,0,30.56-13.24,30.56-30.9,0-17-17-29.54-34.64-29.54h-37v60.44Z"/><path class="cls-2" d="M624.21,638.71l12.23-21.05A7.86,7.86,0,0,1,648,615.28c1.7,1,29.2,21.05,51.28,21.05,17.65,0,30.9-11.54,30.9-26.14,0-17.32-14.6-29.2-43.13-40.75-31.92-12.9-63.84-33.28-63.84-73.35,0-30.22,22.42-65.19,76.41-65.19,34.63,0,61.12,17.66,67.91,22.75,3.39,2,4.41,7.81,2,11.2l-12.91,19.36c-2.71,4.07-7.81,6.79-11.88,4.07-2.72-1.69-28.53-18.67-47.2-18.67-19.36,0-29.88,12.9-29.88,23.77,0,16,12.56,26.82,40.07,38,32.93,13.24,71,32.94,71,76.74,0,35-30.22,67.23-78.1,67.23-42.78,0-67.91-20-74.7-26.48C622.85,645.84,621.16,644.14,624.21,638.71Z"/><path class="cls-2" d="M861.1,475h-52a6.45,6.45,0,0,1-6.45-6.45V440.75a6.45,6.45,0,0,1,6.45-6.46H957.53a6.45,6.45,0,0,1,6.45,6.46v27.84a6.44,6.44,0,0,1-6.45,6.45H905.58v190.5a6.68,6.68,0,0,1-6.45,6.45H867.55a6.68,6.68,0,0,1-6.45-6.45Z"/><path class="cls-2" d="M944.7,663.16l105.6-228.53a6.11,6.11,0,0,1,5.77-3.73h3.4c3.39,0,4.75,1.7,5.77,3.73l104.59,228.53c2,4.41-.68,8.83-5.78,8.83h-29.54c-5.09,0-7.47-2-9.85-6.79L1108,628.52H1006.5L989.86,665.2A10.25,10.25,0,0,1,980,672H950.47C945.37,672,942.66,667.57,944.7,663.16Zm146.69-72.33-34-74.7h-1l-33.28,74.7Z"/></g></g></svg>