<?xml version="1.0" encoding="UTF-8"?>
<svg id="Livello_1" data-name="Livello 1" xmlns="http://www.w3.org/2000/svg" viewBox="0 0 529 528.92">
  <defs>
    <style>
      .cls-1 {
        fill: #5dc0cf;
      }

      .cls-1, .cls-2, .cls-3, .cls-4, .cls-5 {
        stroke-width: 0px;
      }

      .cls-2 {
        fill: #ceecf1;
      }

      .cls-3 {
        fill: #96d6e0;
      }

      .cls-4 {
        fill: #fff;
      }

      .cls-5 {
        fill: #002e67;
      }
    </style>
  </defs>
  <g id="Digital_reading" data-name="Digital reading">
    <path class="cls-2" d="m9.05,99.93c17.71-35.74,53.1-55.05,75.04-67.02,94.87-51.76,224.1-37.98,310,10.28,84.79,47.64,158.68,160.44,127.7,283-31.09,123.03-152.11,186.29-243.65,199.7C132.81,547.19,10.69,450.3,4.01,416.67c-2.06-10.37-1.52-19.56-1.52-19.56,2.58-24.28,22.55-38.7,27.2-94.02,8.56-101.8-51.69-140.48-20.63-203.16Z"/>
    <g>
      <path class="cls-3" d="m449.86,108.64c-.54-.77-1.35-1.73-2.52-2.61-2.31-1.74-4.71-2.17-5.92-2.3.63-.41,1.57-.93,2.79-1.28,1.04-.29,1.96-.37,2.64-.38-.94-1.03-1.88-2.05-2.82-3.08.93-.04,3.58-.04,6.26,1.69,2.78,1.79,3.86,4.33,4.19,5.19-1.54.92-3.08,1.84-4.62,2.76Z"/>
      <g>
        <path class="cls-5" d="m471.97,138.99l5.44.95c3.92-1.85,8.31-4.23,12.91-7.31,5.82-3.89,10.53-7.94,14.24-11.55-1.95-4.57-4.47-9.57-7.74-14.76-7.75-12.28-16.76-20.88-23.94-26.58-1.76,4.38-3.05,7.39-3.05,7.39l2.13,51.87Z"/>
        <path class="cls-5" d="m477.41,141.21c-.07,0-.15,0-.22-.02l-5.44-.95c-.59-.1-1.03-.6-1.05-1.2l-2.13-51.87c0-.19.03-.38.1-.55.01-.03,1.3-3.04,3.03-7.36.15-.37.47-.65.86-.76.39-.1.8-.02,1.12.23,9.64,7.64,17.79,16.69,24.23,26.9,2.99,4.74,5.62,9.76,7.83,14.94.21.48.09,1.04-.28,1.41-4.43,4.33-9.28,8.26-14.42,11.7-4.15,2.78-8.55,5.27-13.08,7.4-.17.08-.36.12-.54.12Zm-4.21-3.3l4.03.7c4.29-2.04,8.45-4.41,12.39-7.04,4.77-3.19,9.28-6.82,13.43-10.8-2.08-4.77-4.54-9.4-7.3-13.78-5.98-9.49-13.49-17.95-22.32-25.19-1.14,2.8-2,4.85-2.3,5.55l2.08,50.55Z"/>
      </g>
      <g>
        <path class="cls-4" d="m446.05,110.89l25.7,28.09c4.56-2.73,9.73-6.3,15.03-10.93,3.76-3.28,6.95-6.54,9.64-9.59-2-4.02-4.55-8.44-7.92-12.91-5.55-7.36-14.28-16.55-26.99-23.85-.81,2.19-1.7,4.43-2.7,6.71-3.83,8.77-8.31,16.24-12.76,22.48Z"/>
        <path class="cls-5" d="m471.76,139.93c-.26,0-.52-.11-.71-.31l-25.7-28.09c-.3-.33-.33-.83-.07-1.2,5-7.01,9.26-14.52,12.66-22.31.95-2.18,1.85-4.42,2.68-6.66.1-.26.31-.47.57-.57.26-.1.56-.07.8.07,13.27,7.62,22.16,17.31,27.28,24.11,2.99,3.97,5.61,8.24,8.01,13.05.17.35.12.77-.14,1.06-3.02,3.42-6.29,6.67-9.72,9.67-4.7,4.1-9.8,7.82-15.17,11.03-.15.09-.32.14-.49.14Zm-24.48-29.12l24.65,26.94c5.02-3.06,9.81-6.57,14.23-10.43,3.21-2.8,6.28-5.84,9.12-9.02-2.27-4.48-4.74-8.47-7.54-12.18-4.88-6.48-13.27-15.66-25.73-23.03-.73,1.92-1.51,3.83-2.32,5.69-3.36,7.68-7.53,15.09-12.41,22.02Z"/>
      </g>
      <path class="cls-3" d="m452.34,111.55s9.34-15.24,11.89-21.17c4.68,2.36,7.42,5.64,7.42,5.64,0,0-6.69,12.68-14.54,19.95-1.93-1.43-4.77-4.41-4.77-4.41Z"/>
    </g>
    <g>
      <g>
        <path class="cls-5" d="m485.09,469.65H144.85c-5.18,0-9.34-3.11-10.46-7.82L37.19,54.21c-.96-4.06.49-8.28,3.3-11.44,2.71-3.04,10.57-12.02,10.57-12.02l340.66,6.92c5.18,0,9.34,3.11,10.46,7.82l102.92,409.6s-6.36,6.73-9.46,9.93c-2.69,2.78-6.47,4.62-10.54,4.62Z"/>
        <g>
          <path class="cls-4" d="m495.28,457.5H155.04c-5.18,0-9.34-3.11-10.46-7.82L48.21,43.22c-1.89-7.97,5.51-16.54,14.29-16.54h340.24c5.18,0,9.34,3.11,10.46,7.82l96.37,406.47c1.89,7.97-5.51,16.54-14.29,16.54Z"/>
          <path class="cls-5" d="m495.28,458.46H155.04c-5.6,0-10.18-3.44-11.39-8.55L47.28,43.44c-.92-3.86.14-8.07,2.89-11.56,3.05-3.86,7.66-6.16,12.32-6.16h340.24c5.6,0,10.18,3.44,11.39,8.55l96.37,406.47c.91,3.86-.14,8.07-2.9,11.56-3.05,3.86-7.66,6.16-12.32,6.16ZM62.5,27.64c-4.09,0-8.13,2.03-10.82,5.43-2.39,3.02-3.31,6.64-2.53,9.93l96.37,406.47c1.02,4.3,4.76,7.08,9.53,7.08h340.24c4.09,0,8.13-2.03,10.82-5.43,2.39-3.02,3.31-6.64,2.53-9.93L412.27,34.72c-1.02-4.3-4.76-7.08-9.53-7.08H62.5Z"/>
        </g>
        <path class="cls-2" d="m471.13,432.69H171.35c-4.57,0-8.23-2.74-9.22-6.89L77.23,67.67c-1.67-7.03,4.85-14.57,12.59-14.57h299.78c4.57,0,8.23,2.74,9.22,6.89l84.91,358.14c1.67,7.03-4.85,14.57-12.59,14.57Z"/>
        <path class="cls-5" d="m96.72,150.83c-.43,0-.82-.3-.93-.74l-19.51-82.28c-.81-3.43.12-7.18,2.57-10.28,2.71-3.43,6.8-5.47,10.95-5.47h271.39c.53,0,.96.43.96.96s-.43.96-.96.96H89.81c-3.57,0-7.1,1.77-9.45,4.74-2.08,2.64-2.89,5.79-2.21,8.65l19.51,82.28c.12.51-.2,1.03-.71,1.15-.07.02-.15.03-.22.03Z"/>
        <path class="cls-5" d="m204.62,433.58h-33.28c-4.99,0-9.06-3.06-10.15-7.62l-21.06-88.84c-.12-.51.2-1.03.71-1.15.51-.12,1.03.2,1.15.71l21.06,88.84c.89,3.74,4.14,6.15,8.29,6.15h33.28c.53,0,.96.43.96.96s-.43.96-.96.96Z"/>
        <path class="cls-5" d="m434.06,209.56c-.43,0-.83-.3-.93-.74l-7.93-33.44c-.12-.51.2-1.03.71-1.15.51-.12,1.03.2,1.15.71l7.93,33.44c.12.51-.2,1.03-.71,1.15-.07.02-.15.03-.22.03Z"/>
        <g>
          <path class="cls-1" d="m379.43,102.21l-35.16-22.63-33.12,22.63c-1.04,0-1.87-.62-2.1-1.57l-19.34-81.56c-.38-1.6,1.11-3.32,2.87-3.32h68.27c1.04,0,1.87.62,2.1,1.57l19.34,81.56c.38,1.6-1.11,3.32-2.87,3.32Z"/>
          <path class="cls-5" d="m379.43,103.16c-.18,0-.36-.05-.52-.15l-34.62-22.29-32.59,22.27c-.16.11-.35.17-.54.17-1.48,0-2.7-.93-3.03-2.3l-19.34-81.56c-.24-1,.03-2.09.72-2.97.76-.96,1.9-1.53,3.07-1.53h68.27c1.48,0,2.7.93,3.03,2.3l19.34,81.56c.24,1-.03,2.09-.73,2.97-.76.96-1.9,1.53-3.07,1.53Zm-35.16-24.54c.18,0,.36.05.52.15l34.89,22.46c.5-.07.98-.35,1.32-.78.33-.42.47-.91.36-1.34l-19.34-81.56c-.12-.51-.57-.83-1.17-.83h-68.27c-.59,0-1.18.3-1.57.8-.33.42-.47.91-.36,1.34l19.34,81.56c.1.44.44.73.91.81l32.84-22.44c.16-.11.35-.17.54-.17Z"/>
        </g>
      </g>
      <g>
        <path class="cls-4" d="m366.03,148.64h-219.4c-1.92,0-3.44-1.17-3.82-2.92h0c-.62-2.89,2.06-5.93,5.21-5.93h219.4c1.76,0,3.21.99,3.72,2.54h0c.96,2.94-1.77,6.32-5.11,6.32Z"/>
        <path class="cls-4" d="m370.93,174.46h-219.62c-1.85,0-3.32-1.15-3.7-2.89h0c-.62-2.89,2-5.97,5.09-5.97h219.62c1.7,0,3.09.97,3.59,2.49h0c.96,2.94-1.71,6.36-4.98,6.36Z"/>
        <path class="cls-4" d="m377.94,202.24h-219.62c-1.85,0-3.32-1.15-3.7-2.89h0c-.62-2.89,2-5.97,5.09-5.97h219.62c1.7,0,3.09.97,3.59,2.49h0c.96,2.94-1.71,6.36-4.98,6.36Z"/>
        <path class="cls-4" d="m395.44,248.47h-219.62c-1.85,0-3.32-1.15-3.7-2.89h0c-.62-2.89,2-5.97,5.09-5.97h219.62c1.7,0,3.09.97,3.59,2.49h0c.96,2.94-1.71,6.36-4.98,6.36Z"/>
        <path class="cls-4" d="m400.11,274.29h-219.4c-1.92,0-3.44-1.17-3.82-2.92h0c-.62-2.89,2.06-5.93,5.21-5.93h219.4c1.76,0,3.21.99,3.72,2.54h0c.96,2.94-1.77,6.32-5.11,6.32Z"/>
        <path class="cls-4" d="m407.23,302.08h-219.62c-1.85,0-3.32-1.15-3.7-2.89h0c-.62-2.89,2-5.97,5.09-5.97h219.62c1.7,0,3.09.97,3.59,2.49h0c.96,2.94-1.71,6.36-4.98,6.36Z"/>
      </g>
    </g>
    <g>
      <g>
        <g>
          <path class="cls-4" d="m401.83,407.16c-8.55-17.6-9.37-35.33,0-53.25l-6.72-8.06-183.86,6.05,6.34,58.41,177.97,2.05,6.27-5.19Z"/>
          <path class="cls-5" d="m395.56,413.31h-.01l-177.97-2.05c-.48,0-.89-.37-.94-.85l-6.34-58.41c-.03-.26.05-.53.23-.73.17-.2.42-.32.69-.33l183.86-6.05c.28-.01.58.12.77.34l6.72,8.06c.25.3.29.71.11,1.05-8.87,16.97-8.87,34.11.01,52.39.19.4.09.87-.25,1.15l-6.27,5.19c-.17.14-.39.22-.61.22Zm-177.12-3.95l176.78,2.04,5.43-4.49c-8.62-18.16-8.6-35.94.04-52.86l-6.02-7.22-182.36,6,6.14,56.54Z"/>
        </g>
        <g>
          <path class="cls-4" d="m63.99,339.42h341.25c3.99,0,7.22,3.23,7.22,7.22s-3.23,7.22-7.22,7.22h-156.89c-11.49,0-20.8,9.31-20.8,20.8v11.69c0,11.49,9.31,20.8,20.8,20.8h156.89c3.99,0,7.22,3.23,7.22,7.22s-3.23,7.22-7.22,7.22H63.99c-21.18,0-38.35-17.17-38.35-38.35v-5.48c0-21.18,17.17-38.35,38.35-38.35Z"/>
          <path class="cls-5" d="m405.24,422.56H63.99c-21.68,0-39.31-17.63-39.31-39.31v-5.48c0-21.68,17.63-39.31,39.31-39.31h341.25c4.51,0,8.18,3.67,8.18,8.18s-3.67,8.18-8.18,8.18h-156.89c-10.94,0-19.85,8.9-19.85,19.85v11.69c0,10.94,8.9,19.85,19.85,19.85h156.89c4.51,0,8.18,3.67,8.18,8.18s-3.67,8.18-8.18,8.18ZM63.99,340.38c-20.62,0-37.4,16.78-37.4,37.4v5.48c0,20.62,16.78,37.4,37.4,37.4h341.25c3.46,0,6.27-2.81,6.27-6.27s-2.81-6.27-6.27-6.27h-156.89c-12,0-21.76-9.76-21.76-21.76v-11.69c0-12,9.76-21.76,21.76-21.76h156.89c3.46,0,6.27-2.81,6.27-6.27s-2.81-6.27-6.27-6.27H63.99Z"/>
        </g>
        <path class="cls-5" d="m316.21,370.31h-13.44c-.53,0-.96-.43-.96-.96s.43-.96.96-.96h13.44c.53,0,.96.43.96.96s-.43.96-.96.96Z"/>
        <path class="cls-5" d="m395.75,370.31h-71.13c-.53,0-.96-.43-.96-.96s.43-.96.96-.96h71.13c.53,0,.96.43.96.96s-.43.96-.96.96Z"/>
        <path class="cls-5" d="m395.1,379.01h-84.16c-.53,0-.96-.43-.96-.96s.43-.96.96-.96h84.16c.53,0,.96.43.96.96s-.43.96-.96.96Z"/>
        <path class="cls-5" d="m305.06,394.61h-15.29c-.53,0-.96-.43-.96-.96s.43-.96.96-.96h15.29c.53,0,.96.43.96.96s-.43.96-.96.96Z"/>
        <path class="cls-5" d="m395.75,394.61h-84.16c-.53,0-.96-.43-.96-.96s.43-.96.96-.96h84.16c.53,0,.96.43.96.96s-.43.96-.96.96Z"/>
      </g>
      <g>
        <g>
          <path class="cls-4" d="m396.52,505.57H88.28v-75.52h308.24c-9.1,25.51-9.35,50.69,0,75.52Z"/>
          <path class="cls-5" d="m396.52,506.52H88.28c-.53,0-.96-.43-.96-.96v-75.52c0-.53.43-.96.96-.96h308.24c.31,0,.6.15.78.41.18.25.22.58.12.87-9.1,25.51-9.1,50.7,0,74.86.11.29.07.62-.11.88s-.47.41-.79.41Zm-307.28-1.91h305.91c-8.63-23.79-8.63-48.54.02-73.61H89.24v73.61Z"/>
        </g>
        <g>
          <path class="cls-1" d="m125.39,433.77h273.25c3.29,0,5.95-2.66,5.95-5.95h0c0-3.29-2.66-5.95-5.95-5.95H44.05c-14.44,0-26.15,11.71-26.15,26.15v41.11c0,14.44,11.71,26.15,26.15,26.15h354.59c3.29,0,5.95-2.66,5.95-5.95s-2.66-5.95-5.95-5.95H125.39c-10.2,0-18.47-8.27-18.47-18.47v-32.66c0-10.2,8.27-18.47,18.47-18.47Z"/>
          <path class="cls-5" d="m398.64,516.23H44.05c-14.95,0-27.1-12.16-27.1-27.1v-41.1c0-14.95,12.16-27.1,27.1-27.1h354.59c3.81,0,6.91,3.1,6.91,6.91s-3.1,6.91-6.91,6.91H125.39c-9.66,0-17.52,7.86-17.52,17.52v32.66c0,9.66,7.86,17.52,17.52,17.52h273.25c3.81,0,6.91,3.1,6.91,6.91s-3.1,6.91-6.91,6.91ZM44.05,422.83c-13.89,0-25.19,11.3-25.19,25.19v41.1c0,13.89,11.3,25.19,25.19,25.19h354.59c2.75,0,4.99-2.24,4.99-4.99s-2.24-4.99-4.99-4.99H125.39c-10.71,0-19.43-8.72-19.43-19.43v-32.66c0-10.71,8.72-19.43,19.43-19.43h273.25c2.75,0,4.99-2.24,4.99-4.99s-2.24-4.99-4.99-4.99H44.05Z"/>
        </g>
        <path class="cls-5" d="m391.07,448.94h-45.52c-.53,0-.96-.43-.96-.96s.43-.96.96-.96h45.52c.53,0,.96.43.96.96s-.43.96-.96.96Z"/>
        <path class="cls-5" d="m337.75,448.94h-82.74c-.53,0-.96-.43-.96-.96s.43-.96.96-.96h82.74c.53,0,.96.43.96.96s-.43.96-.96.96Z"/>
        <path class="cls-5" d="m390.11,459.01h-113.74c-.53,0-.96-.43-.96-.96s.43-.96.96-.96h113.74c.53,0,.96.43.96.96s-.43.96-.96.96Z"/>
        <path class="cls-5" d="m266.75,459.01h-23.15c-.53,0-.96-.43-.96-.96s.43-.96.96-.96h23.15c.53,0,.96.43.96.96s-.43.96-.96.96Z"/>
        <path class="cls-5" d="m390.11,480.05h-120.61c-.53,0-.96-.43-.96-.96s.43-.96.96-.96h120.61c.53,0,.96.43.96.96s-.43.96-.96.96Z"/>
        <path class="cls-5" d="m261.03,480.05h-6.01c-.53,0-.96-.43-.96-.96s.43-.96.96-.96h6.01c.53,0,.96.43.96.96s-.43.96-.96.96Z"/>
      </g>
    </g>
    <g>
      <path class="cls-5" d="m306.18,304.14s-6.61-2.44-9.5-10.7c-2.89-8.26-4.3-25.23,2.39-23.65,6.7,1.58,20.99,36.95,20.99,36.95l-13.88-2.6Z"/>
      <g>
        <path class="cls-5" d="m385.77,215.72c-.55-3.17-2.77-13.45-14.37-24.7-4-3.88-26.04-25.24-48.5-20.23-22.68,5.06-21.13,31.52-42.24,36.29-21.55,4.87-32.75-21.85-55.82-17.64-21.93,4.01-37.56,32.64-32.54,39.92,3.46,5.03,14.31-3.71,32.98.43,20.58,4.57,22.96,18.67,37.96,18.29,15.18-.38,17.73-14.93,32.33-14.82,14.62.12,16.26,14.74,34.28,19.96,19.86,5.75,45.81-3.93,53.52-20.8,3.06-6.7,2.95-13.53,2.4-16.71Z"/>
        <path class="cls-5" d="m407.15,238.44c5.03-.02,10.82-.67,12.05-3.76,3.05-7.64-20.45-33.55-37.72-26.24-11.25,4.76-18.26,22.94-11.8,31.82,5.7,7.83,22.71,9.57,37.47-1.82Z"/>
        <g>
          <g>
            <path class="cls-4" d="m393.2,226.76c-4.87,1.93-5.86,12.19-7.16,11.93-1.01-.2.23-6.23-2.39-7.59-1.23-.64-2.83,0-3.69.65-2.03,1.55-2.5,5.24-.65,8.89-5.57,4.19-11.23,8.39-16.96,12.6-6.81,4.99-13.58,9.88-20.3,14.67l26.29,8.64,15.43-19.88c1.57,1.99,3.51,3.83,5.85,5.01,0,0,5.78-.41,11.18-8.01l1.26.52c.89.36,1.87-.27,1.9-1.24l.1-3.23c.04-1.22.29-2.42.76-3.55,1.27-3.11,2.4-6.83,3.28-11.32-8.33-8.47-12.57-9.01-14.88-8.1Z"/>
            <path class="cls-5" d="m368.34,277.5c-.1,0-.2-.02-.3-.05l-26.29-8.64c-.34-.11-.59-.41-.65-.76-.05-.36.1-.71.39-.92,6.75-4.8,13.57-9.73,20.29-14.66,5.45-4,10.94-8.07,16.34-12.12-1.59-3.7-1.1-7.55,1.26-9.36.92-.7,2.95-1.65,4.71-.74,1.94,1.01,2.23,3.6,2.36,5.68.06-.18.12-.36.18-.53,1.08-3.24,2.71-8.14,6.22-9.53h0c3.74-1.48,8.95,1.23,15.92,8.31.22.22.32.54.26.85-.83,4.25-1.95,8.12-3.33,11.49-.42,1.03-.65,2.12-.69,3.22l-.1,3.23c-.02.77-.42,1.47-1.06,1.89-.64.42-1.45.49-2.16.2l-.57-.23c-5.47,7.3-11.2,7.78-11.45,7.8-.17.01-.35-.02-.5-.1-1.91-.97-3.72-2.43-5.39-4.34l-14.7,18.94c-.18.24-.47.37-.76.37Zm-24.19-9.92l23.85,7.84,15.01-19.35c.18-.23.46-.37.75-.37h0c.29,0,.57.13.75.36,1.63,2.06,3.4,3.62,5.27,4.62,1.1-.19,5.8-1.34,10.23-7.58.26-.36.73-.5,1.14-.33l1.26.52c.18.07.32,0,.39-.04.07-.05.19-.15.19-.34l.1-3.23c.04-1.33.32-2.63.83-3.88,1.28-3.13,2.33-6.71,3.12-10.65-6.02-6.04-10.68-8.63-13.49-7.52-2.68,1.06-4.14,5.45-5.11,8.36-.8,2.42-1.29,3.88-2.59,3.62-1.11-.22-1.19-1.49-1.28-3.1-.09-1.59-.23-3.99-1.36-4.58-.84-.44-2.08.11-2.67.56-1.5,1.14-2.14,4.23-.38,7.7.21.41.09.92-.28,1.2-5.6,4.21-11.31,8.45-16.97,12.6-6.21,4.56-12.52,9.12-18.77,13.58Z"/>
          </g>
          <g>
            <path class="cls-4" d="m381.02,245.68s-1.27,5.53,2.74,10.99l-2.74-10.99Z"/>
            <path class="cls-5" d="m383.76,257.62c-.29,0-.58-.13-.77-.39-4.23-5.74-2.96-11.53-2.91-11.77.12-.51.63-.83,1.15-.72.51.12.83.63.72,1.14h0c-.01.05-1.11,5.2,2.58,10.21.31.43.22,1.02-.2,1.34-.17.13-.37.19-.57.19Z"/>
          </g>
        </g>
      </g>
      <g>
        <g>
          <polygon class="cls-4" points="119.28 308.55 44.62 328.82 39.53 338.82 117.64 338.82 119.28 308.55"/>
          <path class="cls-5" d="m117.64,339.78H39.53c-.33,0-.64-.17-.81-.46-.17-.28-.19-.64-.04-.93l5.09-10c.12-.24.34-.42.6-.49l74.66-20.27c.3-.08.61-.01.85.18.24.19.37.49.35.79l-1.64,30.27c-.03.51-.45.9-.95.9Zm-76.56-1.91h75.65l1.52-28.04-72.98,19.81-4.19,8.23Z"/>
        </g>
        <g>
          <g>
            <path class="cls-1" d="m62.03,319.14c-.45-3.73-1.82-9.27-5.74-14.56-1.85-2.49-5.32-3.12-7.97-1.5l-45.58,27.96c-3.38,2.44-1.65,7.78,2.52,7.78h53.99l-5.42-9.62,5.11-3.41c2.19-1.46,3.39-4.03,3.08-6.65Z"/>
            <path class="cls-5" d="m59.26,339.78H5.27c-2.32,0-4.28-1.43-5-3.64-.72-2.21.04-4.52,1.92-5.88.02-.01.04-.03.06-.04l45.58-27.96c3.06-1.88,7.12-1.11,9.23,1.75,4.05,5.47,5.45,11.18,5.92,15.01h0c.36,2.98-.98,5.88-3.5,7.56l-4.38,2.92,4.98,8.85c.17.3.16.66,0,.95-.17.29-.49.47-.83.47Zm-55.98-7.94c-1.43,1.05-1.55,2.61-1.19,3.72.36,1.12,1.39,2.31,3.18,2.31h52.36l-4.62-8.2c-.25-.44-.11-.99.3-1.26l5.11-3.41c1.91-1.28,2.93-3.47,2.66-5.73h0c-.44-3.6-1.76-8.98-5.56-14.11-1.53-2.07-4.47-2.62-6.7-1.25l-45.55,27.94Z"/>
          </g>
          <path class="cls-5" d="m7.83,336.65c-.33,0-.65-.17-.83-.48-.26-.46-.1-1.04.35-1.3l46.74-26.79c.46-.26,1.04-.1,1.3.35.26.46.1,1.04-.35,1.3l-46.74,26.79c-.15.09-.31.13-.47.13Z"/>
        </g>
        <g>
          <polygon class="cls-4" points="139.01 257.67 69.67 223.36 59.23 227.47 117.72 279.25 139.01 257.67"/>
          <path class="cls-5" d="m117.72,280.2c-.23,0-.45-.08-.63-.24l-58.49-51.78c-.25-.22-.37-.55-.31-.88.06-.33.28-.6.59-.72l10.44-4.11c.25-.1.53-.09.77.03l69.34,34.31c.27.14.47.4.52.7.05.3-.05.61-.26.83l-21.29,21.58c-.19.19-.43.28-.68.28Zm-56.69-52.42l56.64,50.14,19.72-19.99-67.77-33.54-8.59,3.38Z"/>
        </g>
        <g>
          <g>
            <path class="cls-1" d="m76.55,221.83c1.43-3.47,2.96-8.97,2.14-15.5-.39-3.08-3.11-5.33-6.21-5.21l-53.43,2c-4.14.47-5.25,5.97-1.62,8.02l47.05,26.48v-11.04s6.13-.46,6.13-.46c2.63-.2,4.93-1.85,5.94-4.28Z"/>
            <path class="cls-5" d="m64.49,238.57c-.16,0-.32-.04-.47-.12l-47.05-26.48c-2.02-1.14-3.03-3.34-2.57-5.62.46-2.28,2.25-3.92,4.55-4.18.02,0,.05,0,.07,0l53.43-2c3.6-.12,6.75,2.52,7.19,6.05.85,6.75-.73,12.42-2.21,15.99h0c-1.15,2.78-3.73,4.64-6.75,4.87l-5.25.4v10.16c0,.34-.18.65-.47.83-.15.09-.32.13-.48.13Zm-45.36-34.5c-1.76.22-2.63,1.51-2.86,2.66-.23,1.15.08,2.7,1.64,3.58l45.62,25.68v-9.41c0-.5.38-.92.88-.95l6.13-.46c2.29-.17,4.26-1.59,5.13-3.69h0c1.39-3.35,2.87-8.68,2.08-15.02-.32-2.55-2.61-4.47-5.22-4.38l-53.39,2Zm57.42,17.76h0,0Z"/>
          </g>
          <path class="cls-5" d="m21.2,210.62c-.52,0-.95-.42-.96-.95,0-.53.42-.96.95-.96l53.87-.42h0c.52,0,.95.42.96.95,0,.53-.42.96-.95.96l-53.87.42h0Z"/>
        </g>
        <path class="cls-5" d="m206.56,322.22s-29.75-42.87-45.06-59.92c-15.31-17.05-26.19-35.32-26.19-35.32,0,0-31.55,13.6-48.24,29.68l72.9,75.61,46.59-10.05Z"/>
        <path class="cls-5" d="m345.65,339.81H80l23.96-38.35s38.01-9.3,57.76-1.51c19.75,7.79,32.31,11.84,47.04,9.95,14.73-1.89,48.23-20.81,69.49-18.75,21.27,2.06,56.08,16.23,56.08,16.23l11.32,32.42Z"/>
        <path class="cls-2" d="m199.17,309.84s-.04,0-.06,0c-10.41-.69-20.87-4.17-36.54-10.35-7.05-2.78-17.29-3.67-30.43-2.63-.53.04-.99-.35-1.03-.88-.04-.53.35-.99.88-1.03,13.43-1.06,23.96-.14,31.28,2.75,15.49,6.11,25.81,9.55,35.97,10.22.53.03.93.49.89,1.02-.03.51-.45.89-.95.89Z"/>
        <path class="cls-2" d="m314.86,300.05c-.1,0-.19-.01-.29-.04l-13.48-4.27c-.5-.16-.78-.7-.62-1.2.16-.5.69-.78,1.2-.62l13.48,4.27c.5.16.78.7.62,1.2-.13.41-.51.67-.91.67Z"/>
      </g>
      <g>
        <g>
          <g>
            <path class="cls-4" d="m394.56,320.17l29.13-57.43c1.35-2.65,3.77-4.6,6.66-5.33l27.53-6.98h0c-.65,2.52-2.53,4.54-4.99,5.38l-5.84,1.98s-.34,12.22-15.77,13.14l-17.75,49.24h-18.96Z"/>
            <path class="cls-5" d="m413.52,321.12h-18.97c-.33,0-.64-.17-.81-.46-.17-.28-.19-.64-.04-.93l29.13-57.43c1.47-2.9,4.12-5.02,7.27-5.82l27.53-6.98c.33-.08.67.01.91.25.24.24.33.59.25.91-.73,2.84-2.83,5.1-5.61,6.05l-5.26,1.79c-.35,2.66-2.57,12.26-15.97,13.34l-17.54,48.65c-.14.38-.5.63-.9.63Zm-17.41-1.91h16.74l17.52-48.61c.13-.36.46-.61.84-.63,14.39-.85,14.86-11.75,14.87-12.21.01-.4.27-.75.65-.88l5.84-1.98c1.6-.55,2.92-1.65,3.72-3.09l-25.72,6.52c-2.62.66-4.82,2.42-6.04,4.83l-28.42,56.04Z"/>
          </g>
          <path class="cls-5" d="m431.58,268.27c-.47,0-.88-.35-.95-.83-.07-.52.3-1,.82-1.07,1.62-.21,2.74-.76,3.33-1.62,1.05-1.54,2.33-2.59,3.79-3.12,1.93-.7,2.68-1.72,2.97-2.5-4.44,1.18-9.32,2.39-10.08,2.3-.52-.07-.89-.55-.82-1.07.07-.51.53-.87,1.02-.83.76-.03,6.04-1.34,10.73-2.6.26-.07.53-.03.76.12.23.14.38.37.43.64.24,1.35-.36,4.29-4.35,5.74-1.08.39-2.04,1.2-2.86,2.4-.91,1.33-2.47,2.15-4.66,2.44-.04,0-.08,0-.13,0Zm.09-8.74s.02,0,.04,0c0,0-.02,0-.04,0Z"/>
        </g>
        <path class="cls-1" d="m327.52,340.67l-28.45-70.88s10.38,4.7,26.31-1.02c15.92-5.73,31.45-12.67,40.56-5.09l20.86,20.37-5.92,2.26-6.95,25.8-16.25,28.57h-30.16Z"/>
        <g>
          <g>
            <path class="cls-1" d="m460.23,270.66l22.38-23.82,12.96-1.16s-22.46,26.59-23.08,28.41c-.62,1.81-12.25-3.42-12.25-3.42Z"/>
            <path class="cls-5" d="m471.62,275.4c-2.85,0-9.02-2.62-11.78-3.87-.28-.13-.48-.38-.55-.68-.06-.3.03-.62.24-.84l22.38-23.82c.16-.17.38-.28.61-.3l12.96-1.16c.39-.03.75.17.93.51.18.34.13.76-.12,1.06-8.49,10.05-22.22,26.58-22.91,28.12-.12.35-.4.65-.8.82-.25.11-.58.16-.96.16Zm-.04-1.63s0,0,0,0c0,0,0,0,0,0Zm-9.73-3.44c4.15,1.78,8.69,3.35,9.85,3.18,1.57-2.76,15.4-19.28,21.63-26.67l-10.28.92-21.2,22.57Z"/>
          </g>
          <g>
            <path class="cls-4" d="m384.7,284.33s-19.09,4.12-22.08,21.23l27.32,31.12c4.38,4.99,12.01,5.37,16.87.84l56.01-52.22,13.18-10.29c4.26-3.33,7.22-8.03,8.39-13.31l.92-4.19s-12.7,14.33-21.06,12.86l4.01-9.56s-3.82-.96-6.44,3.9c-1.02,1.89-3.76,7.54-5.42,10.98-.88,1.82-2.25,3.37-3.95,4.47l-45.94,29.54-21.82-25.38Z"/>
            <path class="cls-5" d="m398.81,341.63c-.22,0-.43,0-.65-.02-3.47-.17-6.64-1.7-8.93-4.31l-27.32-31.12c-.19-.22-.27-.51-.22-.79,3.06-17.53,22.62-21.95,22.82-22,.34-.07.7.05.93.31l21.28,24.75,45.24-29.09c1.56-1,2.81-2.41,3.61-4.08,1.58-3.28,4.4-9.08,5.44-11.02,2.94-5.45,7.33-4.42,7.51-4.38.27.07.5.25.62.5.13.25.14.54.03.8l-3.5,8.34c7.74-.12,18.83-12.52,18.95-12.65.29-.33.76-.42,1.15-.22.39.2.59.63.5,1.06l-.92,4.19c-1.21,5.48-4.31,10.4-8.73,13.86l-13.15,10.27-55.98,52.19c-2.38,2.22-5.43,3.42-8.66,3.42Zm-35.16-36.36l27.02,30.77c1.95,2.22,4.64,3.52,7.58,3.66,2.95.15,5.76-.88,7.91-2.89l56.01-52.22s.04-.04.06-.05l13.18-10.29c4.07-3.18,6.93-7.71,8.04-12.76l.19-.85c-4.17,4.14-12.95,11.83-19.55,10.68-.29-.05-.53-.23-.67-.48-.14-.26-.15-.56-.04-.83l3.47-8.27c-1.11.17-2.81.89-4.18,3.43-1.03,1.9-3.83,7.67-5.4,10.94-.96,1.98-2.44,3.66-4.3,4.85l-45.94,29.54c-.4.26-.93.18-1.24-.18l-21.43-24.93c-3.04.82-17.93,5.56-20.71,19.87Z"/>
          </g>
        </g>
      </g>
    </g>
    <g>
      <path class="cls-3" d="m213.7,100.62H68.89c-5.33,0-9.66,4.32-9.66,9.66s4.32,9.66,9.66,9.66h144.81c5.33,0,9.66-4.32,9.66-9.66s-4.32-9.66-9.66-9.66Z"/>
      <g>
        <path class="cls-3" d="m117.87,69.87H37.89c-4.95,0-8.96,4.01-8.96,8.96s4.01,8.96,8.96,8.96h79.98c4.95,0,8.96-4.01,8.96-8.96s-4.01-8.96-8.96-8.96Z"/>
        <circle class="cls-3" cx="145.34" cy="78.83" r="8.96" transform="translate(7.25 169.77) rotate(-61.85)"/>
      </g>
    </g>
    <g>
      <path class="cls-4" d="m513.96,264.73c-.53,0-.96-.43-.96-.96,0-29.49-5.46-58.22-16.22-85.4-.19-.49.05-1.05.54-1.24.49-.19,1.05.05,1.24.54,10.85,27.4,16.35,56.37,16.35,86.1,0,.53-.43.96-.96.96Z"/>
      <path class="cls-4" d="m494.33,170.98c-.37,0-.72-.21-.88-.57-2.23-5.06-4.67-10.11-7.26-15.02-.25-.47-.07-1.05.4-1.29.47-.25,1.04-.07,1.29.4,2.61,4.94,5.08,10.04,7.32,15.14.21.48,0,1.05-.49,1.26-.13.06-.26.08-.38.08Z"/>
      <path class="cls-4" d="m500.1,344.07c-.11,0-.22-.02-.33-.06-.5-.18-.75-.73-.57-1.22,1.49-4.13,2.89-8.35,4.14-12.55.15-.51.69-.79,1.19-.64.51.15.79.68.64,1.19-1.26,4.23-2.67,8.49-4.17,12.65-.14.39-.51.63-.9.63Z"/>
      <path class="cls-4" d="m493.35,340.38c-.1,0-.2-.02-.3-.05-.5-.17-.77-.71-.6-1.21,7.41-22.09,11.16-45.21,11.16-68.74,0-7.57-.4-15.21-1.18-22.7-.05-.53.33-1,.85-1.05.52-.06.99.33,1.05.85.79,7.56,1.19,15.26,1.19,22.9,0,23.73-3.79,47.06-11.26,69.34-.13.4-.51.65-.91.65Z"/>
      <path class="cls-4" d="m500.1,227.34c-.44,0-.84-.31-.93-.76-.65-3.18-1.39-6.38-2.19-9.52-.13-.51.18-1.03.69-1.16.51-.13,1.03.18,1.16.69.8,3.16,1.55,6.39,2.21,9.6.11.52-.23,1.02-.74,1.13-.07.01-.13.02-.19.02Z"/>
      <path class="cls-4" d="m483.99,178.99c-.36,0-.7-.2-.87-.55-1.26-2.67-2.59-5.35-3.95-7.96-.24-.47-.06-1.05.4-1.29.47-.24,1.05-.06,1.29.4,1.38,2.64,2.72,5.34,3.99,8.04.22.48.02,1.05-.46,1.27-.13.06-.27.09-.41.09Z"/>
      <path class="cls-4" d="m471.24,155.73c-.32,0-.63-.16-.81-.45-6.05-9.59-12.91-18.77-20.39-27.31-.35-.4-.31-1,.09-1.35.4-.35,1-.31,1.35.09,7.55,8.61,14.47,17.88,20.57,27.55.28.45.15,1.04-.3,1.32-.16.1-.33.15-.51.15Z"/>
      <g>
        <path class="cls-5" d="m239.26,108.17c-.24,0-.48-.09-.66-.27-.38-.37-.39-.97-.03-1.35l2.34-2.45c.37-.38.97-.39,1.35-.03.38.36.39.97.03,1.35l-2.34,2.45c-.19.2-.44.29-.69.29Z"/>
        <path class="cls-5" d="m231.05,116.74c-.24,0-.48-.09-.66-.27-.38-.36-.39-.97-.03-1.35l2.34-2.45c.37-.38.97-.39,1.35-.03.38.36.39.97.03,1.35l-2.34,2.45c-.19.2-.44.29-.69.29Z"/>
        <path class="cls-5" d="m233.35,108.3c-.24,0-.48-.09-.67-.27l-2.38-2.34c-.38-.37-.38-.98-.01-1.35.37-.38.98-.38,1.35-.01l2.38,2.34c.38.37.38.98.01,1.35-.19.19-.43.29-.68.29Z"/>
        <path class="cls-5" d="m241.68,116.5c-.24,0-.48-.09-.67-.27l-2.38-2.34c-.38-.37-.38-.98-.01-1.35.37-.38.98-.38,1.35-.01l2.38,2.34c.38.37.38.98.01,1.35-.19.19-.43.29-.68.29Z"/>
      </g>
      <g>
        <path class="cls-5" d="m217.04,356.82c-.24,0-.48-.09-.66-.27-.38-.36-.39-.97-.03-1.35l2.34-2.45c.36-.38.97-.39,1.35-.03.38.36.39.97.03,1.35l-2.34,2.45c-.19.2-.44.29-.69.29Z"/>
        <path class="cls-5" d="m208.84,365.38c-.24,0-.48-.09-.66-.27-.38-.36-.39-.97-.03-1.35l2.34-2.45c.37-.38.97-.39,1.35-.03.38.36.39.97.03,1.35l-2.34,2.45c-.19.2-.44.29-.69.29Z"/>
        <path class="cls-5" d="m211.14,356.95c-.24,0-.48-.09-.67-.27l-2.38-2.34c-.38-.37-.38-.98-.01-1.35.37-.38.98-.38,1.35-.01l2.38,2.34c.38.37.38.98.01,1.35-.19.19-.43.29-.68.29Z"/>
        <path class="cls-5" d="m219.47,365.15c-.24,0-.48-.09-.67-.27l-2.38-2.34c-.38-.37-.38-.98-.01-1.35.37-.38.98-.38,1.35-.01l2.38,2.34c.38.37.38.98.01,1.35-.19.19-.43.29-.68.29Z"/>
      </g>
      <path class="cls-4" d="m37.63,173.63c3.66-.79,7.23,1.59,7.97,5.31.74,3.72-1.62,7.38-5.28,8.17-3.66.79-7.23-1.59-7.97-5.31-.74-3.72,1.62-7.38,5.28-8.17Z"/>
      <path class="cls-4" d="m459.1,389.26c2.38-1.07,5.15.03,6.2,2.46,1.05,2.43-.03,5.26-2.41,6.32-2.38,1.07-5.15-.03-6.2-2.46-1.05-2.43.03-5.26,2.41-6.32Z"/>
      <ellipse class="cls-3" cx="447.95" cy="412.36" rx="7.47" ry="7.63"/>
      <path class="cls-4" d="m24.67,152.26c2.36-.51,4.67,1.03,5.15,3.43.48,2.4-1.05,4.76-3.41,5.27-2.36.51-4.67-1.03-5.15-3.43-.48-2.4,1.05-4.76,3.41-5.27Z"/>
      <g>
        <path class="cls-5" d="m478.34,56.88c-.24,0-.48-.09-.66-.27-.38-.36-.39-.97-.03-1.35l2.34-2.45c.36-.38.97-.39,1.35-.03.38.37.39.97.03,1.35l-2.34,2.45c-.19.2-.44.29-.69.29Z"/>
        <path class="cls-5" d="m470.13,65.45c-.24,0-.48-.09-.66-.27-.38-.37-.39-.97-.03-1.35l2.34-2.45c.36-.38.97-.39,1.35-.03.38.36.39.97.03,1.35l-2.34,2.45c-.19.2-.44.29-.69.29Z"/>
        <path class="cls-5" d="m472.43,57.01c-.24,0-.48-.09-.67-.27l-2.38-2.34c-.38-.37-.38-.98-.01-1.35.37-.38.98-.38,1.35-.01l2.38,2.34c.38.37.38.98.01,1.35-.19.19-.43.29-.68.29Z"/>
        <path class="cls-5" d="m480.76,65.21c-.24,0-.48-.09-.67-.27l-2.38-2.34c-.38-.37-.38-.98-.01-1.35.37-.38.98-.38,1.35-.01l2.38,2.34c.38.37.38.98.01,1.35-.19.19-.43.29-.68.29Z"/>
      </g>
    </g>
    <g>
      <g>
        <path class="cls-3" d="m101.35,507.81s10.44-3.26,27.55-36.45c14.44-28.02,1.57-55.09-1.03-73.2-.27-1.85-2.79-2.12-3.42-.36-4.33,12.17-11.29,34.29-10.17,47.92,1.62,19.63-12.93,62.09-12.93,62.09Z"/>
        <path class="cls-3" d="m112.66,489.66l3.72-29.41c1.61-12.77-.47-25.73-6.01-37.32h0c-8.07-16.89-8.7-36.43-1.75-53.82l5.97-14.92c.76-1.89-1.65-3.42-3.01-1.92l-8.39,9.23c-19.03,20.94-25.46,50.58-16.83,77.63l15.46,48.45,10.84,2.08Z"/>
        <path class="cls-2" d="m114.46,476.45s-.08,0-.12,0c-.52-.07-.89-.54-.83-1.07l1.93-15.24c.97-7.7.59-15.44-1.13-23.01-.12-.51.2-1.03.72-1.14.52-.12,1.03.21,1.14.72,1.77,7.78,2.17,15.75,1.16,23.67l-1.93,15.24c-.06.48-.47.84-.95.84Z"/>
        <path class="cls-3" d="m107.87,490.63l-12.9-32.96c-3.67-9.38-11.39-16.54-20.96-19.43l-8.8-2.66c-2.14-.65-3.57,2.18-1.8,3.55l5.41,4.21c5.86,4.56,9.36,11.55,9.51,19.01h0c.09,4.39,1.34,8.67,3.62,12.41l8.74,14.34,17.19,1.54Z"/>
        <path class="cls-2" d="m105.96,476.1s-.06,0-.09,0c-.53-.05-.91-.52-.86-1.04,1.96-20.95-2.25-34.45-5.97-46.36-1.73-5.54-3.36-10.77-4.33-16.42-4.6-26.68,11.07-49.82,11.23-50.05.3-.43.89-.54,1.33-.25.43.3.54.89.25,1.33-.15.22-15.38,22.75-10.92,48.64.95,5.52,2.57,10.69,4.27,16.17,3.77,12.08,8.04,25.78,6.05,47.11-.05.5-.46.87-.95.87Z"/>
        <path class="cls-2" d="m100.49,466.4c-.4,0-.77-.25-.91-.66-1.64-4.98-5.38-10.17-8.22-13.65-.33-.41-.27-1.01.14-1.34.41-.33,1.01-.27,1.34.14,2.94,3.61,6.82,9.01,8.55,14.26.17.5-.11,1.04-.61,1.21-.1.03-.2.05-.3.05Z"/>
        <path class="cls-2" d="m123.15,462.03c-.05,0-.11,0-.16-.01-.52-.09-.87-.58-.78-1.1,3.51-20.73,2.29-52.68,2.28-53-.02-.53.39-.97.92-.99.53-.02.97.39.99.92.01.32,1.24,32.47-2.3,53.4-.08.47-.48.8-.94.8Z"/>
        <path class="cls-2" d="m92.34,479.25c-.52,0-.95-.42-.96-.95-.25-25.61-20.68-36.84-20.88-36.95-.47-.25-.64-.83-.39-1.29.25-.47.83-.64,1.29-.39.22.12,21.64,11.88,21.89,38.61,0,.53-.42.96-.95.97h0Z"/>
        <path class="cls-2" d="m95.14,430.8c-.28,0-.57-.13-.75-.37-5.66-7.27-8.09-16.79-8.19-17.19-.13-.51.18-1.03.69-1.16.51-.13,1.03.18,1.16.69.02.09,2.44,9.53,7.85,16.48.32.42.25,1.02-.17,1.34-.17.14-.38.2-.59.2Z"/>
      </g>
      <path class="cls-2" d="m109.54,528.92h-9.46c-10.89,0-19.71-8.83-19.71-19.71v-26.55h48.89v26.55c0,10.89-8.83,19.71-19.71,19.71Z"/>
      <path class="cls-3" d="m124.46,491.78h-39.3c-.53,0-.96-.43-.96-.96s.43-.96.96-.96h39.3c.53,0,.96.43.96.96s-.43.96-.96.96Z"/>
    </g>
  </g>
  <g>
    <path class="cls-4" d="m342.25,31.89c1.16.19,2.17.55,3.02,1.05.84.5,1.51,1.14,1.98,1.87.47.74.73,1.57.76,2.46.02.9-.2,1.85-.69,2.81-.5.97-1.23,1.85-2.12,2.62-.9.77-1.96,1.41-3.11,1.91-1.15.49-2.39.83-3.64.99-1.25.15-2.52.12-3.72-.12-1.2-.24-2.22-.67-3.04-1.23-.81-.56-1.43-1.25-1.83-2.03-.39-.77-.57-1.62-.51-2.52.06-.88.35-1.81.89-2.72.54-.91,1.28-1.73,2.15-2.43.87-.7,1.87-1.29,2.95-1.75,1.08-.45,2.23-.77,3.4-.94,1.18-.16,2.37-.16,3.52.03"/>
    <path class="cls-4" d="m342.8,30.91c1.94.31,3.64.92,5.06,1.75,1.44.84,2.59,1.91,3.41,3.16.83,1.26,1.31,2.69,1.38,4.23.07,1.56-.27,3.22-1.09,4.9-.84,1.7-2.08,3.26-3.61,4.61-1.55,1.36-3.38,2.5-5.38,3.37-2,.87-4.16,1.45-6.34,1.71-2.17.25-4.35.16-6.41-.3-2.04-.46-3.76-1.25-5.12-2.28-1.34-1.01-2.34-2.25-2.96-3.62-.61-1.35-.84-2.84-.68-4.38.16-1.52.7-3.09,1.65-4.63.94-1.53,2.2-2.9,3.68-4.08,1.46-1.17,3.14-2.15,4.93-2.9,1.79-.75,3.7-1.28,5.64-1.55,1.94-.27,3.92-.27,5.84.04m-10.49,18.91c1.63.35,3.34.4,5.04.2,1.71-.2,3.4-.66,4.96-1.34,1.56-.68,3-1.56,4.22-2.62,1.21-1.05,2.19-2.26,2.86-3.58.66-1.31.95-2.61.9-3.83-.04-1.21-.41-2.34-1.05-3.33-.64-.99-1.55-1.84-2.69-2.51-1.13-.66-2.48-1.15-4.03-1.4-1.54-.25-3.13-.25-4.69-.04-1.56.21-3.09.64-4.52,1.25-1.44.6-2.78,1.39-3.94,2.33-1.17.94-2.17,2.03-2.9,3.25-.74,1.23-1.15,2.47-1.26,3.67-.1,1.21.11,2.38.61,3.43.51,1.07,1.32,2.03,2.4,2.8,1.09.78,2.46,1.39,4.08,1.73"/>
    <path class="cls-4" d="m357.48,42.91c-.15-2.22-.89-4.28-2.11-6.08-1.19-1.77-2.85-3.29-4.91-4.47-2.01-1.16-4.41-2-7.12-2.43-2.68-.43-5.44-.42-8.14-.04-2.69.37-5.34,1.11-7.83,2.16-2.5,1.05-4.84,2.41-6.9,4.04-2.08,1.65-3.89,3.57-5.27,5.73-1.41,2.2-2.25,4.44-2.56,6.62-.31,2.23-.07,4.4.7,6.39.79,2.04,2.13,3.89,3.99,5.42,1.9,1.56,4.32,2.78,7.24,3.53,2.96.75,6.11.93,9.26.6,3.17-.33,6.32-1.18,9.24-2.46,2.92-1.28,5.58-2.97,7.82-5,2.21-2,3.98-4.31,5.15-6.83,1.14-2.47,1.59-4.9,1.43-7.17m-3.71,4.56c-1,2.1-2.51,4.02-4.37,5.69-1.89,1.68-4.13,3.09-6.58,4.16-2.45,1.07-5.09,1.79-7.76,2.08-2.65.29-5.31.17-7.81-.43-2.47-.59-4.54-1.59-6.18-2.87-1.6-1.26-2.78-2.79-3.49-4.49-.69-1.67-.94-3.49-.71-5.37.23-1.84.91-3.75,2.09-5.62,1.16-1.84,2.69-3.49,4.47-4.9,1.76-1.4,3.77-2.57,5.92-3.47,2.14-.9,4.42-1.54,6.74-1.86,2.33-.32,4.69-.32,6.99.04,2.33.37,4.38,1.09,6.09,2.09,1.74,1.01,3.15,2.31,4.15,3.81,1.02,1.53,1.62,3.27,1.73,5.14.11,1.9-.29,3.94-1.27,6.01"/>
  </g>
</svg>