<?xml version="1.0" encoding="UTF-8"?><svg id="logo_CityOfVienna" xmlns="http://www.w3.org/2000/svg" viewBox="0 0 560 191.74"><defs><style>.cls-1{fill:red;}.cls-2{fill:#292929;}</style></defs><path id="path3794" class="cls-2" d="M521.99,172.39c0,1.61,.53,2.96,1.59,4.05,1.06,1.1,2.79,1.64,5.2,1.64,3.8,0,6.96-1.11,9.48-3.34,2.52-2.23,3.78-5.16,3.78-8.82v-1.31l-11.61,1.31c-2.92,.29-5.06,.93-6.41,1.92-1.35,.99-2.03,2.5-2.03,4.54m1.86,17.31c-5.33,0-9.57-1.42-12.7-4.27-3.14-2.85-4.71-6.83-4.71-11.94s1.83-9.27,5.48-12.27c3.65-2.99,8.58-4.78,14.79-5.37l15.33-1.53v-.11c0-2.99-.82-5.26-2.46-6.79-1.64-1.53-4.66-2.3-9.04-2.3-3.29,0-6.63,.38-10.02,1.15-3.4,.77-6.12,1.66-8.16,2.68h-.66l2.19-13.04c2.34-.95,5.22-1.77,8.65-2.47,3.43-.69,7.05-1.04,10.84-1.04,8.25,0,14.31,1.94,18.19,5.81,3.87,3.87,5.81,9.49,5.81,16.87v17.53c0,2.85,.2,5.66,.6,8.44,.4,2.77,1.07,5.11,2.03,7.01v.77h-14.35c-.44-1.09-.84-2.46-1.21-4.11-.37-1.64-.59-3.16-.66-4.55h-.66c-1.39,2.7-3.8,4.97-7.23,6.79-3.43,1.83-7.45,2.74-12.05,2.74"/><path id="path3790" class="cls-2" d="M444.52,188.82v-55.1h13.91v9.31h.66c1.39-3.21,3.67-5.79,6.84-7.72,3.18-1.93,6.88-2.9,11.12-2.9,6.42,0,11.48,2.14,15.17,6.41,3.69,4.27,5.53,10.21,5.53,17.8v32.21h-15.33v-30.23c0-8.61-3.55-12.93-10.63-12.93-3.58,0-6.46,1.28-8.66,3.84-2.19,2.56-3.28,5.95-3.28,10.19v29.14h-15.34Z"/><path id="path3786" class="cls-2" d="M378.66,188.82v-55.1h13.91v9.31h.66c1.39-3.21,3.67-5.79,6.85-7.72,3.18-1.93,6.88-2.9,11.12-2.9,6.43,0,11.48,2.14,15.17,6.41,3.69,4.27,5.53,10.21,5.53,17.8v32.21h-15.34v-30.23c0-8.61-3.54-12.93-10.63-12.93-3.58,0-6.46,1.28-8.65,3.84-2.19,2.56-3.29,5.95-3.29,10.19v29.14h-15.33Z"/><path id="path3782" class="cls-2" d="M343.25,144.67c-3.43,0-6.26,1.04-8.49,3.12-2.23,2.08-3.6,5.2-4.11,9.36l23.44-2.63c-.51-3.43-1.72-5.93-3.61-7.5-1.9-1.57-4.31-2.35-7.23-2.35m.88,45.46c-5.99,0-11.16-1.17-15.5-3.51-4.35-2.34-7.69-5.66-10.02-9.97-2.34-4.31-3.51-9.35-3.51-15.12,0-6.06,1.22-11.26,3.67-15.61,2.45-4.35,5.82-7.69,10.13-10.02,4.31-2.34,9.2-3.51,14.68-3.51,8.11,0,14.42,2.48,18.95,7.45,4.53,4.97,6.79,11.83,6.79,20.59v3.39l-37.9,4.27c1.02,3.36,2.85,5.73,5.48,7.12,2.63,1.39,5.84,2.08,9.64,2.08,3.58,0,7.16-.48,10.74-1.43,3.58-.95,6.28-2.01,8.11-3.18h.77l-2.19,13.15c-2.04,1.09-4.89,2.08-8.54,2.96-3.65,.88-7.41,1.31-11.28,1.31"/><path id="path3778" class="cls-2" d="M291.28,133.72h15.34v55.1h-15.34v-55.1Zm7.67-8.87c-2.92,0-5.29-.89-7.12-2.68-1.83-1.79-2.74-4.03-2.74-6.74s.91-5.04,2.74-6.79c1.82-1.75,4.2-2.63,7.12-2.63s5.39,.88,7.18,2.63c1.79,1.75,2.68,4.02,2.68,6.79s-.89,4.95-2.68,6.74c-1.79,1.79-4.18,2.68-7.18,2.68"/><path id="path3776" class="cls-2" d="M255.21,188.82h-17.64c-2.78-5.4-5.53-11.41-8.27-18.02-2.74-6.61-5.33-13.53-7.78-20.76-2.45-7.23-4.67-14.53-6.68-21.91-2.01-7.37-3.67-14.53-4.98-21.47h16.76c2.12,11.61,4.88,23.08,8.27,34.4,3.4,11.32,7.21,22.13,11.45,32.42h.66c4.23-10.29,8.05-21.1,11.45-32.42,3.4-11.32,6.11-22.79,8.16-34.4h16.32c-1.32,6.94-2.98,14.09-4.99,21.47-2.01,7.38-4.24,14.68-6.68,21.91-2.45,7.23-5.04,14.15-7.78,20.76-2.74,6.61-5.5,12.62-8.27,18.02"/><path id="path3772" class="cls-2" d="M519.76,84.13V41.84h-10.52v-12.82h10.52v-4.93c0-7.59,1.99-13.36,5.97-17.31,3.98-3.94,9.04-5.92,15.17-5.92,2.41,0,4.55,.22,6.41,.66,1.86,.44,2.2,.95,3.59,1.53l-2.08,12.49h-.66c-1.75-.95-2.4-1.42-4.52-1.42-2.63,0-4.71,.88-6.24,2.63-1.54,1.75-2.3,4.38-2.3,7.89v4.38h14.13l-2.19,12.82h-11.94v42.28h-15.34Z"/><path id="path3768" class="cls-2" d="M473.66,72.08c4.09,0,7.43-1.37,10.02-4.11,2.59-2.74,3.89-6.55,3.89-11.45s-1.3-8.73-3.89-11.5c-2.59-2.77-5.93-4.16-10.02-4.16s-7.34,1.39-9.97,4.16c-2.63,2.78-3.94,6.61-3.94,11.5s1.32,8.71,3.94,11.45c2.63,2.74,5.95,4.11,9.97,4.11m0,13.36c-5.62,0-10.66-1.17-15.12-3.51-4.46-2.34-7.96-5.68-10.52-10.02-2.56-4.34-3.84-9.48-3.84-15.39s1.28-11.05,3.84-15.39c2.55-4.34,6.06-7.7,10.52-10.08,4.45-2.37,9.49-3.56,15.12-3.56s10.66,1.19,15.12,3.56c4.45,2.37,7.96,5.73,10.52,10.08,2.56,4.35,3.83,9.48,3.83,15.39s-1.28,11.05-3.83,15.39c-2.56,4.35-6.06,7.69-10.52,10.02-4.45,2.34-9.49,3.51-15.12,3.51"/><path id="path3764" class="cls-2" d="M364.02,111.51v-.77l14.46-26.62c-3-4.82-5.86-10.26-8.6-16.32-2.74-6.06-5.17-12.43-7.29-19.11-2.12-6.68-3.8-13.24-5.04-19.66h15.78c1.02,6.28,2.67,13.02,4.93,20.21,2.26,7.19,4.93,14.19,8,20.98h.77c3.14-6.94,5.86-13.78,8.16-20.54,2.3-6.75,4-13.64,5.09-20.65h13.83c-1.75,9.49-3.08,18.68-6.54,27.55-3.47,8.87-7.72,18.06-12.76,27.55l-14.57,27.38h-16.21Z"/><path id="path3760" class="cls-2" d="M348.6,84.13h-16.87c-2.63-3.65-4.62-7.83-5.97-12.54-1.35-4.71-2.03-10.06-2.03-16.05v-13.69h-9.64v-12.82h9.64V12.71h15.12V29.03h12.92l-2.19,12.82h-10.73v12.49c0,6.21,.86,11.61,2.57,16.21,1.72,4.6,4.11,8.87,7.18,12.82v.77Z"/><path id="path3756" class="cls-2" d="M289.03,29.03h15.33v55.1h-15.33V29.03Zm7.67-8.87c-2.92,0-5.29-.89-7.12-2.68-1.83-1.79-2.74-4.03-2.74-6.74s.91-5.04,2.74-6.79c1.83-1.75,4.2-2.63,7.12-2.63s5.39,.88,7.18,2.63c1.79,1.75,2.68,4.02,2.68,6.79s-.9,4.95-2.68,6.74c-1.79,1.79-4.18,2.68-7.18,2.68"/><path id="path3754" class="cls-2" d="M252.25,86.1c-8.03,0-15.14-1.81-21.31-5.42-6.17-3.61-10.97-8.65-14.41-15.12-3.43-6.46-5.15-13.97-5.15-22.51,0-6.5,1.04-12.39,3.12-17.69,2.08-5.29,5-9.82,8.76-13.58,3.76-3.76,8.18-6.66,13.25-8.71,5.08-2.04,10.57-3.07,16.49-3.07,4.74,0,9.11,.62,13.09,1.86,3.98,1.24,7.43,2.85,10.35,4.82l-2.3,14.02h-.66c-2.34-1.83-5.08-3.29-8.22-4.38-3.14-1.09-6.65-1.64-10.52-1.64-5.19,0-9.81,1.11-13.86,3.34-4.06,2.23-7.25,5.44-9.59,9.64-2.34,4.2-3.51,9.33-3.51,15.39s1.11,10.9,3.34,15.17c2.23,4.27,5.38,7.54,9.48,9.8,4.09,2.26,8.87,3.4,14.35,3.4,3.87,0,7.61-.55,11.23-1.64,3.61-1.09,6.7-2.45,9.26-4.05h.66l-2.41,15.12c-6.21,3.51-13.37,5.26-21.47,5.26"/><path id="path3750" class="cls-1" d="M89.67,86.9h60.79c-11.65,55.17-34.15,96.26-60.79,104.84V86.9Z"/><path id="path3742" class="cls-1" d="M69.33,86.9H8.54c11.65,55.17,34.15,96.26,60.79,104.84V86.9Z"/><path id="path3746" class="cls-1" d="M89.67,66.55V1.96h69.33c0,22.46-1.71,44.25-4.83,64.59H89.67Z"/><path id="path3738" class="cls-1" d="M69.33,66.55V1.96H0C0,24.42,1.71,46.21,4.83,66.55H69.33Z"/></svg>