<?xml version="1.0" encoding="UTF-8"?>
<svg xmlns="http://www.w3.org/2000/svg" xmlns:xlink="http://www.w3.org/1999/xlink" viewBox="0 0 1270 820">
  <defs>
    <linearGradient id="Sfumatura_senza_nome_11" data-name="Sfumatura senza nome 11" x1="300" y1="110" x2="970" y2="110" gradientUnits="userSpaceOnUse">
      <stop offset="0" stop-color="#b1b2b4" stop-opacity="0"/>
      <stop offset="1" stop-color="#b1b2b4"/>
    </linearGradient>
    <linearGradient id="Sfumatura_senza_nome_11-2" data-name="Sfumatura senza nome 11" y1="410" y2="410" xlink:href="#Sfumatura_senza_nome_11"/>
    <linearGradient id="Sfumatura_senza_nome_11-3" data-name="Sfumatura senza nome 11" y1="710" y2="710" xlink:href="#Sfumatura_senza_nome_11"/>
    <linearGradient id="Sfumatura_senza_nome_11-4" data-name="Sfumatura senza nome 11" x1="1160" y1="0" x2="1160" y2="820" xlink:href="#Sfumatura_senza_nome_11"/>
    <linearGradient id="Sfumatura_senza_nome_11-5" data-name="Sfumatura senza nome 11" x1="110" y1="0" x2="110" y2="820" xlink:href="#Sfumatura_senza_nome_11"/>
  </defs>
  <g style="fill: none; isolation: isolate;">
    <g id="graphic">
      <rect x="300" y="0" width="670" height="220" rx="10" ry="10" style="fill: #a57ac9;"/>
      <rect x="300" y="300" width="670" height="220" rx="10" ry="10" style="fill: #194276;"/>
      <rect x="300" y="600" width="670" height="220" rx="10" ry="10" style="fill: #6dc6d4;"/>
      <rect x="0" y="0" width="220" height="820" rx="8" ry="8" style="fill: #d8d8d9;"/>
      <rect x="1050" y="0" width="220" height="820" rx="8" ry="8" style="fill: #2cb189;"/>
      <path d="m960,2c4.41,0,8,3.59,8,8v200c0,4.41-3.59,8-8,8H310c-4.41,0-8-3.59-8-8V10c0-4.41,3.59-8,8-8h650M960,0H310C304.5,0,300,4.5,300,10v200c0,5.5,4.5,10,10,10h650c5.5,0,10-4.5,10-10V10C970,4.5,965.5,0,960,0h0Z" style="fill: #9b6cc3;"/>
      <path d="m960,302c4.41,0,8,3.59,8,8v200c0,4.41-3.59,8-8,8H310c-4.41,0-8-3.59-8-8v-200c0-4.41,3.59-8,8-8h650m0-2H310c-5.5,0-10,4.5-10,10v200c0,5.5,4.5,10,10,10h650c5.5,0,10-4.5,10-10v-200c0-5.5-4.5-10-10-10h0Z" style="fill: #002e67;"/>
      <path d="m960,602c4.41,0,8,3.59,8,8v200c0,4.41-3.59,8-8,8H310c-4.41,0-8-3.59-8-8v-200c0-4.41,3.59-8,8-8h650m0-2H310c-5.5,0-10,4.5-10,10v200c0,5.5,4.5,10,10,10h650c5.5,0,10-4.5,10-10v-200c0-5.5-4.5-10-10-10h0Z" style="fill: #5dc0cf;"/>
      <path d="m212,2c3.31,0,6,2.69,6,6v804c0,3.31-2.69,6-6,6H8c-3.31,0-6-2.69-6-6V8c0-3.31,2.69-6,6-6h204M212,0H8C3.6,0,0,3.6,0,8v804C0,816.4,3.6,820,8,820h204c4.4,0,8-3.6,8-8V8C220,3.6,216.4,0,212,0h0Z" style="fill: #c1c1c3;"/>
      <path d="m1262,2c3.31,0,6,2.69,6,6v804c0,3.31-2.69,6-6,6h-204c-3.31,0-6-2.69-6-6V8c0-3.31,2.69-6,6-6h204M1262,0h-204C1053.6,0,1050,3.6,1050,8v804c0,4.4,3.6,8,8,8h204c4.4,0,8-3.6,8-8V8C1270,3.6,1266.4,0,1262,0h0Z" style="fill: #15a97c;"/>
    </g>
    <g id="overlay">
      <g style="fill: none; mix-blend-mode: soft-light; opacity: .7;">
        <rect x="300" y="0" width="670" height="220" rx="10" ry="10" style="fill: url(#Sfumatura_senza_nome_11);"/>
      </g>
      <g style="fill: none; mix-blend-mode: soft-light; opacity: .7;">
        <rect x="300" y="300" width="670" height="220" rx="10" ry="10" style="fill: url(#Sfumatura_senza_nome_11-2);"/>
      </g>
      <g style="fill: none; mix-blend-mode: soft-light; opacity: .7;">
        <rect x="300" y="600" width="670" height="220" rx="10" ry="10" style="fill: url(#Sfumatura_senza_nome_11-3);"/>
      </g>
      <g style="fill: none; mix-blend-mode: soft-light; opacity: .7;">
        <rect x="1050" y="0" width="220" height="820" rx="8" ry="8" style="fill: url(#Sfumatura_senza_nome_11-4);"/>
      </g>
      <g style="fill: none; mix-blend-mode: soft-light; opacity: .7;">
        <rect x="0" y="0" width="220" height="820" rx="8" ry="8" style="fill: url(#Sfumatura_senza_nome_11-5);"/>
      </g>
    </g>
    <g id="content">
      <g>
        <path d="m563.12,93.54c-2.28-1.24-4.07-2.95-5.36-5.14-1.29-2.19-1.94-4.65-1.94-7.4s.65-5.21,1.96-7.4c1.31-2.19,3.1-3.9,5.38-5.14,2.28-1.24,4.83-1.86,7.66-1.86,2.29,0,4.39.4,6.28,1.2,1.89.8,3.49,1.96,4.8,3.48l-3.36,3.16c-2.03-2.19-4.52-3.28-7.48-3.28-1.92,0-3.64.42-5.16,1.26s-2.71,2.01-3.56,3.5c-.85,1.49-1.28,3.19-1.28,5.08s.43,3.59,1.28,5.08c.85,1.49,2.04,2.66,3.56,3.5s3.24,1.26,5.16,1.26c2.96,0,5.45-1.11,7.48-3.32l3.36,3.2c-1.31,1.52-2.91,2.68-4.82,3.48-1.91.8-4.01,1.2-6.3,1.2-2.83,0-5.38-.62-7.66-1.86Z" style="fill: #fff;"/>
        <path d="m589.38,93.88c-1.73-.93-3.09-2.23-4.06-3.9-.97-1.67-1.46-3.55-1.46-5.66s.49-3.99,1.46-5.64c.97-1.65,2.33-2.95,4.06-3.88,1.73-.93,3.68-1.4,5.84-1.4s4.15.47,5.88,1.4c1.73.93,3.09,2.23,4.06,3.88.97,1.65,1.46,3.53,1.46,5.64s-.49,3.99-1.46,5.66c-.97,1.67-2.33,2.97-4.06,3.9-1.73.93-3.69,1.4-5.88,1.4s-4.11-.47-5.84-1.4Zm10.4-4.72c1.2-1.23,1.8-2.84,1.8-4.84s-.6-3.61-1.8-4.84c-1.2-1.23-2.72-1.84-4.56-1.84s-3.35.61-4.54,1.84-1.78,2.84-1.78,4.84.59,3.61,1.78,4.84,2.7,1.84,4.54,1.84,3.36-.61,4.56-1.84Z" style="fill: #fff;"/>
        <path d="m630.02,75.76c1.63,1.57,2.44,3.91,2.44,7v12.24h-5v-11.6c0-1.87-.44-3.27-1.32-4.22-.88-.95-2.13-1.42-3.76-1.42-1.84,0-3.29.55-4.36,1.66-1.07,1.11-1.6,2.7-1.6,4.78v10.8h-5v-21.36h4.76v2.76c.83-.99,1.87-1.73,3.12-2.24,1.25-.51,2.67-.76,4.24-.76,2.69,0,4.85.79,6.48,2.36Z" style="fill: #fff;"/>
        <path d="m651.66,93.84c-.59.48-1.3.84-2.14,1.08s-1.73.36-2.66.36c-2.35,0-4.16-.61-5.44-1.84s-1.92-3.01-1.92-5.36v-10.28h-3.52v-4h3.52v-4.88h5v4.88h5.72v4h-5.72v10.16c0,1.04.25,1.83.76,2.38.51.55,1.24.82,2.2.82,1.12,0,2.05-.29,2.8-.88l1.4,3.56Z" style="fill: #fff;"/>
        <path d="m675.06,85.92h-16.76c.29,1.57,1.06,2.82,2.3,3.74,1.24.92,2.78,1.38,4.62,1.38,2.35,0,4.28-.77,5.8-2.32l2.68,3.08c-.96,1.15-2.17,2.01-3.64,2.6s-3.12.88-4.96.88c-2.35,0-4.41-.47-6.2-1.4-1.79-.93-3.17-2.23-4.14-3.9-.97-1.67-1.46-3.55-1.46-5.66s.47-3.95,1.42-5.62c.95-1.67,2.26-2.97,3.94-3.9,1.68-.93,3.57-1.4,5.68-1.4s3.94.46,5.58,1.38,2.92,2.21,3.84,3.88c.92,1.67,1.38,3.59,1.38,5.78,0,.35-.03.84-.08,1.48Zm-14.78-7.1c-1.11.95-1.78,2.21-2.02,3.78h12.12c-.21-1.55-.87-2.8-1.96-3.76-1.09-.96-2.45-1.44-4.08-1.44s-2.95.47-4.06,1.42Z" style="fill: #fff;"/>
        <path d="m692.94,95l-5.48-7.4-5.52,7.4h-5.52l8.32-10.84-7.96-10.52h5.56l5.24,7,5.24-7h5.4l-8,10.44,8.36,10.92h-5.64Z" style="fill: #fff;"/>
        <path d="m715.1,93.84c-.59.48-1.3.84-2.14,1.08s-1.73.36-2.66.36c-2.35,0-4.16-.61-5.44-1.84-1.28-1.23-1.92-3.01-1.92-5.36v-10.28h-3.52v-4h3.52v-4.88h5v4.88h5.72v4h-5.72v10.16c0,1.04.25,1.83.76,2.38.51.55,1.24.82,2.2.82,1.12,0,2.05-.29,2.8-.88l1.4,3.56Z" style="fill: #fff;"/>
        <path d="m378.1,124.2c1.8.8,3.18,1.95,4.14,3.44.96,1.49,1.44,3.27,1.44,5.32s-.48,3.79-1.44,5.3c-.96,1.51-2.34,2.66-4.14,3.46-1.8.8-3.91,1.2-6.34,1.2h-6.32v8.08h-5.2v-28h11.52c2.43,0,4.54.4,6.34,1.2Zm-1.42,12.88c1.17-.96,1.76-2.33,1.76-4.12s-.59-3.16-1.76-4.12c-1.17-.96-2.89-1.44-5.16-1.44h-6.08v11.12h6.08c2.27,0,3.99-.48,5.16-1.44Z" style="fill: #fff;"/>
        <path d="m400.56,129.4v4.76c-.43-.08-.81-.12-1.16-.12-1.95,0-3.47.57-4.56,1.7-1.09,1.13-1.64,2.77-1.64,4.9v10.36h-5v-21.36h4.76v3.12c1.44-2.24,3.97-3.36,7.6-3.36Z" style="fill: #fff;"/>
        <path d="m408.36,149.88c-1.73-.93-3.09-2.23-4.06-3.9-.97-1.67-1.46-3.55-1.46-5.66s.49-3.99,1.46-5.64c.97-1.65,2.33-2.95,4.06-3.88,1.73-.93,3.68-1.4,5.84-1.4s4.15.47,5.88,1.4c1.73.93,3.09,2.23,4.06,3.88.97,1.65,1.46,3.53,1.46,5.64s-.49,3.99-1.46,5.66c-.97,1.67-2.33,2.97-4.06,3.9-1.73.93-3.69,1.4-5.88,1.4s-4.11-.47-5.84-1.4Zm10.4-4.72c1.2-1.23,1.8-2.84,1.8-4.84s-.6-3.61-1.8-4.84c-1.2-1.23-2.72-1.84-4.56-1.84s-3.35.61-4.54,1.84-1.78,2.84-1.78,4.84.59,3.61,1.78,4.84,2.7,1.84,4.54,1.84,3.36-.61,4.56-1.84Z" style="fill: #fff;"/>
        <path d="m434.24,149.88c-1.76-.93-3.13-2.23-4.12-3.9-.99-1.67-1.48-3.55-1.48-5.66s.49-3.99,1.48-5.64c.99-1.65,2.35-2.95,4.1-3.88,1.75-.93,3.74-1.4,5.98-1.4,2.11,0,3.95.43,5.54,1.28,1.59.85,2.78,2.08,3.58,3.68l-3.84,2.24c-.61-.99-1.38-1.73-2.3-2.22-.92-.49-1.93-.74-3.02-.74-1.87,0-3.41.61-4.64,1.82-1.23,1.21-1.84,2.83-1.84,4.86s.61,3.65,1.82,4.86c1.21,1.21,2.77,1.82,4.66,1.82,1.09,0,2.1-.25,3.02-.74.92-.49,1.69-1.23,2.3-2.22l3.84,2.24c-.83,1.6-2.03,2.83-3.62,3.7-1.59.87-3.42,1.3-5.5,1.3-2.21,0-4.2-.47-5.96-1.4Z" style="fill: #fff;"/>
        <path d="m473.32,141.92h-16.76c.29,1.57,1.06,2.82,2.3,3.74,1.24.92,2.78,1.38,4.62,1.38,2.35,0,4.28-.77,5.8-2.32l2.68,3.08c-.96,1.15-2.17,2.01-3.64,2.6-1.47.59-3.12.88-4.96.88-2.35,0-4.41-.47-6.2-1.4-1.79-.93-3.17-2.23-4.14-3.9-.97-1.67-1.46-3.55-1.46-5.66s.47-3.95,1.42-5.62c.95-1.67,2.26-2.97,3.94-3.9,1.68-.93,3.57-1.4,5.68-1.4s3.94.46,5.58,1.38c1.64.92,2.92,2.21,3.84,3.88.92,1.67,1.38,3.59,1.38,5.78,0,.35-.03.84-.08,1.48Zm-14.78-7.1c-1.11.95-1.78,2.21-2.02,3.78h12.12c-.21-1.55-.87-2.8-1.96-3.76-1.09-.96-2.45-1.44-4.08-1.44s-2.95.47-4.06,1.42Z" style="fill: #fff;"/>
        <path d="m479.72,150.6c-1.65-.45-2.97-1.03-3.96-1.72l1.92-3.8c.96.64,2.11,1.15,3.46,1.54,1.35.39,2.67.58,3.98.58,2.99,0,4.48-.79,4.48-2.36,0-.75-.38-1.27-1.14-1.56-.76-.29-1.98-.57-3.66-.84-1.76-.27-3.19-.57-4.3-.92-1.11-.35-2.07-.95-2.88-1.82-.81-.87-1.22-2.07-1.22-3.62,0-2.03.85-3.65,2.54-4.86,1.69-1.21,3.98-1.82,6.86-1.82,1.47,0,2.93.17,4.4.5,1.47.33,2.67.78,3.6,1.34l-1.92,3.8c-1.81-1.07-3.85-1.6-6.12-1.6-1.47,0-2.58.22-3.34.66-.76.44-1.14,1.02-1.14,1.74,0,.8.41,1.37,1.22,1.7.81.33,2.07.65,3.78.94,1.71.27,3.11.57,4.2.92,1.09.35,2.03.93,2.82,1.76.79.83,1.18,2,1.18,3.52,0,2-.87,3.6-2.6,4.8-1.73,1.2-4.09,1.8-7.08,1.8-1.73,0-3.43-.23-5.08-.68Z" style="fill: #fff;"/>
        <path d="m500.32,150.6c-1.65-.45-2.97-1.03-3.96-1.72l1.92-3.8c.96.64,2.11,1.15,3.46,1.54,1.35.39,2.67.58,3.98.58,2.99,0,4.48-.79,4.48-2.36,0-.75-.38-1.27-1.14-1.56-.76-.29-1.98-.57-3.66-.84-1.76-.27-3.19-.57-4.3-.92-1.11-.35-2.07-.95-2.88-1.82-.81-.87-1.22-2.07-1.22-3.62,0-2.03.85-3.65,2.54-4.86,1.69-1.21,3.98-1.82,6.86-1.82,1.47,0,2.93.17,4.4.5,1.47.33,2.67.78,3.6,1.34l-1.92,3.8c-1.81-1.07-3.85-1.6-6.12-1.6-1.47,0-2.58.22-3.34.66-.76.44-1.14,1.02-1.14,1.74,0,.8.41,1.37,1.22,1.7.81.33,2.07.65,3.78.94,1.71.27,3.11.57,4.2.92,1.09.35,2.03.93,2.82,1.76.79.83,1.18,2,1.18,3.52,0,2-.87,3.6-2.6,4.8-1.73,1.2-4.09,1.8-7.08,1.8-1.73,0-3.43-.23-5.08-.68Z" style="fill: #fff;"/>
        <path d="m539.16,117.32h4.48l-13.2,37.68h-4.48l13.2-37.68Z" style="fill: #fff;"/>
        <path d="m574.96,144.52h-14l-2.76,6.48h-5.36l12.6-28h5.12l12.64,28h-5.44l-2.8-6.48Zm-1.72-4.08l-5.28-12.24-5.24,12.24h10.52Z" style="fill: #fff;"/>
        <path d="m604.88,131.76c1.63,1.57,2.44,3.91,2.44,7v12.24h-5v-11.6c0-1.87-.44-3.27-1.32-4.22-.88-.95-2.13-1.42-3.76-1.42-1.84,0-3.29.55-4.36,1.66-1.07,1.11-1.6,2.7-1.6,4.78v10.8h-5v-21.36h4.76v2.76c.83-.99,1.87-1.73,3.12-2.24,1.25-.51,2.67-.76,4.24-.76,2.69,0,4.85.79,6.48,2.36Z" style="fill: #fff;"/>
        <path d="m629.06,131.66c1.67,1.51,2.5,3.78,2.5,6.82v12.52h-4.72v-2.6c-.61.93-1.49,1.65-2.62,2.14-1.13.49-2.5.74-4.1.74s-3-.27-4.2-.82-2.13-1.31-2.78-2.28c-.65-.97-.98-2.07-.98-3.3,0-1.92.71-3.46,2.14-4.62,1.43-1.16,3.67-1.74,6.74-1.74h5.52v-.32c0-1.49-.45-2.64-1.34-3.44-.89-.8-2.22-1.2-3.98-1.2-1.2,0-2.38.19-3.54.56-1.16.37-2.14.89-2.94,1.56l-1.96-3.64c1.12-.85,2.47-1.51,4.04-1.96,1.57-.45,3.24-.68,5-.68,3.15,0,5.55.75,7.22,2.26Zm-4.56,15.12c.97-.57,1.66-1.39,2.06-2.46v-2.48h-5.16c-2.88,0-4.32.95-4.32,2.84,0,.91.36,1.63,1.08,2.16.72.53,1.72.8,3,.8s2.37-.29,3.34-.86Z" style="fill: #fff;"/>
        <path d="m637.96,121.32h5v29.68h-5v-29.68Z" style="fill: #fff;"/>
        <path d="m669.52,129.64l-10,23.08c-.93,2.32-2.07,3.95-3.4,4.9-1.33.95-2.95,1.42-4.84,1.42-1.07,0-2.12-.17-3.16-.52s-1.89-.83-2.56-1.44l2-3.68c.48.45,1.05.81,1.7,1.08.65.27,1.31.4,1.98.4.88,0,1.61-.23,2.18-.68.57-.45,1.1-1.21,1.58-2.28l.36-.84-9.32-21.44h5.2l6.72,15.8,6.76-15.8h4.8Z" style="fill: #fff;"/>
        <path d="m688.92,147v4h-18.44v-3.16l11.72-14.2h-11.48v-4h17.88v3.16l-11.76,14.2h12.08Z" style="fill: #fff;"/>
        <path d="m713.2,141.92h-16.76c.29,1.57,1.06,2.82,2.3,3.74,1.24.92,2.78,1.38,4.62,1.38,2.35,0,4.28-.77,5.8-2.32l2.68,3.08c-.96,1.15-2.17,2.01-3.64,2.6s-3.12.88-4.96.88c-2.35,0-4.41-.47-6.2-1.4-1.79-.93-3.17-2.23-4.14-3.9-.97-1.67-1.46-3.55-1.46-5.66s.47-3.95,1.42-5.62c.95-1.67,2.26-2.97,3.94-3.9,1.68-.93,3.57-1.4,5.68-1.4s3.94.46,5.58,1.38,2.92,2.21,3.84,3.88c.92,1.67,1.38,3.59,1.38,5.78,0,.35-.03.84-.08,1.48Zm-14.78-7.1c-1.11.95-1.78,2.21-2.02,3.78h12.12c-.21-1.55-.87-2.8-1.96-3.76-1.09-.96-2.45-1.44-4.08-1.44s-2.95.47-4.06,1.42Z" style="fill: #fff;"/>
        <path d="m737.84,117.32h4.48l-13.2,37.68h-4.48l13.2-37.68Z" style="fill: #fff;"/>
        <path d="m781.2,151l-.04-18.56-9.2,15.36h-2.32l-9.2-15.12v18.32h-4.96v-28h4.28l11.12,18.56,10.92-18.56h4.28l.04,28h-4.92Z" style="fill: #fff;"/>
        <path d="m796.96,149.88c-1.73-.93-3.09-2.23-4.06-3.9-.97-1.67-1.46-3.55-1.46-5.66s.49-3.99,1.46-5.64c.97-1.65,2.33-2.95,4.06-3.88,1.73-.93,3.68-1.4,5.84-1.4s4.15.47,5.88,1.4c1.73.93,3.09,2.23,4.06,3.88.97,1.65,1.46,3.53,1.46,5.64s-.49,3.99-1.46,5.66c-.97,1.67-2.33,2.97-4.06,3.9-1.73.93-3.69,1.4-5.88,1.4s-4.11-.47-5.84-1.4Zm10.4-4.72c1.2-1.23,1.8-2.84,1.8-4.84s-.6-3.61-1.8-4.84c-1.2-1.23-2.72-1.84-4.56-1.84s-3.35.61-4.54,1.84-1.78,2.84-1.78,4.84.59,3.61,1.78,4.84,2.7,1.84,4.54,1.84,3.36-.61,4.56-1.84Z" style="fill: #fff;"/>
        <path d="m837.6,131.76c1.63,1.57,2.44,3.91,2.44,7v12.24h-5v-11.6c0-1.87-.44-3.27-1.32-4.22-.88-.95-2.13-1.42-3.76-1.42-1.84,0-3.29.55-4.36,1.66-1.07,1.11-1.6,2.7-1.6,4.78v10.8h-5v-21.36h4.76v2.76c.83-.99,1.87-1.73,3.12-2.24,1.25-.51,2.67-.76,4.24-.76,2.69,0,4.85.79,6.48,2.36Z" style="fill: #fff;"/>
        <path d="m846.64,125.26c-.61-.57-.92-1.29-.92-2.14s.31-1.57.92-2.14c.61-.57,1.37-.86,2.28-.86s1.67.27,2.28.82.92,1.23.92,2.06c0,.88-.3,1.62-.9,2.22s-1.37.9-2.3.9-1.67-.29-2.28-.86Zm-.24,4.38h5v21.36h-5v-21.36Z" style="fill: #fff;"/>
        <path d="m870.8,149.84c-.59.48-1.3.84-2.14,1.08s-1.73.36-2.66.36c-2.35,0-4.16-.61-5.44-1.84-1.28-1.23-1.92-3.01-1.92-5.36v-10.28h-3.52v-4h3.52v-4.88h5v4.88h5.72v4h-5.72v10.16c0,1.04.25,1.83.76,2.38.51.55,1.24.82,2.2.82,1.12,0,2.05-.29,2.8-.88l1.4,3.56Z" style="fill: #fff;"/>
        <path d="m877.96,149.88c-1.73-.93-3.09-2.23-4.06-3.9-.97-1.67-1.46-3.55-1.46-5.66s.49-3.99,1.46-5.64c.97-1.65,2.33-2.95,4.06-3.88,1.73-.93,3.68-1.4,5.84-1.4s4.15.47,5.88,1.4c1.73.93,3.09,2.23,4.06,3.88.97,1.65,1.46,3.53,1.46,5.64s-.49,3.99-1.46,5.66c-.97,1.67-2.33,2.97-4.06,3.9-1.73.93-3.69,1.4-5.88,1.4s-4.11-.47-5.84-1.4Zm10.4-4.72c1.2-1.23,1.8-2.84,1.8-4.84s-.6-3.61-1.8-4.84-2.72-1.84-4.56-1.84-3.35.61-4.54,1.84-1.78,2.84-1.78,4.84.59,3.61,1.78,4.84,2.7,1.84,4.54,1.84,3.36-.61,4.56-1.84Z" style="fill: #fff;"/>
        <path d="m912.36,129.4v4.76c-.43-.08-.81-.12-1.16-.12-1.95,0-3.47.57-4.56,1.7-1.09,1.13-1.64,2.77-1.64,4.9v10.36h-5v-21.36h4.76v3.12c1.44-2.24,3.97-3.36,7.6-3.36Z" style="fill: #fff;"/>
      </g>
      <g>
        <path d="m365.12,393.54c-2.28-1.24-4.07-2.95-5.36-5.14-1.29-2.19-1.94-4.65-1.94-7.4s.65-5.21,1.96-7.4c1.31-2.19,3.1-3.9,5.38-5.14,2.28-1.24,4.83-1.86,7.66-1.86,2.29,0,4.39.4,6.28,1.2,1.89.8,3.49,1.96,4.8,3.48l-3.36,3.16c-2.03-2.19-4.52-3.28-7.48-3.28-1.92,0-3.64.42-5.16,1.26s-2.71,2.01-3.56,3.5c-.85,1.49-1.28,3.19-1.28,5.08s.43,3.59,1.28,5.08c.85,1.49,2.04,2.66,3.56,3.5s3.24,1.26,5.16,1.26c2.96,0,5.45-1.11,7.48-3.32l3.36,3.2c-1.31,1.52-2.91,2.68-4.82,3.48-1.91.8-4.01,1.2-6.3,1.2-2.83,0-5.38-.62-7.66-1.86Z" style="fill: #fff;"/>
        <path d="m391.38,393.88c-1.73-.93-3.09-2.23-4.06-3.9-.97-1.67-1.46-3.55-1.46-5.66s.49-3.99,1.46-5.64c.97-1.65,2.33-2.95,4.06-3.88,1.73-.93,3.68-1.4,5.84-1.4s4.15.47,5.88,1.4c1.73.93,3.09,2.23,4.06,3.88.97,1.65,1.46,3.53,1.46,5.64s-.49,3.99-1.46,5.66c-.97,1.67-2.33,2.97-4.06,3.9-1.73.93-3.69,1.4-5.88,1.4s-4.11-.47-5.84-1.4Zm10.4-4.72c1.2-1.23,1.8-2.84,1.8-4.84s-.6-3.61-1.8-4.84c-1.2-1.23-2.72-1.84-4.56-1.84s-3.35.61-4.54,1.84-1.78,2.84-1.78,4.84.59,3.61,1.78,4.84,2.7,1.84,4.54,1.84,3.36-.61,4.56-1.84Z" style="fill: #fff;"/>
        <path d="m425.78,373.4v4.76c-.43-.08-.81-.12-1.16-.12-1.95,0-3.47.57-4.56,1.7-1.09,1.13-1.64,2.77-1.64,4.9v10.36h-5v-21.36h4.76v3.12c1.44-2.24,3.97-3.36,7.6-3.36Z" style="fill: #fff;"/>
        <path d="m449.82,385.92h-16.76c.29,1.57,1.06,2.82,2.3,3.74,1.24.92,2.78,1.38,4.62,1.38,2.35,0,4.28-.77,5.8-2.32l2.68,3.08c-.96,1.15-2.17,2.01-3.64,2.6-1.47.59-3.12.88-4.96.88-2.35,0-4.41-.47-6.2-1.4-1.79-.93-3.17-2.23-4.14-3.9-.97-1.67-1.46-3.55-1.46-5.66s.47-3.95,1.42-5.62c.95-1.67,2.26-2.97,3.94-3.9,1.68-.93,3.57-1.4,5.68-1.4s3.94.46,5.58,1.38c1.64.92,2.92,2.21,3.84,3.88.92,1.67,1.38,3.59,1.38,5.78,0,.35-.03.84-.08,1.48Zm-14.78-7.1c-1.11.95-1.78,2.21-2.02,3.78h12.12c-.21-1.55-.87-2.8-1.96-3.76-1.09-.96-2.45-1.44-4.08-1.44s-2.95.47-4.06,1.42Z" style="fill: #fff;"/>
        <path d="m471.52,393.54c-2.28-1.24-4.07-2.95-5.36-5.14-1.29-2.19-1.94-4.65-1.94-7.4s.65-5.21,1.96-7.4c1.31-2.19,3.1-3.9,5.38-5.14,2.28-1.24,4.83-1.86,7.66-1.86,2.29,0,4.39.4,6.28,1.2,1.89.8,3.49,1.96,4.8,3.48l-3.36,3.16c-2.03-2.19-4.52-3.28-7.48-3.28-1.92,0-3.64.42-5.16,1.26s-2.71,2.01-3.56,3.5c-.85,1.49-1.28,3.19-1.28,5.08s.43,3.59,1.28,5.08c.85,1.49,2.04,2.66,3.56,3.5s3.24,1.26,5.16,1.26c2.96,0,5.45-1.11,7.48-3.32l3.36,3.2c-1.31,1.52-2.91,2.68-4.82,3.48-1.91.8-4.01,1.2-6.3,1.2-2.83,0-5.38-.62-7.66-1.86Z" style="fill: #fff;"/>
        <path d="m497.78,393.88c-1.73-.93-3.09-2.23-4.06-3.9-.97-1.67-1.46-3.55-1.46-5.66s.49-3.99,1.46-5.64c.97-1.65,2.33-2.95,4.06-3.88,1.73-.93,3.68-1.4,5.84-1.4s4.15.47,5.88,1.4c1.73.93,3.09,2.23,4.06,3.88.97,1.65,1.46,3.53,1.46,5.64s-.49,3.99-1.46,5.66c-.97,1.67-2.33,2.97-4.06,3.9-1.73.93-3.69,1.4-5.88,1.4s-4.11-.47-5.84-1.4Zm10.4-4.72c1.2-1.23,1.8-2.84,1.8-4.84s-.6-3.61-1.8-4.84c-1.2-1.23-2.72-1.84-4.56-1.84s-3.35.61-4.54,1.84-1.78,2.84-1.78,4.84.59,3.61,1.78,4.84,2.7,1.84,4.54,1.84,3.36-.61,4.56-1.84Z" style="fill: #fff;"/>
        <path d="m538.42,375.76c1.63,1.57,2.44,3.91,2.44,7v12.24h-5v-11.6c0-1.87-.44-3.27-1.32-4.22-.88-.95-2.13-1.42-3.76-1.42-1.84,0-3.29.55-4.36,1.66-1.07,1.11-1.6,2.7-1.6,4.78v10.8h-5v-21.36h4.76v2.76c.83-.99,1.87-1.73,3.12-2.24,1.25-.51,2.67-.76,4.24-.76,2.69,0,4.85.79,6.48,2.36Z" style="fill: #fff;"/>
        <path d="m560.06,393.84c-.59.48-1.3.84-2.14,1.08s-1.73.36-2.66.36c-2.35,0-4.16-.61-5.44-1.84-1.28-1.23-1.92-3.01-1.92-5.36v-10.28h-3.52v-4h3.52v-4.88h5v4.88h5.72v4h-5.72v10.16c0,1.04.25,1.83.76,2.38.51.55,1.24.82,2.2.82,1.12,0,2.05-.29,2.8-.88l1.4,3.56Z" style="fill: #fff;"/>
        <path d="m583.46,385.92h-16.76c.29,1.57,1.06,2.82,2.3,3.74,1.24.92,2.78,1.38,4.62,1.38,2.35,0,4.28-.77,5.8-2.32l2.68,3.08c-.96,1.15-2.17,2.01-3.64,2.6-1.47.59-3.12.88-4.96.88-2.35,0-4.41-.47-6.2-1.4-1.79-.93-3.17-2.23-4.14-3.9-.97-1.67-1.46-3.55-1.46-5.66s.47-3.95,1.42-5.62c.95-1.67,2.26-2.97,3.94-3.9,1.68-.93,3.57-1.4,5.68-1.4s3.94.46,5.58,1.38c1.64.92,2.92,2.21,3.84,3.88.92,1.67,1.38,3.59,1.38,5.78,0,.35-.03.84-.08,1.48Zm-14.78-7.1c-1.11.95-1.78,2.21-2.02,3.78h12.12c-.21-1.55-.87-2.8-1.96-3.76-1.09-.96-2.45-1.44-4.08-1.44s-2.95.47-4.06,1.42Z" style="fill: #fff;"/>
        <path d="m601.34,395l-5.48-7.4-5.52,7.4h-5.52l8.32-10.84-7.96-10.52h5.56l5.24,7,5.24-7h5.4l-8,10.44,8.36,10.92h-5.64Z" style="fill: #fff;"/>
        <path d="m623.5,393.84c-.59.48-1.3.84-2.14,1.08s-1.73.36-2.66.36c-2.35,0-4.16-.61-5.44-1.84-1.28-1.23-1.92-3.01-1.92-5.36v-10.28h-3.52v-4h3.52v-4.88h5v4.88h5.72v4h-5.72v10.16c0,1.04.25,1.83.76,2.38.51.55,1.24.82,2.2.82,1.12,0,2.05-.29,2.8-.88l1.4,3.56Z" style="fill: #fff;"/>
        <path d="m664.86,395l-.04-18.56-9.2,15.36h-2.32l-9.2-15.12v18.32h-4.96v-28h4.28l11.12,18.56,10.92-18.56h4.28l.04,28h-4.92Z" style="fill: #fff;"/>
        <path d="m692.24,375.66c1.67,1.51,2.5,3.78,2.5,6.82v12.52h-4.72v-2.6c-.61.93-1.49,1.65-2.62,2.14s-2.5.74-4.1.74-3-.27-4.2-.82-2.13-1.31-2.78-2.28c-.65-.97-.98-2.07-.98-3.3,0-1.92.71-3.46,2.14-4.62s3.67-1.74,6.74-1.74h5.52v-.32c0-1.49-.45-2.64-1.34-3.44s-2.22-1.2-3.98-1.2c-1.2,0-2.38.19-3.54.56-1.16.37-2.14.89-2.94,1.56l-1.96-3.64c1.12-.85,2.47-1.51,4.04-1.96,1.57-.45,3.24-.68,5-.68,3.15,0,5.55.75,7.22,2.26Zm-4.56,15.12c.97-.57,1.66-1.39,2.06-2.46v-2.48h-5.16c-2.88,0-4.32.95-4.32,2.84,0,.91.36,1.63,1.08,2.16.72.53,1.72.8,3,.8s2.37-.29,3.34-.86Z" style="fill: #fff;"/>
        <path d="m719.74,375.76c1.63,1.57,2.44,3.91,2.44,7v12.24h-5v-11.6c0-1.87-.44-3.27-1.32-4.22-.88-.95-2.13-1.42-3.76-1.42-1.84,0-3.29.55-4.36,1.66-1.07,1.11-1.6,2.7-1.6,4.78v10.8h-5v-21.36h4.76v2.76c.83-.99,1.87-1.73,3.12-2.24,1.25-.51,2.67-.76,4.24-.76,2.69,0,4.85.79,6.48,2.36Z" style="fill: #fff;"/>
        <path d="m743.92,375.66c1.67,1.51,2.5,3.78,2.5,6.82v12.52h-4.72v-2.6c-.61.93-1.49,1.65-2.62,2.14s-2.5.74-4.1.74-3-.27-4.2-.82-2.13-1.31-2.78-2.28c-.65-.97-.98-2.07-.98-3.3,0-1.92.71-3.46,2.14-4.62s3.67-1.74,6.74-1.74h5.52v-.32c0-1.49-.45-2.64-1.34-3.44s-2.22-1.2-3.98-1.2c-1.2,0-2.38.19-3.54.56-1.16.37-2.14.89-2.94,1.56l-1.96-3.64c1.12-.85,2.47-1.51,4.04-1.96,1.57-.45,3.24-.68,5-.68,3.15,0,5.55.75,7.22,2.26Zm-4.56,15.12c.97-.57,1.66-1.39,2.06-2.46v-2.48h-5.16c-2.88,0-4.32.95-4.32,2.84,0,.91.36,1.63,1.08,2.16.72.53,1.72.8,3,.8s2.37-.29,3.34-.86Z" style="fill: #fff;"/>
        <path d="m774.22,373.64v18.12c0,7.52-3.84,11.28-11.52,11.28-2.05,0-4-.26-5.84-.78-1.84-.52-3.36-1.27-4.56-2.26l2.24-3.76c.93.77,2.11,1.39,3.54,1.86,1.43.47,2.87.7,4.34.7,2.35,0,4.07-.53,5.16-1.6,1.09-1.07,1.64-2.69,1.64-4.88v-1.12c-.85.93-1.89,1.64-3.12,2.12-1.23.48-2.57.72-4.04.72-2.03,0-3.86-.43-5.5-1.3-1.64-.87-2.93-2.09-3.88-3.66s-1.42-3.37-1.42-5.4.47-3.82,1.42-5.38c.95-1.56,2.24-2.77,3.88-3.62,1.64-.85,3.47-1.28,5.5-1.28,1.55,0,2.95.25,4.22.76,1.27.51,2.33,1.28,3.18,2.32v-2.84h4.76Zm-6.74,14.46c1.21-1.13,1.82-2.61,1.82-4.42s-.61-3.24-1.82-4.36c-1.21-1.12-2.77-1.68-4.66-1.68s-3.49.56-4.7,1.68c-1.21,1.12-1.82,2.57-1.82,4.36s.61,3.29,1.82,4.42c1.21,1.13,2.78,1.7,4.7,1.7s3.45-.57,4.66-1.7Z" style="fill: #fff;"/>
        <path d="m800.78,385.92h-16.76c.29,1.57,1.06,2.82,2.3,3.74,1.24.92,2.78,1.38,4.62,1.38,2.35,0,4.28-.77,5.8-2.32l2.68,3.08c-.96,1.15-2.17,2.01-3.64,2.6s-3.12.88-4.96.88c-2.35,0-4.41-.47-6.2-1.4-1.79-.93-3.17-2.23-4.14-3.9-.97-1.67-1.46-3.55-1.46-5.66s.47-3.95,1.42-5.62c.95-1.67,2.26-2.97,3.94-3.9,1.68-.93,3.57-1.4,5.68-1.4s3.94.46,5.58,1.38,2.92,2.21,3.84,3.88c.92,1.67,1.38,3.59,1.38,5.78,0,.35-.03.84-.08,1.48Zm-14.78-7.1c-1.11.95-1.78,2.21-2.02,3.78h12.12c-.21-1.55-.87-2.8-1.96-3.76-1.09-.96-2.45-1.44-4.08-1.44s-2.95.47-4.06,1.42Z" style="fill: #fff;"/>
        <path d="m839.02,375.74c1.57,1.56,2.36,3.9,2.36,7.02v12.24h-5v-11.6c0-1.87-.41-3.27-1.24-4.22-.83-.95-2.01-1.42-3.56-1.42-1.68,0-3.03.55-4.04,1.66-1.01,1.11-1.52,2.69-1.52,4.74v10.84h-5v-11.6c0-1.87-.41-3.27-1.24-4.22-.83-.95-2.01-1.42-3.56-1.42-1.71,0-3.06.55-4.06,1.64s-1.5,2.68-1.5,4.76v10.84h-5v-21.36h4.76v2.72c.8-.96,1.8-1.69,3-2.2s2.53-.76,4-.76c1.6,0,3.02.3,4.26.9,1.24.6,2.22,1.49,2.94,2.66.88-1.12,2.01-1.99,3.4-2.62,1.39-.63,2.92-.94,4.6-.94,2.69,0,4.83.78,6.4,2.34Z" style="fill: #fff;"/>
        <path d="m867.98,385.92h-16.76c.29,1.57,1.06,2.82,2.3,3.74,1.24.92,2.78,1.38,4.62,1.38,2.35,0,4.28-.77,5.8-2.32l2.68,3.08c-.96,1.15-2.17,2.01-3.64,2.6s-3.12.88-4.96.88c-2.35,0-4.41-.47-6.2-1.4-1.79-.93-3.17-2.23-4.14-3.9-.97-1.67-1.46-3.55-1.46-5.66s.47-3.95,1.42-5.62c.95-1.67,2.26-2.97,3.94-3.9,1.68-.93,3.57-1.4,5.68-1.4s3.94.46,5.58,1.38,2.92,2.21,3.84,3.88c.92,1.67,1.38,3.59,1.38,5.78,0,.35-.03.84-.08,1.48Zm-14.78-7.1c-1.11.95-1.78,2.21-2.02,3.78h12.12c-.21-1.55-.87-2.8-1.96-3.76-1.09-.96-2.45-1.44-4.08-1.44s-2.95.47-4.06,1.42Z" style="fill: #fff;"/>
        <path d="m891.46,375.76c1.63,1.57,2.44,3.91,2.44,7v12.24h-5v-11.6c0-1.87-.44-3.27-1.32-4.22-.88-.95-2.13-1.42-3.76-1.42-1.84,0-3.29.55-4.36,1.66-1.07,1.11-1.6,2.7-1.6,4.78v10.8h-5v-21.36h4.76v2.76c.83-.99,1.87-1.73,3.12-2.24,1.25-.51,2.67-.76,4.24-.76,2.69,0,4.85.79,6.48,2.36Z" style="fill: #fff;"/>
        <path d="m913.1,393.84c-.59.48-1.3.84-2.14,1.08s-1.73.36-2.66.36c-2.35,0-4.16-.61-5.44-1.84-1.28-1.23-1.92-3.01-1.92-5.36v-10.28h-3.52v-4h3.52v-4.88h5v4.88h5.72v4h-5.72v10.16c0,1.04.25,1.83.76,2.38.51.55,1.24.82,2.2.82,1.12,0,2.05-.29,2.8-.88l1.4,3.56Z" style="fill: #fff;"/>
        <path d="m469.96,450.32c-.84-3.2-1.26-6.63-1.26-10.28s.42-7.09,1.26-10.3c.84-3.21,2.05-6.02,3.62-8.42h4.76c-1.63,2.88-2.82,5.85-3.58,8.9-.76,3.05-1.14,6.33-1.14,9.82s.38,6.77,1.14,9.82c.76,3.05,1.95,6.02,3.58,8.9h-4.76c-1.57-2.43-2.78-5.24-3.62-8.44Z" style="fill: #fff;"/>
        <path d="m488.28,449.54c-2.28-1.24-4.07-2.95-5.36-5.14-1.29-2.19-1.94-4.65-1.94-7.4s.65-5.21,1.96-7.4c1.31-2.19,3.1-3.9,5.38-5.14,2.28-1.24,4.83-1.86,7.66-1.86,2.29,0,4.39.4,6.28,1.2,1.89.8,3.49,1.96,4.8,3.48l-3.36,3.16c-2.03-2.19-4.52-3.28-7.48-3.28-1.92,0-3.64.42-5.16,1.26s-2.71,2.01-3.56,3.5c-.85,1.49-1.28,3.19-1.28,5.08s.43,3.59,1.28,5.08c.85,1.49,2.04,2.66,3.56,3.5s3.24,1.26,5.16,1.26c2.96,0,5.45-1.11,7.48-3.32l3.36,3.2c-1.31,1.52-2.91,2.68-4.82,3.48-1.91.8-4.01,1.2-6.3,1.2-2.83,0-5.38-.62-7.66-1.86Z" style="fill: #fff;"/>
        <path d="m514.54,449.88c-1.73-.93-3.09-2.23-4.06-3.9-.97-1.67-1.46-3.55-1.46-5.66s.49-3.99,1.46-5.64c.97-1.65,2.33-2.95,4.06-3.88,1.73-.93,3.68-1.4,5.84-1.4s4.15.47,5.88,1.4c1.73.93,3.09,2.23,4.06,3.88.97,1.65,1.46,3.53,1.46,5.64s-.49,3.99-1.46,5.66c-.97,1.67-2.33,2.97-4.06,3.9-1.73.93-3.69,1.4-5.88,1.4s-4.11-.47-5.84-1.4Zm10.4-4.72c1.2-1.23,1.8-2.84,1.8-4.84s-.6-3.61-1.8-4.84c-1.2-1.23-2.72-1.84-4.56-1.84s-3.35.61-4.54,1.84-1.78,2.84-1.78,4.84.59,3.61,1.78,4.84,2.7,1.84,4.54,1.84,3.36-.61,4.56-1.84Z" style="fill: #fff;"/>
        <path d="m555.18,431.76c1.63,1.57,2.44,3.91,2.44,7v12.24h-5v-11.6c0-1.87-.44-3.27-1.32-4.22-.88-.95-2.13-1.42-3.76-1.42-1.84,0-3.29.55-4.36,1.66-1.07,1.11-1.6,2.7-1.6,4.78v10.8h-5v-21.36h4.76v2.76c.83-.99,1.87-1.73,3.12-2.24,1.25-.51,2.67-.76,4.24-.76,2.69,0,4.85.79,6.48,2.36Z" style="fill: #fff;"/>
        <path d="m576.82,449.84c-.59.48-1.3.84-2.14,1.08s-1.73.36-2.66.36c-2.35,0-4.16-.61-5.44-1.84-1.28-1.23-1.92-3.01-1.92-5.36v-10.28h-3.52v-4h3.52v-4.88h5v4.88h5.72v4h-5.72v10.16c0,1.04.25,1.83.76,2.38.51.55,1.24.82,2.2.82,1.12,0,2.05-.29,2.8-.88l1.4,3.56Z" style="fill: #fff;"/>
        <path d="m600.22,441.92h-16.76c.29,1.57,1.06,2.82,2.3,3.74,1.24.92,2.78,1.38,4.62,1.38,2.35,0,4.28-.77,5.8-2.32l2.68,3.08c-.96,1.15-2.17,2.01-3.64,2.6-1.47.59-3.12.88-4.96.88-2.35,0-4.41-.47-6.2-1.4-1.79-.93-3.17-2.23-4.14-3.9-.97-1.67-1.46-3.55-1.46-5.66s.47-3.95,1.42-5.62c.95-1.67,2.26-2.97,3.94-3.9,1.68-.93,3.57-1.4,5.68-1.4s3.94.46,5.58,1.38c1.64.92,2.92,2.21,3.84,3.88.92,1.67,1.38,3.59,1.38,5.78,0,.35-.03.84-.08,1.48Zm-14.78-7.1c-1.11.95-1.78,2.21-2.02,3.78h12.12c-.21-1.55-.87-2.8-1.96-3.76-1.09-.96-2.45-1.44-4.08-1.44s-2.95.47-4.06,1.42Z" style="fill: #fff;"/>
        <path d="m618.1,451l-5.48-7.4-5.52,7.4h-5.52l8.32-10.84-7.96-10.52h5.56l5.24,7,5.24-7h5.4l-8,10.44,8.36,10.92h-5.64Z" style="fill: #fff;"/>
        <path d="m640.26,449.84c-.59.48-1.3.84-2.14,1.08s-1.73.36-2.66.36c-2.35,0-4.16-.61-5.44-1.84-1.28-1.23-1.92-3.01-1.92-5.36v-10.28h-3.52v-4h3.52v-4.88h5v4.88h5.72v4h-5.72v10.16c0,1.04.25,1.83.76,2.38.51.55,1.24.82,2.2.82,1.12,0,2.05-.29,2.8-.88l1.4,3.56Z" style="fill: #fff;"/>
        <path d="m679.42,438.98c.91,1.19,1.36,2.66,1.36,4.42,0,2.43-.93,4.3-2.8,5.62-1.87,1.32-4.59,1.98-8.16,1.98h-13.92v-28h13.12c3.31,0,5.85.65,7.64,1.94,1.79,1.29,2.68,3.07,2.68,5.34,0,1.39-.32,2.61-.96,3.68-.64,1.07-1.52,1.89-2.64,2.48,1.55.51,2.77,1.35,3.68,2.54Zm-18.32-11.9v7.72h7.36c1.81,0,3.21-.33,4.18-.98.97-.65,1.46-1.61,1.46-2.86s-.49-2.25-1.46-2.9c-.97-.65-2.37-.98-4.18-.98h-7.36Zm14.44,15.8c0-2.69-2.01-4.04-6.04-4.04h-8.4v8.08h8.4c4.03,0,6.04-1.35,6.04-4.04Z" style="fill: #fff;"/>
        <path d="m698.22,429.4v4.76c-.43-.08-.81-.12-1.16-.12-1.95,0-3.47.57-4.56,1.7-1.09,1.13-1.64,2.77-1.64,4.9v10.36h-5v-21.36h4.76v3.12c1.44-2.24,3.97-3.36,7.6-3.36Z" style="fill: #fff;"/>
        <path d="m706.02,449.88c-1.73-.93-3.09-2.23-4.06-3.9-.97-1.67-1.46-3.55-1.46-5.66s.49-3.99,1.46-5.64c.97-1.65,2.33-2.95,4.06-3.88,1.73-.93,3.68-1.4,5.84-1.4s4.15.47,5.88,1.4c1.73.93,3.09,2.23,4.06,3.88.97,1.65,1.46,3.53,1.46,5.64s-.49,3.99-1.46,5.66c-.97,1.67-2.33,2.97-4.06,3.9-1.73.93-3.69,1.4-5.88,1.4s-4.11-.47-5.84-1.4Zm10.4-4.72c1.2-1.23,1.8-2.84,1.8-4.84s-.6-3.61-1.8-4.84-2.72-1.84-4.56-1.84-3.35.61-4.54,1.84-1.78,2.84-1.78,4.84.59,3.61,1.78,4.84,2.7,1.84,4.54,1.84,3.36-.61,4.56-1.84Z" style="fill: #fff;"/>
        <path d="m736.78,441.84l-3.72,3.52v5.64h-5v-29.68h5v17.92l10.36-9.6h6l-8.92,8.96,9.76,12.4h-6.08l-7.4-9.16Z" style="fill: #fff;"/>
        <path d="m772.62,441.92h-16.76c.29,1.57,1.06,2.82,2.3,3.74,1.24.92,2.78,1.38,4.62,1.38,2.35,0,4.28-.77,5.8-2.32l2.68,3.08c-.96,1.15-2.17,2.01-3.64,2.6s-3.12.88-4.96.88c-2.35,0-4.41-.47-6.2-1.4-1.79-.93-3.17-2.23-4.14-3.9-.97-1.67-1.46-3.55-1.46-5.66s.47-3.95,1.42-5.62c.95-1.67,2.26-2.97,3.94-3.9,1.68-.93,3.57-1.4,5.68-1.4s3.94.46,5.58,1.38,2.92,2.21,3.84,3.88c.92,1.67,1.38,3.59,1.38,5.78,0,.35-.03.84-.08,1.48Zm-14.78-7.1c-1.11.95-1.78,2.21-2.02,3.78h12.12c-.21-1.55-.87-2.8-1.96-3.76-1.09-.96-2.45-1.44-4.08-1.44s-2.95.47-4.06,1.42Z" style="fill: #fff;"/>
        <path d="m789.86,429.4v4.76c-.43-.08-.81-.12-1.16-.12-1.95,0-3.47.57-4.56,1.7-1.09,1.13-1.64,2.77-1.64,4.9v10.36h-5v-21.36h4.76v3.12c1.44-2.24,3.97-3.36,7.6-3.36Z" style="fill: #fff;"/>
        <path d="m791.62,458.76c1.63-2.88,2.83-5.85,3.6-8.92s1.16-6.33,1.16-9.8-.39-6.73-1.16-9.8-1.97-6.04-3.6-8.92h4.76c1.57,2.37,2.78,5.17,3.62,8.38.84,3.21,1.26,6.66,1.26,10.34s-.42,7.11-1.26,10.3-2.05,5.99-3.62,8.42h-4.76Z" style="fill: #fff;"/>
      </g>
      <g>
        <path d="m384.44,667h5.2v28h-5.2v-28Z" style="fill: #fff;"/>
        <path d="m415.32,675.76c1.63,1.57,2.44,3.91,2.44,7v12.24h-5v-11.6c0-1.87-.44-3.27-1.32-4.22-.88-.95-2.13-1.42-3.76-1.42-1.84,0-3.29.55-4.36,1.66-1.07,1.11-1.6,2.7-1.6,4.78v10.8h-5v-21.36h4.76v2.76c.83-.99,1.87-1.73,3.12-2.24,1.25-.51,2.67-.76,4.24-.76,2.69,0,4.85.79,6.48,2.36Z" style="fill: #fff;"/>
        <path d="m436.96,693.84c-.59.48-1.3.84-2.14,1.08s-1.73.36-2.66.36c-2.35,0-4.16-.61-5.44-1.84-1.28-1.23-1.92-3.01-1.92-5.36v-10.28h-3.52v-4h3.52v-4.88h5v4.88h5.72v4h-5.72v10.16c0,1.04.25,1.83.76,2.38.51.55,1.24.82,2.2.82,1.12,0,2.05-.29,2.8-.88l1.4,3.56Z" style="fill: #fff;"/>
        <path d="m460.36,685.92h-16.76c.29,1.57,1.06,2.82,2.3,3.74,1.24.92,2.78,1.38,4.62,1.38,2.35,0,4.28-.77,5.8-2.32l2.68,3.08c-.96,1.15-2.17,2.01-3.64,2.6-1.47.59-3.12.88-4.96.88-2.35,0-4.41-.47-6.2-1.4-1.79-.93-3.17-2.23-4.14-3.9-.97-1.67-1.46-3.55-1.46-5.66s.47-3.95,1.42-5.62c.95-1.67,2.26-2.97,3.94-3.9,1.68-.93,3.57-1.4,5.68-1.4s3.94.46,5.58,1.38c1.64.92,2.92,2.21,3.84,3.88.92,1.67,1.38,3.59,1.38,5.78,0,.35-.03.84-.08,1.48Zm-14.78-7.1c-1.11.95-1.78,2.21-2.02,3.78h12.12c-.21-1.55-.87-2.8-1.96-3.76-1.09-.96-2.45-1.44-4.08-1.44s-2.95.47-4.06,1.42Z" style="fill: #fff;"/>
        <path d="m477.6,673.4v4.76c-.43-.08-.81-.12-1.16-.12-1.95,0-3.47.57-4.56,1.7-1.09,1.13-1.64,2.77-1.64,4.9v10.36h-5v-21.36h4.76v3.12c1.44-2.24,3.97-3.36,7.6-3.36Z" style="fill: #fff;"/>
        <path d="m487.56,672.52v1.28h5.88v4h-5.72v17.2h-5v-17.2h-3.52v-4h3.52v-1.36c0-2.29.67-4.1,2-5.42,1.33-1.32,3.21-1.98,5.64-1.98,1.92,0,3.43.39,4.52,1.16l-1.4,3.76c-.85-.59-1.77-.88-2.76-.88-2.11,0-3.16,1.15-3.16,3.44Z" style="fill: #fff;"/>
        <path d="m511.78,675.66c1.67,1.51,2.5,3.78,2.5,6.82v12.52h-4.72v-2.6c-.61.93-1.49,1.65-2.62,2.14-1.13.49-2.5.74-4.1.74s-3-.27-4.2-.82-2.13-1.31-2.78-2.28c-.65-.97-.98-2.07-.98-3.3,0-1.92.71-3.46,2.14-4.62,1.43-1.16,3.67-1.74,6.74-1.74h5.52v-.32c0-1.49-.45-2.64-1.34-3.44-.89-.8-2.22-1.2-3.98-1.2-1.2,0-2.38.19-3.54.56-1.16.37-2.14.89-2.94,1.56l-1.96-3.64c1.12-.85,2.47-1.51,4.04-1.96,1.57-.45,3.24-.68,5-.68,3.15,0,5.55.75,7.22,2.26Zm-4.56,15.12c.97-.57,1.66-1.39,2.06-2.46v-2.48h-5.16c-2.88,0-4.32.95-4.32,2.84,0,.91.36,1.63,1.08,2.16.72.53,1.72.8,3,.8s2.37-.29,3.34-.86Z" style="fill: #fff;"/>
        <path d="m524.72,693.88c-1.76-.93-3.13-2.23-4.12-3.9-.99-1.67-1.48-3.55-1.48-5.66s.49-3.99,1.48-5.64c.99-1.65,2.35-2.95,4.1-3.88,1.75-.93,3.74-1.4,5.98-1.4,2.11,0,3.95.43,5.54,1.28,1.59.85,2.78,2.08,3.58,3.68l-3.84,2.24c-.61-.99-1.38-1.73-2.3-2.22-.92-.49-1.93-.74-3.02-.74-1.87,0-3.41.61-4.64,1.82-1.23,1.21-1.84,2.83-1.84,4.86s.61,3.65,1.82,4.86c1.21,1.21,2.77,1.82,4.66,1.82,1.09,0,2.1-.25,3.02-.74.92-.49,1.69-1.23,2.3-2.22l3.84,2.24c-.83,1.6-2.03,2.83-3.62,3.7-1.59.87-3.42,1.3-5.5,1.3-2.21,0-4.2-.47-5.96-1.4Z" style="fill: #fff;"/>
        <path d="m563.8,685.92h-16.76c.29,1.57,1.06,2.82,2.3,3.74,1.24.92,2.78,1.38,4.62,1.38,2.35,0,4.28-.77,5.8-2.32l2.68,3.08c-.96,1.15-2.17,2.01-3.64,2.6-1.47.59-3.12.88-4.96.88-2.35,0-4.41-.47-6.2-1.4-1.79-.93-3.17-2.23-4.14-3.9-.97-1.67-1.46-3.55-1.46-5.66s.47-3.95,1.42-5.62c.95-1.67,2.26-2.97,3.94-3.9,1.68-.93,3.57-1.4,5.68-1.4s3.94.46,5.58,1.38c1.64.92,2.92,2.21,3.84,3.88.92,1.67,1.38,3.59,1.38,5.78,0,.35-.03.84-.08,1.48Zm-14.78-7.1c-1.11.95-1.78,2.21-2.02,3.78h12.12c-.21-1.55-.87-2.8-1.96-3.76-1.09-.96-2.45-1.44-4.08-1.44s-2.95.47-4.06,1.42Z" style="fill: #fff;"/>
        <path d="m592.56,693.84c-.59.48-1.3.84-2.14,1.08s-1.73.36-2.66.36c-2.35,0-4.16-.61-5.44-1.84-1.28-1.23-1.92-3.01-1.92-5.36v-10.28h-3.52v-4h3.52v-4.88h5v4.88h5.72v4h-5.72v10.16c0,1.04.25,1.83.76,2.38.51.55,1.24.82,2.2.82,1.12,0,2.05-.29,2.8-.88l1.4,3.56Z" style="fill: #fff;"/>
        <path d="m599.72,693.88c-1.73-.93-3.09-2.23-4.06-3.9-.97-1.67-1.46-3.55-1.46-5.66s.49-3.99,1.46-5.64c.97-1.65,2.33-2.95,4.06-3.88,1.73-.93,3.68-1.4,5.84-1.4s4.15.47,5.88,1.4c1.73.93,3.09,2.23,4.06,3.88.97,1.65,1.46,3.53,1.46,5.64s-.49,3.99-1.46,5.66c-.97,1.67-2.33,2.97-4.06,3.9-1.73.93-3.69,1.4-5.88,1.4s-4.11-.47-5.84-1.4Zm10.4-4.72c1.2-1.23,1.8-2.84,1.8-4.84s-.6-3.61-1.8-4.84c-1.2-1.23-2.72-1.84-4.56-1.84s-3.35.61-4.54,1.84-1.78,2.84-1.78,4.84.59,3.61,1.78,4.84,2.7,1.84,4.54,1.84,3.36-.61,4.56-1.84Z" style="fill: #fff;"/>
        <path d="m633.28,667h5.2v28h-5.2v-28Z" style="fill: #fff;"/>
        <path d="m649.32,693.88c-1.73-.93-3.09-2.23-4.06-3.9-.97-1.67-1.46-3.55-1.46-5.66s.49-3.99,1.46-5.64c.97-1.65,2.33-2.95,4.06-3.88,1.73-.93,3.68-1.4,5.84-1.4s4.15.47,5.88,1.4c1.73.93,3.09,2.23,4.06,3.88.97,1.65,1.46,3.53,1.46,5.64s-.49,3.99-1.46,5.66c-.97,1.67-2.33,2.97-4.06,3.9-1.73.93-3.69,1.4-5.88,1.4s-4.11-.47-5.84-1.4Zm10.4-4.72c1.2-1.23,1.8-2.84,1.8-4.84s-.6-3.61-1.8-4.84c-1.2-1.23-2.72-1.84-4.56-1.84s-3.35.61-4.54,1.84-1.78,2.84-1.78,4.84.59,3.61,1.78,4.84,2.7,1.84,4.54,1.84,3.36-.61,4.56-1.84Z" style="fill: #fff;"/>
        <path d="m674.52,671.4h-9.28v-4.4h23.76v4.4h-9.28v23.6h-5.2v-23.6Z" style="fill: #fff;"/>
        <path d="m695.12,689.56c.61.61.92,1.41.92,2.4,0,.43-.06.87-.18,1.34-.12.47-.37,1.17-.74,2.1l-2.04,5.64h-3.24l1.6-6.12c-.59-.24-1.05-.62-1.38-1.14-.33-.52-.5-1.13-.5-1.82,0-.99.31-1.79.92-2.4.61-.61,1.39-.92,2.32-.92s1.71.31,2.32.92Z" style="fill: #fff;"/>
        <path d="m730.76,695l-5.72-8.2c-.24.03-.6.04-1.08.04h-6.32v8.16h-5.2v-28h11.52c2.43,0,4.54.4,6.34,1.2,1.8.8,3.18,1.95,4.14,3.44.96,1.49,1.44,3.27,1.44,5.32s-.51,3.92-1.54,5.44c-1.03,1.52-2.5,2.65-4.42,3.4l6.44,9.2h-5.6Zm-1.88-22.16c-1.17-.96-2.89-1.44-5.16-1.44h-6.08v11.16h6.08c2.27,0,3.99-.49,5.16-1.46,1.17-.97,1.76-2.35,1.76-4.14s-.59-3.16-1.76-4.12Z" style="fill: #fff;"/>
        <path d="m744.96,693.88c-1.73-.93-3.09-2.23-4.06-3.9-.97-1.67-1.46-3.55-1.46-5.66s.49-3.99,1.46-5.64c.97-1.65,2.33-2.95,4.06-3.88,1.73-.93,3.68-1.4,5.84-1.4s4.15.47,5.88,1.4c1.73.93,3.09,2.23,4.06,3.88.97,1.65,1.46,3.53,1.46,5.64s-.49,3.99-1.46,5.66c-.97,1.67-2.33,2.97-4.06,3.9-1.73.93-3.69,1.4-5.88,1.4s-4.11-.47-5.84-1.4Zm10.4-4.72c1.2-1.23,1.8-2.84,1.8-4.84s-.6-3.61-1.8-4.84c-1.2-1.23-2.72-1.84-4.56-1.84s-3.35.61-4.54,1.84-1.78,2.84-1.78,4.84.59,3.61,1.78,4.84,2.7,1.84,4.54,1.84,3.36-.61,4.56-1.84Z" style="fill: #fff;"/>
        <path d="m784.42,674.76c1.64.91,2.93,2.19,3.86,3.84.93,1.65,1.4,3.56,1.4,5.72s-.47,4.07-1.4,5.74c-.93,1.67-2.22,2.95-3.86,3.86-1.64.91-3.5,1.36-5.58,1.36-1.47,0-2.81-.25-4.02-.76-1.21-.51-2.23-1.27-3.06-2.28v2.76h-4.76v-29.68h5v10.92c.85-.93,1.86-1.64,3.02-2.12,1.16-.48,2.43-.72,3.82-.72,2.08,0,3.94.45,5.58,1.36Zm-1.6,14.4c1.19-1.23,1.78-2.84,1.78-4.84s-.59-3.61-1.78-4.84-2.7-1.84-4.54-1.84c-1.2,0-2.28.27-3.24.82-.96.55-1.72,1.33-2.28,2.34-.56,1.01-.84,2.19-.84,3.52s.28,2.51.84,3.52c.56,1.01,1.32,1.79,2.28,2.34.96.55,2.04.82,3.24.82,1.84,0,3.35-.61,4.54-1.84Z" style="fill: #fff;"/>
        <path d="m798.2,693.88c-1.73-.93-3.09-2.23-4.06-3.9-.97-1.67-1.46-3.55-1.46-5.66s.49-3.99,1.46-5.64c.97-1.65,2.33-2.95,4.06-3.88,1.73-.93,3.68-1.4,5.84-1.4s4.15.47,5.88,1.4c1.73.93,3.09,2.23,4.06,3.88.97,1.65,1.46,3.53,1.46,5.64s-.49,3.99-1.46,5.66c-.97,1.67-2.33,2.97-4.06,3.9-1.73.93-3.69,1.4-5.88,1.4s-4.11-.47-5.84-1.4Zm10.4-4.72c1.2-1.23,1.8-2.84,1.8-4.84s-.6-3.61-1.8-4.84c-1.2-1.23-2.72-1.84-4.56-1.84s-3.35.61-4.54,1.84-1.78,2.84-1.78,4.84.59,3.61,1.78,4.84,2.7,1.84,4.54,1.84,3.36-.61,4.56-1.84Z" style="fill: #fff;"/>
        <path d="m833.08,693.84c-.59.48-1.3.84-2.14,1.08s-1.73.36-2.66.36c-2.35,0-4.16-.61-5.44-1.84s-1.92-3.01-1.92-5.36v-10.28h-3.52v-4h3.52v-4.88h5v4.88h5.72v4h-5.72v10.16c0,1.04.25,1.83.76,2.38.51.55,1.24.82,2.2.82,1.12,0,2.05-.29,2.8-.88l1.4,3.56Z" style="fill: #fff;"/>
        <path d="m837.44,669.26c-.61-.57-.92-1.29-.92-2.14s.31-1.57.92-2.14,1.37-.86,2.28-.86,1.67.27,2.28.82c.61.55.92,1.23.92,2.06,0,.88-.3,1.62-.9,2.22-.6.6-1.37.9-2.3.9s-1.67-.29-2.28-.86Zm-.24,4.38h5v21.36h-5v-21.36Z" style="fill: #fff;"/>
        <path d="m852.6,693.88c-1.76-.93-3.13-2.23-4.12-3.9-.99-1.67-1.48-3.55-1.48-5.66s.49-3.99,1.48-5.64c.99-1.65,2.35-2.95,4.1-3.88,1.75-.93,3.74-1.4,5.98-1.4,2.11,0,3.95.43,5.54,1.28,1.59.85,2.78,2.08,3.58,3.68l-3.84,2.24c-.61-.99-1.38-1.73-2.3-2.22-.92-.49-1.93-.74-3.02-.74-1.87,0-3.41.61-4.64,1.82-1.23,1.21-1.84,2.83-1.84,4.86s.61,3.65,1.82,4.86c1.21,1.21,2.77,1.82,4.66,1.82,1.09,0,2.1-.25,3.02-.74.92-.49,1.69-1.23,2.3-2.22l3.84,2.24c-.83,1.6-2.03,2.83-3.62,3.7-1.59.87-3.42,1.3-5.5,1.3-2.21,0-4.2-.47-5.96-1.4Z" style="fill: #fff;"/>
        <path d="m873.52,694.6c-1.65-.45-2.97-1.03-3.96-1.72l1.92-3.8c.96.64,2.11,1.15,3.46,1.54s2.67.58,3.98.58c2.99,0,4.48-.79,4.48-2.36,0-.75-.38-1.27-1.14-1.56-.76-.29-1.98-.57-3.66-.84-1.76-.27-3.19-.57-4.3-.92-1.11-.35-2.07-.95-2.88-1.82-.81-.87-1.22-2.07-1.22-3.62,0-2.03.85-3.65,2.54-4.86,1.69-1.21,3.98-1.82,6.86-1.82,1.47,0,2.93.17,4.4.5,1.47.33,2.67.78,3.6,1.34l-1.92,3.8c-1.81-1.07-3.85-1.6-6.12-1.6-1.47,0-2.58.22-3.34.66-.76.44-1.14,1.02-1.14,1.74,0,.8.41,1.37,1.22,1.7.81.33,2.07.65,3.78.94,1.71.27,3.11.57,4.2.92s2.03.93,2.82,1.76c.79.83,1.18,2,1.18,3.52,0,2-.87,3.6-2.6,4.8-1.73,1.2-4.09,1.8-7.08,1.8-1.73,0-3.43-.23-5.08-.68Z" style="fill: #fff;"/>
        <path d="m409.52,731.66c1.67,1.51,2.5,3.78,2.5,6.82v12.52h-4.72v-2.6c-.61.93-1.49,1.65-2.62,2.14-1.13.49-2.5.74-4.1.74s-3-.27-4.2-.82-2.13-1.31-2.78-2.28c-.65-.97-.98-2.07-.98-3.3,0-1.92.71-3.46,2.14-4.62,1.43-1.16,3.67-1.74,6.74-1.74h5.52v-.32c0-1.49-.45-2.64-1.34-3.44-.89-.8-2.22-1.2-3.98-1.2-1.2,0-2.38.19-3.54.56-1.16.37-2.14.89-2.94,1.56l-1.96-3.64c1.12-.85,2.47-1.51,4.04-1.96,1.57-.45,3.24-.68,5-.68,3.15,0,5.55.75,7.22,2.26Zm-4.56,15.12c.97-.57,1.66-1.39,2.06-2.46v-2.48h-5.16c-2.88,0-4.32.95-4.32,2.84,0,.91.36,1.63,1.08,2.16.72.53,1.72.8,3,.8s2.37-.29,3.34-.86Z" style="fill: #fff;"/>
        <path d="m437.02,731.76c1.63,1.57,2.44,3.91,2.44,7v12.24h-5v-11.6c0-1.87-.44-3.27-1.32-4.22-.88-.95-2.13-1.42-3.76-1.42-1.84,0-3.29.55-4.36,1.66-1.07,1.11-1.6,2.7-1.6,4.78v10.8h-5v-21.36h4.76v2.76c.83-.99,1.87-1.73,3.12-2.24,1.25-.51,2.67-.76,4.24-.76,2.69,0,4.85.79,6.48,2.36Z" style="fill: #fff;"/>
        <path d="m466.94,721.32v29.68h-4.8v-2.76c-.83,1.01-1.85,1.77-3.06,2.28-1.21.51-2.55.76-4.02.76-2.05,0-3.9-.45-5.54-1.36-1.64-.91-2.93-2.19-3.86-3.86-.93-1.67-1.4-3.58-1.4-5.74s.47-4.07,1.4-5.72c.93-1.65,2.22-2.93,3.86-3.84,1.64-.91,3.49-1.36,5.54-1.36,1.41,0,2.71.24,3.88.72,1.17.48,2.17,1.2,3,2.16v-10.96h5Zm-8.04,24.86c.96-.55,1.72-1.33,2.28-2.34.56-1.01.84-2.19.84-3.52s-.28-2.51-.84-3.52c-.56-1.01-1.32-1.79-2.28-2.34-.96-.55-2.04-.82-3.24-.82s-2.28.27-3.24.82c-.96.55-1.72,1.33-2.28,2.34-.56,1.01-.84,2.19-.84,3.52s.28,2.51.84,3.52c.56,1.01,1.32,1.79,2.28,2.34.96.55,2.04.82,3.24.82s2.28-.27,3.24-.82Z" style="fill: #fff;"/>
        <path d="m497.38,749.84c-.59.48-1.3.84-2.14,1.08s-1.73.36-2.66.36c-2.35,0-4.16-.61-5.44-1.84-1.28-1.23-1.92-3.01-1.92-5.36v-10.28h-3.52v-4h3.52v-4.88h5v4.88h5.72v4h-5.72v10.16c0,1.04.25,1.83.76,2.38.51.55,1.24.82,2.2.82,1.12,0,2.05-.29,2.8-.88l1.4,3.56Z" style="fill: #fff;"/>
        <path d="m520.1,731.76c1.63,1.57,2.44,3.91,2.44,7v12.24h-5v-11.6c0-1.87-.44-3.27-1.32-4.22-.88-.95-2.13-1.42-3.76-1.42-1.84,0-3.29.55-4.36,1.66-1.07,1.11-1.6,2.7-1.6,4.78v10.8h-5v-29.68h5v10.8c.83-.88,1.85-1.55,3.06-2.02,1.21-.47,2.57-.7,4.06-.7,2.69,0,4.85.79,6.48,2.36Z" style="fill: #fff;"/>
        <path d="m529.14,725.26c-.61-.57-.92-1.29-.92-2.14s.31-1.57.92-2.14c.61-.57,1.37-.86,2.28-.86s1.67.27,2.28.82c.61.55.92,1.23.92,2.06,0,.88-.3,1.62-.9,2.22-.6.6-1.37.9-2.3.9s-1.67-.29-2.28-.86Zm-.24,4.38h5v21.36h-5v-21.36Z" style="fill: #fff;"/>
        <path d="m552.82,729.4v4.76c-.43-.08-.81-.12-1.16-.12-1.95,0-3.47.57-4.56,1.7-1.09,1.13-1.64,2.77-1.64,4.9v10.36h-5v-21.36h4.76v3.12c1.44-2.24,3.97-3.36,7.6-3.36Z" style="fill: #fff;"/>
        <path d="m577.78,721.32v29.68h-4.8v-2.76c-.83,1.01-1.85,1.77-3.06,2.28-1.21.51-2.55.76-4.02.76-2.05,0-3.9-.45-5.54-1.36-1.64-.91-2.93-2.19-3.86-3.86-.93-1.67-1.4-3.58-1.4-5.74s.47-4.07,1.4-5.72c.93-1.65,2.22-2.93,3.86-3.84,1.64-.91,3.49-1.36,5.54-1.36,1.41,0,2.71.24,3.88.72,1.17.48,2.17,1.2,3,2.16v-10.96h5Zm-8.04,24.86c.96-.55,1.72-1.33,2.28-2.34.56-1.01.84-2.19.84-3.52s-.28-2.51-.84-3.52c-.56-1.01-1.32-1.79-2.28-2.34-.96-.55-2.04-.82-3.24-.82s-2.28.27-3.24.82c-.96.55-1.72,1.33-2.28,2.34-.56,1.01-.84,2.19-.84,3.52s.28,2.51.84,3.52c.56,1.01,1.32,1.79,2.28,2.34.96.55,2.04.82,3.24.82s2.28-.27,3.24-.82Z" style="fill: #fff;"/>
        <path d="m612.8,730.76c1.64.91,2.93,2.19,3.86,3.84.93,1.65,1.4,3.56,1.4,5.72s-.47,4.07-1.4,5.74c-.93,1.67-2.22,2.95-3.86,3.86-1.64.91-3.5,1.36-5.58,1.36-2.88,0-5.16-.96-6.84-2.88v10.36h-5v-29.12h4.76v2.8c.83-1.01,1.85-1.77,3.06-2.28,1.21-.51,2.55-.76,4.02-.76,2.08,0,3.94.45,5.58,1.36Zm-1.6,14.4c1.19-1.23,1.78-2.84,1.78-4.84s-.59-3.61-1.78-4.84c-1.19-1.23-2.7-1.84-4.54-1.84-1.2,0-2.28.27-3.24.82-.96.55-1.72,1.33-2.28,2.34-.56,1.01-.84,2.19-.84,3.52s.28,2.51.84,3.52c.56,1.01,1.32,1.79,2.28,2.34.96.55,2.04.82,3.24.82,1.84,0,3.35-.61,4.54-1.84Z" style="fill: #fff;"/>
        <path d="m637.92,731.66c1.67,1.51,2.5,3.78,2.5,6.82v12.52h-4.72v-2.6c-.61.93-1.49,1.65-2.62,2.14-1.13.49-2.5.74-4.1.74s-3-.27-4.2-.82-2.13-1.31-2.78-2.28c-.65-.97-.98-2.07-.98-3.3,0-1.92.71-3.46,2.14-4.62,1.43-1.16,3.67-1.74,6.74-1.74h5.52v-.32c0-1.49-.45-2.64-1.34-3.44-.89-.8-2.22-1.2-3.98-1.2-1.2,0-2.38.19-3.54.56-1.16.37-2.14.89-2.94,1.56l-1.96-3.64c1.12-.85,2.47-1.51,4.04-1.96,1.57-.45,3.24-.68,5-.68,3.15,0,5.55.75,7.22,2.26Zm-4.56,15.12c.97-.57,1.66-1.39,2.06-2.46v-2.48h-5.16c-2.88,0-4.32.95-4.32,2.84,0,.91.36,1.63,1.08,2.16.72.53,1.72.8,3,.8s2.37-.29,3.34-.86Z" style="fill: #fff;"/>
        <path d="m659.18,729.4v4.76c-.43-.08-.81-.12-1.16-.12-1.95,0-3.47.57-4.56,1.7-1.09,1.13-1.64,2.77-1.64,4.9v10.36h-5v-21.36h4.76v3.12c1.44-2.24,3.97-3.36,7.6-3.36Z" style="fill: #fff;"/>
        <path d="m677.06,749.84c-.59.48-1.3.84-2.14,1.08s-1.73.36-2.66.36c-2.35,0-4.16-.61-5.44-1.84-1.28-1.23-1.92-3.01-1.92-5.36v-10.28h-3.52v-4h3.52v-4.88h5v4.88h5.72v4h-5.72v10.16c0,1.04.25,1.83.76,2.38.51.55,1.24.82,2.2.82,1.12,0,2.05-.29,2.8-.88l1.4,3.56Z" style="fill: #fff;"/>
        <path d="m700.78,729.64l-10,23.08c-.93,2.32-2.07,3.95-3.4,4.9-1.33.95-2.95,1.42-4.84,1.42-1.07,0-2.12-.17-3.16-.52s-1.89-.83-2.56-1.44l2-3.68c.48.45,1.05.81,1.7,1.08.65.27,1.31.4,1.98.4.88,0,1.61-.23,2.18-.68.57-.45,1.1-1.21,1.58-2.28l.36-.84-9.32-21.44h5.2l6.72,15.8,6.76-15.8h4.8Z" style="fill: #fff;"/>
        <path d="m716.46,750.6c-1.65-.45-2.97-1.03-3.96-1.72l1.92-3.8c.96.64,2.11,1.15,3.46,1.54s2.67.58,3.98.58c2.99,0,4.48-.79,4.48-2.36,0-.75-.38-1.27-1.14-1.56-.76-.29-1.98-.57-3.66-.84-1.76-.27-3.19-.57-4.3-.92-1.11-.35-2.07-.95-2.88-1.82-.81-.87-1.22-2.07-1.22-3.62,0-2.03.85-3.65,2.54-4.86,1.69-1.21,3.98-1.82,6.86-1.82,1.47,0,2.93.17,4.4.5,1.47.33,2.67.78,3.6,1.34l-1.92,3.8c-1.81-1.07-3.85-1.6-6.12-1.6-1.47,0-2.58.22-3.34.66-.76.44-1.14,1.02-1.14,1.74,0,.8.41,1.37,1.22,1.7.81.33,2.07.65,3.78.94,1.71.27,3.11.57,4.2.92s2.03.93,2.82,1.76c.79.83,1.18,2,1.18,3.52,0,2-.87,3.6-2.6,4.8-1.73,1.2-4.09,1.8-7.08,1.8-1.73,0-3.43-.23-5.08-.68Z" style="fill: #fff;"/>
        <path d="m755.14,729.64l-10,23.08c-.93,2.32-2.07,3.95-3.4,4.9-1.33.95-2.95,1.42-4.84,1.42-1.07,0-2.12-.17-3.16-.52s-1.89-.83-2.56-1.44l2-3.68c.48.45,1.05.81,1.7,1.08.65.27,1.31.4,1.98.4.88,0,1.61-.23,2.18-.68.57-.45,1.1-1.21,1.58-2.28l.36-.84-9.32-21.44h5.2l6.72,15.8,6.76-15.8h4.8Z" style="fill: #fff;"/>
        <path d="m759.5,750.6c-1.65-.45-2.97-1.03-3.96-1.72l1.92-3.8c.96.64,2.11,1.15,3.46,1.54,1.35.39,2.67.58,3.98.58,2.99,0,4.48-.79,4.48-2.36,0-.75-.38-1.27-1.14-1.56-.76-.29-1.98-.57-3.66-.84-1.76-.27-3.19-.57-4.3-.92-1.11-.35-2.07-.95-2.88-1.82s-1.22-2.07-1.22-3.62c0-2.03.85-3.65,2.54-4.86,1.69-1.21,3.98-1.82,6.86-1.82,1.47,0,2.93.17,4.4.5,1.47.33,2.67.78,3.6,1.34l-1.92,3.8c-1.81-1.07-3.85-1.6-6.12-1.6-1.47,0-2.58.22-3.34.66-.76.44-1.14,1.02-1.14,1.74,0,.8.41,1.37,1.22,1.7.81.33,2.07.65,3.78.94,1.71.27,3.11.57,4.2.92,1.09.35,2.03.93,2.82,1.76.79.83,1.18,2,1.18,3.52,0,2-.87,3.6-2.6,4.8-1.73,1.2-4.09,1.8-7.08,1.8-1.73,0-3.43-.23-5.08-.68Z" style="fill: #fff;"/>
        <path d="m791.42,749.84c-.59.48-1.3.84-2.14,1.08s-1.73.36-2.66.36c-2.35,0-4.16-.61-5.44-1.84s-1.92-3.01-1.92-5.36v-10.28h-3.52v-4h3.52v-4.88h5v4.88h5.72v4h-5.72v10.16c0,1.04.25,1.83.76,2.38.51.55,1.24.82,2.2.82,1.12,0,2.05-.29,2.8-.88l1.4,3.56Z" style="fill: #fff;"/>
        <path d="m814.82,741.92h-16.76c.29,1.57,1.06,2.82,2.3,3.74,1.24.92,2.78,1.38,4.62,1.38,2.35,0,4.28-.77,5.8-2.32l2.68,3.08c-.96,1.15-2.17,2.01-3.64,2.6s-3.12.88-4.96.88c-2.35,0-4.41-.47-6.2-1.4-1.79-.93-3.17-2.23-4.14-3.9-.97-1.67-1.46-3.55-1.46-5.66s.47-3.95,1.42-5.62c.95-1.67,2.26-2.97,3.94-3.9,1.68-.93,3.57-1.4,5.68-1.4s3.94.46,5.58,1.38,2.92,2.21,3.84,3.88c.92,1.67,1.38,3.59,1.38,5.78,0,.35-.03.84-.08,1.48Zm-14.78-7.1c-1.11.95-1.78,2.21-2.02,3.78h12.12c-.21-1.55-.87-2.8-1.96-3.76-1.09-.96-2.45-1.44-4.08-1.44s-2.95.47-4.06,1.42Z" style="fill: #fff;"/>
        <path d="m853.06,731.74c1.57,1.56,2.36,3.9,2.36,7.02v12.24h-5v-11.6c0-1.87-.41-3.27-1.24-4.22-.83-.95-2.01-1.42-3.56-1.42-1.68,0-3.03.55-4.04,1.66-1.01,1.11-1.52,2.69-1.52,4.74v10.84h-5v-11.6c0-1.87-.41-3.27-1.24-4.22-.83-.95-2.01-1.42-3.56-1.42-1.71,0-3.06.55-4.06,1.64s-1.5,2.68-1.5,4.76v10.84h-5v-21.36h4.76v2.72c.8-.96,1.8-1.69,3-2.2s2.53-.76,4-.76c1.6,0,3.02.3,4.26.9,1.24.6,2.22,1.49,2.94,2.66.88-1.12,2.01-1.99,3.4-2.62,1.39-.63,2.92-.94,4.6-.94,2.69,0,4.83.78,6.4,2.34Z" style="fill: #fff;"/>
        <path d="m863.34,750.6c-1.65-.45-2.97-1.03-3.96-1.72l1.92-3.8c.96.64,2.11,1.15,3.46,1.54s2.67.58,3.98.58c2.99,0,4.48-.79,4.48-2.36,0-.75-.38-1.27-1.14-1.56-.76-.29-1.98-.57-3.66-.84-1.76-.27-3.19-.57-4.3-.92-1.11-.35-2.07-.95-2.88-1.82-.81-.87-1.22-2.07-1.22-3.62,0-2.03.85-3.65,2.54-4.86,1.69-1.21,3.98-1.82,6.86-1.82,1.47,0,2.93.17,4.4.5,1.47.33,2.67.78,3.6,1.34l-1.92,3.8c-1.81-1.07-3.85-1.6-6.12-1.6-1.47,0-2.58.22-3.34.66-.76.44-1.14,1.02-1.14,1.74,0,.8.41,1.37,1.22,1.7.81.33,2.07.65,3.78.94,1.71.27,3.11.57,4.2.92s2.03.93,2.82,1.76c.79.83,1.18,2,1.18,3.52,0,2-.87,3.6-2.6,4.8-1.73,1.2-4.09,1.8-7.08,1.8-1.73,0-3.43-.23-5.08-.68Z" style="fill: #fff;"/>
      </g>
      <g>
        <path d="m93.68,592.16v-12.24c0-2.99.58-5.64,1.74-7.96s2.8-4.12,4.92-5.4c2.12-1.28,4.57-1.92,7.34-1.92s5.22.64,7.34,1.92c2.12,1.28,3.76,3.08,4.92,5.4s1.74,4.97,1.74,7.96v12.24h-28Zm23.6-12c0-2.05-.39-3.86-1.18-5.42-.79-1.56-1.91-2.76-3.36-3.6-1.45-.84-3.14-1.26-5.06-1.26s-3.61.42-5.06,1.26c-1.45.84-2.57,2.04-3.36,3.6-.79,1.56-1.18,3.37-1.18,5.42v6.8h19.2v-6.8Z" style="fill: #212529;"/>
        <path d="m112.6,539.6v16.76c1.57-.29,2.82-1.06,3.74-2.3s1.38-2.78,1.38-4.62c0-2.35-.77-4.28-2.32-5.8l3.08-2.68c1.15.96,2.01,2.17,2.6,3.64.59,1.47.88,3.12.88,4.96,0,2.35-.47,4.41-1.4,6.2-.93,1.79-2.23,3.17-3.9,4.14-1.67.97-3.55,1.46-5.66,1.46s-3.95-.47-5.62-1.42c-1.67-.95-2.97-2.26-3.9-3.94-.93-1.68-1.4-3.57-1.4-5.68s.46-3.94,1.38-5.58c.92-1.64,2.21-2.92,3.88-3.84,1.67-.92,3.59-1.38,5.78-1.38.35,0,.84.03,1.48.08Zm-7.1,14.78c.95,1.11,2.21,1.78,3.78,2.02v-12.12c-1.55.21-2.8.87-3.76,1.96-.96,1.09-1.44,2.45-1.44,4.08s.47,2.95,1.42,4.06Z" style="fill: #212529;"/>
        <path d="m101.44,517.3c.91-1.64,2.19-2.93,3.84-3.86,1.65-.93,3.56-1.4,5.72-1.4s4.07.47,5.74,1.4c1.67.93,2.95,2.22,3.86,3.86.91,1.64,1.36,3.5,1.36,5.58,0,2.88-.96,5.16-2.88,6.84h10.36v5h-29.12v-4.76h2.8c-1.01-.83-1.77-1.85-2.28-3.06-.51-1.21-.76-2.55-.76-4.02,0-2.08.45-3.94,1.36-5.58Zm14.4,1.6c-1.23-1.19-2.84-1.78-4.84-1.78s-3.61.59-4.84,1.78c-1.23,1.19-1.84,2.7-1.84,4.54,0,1.2.27,2.28.82,3.24.55.96,1.33,1.72,2.34,2.28,1.01.56,2.19.84,3.52.84s2.51-.28,3.52-.84c1.01-.56,1.79-1.32,2.34-2.28.55-.96.82-2.04.82-3.24,0-1.84-.61-3.35-1.84-4.54Z" style="fill: #212529;"/>
        <path d="m92,507.28v-5h29.68v5h-29.68Z" style="fill: #212529;"/>
        <path d="m120.56,491.96c-.93,1.73-2.23,3.09-3.9,4.06-1.67.97-3.55,1.46-5.66,1.46s-3.99-.49-5.64-1.46c-1.65-.97-2.95-2.33-3.88-4.06-.93-1.73-1.4-3.68-1.4-5.84s.47-4.15,1.4-5.88c.93-1.73,2.23-3.09,3.88-4.06,1.65-.97,3.53-1.46,5.64-1.46s3.99.49,5.66,1.46c1.67.97,2.97,2.33,3.9,4.06.93,1.73,1.4,3.69,1.4,5.88s-.47,4.11-1.4,5.84Zm-4.72-10.4c-1.23-1.2-2.84-1.8-4.84-1.8s-3.61.6-4.84,1.8-1.84,2.72-1.84,4.56.61,3.35,1.84,4.54c1.23,1.19,2.84,1.78,4.84,1.78s3.61-.59,4.84-1.78c1.23-1.19,1.84-2.7,1.84-4.54s-.61-3.36-1.84-4.56Z" style="fill: #212529;"/>
        <path d="m100.32,450.52l23.08,10c2.32.93,3.95,2.07,4.9,3.4.95,1.33,1.42,2.95,1.42,4.84,0,1.07-.17,2.12-.52,3.16-.35,1.04-.83,1.89-1.44,2.56l-3.68-2c.45-.48.81-1.05,1.08-1.7.27-.65.4-1.31.4-1.98,0-.88-.23-1.61-.68-2.18-.45-.57-1.21-1.1-2.28-1.58l-.84-.36-21.44,9.32v-5.2l15.8-6.72-15.8-6.76v-4.8Z" style="fill: #212529;"/>
        <path d="m102.42,414.04c1.56-1.57,3.9-2.36,7.02-2.36h12.24v5h-11.6c-1.87,0-3.27.41-4.22,1.24-.95.83-1.42,2.01-1.42,3.56,0,1.68.55,3.03,1.66,4.04,1.11,1.01,2.69,1.52,4.74,1.52h10.84v5h-11.6c-1.87,0-3.27.41-4.22,1.24-.95.83-1.42,2.01-1.42,3.56,0,1.71.55,3.06,1.64,4.06s2.68,1.5,4.76,1.5h10.84v5h-21.36v-4.76h2.72c-.96-.8-1.69-1.8-2.2-3s-.76-2.53-.76-4c0-1.6.3-3.02.9-4.26.6-1.24,1.49-2.22,2.66-2.94-1.12-.88-1.99-2.01-2.62-3.4-.63-1.39-.94-2.92-.94-4.6,0-2.69.78-4.83,2.34-6.4Z" style="fill: #212529;"/>
        <path d="m112.6,385.08v16.76c1.57-.29,2.82-1.06,3.74-2.3.92-1.24,1.38-2.78,1.38-4.62,0-2.35-.77-4.28-2.32-5.8l3.08-2.68c1.15.96,2.01,2.17,2.6,3.64.59,1.47.88,3.12.88,4.96,0,2.35-.47,4.41-1.4,6.2-.93,1.79-2.23,3.17-3.9,4.14-1.67.97-3.55,1.46-5.66,1.46s-3.95-.47-5.62-1.42c-1.67-.95-2.97-2.26-3.9-3.94-.93-1.68-1.4-3.57-1.4-5.68s.46-3.94,1.38-5.58c.92-1.64,2.21-2.92,3.88-3.84,1.67-.92,3.59-1.38,5.78-1.38.35,0,.84.03,1.48.08Zm-7.1,14.78c.95,1.11,2.21,1.78,3.78,2.02v-12.12c-1.55.21-2.8.87-3.76,1.96-.96,1.09-1.44,2.45-1.44,4.08s.47,2.95,1.42,4.06Z" style="fill: #212529;"/>
        <path d="m102.44,361.6c1.57-1.63,3.91-2.44,7-2.44h12.24v5h-11.6c-1.87,0-3.27.44-4.22,1.32-.95.88-1.42,2.13-1.42,3.76,0,1.84.55,3.29,1.66,4.36,1.11,1.07,2.7,1.6,4.78,1.6h10.8v5h-21.36v-4.76h2.76c-.99-.83-1.73-1.87-2.24-3.12-.51-1.25-.76-2.67-.76-4.24,0-2.69.79-4.85,2.36-6.48Z" style="fill: #212529;"/>
        <path d="m120.52,339.96c.48.59.84,1.3,1.08,2.14s.36,1.73.36,2.66c0,2.35-.61,4.16-1.84,5.44-1.23,1.28-3.01,1.92-5.36,1.92h-10.28v3.52h-4v-3.52h-4.88v-5h4.88v-5.72h4v5.72h10.16c1.04,0,1.83-.25,2.38-.76.55-.51.82-1.24.82-2.2,0-1.12-.29-2.05-.88-2.8l3.56-1.4Z" style="fill: #212529;"/>
        <path d="m120.52,311.96c.48.59.84,1.3,1.08,2.14s.36,1.73.36,2.66c0,2.35-.61,4.16-1.84,5.44-1.23,1.28-3.01,1.92-5.36,1.92h-10.28v3.52h-4v-3.52h-4.88v-5h4.88v-5.72h4v5.72h10.16c1.04,0,1.83-.25,2.38-.76.55-.51.82-1.24.82-2.2,0-1.12-.29-2.05-.88-2.8l3.56-1.4Z" style="fill: #212529;"/>
        <path d="m120.56,304.8c-.93,1.73-2.23,3.09-3.9,4.06-1.67.97-3.55,1.46-5.66,1.46s-3.99-.49-5.64-1.46c-1.65-.97-2.95-2.33-3.88-4.06-.93-1.73-1.4-3.68-1.4-5.84s.47-4.15,1.4-5.88c.93-1.73,2.23-3.09,3.88-4.06,1.65-.97,3.53-1.46,5.64-1.46s3.99.49,5.66,1.46c1.67.97,2.97,2.33,3.9,4.06.93,1.73,1.4,3.69,1.4,5.88s-.47,4.11-1.4,5.84Zm-4.72-10.4c-1.23-1.2-2.84-1.8-4.84-1.8s-3.61.6-4.84,1.8c-1.23,1.2-1.84,2.72-1.84,4.56s.61,3.35,1.84,4.54,2.84,1.78,4.84,1.78,3.61-.59,4.84-1.78,1.84-2.7,1.84-4.54-.61-3.36-1.84-4.56Z" style="fill: #212529;"/>
        <path d="m120.56,279c-.93,1.73-2.23,3.09-3.9,4.06-1.67.97-3.55,1.46-5.66,1.46s-3.99-.49-5.64-1.46c-1.65-.97-2.95-2.33-3.88-4.06-.93-1.73-1.4-3.68-1.4-5.84s.47-4.15,1.4-5.88c.93-1.73,2.23-3.09,3.88-4.06,1.65-.97,3.53-1.46,5.64-1.46s3.99.49,5.66,1.46c1.67.97,2.97,2.33,3.9,4.06.93,1.73,1.4,3.69,1.4,5.88s-.47,4.11-1.4,5.84Zm-4.72-10.4c-1.23-1.2-2.84-1.8-4.84-1.8s-3.61.6-4.84,1.8c-1.23,1.2-1.84,2.72-1.84,4.56s.61,3.35,1.84,4.54,2.84,1.78,4.84,1.78,3.61-.59,4.84-1.78,1.84-2.7,1.84-4.54-.61-3.36-1.84-4.56Z" style="fill: #212529;"/>
        <path d="m92,256.96v-5h29.68v5h-29.68Z" style="fill: #212529;"/>
        <path d="m121.28,243.88c-.45,1.65-1.03,2.97-1.72,3.96l-3.8-1.92c.64-.96,1.15-2.11,1.54-3.46.39-1.35.58-2.67.58-3.98,0-2.99-.79-4.48-2.36-4.48-.75,0-1.27.38-1.56,1.14-.29.76-.57,1.98-.84,3.66-.27,1.76-.57,3.19-.92,4.3-.35,1.11-.95,2.07-1.82,2.88-.87.81-2.07,1.22-3.62,1.22-2.03,0-3.65-.85-4.86-2.54-1.21-1.69-1.82-3.98-1.82-6.86,0-1.47.17-2.93.5-4.4.33-1.47.78-2.67,1.34-3.6l3.8,1.92c-1.07,1.81-1.6,3.85-1.6,6.12,0,1.47.22,2.58.66,3.34.44.76,1.02,1.14,1.74,1.14.8,0,1.37-.41,1.7-1.22.33-.81.65-2.07.94-3.78.27-1.71.57-3.11.92-4.2.35-1.09.93-2.03,1.76-2.82.83-.79,2-1.18,3.52-1.18,2,0,3.6.87,4.8,2.6,1.2,1.73,1.8,4.09,1.8,7.08,0,1.73-.23,3.43-.68,5.08Z" style="fill: #212529;"/>
      </g>
      <g>
        <path d="m1203,177.96v12.24c0,2.99-.58,5.64-1.74,7.96s-2.8,4.12-4.92,5.4c-2.12,1.28-4.57,1.92-7.34,1.92s-5.22-.64-7.34-1.92c-2.12-1.28-3.76-3.08-4.92-5.4s-1.74-4.97-1.74-7.96v-12.24h28Zm-23.6,12c0,2.05.39,3.86,1.18,5.42.79,1.56,1.91,2.76,3.36,3.6,1.45.84,3.14,1.26,5.06,1.26s3.61-.42,5.06-1.26c1.45-.84,2.57-2.04,3.36-3.6.79-1.56,1.18-3.37,1.18-5.42v-6.8h-19.2v6.8Z" style="fill: #fff;"/>
        <path d="m1194.34,225.9c-1.51,1.67-3.78,2.5-6.82,2.5h-12.52v-4.72h2.6c-.93-.61-1.65-1.49-2.14-2.62-.49-1.13-.74-2.5-.74-4.1s.27-3,.82-4.2,1.31-2.13,2.28-2.78c.97-.65,2.07-.98,3.3-.98,1.92,0,3.46.71,4.62,2.14,1.16,1.43,1.74,3.67,1.74,6.74v5.52h.32c1.49,0,2.64-.45,3.44-1.34.8-.89,1.2-2.22,1.2-3.98,0-1.2-.19-2.38-.56-3.54-.37-1.16-.89-2.14-1.56-2.94l3.64-1.96c.85,1.12,1.51,2.47,1.96,4.04.45,1.57.68,3.24.68,5,0,3.15-.75,5.55-2.26,7.22Zm-15.12-4.56c.57.97,1.39,1.66,2.46,2.06h2.48v-5.16c0-2.88-.95-4.32-2.84-4.32-.91,0-1.63.36-2.16,1.08-.53.72-.8,1.72-.8,3s.29,2.37.86,3.34Z" style="fill: #fff;"/>
        <path d="m1176.16,247.64c-.48-.59-.84-1.3-1.08-2.14s-.36-1.73-.36-2.66c0-2.35.61-4.16,1.84-5.44,1.23-1.28,3.01-1.92,5.36-1.92h10.28v-3.52h4v3.52h4.88v5h-4.88v5.72h-4v-5.72h-10.16c-1.04,0-1.83.25-2.38.76-.55.51-.82,1.24-.82,2.2,0,1.12.29,2.05.88,2.8l-3.56,1.4Z" style="fill: #fff;"/>
        <path d="m1194.34,267.14c-1.51,1.67-3.78,2.5-6.82,2.5h-12.52v-4.72h2.6c-.93-.61-1.65-1.49-2.14-2.62-.49-1.13-.74-2.5-.74-4.1s.27-3,.82-4.2,1.31-2.13,2.28-2.78c.97-.65,2.07-.98,3.3-.98,1.92,0,3.46.71,4.62,2.14,1.16,1.43,1.74,3.67,1.74,6.74v5.52h.32c1.49,0,2.64-.45,3.44-1.34.8-.89,1.2-2.22,1.2-3.98,0-1.2-.19-2.38-.56-3.54-.37-1.16-.89-2.14-1.56-2.94l3.64-1.96c.85,1.12,1.51,2.47,1.96,4.04.45,1.57.68,3.24.68,5,0,3.15-.75,5.55-2.26,7.22Zm-15.12-4.56c.57.97,1.39,1.66,2.46,2.06h2.48v-5.16c0-2.88-.95-4.32-2.84-4.32-.91,0-1.63.36-2.16,1.08-.53.72-.8,1.72-.8,3s.29,2.37.86,3.34Z" style="fill: #fff;"/>
        <path d="m1208.68,284.76v4.48l-37.68-13.2v-4.48l37.68,13.2Z" style="fill: #fff;"/>
        <path d="m1194.34,303.66c-1.51,1.67-3.78,2.5-6.82,2.5h-12.52v-4.72h2.6c-.93-.61-1.65-1.49-2.14-2.62-.49-1.13-.74-2.5-.74-4.1s.27-3,.82-4.2,1.31-2.13,2.28-2.78c.97-.65,2.07-.98,3.3-.98,1.92,0,3.46.71,4.62,2.14,1.16,1.43,1.74,3.67,1.74,6.74v5.52h.32c1.49,0,2.64-.45,3.44-1.34.8-.89,1.2-2.22,1.2-3.98,0-1.2-.19-2.38-.56-3.54-.37-1.16-.89-2.14-1.56-2.94l3.64-1.96c.85,1.12,1.51,2.47,1.96,4.04.45,1.57.68,3.24.68,5,0,3.15-.75,5.55-2.26,7.22Zm-15.12-4.56c.57.97,1.39,1.66,2.46,2.06h2.48v-5.16c0-2.88-.95-4.32-2.84-4.32-.91,0-1.63.36-2.16,1.08-.53.72-.8,1.72-.8,3s.29,2.37.86,3.34Z" style="fill: #fff;"/>
        <path d="m1195.24,329.98c-.91,1.64-2.19,2.93-3.84,3.86-1.65.93-3.56,1.4-5.72,1.4s-4.07-.47-5.74-1.4c-1.67-.93-2.95-2.22-3.86-3.86-.91-1.64-1.36-3.5-1.36-5.58,0-2.88.96-5.16,2.88-6.84h-10.36v-5h29.12v4.76h-2.8c1.01.83,1.77,1.85,2.28,3.06.51,1.21.76,2.55.76,4.02,0,2.08-.45,3.94-1.36,5.58Zm-14.4-1.6c1.23,1.19,2.84,1.78,4.84,1.78s3.61-.59,4.84-1.78c1.23-1.19,1.84-2.7,1.84-4.54,0-1.2-.27-2.28-.82-3.24-.55-.96-1.33-1.72-2.34-2.28-1.01-.56-2.19-.84-3.52-.84s-2.51.28-3.52.84c-1.01.56-1.79,1.32-2.34,2.28-.55.96-.82,2.04-.82,3.24,0,1.84.61,3.35,1.84,4.54Z" style="fill: #fff;"/>
        <path d="m1196.36,340v5h-21.36v-5h21.36Zm4.38.24c.57-.61,1.29-.92,2.14-.92s1.57.31,2.14.92c.57.61.86,1.37.86,2.28s-.27,1.67-.82,2.28c-.55.61-1.23.92-2.06.92-.88,0-1.62-.3-2.22-.9-.6-.6-.9-1.37-.9-2.3s.29-1.67.86-2.28Z" style="fill: #fff;"/>
        <path d="m1194.26,395.96c-1.56,1.57-3.9,2.36-7.02,2.36h-12.24v-5h11.6c1.87,0,3.27-.41,4.22-1.24.95-.83,1.42-2.01,1.42-3.56,0-1.68-.55-3.03-1.66-4.04-1.11-1.01-2.69-1.52-4.74-1.52h-10.84v-5h11.6c1.87,0,3.27-.41,4.22-1.24.95-.83,1.42-2.01,1.42-3.56,0-1.71-.55-3.06-1.64-4.06s-2.68-1.5-4.76-1.5h-10.84v-5h21.36v4.76h-2.72c.96.8,1.69,1.8,2.2,3s.76,2.53.76,4c0,1.6-.3,3.02-.9,4.26-.6,1.24-1.49,2.22-2.66,2.94,1.12.88,1.99,2.01,2.62,3.4.63,1.39.94,2.92.94,4.6,0,2.69-.78,4.83-2.34,6.4Z" style="fill: #fff;"/>
        <path d="m1194.34,420.1c-1.51,1.67-3.78,2.5-6.82,2.5h-12.52v-4.72h2.6c-.93-.61-1.65-1.49-2.14-2.62-.49-1.13-.74-2.5-.74-4.1s.27-3,.82-4.2,1.31-2.13,2.28-2.78c.97-.65,2.07-.98,3.3-.98,1.92,0,3.46.71,4.62,2.14,1.16,1.43,1.74,3.67,1.74,6.74v5.52h.32c1.49,0,2.64-.45,3.44-1.34.8-.89,1.2-2.22,1.2-3.98,0-1.2-.19-2.38-.56-3.54-.37-1.16-.89-2.14-1.56-2.94l3.64-1.96c.85,1.12,1.51,2.47,1.96,4.04.45,1.57.68,3.24.68,5,0,3.15-.75,5.55-2.26,7.22Zm-15.12-4.56c.57.97,1.39,1.66,2.46,2.06h2.48v-5.16c0-2.88-.95-4.32-2.84-4.32-.91,0-1.63.36-2.16,1.08-.53.72-.8,1.72-.8,3s.29,2.37.86,3.34Z" style="fill: #fff;"/>
        <path d="m1194.24,447.6c-1.57,1.63-3.91,2.44-7,2.44h-12.24v-5h11.6c1.87,0,3.27-.44,4.22-1.32.95-.88,1.42-2.13,1.42-3.76,0-1.84-.55-3.29-1.66-4.36-1.11-1.07-2.7-1.6-4.78-1.6h-10.8v-5h21.36v4.76h-2.76c.99.83,1.73,1.87,2.24,3.12s.76,2.67.76,4.24c0,2.69-.79,4.85-2.36,6.48Z" style="fill: #fff;"/>
        <path d="m1194.34,471.78c-1.51,1.67-3.78,2.5-6.82,2.5h-12.52v-4.72h2.6c-.93-.61-1.65-1.49-2.14-2.62-.49-1.13-.74-2.5-.74-4.1s.27-3,.82-4.2c.55-1.2,1.31-2.13,2.28-2.78.97-.65,2.07-.98,3.3-.98,1.92,0,3.46.71,4.62,2.14,1.16,1.43,1.74,3.67,1.74,6.74v5.52h.32c1.49,0,2.64-.45,3.44-1.34.8-.89,1.2-2.22,1.2-3.98,0-1.2-.19-2.38-.56-3.54-.37-1.16-.89-2.14-1.56-2.94l3.64-1.96c.85,1.12,1.51,2.47,1.96,4.04.45,1.57.68,3.24.68,5,0,3.15-.75,5.55-2.26,7.22Zm-15.12-4.56c.57.97,1.39,1.66,2.46,2.06h2.48v-5.16c0-2.88-.95-4.32-2.84-4.32-.91,0-1.63.36-2.16,1.08-.53.72-.8,1.72-.8,3s.29,2.37.86,3.34Z" style="fill: #fff;"/>
        <path d="m1196.36,502.08h-18.12c-7.52,0-11.28-3.84-11.28-11.52,0-2.05.26-4,.78-5.84.52-1.84,1.27-3.36,2.26-4.56l3.76,2.24c-.77.93-1.39,2.11-1.86,3.54s-.7,2.87-.7,4.34c0,2.35.53,4.07,1.6,5.16,1.07,1.09,2.69,1.64,4.88,1.64h1.12c-.93-.85-1.64-1.89-2.12-3.12-.48-1.23-.72-2.57-.72-4.04,0-2.03.43-3.86,1.3-5.5.87-1.64,2.09-2.93,3.66-3.88,1.57-.95,3.37-1.42,5.4-1.42s3.82.47,5.38,1.42c1.56.95,2.77,2.24,3.62,3.88.85,1.64,1.28,3.47,1.28,5.5,0,1.55-.25,2.95-.76,4.22-.51,1.27-1.28,2.33-2.32,3.18h2.84v4.76Zm-14.46-6.74c1.13,1.21,2.61,1.82,4.42,1.82s3.24-.61,4.36-1.82c1.12-1.21,1.68-2.77,1.68-4.66s-.56-3.49-1.68-4.7c-1.12-1.21-2.57-1.82-4.36-1.82s-3.29.61-4.42,1.82c-1.13,1.21-1.7,2.78-1.7,4.7s.57,3.45,1.7,4.66Z" style="fill: #fff;"/>
        <path d="m1184.08,528.64v-16.76c-1.57.29-2.82,1.06-3.74,2.3s-1.38,2.78-1.38,4.62c0,2.35.77,4.28,2.32,5.8l-3.08,2.68c-1.15-.96-2.01-2.17-2.6-3.64-.59-1.47-.88-3.12-.88-4.96,0-2.35.47-4.41,1.4-6.2.93-1.79,2.23-3.17,3.9-4.14,1.67-.97,3.55-1.46,5.66-1.46s3.95.47,5.62,1.42c1.67.95,2.97,2.26,3.9,3.94.93,1.68,1.4,3.57,1.4,5.68s-.46,3.94-1.38,5.58c-.92,1.64-2.21,2.92-3.88,3.84-1.67.92-3.59,1.38-5.78,1.38-.35,0-.84-.03-1.48-.08Zm7.1-14.78c-.95-1.11-2.21-1.78-3.78-2.02v12.12c1.55-.21,2.8-.87,3.76-1.96.96-1.09,1.44-2.45,1.44-4.08s-.47-2.95-1.42-4.06Z" style="fill: #fff;"/>
        <path d="m1194.26,566.88c-1.56,1.57-3.9,2.36-7.02,2.36h-12.24v-5h11.6c1.87,0,3.27-.41,4.22-1.24.95-.83,1.42-2.01,1.42-3.56,0-1.68-.55-3.03-1.66-4.04-1.11-1.01-2.69-1.52-4.74-1.52h-10.84v-5h11.6c1.87,0,3.27-.41,4.22-1.24.95-.83,1.42-2.01,1.42-3.56,0-1.71-.55-3.06-1.64-4.06s-2.68-1.5-4.76-1.5h-10.84v-5h21.36v4.76h-2.72c.96.8,1.69,1.8,2.2,3,.51,1.2.76,2.53.76,4,0,1.6-.3,3.02-.9,4.26-.6,1.24-1.49,2.22-2.66,2.94,1.12.88,1.99,2.01,2.62,3.4.63,1.39.94,2.92.94,4.6,0,2.69-.78,4.83-2.34,6.4Z" style="fill: #fff;"/>
        <path d="m1184.08,595.84v-16.76c-1.57.29-2.82,1.06-3.74,2.3s-1.38,2.78-1.38,4.62c0,2.35.77,4.28,2.32,5.8l-3.08,2.68c-1.15-.96-2.01-2.17-2.6-3.64-.59-1.47-.88-3.12-.88-4.96,0-2.35.47-4.41,1.4-6.2.93-1.79,2.23-3.17,3.9-4.14,1.67-.97,3.55-1.46,5.66-1.46s3.95.47,5.62,1.42c1.67.95,2.97,2.26,3.9,3.94.93,1.68,1.4,3.57,1.4,5.68s-.46,3.94-1.38,5.58c-.92,1.64-2.21,2.92-3.88,3.84-1.67.92-3.59,1.38-5.78,1.38-.35,0-.84-.03-1.48-.08Zm7.1-14.78c-.95-1.11-2.21-1.78-3.78-2.02v12.12c1.55-.21,2.8-.87,3.76-1.96.96-1.09,1.44-2.45,1.44-4.08s-.47-2.95-1.42-4.06Z" style="fill: #fff;"/>
        <path d="m1194.24,619.32c-1.57,1.63-3.91,2.44-7,2.44h-12.24v-5h11.6c1.87,0,3.27-.44,4.22-1.32.95-.88,1.42-2.13,1.42-3.76,0-1.84-.55-3.29-1.66-4.36-1.11-1.07-2.7-1.6-4.78-1.6h-10.8v-5h21.36v4.76h-2.76c.99.83,1.73,1.87,2.24,3.12.51,1.25.76,2.67.76,4.24,0,2.69-.79,4.85-2.36,6.48Z" style="fill: #fff;"/>
        <path d="m1176.16,640.96c-.48-.59-.84-1.3-1.08-2.14s-.36-1.73-.36-2.66c0-2.35.61-4.16,1.84-5.44,1.23-1.28,3.01-1.92,5.36-1.92h10.28v-3.52h4v3.52h4.88v5h-4.88v5.72h-4v-5.72h-10.16c-1.04,0-1.83.25-2.38.76-.55.51-.82,1.24-.82,2.2,0,1.12.29,2.05.88,2.8l-3.56,1.4Z" style="fill: #fff;"/>
        <path d="m1145.8,167.86c-.8,1.8-1.95,3.18-3.44,4.14-1.49.96-3.27,1.44-5.32,1.44s-3.79-.48-5.3-1.44c-1.51-.96-2.66-2.34-3.46-4.14-.8-1.8-1.2-3.91-1.2-6.34v-6.32h-8.08v-5.2h28v11.52c0,2.43-.4,4.54-1.2,6.34Zm-12.88-1.42c.96,1.17,2.33,1.76,4.12,1.76s3.16-.59,4.12-1.76c.96-1.17,1.44-2.89,1.44-5.16v-6.08h-11.12v6.08c0,2.27.48,3.99,1.44,5.16Z" style="fill: #fff;"/>
        <path d="m1140.36,199.24h-21.36v-4.76h2.72c-.96-.8-1.7-1.8-2.22-3-.52-1.2-.78-2.49-.78-3.88,0-2.85.79-5.1,2.38-6.74s3.94-2.46,7.06-2.46h12.2v5h-11.52c-1.92,0-3.35.43-4.3,1.3-.95.87-1.42,2.1-1.42,3.7,0,1.79.55,3.21,1.66,4.26,1.11,1.05,2.7,1.58,4.78,1.58h10.8v5Z" style="fill: #fff;"/>
        <path d="m1139.24,223.22c-.91,1.64-2.19,2.93-3.84,3.86-1.65.93-3.56,1.4-5.72,1.4s-4.07-.47-5.74-1.4c-1.67-.93-2.95-2.22-3.86-3.86-.91-1.64-1.36-3.5-1.36-5.58,0-1.47.25-2.81.76-4.02.51-1.21,1.27-2.23,2.28-3.06h-2.76v-4.76h29.68v5h-10.92c.93.85,1.64,1.86,2.12,3.02.48,1.16.72,2.43.72,3.82,0,2.08-.45,3.94-1.36,5.58Zm-14.4-1.6c1.23,1.19,2.84,1.78,4.84,1.78s3.61-.59,4.84-1.78c1.23-1.19,1.84-2.7,1.84-4.54,0-1.2-.27-2.28-.82-3.24-.55-.96-1.33-1.72-2.34-2.28-1.01-.56-2.19-.84-3.52-.84s-2.51.28-3.52.84c-1.01.56-1.79,1.32-2.34,2.28-.55.96-.82,2.04-.82,3.24,0,1.84.61,3.35,1.84,4.54Z" style="fill: #fff;"/>
        <path d="m1148.68,233.24v5h-29.68v-5h29.68Z" style="fill: #fff;"/>
        <path d="m1140.36,244.8v5h-21.36v-5h21.36Zm4.38.24c.57-.61,1.29-.92,2.14-.92s1.57.31,2.14.92c.57.61.86,1.37.86,2.28s-.27,1.67-.82,2.28c-.55.61-1.23.92-2.06.92-.88,0-1.62-.3-2.22-.9-.6-.6-.9-1.37-.9-2.3s.29-1.67.86-2.28Z" style="fill: #fff;"/>
        <path d="m1120.12,260.2c.93-1.76,2.23-3.13,3.9-4.12,1.67-.99,3.55-1.48,5.66-1.48s3.99.49,5.64,1.48c1.65.99,2.95,2.35,3.88,4.1.93,1.75,1.4,3.74,1.4,5.98,0,2.11-.43,3.95-1.28,5.54-.85,1.59-2.08,2.78-3.68,3.58l-2.24-3.84c.99-.61,1.73-1.38,2.22-2.3.49-.92.74-1.93.74-3.02,0-1.87-.61-3.41-1.82-4.64-1.21-1.23-2.83-1.84-4.86-1.84s-3.65.61-4.86,1.82c-1.21,1.21-1.82,2.77-1.82,4.66,0,1.09.25,2.1.74,3.02.49.92,1.23,1.69,2.22,2.3l-2.24,3.84c-1.6-.83-2.83-2.03-3.7-3.62-.87-1.59-1.3-3.42-1.3-5.5,0-2.21.47-4.2,1.4-5.96Z" style="fill: #fff;"/>
        <path d="m1138.34,294.98c-1.51,1.67-3.78,2.5-6.82,2.5h-12.52v-4.72h2.6c-.93-.61-1.65-1.49-2.14-2.62-.49-1.13-.74-2.5-.74-4.1s.27-3,.82-4.2,1.31-2.13,2.28-2.78c.97-.65,2.07-.98,3.3-.98,1.92,0,3.46.71,4.62,2.14,1.16,1.43,1.74,3.67,1.74,6.74v5.52h.32c1.49,0,2.64-.45,3.44-1.34.8-.89,1.2-2.22,1.2-3.98,0-1.2-.19-2.38-.56-3.54-.37-1.16-.89-2.14-1.56-2.94l3.64-1.96c.85,1.12,1.51,2.47,1.96,4.04.45,1.57.68,3.24.68,5,0,3.15-.75,5.55-2.26,7.22Zm-15.12-4.56c.57.97,1.39,1.66,2.46,2.06h2.48v-5.16c0-2.88-.95-4.32-2.84-4.32-.91,0-1.63.36-2.16,1.08-.53.72-.8,1.72-.8,3s.29,2.37.86,3.34Z" style="fill: #fff;"/>
        <path d="m1120.16,316.72c-.48-.59-.84-1.3-1.08-2.14s-.36-1.73-.36-2.66c0-2.35.61-4.16,1.84-5.44,1.23-1.28,3.01-1.92,5.36-1.92h10.28v-3.52h4v3.52h4.88v5h-4.88v5.72h-4v-5.72h-10.16c-1.04,0-1.83.25-2.38.76-.55.51-.82,1.24-.82,2.2,0,1.12.29,2.05.88,2.8l-3.56,1.4Z" style="fill: #fff;"/>
        <path d="m1140.36,320.84v5h-21.36v-5h21.36Zm4.38.24c.57-.61,1.29-.92,2.14-.92s1.57.31,2.14.92c.57.61.86,1.37.86,2.28s-.27,1.67-.82,2.28c-.55.61-1.23.92-2.06.92-.88,0-1.62-.3-2.22-.9-.6-.6-.9-1.37-.9-2.3s.29-1.67.86-2.28Z" style="fill: #fff;"/>
        <path d="m1120.12,336.16c.93-1.73,2.23-3.09,3.9-4.06,1.67-.97,3.55-1.46,5.66-1.46s3.99.49,5.64,1.46c1.65.97,2.95,2.33,3.88,4.06.93,1.73,1.4,3.68,1.4,5.84s-.47,4.15-1.4,5.88c-.93,1.73-2.23,3.09-3.88,4.06-1.65.97-3.53,1.46-5.64,1.46s-3.99-.49-5.66-1.46c-1.67-.97-2.97-2.33-3.9-4.06-.93-1.73-1.4-3.69-1.4-5.88s.47-4.11,1.4-5.84Zm4.72,10.4c1.23,1.2,2.84,1.8,4.84,1.8s3.61-.6,4.84-1.8c1.23-1.2,1.84-2.72,1.84-4.56s-.61-3.35-1.84-4.54-2.84-1.78-4.84-1.78-3.61.59-4.84,1.78-1.84,2.7-1.84,4.54.61,3.36,1.84,4.56Z" style="fill: #fff;"/>
        <path d="m1138.24,376.8c-1.57,1.63-3.91,2.44-7,2.44h-12.24v-5h11.6c1.87,0,3.27-.44,4.22-1.32.95-.88,1.42-2.13,1.42-3.76,0-1.84-.55-3.29-1.66-4.36-1.11-1.07-2.7-1.6-4.78-1.6h-10.8v-5h21.36v4.76h-2.76c.99.83,1.73,1.87,2.24,3.12.51,1.25.76,2.67.76,4.24,0,2.69-.79,4.85-2.36,6.48Z" style="fill: #fff;"/>
        <path d="m1138.26,430c-1.56,1.57-3.9,2.36-7.02,2.36h-12.24v-5h11.6c1.87,0,3.27-.41,4.22-1.24.95-.83,1.42-2.01,1.42-3.56,0-1.68-.55-3.03-1.66-4.04-1.11-1.01-2.69-1.52-4.74-1.52h-10.84v-5h11.6c1.87,0,3.27-.41,4.22-1.24.95-.83,1.42-2.01,1.42-3.56,0-1.71-.55-3.06-1.64-4.06s-2.68-1.5-4.76-1.5h-10.84v-5h21.36v4.76h-2.72c.96.8,1.69,1.8,2.2,3s.76,2.53.76,4c0,1.6-.3,3.02-.9,4.26-.6,1.24-1.49,2.22-2.66,2.94,1.12.88,1.99,2.01,2.62,3.4.63,1.39.94,2.92.94,4.6,0,2.69-.78,4.83-2.34,6.4Z" style="fill: #fff;"/>
        <path d="m1120.12,442.72c.93-1.73,2.23-3.09,3.9-4.06,1.67-.97,3.55-1.46,5.66-1.46s3.99.49,5.64,1.46c1.65.97,2.95,2.33,3.88,4.06.93,1.73,1.4,3.68,1.4,5.84s-.47,4.15-1.4,5.88c-.93,1.73-2.23,3.09-3.88,4.06-1.65.97-3.53,1.46-5.64,1.46s-3.99-.49-5.66-1.46c-1.67-.97-2.97-2.33-3.9-4.06-.93-1.73-1.4-3.69-1.4-5.88s.47-4.11,1.4-5.84Zm4.72,10.4c1.23,1.2,2.84,1.8,4.84,1.8s3.61-.6,4.84-1.8c1.23-1.2,1.84-2.72,1.84-4.56s-.61-3.35-1.84-4.54-2.84-1.78-4.84-1.78-3.61.59-4.84,1.78-1.84,2.7-1.84,4.54.61,3.36,1.84,4.56Z" style="fill: #fff;"/>
        <path d="m1138.24,483.36c-1.57,1.63-3.91,2.44-7,2.44h-12.24v-5h11.6c1.87,0,3.27-.44,4.22-1.32.95-.88,1.42-2.13,1.42-3.76,0-1.84-.55-3.29-1.66-4.36-1.11-1.07-2.7-1.6-4.78-1.6h-10.8v-5h21.36v4.76h-2.76c.99.83,1.73,1.87,2.24,3.12s.76,2.67.76,4.24c0,2.69-.79,4.85-2.36,6.48Z" style="fill: #fff;"/>
        <path d="m1128.08,512.36v-16.76c-1.57.29-2.82,1.06-3.74,2.3s-1.38,2.78-1.38,4.62c0,2.35.77,4.28,2.32,5.8l-3.08,2.68c-1.15-.96-2.01-2.17-2.6-3.64s-.88-3.12-.88-4.96c0-2.35.47-4.41,1.4-6.2.93-1.79,2.23-3.17,3.9-4.14,1.67-.97,3.55-1.46,5.66-1.46s3.95.47,5.62,1.42c1.67.95,2.97,2.26,3.9,3.94.93,1.68,1.4,3.57,1.4,5.68s-.46,3.94-1.38,5.58c-.92,1.64-2.21,2.92-3.88,3.84-1.67.92-3.59,1.38-5.78,1.38-.35,0-.84-.03-1.48-.08Zm7.1-14.78c-.95-1.11-2.21-1.78-3.78-2.02v12.12c1.55-.21,2.8-.87,3.76-1.96.96-1.09,1.44-2.46,1.44-4.08s-.47-2.95-1.42-4.06Z" style="fill: #fff;"/>
        <path d="m1120.16,530.08c-.48-.59-.84-1.3-1.08-2.14s-.36-1.73-.36-2.66c0-2.35.61-4.16,1.84-5.44,1.23-1.28,3.01-1.92,5.36-1.92h10.28v-3.52h4v3.52h4.88v5h-4.88v5.72h-4v-5.72h-10.16c-1.04,0-1.83.25-2.38.76-.55.51-.82,1.24-.82,2.2,0,1.12.29,2.05.88,2.8l-3.56,1.4Z" style="fill: #fff;"/>
        <path d="m1140.36,534.2v5h-21.36v-5h21.36Zm4.38.24c.57-.61,1.29-.92,2.14-.92s1.57.31,2.14.92.86,1.37.86,2.28-.27,1.67-.82,2.28-1.23.92-2.06.92c-.88,0-1.62-.3-2.22-.9-.6-.6-.9-1.37-.9-2.3s.29-1.67.86-2.28Z" style="fill: #fff;"/>
        <path d="m1123,562.44h-4v-18.44h3.16l14.2,11.72v-11.48h4v17.88h-3.16l-14.2-11.76v12.08Z" style="fill: #fff;"/>
        <path d="m1138.34,582.42c-1.51,1.67-3.78,2.5-6.82,2.5h-12.52v-4.72h2.6c-.93-.61-1.65-1.49-2.14-2.62-.49-1.13-.74-2.5-.74-4.1s.27-3,.82-4.2c.55-1.2,1.31-2.13,2.28-2.78.97-.65,2.07-.98,3.3-.98,1.92,0,3.46.71,4.62,2.14,1.16,1.43,1.74,3.67,1.74,6.74v5.52h.32c1.49,0,2.64-.45,3.44-1.34.8-.89,1.2-2.22,1.2-3.98,0-1.2-.19-2.38-.56-3.54-.37-1.16-.89-2.14-1.56-2.94l3.64-1.96c.85,1.12,1.51,2.47,1.96,4.04.45,1.57.68,3.24.68,5,0,3.15-.75,5.55-2.26,7.22Zm-15.12-4.56c.57.97,1.39,1.66,2.46,2.06h2.48v-5.16c0-2.88-.95-4.32-2.84-4.32-.91,0-1.63.36-2.16,1.08-.53.72-.8,1.72-.8,3s.29,2.37.86,3.34Z" style="fill: #fff;"/>
        <path d="m1120.16,604.16c-.48-.59-.84-1.3-1.08-2.14s-.36-1.73-.36-2.66c0-2.35.61-4.16,1.84-5.44s3.01-1.92,5.36-1.92h10.28v-3.52h4v3.52h4.88v5h-4.88v5.72h-4v-5.72h-10.16c-1.04,0-1.83.25-2.38.76-.55.51-.82,1.24-.82,2.2,0,1.12.29,2.05.88,2.8l-3.56,1.4Z" style="fill: #fff;"/>
        <path d="m1140.36,608.28v5h-21.36v-5h21.36Zm4.38.24c.57-.61,1.29-.92,2.14-.92s1.57.31,2.14.92c.57.61.86,1.37.86,2.28s-.27,1.67-.82,2.28c-.55.61-1.23.92-2.06.92-.88,0-1.62-.3-2.22-.9s-.9-1.37-.9-2.3.29-1.67.86-2.28Z" style="fill: #fff;"/>
        <path d="m1120.12,623.6c.93-1.73,2.23-3.09,3.9-4.06,1.67-.97,3.55-1.46,5.66-1.46s3.99.49,5.64,1.46c1.65.97,2.95,2.33,3.88,4.06.93,1.73,1.4,3.68,1.4,5.84s-.47,4.15-1.4,5.88c-.93,1.73-2.23,3.09-3.88,4.06-1.65.97-3.53,1.46-5.64,1.46s-3.99-.49-5.66-1.46c-1.67-.97-2.97-2.33-3.9-4.06-.93-1.73-1.4-3.69-1.4-5.88s.47-4.11,1.4-5.84Zm4.72,10.4c1.23,1.2,2.84,1.8,4.84,1.8s3.61-.6,4.84-1.8c1.23-1.2,1.84-2.72,1.84-4.56s-.61-3.35-1.84-4.54-2.84-1.78-4.84-1.78-3.61.59-4.84,1.78-1.84,2.7-1.84,4.54.61,3.36,1.84,4.56Z" style="fill: #fff;"/>
        <path d="m1138.24,664.24c-1.57,1.63-3.91,2.44-7,2.44h-12.24v-5h11.6c1.87,0,3.27-.44,4.22-1.32.95-.88,1.42-2.13,1.42-3.76,0-1.84-.55-3.29-1.66-4.36-1.11-1.07-2.7-1.6-4.78-1.6h-10.8v-5h21.36v4.76h-2.76c.99.83,1.73,1.87,2.24,3.12.51,1.25.76,2.67.76,4.24,0,2.69-.79,4.85-2.36,6.48Z" style="fill: #fff;"/>
      </g>
    </g>
  </g>
</svg>