<?xml version="1.0" encoding="UTF-8"?>
<svg id="ico" xmlns="http://www.w3.org/2000/svg" viewBox="0 0 200 200">
  <path d="m99.03,26.87c-41.95,0-74.03,31.84-74.03,73.79,0,33.54,21.11,62.24,51.26,72.34,3.87.7,5.23-1.69,5.23-3.66s-.09-12.22-.09-18.57c0,0-21.17,4.54-25.61-9.01,0,0-3.45-8.8-8.41-11.07,0,0-6.93-4.75.48-4.66,0,0,7.53.6,11.67,7.8,6.62,11.67,17.72,8.32,22.05,6.32.7-4.84,2.66-8.2,4.84-10.19-16.91-1.88-33.96-4.32-33.96-33.42,0-8.32,2.3-12.49,7.14-17.81-.79-1.97-3.36-10.07.79-20.53,6.32-1.97,20.87,8.17,20.87,8.17,6.05-1.69,12.55-2.57,18.99-2.57s12.94.88,18.99,2.57c0,0,14.55-10.16,20.87-8.17,4.14,10.49,1.57,18.57.79,20.53,4.84,5.35,7.8,9.53,7.8,17.81,0,29.18-17.81,31.51-34.72,33.42,2.78,2.39,5.14,6.93,5.14,14.03,0,10.19-.09,22.8-.09,25.28,0,1.97,1.39,4.35,5.23,3.66,30.24-10.04,50.75-38.74,50.75-72.28,0-41.95-34.02-73.79-75.97-73.79Z" style="fill: none; stroke: #002e67; stroke-linecap: round; stroke-linejoin: round; stroke-width: 4px;"/>
</svg>