<?xml version="1.0" encoding="UTF-8"?>
<svg id="ico" xmlns="http://www.w3.org/2000/svg" viewBox="0 0 200 200">
  <g>
    <rect x="20" y="26.87" width="160" height="146.25" rx="10" ry="10" style="fill: none; stroke: #002e67; stroke-linecap: round; stroke-linejoin: round; stroke-width: 4px;"/>
    <line x1="20" y1="148.71" x2="180" y2="148.71" style="fill: none; stroke: #002e67; stroke-linecap: round; stroke-linejoin: round; stroke-width: 4px;"/>
  </g>
  <path d="m134.83,115.05c.55,0,1.1.21,1.51.63l11.11,11.11,9.6-9.6-11.11-11.11c-.84-.84-.84-2.19,0-3.03l5.97-5.97-36.86-12.28,12.29,36.84,5.97-5.97c.43-.42.98-.63,1.52-.63Z" style="fill: none; stroke: #002e67; stroke-linecap: round; stroke-linejoin: round; stroke-width: 4px;"/>
  <line x1="43.72" y1="69.69" x2="121.09" y2="69.69" style="fill: none; stroke: #002e67; stroke-linecap: round; stroke-linejoin: round; stroke-width: 4px;"/>
  <line x1="43.72" y1="55.31" x2="87.96" y2="55.31" style="fill: none; stroke: #002e67; stroke-linecap: round; stroke-linejoin: round; stroke-width: 4px;"/>
  <line x1="43.72" y1="83.96" x2="87.96" y2="83.96" style="fill: none; stroke: #002e67; stroke-linecap: round; stroke-linejoin: round; stroke-width: 4px;"/>
  <line x1="43.72" y1="98.24" x2="100" y2="98.24" style="fill: none; stroke: #002e67; stroke-linecap: round; stroke-linejoin: round; stroke-width: 4px;"/>
  <line x1="43.72" y1="112.52" x2="100" y2="112.52" style="fill: none; stroke: #002e67; stroke-linecap: round; stroke-linejoin: round; stroke-width: 4px;"/>
  <line x1="43.72" y1="126.79" x2="87.96" y2="126.79" style="fill: none; stroke: #002e67; stroke-linecap: round; stroke-linejoin: round; stroke-width: 4px;"/>
</svg>