<?xml version="1.0" encoding="UTF-8"?>
<svg id="ico" xmlns="http://www.w3.org/2000/svg" viewBox="0 0 200 200">
  <g>
    <path d="m98.49,112.22c-.75-.75-1.12-1.65-1.12-2.72s.37-1.97,1.12-2.72c.75-.75,1.65-1.12,2.72-1.12,1.12,0,2.06.37,2.81,1.12s1.12,1.66,1.12,2.72-.37,1.97-1.12,2.72-1.69,1.12-2.81,1.12c-1.06,0-1.97-.37-2.72-1.12Z" style="fill: none; stroke: #002e67; stroke-linecap: round; stroke-linejoin: round; stroke-width: 4px;"/>
    <path d="m80.15,60.36c4.73-4.72,11.18-7.02,19.64-7.02,5.89,0,10.62,1.33,14.05,3.95,3.31,2.53,4.92,5.82,4.92,10.07,0,2.34-.37,4.39-1.1,6.09-.76,1.77-1.69,3.29-2.76,4.54-1.16,1.33-2.75,2.89-4.73,4.63-2,1.81-3.56,3.34-4.67,4.57-1.19,1.33-2.22,2.94-3.05,4.77-.62,1.38-1.02,2.91-1.2,4.58" style="fill: none; stroke: #002e67; stroke-linecap: round; stroke-linejoin: round; stroke-width: 4px;"/>
  </g>
  <path d="m101.25,130.86h-62.69c-1.96,0-3.56-1.6-3.56-3.56V36.25c0-1.96,1.6-3.56,3.56-3.56h122.89c1.96,0,3.56,1.6,3.56,3.56v91.05c0,1.96-1.6,3.56-3.56,3.56h-28.32l-26.16,36.45" style="fill: none; stroke: #002e67; stroke-linecap: round; stroke-linejoin: round; stroke-width: 4px;"/>
</svg>