<?xml version="1.0" encoding="UTF-8"?>
<svg id="ico" xmlns="http://www.w3.org/2000/svg" viewBox="0 0 200 200">
  <line x1="100" y1="49.71" x2="100" y2="27.5" style="fill: none; stroke: #002e67; stroke-linecap: round; stroke-linejoin: round; stroke-width: 4px;"/>
  <line x1="69.04" y1="60.37" x2="55.36" y2="42.87" style="fill: none; stroke: #002e67; stroke-linecap: round; stroke-linejoin: round; stroke-width: 4px;"/>
  <line x1="130.96" y1="60.37" x2="144.64" y2="42.87" style="fill: none; stroke: #002e67; stroke-linecap: round; stroke-linejoin: round; stroke-width: 4px;"/>
  <line x1="100" y1="150.29" x2="100" y2="172.5" style="fill: none; stroke: #002e67; stroke-linecap: round; stroke-linejoin: round; stroke-width: 4px;"/>
  <line x1="69.04" y1="139.63" x2="55.36" y2="157.13" style="fill: none; stroke: #002e67; stroke-linecap: round; stroke-linejoin: round; stroke-width: 4px;"/>
  <line x1="130.96" y1="139.63" x2="144.64" y2="157.13" style="fill: none; stroke: #002e67; stroke-linecap: round; stroke-linejoin: round; stroke-width: 4px;"/>
  <path d="m100,51.71c15.53,0,29.36,7.38,38.2,18.8h4.95c-9.43-13.75-25.25-22.8-43.15-22.8s-33.72,9.04-43.15,22.8h4.95c8.84-11.42,22.67-18.8,38.2-18.8Z" style="fill: #002e67;"/>
  <path d="m100,148.29c-15.03,0-28.48-6.91-37.35-17.72h-5.03c9.51,13.14,24.96,21.72,42.38,21.72s32.87-8.57,42.38-21.72h-5.03c-8.86,10.81-22.31,17.72-37.35,17.72Z" style="fill: #002e67;"/>
  <line x1="37.34" y1="113.21" x2="37.34" y2="87.18" style="fill: none; stroke: #002e67; stroke-linecap: round; stroke-linejoin: round; stroke-width: 4px;"/>
  <line x1="56.71" y1="113.21" x2="56.71" y2="87.18" style="fill: none; stroke: #002e67; stroke-linecap: round; stroke-linejoin: round; stroke-width: 4px;"/>
  <line x1="56.71" y1="99.71" x2="37.34" y2="99.71" style="fill: none; stroke: #002e67; stroke-linecap: round; stroke-linejoin: round; stroke-width: 4px;"/>
  <line x1="90.46" y1="99.71" x2="75.56" y2="99.71" style="fill: none; stroke: #002e67; stroke-linecap: round; stroke-linejoin: round; stroke-width: 4px;"/>
  <polyline points="91.82 87.18 75.56 87.18 75.56 113.21 91.82 113.21" style="fill: none; stroke: #002e67; stroke-linecap: round; stroke-linejoin: round; stroke-width: 4px;"/>
  <polyline points="105.91 87.18 105.91 113.21 122.18 113.21" style="fill: none; stroke: #002e67; stroke-linecap: round; stroke-linejoin: round; stroke-width: 4px;"/>
  <polyline points="162.66 113.21 162.66 87.18 149.48 98.96 136.3 87.18 136.3 113.21" style="fill: none; stroke: #002e67; stroke-linecap: round; stroke-linejoin: round; stroke-width: 4px;"/>
</svg>