<?xml version="1.0" encoding="UTF-8"?>
<svg id="ico" xmlns="http://www.w3.org/2000/svg" viewBox="0 0 200 200">
  <g>
    <path d="m97.22,85.87h23.85c6.06,0,11.03,4.96,11.03,11.03v23.85c0,6.06-4.96,11.03-11.03,11.03h-23.85c-6.06,0-11.03-4.96-11.03-11.03v-23.85" style="fill: none; stroke: #002e67; stroke-linecap: round; stroke-linejoin: round; stroke-width: 4px;"/>
    <path d="m101.35,112.06h-23.85c-6.06,0-11.03-4.96-11.03-11.03v-23.85c0-6.06,4.96-11.03,11.03-11.03h23.85c6.06,0,11.03,4.96,11.03,11.03v23.85" style="fill: none; stroke: #002e67; stroke-linecap: round; stroke-linejoin: round; stroke-width: 4px;"/>
    <circle cx="89.42" cy="89.1" r="7.53" style="fill: none; stroke: #002e67; stroke-linecap: round; stroke-linejoin: round; stroke-width: 4px;"/>
    <circle cx="109.14" cy="108.82" r="7.53" style="fill: none; stroke: #002e67; stroke-linecap: round; stroke-linejoin: round; stroke-width: 4px;"/>
  </g>
  <path d="m175,100c0-8.93-7.1-17.08-18.8-23.28,3.89-12.66,3.15-23.44-3.17-29.75-6.31-6.31-17.1-7.05-29.75-3.17-6.2-11.7-14.35-18.8-23.28-18.8s-17.08,7.1-23.28,18.8c-12.66-3.89-23.44-3.15-29.75,3.17-6.31,6.31-7.05,17.1-3.17,29.75-11.7,6.2-18.8,14.35-18.8,23.28s7.1,17.08,18.8,23.28c-3.89,12.66-3.15,23.44,3.17,29.75s17.1,7.05,29.75,3.17c6.2,11.7,14.35,18.8,23.28,18.8s17.08-7.1,23.28-18.8c12.66,3.89,23.44,3.15,29.75-3.17,6.31-6.31,7.05-17.1,3.17-29.75,11.7-6.2,18.8-14.35,18.8-23.28Z" style="fill: none; stroke: #002e67; stroke-linecap: round; stroke-linejoin: round; stroke-width: 4px;"/>
</svg>