<?xml version="1.0" encoding="UTF-8"?>
<svg id="Livello_1" data-name="Livello 1" xmlns="http://www.w3.org/2000/svg" viewBox="0 0 101.69 100">
  <path d="m50.89,0C22.75,0,0,22.92,0,51.27c0,22.66,14.58,41.85,34.8,48.64,2.53.51,3.45-1.1,3.45-2.46,0-1.19-.08-5.26-.08-9.51-14.16,3.06-17.1-6.11-17.1-6.11-2.27-5.94-5.65-7.47-5.65-7.47-4.63-3.14.34-3.14.34-3.14,5.14.34,7.84,5.26,7.84,5.26,4.55,7.81,11.88,5.6,14.83,4.24.42-3.31,1.77-5.6,3.2-6.87-11.29-1.19-23.17-5.6-23.17-25.29,0-5.6,2.02-10.19,5.22-13.75-.51-1.27-2.27-6.54.51-13.58,0,0,4.3-1.36,13.99,5.26,4.15-1.12,8.43-1.69,12.72-1.7,4.3,0,8.68.59,12.72,1.7,9.69-6.62,13.99-5.26,13.99-5.26,2.78,7.04,1.01,12.31.51,13.58,3.29,3.56,5.22,8.15,5.22,13.75,0,19.69-11.88,24.02-23.25,25.29,1.85,1.61,3.45,4.67,3.45,9.51,0,6.87-.08,12.39-.08,14.09,0,1.36.93,2.97,3.45,2.46,20.22-6.79,34.8-25.97,34.8-48.64.08-28.35-22.75-51.27-50.81-51.27Z" style="fill-rule: evenodd;"/>
</svg>