<?xml version="1.0" encoding="UTF-8"?>
<svg id="Livello_1" data-name="Livello 1" xmlns="http://www.w3.org/2000/svg" viewBox="0 0 167.23 120">
  <path d="m165.58,45.3c-.45-.36-4.69-3.56-13.62-3.56-2.36.01-4.71.21-7.04.6-1.73-11.85-11.52-17.62-11.96-17.88l-2.4-1.38-1.58,2.28c-1.97,3.06-3.42,6.43-4.26,9.97-1.6,6.76-.63,13.11,2.81,18.54-4.15,2.31-10.8,2.88-12.15,2.93H5.23c-2.88,0-5.21,2.33-5.23,5.21-.13,9.65,1.51,19.24,4.82,28.31,3.79,9.95,9.44,17.28,16.78,21.77,8.23,5.04,21.6,7.92,36.76,7.92,6.85.02,13.68-.6,20.41-1.85,9.36-1.72,18.36-4.99,26.64-9.68,6.82-3.95,12.96-8.98,18.18-14.88,8.73-9.88,13.93-20.88,17.79-30.66h1.54c9.56,0,15.43-3.82,18.67-7.03,2.15-2.04,3.83-4.53,4.93-7.29l.68-2-1.65-1.3Z"/>
  <path d="m15.45,53.57h14.76c.71,0,1.29-.58,1.29-1.29v-13.15c0-.71-.57-1.29-1.28-1.3h-14.77c-.71,0-1.29.58-1.29,1.29h0v13.16c0,.71.58,1.29,1.29,1.29h0Z"/>
  <path d="m35.79,53.57h14.76c.71,0,1.29-.58,1.29-1.29v-13.15c0-.71-.57-1.29-1.28-1.3h-14.77c-.72,0-1.3.58-1.3,1.3v13.15c0,.71.58,1.29,1.3,1.29"/>
  <path d="m56.44,53.57h14.76c.71,0,1.29-.58,1.29-1.29v-13.15c0-.71-.57-1.29-1.28-1.3h-14.77c-.71,0-1.29.58-1.29,1.29h0v13.16c0,.71.58,1.29,1.29,1.29h0Z"/>
  <path d="m76.85,53.57h14.76c.71,0,1.29-.58,1.3-1.29v-13.15c0-.72-.58-1.3-1.3-1.3h-14.76c-.71,0-1.29.58-1.29,1.29h0v13.16c0,.71.58,1.29,1.29,1.29h0Z"/>
  <path d="m35.79,34.66h14.76c.71,0,1.29-.58,1.29-1.3v-13.15c0-.71-.58-1.29-1.29-1.29h-14.76c-.71,0-1.29.58-1.3,1.29v13.15c0,.71.58,1.29,1.3,1.3"/>
  <path d="m56.44,34.66h14.76c.71,0,1.29-.58,1.29-1.3v-13.15c0-.71-.58-1.29-1.29-1.29h-14.76c-.71,0-1.29.58-1.29,1.29v13.15c0,.71.58,1.29,1.29,1.3"/>
  <path d="m76.85,34.66h14.76c.71,0,1.29-.58,1.3-1.3v-13.15c0-.71-.58-1.29-1.3-1.29h-14.76c-.71,0-1.29.58-1.29,1.29v13.15c0,.71.58,1.29,1.29,1.3"/>
  <path d="m76.85,15.73h14.76c.71,0,1.29-.58,1.3-1.29V1.29c0-.71-.58-1.29-1.3-1.29h-14.76c-.71,0-1.29.58-1.29,1.29v13.16c0,.71.58,1.29,1.29,1.29"/>
  <path d="m97.43,53.57h14.76c.71,0,1.29-.58,1.3-1.29v-13.15c0-.72-.58-1.3-1.3-1.3h-14.76c-.71,0-1.29.58-1.29,1.29h0v13.16c0,.71.58,1.29,1.29,1.29"/>
</svg>