<?xml version="1.0" encoding="UTF-8"?>
<svg id="Livello_1" data-name="Livello 1" xmlns="http://www.w3.org/2000/svg" viewBox="0 0 110 101.14">
  <polygon points="62.21 50.56 62.21 50.56 62.21 50.56 86.11 0 65.75 0 41.86 50.56 65.75 101.14 86.11 101.14 62.21 50.56"/>
  <polygon points="89.65 50.56 77.15 77.03 87.33 98.57 110 50.56 87.33 2.58 77.15 24.1 89.65 50.56"/>
  <polygon points="20.35 50.56 20.35 50.56 20.35 50.56 44.25 0 23.89 0 0 50.56 23.89 101.14 44.25 101.14 20.35 50.56"/>
  <polygon points="43.61 41.71 53.78 20.17 45.47 2.57 35.28 24.12 43.61 41.71"/>
  <polygon points="35.29 77.02 45.47 98.57 53.79 80.97 43.61 59.42 35.29 77.02"/>
</svg>