<?xml version="1.0" encoding="UTF-8"?>
<svg id="Livello_1" data-name="Livello 1" xmlns="http://www.w3.org/2000/svg" viewBox="0 0 528 528.81">
  <g id="_3D_modeling_software" data-name="3D modeling software">
    <g>
      <path d="m443.8,466.41c-12.69,11.72-26.59,22.17-41.5,30.87-97.4,56.83-213.56,27.42-290.69-30.87-10.84-8.19-20.9-16.94-30.03-26.11C-15.57,342.78-23.61,182.53,44.99,87.52,73.52,48.02,133.07-6.7,196.66.67c53.89,6.25,61.08,51.25,150.81,121.75,101.74,79.94,145.71,63.9,169.45,114.34,29.9,63.52-3.76,165.62-73.12,229.66Z" style="fill: #ceecf1;"/>
      <path d="m443.8,466.41c-12.69,11.72-26.59,22.17-41.5,30.87-97.4,56.83-213.56,27.42-290.69-30.87h332.19Z" style="fill: #ceecf1;"/>
    </g>
    <g>
      <g>
        <g>
          <g>
            <polygon points="113.26 164.79 113.26 198.61 142.82 215.97 142.82 182.53 113.26 164.79" style="fill: #ceecf1;"/>
            <path d="m142.82,216.92c-.17,0-.33-.04-.48-.13l-29.56-17.36c-.29-.17-.47-.48-.47-.82v-33.82c0-.34.18-.66.48-.83.3-.17.67-.16.96.01l29.56,17.74c.29.17.46.48.46.82v33.44c0,.34-.18.66-.48.83-.15.08-.31.13-.47.13Zm-28.6-18.86l27.65,16.24v-31.23l-27.65-16.59v31.59Z" style="fill: #002e67;"/>
          </g>
          <polygon points="89.25 116.82 118.48 133.53 89.66 151 60.15 133.69 89.25 116.82" style="fill: #5dc0cf;"/>
          <g>
            <polygon points="142.76 147.59 171.99 164.3 143.17 181.78 113.66 164.46 142.76 147.59" style="fill: #5dc0cf;"/>
            <path d="m143.17,182.73c-.17,0-.33-.04-.48-.13l-29.5-17.32c-.29-.17-.47-.49-.47-.83s.18-.65.48-.82l29.1-16.87c.29-.17.66-.17.95,0l29.23,16.71c.29.17.48.48.48.82,0,.34-.17.65-.46.83l-28.82,17.48c-.15.09-.32.14-.49.14Zm-27.61-18.26l27.6,16.2,26.95-16.34-27.34-15.64-27.21,15.78Z" style="fill: #002e67;"/>
          </g>
          <polygon points="117.34 200.93 146.56 183.76 118.7 167.56 89.36 184.74 59.95 167.44 6.56 198.55 36.13 215.77 61.29 200.91 64.19 202.65 64.12 232.07 90.13 247.22 142.8 215.83 117.34 200.93" style="fill: #5dc0cf;"/>
          <polygon points="64.19 202.65 89.12 217.27 64.22 231.67 64.19 202.65" style="fill: #fff;"/>
          <path d="m90.13,248.17c-.17,0-.33-.04-.48-.13l-26.01-15.15c-.29-.17-.47-.49-.47-.83l.07-28.88-1.95-1.17-24.67,14.57c-.3.17-.67.18-.97,0l-29.57-17.22c-.29-.17-.47-.48-.47-.82s.18-.65.47-.82l53.39-31.11c.3-.17.67-.17.96,0l28.92,17.02,28.86-16.9c.3-.17.66-.17.96,0l27.87,16.2c.29.17.47.48.47.82,0,.34-.18.65-.47.82l-27.82,16.34,24.05,14.08c.29.17.47.48.47.82,0,.34-.18.65-.47.82l-52.67,31.39c-.15.09-.32.13-.49.13Zm-25.05-16.65l25.05,14.59,50.8-30.27-24.06-14.09c-.29-.17-.47-.48-.47-.82,0-.34.18-.65.47-.82l27.81-16.34-25.97-15.1-28.86,16.9c-.3.18-.67.17-.97,0l-28.92-17.02-51.49,30.01,27.67,16.11,24.68-14.57c.3-.18.68-.18.98,0l2.9,1.74c.29.17.46.48.46.82l-.07,28.87Z" style="fill: #002e67;"/>
          <g>
            <polygon points="89.12 48.02 89.12 116.19 118.91 133.53 118.72 167.53 146.57 183.74 146.77 149.86 171.89 164.24 171.89 96.21 89.12 48.02" style="fill: #ceecf1;"/>
            <path d="m146.57,184.7c-.17,0-.33-.04-.48-.13l-27.86-16.22c-.3-.17-.48-.49-.47-.83l.2-33.45-29.32-17.07c-.29-.17-.47-.49-.47-.82V48.02c0-.34.18-.66.48-.83.3-.17.66-.17.96,0l82.77,48.18c.29.17.47.48.47.82v68.03c0,.34-.18.65-.48.83-.29.17-.66.17-.95,0l-23.7-13.57-.19,32.26c0,.34-.19.65-.48.82-.15.08-.31.13-.47.13Zm-26.9-17.72l25.96,15.11.19-32.24c0-.34.18-.65.48-.82.29-.17.66-.17.95,0l23.69,13.56v-65.83l-80.87-47.07v65.95l29.32,17.07c.3.17.48.49.47.83l-.2,33.45Z" style="fill: #002e67;"/>
          </g>
          <g>
            <polygon points="89.07 48.13 89.07 116.3 89.07 116.48 59.7 133.57 59.74 167.74 59.6 167.82 6.53 198.73 6.53 96.2 89.07 48.13" style="fill: #fff;"/>
            <path d="m6.53,199.69c-.16,0-.33-.04-.48-.13-.3-.17-.48-.49-.48-.83v-102.53c0-.34.18-.65.47-.82l82.54-48.07c.3-.17.66-.17.96,0,.3.17.48.49.48.83v68.36c0,.34-.18.65-.47.82l-28.9,16.81.04,33.63c0,.34-.18.65-.47.83l-53.21,30.99c-.15.09-.31.13-.48.13Zm.95-102.94v100.33l51.3-29.88-.04-33.63c0-.34.18-.65.47-.83l28.9-16.81V49.79L7.48,96.75Z" style="fill: #002e67;"/>
          </g>
          <g>
            <polygon points="59.8 133.57 59.8 167.38 89.36 184.74 89.36 151.3 59.8 133.57" style="fill: #ceecf1;"/>
            <path d="m89.36,185.7c-.17,0-.33-.04-.48-.13l-29.56-17.36c-.29-.17-.47-.48-.47-.82v-33.82c0-.34.18-.66.48-.83.3-.17.67-.16.96.01l29.56,17.74c.29.17.46.48.46.82v33.44c0,.34-.18.66-.48.83-.15.08-.31.13-.47.13Zm-28.6-18.86l27.65,16.24v-31.23l-27.65-16.59v31.59Z" style="fill: #002e67;"/>
          </g>
          <g>
            <polygon points="118.83 133.53 118.83 167.34 89.49 184.49 89.49 150.96 118.83 133.53" style="fill: #fff;"/>
            <path d="m89.49,185.44c-.16,0-.33-.04-.47-.13-.3-.17-.48-.49-.48-.83v-33.53c0-.34.18-.65.47-.82l29.34-17.43c.29-.18.66-.18.96,0,.3.17.48.49.48.83v33.81c0,.34-.18.65-.47.82l-29.34,17.15c-.15.09-.31.13-.48.13Zm.95-33.94v31.33l27.43-16.03v-31.58l-27.43,16.29Z" style="fill: #002e67;"/>
          </g>
        </g>
        <g>
          <path d="m6.55,130.87c-.33,0-.65-.17-.83-.47-.26-.46-.11-1.04.34-1.3l82.03-47.72c.46-.26,1.04-.11,1.3.35.26.46.11,1.04-.34,1.3L7.03,130.74c-.15.09-.32.13-.48.13Z" style="fill: #002e67;"/>
          <path d="m6.55,165.31c-.33,0-.65-.17-.83-.47-.26-.46-.11-1.04.35-1.3l82.47-47.93c.46-.26,1.04-.11,1.3.35.26.46.11,1.04-.35,1.3L7.03,165.18c-.15.09-.32.13-.48.13Z" style="fill: #002e67;"/>
          <path d="m59.69,168.62c-.53,0-.95-.43-.95-.95v-101.7c0-.53.43-.95.95-.95s.95.43.95.95v101.7c0,.53-.43.95-.95.95Z" style="fill: #002e67;"/>
          <path d="m31.71,185.06c-.53,0-.95-.43-.95-.95v-102.05c0-.53.43-.95.95-.95s.95.43.95.95v102.05c0,.53-.43.95-.95.95Z" style="fill: #002e67;"/>
          <path d="m171.82,130.92c-.16,0-.33-.04-.48-.13l-81.98-47.77c-.46-.27-.61-.85-.34-1.3.26-.46.85-.61,1.3-.34l81.98,47.77c.46.27.61.85.34,1.3-.18.3-.5.47-.83.47Z" style="fill: #002e67;"/>
          <path d="m171.82,165.32c-.16,0-.33-.04-.48-.13l-82.64-48.17c-.46-.27-.61-.85-.34-1.3.27-.46.85-.61,1.3-.34l82.64,48.17c.46.27.61.85.34,1.3-.18.3-.5.47-.83.47Z" style="fill: #002e67;"/>
          <path d="m118.8,168.06c-.53,0-.95-.43-.95-.95v-101.14c0-.53.43-.95.95-.95s.95.43.95.95v101.14c0,.53-.43.95-.95.95Z" style="fill: #002e67;"/>
          <path d="m146.77,184.57c-.53,0-.95-.43-.95-.95v-101.57c0-.53.43-.95.95-.95s.95.43.95.95v101.57c0,.53-.43.95-.95.95Z" style="fill: #002e67;"/>
          <path d="m36.24,216.53c-.33,0-.65-.17-.83-.47-.26-.46-.11-1.04.34-1.3l82.17-47.82c.46-.26,1.04-.11,1.3.34.26.46.11,1.04-.34,1.3l-82.17,47.82c-.15.09-.32.13-.48.13Z" style="fill: #002e67;"/>
          <path d="m142.55,216.53c-.16,0-.33-.04-.48-.13l-82.17-47.82c-.46-.27-.61-.85-.34-1.3s.85-.61,1.3-.34l82.17,47.82c.46.27.61.85.34,1.3-.18.3-.5.47-.83.47Z" style="fill: #002e67;"/>
          <path d="m114.57,232.97c-.16,0-.33-.04-.48-.13l-82.17-47.82c-.46-.27-.61-.85-.34-1.3.26-.46.85-.61,1.3-.34l82.17,47.82c.46.27.61.85.34,1.3-.18.3-.5.47-.83.47Z" style="fill: #002e67;"/>
          <path d="m64.22,232.62c-.33,0-.65-.17-.83-.47-.26-.46-.11-1.04.34-1.3l82.17-47.82c.46-.26,1.04-.11,1.3.34.26.46.11,1.04-.34,1.3l-82.17,47.82c-.15.09-.32.13-.48.13Z" style="fill: #002e67;"/>
        </g>
      </g>
      <g>
        <g>
          <polygon points="124.33 156.3 95.49 139.53 66.66 156.32 95.81 173.3 124.33 156.3" style="fill: #5dc0cf;"/>
          <path d="m95.81,174.25c-.17,0-.33-.04-.48-.13l-29.15-16.98c-.29-.17-.47-.48-.47-.82s.18-.65.47-.82l28.82-16.79c.3-.17.66-.17.96,0l28.85,16.77c.29.17.47.48.47.82,0,.34-.18.65-.47.82l-28.52,17c-.15.09-.32.13-.49.13Zm-27.25-17.93l27.25,15.87,26.64-15.88-26.97-15.68-26.93,15.69Z" style="fill: #002e67;"/>
        </g>
        <g>
          <polygon points="95.49 105.56 95.49 139.67 124.45 156.36 124.45 122.65 95.49 105.56" style="fill: #ceecf1;"/>
          <path d="m124.45,157.31c-.16,0-.33-.04-.48-.13l-28.96-16.69c-.3-.17-.48-.49-.48-.83v-34.1c0-.34.18-.66.48-.83.3-.17.66-.17.96,0l28.96,17.08c.29.17.47.48.47.82v33.71c0,.34-.18.66-.48.83-.15.09-.31.13-.48.13Zm-28.01-18.2l27.05,15.59v-31.52l-27.05-15.96v31.88Z" style="fill: #002e67;"/>
        </g>
        <g>
          <polygon points="95.49 105.56 95.49 139.67 66.78 156.38 66.78 122.56 95.49 105.56" style="fill: #fff;"/>
          <path d="m66.78,157.33c-.16,0-.33-.04-.48-.13-.3-.17-.48-.49-.48-.83v-33.82c0-.34.18-.65.47-.82l28.71-17c.29-.17.66-.18.96,0,.3.17.48.49.48.83v34.1c0,.34-.18.65-.47.82l-28.71,16.71c-.15.09-.31.13-.48.13Zm.95-34.23v31.61l26.8-15.6v-31.88l-26.8,15.87Z" style="fill: #002e67;"/>
        </g>
      </g>
      <g>
        <g>
          <polygon points="83.31 269.58 55.43 253.37 27.57 269.6 55.74 286.01 83.31 269.58" style="fill: #5dc0cf;"/>
          <path d="m55.74,286.97c-.17,0-.33-.04-.48-.13l-28.18-16.41c-.29-.17-.47-.48-.47-.82s.18-.65.47-.82l27.86-16.23c.3-.17.66-.17.96,0l27.88,16.21c.29.17.47.48.47.82,0,.34-.18.65-.47.82l-27.57,16.43c-.15.09-.32.13-.49.13Zm-26.28-17.36l26.28,15.3,25.69-15.31-26-15.12-25.97,15.13Z" style="fill: #002e67;"/>
        </g>
        <g>
          <polygon points="55.43 220.54 55.43 253.5 83.42 269.64 83.42 237.05 55.43 220.54" style="fill: #ceecf1;"/>
          <path d="m83.42,270.59c-.16,0-.33-.04-.48-.13l-27.99-16.14c-.3-.17-.48-.49-.48-.83v-32.97c0-.34.18-.66.48-.83.3-.17.66-.17.96,0l27.99,16.51c.29.17.47.48.47.82v32.59c0,.34-.18.66-.48.83-.15.09-.31.13-.48.13Zm-27.04-17.64l26.09,15.04v-30.39l-26.09-15.39v30.74Z" style="fill: #002e67;"/>
        </g>
        <g>
          <polygon points="55.43 220.54 55.43 253.5 27.68 269.66 27.68 236.97 55.43 220.54" style="fill: #fff;"/>
          <path d="m27.68,270.61c-.16,0-.33-.04-.48-.13-.3-.17-.48-.49-.48-.83v-32.69c0-.34.18-.65.47-.82l27.75-16.43c.29-.17.66-.18.96,0,.3.17.48.49.48.83v32.97c0,.34-.18.65-.47.82l-27.75,16.16c-.15.09-.31.13-.48.13Zm.95-33.1v30.49l25.84-15.05v-30.74l-25.84,15.3Z" style="fill: #002e67;"/>
        </g>
      </g>
      <g>
        <g>
          <polygon points="188.13 246.43 160.25 230.21 132.39 246.45 160.56 262.86 188.13 246.43" style="fill: #5dc0cf;"/>
          <path d="m160.56,263.81c-.17,0-.33-.04-.48-.13l-28.18-16.41c-.29-.17-.47-.48-.47-.82s.18-.65.47-.82l27.86-16.23c.3-.17.66-.17.96,0l27.88,16.21c.29.17.47.48.47.82,0,.34-.18.65-.47.82l-27.57,16.43c-.15.09-.32.13-.49.13Zm-26.28-17.36l26.28,15.3,25.69-15.31-26-15.12-25.97,15.13Z" style="fill: #002e67;"/>
        </g>
        <g>
          <polygon points="160.25 197.38 160.25 230.35 188.24 246.49 188.24 213.9 160.25 197.38" style="fill: #ceecf1;"/>
          <path d="m188.24,247.44c-.16,0-.33-.04-.48-.13l-27.99-16.14c-.3-.17-.48-.49-.48-.83v-32.97c0-.34.18-.66.48-.83.3-.17.66-.17.96,0l27.99,16.51c.29.17.47.48.47.82v32.59c0,.34-.18.66-.48.83-.15.09-.31.13-.48.13Zm-27.04-17.64l26.09,15.04v-30.39l-26.09-15.39v30.74Z" style="fill: #002e67;"/>
        </g>
        <g>
          <polygon points="160.25 197.38 160.25 230.35 132.5 246.51 132.5 213.82 160.25 197.38" style="fill: #fff;"/>
          <path d="m132.5,247.46c-.16,0-.33-.04-.48-.13-.3-.17-.48-.49-.48-.83v-32.69c0-.34.18-.65.47-.82l27.75-16.43c.29-.17.66-.18.96,0,.3.17.48.49.48.83v32.97c0,.34-.18.65-.47.82l-27.75,16.16c-.15.09-.31.13-.48.13Zm.95-33.1v30.49l25.84-15.05v-30.74l-25.84,15.3Z" style="fill: #002e67;"/>
        </g>
      </g>
    </g>
    <g>
      <g>
        <g>
          <path d="m393.69,259.66v29.57c0,28.92-22.83,52.36-51,52.36s-51,23.44-51,52.36c0,2.58,2.09,4.67,4.66,4.67h134.99c42.22,0,76.45-35.14,76.45-78.49v-63.09c0-17.24-13.61-31.22-30.41-31.22h-50.73c-18.21,0-32.97,15.15-32.97,33.85Z" style="fill: #5dc0cf;"/>
          <rect x="397.03" y="345.32" width="12.23" height="142.43" style="fill: #5dc0cf;"/>
          <polygon points="345.81 492.37 399.95 487.62 404.92 487.62 460.18 492.37 460.18 496.15 345.81 496.15 345.81 492.37" style="fill: #5dc0cf;"/>
        </g>
        <g>
          <g>
            <g>
              <path d="m366.28,467.52c-1.26-1.27-8.51-23.84-8.51-23.84l-14.33,10.23,15.71,21.12,7.13-7.51Z" style="fill: #fff;"/>
              <path d="m359.15,475.99s-.04,0-.06,0c-.28-.02-.54-.16-.71-.38l-15.71-21.12c-.15-.21-.22-.46-.18-.72.04-.25.18-.48.39-.63l14.33-10.23c.25-.18.57-.22.85-.13.29.1.52.32.61.61,3.4,10.59,7.47,22.42,8.3,23.48.36.37.34.93,0,1.3l-7.13,7.51c-.18.19-.43.3-.69.3Zm-14.37-21.86l14.46,19.43,5.86-6.18c-1.69-3.39-5.71-15.57-7.84-22.16l-12.48,8.9Z" style="fill: #002e67;"/>
            </g>
            <g>
              <path d="m340.45,496.05l9.53-.06c6.31-.04,12.17-3.24,15.61-8.53l9.43-14.92c2.6-4.12,1.15-9.59-3.16-11.88-3.93-2.09-8.06-4.13-9.02-4.04-1.96.19-2.75,9.46-2.75,9.46l-8.49.33s-4.2,17.45-7.89,19.43c-2.69,1.44-4.57,3.57-5.83,5.5-1.32,2.03.15,4.71,2.57,4.7Z" style="fill: #002e67;"/>
              <path d="m341.4,493.28c-.46,0-.87-.34-.94-.81-.08-.52.28-1.01.8-1.09l13.04-1.96c2.65-.4,4.96-1.95,6.34-4.25l11.52-19.25c.27-.45.86-.6,1.31-.33.45.27.6.86.33,1.31l-11.52,19.25c-1.67,2.79-4.48,4.67-7.69,5.16l-13.04,1.96s-.1.01-.14.01Z" style="fill: #fff;"/>
              <path d="m357.5,478.81c-.08,0-.17-.01-.25-.03l-7.26-1.98c-.51-.14-.81-.66-.67-1.17.14-.51.66-.81,1.17-.67l7.26,1.98c.51.14.81.66.67,1.17-.12.42-.5.7-.92.7Z" style="fill: #fff;"/>
              <path d="m353.72,482.54c-.07,0-.15,0-.23-.03l-4.87-1.19c-.51-.13-.83-.64-.7-1.15.13-.51.64-.83,1.15-.7l4.87,1.19c.51.13.83.64.7,1.15-.11.44-.5.73-.93.73Z" style="fill: #fff;"/>
            </g>
            <g>
              <polygon points="317.37 463.21 300.73 479.94 291.9 476.7 307.24 455.3 317.37 463.21" style="fill: #fff;"/>
              <path d="m300.73,480.89c-.11,0-.22-.02-.33-.06l-8.82-3.24c-.28-.1-.5-.33-.58-.62-.09-.28-.04-.59.14-.84l15.34-21.39c.15-.21.38-.35.64-.39.26-.04.52.03.72.19l10.12,7.91c.21.17.35.42.36.69.02.27-.08.54-.28.73l-16.64,16.72c-.18.18-.43.28-.68.28Zm-7.32-4.66l7.07,2.6,15.45-15.53-8.49-6.64-14.03,19.56Z" style="fill: #002e67;"/>
            </g>
            <g>
              <path d="m305.98,477.32s.8,7.11-.56,13.4c-.73,3.35-3.75,5.71-7.17,5.71h-40.84c-2.92,0-4.24-3.64-2-5.52,7.26-6.08,20.62-15.37,37.05-18.1l4.58,6.41,8.95-1.9Z" style="fill: #002e67;"/>
              <path d="m301.68,491.76h-42.33c-.53,0-.95-.43-.95-.95s.43-.95.95-.95h42.33c.53,0,.95.43.95.95s-.43.95-.95.95Z" style="fill: #fff;"/>
              <path d="m282.97,484.24c-.37,0-.73-.22-.88-.59l-2.24-5.43c-.2-.49.03-1.04.52-1.25.49-.2,1.04.03,1.25.52l2.24,5.43c.2.49-.03,1.04-.52,1.25-.12.05-.24.07-.36.07Z" style="fill: #fff;"/>
              <path d="m275.6,485.67c-.4,0-.77-.25-.91-.65l-1.62-4.9c-.17-.5.11-1.04.61-1.2.5-.17,1.04.11,1.21.61l1.62,4.9c.17.5-.11,1.04-.61,1.2-.1.03-.2.05-.3.05Z" style="fill: #fff;"/>
            </g>
            <path d="m405.46,346.21s-76.06-8.85-98.67,10.72c-22.62,19.58,35.7,103.77,35.7,103.77l18.44-13.68-17.49-59.5,70.31-19.97-8.28-21.34Z" style="fill: #002e67;"/>
            <path d="m447.32,384.96c-11.05,3.51-30.82,8.04-58.45,7.66-7.85-.11-15.1,4.23-18.66,11.22-8.18,16.05-25.9,44.95-54.75,63.68l-13.78-7.42,35.17-79.17c3.21-7.23,9.22-12.85,16.64-15.57l69.71-25.56s21.61-6.04,32.21,13.25c1.89,3.45,5.41-2.71,6.24.07,2.87,9.53-4.85,28.83-14.33,31.84Z" style="fill: #002e67;"/>
            <path d="m320.95,417.65c-.13,0-.26-.03-.39-.08-.48-.21-.7-.78-.48-1.26l15.89-35.78c3.3-7.42,9.56-13.28,17.19-16.08l33.38-12.24c.49-.18,1.04.07,1.22.57.18.49-.07,1.04-.57,1.22l-33.38,12.24c-7.14,2.62-13.01,8.11-16.1,15.06l-15.89,35.78c-.16.36-.51.57-.87.57Z" style="fill: #fff;"/>
            <path d="m339.51,448.41c-.24,0-.48-.09-.66-.27-.38-.37-.39-.97-.03-1.35,3.17-3.29,6.28-6.83,9.26-10.52.33-.41.93-.47,1.34-.14.41.33.47.93.14,1.34-3.02,3.73-6.17,7.31-9.37,10.64-.19.19-.44.29-.69.29Z" style="fill: #fff;"/>
            <path d="m348.83,437.83c-.21,0-.42-.07-.6-.21-.41-.33-.47-.93-.14-1.34,1.46-1.81,2.92-3.69,4.34-5.59.32-.42.91-.51,1.33-.19.42.31.51.91.19,1.34-1.43,1.92-2.91,3.82-4.39,5.65-.19.23-.46.35-.74.35Z" style="fill: #fff;"/>
          </g>
          <g>
            <g>
              <path d="m388.18,284.78s-6.69,60.74-51.61,64.72l51.61.73s19.11-38.72,19.89-53.8c.78-15.08-19.89-11.65-19.89-11.65Z" style="fill: #fff;"/>
              <path d="m388.18,351.18h-.01l-51.61-.73c-.51,0-.92-.41-.94-.92-.02-.51.36-.94.87-.99,18.25-1.61,32.33-12.8,41.85-33.26,7.15-15.36,8.88-30.46,8.9-30.61.05-.42.37-.77.79-.84.47-.08,11.68-1.87,17.56,3.39,2.48,2.21,3.63,5.33,3.43,9.26-.78,15.1-19.2,52.59-19.98,54.17-.16.33-.49.53-.86.53Zm-42.16-2.51l41.57.59c2.3-4.73,18.82-39.13,19.52-52.89.17-3.32-.77-5.92-2.79-7.73-4.42-3.95-12.82-3.31-15.29-3.02-.45,3.26-2.59,16.74-8.95,30.42-8.01,17.24-19.67,28.36-34.06,32.63Z" style="fill: #002e67;"/>
            </g>
            <g>
              <path d="m452.11,246.17c-8.71-2.05-12.35-2.08-44.03-.93-7.74.28-16.95,10-17.86,17.69,2.46,7.38,13.82,43.81-6.01,72.28-2.81,4.04-6.64,8.47-11.89,12.72,2.95,2.39,7.53,5.49,13.69,7.32,10.22,3.03,15.36-.25,23.6,0,21.79.65,29.77,24.91,43.85,21.87,3.76-.81,8.74-3.74,13.41-13.57,2.65-8.15,5-17.72,6.31-28.54,3.55-29.32-2.26-53.74-7.46-69.07-1.54-4.84-3.33-17.35-13.61-19.76Z" style="fill: #fff;"/>
              <path d="m451.05,378.33c-6,0-11.05-4.51-16.36-9.25-6.59-5.88-14.05-12.55-25.11-12.88-2.88-.08-5.44.28-7.92.64-4.52.65-9.18,1.32-15.92-.68-4.99-1.48-9.7-4-14.02-7.49l-.92-.74.92-.74c4.54-3.67,8.47-7.88,11.7-12.52,18.13-26.04,10.16-58.63,5.89-71.43l-.07-.2.02-.21c.93-7.83,10.2-18.22,18.77-18.53,32.25-1.17,35.56-1.1,44.28.95,9.4,2.21,12.05,12.12,13.63,18.03.25.92.46,1.72.67,2.37,7.78,22.94,10.3,46.32,7.5,69.47-1.17,9.69-3.31,19.36-6.35,28.72l-.05.11c-3.88,8.17-8.61,12.92-14.07,14.1-.89.19-1.76.28-2.61.28Zm-42.33-24.05c.3,0,.61,0,.92.01,11.75.35,19.49,7.26,26.32,13.36,5.94,5.3,11.06,9.87,17.3,8.53,4.83-1.05,9.11-5.42,12.72-13,2.99-9.23,5.1-18.75,6.25-28.3,2.77-22.87.28-45.96-7.41-68.64-.23-.71-.44-1.53-.7-2.47-1.47-5.51-3.93-14.72-12.23-16.67-8.49-2-11.76-2.06-43.77-.9-6.95.25-15.88,9.07-16.92,16.64,4.38,13.22,12.33,46.32-6.2,72.92-3.11,4.47-6.86,8.55-11.15,12.15,3.87,2.96,8.05,5.12,12.44,6.42,6.34,1.88,10.6,1.27,15.11.62,2.29-.33,4.66-.67,7.33-.67Z" style="fill: #002e67;"/>
            </g>
            <g>
              <path d="m382.27,291.58s5.12-41.07,19.89-44.58c-5.19,15.96-6.92,33.33-6.17,51.71.03.76-.81,1.25-1.45.83l-12.27-7.96Z" style="fill: #fff;"/>
              <path d="m395.05,300.65c-.36,0-.72-.1-1.03-.31l-12.77-8.29.07-.59c.21-1.7,5.38-41.77,20.61-45.39l1.65-.39-.53,1.62c-4.92,15.12-6.92,31.93-6.12,51.38.03.71-.34,1.38-.96,1.73-.29.17-.61.25-.93.25Zm-11.75-9.54l11.76,7.64c-.8-18.9,1.04-35.35,5.61-50.21-11.78,5.58-16.71,37.8-17.37,42.58Z" style="fill: #002e67;"/>
            </g>
          </g>
          <g>
            <g>
              <path d="m426.9,245.26l-.87-12.34c-.59-.04-1-.07-1.12-.07-3.44-.04-4.56-1.16-4.86-3.98-.19-1.77-.25-4.39.61-7.68.09-.35.07-.72-.07-1.06l-.59-1.38c-.12-.45.03-.94.4-1.24l.31-.26c1.12-.92,2.06-2.05,2.81-3.31.69-1.16,1.86-3.32,2.66-3.71,2.26-1.08,11.44-5.88,16.57,2.51,4,6.54-2.54,15.55-4.91,18.5-.57.71,3.88,14.7,3.88,14.7l5.65.96s-4.34,8.32-17.83,5.06c-9.61-2.32-8.08-5.9-8.08-5.9l5.44-.8Z" style="fill: #fff;"/>
              <path d="m435.53,253.68c-1.83,0-3.89-.23-6.21-.79-4.64-1.12-7.51-2.71-8.52-4.73-.67-1.33-.27-2.36-.22-2.47.13-.31.41-.52.74-.57l4.56-.67-.75-10.63c-.11,0-.2-.01-.24-.01-3.81-.04-5.43-1.4-5.79-4.84-.28-2.69-.07-5.31.64-8.02.04-.15.03-.31-.03-.44l-.59-1.38s-.03-.08-.04-.13c-.22-.82.06-1.69.71-2.22l.31-.26c1-.82,1.87-1.85,2.59-3.06l.31-.52c1.02-1.76,1.88-3.13,2.77-3.56l.24-.12c8.06-3.89,13.96-2.89,17.56,2.99,4.13,6.75-1.86,15.66-4.82,19.39.08,1.37,1.88,7.67,3.71,13.46l5.08.86c.3.05.56.24.69.52.14.27.13.59,0,.87-.16.31-3.43,6.34-12.69,6.34Zm-13.17-6.79c.03.14.09.31.19.49.46.82,2,2.38,7.21,3.65,9.63,2.33,14.25-1.43,15.96-3.44l-4.16-.71c-.35-.06-.64-.31-.75-.65-4.61-14.47-4.07-15.14-3.71-15.58,2.65-3.29,8.41-11.56,4.84-17.4-4.51-7.38-12.48-3.53-15.1-2.27l-.25.12c-.45.25-1.49,2.03-1.94,2.8l-.31.54c-.84,1.41-1.85,2.6-3.02,3.56l-.31.26c-.06.05-.09.13-.09.21l.55,1.29c.22.52.26,1.11.12,1.67-.65,2.48-.84,4.88-.59,7.34.24,2.28.87,3.09,3.92,3.13.13,0,.56.03,1.17.07.47.03.85.41.89.88l.87,12.34c.04.5-.32.94-.81,1.01l-4.68.69Z" style="fill: #002e67;"/>
            </g>
            <path d="m439.93,202.08c-2.49-.54-5.35-.15-6.55-.6-1.95-.72-2-3.05-4.69-3.7-3.26-.79-4.62.6-5.9,2.54-.21.32-.4.69-.55,1.1-2.05,5.5.54,8.18,1.69,9.05,0,0,7.34,3.79,8.59,4.87,1.17,1.01,2.53,3.41,1.68,6.86-.11.44.08.91.46,1.13.44.27,1.01.14,1.31-.3.95-1.38,3.04-4.06,4.52-3.42,1.86.8,1.28,6.38-2.83,7.02-1.26.2-2.29,1.49-2.16,2.81.08.86.89,1.91,2.1,2.19.74.17,1.46-.13,2.11-.54,2.68-1.71,10.25-8.97,11.19-15.48,1.13-7.84-7.66-12.81-10.97-13.52Z" style="fill: #002e67;"/>
            <path d="m425.1,233.68c-.47,0-.87-.38-.89-.85-.02-.49.36-.9.85-.92.03,0,2.59-.12,4.33-1.6.37-.32.93-.27,1.25.1.32.37.27.93-.1,1.25-2.21,1.88-5.28,2.01-5.41,2.02-.01,0-.02,0-.03,0Z" style="fill: #002e67;"/>
          </g>
          <g>
            <g>
              <path d="m377.65,344.58c3.07-4.8,8.7-7.23,11.8-7.06,14.08.8,41.23-13.45,61.43-20.34,3.5-5.09.95-16.22,2.54-29.57l25.76,2.23c2.57,12.73,1.59,34.34-.64,37.2-1.47,3.51-9.48,13.69-25.76,21.62-25.44,12.4-59.49,4.29-59.49,4.29,0,0-17.26,9.12-24.71-.79,0,0,6-2.79,9.07-7.59Z" style="fill: #fff;"/>
              <path d="m378.92,357.77c-4.12,0-8.24-1.22-11.1-5.03-.17-.23-.23-.53-.16-.8.07-.28.26-.51.52-.63.06-.03,5.79-2.74,8.67-7.24,3.13-4.9,9.01-7.7,12.66-7.5,9.4.54,25.11-5.94,40.3-12.19,6.93-2.85,14.09-5.8,20.45-7.99,1.73-2.8,1.69-7.66,1.64-13.75-.04-4.51-.08-9.61.58-15.14.06-.51.51-.89,1.03-.84l25.76,2.23c.42.04.77.35.85.76,2.53,12.52,1.7,34.28-.74,37.87-1.4,3.17-8.98,13.63-26.17,22.01-24.07,11.73-56.09,5.25-59.78,4.44-1.54.77-8.02,3.81-14.5,3.81Zm-8.84-5.3c7.24,7.7,22.61-.27,22.77-.35.2-.11.44-.14.67-.08.34.08,34.02,7.88,58.85-4.22,15.6-7.6,23.78-17.52,25.3-21.14.03-.08.07-.15.13-.22,1.77-2.27,3.09-22.44.59-35.73l-24.11-2.08c-.54,5.06-.5,9.78-.46,13.98.05,6.62.1,11.85-2.14,15.1-.12.17-.28.3-.48.36-6.39,2.18-13.64,5.16-20.65,8.05-15.39,6.34-31.31,12.89-41.14,12.34-2.71-.14-8.03,2.06-10.94,6.62-2.4,3.76-6.44,6.31-8.37,7.37Z" style="fill: #002e67;"/>
            </g>
            <g>
              <path d="m371.62,353.56c-.17,0-.27,0-.29-.01-.52-.05-.91-.52-.85-1.05.05-.52.52-.89,1.04-.85.08,0,4.44.24,11.28-5.97.39-.35.99-.32,1.35.06.35.39.33.99-.06,1.35-6.64,6.03-11.26,6.46-12.45,6.46Z" style="fill: #002e67;"/>
              <path d="m376.11,355.89c-.32,0-.51-.03-.55-.03-.52-.08-.88-.57-.79-1.09.08-.52.57-.88,1.08-.8.08,0,3.89.41,9.89-4.8.4-.35,1-.3,1.35.09.35.4.3,1-.09,1.35-5.51,4.79-9.48,5.28-10.88,5.28Z" style="fill: #002e67;"/>
            </g>
            <g>
              <path d="m482.4,299.08c.17.02.32-.12.31-.29-.18-2.92-1.57-24.71-3.53-33.5-4.44-19.83-31.8-19.86-31.8-19.86,5.03,16.99,6.66,33.29,5.07,48.92-.1.96.59,1.82,1.55,1.92l28.4,2.82Z" style="fill: #fff;"/>
              <path d="m482.42,300.03s-.08,0-.12,0l-28.4-2.82c-.72-.07-1.36-.42-1.81-.97-.46-.56-.67-1.27-.6-1.99,1.59-15.57-.1-31.91-5.03-48.55l-.36-1.23h1.28c.28,0,28.18.27,32.73,20.61,1.99,8.89,3.4,31.14,3.55,33.65.02.36-.11.71-.37.96-.23.22-.54.35-.86.35Zm-33.76-53.61c4.71,16.44,6.3,32.59,4.73,48.01-.02.21.04.42.18.59.13.16.32.26.52.28l27.61,2.74c-.3-4.71-1.64-24.42-3.46-32.56-3.67-16.43-24.2-18.74-29.58-19.06Z" style="fill: #002e67;"/>
            </g>
          </g>
        </g>
      </g>
      <g>
        <g>
          <rect x="257.64" y="337.66" width="96.85" height="9.61" rx="1.07" ry="1.07" style="fill: #ceecf1;"/>
          <path d="m343.31,345.03c10.68-12.72,26.75-14.63,37.73,0h-37.73Z" style="fill: #002e67;"/>
          <g>
            <g>
              <g>
                <path d="m236.21,326.73l121.08.26c1.06,0,1.79-.77,1.72-1.79l-5.44-73.5c-.13-1.79-1.82-3.48-3.66-3.48l-119.44.11,5.74,78.41Z" style="fill: #002e67;"/>
                <path d="m357.29,327.94l-121.08-.26c-.5,0-.91-.39-.95-.88l-5.74-78.41c-.02-.26.07-.52.25-.72.18-.19.43-.3.7-.3l119.44-.11c2.29,0,4.44,2.04,4.61,4.36l5.44,73.5c.06.75-.18,1.46-.67,1.98-.5.54-1.21.83-2,.83Zm-120.19-2.16l120.19.26c.25,0,.46-.08.6-.22.12-.13.18-.32.16-.54l-5.44-73.5c-.1-1.33-1.41-2.59-2.71-2.59l-118.41.11,5.6,76.5Z" style="fill: #002e67;"/>
              </g>
              <g>
                <path d="m233.71,326.63h118.61c1.06,0,1.79-.77,1.72-1.8l-5.37-72.84c-.15-2.02-2.12-3.82-4.2-3.82h-117.08c-1.06,0-1.79.77-1.72,1.8l5.48,74.33c.09,1.23,1.29,2.33,2.56,2.33Z" style="fill: #ceecf1;"/>
                <path d="m352.32,327.59h-118.61c-1.78,0-3.39-1.47-3.51-3.21l-5.48-74.33c-.06-.76.18-1.46.67-1.99.5-.54,1.21-.83,2-.83h117.08c2.56,0,4.97,2.2,5.15,4.7l5.37,72.84c.06.76-.18,1.46-.67,1.99-.5.54-1.21.83-2,.83Zm-124.93-78.46c-.25,0-.46.08-.6.22-.13.14-.18.33-.17.55l5.48,74.33c.05.74.84,1.44,1.61,1.44h118.61c.25,0,.46-.08.6-.22.13-.14.18-.33.17-.55l-5.37-72.84c-.11-1.53-1.66-2.93-3.25-2.93h-117.08Z" style="fill: #002e67;"/>
              </g>
            </g>
            <g>
              <path d="m306.01,344.58h-18.15l-4.53-49.1c-.05-.59.35-1.03.94-1.03h15.08c1.15,0,2.12.91,2.23,2.09l4.43,48.04Z" style="fill: #002e67;"/>
              <g>
                <polygon points="303.16 344.58 285.01 344.58 280.54 295.46 298.69 295.46 303.16 344.58" style="fill: #ceecf1;"/>
                <path d="m303.16,345.54h-18.15c-.49,0-.91-.38-.95-.87l-4.47-49.12c-.02-.27.06-.53.25-.73.18-.2.44-.31.7-.31h18.15c.49,0,.91.38.95.87l4.47,49.12c.02.27-.06.53-.25.73-.18.2-.44.31-.7.31Zm-17.28-1.91h16.24l-4.29-47.21h-16.24l4.29,47.21Z" style="fill: #002e67;"/>
              </g>
            </g>
            <rect x="271.4" y="336.9" width="51" height="8.6" rx=".79" ry=".79" transform="translate(593.8 682.4) rotate(180)" style="fill: #002e67;"/>
            <g>
              <rect x="268.83" y="337.66" width="51" height="7.09" transform="translate(588.67 682.4) rotate(180)" style="fill: #ceecf1;"/>
              <path d="m319.83,345.7h-51c-.53,0-.95-.43-.95-.95v-7.09c0-.53.43-.95.95-.95h51c.53,0,.95.43.95.95v7.09c0,.53-.43.95-.95.95Zm-50.05-1.91h49.09v-5.18h-49.09v5.18Z" style="fill: #002e67;"/>
            </g>
          </g>
        </g>
        <g>
          <g>
            <rect x="198.17" y="345.33" width="328.88" height="14.98" rx="1.86" ry="1.86" style="fill: #ceecf1;"/>
            <path d="m525.19,361.26H200.03c-1.55,0-2.81-1.26-2.81-2.81v-11.26c0-1.55,1.26-2.81,2.81-2.81h325.16c1.55,0,2.81,1.26,2.81,2.81v11.26c0,1.55-1.26,2.81-2.81,2.81Zm-325.16-14.98c-.5,0-.9.41-.9.9v11.26c0,.5.41.9.9.9h325.16c.5,0,.9-.41.9-.9v-11.26c0-.5-.41-.9-.9-.9H200.03Z" style="fill: #002e67;"/>
          </g>
          <path d="m418.13,357.01c-.53,0-.95-.43-.95-.95v-6.89c0-.53.43-.95.95-.95s.95.43.95.95v6.89c0,.53-.43.95-.95.95Z" style="fill: #5dc0cf;"/>
        </g>
        <g>
          <path d="m217.98,528.81c-.53,0-.95-.43-.95-.95v-163.46c0-.53.43-.95.95-.95s.95.43.95.95v163.46c0,.53-.43.95-.95.95Z" style="fill: #002e67;"/>
          <path d="m230.47,481.93c-.53,0-.95-.43-.95-.95v-111.44c0-.53.43-.95.95-.95s.95.43.95.95v111.44c0,.53-.43.95-.95.95Z" style="fill: #002e67;"/>
        </g>
        <g>
          <path d="m494.92,497.79c-.53,0-.95-.43-.95-.95v-65.09c0-.53.43-.95.95-.95s.95.43.95.95v65.09c0,.53-.43.95-.95.95Z" style="fill: #002e67;"/>
          <path d="m505.76,473.89c-.53,0-.95-.43-.95-.95v-52.28c0-.53.43-.95.95-.95s.95.43.95.95v52.28c0,.53-.43.95-.95.95Z" style="fill: #002e67;"/>
        </g>
      </g>
    </g>
    <g>
      <g>
        <g>
          <polygon points="77.21 330.47 92.89 314.79 89.08 307.9 77.78 296.6 70.7 292.59 55.01 308.28 77.21 330.47" style="fill: #002e67;"/>
          <path d="m77.21,331.43c-.24,0-.49-.09-.67-.28l-22.2-22.2c-.37-.37-.37-.98,0-1.35l15.68-15.68c.3-.3.77-.37,1.14-.16l7.08,4c.08.04.14.1.2.16l11.3,11.3c.06.06.12.13.16.21l3.82,6.89c.21.37.14.84-.16,1.14l-15.68,15.68c-.19.19-.43.28-.67.28Zm-20.85-23.15l20.85,20.85,14.5-14.5-3.4-6.15-11.11-11.11-6.34-3.58-14.5,14.5Z" style="fill: #002e67;"/>
        </g>
        <g>
          <g>
            <path d="m193.79,191.79c-22.05-22.05-57.81-22.05-79.86,0-22.05,22.05-22.05,57.81,0,79.86,22.05,22.05,57.81,22.05,79.86,0,22.05-22.05,22.05-57.81,0-79.86Zm-3.57,76.29c-20.08,20.08-52.64,20.08-72.73,0-20.08-20.08-20.08-52.64,0-72.73,20.08-20.08,52.64-20.08,72.73,0,20.08,20.08,20.08,52.64,0,72.73Z" style="fill: #fff;"/>
            <path d="m153.86,289.15c-15.34,0-29.76-5.97-40.61-16.82s-16.82-25.27-16.82-40.61,5.97-29.76,16.82-40.61c10.85-10.85,25.27-16.82,40.61-16.82s29.76,5.97,40.61,16.82c10.85,10.85,16.82,25.27,16.82,40.61s-5.97,29.76-16.82,40.61c-10.85,10.85-25.27,16.82-40.61,16.82Zm0-112.94c-14.83,0-28.77,5.77-39.26,16.26-10.49,10.49-16.26,24.43-16.26,39.26s5.77,28.77,16.26,39.26,24.43,16.26,39.26,16.26,28.77-5.77,39.26-16.26c10.49-10.49,16.26-24.43,16.26-39.26s-5.78-28.77-16.26-39.26c-10.49-10.49-24.43-16.26-39.26-16.26Zm0,107.87c-13.41,0-26.83-5.11-37.04-15.32-20.42-20.42-20.42-53.65,0-74.08,9.89-9.89,23.05-15.34,37.04-15.34s27.14,5.45,37.04,15.34c9.89,9.89,15.34,23.05,15.34,37.04s-5.45,27.15-15.34,37.04c-10.21,10.21-23.62,15.32-37.04,15.32Zm0-102.83c-13.48,0-26.16,5.25-35.69,14.78-19.68,19.68-19.68,51.7,0,71.38,9.84,9.84,22.77,14.76,35.69,14.76,12.93,0,25.85-4.92,35.69-14.76,9.53-9.53,14.78-22.21,14.78-35.69s-5.25-26.16-14.78-35.69c-9.53-9.53-22.21-14.78-35.69-14.78Z" style="fill: #002e67;"/>
          </g>
          <g>
            <path d="m53.29,323.79c-2.08,2.08-2.08,5.46,0,7.54l.86.86c2.08,2.08,5.46,2.08,7.54,0l54.26-54.26-8.41-8.41-54.26,54.26Z" style="fill: #fff;"/>
            <path d="m57.93,334.71c-1.61,0-3.22-.61-4.45-1.84l-.86-.86c-2.45-2.45-2.45-6.44,0-8.89l.67.67-.67-.67,54.26-54.26c.36-.36.99-.36,1.35,0l8.41,8.41c.37.37.37.98,0,1.35l-54.26,54.26c-1.23,1.23-2.84,1.84-4.45,1.84Zm-3.96-10.25c-1.71,1.71-1.71,4.49,0,6.19l.86.86c1.71,1.71,4.49,1.71,6.19,0l53.59-53.59-7.06-7.06-53.59,53.59Z" style="fill: #002e67;"/>
          </g>
          <g>
            <path d="m85.12,303.65l4.54-4.54-4.54,4.54Z" style="fill: #fff;"/>
            <path d="m85.12,304.6c-.24,0-.49-.09-.67-.28-.37-.37-.37-.98,0-1.35l4.54-4.54c.37-.37.98-.37,1.35,0s.37.98,0,1.35l-4.54,4.54c-.19.19-.43.28-.67.28Z" style="fill: #002e67;"/>
          </g>
          <g>
            <rect x="95.13" y="276.38" width="17.83" height="10.13" rx="3.9" ry="3.9" transform="translate(-21.41 554.03) rotate(-135)" style="fill: #fff;"/>
            <path d="m106.76,290.67c-1.24,0-2.49-.47-3.44-1.42l-7.08-7.08c-1.89-1.89-1.89-4.98,0-6.87l1.64-1.64c.92-.92,2.14-1.42,3.44-1.42s2.52.5,3.44,1.42l7.08,7.08c.92.92,1.42,2.14,1.42,3.44s-.51,2.52-1.42,3.44l-1.64,1.64c-.95.95-2.19,1.42-3.44,1.42Zm-9.17-9.85l7.08,7.08c1.15,1.15,3.02,1.15,4.17,0l1.64-1.64c.56-.56.86-1.3.86-2.09s-.31-1.53-.86-2.09l-7.08-7.08c-.56-.56-1.3-.86-2.09-.86s-1.53.31-2.09.86l-1.64,1.64c-1.15,1.15-1.15,3.02,0,4.17Z" style="fill: #002e67;"/>
          </g>
          <g>
            <rect x="86.2" y="285.3" width="17.83" height="10.13" rx="3.9" ry="3.9" transform="translate(-42.94 562.95) rotate(-135)" style="fill: #fff;"/>
            <path d="m97.84,299.59c-1.24,0-2.49-.47-3.44-1.42l-7.08-7.08c-.92-.92-1.42-2.14-1.42-3.44s.51-2.52,1.42-3.44l1.64-1.64c.92-.92,2.14-1.42,3.44-1.42s2.52.51,3.44,1.42l7.08,7.08c.92.92,1.42,2.14,1.42,3.44s-.51,2.52-1.42,3.44l-1.64,1.64c-.95.95-2.19,1.42-3.44,1.42Zm-5.44-16.53c-.79,0-1.53.31-2.09.86l-1.64,1.64c-1.15,1.15-1.15,3.02,0,4.17l7.08,7.08c1.15,1.15,3.02,1.15,4.17,0l1.64-1.64c1.15-1.15,1.15-3.02,0-4.17l-7.08-7.08c-.56-.56-1.3-.86-2.09-.86Z" style="fill: #002e67;"/>
          </g>
          <g>
            <path d="m173.69,191.7c-.14,0-.28-.03-.41-.09-3.96-1.91-8.19-3.22-12.55-3.89-.52-.08-.88-.57-.8-1.09.08-.52.57-.88,1.09-.8,4.55.7,8.96,2.07,13.09,4.06.47.23.67.8.44,1.27-.16.34-.51.54-.86.54Z" style="fill: #002e67;"/>
            <path d="m153.91,278.21c-11.9,0-23.8-4.53-32.86-13.59-6.59-6.59-11-14.88-12.76-23.99-.1-.52.24-1.02.76-1.12.52-.1,1.02.24,1.12.76,1.69,8.73,5.92,16.69,12.24,23,17.38,17.38,45.65,17.38,63.03,0,17.38-17.38,17.38-45.65,0-63.03-.37-.37-.37-.98,0-1.35.37-.37.98-.37,1.35,0,18.12,18.12,18.12,47.6,0,65.72-9.06,9.06-20.96,13.59-32.86,13.59Z" style="fill: #002e67;"/>
          </g>
        </g>
      </g>
      <g>
        <g>
          <path d="m125.01,380.01c1.88,2.09,4.53,3.31,7.34,3.39,2.81.07,5.52-1.01,7.51-2.99,2.19-2.19,3.38-5.17,3.31-8.26-.07-3.09-1.4-6.02-3.68-8.1l-56.53-51.61-9.84,9.84,51.9,57.74Z" style="fill: #002e67;"/>
          <path d="m132.61,384.35c-.1,0-.19,0-.29,0-3.05-.08-5.98-1.43-8.02-3.7l-51.9-57.74c-.34-.38-.32-.95.04-1.31l9.84-9.84c.36-.36.94-.37,1.32-.03l56.53,51.61c2.46,2.25,3.92,5.45,3.99,8.78.08,3.33-1.23,6.6-3.59,8.96-2.09,2.09-4.96,3.28-7.91,3.28Zm-6.9-4.98c1.7,1.88,4.12,3,6.65,3.07,2.52.06,5.02-.92,6.81-2.71,1.99-1.99,3.1-4.75,3.03-7.56-.06-2.82-1.29-5.52-3.37-7.42l-55.86-51-8.56,8.56,51.3,57.07Z" style="fill: #002e67;"/>
        </g>
        <g>
          <path d="m147.55,489.25c6.16,2.19,12.95,1.77,18.79-1.17s10.23-8.14,12.13-14.4c1.92-6.3,1.16-13.11-2.09-18.83s-8.73-9.85-15.13-11.41l-132.72-32.41c-8.73-2.13-17.6,2.92-20.23,11.52-2.64,8.66,1.99,17.87,10.53,20.91l128.71,45.8Z" style="fill: #002e67;"/>
          <path d="m155.56,491.58c-2.82,0-5.64-.47-8.33-1.43l-128.71-45.8c-9.03-3.21-13.92-12.91-11.12-22.08,2.77-9.07,12.15-14.41,21.36-12.16l132.72,32.41c6.62,1.62,12.36,5.94,15.73,11.87,3.37,5.92,4.17,13.06,2.18,19.58-1.97,6.47-6.57,11.93-12.62,14.97-3.49,1.76-7.35,2.65-11.21,2.65ZM24.51,411.49c-6.88,0-13.2,4.47-15.29,11.33-2.5,8.19,1.86,16.86,9.93,19.73l128.71,45.8c5.89,2.09,12.46,1.68,18.04-1.13,5.58-2.81,9.83-7.85,11.65-13.82,1.84-6.02,1.1-12.61-2.01-18.08-3.11-5.47-8.41-9.46-14.52-10.96l-132.72-32.41c-1.27-.31-2.54-.46-3.8-.46Z" style="fill: #002e67;"/>
        </g>
        <g>
          <path d="m102.83,493.84c4.64,0,8.72-3.06,10.02-7.51l4.77-16.31c.93-3.17,3.84-5.35,7.14-5.35h60.18c4.32,0,7.82,3.5,7.82,7.82v53.87h-102.75v-24.7c0-4.32,3.5-7.82,7.82-7.82h4.99Z" style="fill: #002e67;"/>
          <path d="m192.77,527.32h-102.75c-.53,0-.95-.43-.95-.95v-24.7c0-4.84,3.94-8.78,8.78-8.78h4.99c4.19,0,7.93-2.81,9.11-6.82l4.77-16.31c1.04-3.56,4.35-6.04,8.06-6.04h60.18c4.84,0,8.78,3.94,8.78,8.78v53.87c0,.53-.43.95-.95.95Zm-101.79-1.91h100.84v-52.92c0-3.79-3.08-6.87-6.87-6.87h-60.18c-2.86,0-5.42,1.92-6.23,4.67l-4.77,16.31c-1.41,4.83-5.91,8.2-10.94,8.2h-4.99c-3.79,0-6.87,3.08-6.87,6.87v23.75Z" style="fill: #002e67;"/>
        </g>
        <g>
          <path d="m93.96,493.84c4.64,0,8.72-3.06,10.02-7.51l4.77-16.31c.93-3.17,3.84-5.35,7.14-5.35h60.18c4.32,0,7.82,3.5,7.82,7.82v53.87h-102.75v-24.7c0-4.32,3.5-7.82,7.82-7.82h4.99Z" style="fill: #5dc0cf;"/>
          <path d="m183.89,527.32h-102.75c-.53,0-.95-.43-.95-.95v-24.7c0-4.84,3.94-8.78,8.78-8.78h4.99c4.19,0,7.93-2.81,9.11-6.82l4.77-16.31c1.04-3.56,4.35-6.04,8.06-6.04h60.18c4.84,0,8.78,3.94,8.78,8.78v53.87c0,.53-.43.95-.95.95Zm-101.79-1.91h100.84v-52.92c0-3.79-3.08-6.87-6.87-6.87h-60.18c-2.86,0-5.42,1.92-6.23,4.67l-4.77,16.31c-1.41,4.83-5.91,8.2-10.94,8.2h-4.99c-3.79,0-6.87,3.08-6.87,6.87v23.75Z" style="fill: #002e67;"/>
        </g>
        <path d="m135.07,382.82c5.69-3.16,7.9-10.22,5.04-16.06-2.89-5.9-9.93-8.45-15.93-5.78l-112.66,50.1c-8.75,3.89-12.81,14.04-9.16,22.89,1.92,4.66,5.75,8.29,10.51,9.95,4.76,1.67,10.01,1.22,14.42-1.23l107.79-59.87Z" style="fill: #002e67;"/>
        <g>
          <path d="m141.03,489.25c6.16,2.19,12.95,1.77,18.79-1.17s10.23-8.14,12.13-14.4c1.92-6.3,1.16-13.11-2.09-18.83-3.26-5.72-8.73-9.85-15.13-11.41l-132.72-32.41c-8.73-2.13-17.6,2.92-20.23,11.52-2.64,8.66,1.99,17.87,10.53,20.91l128.71,45.8Z" style="fill: #5dc0cf;"/>
          <path d="m149.04,491.58c-2.82,0-5.64-.47-8.33-1.43L11.99,444.35c-9.03-3.21-13.92-12.91-11.12-22.08,2.77-9.07,12.15-14.41,21.36-12.16l132.72,32.41c6.62,1.62,12.36,5.94,15.73,11.87,3.37,5.92,4.17,13.06,2.18,19.58-1.97,6.47-6.57,11.93-12.62,14.97-3.49,1.76-7.35,2.65-11.21,2.65ZM17.99,411.49c-6.88,0-13.2,4.47-15.29,11.33-2.5,8.19,1.86,16.86,9.93,19.73l128.71,45.8c5.89,2.09,12.46,1.69,18.04-1.13,5.58-2.81,9.83-7.85,11.65-13.82,1.84-6.02,1.1-12.61-2.01-18.08-3.11-5.47-8.41-9.46-14.52-10.96l-132.72-32.41c-1.27-.31-2.54-.46-3.8-.46Z" style="fill: #002e67;"/>
        </g>
        <g>
          <path d="m123.53,380.01c1.88,2.09,4.53,3.31,7.34,3.39,2.81.07,5.52-1.01,7.51-2.99,2.19-2.19,3.38-5.17,3.31-8.26-.07-3.09-1.4-6.02-3.68-8.1l-56.53-51.61-9.84,9.84,51.9,57.74Z" style="fill: #5dc0cf;"/>
          <path d="m131.13,384.35c-.1,0-.19,0-.29,0-3.05-.08-5.98-1.43-8.02-3.7l-51.9-57.74c-.34-.38-.32-.95.04-1.31l9.84-9.84c.36-.36.94-.37,1.32-.03l56.53,51.61c2.46,2.25,3.92,5.45,3.99,8.78.08,3.33-1.23,6.6-3.59,8.96-2.09,2.09-4.96,3.28-7.91,3.28Zm-6.9-4.98c1.69,1.88,4.12,3,6.65,3.07,2.52.06,5.02-.92,6.81-2.71,1.99-1.99,3.1-4.75,3.03-7.56-.06-2.82-1.29-5.52-3.37-7.42l-55.86-51-8.56,8.56,51.3,57.07Z" style="fill: #002e67;"/>
        </g>
        <g>
          <polygon points="75.85 331.84 91.53 316.15 84.61 312.58 73.66 301.63 69.33 293.96 53.65 309.64 57.16 316.5 69.24 328.58 75.85 331.84" style="fill: #5dc0cf;"/>
          <path d="m75.85,332.79c-.14,0-.29-.03-.42-.1l-6.61-3.26c-.09-.05-.18-.11-.25-.18l-12.08-12.08c-.07-.07-.13-.15-.17-.24l-3.51-6.86c-.19-.37-.12-.82.17-1.11l15.68-15.68c.21-.21.51-.31.8-.27.3.04.56.22.7.48l4.26,7.56,10.75,10.75,6.79,3.5c.27.14.46.4.5.7.05.3-.05.61-.27.82l-15.68,15.68c-.18.18-.43.28-.67.28Zm-6.05-5l5.86,2.89,14.28-14.28-5.76-2.97c-.09-.05-.17-.1-.24-.17l-10.95-10.95c-.06-.06-.11-.13-.16-.21l-3.71-6.58-14.3,14.3,3.13,6.11,11.86,11.86Z" style="fill: #002e67;"/>
        </g>
        <circle cx="148.85" cy="466.26" r="14.41" style="fill: #ceecf1;"/>
        <path d="m85.04,502.64c0,2.35,1.9,4.25,4.25,4.25s4.25-1.9,4.25-4.25-1.9-4.25-4.25-4.25-4.25,1.9-4.25,4.25Z" style="fill: #ceecf1;"/>
        <circle cx="17.64" cy="427.55" r="9.65" transform="translate(-97.76 15.49) rotate(-13.28)" style="fill: #ceecf1;"/>
        <path d="m126.5,371.78c0,2.28,1.85,4.13,4.13,4.13s4.13-1.85,4.13-4.13-1.85-4.13-4.13-4.13-4.13,1.85-4.13,4.13Z" style="fill: #ceecf1;"/>
        <g>
          <path d="m67.97,303.28l-7.09,7.09,7.09-7.09Z" style="fill: #5dc0cf;"/>
          <path d="m60.88,311.33c-.24,0-.49-.09-.67-.28-.37-.37-.37-.98,0-1.35l7.09-7.09c.37-.37.98-.37,1.35,0s.37.98,0,1.35l-7.09,7.09c-.19.19-.43.28-.67.28Z" style="fill: #002e67;"/>
        </g>
        <g>
          <path d="m80.78,316.47l-7.09,7.09,7.09-7.09Z" style="fill: #5dc0cf;"/>
          <path d="m73.69,324.52c-.24,0-.49-.09-.67-.28-.37-.37-.37-.98,0-1.35l7.09-7.09c.37-.37.98-.37,1.35,0,.37.37.37.98,0,1.35l-7.09,7.09c-.19.19-.43.28-.67.28Z" style="fill: #002e67;"/>
        </g>
        <rect x="70.78" y="521.91" width="132.07" height="5.89" transform="translate(273.63 1049.72) rotate(180)" style="fill: #002e67;"/>
        <path d="m153.95,485.61c-.42,0-.8-.28-.92-.7-.14-.51.16-1.03.66-1.17,7.82-2.17,13.27-9.35,13.27-17.47,0-1.46-.17-2.9-.51-4.3-.12-.51.19-1.03.7-1.15.51-.13,1.03.19,1.15.7.38,1.55.57,3.15.57,4.75,0,8.98-6.03,16.92-14.67,19.31-.09.02-.17.03-.26.03Z" style="fill: #002e67;"/>
        <path d="m145.98,486.08s-.1,0-.14-.01c-3.52-.53-6.85-2-9.62-4.26-.41-.33-.47-.93-.14-1.34.33-.41.93-.47,1.34-.14,2.51,2.04,5.52,3.37,8.7,3.85.52.08.88.56.8,1.09-.07.47-.48.81-.94.81Z" style="fill: #002e67;"/>
        <path d="m19.65,441.12c-.46,0-.87-.33-.94-.8-.08-.52.27-1.01.79-1.09,2.73-.43,5.24-1.83,7.07-3.93.34-.4.95-.44,1.35-.1.4.35.44.95.1,1.35-2.12,2.44-5.03,4.07-8.21,4.57-.05,0-.1.01-.15.01Z" style="fill: #002e67;"/>
        <path d="m11.15,439.5c-.16,0-.33-.04-.48-.13-4.16-2.46-6.75-6.99-6.75-11.82,0-3.8,1.59-7.46,4.38-10.05.39-.36.99-.34,1.35.05.36.39.34.99-.05,1.35-2.39,2.23-3.77,5.38-3.77,8.65,0,4.16,2.23,8.06,5.81,10.17.45.27.6.85.34,1.31-.18.3-.5.47-.82.47Z" style="fill: #002e67;"/>
        <path d="m124.12,374.28c-.43,0-.82-.3-.93-.73-.14-.58-.21-1.17-.21-1.77,0-1.73.56-3.37,1.63-4.72.33-.41.93-.49,1.34-.16.41.33.49.93.16,1.34-.8,1.02-1.22,2.25-1.22,3.55,0,.45.05.9.15,1.33.12.51-.2,1.03-.71,1.15-.07.02-.15.03-.22.03Z" style="fill: #002e67;"/>
        <path d="m130.63,379.43c-1.24,0-2.47-.3-3.56-.88-.47-.25-.64-.82-.4-1.29.25-.47.82-.64,1.29-.4.83.44,1.73.66,2.67.66,2.26,0,4.32-1.34,5.25-3.4.21-.48.78-.7,1.26-.48.48.21.7.78.48,1.26-1.23,2.75-3.97,4.53-6.99,4.53Z" style="fill: #002e67;"/>
      </g>
    </g>
    <g>
      <g>
        <g>
          <g>
            <polygon points="216.9 98.92 188.06 82.15 159.24 98.94 188.38 115.92 216.9 98.92" style="fill: #5dc0cf;"/>
            <path d="m188.38,116.87c-.17,0-.33-.04-.48-.13l-29.15-16.98c-.29-.17-.47-.48-.47-.82s.18-.65.47-.82l28.82-16.8c.3-.17.66-.17.96,0l28.85,16.77c.29.17.47.48.47.82,0,.34-.18.65-.47.82l-28.52,17c-.15.09-.32.13-.49.13Zm-27.25-17.93l27.25,15.87,26.64-15.88-26.97-15.68-26.93,15.69Z" style="fill: #002e67;"/>
          </g>
          <g>
            <polygon points="188.06 48.19 188.06 82.29 217.02 98.98 217.02 65.27 188.06 48.19" style="fill: #ceecf1;"/>
            <path d="m217.02,99.94c-.16,0-.33-.04-.48-.13l-28.96-16.69c-.3-.17-.48-.49-.48-.83v-34.1c0-.34.18-.66.48-.83.3-.17.66-.17.96,0l28.96,17.08c.29.17.47.48.47.82v33.71c0,.34-.18.66-.48.83-.15.09-.31.13-.48.13Zm-28.01-18.2l27.05,15.59v-31.52l-27.05-15.96v31.88Z" style="fill: #002e67;"/>
          </g>
          <g>
            <polygon points="188.06 48.19 188.06 82.29 159.35 99 159.35 65.19 188.06 48.19" style="fill: #fff;"/>
            <path d="m159.35,99.96c-.16,0-.33-.04-.48-.13-.3-.17-.48-.49-.48-.83v-33.82c0-.34.18-.65.47-.82l28.71-17c.29-.17.66-.18.96,0,.3.17.48.49.48.83v34.1c0,.34-.18.65-.47.82l-28.71,16.71c-.15.09-.31.13-.48.13Zm.95-34.23v31.61l26.8-15.6v-31.88l-26.8,15.87Z" style="fill: #002e67;"/>
          </g>
        </g>
        <g>
          <g>
            <polygon points="245.68 115.9 216.83 99.13 188.01 115.93 217.16 132.9 245.68 115.9" style="fill: #5dc0cf;"/>
            <path d="m217.16,133.86c-.17,0-.33-.04-.48-.13l-29.15-16.98c-.29-.17-.47-.48-.47-.82s.18-.65.47-.82l28.82-16.79c.3-.17.66-.17.96,0l28.85,16.77c.29.17.47.48.47.82,0,.34-.18.65-.47.82l-28.52,17c-.15.09-.32.13-.49.13Zm-27.25-17.93l27.25,15.87,26.64-15.88-26.97-15.68-26.93,15.69Z" style="fill: #002e67;"/>
          </g>
          <g>
            <polygon points="216.84 65.17 216.84 99.27 245.8 115.96 245.8 82.25 216.84 65.17" style="fill: #ceecf1;"/>
            <path d="m245.8,116.92c-.16,0-.33-.04-.48-.13l-28.96-16.69c-.3-.17-.48-.49-.48-.83v-34.1c0-.34.18-.66.48-.83.3-.17.66-.17.96,0l28.96,17.08c.29.17.47.48.47.82v33.71c0,.34-.18.66-.48.83-.15.09-.31.13-.48.13Zm-28.01-18.2l27.05,15.59v-31.52l-27.05-15.96v31.88Z" style="fill: #002e67;"/>
          </g>
          <g>
            <polygon points="216.84 65.17 216.84 99.27 188.13 115.98 188.13 82.17 216.84 65.17" style="fill: #fff;"/>
            <path d="m188.13,116.94c-.16,0-.33-.04-.48-.13-.3-.17-.48-.49-.48-.83v-33.82c0-.34.18-.65.47-.82l28.71-17c.29-.17.66-.18.96,0,.3.17.48.49.48.83v34.1c0,.34-.18.65-.47.82l-28.71,16.71c-.15.09-.31.13-.48.13Zm.95-34.23v31.61l26.8-15.6v-31.88l-26.8,15.87Z" style="fill: #002e67;"/>
          </g>
        </g>
        <g>
          <g>
            <polygon points="274.64 132.6 245.79 115.82 216.97 132.62 246.12 149.59 274.64 132.6" style="fill: #5dc0cf;"/>
            <path d="m246.12,150.55c-.17,0-.33-.04-.48-.13l-29.15-16.98c-.29-.17-.47-.48-.47-.82s.18-.65.47-.82l28.82-16.79c.3-.17.66-.17.96,0l28.85,16.77c.29.17.47.48.47.82,0,.34-.18.65-.47.82l-28.52,17c-.15.09-.32.13-.49.13Zm-27.25-17.93l27.25,15.87,26.64-15.88-26.97-15.68-26.93,15.69Z" style="fill: #002e67;"/>
          </g>
          <g>
            <polygon points="245.8 81.86 245.8 115.96 274.76 132.66 274.76 98.94 245.8 81.86" style="fill: #ceecf1;"/>
            <path d="m274.76,133.61c-.16,0-.33-.04-.48-.13l-28.96-16.69c-.3-.17-.48-.49-.48-.83v-34.1c0-.34.18-.66.48-.83.3-.17.66-.17.96,0l28.96,17.08c.29.17.47.48.47.82v33.71c0,.34-.18.66-.48.83-.15.09-.31.13-.48.13Zm-28.01-18.2l27.05,15.59v-31.52l-27.05-15.96v31.88Z" style="fill: #002e67;"/>
          </g>
          <g>
            <polygon points="245.8 81.86 245.8 115.96 217.09 132.68 217.09 98.86 245.8 81.86" style="fill: #fff;"/>
            <path d="m217.09,133.63c-.16,0-.33-.04-.48-.13-.3-.17-.48-.49-.48-.83v-33.82c0-.34.18-.65.47-.82l28.71-17c.29-.17.66-.18.96,0,.3.17.48.49.48.83v34.1c0,.34-.18.65-.47.82l-28.71,16.71c-.15.09-.31.13-.48.13Zm.95-34.23v31.61l26.8-15.6v-31.88l-26.8,15.87Z" style="fill: #002e67;"/>
          </g>
        </g>
        <g>
          <g>
            <polygon points="274.45 164.46 245.61 147.69 216.78 164.48 245.93 181.46 274.45 164.46" style="fill: #5dc0cf;"/>
            <path d="m245.93,182.41c-.17,0-.33-.04-.48-.13l-29.15-16.98c-.29-.17-.47-.48-.47-.82s.18-.65.47-.82l28.82-16.79c.3-.17.66-.17.96,0l28.85,16.77c.29.17.47.48.47.82,0,.34-.18.65-.47.82l-28.52,17c-.15.09-.32.13-.49.13Zm-27.25-17.93l27.25,15.87,26.64-15.88-26.97-15.68-26.93,15.69Z" style="fill: #002e67;"/>
          </g>
          <g>
            <polygon points="245.61 113.72 245.61 147.83 274.57 164.52 274.57 130.81 245.61 113.72" style="fill: #ceecf1;"/>
            <path d="m274.57,165.48c-.16,0-.33-.04-.48-.13l-28.96-16.69c-.3-.17-.48-.49-.48-.83v-34.1c0-.34.18-.66.48-.83.3-.17.66-.17.96,0l28.96,17.08c.29.17.47.48.47.82v33.71c0,.34-.18.66-.48.83-.15.09-.31.13-.48.13Zm-28.01-18.2l27.05,15.59v-31.52l-27.05-15.96v31.88Z" style="fill: #002e67;"/>
          </g>
          <g>
            <polygon points="245.61 113.72 245.61 147.83 216.9 164.54 216.9 130.73 245.61 113.72" style="fill: #fff;"/>
            <path d="m216.9,165.5c-.16,0-.33-.04-.48-.13-.3-.17-.48-.49-.48-.83v-33.82c0-.34.18-.65.47-.82l28.71-17c.29-.17.66-.18.96,0,.3.17.48.49.48.83v34.1c0,.34-.18.65-.47.82l-28.71,16.71c-.15.09-.31.13-.48.13Zm.95-34.23v31.61l26.8-15.6v-31.88l-26.8,15.87Z" style="fill: #002e67;"/>
          </g>
        </g>
      </g>
      <g>
        <path d="m330.15,196.69c-.26,0-.53-.11-.72-.32l-5.04-5.73c-.35-.4-.31-1,.09-1.35.4-.35,1-.31,1.35.09l5.04,5.73c.35.4.31,1-.09,1.35-.18.16-.41.24-.63.24Zm-10.07-11.47c-.26,0-.53-.11-.72-.32l-5.04-5.73c-.35-.4-.31-1,.09-1.35.4-.35,1-.31,1.35.09l5.04,5.73c.35.4.31,1-.09,1.35-.18.16-.41.24-.63.24Zm-10.07-11.47c-.26,0-.53-.11-.72-.32l-5.04-5.73c-.35-.4-.31-1,.09-1.35.4-.35,1-.31,1.35.09l5.04,5.73c.35.4.31,1-.09,1.35-.18.16-.41.24-.63.24Zm-10.07-11.47c-.26,0-.53-.11-.72-.32l-5.04-5.73c-.35-.4-.31-1,.09-1.35.4-.35,1-.31,1.35.09l5.04,5.73c.35.4.31,1-.09,1.35-.18.16-.41.24-.63.24Zm-10.07-11.47c-.26,0-.53-.11-.72-.32l-5.04-5.73c-.35-.4-.31-1,.09-1.35.4-.35,1-.31,1.35.09l5.04,5.73c.35.4.31,1-.09,1.35-.18.16-.41.24-.63.24Zm-10.07-11.47c-.26,0-.53-.11-.72-.32l-5.04-5.73c-.35-.4-.31-1,.09-1.35.4-.35,1-.31,1.35.09l5.04,5.73c.35.4.31,1-.09,1.35-.18.16-.41.24-.63.24Z" style="fill: #002e67;"/>
        <path d="m329.84,228.5c-.26,0-.53-.11-.72-.32l-5.04-5.73c-.35-.4-.31-1,.09-1.35.4-.35,1-.31,1.35.09l5.04,5.73c.35.4.31,1-.09,1.35-.18.16-.41.24-.63.24Zm-10.07-11.47c-.26,0-.53-.11-.72-.32l-5.04-5.73c-.35-.4-.31-1,.09-1.35.4-.35,1-.31,1.35.09l5.04,5.73c.35.4.31,1-.09,1.35-.18.16-.41.24-.63.24Zm-10.07-11.47c-.26,0-.53-.11-.72-.32l-5.04-5.73c-.35-.4-.31-1,.09-1.35.4-.35,1-.31,1.35.09l5.04,5.73c.35.4.31,1-.09,1.35-.18.16-.41.24-.63.24Zm-10.07-11.47c-.26,0-.53-.11-.72-.32l-5.04-5.73c-.35-.4-.31-1,.09-1.35.4-.35,1-.31,1.35.09l5.04,5.73c.35.4.31,1-.09,1.35-.18.16-.41.24-.63.24Zm-10.07-11.47c-.26,0-.53-.11-.72-.32l-5.04-5.73c-.35-.4-.31-1,.09-1.35.4-.35,1-.31,1.35.09l5.04,5.73c.35.4.31,1-.09,1.35-.18.16-.41.24-.63.24Zm-10.07-11.47c-.26,0-.53-.11-.72-.32l-5.04-5.73c-.35-.4-.31-1,.09-1.35.4-.35,1-.31,1.35.09l5.04,5.73c.35.4.31,1-.09,1.35-.18.16-.41.24-.63.24Z" style="fill: #002e67;"/>
      </g>
    </g>
    <g>
      <path d="m477.5,148.5l-39.84,5.5c-4.91.68-8.98,4.15-10.41,8.9l-7.29,24.12-16.17-21.72c-2.76-3.71-7.33-5.62-11.91-4.99l-36.64,5.06c-6.94.96-13.35-3.9-14.3-10.85l-10.72-77.84c-.96-6.95,3.9-13.36,10.84-14.32l122.27-16.87c6.94-.96,13.35,3.9,14.3,10.85l10.72,77.84c.96,6.95-3.9,13.36-10.84,14.32Z" style="fill: #fff;"/>
      <path d="m413.58,181.62c-.3,0-.58-.14-.77-.38l-16.17-21.72c-2.56-3.43-6.78-5.21-11.01-4.62l-36.64,5.05c-3.61.49-7.2-.44-10.1-2.64-2.9-2.2-4.78-5.41-5.28-9.02l-10.72-77.84c-1.03-7.46,4.2-14.36,11.65-15.39l122.27-16.87c3.61-.5,7.2.44,10.1,2.64s4.78,5.41,5.28,9.02l10.72,77.84c1.03,7.46-4.2,14.36-11.65,15.39l-39.84,5.5c-4.53.62-8.31,3.86-9.63,8.23l-7.29,24.12c-.1.34-.39.6-.75.66-.05,0-.11.01-.16.01Zm-26.34-28.74c4.27,0,8.34,2.01,10.94,5.5l15.04,20.2,6.75-22.31c1.54-5.09,5.93-8.84,11.2-9.57l39.84-5.5c6.41-.88,10.91-6.82,10.02-13.24l-10.72-77.84c-.43-3.11-2.04-5.86-4.54-7.76-2.5-1.9-5.59-2.7-8.69-2.27l-122.27,16.87c-6.41.88-10.91,6.82-10.02,13.24l10.72,77.84c.43,3.11,2.04,5.86,4.54,7.76,2.5,1.89,5.58,2.7,8.69,2.27l36.64-5.05c.62-.09,1.25-.13,1.87-.13Zm83.89-10.74h0,0Z" style="fill: #002e67;"/>
      <g>
        <path d="m417.67,73.75c2.06.34,3.86.98,5.36,1.87,1.5.89,2.69,2.02,3.52,3.33.84,1.31,1.3,2.8,1.34,4.38.04,1.6-.36,3.29-1.23,5-.89,1.72-2.18,3.29-3.77,4.65-1.59,1.36-3.48,2.51-5.52,3.39-2.05.88-4.25,1.48-6.48,1.76-2.23.27-4.47.22-6.61-.21-2.13-.43-3.94-1.19-5.4-2.19-1.45-.99-2.54-2.23-3.25-3.61-.7-1.37-1.01-2.89-.91-4.48.1-1.57.62-3.21,1.59-4.84.96-1.62,2.27-3.07,3.82-4.32,1.54-1.25,3.33-2.3,5.25-3.11,1.91-.81,3.97-1.38,6.05-1.66,2.09-.29,4.21-.29,6.26.06" style="fill: #5dc0cf;"/>
        <path d="m418.64,71.99c3.45.56,6.47,1.63,9,3.1,2.56,1.49,4.61,3.4,6.05,5.61,1.47,2.24,2.32,4.79,2.45,7.52.13,2.77-.48,5.72-1.94,8.7-1.49,3.03-3.69,5.8-6.42,8.19-2.75,2.42-6.01,4.45-9.56,5.99-3.56,1.54-7.39,2.58-11.26,3.03-3.85.44-7.73.29-11.39-.54-3.62-.82-6.68-2.22-9.1-4.05-2.39-1.8-4.16-3.99-5.26-6.44-1.08-2.41-1.5-5.05-1.21-7.79.28-2.7,1.24-5.49,2.94-8.24,1.68-2.72,3.92-5.16,6.54-7.25,2.6-2.08,5.58-3.82,8.76-5.16,3.18-1.34,6.58-2.28,10.02-2.76,3.46-.47,6.98-.48,10.39.07m-18.65,33.63c2.89.62,5.94.71,8.96.35,3.04-.36,6.04-1.18,8.82-2.38,2.78-1.2,5.34-2.78,7.5-4.65,2.15-1.87,3.9-4.01,5.09-6.37,1.17-2.33,1.68-4.64,1.6-6.82-.08-2.14-.73-4.15-1.87-5.93-1.13-1.75-2.75-3.27-4.78-4.47-2-1.18-4.42-2.04-7.17-2.49-2.73-.45-5.56-.45-8.34-.07-2.77.38-5.49,1.14-8.04,2.21-2.56,1.07-4.94,2.47-7.01,4.14-2.08,1.67-3.85,3.62-5.16,5.79-1.32,2.18-2.05,4.39-2.23,6.52-.18,2.15.2,4.22,1.09,6.1.91,1.9,2.35,3.6,4.27,4.98,1.94,1.39,4.38,2.46,7.25,3.08" style="fill: #5dc0cf;"/>
        <path d="m444.74,93.34c-.27-3.94-1.58-7.61-3.75-10.82-2.12-3.14-5.07-5.84-8.72-7.94-3.58-2.06-7.84-3.55-12.67-4.32-4.76-.76-9.66-.74-14.46-.07-4.78.66-9.49,1.97-13.92,3.83-4.44,1.86-8.61,4.29-12.27,7.18-3.71,2.93-6.92,6.35-9.37,10.19-2.5,3.91-4,7.89-4.55,11.77-.56,3.96-.13,7.82,1.24,11.36,1.4,3.62,3.79,6.91,7.09,9.63,3.37,2.78,7.68,4.95,12.87,6.27,5.26,1.34,10.86,1.65,16.47,1.06,5.64-.59,11.24-2.1,16.43-4.38,5.18-2.27,9.93-5.28,13.91-8.89,3.93-3.56,7.08-7.66,9.16-12.14,2.03-4.39,2.82-8.71,2.54-12.74m-6.6,8.1c-1.78,3.73-4.46,7.15-7.78,10.11-3.36,2.99-7.35,5.5-11.7,7.39-4.36,1.9-9.05,3.17-13.79,3.69-4.71.52-9.44.3-13.89-.77-4.39-1.05-8.08-2.82-10.98-5.11-2.85-2.24-4.94-4.97-6.2-7.99-1.23-2.96-1.67-6.2-1.27-9.54.4-3.28,1.62-6.66,3.71-9.99,2.06-3.28,4.78-6.21,7.94-8.72,3.13-2.49,6.71-4.57,10.52-6.17,3.8-1.6,7.86-2.73,11.98-3.3,4.13-.57,8.35-.58,12.43.08,4.14.66,7.78,1.95,10.83,3.72,3.1,1.8,5.59,4.1,7.37,6.77,1.81,2.72,2.88,5.82,3.07,9.15.2,3.39-.51,7.01-2.26,10.68" style="fill: #5dc0cf;"/>
        <path d="m394.72,87.62c-.1,1.59.21,3.11.91,4.48.71,1.38,1.8,2.62,3.25,3.61,1.46,1,3.27,1.76,5.4,2.19,2.14.43,4.39.48,6.61.21,2.23-.27,4.44-.88,6.48-1.76,1.82-.78,3.52-1.78,4.99-2.96-8.19-4.47-17.45-7.21-27.3-7.75-.18.67-.31,1.33-.35,1.98" style="fill: #002e67;"/>
        <path d="m425.29,98.94c-2.16,1.88-4.72,3.45-7.51,4.66-2.79,1.2-5.79,2.02-8.82,2.38-3.02.36-6.07.26-8.96-.35-2.87-.62-5.3-1.68-7.25-3.08-1.92-1.38-3.36-3.08-4.27-4.98-.89-1.88-1.28-3.95-1.09-6.1.16-1.92.77-3.9,1.86-5.88-1.89.06-3.76.21-5.61.43-.24.35-.48.71-.71,1.08-1.7,2.75-2.66,5.54-2.94,8.24-.29,2.74.14,5.38,1.21,7.79,1.09,2.44,2.86,4.64,5.25,6.44,2.42,1.82,5.48,3.23,9.11,4.05,3.66.83,7.53.98,11.39.54,3.87-.45,7.7-1.49,11.26-3.03,3.55-1.54,6.81-3.57,9.57-5.99,1.75-1.53,3.27-3.22,4.54-5.03-1.51-1.23-3.07-2.4-4.69-3.49-.71.81-1.5,1.59-2.34,2.33" style="fill: #002e67;"/>
        <path d="m436.72,104.04c-1.67,2.73-3.83,5.25-6.36,7.51-3.35,2.99-7.34,5.5-11.69,7.4-4.36,1.9-9.05,3.17-13.79,3.69-4.71.52-9.44.3-13.89-.77-4.39-1.06-8.08-2.83-10.98-5.11-2.85-2.24-4.94-4.96-6.19-7.99-1.24-2.96-1.67-6.2-1.27-9.54.4-3.28,1.62-6.66,3.71-9.99.49-.77,1.01-1.52,1.56-2.25-2.15.46-4.26,1.03-6.33,1.7-.68.88-1.31,1.78-1.91,2.7-2.5,3.91-4,7.89-4.55,11.77-.56,3.96-.12,7.82,1.25,11.36,1.4,3.62,3.78,6.91,7.09,9.63,3.37,2.78,7.69,4.95,12.87,6.27,5.26,1.34,10.86,1.65,16.47,1.06,5.64-.6,11.23-2.1,16.43-4.38,5.18-2.27,9.93-5.28,13.91-8.88,3.19-2.88,5.87-6.13,7.87-9.65-1.33-1.58-2.73-3.09-4.2-4.53" style="fill: #002e67;"/>
      </g>
    </g>
    <g>
      <g>
        <path d="m120.8,27.34c-.32,0-.64-.16-.82-.46-.27-.45-.13-1.04.32-1.31.17-.1,17.59-10.59,40.3-16.16,30.18-7.41,55.99-2.85,74.63,13.19.4.34.44.95.1,1.35-.34.4-.95.45-1.35.1-22.92-19.73-52.28-17.85-72.88-12.79-22.43,5.5-39.64,15.85-39.81,15.95-.15.09-.33.14-.49.14Z" style="fill: #fff;"/>
        <path d="m146.77,23.1c-.39,0-.76-.24-.9-.64-.18-.5.09-1.04.58-1.22,19.48-6.88,47.96-12.67,72.97-1.21.48.22.69.78.47,1.26-.22.48-.79.69-1.26.47-24.43-11.19-52.39-5.48-71.54,1.28-.11.04-.21.05-.32.05Z" style="fill: #fff;"/>
      </g>
      <path d="m41.56,371.44c-.33,0-.65-.17-.83-.48-24.87-43.45-30.46-80.09-30.52-80.45-.08-.52.28-1.01.8-1.08.52-.07,1.01.28,1.08.81.05.36,5.61,36.67,30.28,79.78.26.46.1,1.04-.35,1.3-.15.09-.31.13-.47.13Z" style="fill: #fff;"/>
      <path d="m527.04,245.44c-.48,0-.9-.36-.95-.85-2.22-20.94-16.74-35.21-28.52-43.5-12.85-9.03-25.34-13.11-25.47-13.15-.5-.16-.78-.7-.62-1.2.16-.5.7-.77,1.2-.62.13.04,12.86,4.2,25.94,13.38,17.39,12.21,27.55,27.73,29.37,44.89.06.52-.32.99-.85,1.05-.03,0-.07,0-.1,0Z" style="fill: #ceecf1;"/>
    </g>
  </g>
</svg>