<?xml version="1.0" encoding="UTF-8"?>
<svg id="Livello_1" data-name="Livello 1" xmlns="http://www.w3.org/2000/svg" viewBox="0 0 560 100.23">
  <defs>
    <style>
      .cls-1 {
        fill: #2f5aa6;
      }

      .cls-2 {
        fill: #61ad30;
      }
    </style>
  </defs>
  <polygon class="cls-1" points="76.48 2.5 76.48 99.64 75.6 99.64 19.12 44.7 19.12 97.99 0 97.99 0 .97 .94 .97 57.3 55.79 57.3 2.5 76.48 2.5"/>
  <path class="cls-1" d="m90.81,50.42C90.81,23.1,113.06.79,140.27.79s49.51,22.31,49.51,49.63-22.31,49.28-49.57,49.28-49.4-22.19-49.4-49.28m79.61-.12c0-16.64-13.57-30.22-30.22-30.22s-30.1,13.57-30.1,30.22,13.52,30.04,30.1,30.04,30.22-13.51,30.22-30.04"/>
  <polygon class="cls-1" points="404.95 84.65 404.95 97.87 365.04 97.87 365.04 31.68 378.34 31.68 378.34 84.65 404.95 84.65"/>
  <rect class="cls-1" x="417.27" y="31.68" width="13.3" height="66.19"/>
  <polygon class="cls-1" points="487.05 44.86 470.79 44.86 470.79 97.87 457.45 97.87 457.45 44.86 441.15 44.86 441.15 31.68 487.05 31.68 487.05 44.86"/>
  <polygon class="cls-1" points="511.47 69.45 490.98 31.68 506.01 31.68 518.08 54.67 530.16 31.68 545.22 31.68 524.69 69.45 524.69 97.87 511.47 97.87 511.47 69.45"/>
  <polygon class="cls-2" points="277.99 2.74 233.49 100.23 232.79 100.23 188.47 2.74 208.71 2.74 233.08 57.97 257.51 2.74 277.99 2.74"/>
  <polygon class="cls-2" points="333.13 97.88 353.84 97.88 308.33 .37 307.75 .37 262.3 97.88 282.95 97.88 286.71 89.69 308.01 42.73 308.07 42.88 308.09 42.86 313.14 53.95 333.21 97.86 333.13 97.86 333.13 97.88"/>
  <polygon class="cls-2" points="553.12 0 560 13.37 338.72 13.37 331.94 0 553.12 0"/>
</svg>