<?xml version="1.0" encoding="UTF-8"?><svg id="logo_Axion" xmlns="http://www.w3.org/2000/svg" viewBox="0 0 460.4 216.69"><defs><style>.cls-1{fill:#fff;}.cls-2{fill:#db0a0b;}.cls-3{fill:#83b035;}</style></defs><g transform="translate(-183.26 -147.602)"><path class="cls-1" d="M460.39,198.02V72.03c0-10.28-8.31-18.62-18.59-18.68h-109.83l-2.72,9.86c-1.12,3.45-4.27,5.85-7.89,6h-13.39l-1.41,5.08c-1.11,3.46-4.26,5.85-7.89,6h-8.64c-2.46,.19-4.61-1.66-4.8-4.13-.05-.63,.04-1.27,.26-1.87l5.88-20.95H18.58C8.31,53.4,0,61.75,0,72.02v125.99c0,10.28,8.31,18.62,18.58,18.68H441.81c10.28-.06,18.58-8.4,18.59-18.68"/><path class="cls-1" d="M350.99,43.05c-1.23,3.44-4.42,5.79-8.06,5.95h-2.29c-2.47,.19-4.63-1.67-4.81-4.14-.05-.63,.04-1.26,.25-1.85l10.35-36.99c1.13-3.45,4.28-5.84,7.91-5.99h3.66c2.39-.2,4.5,1.58,4.7,3.97,.06,.68-.05,1.36-.3,1.98l-11.4,37.08Z"/><path class="cls-1" d="M123.46,162.67c0,8.29-4.79,13.86-11.79,13.86-5.58,0-9.41-3.03-11.8-9.24-5.89,7.34-10.68,9.73-19.28,9.73-8.55,.02-16.79-3.17-23.11-8.93-9.24-8.13-13.87-19.28-13.87-33.47-.54-11.59,3.93-22.85,12.27-30.92,6.33-6.74,15.14-10.59,24.39-10.68,8.29,0,13.23,2.4,19.92,9.24,2.55-6.21,6.06-8.77,11.63-8.77,6.45,.02,11.66,5.26,11.64,11.71,0,.08,0,.16,0,.25m-56.41,29.32c0,12.28,6.38,20.4,16.26,20.4s16.08-8.29,16.08-20.24-6.54-20.08-16.26-20.08-16.08,8.13-16.08,19.92"/><path class="cls-1" d="M203.79,153.9c4.45,4.95,5.74,7.33,5.74,10.84-.07,6.63-5.47,11.97-12.11,11.95-4.14,0-6.84-1.76-11.48-7.34l-14.82-18.33-15.13,18.33c-4.79,5.58-7.49,7.34-11.79,7.34-6.71-.02-12.13-5.47-12.12-12.18v-.1c0-3.5,1.43-6.05,6.06-10.99l18.96-20.4-15.3-16.57c-4.62-4.94-5.89-7.33-5.89-11,0-6.69,5.42-12.11,12.11-12.11h0c4.45,0,7.01,1.6,11.63,7.65l11.48,14.35,11.48-14.03c4.79-5.89,7.33-7.49,11.63-7.49,6.72-.05,12.22,5.35,12.27,12.08,0,.06,0,.13,0,.19,0,3.67-1.43,6.05-6.21,11.16l-15.14,15.78"/><path class="cls-1" d="M220.85,109.12c-.44-3.33,.11-6.71,1.59-9.72,3.17-5.59,10.27-7.55,15.86-4.38,1.83,1.04,3.34,2.55,4.38,4.38,1.43,2.71,1.6,3.98,1.6,9.72v51.79c.44,3.33-.11,6.71-1.6,9.72-3.17,5.59-10.27,7.55-15.86,4.38-1.83-1.04-3.34-2.55-4.38-4.38-1.43-2.71-1.59-3.98-1.59-9.72"/><path class="cls-1" d="M323.64,105.78c7.05,8.11,10.81,18.57,10.52,29.32,0,23.91-16.73,41.92-39.05,41.92-10.92-.06-21.32-4.68-28.68-12.75-7.2-8.22-10.97-18.89-10.52-29.8,0-23.27,17.06-41.44,39.2-41.44,10.87,.09,21.21,4.71,28.53,12.75m-44.62,28.99c0,11.79,6.7,20.39,15.62,20.39s16.42-8.92,16.42-20.24-7.19-20.08-16.42-20.08c-8.76,0-15.62,8.76-15.62,19.92"/><path class="cls-1" d="M343.89,107.21c0-8.29,4.79-13.71,11.95-13.71,5.08-.2,9.61,3.19,10.84,8.13,5.58-5.87,13.43-9.01,21.52-8.61,7.43-.23,14.68,2.27,20.4,7.02,6.21,5.57,8.45,11.31,8.45,22.47v38.4c.45,3.33-.11,6.72-1.6,9.73-3.17,5.59-10.27,7.55-15.86,4.38-1.83-1.04-3.34-2.55-4.38-4.38-1.44-2.71-1.59-3.98-1.59-9.73v-32.82c0-9.08-5.1-14.82-13.06-14.82-7.37,.06-13.3,6.08-13.24,13.45,0,.14,0,.27,0,.41v33.78c.44,3.33-.11,6.72-1.6,9.73-3.17,5.59-10.27,7.55-15.86,4.39-1.83-1.04-3.35-2.55-4.39-4.39-1.43-2.71-1.59-3.98-1.59-9.73"/><g transform="translate(191.705 151.824)"><path class="cls-3" d="M460.39,198.01V72.02c0-10.28-8.31-18.62-18.59-18.68h-109.83l-2.72,9.86c-1.12,3.45-4.27,5.85-7.89,6h-13.39l-1.41,5.08c-1.11,3.46-4.26,5.85-7.89,6h-8.64c-2.46,.19-4.61-1.66-4.8-4.13-.05-.63,.04-1.27,.26-1.87l5.88-20.95H18.58C8.31,53.4,0,61.74,0,72.02v125.99c0,10.28,8.31,18.62,18.58,18.68H441.81c10.28-.06,18.58-8.4,18.59-18.68"/><path class="cls-2" d="M350.99,43.05c-1.23,3.44-4.42,5.79-8.06,5.95h-2.29c-2.47,.19-4.63-1.67-4.81-4.14-.05-.63,.04-1.26,.25-1.85l10.35-36.99c1.13-3.45,4.28-5.84,7.91-5.99h3.66c2.39-.2,4.5,1.58,4.7,3.97,.06,.68-.05,1.36-.3,1.98"/><path class="cls-2" d="M312.28,43.02c-1.19,3.44-4.36,5.8-8,5.97h-3.02c-2.47,.18-4.62-1.68-4.8-4.15-.05-.63,.04-1.26,.25-1.85l6.57-23.58c1.13-3.45,4.28-5.84,7.9-6h3.66c2.42-.19,4.54,1.61,4.73,4.03,.05,.66-.04,1.32-.28,1.94l-7.01,23.64Z"/><path class="cls-2" d="M331.97,43c-1.15,3.45-4.3,5.83-7.93,5.98h-3.31c-2.47,.19-4.63-1.67-4.82-4.14-.05-.63,.04-1.26,.25-1.85l8.53-30.92c1.11-3.45,4.25-5.85,7.87-6.01h3.69c2.46-.19,4.6,1.66,4.79,4.11,.05,.64-.04,1.28-.26,1.88l-8.81,30.94Z"/></g><g transform="translate(204.453 179.007)"><path class="cls-1" d="M123.46,162.67c0,8.29-4.79,13.86-11.79,13.86-5.58,0-9.41-3.03-11.8-9.24-5.89,7.34-10.68,9.73-19.28,9.73-8.55,.02-16.79-3.17-23.11-8.93-9.24-8.13-13.87-19.28-13.87-33.47-.54-11.59,3.93-22.85,12.27-30.92,6.33-6.74,15.14-10.59,24.39-10.68,8.29,0,13.23,2.4,19.92,9.24,2.55-6.21,6.06-8.77,11.63-8.77,6.45,.02,11.66,5.26,11.64,11.71,0,.08,0,.16,0,.25v57.22Zm-56.41-27.89c0,12.28,6.38,20.4,16.26,20.4s16.08-8.29,16.08-20.24-6.54-20.08-16.26-20.08-16.08,8.13-16.08,19.92"/><path class="cls-1" d="M203.79,153.9c4.45,4.95,5.74,7.33,5.74,10.84-.07,6.63-5.47,11.97-12.11,11.95-4.14,0-6.84-1.76-11.48-7.34l-14.82-18.33-15.13,18.33c-4.79,5.58-7.49,7.34-11.79,7.34-6.71-.02-12.13-5.47-12.12-12.18v-.1c0-3.5,1.43-6.05,6.06-10.99l18.96-20.4-15.3-16.57c-4.62-4.94-5.89-7.33-5.89-11,0-6.69,5.42-12.11,12.11-12.11h0c4.45,0,7.01,1.6,11.63,7.65l11.48,14.35,11.48-14.03c4.79-5.89,7.33-7.49,11.63-7.49,6.72-.05,12.22,5.35,12.27,12.08,0,.06,0,.13,0,.19,0,3.67-1.43,6.05-6.21,11.16l-15.14,15.78,18.63,20.88Z"/><path class="cls-1" d="M220.85,109.12c-.44-3.33,.11-6.71,1.59-9.72,3.17-5.59,10.27-7.55,15.86-4.38,1.83,1.04,3.34,2.55,4.38,4.38,1.43,2.71,1.6,3.98,1.6,9.72v51.79c.44,3.33-.11,6.71-1.6,9.72-3.17,5.59-10.27,7.55-15.86,4.38-1.83-1.04-3.34-2.55-4.38-4.38-1.43-2.71-1.59-3.98-1.59-9.72v-51.79Z"/><path class="cls-1" d="M323.64,105.78c7.05,8.11,10.81,18.57,10.52,29.32,0,23.91-16.73,41.92-39.05,41.92-10.92-.06-21.32-4.68-28.68-12.75-7.2-8.22-10.97-18.89-10.52-29.8,0-23.27,17.06-41.44,39.2-41.44,10.87,.09,21.21,4.71,28.53,12.75m-44.62,28.99c0,11.79,6.7,20.39,15.62,20.39s16.42-8.92,16.42-20.24-7.19-20.08-16.42-20.08c-8.76,0-15.62,8.76-15.62,19.92"/><path class="cls-1" d="M343.89,107.21c0-8.29,4.79-13.71,11.95-13.71,5.08-.2,9.61,3.19,10.84,8.13,5.58-5.87,13.43-9.01,21.52-8.61,7.43-.23,14.68,2.27,20.4,7.02,6.21,5.57,8.45,11.31,8.45,22.47v38.4c.45,3.33-.11,6.72-1.6,9.73-3.17,5.59-10.27,7.55-15.86,4.38-1.83-1.04-3.34-2.55-4.38-4.38-1.44-2.71-1.59-3.98-1.59-9.73v-32.82c0-9.08-5.1-14.82-13.06-14.82-7.37,.06-13.3,6.08-13.24,13.45,0,.14,0,.27,0,.41v33.78c.44,3.33-.11,6.72-1.6,9.73-3.17,5.59-10.27,7.55-15.86,4.39-1.83-1.04-3.35-2.55-4.39-4.39-1.43-2.71-1.59-3.98-1.59-9.73v-53.7Z"/></g></g></svg>