<?xml version="1.0" encoding="UTF-8"?><svg id="logo_Babbler" xmlns="http://www.w3.org/2000/svg" xmlns:xlink="http://www.w3.org/1999/xlink" viewBox="0 0 561.92 63.9"><defs><style>.cls-1,.cls-2,.cls-3,.cls-4,.cls-5,.cls-6{fill:none;}.cls-7{clip-path:url(#clippath);}.cls-8{fill:#fff;}.cls-9{fill:#1aa8e6;}.cls-2,.cls-3,.cls-4,.cls-5,.cls-6{stroke:#1aa8e6;stroke-miterlimit:10;}.cls-2,.cls-5{stroke-width:2.96px;}.cls-2,.cls-6{stroke-linecap:square;}.cls-3{stroke-width:7.69px;}.cls-4,.cls-6{stroke-width:3.84px;}</style><clipPath id="clippath"><path class="cls-1" d="M311.73,25.11c-5.06,0-9.17,4.1-9.17,9.17v9.01c0,5.06,4.1,9.17,9.17,9.17h14.09c5.06,0,9.17-4.11,9.17-9.17v-9.01c0-5.07-4.1-9.17-9.17-9.17h-14.09Z"/></clipPath></defs><g><path class="cls-9" d="M38.98,44.88c0,1.91-.26,3.65-.79,5.2-.53,1.55-1.26,2.92-2.18,4.12s-2.04,2.22-3.33,3.08-2.71,1.57-4.26,2.12c-1.55,.56-3.21,.96-4.97,1.23-1.76,.26-3.72,.39-5.88,.39H3.25c-.92,0-1.69-.27-2.31-.81-.62-.54-.93-1.42-.93-2.64V10.64c0-1.22,.31-2.1,.93-2.64,.63-.54,1.4-.81,2.31-.81h13.52c3.3,0,6.1,.28,8.39,.83,2.29,.56,4.21,1.39,5.78,2.52,1.56,1.12,2.77,2.55,3.6,4.26,.83,1.72,1.25,3.74,1.25,6.07,0,1.3-.17,2.53-.5,3.68-.34,1.15-.82,2.2-1.46,3.14-.64,.94-1.42,1.78-2.35,2.5-.93,.72-1.99,1.3-3.18,1.75,1.53,.28,2.93,.76,4.22,1.46,1.29,.7,2.41,1.59,3.37,2.68,.96,1.1,1.71,2.38,2.26,3.85,.56,1.47,.83,3.12,.83,4.95Zm-14.14-22.67c0-1.08-.17-2.05-.5-2.91-.33-.86-.83-1.57-1.5-2.14-.66-.57-1.5-1-2.51-1.31-1.01-.3-2.36-.46-4.06-.46h-5.53v13.98h6.11c1.58,0,2.84-.19,3.79-.56,.94-.37,1.73-.89,2.35-1.54,.63-.65,1.09-1.41,1.4-2.29,.3-.87,.46-1.8,.46-2.77Zm2.79,23.04c0-1.25-.21-2.36-.63-3.35-.42-.99-1.03-1.81-1.83-2.48-.8-.67-1.83-1.18-3.08-1.54-1.25-.36-2.87-.54-4.87-.54h-6.49v15.31h7.9c1.53,0,2.81-.16,3.85-.48s1.94-.79,2.7-1.42c.77-.62,1.36-1.4,1.79-2.33,.43-.93,.65-1.99,.65-3.18Z"/><path class="cls-9" d="M78.75,59.73c0,.39-.14,.7-.42,.92-.27,.22-.72,.38-1.31,.48-.6,.1-1.48,.15-2.64,.15-1.25,0-2.16-.05-2.73-.15s-.97-.25-1.21-.48c-.23-.22-.35-.53-.35-.92v-2.95c-1.53,1.64-3.26,2.91-5.22,3.83s-4.13,1.37-6.51,1.37c-1.97,0-3.78-.25-5.43-.77-1.65-.51-3.08-1.27-4.29-2.29-1.21-1.01-2.15-2.27-2.81-3.77s-.99-3.24-.99-5.24c0-2.16,.42-4.04,1.27-5.64,.84-1.59,2.11-2.91,3.78-3.95,1.68-1.04,3.77-1.81,6.26-2.31,2.5-.5,5.39-.75,8.69-.75h3.62v-2.25c0-1.16-.12-2.18-.36-3.06-.23-.87-.62-1.6-1.16-2.18-.54-.58-1.26-1.01-2.16-1.29-.91-.28-2.02-.42-3.35-.42-1.74,0-3.31,.2-4.68,.58-1.37,.39-2.59,.82-3.64,1.29-1.05,.47-1.93,.9-2.64,1.29-.7,.39-1.28,.58-1.72,.58-.31,0-.58-.1-.82-.29-.23-.19-.43-.47-.58-.83-.15-.36-.27-.8-.35-1.33s-.13-1.11-.13-1.75c0-.86,.07-1.54,.21-2.04,.13-.5,.4-.95,.79-1.35,.39-.4,1.07-.85,2.04-1.33,.97-.48,2.11-.94,3.41-1.35,1.3-.41,2.72-.75,4.26-1.02,1.54-.27,3.12-.4,4.76-.4,2.91,0,5.4,.28,7.47,.85,2.06,.57,3.76,1.44,5.1,2.62,1.33,1.18,2.3,2.7,2.91,4.55s.92,4.06,.92,6.62v24.96Zm-10.28-15.89h-3.99c-1.69,0-3.13,.13-4.32,.37-1.2,.25-2.17,.62-2.92,1.12s-1.3,1.1-1.64,1.81-.52,1.52-.52,2.43c0,1.55,.49,2.77,1.48,3.66,.98,.89,2.35,1.33,4.1,1.33,1.47,0,2.82-.37,4.06-1.12s2.49-1.84,3.77-3.29v-6.32Z"/><path class="cls-9" d="M126.55,40.55c0,3.3-.36,6.27-1.08,8.9-.73,2.64-1.77,4.88-3.12,6.74s-3.03,3.29-5.01,4.28c-1.98,1-4.24,1.5-6.76,1.5-1.25,0-2.41-.12-3.49-.35-1.08-.24-2.12-.62-3.1-1.15-.98-.53-1.96-1.19-2.91-1.99s-1.93-1.78-2.93-2.91v4.04c0,.3-.08,.56-.23,.77-.15,.21-.4,.38-.75,.52-.35,.14-.81,.24-1.39,.29-.59,.05-1.29,.08-2.12,.08s-1.58-.03-2.15-.08c-.56-.06-1.02-.15-1.37-.29-.35-.14-.59-.31-.73-.52-.14-.21-.21-.46-.21-.77V4.9c0-.28,.08-.53,.25-.75,.17-.22,.45-.41,.85-.56,.4-.15,.94-.27,1.6-.35,.66-.08,1.51-.12,2.54-.12s1.87,.04,2.54,.12c.67,.08,1.2,.2,1.6,.35,.4,.15,.69,.34,.85,.56,.17,.22,.25,.47,.25,.75V25.41c.94-.94,1.89-1.75,2.83-2.41,.94-.67,1.88-1.22,2.83-1.65,.94-.43,1.91-.74,2.91-.94,1-.19,2.05-.29,3.16-.29,2.74,0,5.07,.55,6.99,1.64,1.91,1.1,3.48,2.57,4.68,4.43,1.21,1.86,2.09,4.03,2.64,6.51,.56,2.48,.83,5.1,.83,7.84Zm-10.86,.75c0-1.58-.12-3.11-.35-4.58-.24-1.47-.65-2.77-1.23-3.91s-1.34-2.04-2.27-2.72c-.93-.68-2.1-1.02-3.51-1.02-.69,0-1.37,.1-2.04,.29-.66,.2-1.35,.53-2.06,1-.71,.47-1.44,1.08-2.18,1.83-.75,.75-1.54,1.68-2.37,2.79v12.31c1.47,1.89,2.88,3.32,4.22,4.31,1.35,.99,2.75,1.48,4.22,1.48,1.36,0,2.51-.35,3.45-1.04,.94-.69,1.73-1.6,2.35-2.7,.63-1.11,1.08-2.37,1.35-3.79,.28-1.42,.42-2.83,.42-4.24Z"/><path class="cls-9" d="M172.26,40.55c0,3.3-.36,6.27-1.08,8.9-.73,2.64-1.77,4.88-3.12,6.74s-3.03,3.29-5.01,4.28c-1.98,1-4.24,1.5-6.76,1.5-1.25,0-2.41-.12-3.49-.35-1.08-.24-2.12-.62-3.1-1.15-.98-.53-1.96-1.19-2.91-1.99s-1.93-1.78-2.93-2.91v4.04c0,.3-.08,.56-.23,.77-.15,.21-.4,.38-.75,.52-.35,.14-.81,.24-1.39,.29-.59,.05-1.29,.08-2.12,.08s-1.58-.03-2.15-.08c-.56-.06-1.02-.15-1.37-.29-.35-.14-.59-.31-.73-.52-.14-.21-.21-.46-.21-.77V4.9c0-.28,.08-.53,.25-.75,.17-.22,.45-.41,.85-.56,.4-.15,.94-.27,1.6-.35,.66-.08,1.51-.12,2.54-.12s1.87,.04,2.54,.12c.67,.08,1.2,.2,1.6,.35,.4,.15,.69,.34,.85,.56,.17,.22,.25,.47,.25,.75V25.41c.94-.94,1.89-1.75,2.83-2.41,.94-.67,1.88-1.22,2.83-1.65,.94-.43,1.91-.74,2.91-.94,1-.19,2.05-.29,3.16-.29,2.75,0,5.08,.55,6.99,1.64,1.91,1.1,3.48,2.57,4.68,4.43,1.21,1.86,2.09,4.03,2.64,6.51,.56,2.48,.83,5.1,.83,7.84Zm-10.86,.75c0-1.58-.12-3.11-.35-4.58-.24-1.47-.65-2.77-1.23-3.91s-1.34-2.04-2.27-2.72c-.93-.68-2.1-1.02-3.51-1.02-.69,0-1.37,.1-2.04,.29-.66,.2-1.35,.53-2.06,1-.71,.47-1.44,1.08-2.18,1.83-.75,.75-1.54,1.68-2.37,2.79v12.31c1.47,1.89,2.88,3.32,4.22,4.31,1.35,.99,2.75,1.48,4.22,1.48,1.36,0,2.51-.35,3.45-1.04,.94-.69,1.73-1.6,2.35-2.7,.63-1.11,1.08-2.37,1.35-3.79,.28-1.42,.42-2.83,.42-4.24Z"/><path class="cls-9" d="M191.11,59.61c0,.28-.08,.52-.25,.73-.17,.21-.45,.38-.85,.52-.4,.14-.93,.24-1.6,.31-.66,.07-1.51,.1-2.54,.1s-1.87-.03-2.54-.1-1.2-.17-1.6-.31c-.4-.14-.68-.31-.85-.52-.17-.21-.25-.45-.25-.73V4.9c0-.28,.08-.53,.25-.75,.17-.22,.45-.41,.85-.56,.4-.15,.94-.27,1.6-.35,.66-.08,1.51-.12,2.54-.12s1.87,.04,2.54,.12c.67,.08,1.2,.2,1.6,.35,.4,.15,.69,.34,.85,.56,.17,.22,.25,.47,.25,.75V59.61Z"/><path class="cls-9" d="M235.83,39.97c0,1.28-.28,2.22-.85,2.83-.57,.61-1.35,.91-2.35,.91h-22.59c0,1.58,.19,3.02,.56,4.31,.37,1.29,.97,2.38,1.79,3.29,.82,.9,1.87,1.59,3.16,2.06,1.29,.47,2.83,.71,4.64,.71s3.44-.13,4.82-.39c1.39-.26,2.59-.56,3.6-.87,1.02-.32,1.85-.61,2.52-.87,.66-.26,1.21-.39,1.62-.39,.25,0,.46,.05,.63,.15s.31,.27,.41,.52c.11,.25,.19,.6,.23,1.06,.04,.46,.07,1.03,.07,1.73,0,.61-.02,1.13-.04,1.56s-.07,.8-.12,1.1-.14,.56-.25,.77c-.11,.21-.26,.41-.44,.6-.18,.2-.68,.46-1.48,.79-.8,.33-1.83,.66-3.08,.98-1.25,.32-2.68,.6-4.29,.83-1.61,.23-3.33,.35-5.16,.35-3.3,0-6.19-.41-8.67-1.25s-4.55-2.1-6.22-3.79c-1.67-1.69-2.91-3.83-3.72-6.41-.82-2.58-1.23-5.6-1.23-9.07s.43-6.27,1.29-8.92,2.11-4.89,3.74-6.74,3.63-3.25,5.97-4.22c2.35-.97,4.98-1.46,7.93-1.46,3.11,0,5.76,.46,7.96,1.37,2.21,.91,4.02,2.18,5.43,3.8s2.45,3.54,3.12,5.76c.66,2.22,.99,4.63,.99,7.24v1.66Zm-10.15-2.99c.08-2.94-.51-5.25-1.77-6.93-1.26-1.68-3.21-2.52-5.84-2.52-1.33,0-2.49,.25-3.48,.75-.98,.5-1.8,1.17-2.45,2.02s-1.15,1.84-1.5,2.99-.55,2.38-.6,3.68h15.64Z"/><path class="cls-9" d="M268.28,25.95c0,1-.03,1.82-.08,2.45-.06,.64-.14,1.14-.25,1.5s-.26,.61-.44,.75c-.18,.14-.41,.21-.69,.21-.22,0-.47-.05-.75-.15-.28-.1-.59-.2-.94-.31-.35-.11-.73-.22-1.14-.31-.42-.1-.88-.15-1.37-.15-.58,0-1.17,.12-1.75,.35s-1.18,.6-1.81,1.1c-.62,.5-1.27,1.16-1.96,1.99-.68,.83-1.41,1.86-2.18,3.08v23.13c0,.28-.08,.52-.25,.73-.17,.21-.45,.38-.85,.52-.4,.14-.93,.24-1.6,.31-.66,.07-1.51,.1-2.54,.1s-1.87-.03-2.54-.1-1.2-.17-1.6-.31c-.4-.14-.68-.31-.85-.52-.17-.21-.25-.45-.25-.73V22.5c0-.28,.07-.52,.21-.73,.14-.21,.39-.38,.75-.52,.36-.14,.83-.24,1.4-.31,.56-.07,1.28-.11,2.14-.11s1.63,.04,2.21,.11c.58,.07,1.03,.17,1.35,.31,.32,.14,.55,.31,.69,.52,.13,.21,.21,.45,.21,.73v4.62c.97-1.39,1.88-2.53,2.74-3.43,.86-.9,1.68-1.61,2.46-2.14,.78-.53,1.55-.89,2.33-1.1,.77-.21,1.55-.31,2.32-.31,.36,0,.75,.02,1.17,.06,.41,.04,.84,.11,1.29,.21,.44,.1,.83,.21,1.16,.33,.34,.13,.58,.26,.73,.4,.15,.14,.26,.29,.33,.46,.07,.17,.13,.4,.19,.69s.09,.73,.12,1.31c.03,.58,.04,1.37,.04,2.37Z"/></g><g><g><ellipse class="cls-4" cx="529.95" cy="31.95" rx="30.05" ry="30.03"/><g><path class="cls-9" d="M512.49,39.44v-9.7h-3.76v-2.29c.53,.01,1.04-.03,1.53-.12,.49-.09,.93-.26,1.33-.49,.39-.23,.72-.55,.99-.93,.27-.39,.45-.86,.54-1.43h2.41v14.96h-3.03Z"/><path class="cls-9" d="M519.91,28.23c.29-.99,.69-1.78,1.18-2.38s1.08-1.03,1.74-1.29c.66-.26,1.36-.39,2.1-.39s1.46,.13,2.13,.39,1.25,.69,1.75,1.29c.5,.6,.9,1.39,1.2,2.38,.29,.99,.44,2.21,.44,3.67s-.15,2.75-.44,3.75c-.3,1.01-.69,1.81-1.2,2.41-.51,.6-1.09,1.02-1.75,1.28s-1.37,.39-2.13,.39-1.44-.13-2.1-.39c-.66-.26-1.25-.68-1.74-1.28s-.89-1.4-1.18-2.41c-.3-1-.44-2.25-.44-3.75s.15-2.68,.44-3.67Zm2.64,5.21c.03,.61,.12,1.19,.27,1.75s.39,1.04,.72,1.44c.33,.4,.8,.6,1.41,.6s1.11-.2,1.45-.6c.33-.4,.58-.88,.73-1.44,.15-.56,.23-1.15,.26-1.75,.03-.6,.04-1.12,.04-1.55,0-.26,0-.56-.01-.93s-.03-.74-.08-1.12-.12-.77-.21-1.15c-.09-.37-.23-.72-.42-1.01-.18-.3-.42-.54-.7-.73s-.64-.28-1.05-.28-.75,.09-1.03,.28-.51,.42-.68,.73c-.18,.3-.32,.64-.42,1.01-.1,.38-.17,.76-.21,1.15-.04,.39-.07,.76-.08,1.12,0,.36-.01,.67-.01,.93,0,.43,.02,.94,.04,1.55Z"/><path class="cls-9" d="M536.25,39.44v-9.7h-3.76v-2.29c.53,.01,1.04-.03,1.53-.12,.49-.09,.93-.26,1.33-.49,.39-.23,.72-.55,.99-.93,.27-.39,.45-.86,.54-1.43h2.41v14.96h-3.03Z"/><path class="cls-9" d="M548.13,39.44v-9.7h-3.76v-2.29c.53,.01,1.04-.03,1.53-.12,.49-.09,.93-.26,1.33-.49,.39-.23,.72-.55,.99-.93,.27-.39,.45-.86,.54-1.43h2.41v14.96h-3.03Z"/></g></g><g><ellipse class="cls-4" cx="318.63" cy="31.95" rx="30.05" ry="30.03"/><path class="cls-4" d="M318.78,37.3c5.5,0,9.97-5.39,9.97-12.04s-4.46-12.04-9.97-12.04-9.97,5.39-9.97,12.04,4.46,12.04,9.97,12.04Z"/><rect class="cls-8" x="302.56" y="25.11" width="32.43" height="27.35" rx="9.17" ry="9.17"/><g class="cls-7"><path class="cls-3" d="M302.56,34.28c0-5.06,4.11-9.17,9.17-9.17h14.1c5.06,0,9.17,4.11,9.17,9.17v9.01c0,5.06-4.11,9.17-9.17,9.17h-14.1c-5.06,0-9.17-4.11-9.17-9.17v-9.01Z"/></g><path class="cls-9" d="M318.63,42.35c1.97,0,3.57-1.6,3.57-3.57s-1.6-3.56-3.57-3.56-3.57,1.6-3.57,3.56,1.6,3.57,3.57,3.57Z"/></g><g><ellipse class="cls-4" cx="388.97" cy="31.95" rx="30.05" ry="30.03"/><polyline class="cls-2" points="382.93 32.74 382.93 11.14 388.68 11.14 394.43 11.14 394.43 32.74"/><path class="cls-5" d="M388.75,52.76c5.66,0,10.25-4.45,10.25-9.94s-4.59-9.93-10.25-9.93-10.25,4.45-10.25,9.93,4.59,9.94,10.25,9.94Z"/><rect class="cls-8" x="384.03" y="12.48" width="9.43" height="23.09"/><path class="cls-9" d="M387.37,20.84v19.77c0,.77,.62,1.39,1.38,1.39s1.38-.62,1.38-1.39V20.84c0-.76-.62-1.38-1.38-1.38s-1.38,.62-1.38,1.38"/><path class="cls-9" d="M388.68,46.57c1.97,0,3.57-1.6,3.57-3.57s-1.6-3.56-3.57-3.56-3.57,1.6-3.57,3.56,1.6,3.57,3.57,3.57Z"/></g><g><ellipse class="cls-4" cx="459.31" cy="31.95" rx="30.05" ry="30.03"/><path class="cls-6" d="M442.61,26.48s5.74-5.53,17.22-5.53,17.21,5.53,17.21,5.53"/><path class="cls-6" d="M447.36,31.55s4.15-3.86,12.43-3.86,12.43,3.86,12.43,3.86"/><path class="cls-6" d="M452.38,36.79s2.46-2.27,7.37-2.27,7.37,2.27,7.37,2.27"/><path class="cls-6" d="M457.15,41.7s.93-.83,2.77-.83,2.77,.83,2.77,.83"/></g></g></svg>