<?xml version="1.0" encoding="UTF-8"?><svg id="logo_GavillanControl" xmlns="http://www.w3.org/2000/svg" xmlns:xlink="http://www.w3.org/1999/xlink" viewBox="0 0 560 149.56"><defs><style>.cls-1{fill:#a6c236;}.cls-2{fill:#40454d;}.cls-3{fill:url(#Sfumatura_senza_nome_2);}.cls-4{fill:url(#Sfumatura_senza_nome_2-2);}</style><linearGradient id="Sfumatura_senza_nome_2" x1="146.81" y1="-50.26" x2="239.34" y2="-50.26" gradientTransform="translate(-134.99 44.71) scale(1 -1)" gradientUnits="userSpaceOnUse"><stop offset="0" stop-color="#ece317"/><stop offset=".38" stop-color="#ccd425"/><stop offset=".77" stop-color="#b0c731"/><stop offset="1" stop-color="#a6c236"/></linearGradient><linearGradient id="Sfumatura_senza_nome_2-2" x1="134.99" y1="-30.07" x2="284.55" y2="-30.07" xlink:href="#Sfumatura_senza_nome_2"/></defs><g><g><path class="cls-1" d="M191.93,57.95c2.01,2.01,3.01,4.83,3.01,8.49v3.26l-6.98,.34v-2.91c0-3.69-1.41-5.54-4.24-5.54-1.19-.09-2.36,.37-3.18,1.24-.78,1.04-1.15,2.33-1.06,3.63v26.16c0,3.24,1.39,4.86,4.18,4.86,1.2,.09,2.38-.41,3.15-1.34,.68-.89,1.02-2.29,1.02-4.21v-8.21h-4.11v-6.71h11.23v15.67c0,3.65-1,6.48-3.01,8.49s-4.81,3.01-8.42,3.01c-3.6,0-6.39-1-8.35-3.01-1.96-2.01-2.93-4.83-2.91-8.49v-26.25c0-3.65,.97-6.48,2.91-8.49,1.94-2.01,4.72-3.01,8.35-3.02,3.62,0,6.43,1.01,8.42,3.02Z"/><path class="cls-1" d="M224.78,103.53h-7.39l-1.58-10.9h-7.99l-1.58,10.9h-7.27l8.28-47.91h9.24l8.28,47.91Zm-13.08-37.65l-2.94,20.19h6.09l-2.91-20.19h-.24Z"/><path class="cls-1" d="M243.19,103.53h-9.38l-8.07-47.91h7.39l5.41,36.55h.14l5.34-36.55h7.27l-8.09,47.91Z"/><path class="cls-1" d="M263.72,103.53h-7.27V55.62h7.27v47.91Z"/><path class="cls-1" d="M278.78,96.69h12.11v6.84h-19.37V55.62h7.27v41.07Z"/><path class="cls-1" d="M318.74,103.53h-7.39l-1.58-10.9h-7.99l-1.57,10.9h-7.27l8.28-47.91h9.24l8.27,47.91Zm-11.02-50.65h-5.34l3.97-7.54h7.32l-5.95,7.54Zm-2.06,13l-2.94,20.19h6.1l-2.91-20.19h-.25Z"/><path class="cls-1" d="M347.56,103.53h-7.12l-9.51-31.76h-.14v31.76h-6.84V55.62h8.08l8.55,28.54h.14v-28.54h6.84v47.91Z"/></g><g><path class="cls-1" d="M387.08,57.98c1.99,2.03,2.98,4.85,2.98,8.46v4.31l-6.98,.34v-3.9c0-3.69-1.37-5.54-4.11-5.54-1.15-.07-2.27,.38-3.04,1.24-.78,1.04-1.15,2.33-1.06,3.63v26.16c-.1,1.3,.28,2.59,1.06,3.63,.77,.85,1.89,1.31,3.04,1.24,2.74,0,4.11-1.85,4.11-5.54v-5.37l6.98,.34v5.75c0,3.6-.99,6.42-2.98,8.45-1.99,2.03-4.76,3.04-8.31,3.04s-6.25-1-8.21-3.01c-1.96-2.01-2.93-4.83-2.91-8.49v-26.28c0-3.65,.97-6.48,2.91-8.49,1.94-2.01,4.67-3.01,8.21-3.02,3.56,0,6.33,1.01,8.31,3.04Z"/><path class="cls-1" d="M415.9,58.19c2.08,2.17,3.12,5.12,3.12,8.86v25.05c0,3.74-1.04,6.7-3.12,8.86-2.08,2.17-4.94,3.25-8.59,3.25s-6.52-1.08-8.59-3.25-3.11-5.12-3.12-8.86v-25.05c0-3.73,1.04-6.69,3.12-8.86,2.08-2.17,4.94-3.26,8.59-3.26s6.51,1.09,8.59,3.26Zm-11.89,4.85c-.83,1.19-1.23,2.63-1.13,4.08v24.92c-.1,1.45,.3,2.88,1.13,4.07,1.79,1.83,4.72,1.87,6.56,.09,.03-.03,.06-.06,.09-.09,.82-1.19,1.22-2.62,1.13-4.07v-24.92c.1-1.45-.3-2.88-1.13-4.08-1.79-1.83-4.72-1.87-6.56-.09-.03,.03-.06,.06-.09,.09Z"/><path class="cls-1" d="M449.68,103.53h-7.11l-9.48-31.76h-.13v31.76h-6.84V55.62h8.07l8.56,28.54h.13v-28.54h6.84l-.04,47.91Z"/><path class="cls-1" d="M477.06,62.46h-7.73v41.07h-7.27V62.46h-7.72v-6.84h22.72v6.84Z"/><path class="cls-1" d="M498.07,103.53l-5.75-20.26h-3.35v20.26h-7.27V55.62h10.48c3.92,0,6.91,1.04,8.97,3.12,2.05,2.08,3.08,5.08,3.07,9v3.41c0,5.07-1.71,8.58-5.13,10.54l6.66,21.85h-7.67Zm-9.1-41.2v14.23h2.97c1.74,0,3.01-.48,3.83-1.45s1.24-2.44,1.24-4.45v-2.43c0-2.02-.41-3.5-1.24-4.45-.82-.96-2.09-1.45-3.83-1.45h-2.97Z"/><path class="cls-1" d="M530.45,58.19c2.07,2.17,3.11,5.12,3.11,8.86v25.05c0,3.74-1.04,6.7-3.11,8.86-2.07,2.17-4.94,3.25-8.59,3.25s-6.52-1.08-8.59-3.25c-2.07-2.17-3.11-5.12-3.12-8.86v-25.05c0-3.73,1.04-6.69,3.12-8.86,2.08-2.17,4.94-3.26,8.59-3.26s6.53,1.09,8.59,3.26Zm-11.91,4.85c-.83,1.19-1.23,2.63-1.13,4.08v24.92c-.1,1.45,.3,2.88,1.13,4.07,1.79,1.83,4.72,1.87,6.56,.09,.03-.03,.06-.06,.09-.09,.82-1.19,1.22-2.62,1.13-4.07v-24.92c.1-1.45-.3-2.88-1.13-4.08-1.79-1.83-4.72-1.87-6.56-.09-.03,.03-.06,.06-.09,.09Z"/><path class="cls-1" d="M547.89,96.69h12.11v6.84h-19.38V55.62h7.27v41.07Z"/></g></g><g><path class="cls-3" d="M104.24,131.33h0c-1.4-.22-3.95,.61-5.44,.67-2.1,.01-4.18-.24-6.22-.74-4.53-1.08-8.92-2.64-13.11-4.66-4.52-2.08-7.43-6.13-11.26-9.07-1.6-1.29-3.28-2.48-5.04-3.55-1.03-.6-2.15-1.12-3.24-1.67-3.3,1.03-6.52,2.1-10.24,1.66-1.53-.18-6.05-.74-8.3-2.23-.66,.31-1.4,.74-1.66,.82-1.73,.51-3.57,.57-5.33,.16-.26,.16-.53,.29-.81,.41-.96,.37-1.95,.62-2.97,.74l-.42,.06-.33,.07c-.19,.02-.39,.02-.58,0-.15,0-.25,.04-.38,0-.04-.02-.06-.07-.05-.11-.04-.02-.06-.07-.04-.12,.48-1.14,1.02-2.25,1.61-3.34,.32-.71,.71-1.38,1.17-2.01,.19-.29,.33-.61,.42-.95,.55-2.55,4.08-4.78,6.21-5.84,1.17-.5,2.44-.73,3.71-.67h.07c.48-.2,.95-.44,1.44-.64v-.11c.06-.59,.08-1.18,.08-1.77,0-.59,.1-1.17,.3-1.72-1.82-2.36-3.76-4.52-4.17-4.98-3.94-4.5-9.09-7.69-13.85-11.19-3.67-2.69-7.22-4.99-9.84-8.86-1.38-2.03-2.46-4.25-3.21-6.59-.41-2.21-.67-4.44-.78-6.69-.13-.05-.2-.19-.15-.32,.03-.07,.08-.13,.15-.15h.13c.14-.04,.29,.04,.33,.19,1.02,3.04,1.49,6.31,2.86,9.2-.74-2.64-.91-6.08,.56-8.17,.03-.02,.07-.02,.1,0,.05-.06,.16-.07,.2,0,1.52,3.59,3.29,7.07,5.31,10.4,.57,.87,1.24,1.68,2,2.4-1.2-2.52-2.33-5.53-1.4-8.17,.02-.04,.06-.06,.1-.04,.04-.04,.1-.04,.13,0h0c.11,.08,.19,.18,.25,.3,.05,.06,.1,.13,.14,.2,1.84,2.82,4.19,5.28,6.17,7.99,1.04,1.37,2.16,2.68,3.35,3.92-.47-2.07-.83-4.16-1.07-6.26,0-.08,.1-.09,.13-.04v.04c2.23,.32,4.26,3.24,5.39,4.95,1.57,2.38,3.8,4.83,4.18,7.69,.02-.63,.08-1.26,.18-1.88,.17-1.01,.74-1.74,.97-2.7,.01-.06,.07-.09,.12-.08h.05c1.68,.39,2.58,2.71,3.19,4.06,.43,.91,.78,1.85,1.05,2.82,.09-1.37,.61-2.69,1.49-3.75h0s0-.07,.04-.07c1.44,.32,1.84,3.43,2.04,4.53,.16,.91,.28,1.83,.36,2.75,.69-1.77,1.97-3.26,3.63-4.2,0-.03,0-.07,0-.1,.01-.05,.06-.07,.11-.06,.03,0,.05,.03,.06,.06,.57,1.9,.57,3.92,0,5.82,.67-.68,1.92-1.79,2.64-1.44,.06-.05,.15-.04,.2,.02,.01,.01,.02,.03,.02,.04,.45,1.6,.35,3.3-.3,4.84l.39-.21c.74-.4,2.23-1.41,3.14-1.03h0s.09-.07,.14-.04c.01,0,.03,.02,.04,.04,.47,.82-.16,2.15-.49,2.92-.14,.31-.3,.61-.47,.9,.35-.21,.71-.39,1.08-.55,.74-.32,1.62-.39,2.35-.74,.04-.03,.09-.02,.11,.02,.01,.02,.02,.05,.01,.07,0,0,.07-.04,.08,0,.39,.82-.27,1.81-.61,2.55-.22,.47-.47,.93-.74,1.37,.92-.4,1.81-.88,2.66-1.43,.45-.29,.85-.65,1.2-1.06,0-.03,0-.05,0-.08,.15-.45,.44-.85,.83-1.12,.62-1.1,1.05-2.33,1.81-3.51,.02-.03,.07-.05,.1-.02,0,0,.02,.01,.02,.02,.17,.65,.17,1.34,0,1.99,.68-.59,1.43-1.28,1.34-1.43-.02-.01-.03-.04-.01-.06,.01-.02,.04-.03,.06-.01,.29,.1,.2,.51,0,.9l.83-.44c.23-.12,.52-.04,.64,.19,.07,.14,.08,.31,0,.44-.02,.04-.05,.08-.08,.12,.22-.03,.42,.12,.45,.34,0,.05,0,.11,0,.16-.06,.26-.16,.51-.3,.74,.17-.17,.38-.32,.59-.43,.18-.11,.41-.04,.52,.14,.05,.09,.06,.19,.04,.29-.24,1.26-.44,.97,.55,.24,.27-.2,.67,.13,.56,.43-.25,.68-.86,1.81,.17,.96,.24-.19,.68-.1,.66,.27-.07,1.1-1.74,2.83,.54,.71,.15-.13,.38-.12,.51,.03,.1,.11,.12,.27,.05,.4-.21,.45-1.67,2.35-.45,.94,.25-.28,.23-.28,.58-.37,.16-.05,.33,.05,.38,.21,0,.03,.01,.05,.01,.08,0,1.06-.68,1.49,.5,.83,.15-.09,.35-.04,.44,.11,.04,.08,.06,.17,.03,.25-.39,1.58-.54,1,.53,.54,.19-.11,.43-.05,.54,.14,.04,.06,.05,.13,.05,.2,0,.88-.35,.65-1.09,1.23,.52-.31,1.09-.53,1.68-.65,.26-.08,.53,.07,.61,.33,.04,.14,.02,.29-.06,.42-.15,.26-.35,.49-.59,.68l.3-.16c.24-.13,.53-.04,.65,.2,.08,.14,.08,.31,0,.46-.51,.88,.28,.32,.9,.56,.26,.08,.4,.34,.33,.6,0,.03-.02,.06-.04,.09,.2-.11,.45-.08,.61,.08l.2,.25c.15,.17,.18,.42,.07,.62-.04,.09,.54-.24,1-.26,.32,0,.57,.28,.56,.6,0,.14-.06,.27-.15,.38-1.41,1.11,.18,.17,1.12,.74,.32,.2,.42,.61,.24,.93-.05,.08-.1,.15-.16,.22,.2-.04,.41-.05,.61-.04,.29,0,.52,.25,.52,.54,0,.13-.05,.26-.15,.35-.74,.74-.15,.45,.67,.47,.23,.01,.41,.21,.4,.44,0,.14-.08,.26-.2,.34-1.08,.66-.04,.61,.68,.87,.14,.05,.21,.2,.16,.34-.03,.08-.09,.14-.16,.16-1.56,.59-.86,.16,.12,1.05,.14,.08,.27,.17,.39,.27,.02-.01,.05-.01,.07,0l.16,.13c.08,.07,0,.19-.11,.14h0c-.03,.1-.12,.17-.22,.17-1.53-.11-3.07,.04-4.55,.45-.82,.31-1.54,.82-2.11,1.49l.48-.2c.63-.27,1.69-.63,2.36-.26,.07,.04,0,.14-.06,.13h0c.37,.92-.1,2.23-.52,3.21,.83-.79,1.89-1.28,3.02-1.4h.05c.06-.02,.12,.02,.14,.07h0v.06s0,.04,0,.07c.2,1.33,0,2.69-.59,3.91,1.63-.89,3.52-1.21,5.35-.89l.04-.05h.06c.38,.93-.33,2.3-.98,3.17,.5,0,.99-.05,1.49-.13,1.32-.22,2.55-.44,3.83,.11,.17,.07,.12,.25,0,.34h0c-.27,1.03-.83,1.96-1.62,2.68h1.4c.47,0,3.71-.07,3.86,.66h0c-.62,.54-1.18,1.14-1.68,1.79-.38,.34-.8,.64-1.25,.89,1.17,.18,2.34,.43,3.48,.74,1.34,.27,4.06,.48,4.93,1.69,.04,0-.01,.1-.1,.09Z"/><path class="cls-4" d="M74.79,149.56C33.49,149.57,0,116.09,0,74.79,0,33.49,33.47,0,74.77,0c41.3,0,74.78,33.47,74.79,74.77h0c-.05,41.29-33.49,74.74-74.77,74.79Zm0-146.72C35.06,2.84,2.84,35.05,2.84,74.78c0,39.73,32.2,71.95,71.94,71.95,39.73,0,71.95-32.2,71.95-71.94h0c-.05-39.73-32.23-71.91-71.94-71.95h0Z"/><path class="cls-2" d="M111.74,126.5c-.82,0-1.49-.66-1.49-1.48,0-.47,.22-.92,.6-1.2,27.07-19.93,32.87-58.04,12.93-85.11C103.86,11.63,65.75,5.84,38.68,25.77c-9.48,6.98-16.74,16.57-20.89,27.59-.26,.78-1.1,1.2-1.88,.94s-1.2-1.1-.94-1.88c.01-.04,.03-.07,.04-.11C27.43,19.31,64.25,2.62,97.25,15.03c33,12.41,49.69,49.23,37.28,82.24-4.35,11.56-11.96,21.62-21.91,28.94-.25,.19-.56,.29-.88,.29Z"/></g></svg>