<?xml version="1.0" encoding="UTF-8"?><svg id="logo_Engineering" xmlns="http://www.w3.org/2000/svg" viewBox="0 0 560 84.06"><defs><style>.cls-1{fill:#c5004b;}.cls-1,.cls-2{fill-rule:evenodd;}.cls-2{fill:#002f53;}</style></defs><rect x="115.49" y="57.97" width="444.51" height="1.98"/><path d="M115.49,46.04V4.76h33.81V14.65h-20.22v5.5h17.11v9.47h-17.11v6.39h21.07v10.03h-34.66Z"/><path d="M156.49,46.04V4.76h12.9l11.87,19.19c.46,.73,.85,1.5,1.16,2.3,.42,.99,.86,2.19,1.32,3.59-.12-.73-.21-1.53-.26-2.41s-.09-1.94-.09-3.19V4.76h12.97V46.04h-12.96l-11.86-19.06c-.46-.76-.86-1.55-1.19-2.38-.43-1.03-.87-2.21-1.31-3.53,.14,.76,.23,1.52,.28,2.29,.06,.79,.09,1.91,.09,3.35v19.34h-12.9Z"/><path d="M235.89,46.04l-.66-3.56c-1.55,1.6-3.46,2.81-5.56,3.54-2.17,.78-4.68,1.17-7.56,1.17-6.05,0-10.82-1.94-14.31-5.82s-5.23-9.19-5.23-15.93c0-6.89,1.95-12.24,5.84-16.05,3.89-3.8,9.34-5.7,16.35-5.7,5.52,0,9.97,1.34,13.35,4.01,3.38,2.67,5.39,6.44,6.01,11.29h-12.9c-.51-1.64-1.35-2.89-2.51-3.75-1.16-.86-2.59-1.29-4.29-1.29-2.72,0-4.76,1.02-6.11,3.06-1.35,2.04-2.03,5.07-2.03,9.11,0,3.74,.68,6.53,2.04,8.38s3.43,2.77,6.23,2.78c1.98,0,3.68-.46,5.07-1.36,1.32-.81,2.25-2.14,2.57-3.66h-6.14v-8.82h18.59v22.62h-8.75Z"/><path d="M252.57,46.04V4.76h13.87V46.04h-13.87Z"/><path d="M274.69,46.04V4.76h12.9l11.87,19.19c.46,.73,.85,1.5,1.16,2.3,.41,.99,.85,2.19,1.31,3.59-.12-.73-.2-1.53-.26-2.41s-.08-1.94-.08-3.19V4.76h12.96V46.04h-12.96l-11.87-19.06c-.47-.76-.87-1.55-1.19-2.38-.43-1.03-.87-2.21-1.31-3.53,.13,.76,.23,1.52,.28,2.29,.06,.79,.09,1.91,.09,3.35v19.34h-12.9Z"/><path d="M322.59,46.04V4.76h33.82V14.65h-20.23v5.5h17.1v9.47h-17.1v6.39h21.06v10.03h-34.65Z"/><path d="M363.59,46.04V4.76h33.82V14.65h-20.23v5.5h17.1v9.47h-17.1v6.39h21.06v10.03h-34.65Z"/><path d="M404.59,46.04V4.76h20.26c6.34,0,10.86,.92,13.58,2.77,2.72,1.85,4.07,4.89,4.04,9.11,0,2.52-.55,4.62-1.66,6.28-1.11,1.66-2.82,2.98-5.14,3.96,2.36,.48,4.07,1.45,5.14,2.87s1.65,3.53,1.72,6.29l.23,5.75s.01,.09,.03,.14c.06,1.64,.46,2.5,1.21,2.58v1.54h-13.7c-.25-.99-.43-1.85-.57-2.59-.11-.57-.17-1.14-.19-1.72v-4.13c0-2.13-.43-3.63-1.3-4.5-.86-.87-2.36-1.3-4.48-1.3h-5.78v14.24h-13.41Zm13.41-23.54h6.18c2.17,0,3.66-.28,4.49-.85,.82-.57,1.23-1.56,1.23-2.98s-.41-2.47-1.23-3.04-2.43-.85-4.83-.85h-5.84v7.72Z"/><path d="M449.73,46.04V4.76h13.84V46.04h-13.84Z"/><path d="M471.85,46.04V4.76h12.9l11.87,19.19c.46,.73,.85,1.5,1.16,2.3,.41,.99,.85,2.19,1.3,3.59-.11-.73-.19-1.53-.25-2.41s-.08-1.94-.08-3.19V4.76h12.95V46.04h-12.95l-11.87-19.06c-.47-.76-.87-1.55-1.2-2.38-.43-1.03-.85-2.21-1.3-3.53,.13,.76,.23,1.52,.28,2.29,.06,.79,.08,1.91,.08,3.35v19.34h-12.9Z"/><path d="M551.24,46.04l-.66-3.56c-1.55,1.6-3.45,2.81-5.55,3.54-2.16,.78-4.68,1.17-7.55,1.17-6.06,0-10.83-1.94-14.31-5.82s-5.23-9.19-5.23-15.93c0-6.89,1.95-12.24,5.84-16.05,3.89-3.8,9.34-5.7,16.35-5.7,5.51,0,9.96,1.34,13.34,4.01s5.39,6.44,6.02,11.29h-12.9c-.52-1.64-1.35-2.89-2.52-3.75s-2.59-1.29-4.29-1.29c-2.72,0-4.75,1.02-6.11,3.06s-2.03,5.07-2.02,9.11c0,3.74,.68,6.53,2.04,8.38,1.36,1.85,3.43,2.78,6.2,2.78,1.99,0,3.68-.45,5.07-1.36,1.33-.81,2.26-2.14,2.58-3.66h-6.12v-8.82h18.59v22.62h-8.76Z"/><path d="M120.03,83.79v-10.86h-3.91v-2.5h10.66v2.5h-3.89v10.86h-2.87Z"/><path d="M138.88,83.79v-5.61h-6.31v5.61h-2.83v-13.36h2.83v5.25h6.31v-5.25h2.86v13.36h-2.86Z"/><path d="M145.49,83.79v-13.36h9.45v2.44h-6.61v2.9h6.47v2.45h-6.47v3.11h6.61v2.46h-9.45Z"/><path d="M164.53,83.79v-13.36h5.27c4.19,0,7.09,2.67,7.09,6.69s-2.91,6.67-7.09,6.67h-5.27Zm2.83-2.5h2.43c2.64,0,4.19-1.9,4.19-4.17s-1.44-4.19-4.19-4.19h-2.43v8.35Z"/><path d="M180.04,83.79v-13.36h2.83v13.36h-2.83Z"/><path d="M193.12,70.21c2.76,0,4.51,1.34,5.53,2.93l-2.37,1.28c-.7-1.06-1.89-1.7-3.17-1.7-2.42,0-4.19,1.86-4.19,4.39s1.76,4.39,4.19,4.39c1.05,0,2.07-.35,2.88-1v-1.62h-3.57v-2.44h6.37v5.11c-1.44,1.64-3.52,2.56-5.69,2.52-3.91,0-7.11-2.73-7.11-6.93s3.21-6.92,7.12-6.92Z"/><path d="M202.19,83.79v-13.36h2.84v13.36h-2.84Z"/><path d="M211.88,83.79v-10.86h-3.91v-2.5h10.65v2.5h-3.89v10.86h-2.86Z"/><path d="M229.65,83.79l-.85-2.3h-5.97l-.85,2.3h-3.11l5.17-13.36h3.57l5.15,13.36h-3.1Zm-3.83-10.9l-2.22,6.13h4.43l-2.2-6.13Z"/><path d="M235.12,83.79v-13.36h2.83v10.86h5.66v2.5h-8.49Z"/><path d="M256.05,83.79v-10.86h-3.91v-2.5h10.66v2.5h-3.89v10.86h-2.87Z"/><path d="M273.29,83.79l-2.63-4.79h-2.08v4.79h-2.83v-13.36h6.25c2.78,0,4.49,1.82,4.49,4.31s-1.48,3.63-2.92,3.96l3,5.09h-3.28Zm-1.72-10.92h-2.99v3.68h2.99c1.13,0,2-.72,2-1.84s-.86-1.84-2-1.84h0Z"/><path d="M289.1,83.79l-.85-2.3h-5.97l-.85,2.3h-3.11l5.17-13.36h3.57l5.16,13.36h-3.11Zm-3.83-10.9l-2.22,6.13h4.43l-2.2-6.13Z"/><path d="M303.78,83.79l-6.37-8.96v8.97h-2.83v-13.37h2.92l6.18,8.65v-8.65h2.83v13.36h-2.73Z"/><path d="M310.93,79.75c1.11,1.16,2.64,1.81,4.24,1.8,1.56,0,2.32-.74,2.32-1.5,0-1-1.16-1.34-2.7-1.7-2.18-.5-4.99-1.1-4.99-4.09,0-2.22,1.92-4.02,5.07-4.02,2.12,0,3.89,.64,5.21,1.86l-1.58,2.08c-1.05-.94-2.41-1.47-3.83-1.46-1.28,0-1.96,.57-1.96,1.36,0,.9,1.13,1.18,2.67,1.54,2.2,.5,5.01,1.16,5.01,4.13,0,2.44-1.74,4.29-5.35,4.29-2.56,0-4.41-.85-5.66-2.13l1.55-2.17Z"/><path d="M323.42,83.79v-13.36h9.45v2.44h-6.61v2.9h6.47v2.45h-6.47v5.57h-2.84Z"/><path d="M342.31,70.21c4.05,0,6.99,2.89,6.99,6.91s-2.94,6.91-6.99,6.91-6.97-2.89-6.97-6.91,2.95-6.91,6.97-6.91Zm0,2.52c-2.46,0-4.05,1.88-4.05,4.39s1.58,4.39,4.05,4.39,4.07-1.9,4.07-4.39-1.6-4.39-4.07-4.39h0Z"/><path d="M359.98,83.79l-2.62-4.79h-2.08v4.79h-2.83v-13.36h6.25c2.78,0,4.49,1.82,4.49,4.31s-1.48,3.63-2.93,3.96l3.01,5.09h-3.28Zm-1.72-10.92h-2.99v3.68h2.99c1.13,0,2-.72,2-1.84s-.86-1.84-2-1.84h0Z"/><path d="M378.05,83.79v-9.62l-3.77,9.62h-1.24l-3.77-9.62v9.62h-2.83v-13.36h3.99l3.25,8.33,3.24-8.33h4.01v13.36h-2.88Z"/><path d="M394.03,83.79l-.85-2.3h-5.97l-.85,2.3h-3.11l5.18-13.36h3.57l5.15,13.36h-3.11Zm-3.83-10.9l-2.22,6.13h4.43l-2.2-6.13Z"/><path d="M401.3,83.79v-10.86h-3.91v-2.5h10.65v2.5h-3.89v10.86h-2.86Z"/><path d="M410.99,83.79v-13.36h2.85v13.36h-2.85Z"/><path d="M423.93,70.21c4.05,0,6.99,2.89,6.99,6.91s-2.94,6.91-6.99,6.91-6.97-2.89-6.97-6.91,2.95-6.91,6.97-6.91Zm0,2.52c-2.46,0-4.05,1.88-4.05,4.39s1.58,4.39,4.05,4.39,4.07-1.9,4.07-4.39-1.6-4.39-4.07-4.39h0Z"/><path d="M443.26,83.79l-6.37-8.96v8.97h-2.83v-13.37h2.92l6.18,8.65v-8.65h2.83v13.36h-2.73Z"/><path d="M455.38,77.12c0-4.11,3.11-6.91,7.01-6.91,3.04,0,4.75,1.6,5.69,3.27l-2.44,1.2c-.64-1.2-1.89-1.95-3.25-1.94-2.32,0-4.09,1.86-4.09,4.39s1.76,4.39,4.09,4.39c1.36,.01,2.61-.74,3.25-1.94l2.44,1.18c-.96,1.66-2.65,3.29-5.69,3.29-3.91,0-7.01-2.8-7.01-6.91Z"/><path d="M477.23,70.21c4.05,0,6.99,2.89,6.99,6.91s-2.94,6.91-6.99,6.91-6.97-2.89-6.97-6.91,2.94-6.91,6.97-6.91Zm0,2.52c-2.46,0-4.05,1.88-4.05,4.39s1.58,4.39,4.05,4.39,4.07-1.9,4.07-4.39-1.6-4.39-4.07-4.39h0Z"/><path d="M498.96,83.79v-9.62l-3.77,9.62h-1.24l-3.77-9.62v9.62h-2.83v-13.36h3.99l3.24,8.33,3.25-8.33h4.01v13.36h-2.88Z"/><path d="M505.58,83.79v-13.36h6.25c2.9,0,4.49,1.96,4.49,4.31s-1.6,4.27-4.49,4.27h-3.4v4.79h-2.86Zm5.87-10.92h-3.03v3.68h3.03c1.13,0,1.96-.72,1.96-1.84s-.83-1.84-1.95-1.84h-.01Z"/><path d="M527.09,83.79l-.85-2.3h-5.97l-.85,2.3h-3.11l5.17-13.36h3.57l5.16,13.36h-3.11Zm-3.83-10.9l-2.22,6.13h4.43l-2.2-6.13Z"/><path d="M541.76,83.79l-6.37-8.96v8.97h-2.84v-13.37h2.92l6.19,8.65v-8.65h2.84v13.36h-2.74Z"/><path d="M551.99,83.79v-5.47l-5.15-7.89h3.25l3.33,5.38,3.29-5.38h3.25l-5.09,7.89v5.47h-2.86Z"/><path class="cls-2" d="M44.36,83.89H23.14c-6,0-11.76-2.36-16.04-6.56H44.36v6.56ZM4.31,74.03c-1.14-1.61-2.07-3.36-2.77-5.21H44.36v5.21H4.31Zm-3.75-8.49C.18,63.79,0,62,0,60.21H44.36v5.33H.57Zm-.36-8.62c.51-3.92,1.93-8.03,4.46-12.15L32.51,8.29C38.55,1.82,43.38,.29,48.23,0V27.29l-22.28,29.63H.2Z"/><path class="cls-1" d="M57.28,83.89h21.22c6,0,11.76-2.36,16.04-6.56H57.28v6.56Zm40.05-9.84c1.14-1.61,2.07-3.36,2.77-5.21H57.28v5.21h40.05Zm3.75-8.49c.38-1.75,.57-3.54,.57-5.33H57.28v5.33h43.8Zm.36-8.62c-.51-3.92-1.93-8.03-4.46-12.15L69.14,8.28C63.09,1.81,58.26,.29,53.42,0V27.29l22.28,29.63,25.74,.02Z"/></svg>