<?xml version="1.0" encoding="UTF-8"?><svg id="Livello_1" xmlns="http://www.w3.org/2000/svg" viewBox="0 0 538.66 260"><defs><style>.cls-1{fill:#003764;}.cls-2{fill:#cddb00;}</style></defs><path class="cls-1" d="M156.14,260h-4.38v-23.37h4.38v23.37Z"/><path class="cls-1" d="M175.84,260h-4.39v-16.08c0-1.19-.2-1.97-.59-2.34-.38-.39-1.16-.57-2.35-.57s-1.97,.19-2.36,.57c-.38,.37-.56,1.15-.56,2.34v16.08h-4.39v-16.08c0-4.86,2.44-7.3,7.31-7.3s7.32,2.43,7.32,7.3v16.08Z"/><path class="cls-1" d="M195.51,260h-4.38v-2.15c-1.13,1.43-2.66,2.15-4.54,2.15s-3.44-.74-4.43-2.24c-.84-1.28-1.27-2.98-1.27-5.07v-8.77c0-4.86,2.43-7.3,7.31-7.3s7.31,2.43,7.31,7.3v1.47h-4.38c0-.56,.01-.97,.01-1.22,0-.27,0-.38,0-.33,0-1.14-.21-1.89-.63-2.26-.41-.39-1.19-.57-2.31-.57s-1.95,.19-2.35,.59c-.39,.38-.57,1.16-.57,2.32v8.77c0,1.17,.18,1.96,.57,2.35,.4,.38,1.18,.58,2.35,.58s1.95-.2,2.34-.58c.39-.4,.59-1.19,.59-2.35h-2.93v-4.39h7.31v11.69Z"/><path class="cls-1" d="M215.18,260h-14.62v-23.37h14.62v4.39h-10.24v5.1h7.3v4.38h-7.3v5.12h10.24v4.38Z"/><path class="cls-1" d="M234.86,260h-4.38v-16.08c0-1.19-.2-1.97-.58-2.34-.38-.39-1.16-.57-2.35-.57s-1.98,.19-2.37,.57c-.38,.37-.57,1.15-.57,2.34v16.08h-4.38v-16.08c0-4.86,2.44-7.3,7.31-7.3s7.31,2.43,7.31,7.3v16.08Z"/><path class="cls-1" d="M244.3,260h-4.38v-23.37h4.38v23.37Z"/><path class="cls-1" d="M263.99,260h-14.63v-23.37h14.63v4.39h-10.25v5.1h7.33v4.38h-7.33v5.12h10.25v4.38Z"/><path class="cls-1" d="M283.66,260h-4.38v-6.95c0-1.14-.23-1.89-.65-2.19-.32-.23-1.07-.36-2.28-.36h-2.94v9.51h-4.37v-23.37h7.31c4.88,0,7.31,2.31,7.31,6.96,0,2.34-.99,3.92-2.98,4.72,1.99,.81,2.98,2.39,2.98,4.74v6.95Zm-4.38-16.41c0-1.16-.2-1.89-.61-2.2-.33-.25-1.09-.37-2.32-.37h-2.94v5.1h2.94c1.19,0,1.96-.11,2.28-.33,.42-.31,.65-1.04,.65-2.19Z"/><path class="cls-1" d="M293.87,230.78l-2.92,4.38h-2.93l2.93-4.38h2.92Zm-.77,29.22h-4.39v-23.37h4.39v23.37Z"/><path class="cls-1" d="M312.78,260h-4.38v-4.38h-5.85v4.38h-4.39v-16.08c0-4.86,2.43-7.3,7.32-7.3s7.31,2.43,7.31,7.3v16.08Zm-4.38-8.77v-7.3c0-1.19-.18-1.97-.57-2.34-.4-.39-1.18-.57-2.36-.57s-1.98,.19-2.37,.57c-.37,.37-.56,1.15-.56,2.34v7.3h5.85Z"/><path class="cls-1" d="M347.75,252.69c0,4.87-2.42,7.31-7.32,7.31h-7.3v-23.37h7.3c4.9,0,7.32,2.43,7.32,7.3v8.77Zm-4.37,0v-8.77c0-1.19-.19-1.97-.6-2.34-.37-.39-1.15-.57-2.35-.57h-2.91v14.61h2.91c1.21,0,1.98-.18,2.35-.56,.4-.39,.6-1.18,.6-2.37Z"/><path class="cls-1" d="M367.43,260h-14.61v-23.37h14.61v4.39h-10.24v5.1h7.31v4.38h-7.31v5.12h10.24v4.38Z"/><path class="cls-1" d="M402.39,253.05c0,4.64-2.43,6.95-7.29,6.95s-7.34-2.31-7.34-6.95v-.64h4.4c-.01,1.42,.11,2.29,.39,2.63,.32,.38,1.18,.58,2.55,.58,1.22,0,1.98-.12,2.29-.37,.42-.29,.63-1.01,.63-2.2s-.21-1.89-.63-2.19c-.33-.23-1.1-.36-2.29-.36-4.88,0-7.34-2.31-7.34-6.91s2.46-6.96,7.34-6.96,7.29,2.31,7.29,6.96v.63h-4.38c0-1.41-.12-2.29-.4-2.62-.32-.4-1.16-.59-2.52-.59-1.23,0-1.99,.13-2.32,.37-.43,.3-.63,1.04-.63,2.2s.2,1.9,.63,2.19c.33,.22,1.09,.33,2.32,.33,4.87,0,7.29,2.31,7.29,6.94Z"/><path class="cls-1" d="M411.83,260h-4.38v-23.37h4.38v23.37Z"/><path class="cls-1" d="M431.52,253.05c0,4.64-2.44,6.95-7.32,6.95s-7.31-2.31-7.31-6.95v-.64h4.38c-.02,1.42,.11,2.29,.39,2.63,.33,.38,1.17,.58,2.54,.58,1.23,0,1.99-.12,2.31-.37,.41-.29,.63-1.01,.63-2.2s-.22-1.89-.63-2.19c-.32-.23-1.1-.36-2.31-.36-4.87,0-7.31-2.31-7.31-6.91s2.43-6.96,7.31-6.96,7.32,2.31,7.32,6.96v.63h-4.38c0-1.41-.12-2.29-.39-2.62-.34-.4-1.18-.59-2.55-.59-1.22,0-1.98,.13-2.32,.37-.4,.3-.61,1.04-.61,2.2s.21,1.9,.61,2.19c.34,.22,1.11,.33,2.32,.33,4.87,0,7.32,2.31,7.32,6.94Z"/><path class="cls-1" d="M450.47,241.01h-5.14v18.99h-4.37v-18.99h-5.1v-4.39h14.62v4.39Z"/><path class="cls-1" d="M469.41,260h-14.62v-23.37h14.62v4.39h-10.22v5.1h7.3v4.38h-7.3v5.12h10.22v4.38Z"/><path class="cls-1" d="M499.31,260h-4.38v-16.08c0-1.19-.18-1.97-.58-2.34-.37-.39-1.16-.57-2.36-.57s-1.95,.19-2.35,.57c-.36,.37-.56,1.15-.56,2.34v16.08h-4.38v-16.08c0-1.19-.19-1.97-.57-2.34-.38-.39-1.17-.57-2.35-.57s-1.98,.19-2.37,.57c-.37,.37-.56,1.15-.56,2.34v16.08h-4.38v-16.08c0-4.86,2.43-7.3,7.31-7.3,2.62,0,4.34,.85,5.13,2.53,.76-1.68,2.45-2.53,5.08-2.53,4.88,0,7.33,2.43,7.33,7.3v16.08Z"/><path class="cls-1" d="M518.99,260h-4.38v-4.38h-5.87v4.38h-4.36v-16.08c0-4.86,2.43-7.3,7.3-7.3s7.32,2.43,7.32,7.3v16.08Zm-4.38-8.77v-7.3c0-1.19-.2-1.97-.59-2.34-.37-.39-1.15-.57-2.35-.57s-1.97,.19-2.36,.57c-.38,.37-.58,1.15-.58,2.34v7.3h5.87Z"/><path class="cls-1" d="M538.66,253.05c0,4.64-2.45,6.95-7.3,6.95s-7.32-2.31-7.32-6.95v-.64h4.37c-.02,1.42,.12,2.29,.41,2.63,.31,.38,1.17,.58,2.55,.58,1.2,0,1.99-.12,2.31-.37,.4-.29,.61-1.01,.61-2.2s-.21-1.89-.61-2.19c-.34-.23-1.11-.36-2.31-.36-4.88,0-7.32-2.31-7.32-6.91s2.44-6.96,7.32-6.96,7.3,2.31,7.3,6.96v.63h-4.39c0-1.41-.11-2.29-.39-2.62-.33-.4-1.17-.59-2.53-.59-1.23,0-2.01,.13-2.32,.37-.41,.3-.63,1.04-.63,2.2s.22,1.9,.63,2.19c.32,.22,1.1,.33,2.32,.33,4.85,0,7.3,2.31,7.3,6.94Z"/><path class="cls-1" d="M190.41,200.7c0,6.32-1.66,11.11-4.96,14.39-3.29,3.28-8.08,4.93-14.4,4.93h-19.35v-60.58h19.35c6.32,0,11.12,1.65,14.4,4.95,3.3,3.29,4.96,8.09,4.96,14.41v21.91Zm-13.15,0v-21.91c0-3.4-.85-5.34-2.56-5.83-.77-.26-1.99-.37-3.65-.37h-6.2v34.32h6.2c3.4,0,5.36-.83,5.87-2.52,.22-.85,.34-2.08,.34-3.69Z"/><path class="cls-1" d="M208.67,220.02h-13.12v-60.58h13.12v60.58Z"/><path class="cls-1" d="M252.52,201.6c0,12.28-6.47,18.41-19.35,18.41s-19.36-6.14-19.36-18.41v-2.7h13.15v1.37c0,2.89,.35,4.72,1.04,5.47,.68,.78,2.41,1.16,5.18,1.16s4.39-.21,4.96-.63c.83-.57,1.24-2.12,1.24-4.67s-.41-4.15-1.24-4.66c-.57-.39-2.23-.6-4.96-.6-12.9,0-19.36-6.14-19.36-18.41s6.46-18.5,19.36-18.5,19.35,6.17,19.35,18.5v2.7h-13.15v-1.37c0-2.89-.34-4.7-1.03-5.48-.68-.8-2.4-1.19-5.17-1.19s-4.43,.22-4.97,.68c-.82,.51-1.24,2.07-1.24,4.66s.42,4.09,1.24,4.67c.57,.39,2.24,.6,4.97,.6,12.88,0,19.35,6.13,19.35,18.4Z"/><path class="cls-1" d="M294.57,172.59h-12.81v47.43h-13.14v-47.43h-12.8v-13.15h38.75v13.15Z"/><path class="cls-1" d="M336.58,220.02h-13.17v-18.41c0-2.54-.42-4.09-1.23-4.66-.58-.39-2.23-.6-4.96-.6h-6.21v23.68h-13.16v-60.58h19.36c12.9,0,19.36,6.17,19.36,18.5,0,5.31-2.07,9.24-6.15,11.81,4.08,2.62,6.15,6.57,6.15,11.86v18.41Zm-13.17-42.09c0-2.54-.42-4.1-1.23-4.66-.55-.46-2.21-.68-4.96-.68h-6.21v10.61h6.21c2.73,0,4.38-.21,4.96-.6,.81-.57,1.23-2.12,1.23-4.67Z"/><path class="cls-1" d="M380.4,200.7c0,6.32-1.65,11.11-4.94,14.39-3.29,3.28-8.1,4.93-14.41,4.93s-11.1-1.64-14.4-4.93c-3.29-3.28-4.94-8.07-4.94-14.39v-21.91c0-6.32,1.65-11.12,4.94-14.41,3.3-3.29,8.09-4.95,14.4-4.95s11.12,1.65,14.41,4.95c3.29,3.29,4.94,8.09,4.94,14.41v21.91Zm-13.14,0v-21.91c0-3.45-.84-5.42-2.56-5.91-.72-.2-1.94-.3-3.65-.3-3.47,0-5.45,.85-5.9,2.56-.2,.72-.31,1.94-.31,3.64v21.91c0,3.52,.86,5.5,2.57,5.95,.78,.18,1.98,.26,3.63,.26,3.46,0,5.43-.83,5.92-2.52,.2-.77,.3-1.99,.3-3.69Z"/><path class="cls-1" d="M449.85,220.02h-13.2v-41.23c0-3.43-.82-5.37-2.49-5.83-.82-.26-2.06-.37-3.72-.37-3.43,0-5.36,.82-5.82,2.47-.25,.83-.39,2.07-.39,3.73v41.23h-13.14v-41.23c0-3.43-.83-5.37-2.48-5.83-.83-.26-2.07-.37-3.72-.37-3.4,0-5.35,.82-5.87,2.47-.24,.86-.34,2.1-.34,3.73v41.23h-13.15v-41.23c0-6.32,1.65-11.12,4.95-14.41,3.3-3.29,8.1-4.95,14.4-4.95s10.4,1.76,12.81,5.27c2.33-3.51,6.58-5.27,12.75-5.27s11.11,1.65,14.43,4.95c3.31,3.29,4.97,8.09,4.97,14.41v41.23Z"/><path class="cls-1" d="M493.63,220.02h-38.7v-60.58h38.7v13.15h-25.55v10.61h18.29v13.14h-18.29v10.57h25.55v13.11Z"/><path class="cls-1" d="M537.47,220.02h-38.7v-60.58h13.14v47.47h25.56v13.11Z"/><g><path class="cls-2" d="M19.08,97.57c0-1.87,.08-3.73,.22-5.58L.28,90.63c-.17,2.3-.28,4.61-.28,6.94,0,14.28,3.1,27.84,8.62,40.06l17.38-7.84c-4.44-9.83-6.92-20.73-6.92-32.22Z"/><path class="cls-2" d="M105.41,175.69c-2.56,.25-5.18,.39-7.82,.39l.02,19.06c3.31,0,6.54-.17,9.77-.48l-1.97-18.97Z"/><path class="cls-2" d="M64.96,168.99l-7.89,17.35c6.62,3.03,13.65,5.36,20.97,6.85l3.76-18.7c-5.89-1.19-11.51-3.08-16.84-5.5Z"/><path class="cls-2" d="M33.85,143.39l-15.47,11.13c6.06,8.42,13.42,15.84,21.81,21.94l11.18-15.44c-6.73-4.91-12.65-10.87-17.52-17.63Z"/><path class="cls-2" d="M176.09,97.57c0,6.46-.79,12.73-2.26,18.74l18.53,4.46c1.82-7.44,2.8-15.21,2.8-23.21,0-31.29-14.75-59.13-37.67-76.99l-11.72,15.04c18.44,14.37,30.31,36.77,30.31,61.95Z"/><path class="cls-2" d="M97.57,19.07c12.5,0,24.31,2.94,34.8,8.13l8.51-17.07C127.82,3.65,113.14,0,97.57,0s-30.79,3.8-44.03,10.51l8.56,17.03c10.67-5.4,22.7-8.48,35.47-8.48Z"/><path class="cls-2" d="M48.83,36.06l-11.78-14.99C21.09,33.72,9.19,51.25,3.58,71.42l18.37,5.12c4.5-16.21,14.05-30.3,26.88-40.47Z"/><path class="cls-2" d="M62.98,54.07l-7.94-10.1c-11.17,8.87-19.48,21.15-23.41,35.26l12.4,3.46c3.18-11.45,9.9-21.41,18.95-28.62Z"/><path class="cls-2" d="M52.45,130.01l-10.44,7.51c4.24,5.89,9.39,11.08,15.25,15.37l7.55-10.42c-4.74-3.48-8.92-7.68-12.36-12.46Z"/><path class="cls-2" d="M153.21,97.57c0,4.62-.61,9.08-1.68,13.37l12.53,3.02c1.29-5.25,1.98-10.74,1.98-16.39,0-21.96-10.35-41.49-26.44-54.02l-7.9,10.15c13.08,10.17,21.51,26.02,21.51,43.87Z"/><path class="cls-2" d="M122.15,47.72l5.75-11.53c-9.13-4.52-19.43-7.07-30.32-7.07s-21.64,2.67-30.94,7.41l5.78,11.48c7.56-3.84,16.11-6.07,25.17-6.07s17.17,2.11,24.58,5.78Z"/><path class="cls-2" d="M42.15,93.65l-12.83-.93c-.11,1.61-.2,3.22-.2,4.85,0,10.02,2.18,19.51,6.04,28.09l11.72-5.28c-3.14-6.97-4.92-14.67-4.92-22.81,0-1.33,.1-2.63,.19-3.93Z"/><path class="cls-2" d="M69.12,159.83c4.63,2.11,9.53,3.75,14.66,4.8l2.53-12.58c-4.15-.86-8.1-2.21-11.85-3.94l-5.33,11.72Z"/><path class="cls-2" d="M104.39,165.69l-1.32-12.76c-1.8,.18-3.63,.28-5.5,.28,0,0,0,0-.01,0v12.83h.01c2.31,0,4.57-.12,6.82-.34Z"/><path class="cls-2" d="M113.97,64.15l3.87-7.75c-6.12-3.01-12.98-4.75-20.27-4.75s-14.56,1.84-20.8,5.02l3.89,7.74c5.09-2.6,10.82-4.1,16.91-4.1s11.44,1.41,16.4,3.84Z"/><path class="cls-2" d="M134.83,97.57c0,3.14-.42,6.16-1.15,9.06l8.4,2.04c.91-3.56,1.42-7.27,1.42-11.1,0-14.74-6.97-27.83-17.77-36.23l-5.31,6.83c8.76,6.82,14.4,17.43,14.4,29.4Z"/><path class="cls-2" d="M78.45,139.29c3.11,1.41,6.35,2.53,9.76,3.24l1.71-8.5c-2.74-.57-5.37-1.48-7.88-2.62l-3.59,7.88Z"/><path class="cls-2" d="M60.46,94.97l-8.64-.62c-.07,1.07-.16,2.14-.16,3.23,0,6.71,1.48,13.07,4.06,18.82l7.91-3.56c-2.12-4.66-3.3-9.81-3.3-15.26,0-.88,.08-1.73,.13-2.61Z"/><path class="cls-2" d="M67.35,119.3l-7.02,5.05c2.83,3.93,6.28,7.39,10.17,10.25l5.09-7c-3.16-2.33-5.94-5.12-8.24-8.3Z"/><path class="cls-2" d="M102.07,143.27l-.9-8.62c-1.18,.11-2.37,.19-3.6,.19,0,0-.02,0-.04,0l.02,8.67h.02c1.53,0,3.01-.08,4.5-.22Z"/><path class="cls-2" d="M74.32,68.51l-5.36-6.81c-7.45,5.95-12.98,14.16-15.58,23.59l8.33,2.33c2.12-7.64,6.57-14.29,12.6-19.11Z"/></g></svg>