<?xml version="1.0" encoding="UTF-8"?><svg id="logo_GreenGlobe" xmlns="http://www.w3.org/2000/svg" viewBox="0 0 560 161.27"><defs><style>.cls-1,.cls-2{fill:#0080b3;}.cls-3,.cls-4{fill:#8bd000;}.cls-4,.cls-2{fill-rule:evenodd;}</style></defs><g><path class="cls-1" d="M471.65,80.64c0,44.53-36.74,80.64-82.06,80.64s-82.05-36.1-82.05-80.64S344.28,0,389.6,0s82.06,36.1,82.06,80.64Z"/><g><g id="FDCCcu"><g><path class="cls-4" d="M471.33,73.84c0,.33,0,.66,.01,1,0,.33,0,.67-.02,1,0,.67,0,1.34,0,2-.04,1.5-.07,2.99-.11,4.49h-.42c-.14-.08-.39-.16-.39-.23,.06-1.9-.58-3.71-.81-5.6-.38,.14-.74,.28-1.11,.42-.59,2-1.41,3.93-2.39,5.77-.31,.57-.38,1.1-.32,1.64,.27,2.5-.01,4-1.42,6.61-.8-4.78-2.43-9.2-2.52-13.74-.69-.41-.88,.41-1.55-.08-.6-1.77-1.9-3.43-3.07-5.28-2.15,.88-4.19,.04-6.25-.49-.08-.03-.16-.07-.23-.1-.08-.15-.18-.28-.29-.41-.12-.11-.22-.25-.3-.4-.05-.16-.06-.32-.03-.48-.37-.25-.17,.32-.41,.27-.19,.1-.38,.18-.58,.24-2.46,.17-3.32-1.97-4.96-3.12,.79,1.82,2.2,3.19,3.32,4.63,1.32,.12,1.48-1.58,2.7-1.33,.2,.14,.36,.31,.48,.52,.04,.24-.02,.47-.16,.67-.16,.82,.39,1.13,.98,1.53,1.86,1.28,2.02,1.88,1.02,3.93-.62,1.27-.83,2.78-2.22,3.64-.44,.27-.56,.93-1.3,.95-.47,.01-.97,.35-1.1,.89-.11,.45-.39,.83-.74,.95-2.5,.85-4.55,2.64-7.19,3.31-.2,.4-.42,.84-.7,1.4,.42,.47,.86,.95,1.38,1.51,2-.74,4.14-1.03,6.2-2,0,.36,.08,.7-.01,1-1.01,3.07-1.61,6.31-3.53,9.04-.29,.41-.58,.83-.96,1.15-2.26,1.9-3.9,4.31-5.67,6.61-.87,1.13-1.31,2.46-1.91,3.6,0,1.02,.01,1.93,0,2.84-.02,.9,.06,1.72,.36,2.64,.52,1.58,0,3.31-.15,4.96-.1,1.15-1.12,2.09-2.13,2.66-1.79,1.03-3.04,2.59-4.62,4.02,.78,1.41,.23,2.78-.25,4.25-.54,.26-1.15,.51-1.72,.85-.5,.3-.9,.7-1.13,1.28-1.52,3.82-4.47,6.18-8.18,7.8-1.17,.51-2.45,.16-3.67,.66-.68,.28-1.51,.68-2.4,.65-1.03-.5-1.38-1.16-.64-2.22-.76-1.41-1.26-2.99-2.46-4.21,.22-1.76-.75-3.38-.45-5.11-.96-1.38-1.29-3.08-2.51-4.22-.15-3.27,.37-4.84,2.5-7.2-.42-2.29-.56-4.73-1.42-7.18-.89-2.54-3.15-4-4.13-6.35,.24-.86,1.01-1.55,.89-2.49-.13-.96,.63-1.71,.54-2.67-.17-.45-.39-.89-.97-.98l.04,.04c-.05-.24-.1-.49-.14-.71-1.11-.83-2.09,.39-2.89,.21-1.71-.49-1.41-2.51-2.76-2.8-2.77,.03-5.15,.92-7.34,2.25-2.36-.95-4.59-.72-6.83,.56-2.26-1.51-4.43-3.17-6.39-5.1-.62-.61-.6-1.32-.34-2.38-1.51-1.21-3.02-2.42-4.46-3.56,.27-.72,.41-1.09,.58-1.54-.27-.54-.56-1.12-.86-1.71,1.35-1.07,1-2.89,1.88-4.12-.32-1-.9-1.92-.04-2.86-.45-.49-.9-.99-1.34-1.49,1.82-2.99,3.19-6.26,5.57-9.08,1.75-.17,2.69-1.61,3.73-2.71-.15-2.16,.67-3.79,2.44-4.74,1.21-.65,1.89-1.54,2.33-2.74-.11-.56-.37-1.06-.8-1.56h-2.16c.09-.94-.49-1.67-.71-2.64,1.12-1.5,.66-3.28,.75-4.98,.32-.68,1.04-.82,1.56-1.16,2.26,.3,4.46,1.24,6.74,.45,.54-1.05,.25-2.06,.32-2.96-.58-1.46-1.79-2.08-3.45-2.55,1.16-.97,2.2-.5,3.2-.65-.35-1.48,1.93-.33,1.7-1.89-1.27-.28-2.54-.32-3.67,.38-.57-.43-.41-.72-.11-1.1,.24-.3-.14-.31-.34-.37-.15-.75,.41-1.33,.47-2.03,.02-.16,.04-.33,.06-.49-.11-.19-.22-.39-.33-.58-.36-.41-1.6,.15-1.22-1.07,0-.93,.35-1.9-.82-3.09,1.95,.56,3.55-.5,4.77,1.05,.44,.42-.41,.68-.29,1.37,1.21,.99,1.83,2.72,3.46,3.53,.23,.47-.12,.75-.36,1.06,1.28,.88,1.46,.91,2.34,.12,.62-.56,1.17-1.19,1.58-1.62,1.2-.6,2.43,.07,3.45-.87-.22-.69-.46-1.42-.73-2.23,.54-1.09,1.67-1.32,2.9-1.26-.03-.54-.04-.85-.06-1.23-1.33-.74-2.21,.32-3.35,.7-.73-.13-1.49-.41-2.09-1.28v-2.43c.71-.84,1.88-1.2,2.93-1.61,2.81-1.09,3.13-1.26,4.75-3.88,2.04-.38,4.06-.81,6.16-.84,1.48-.02,3.51,.22,4.93,.81,1.28,.54,2.68,.82,3.98,1.32,1.58,.6,3.43,.73,4.54,2.21-.12,.27-.21,.45-.32,.7h2.26c.3-.54-.1-.83-.25-1.2,.24-.31,.6-.2,.92-.21,1.74,1.06,3.68,.68,5.55,.75,1.19,.08,2.42-.21,3.57,.29,.7,.58,1.57,.65,2.29,.94,.59-.62-.1-1.25,.29-1.67,.12-.26,.24-.25,.42-.1,.96,.79,2.26,.88,3.3,1.59,.5,.34,1.48,.05,2.25,.11,1.09,.09,2.19,.02,3.2,.02,1.43,1.33,2.6,2.83,4.39,3.56,.51,.21,.8,.55,1.09,.95,3.38,4.49,6.5,9.14,8.93,14.2,2.86,5.99,5.09,12.19,6.43,18.71,.59,2.89,.83,5.81,1.46,8.68,0,.33,.01,.67,.02,1Z"/><path class="cls-4" d="M315.86,90.41c.41-.02,.82-.04,1.14-.05,.55-.56,.18-1.23,.59-1.91,.57-.43,1.29-.97,2.02-1.52,1.5,.62,2.4,2.24,4.2,2.48q1.25-.53,2.98-.42c-.46,2.83,2.61,3.61,3.21,5.89,3.09-.34,4.64,1.32,5.56,3.74,.46,1.2,1.56,2.21,.98,3.57,.95,.56,1.64,.93,2.44,1.22,1.11,.4,2.23,.75,3.05,1.89,.6,.84,1.98,1.11,3.15,1.1,.92-.01,1.62,.38,2.26,.91,1.07,.88,1.86,2.11,3.44,2.36,.52,.08,.86,.73,1,1.34,.12,.55,.33,1.09,.49,1.6-.42,2.52-2.15,4.3-3.48,6.29,.68,5.58,.68,5.67-.51,9.29-1.46,.21-2.86,.91-4.38,1.38-.19,.33-.4,.68-.61,1.04,.24,.68,.48,1.37,.72,2.05-.36,1.62-1.15,3.11-1.76,4.48-.83,.72-1.31-.52-2.02-.05,.09,.79,1.4,1.07,.88,2.1-.4,.87-1.71-.55-2,.74-.27,.33-.36,.66,.02,.98,.96,.39,.2,1.29,.7,2.04,.31,.26,.8,.66,1.28,1.06,.38,.49,.37,.99,.01,1.48-3.6-2.16-6.07-5.42-8.43-8.71-2.25-3.14-3.65-6.71-4.89-10.37-.54-1.6-1.18-3.21-1.78-4.81-.43-1.13-.51-2.42-.81-3.57-.69-2.64-.71-5.63-3.43-7.49-1.58-1.08-1.81-2.9-1.42-4.95,.25-.49,1.3-.87,.77-2.13-.89-.57-1.96-1.32-2.53-2.81-.79,1.21-1.44,2.2-2.09,3.2-.67-.52-.16-1.35-.57-2.01-.59-.95-.51-2.21-.12-3.14,1.09-2.58,.72-5.05-.07-7.57-.07-.22,.02-.5,.03-.75l-.04,.05Z"/><path class="cls-4" d="M307.7,75.85c0-.33,0-.67,0-1,1.09-11.09,3.9-21.71,9.21-31.6,1.71-3.2,3.57-6.33,5.76-9.22,1.18-1.56,2.91-2.65,4.75-3.74-.16-1.47,.97-2.11,2.17-2.45,.7-.2,1.19-.37,1.53-1.05,.29-.59,.97-.93,1.59-1,1.48-.18,2.36-1.04,3.03-2.41,1.17,.33,2.15-.96,3.38-.25,.67-.29,.66-.89,.68-1.47,.13-.1,.25-.23,.39-.3,5.27-2.6,10.72-4.65,16.58-5.59,2.39-.38,4.82-.36,7.18-.95,3.37-.85,6.84-1.19,10.27-1.73,2.5-.39,5.01-.35,7.51-.11,.23,.02,.44,.23,.66,.35,.24,.43,1.31,0,1.01,.97q-1.21,2.21-1.09,2.99c-1.44-.33-2.41,.8-3.69,1.08-.81,.18-.7,1.2-.99,2.03-2.22,.85-4.45,1.95-7.09,2.02-.14,.19-.33,.45-.61,.82-1.16,0-2.34,.24-3.45,.92-.76,.47-1.67,.9-2.55,.96-2.5,.17-3.9,1.92-5.5,3.42-.82,.77-1.68,1.5-2.25,2.36-1.31,.01-2.19-1.06-3.17-.44-1.35-1.22-.58-2.69-.98-3.98,.63-.8,1.37-1.57,2.54-1.98-.85-1.88,1.01-3.23,.86-4.94-1.9-.8-3.53,.57-5.3,.3-.19-.32-.38-.65-.58-.98-2.69,.86-5.67,2.43-7.72,4.58,1.05,1.1,2.84,.51,3.91,1.6-.29,.38-1.19,.19-.72,1.26,.07,.11,.45-.04,.76,.04,.33,.25,.86,.4,.58,.99-.71,.32-1.46,.6-1.82,1.36-.47-.43-.99-.55-1.58-.32-.42,.41-.19,.73,.23,1.18-.53,.62-.88,1.42-2.01,1.25-.24-.04-.41,.21-.35,.49,.16,.2,.12,.37-.1,.49-1.21,.23-2.06-.53-3-1.05-.19-.07-.26-.17-.22-.28,.04-.12,.09-.18,.15-.18h0c.28-.25,.78-.13,.97-.56,.31-.37,.63-.74,.95-1.11-.21-.71-.89,.03-1.11-.33-.47-.23-.08-.91-.9-1-.57-.03-.64,.95-1.32,1.07-.44,.28-.84,.08-1.23-.12-.96-.66-1.1-.04-1.15,.72,.04,.46,.59,.83,.27,1.36-.22,.66-1.15,.5-1.37,1.2,.08,.35,.43,.28,.69,.37,.13,1.71-1.38,1.86-2.42,2.2-2.65,.86-5.15,2.84-6.6,5.55,.34,.96,1.45,.68,1.83,1.03,.77,.65,.34,1.25,.44,1.78,.34-1.06,.99-1.89,1.81-2.62,.17-.16,.36-.3,.56-.43,1.96-1.23,2.18-3.6,3.56-5.24,.89-1.06,1.73-1.57,3.06-1.31v.02c1.46-.76,1.63,.91,2.48,1.29,.59,.1,1.12-.12,1.67-.27,.21-.13,.43-.26,.79-.47,.2,1.14,.41,2.2-.24,3.17,.35,1.2,2.04,1.14,2.15,2.69-.43,.92-.92,2.1-1.79,2.9,.17,.9,.73,1.06,1.41,1.21,.14,.86,.38,1.75-.56,2.41-1.25-.3-2.62,.09-3.87-.68,.51-.92,1.74-1.43,1.89-2.83-1.68,.18-3.07,.68-4.08,1.96-.44,.07-.66-.56-1.18-.26-.22,1.04-1.47,1.75-1.19,2.96,.27,.43,.67,.28,.96,.42,.3,.23,.79,.36,.49,.91-1.22,.84-2.78,1.17-3.62,2.43-.69-.01-.27-.75-.95-.88-1.14,.61-2.42,1.3-3.44,2.27-.08,.45,.1,.72,.44,1.13-.25,.18-.49,.45-.78,.55-1.56,.53-2.71,1.57-3.43,2.95-.66,1.26-1.89,2.15-2.03,3.81-.08,.88-1.2,1.71-1.93,2.49-.96,1.04-1.99,2.01-2.55,3.33-.52,.52,.2,2.27-1.57,1.54-.28-.16-.57-.32-.85-.48-1.18,.15-1.44,1.96-2.91,1.43-1.71,2.65-1.81,5.5-1.8,8.38,0,1.91,0,1.91,.72,3.03,1.52-.59,.82-2.58,2.28-3.44,.03,2.06-.88,3.86-.9,5.66,.54,.62,1.26,.11,1.96,.72,.2,.19,.14,.68,.02,1.18-.74,.68,.63,2.12-.94,2.5-.42-.88-.9-1.71-1.66-2.38-.68-.6-.31-1.86-1.62-2.24-.56-.16-.81-1.32-.86-2.15-.03-.44,.23-1.01-.45-1.24-.02-.5-.04-1-.07-1.5,0-.5,.01-1,.02-1.5Z"/><path class="cls-4" d="M443.34,119.05c-.89,.79-1.07,1.95-1.55,2.98-.79,1.7-1.7,3.34-2.5,5.04-.63,1.35-1.41,2.55-2.86,3.2-.32-.29-.86-.46-.95-.98-.2-1.54,.28-2.88,1.3-4.03,.57-.64,.48-1.39,.43-2.12-.06-.9,.3-1.87,.93-2.13,2.23-.92,3.26-2.88,4.61-4.79,.96,.87,.38,1.9,.58,2.83Z"/><path class="cls-4" d="M387.41,33.67c.06,.44,.28,.69,.76,.64,.41-.04,.78-.02,.83,.51-.16,.16-.33,.18-.51,.02-.17,0-.33,0-.5,.01-.18,.13-.33,.29-.46,.47-.04,.3-.07,.59-.11,.89-.07,.25-.28,.41-.39,.63l-.03,.03c-.22,.1-.38,.28-.56,.43-1.25-.23-2.13,.78-3.36,.97-.13-.15-.29-.34-.6-.71,.78-.66,1.16-1.56,.86-2.64,1.57-.14,2.56-1.46,4.07-1.25Z"/><path class="cls-4" d="M374.07,24.65c.68-.38,1.11-.61,1.54-.85,1.94,1.22,3.72-.4,5.74-.14,.15,.2,.84,.05,1.22,1.08-.12-.26-.16-.11-.35-.04-1.38,.51-2.73,1.28-4.15,1.43-1.32,.14-2.92,.13-4-1.47Z"/><path class="cls-4" d="M321.98,80.03c-1.22,.66-2.35,.54-3.49,.22,0-.6,.64-.7,.81-1.11-.1-.21-.2-.41-.3-.62,.55-.35,1.17-.28,1.71-.17,.78,.16,1.33,.63,1.27,1.69Z"/><path class="cls-4" d="M339.84,33.87c-.56,.84-1.2,1.56-2.36,1.45-.52-.36-.27-.88-.3-1.35-.06-.94-.63-1.22-1.5-1.12,.05-.78,.71-.64,1.07-.51,1.08,.4,2.18,.78,3.09,1.53Z"/><path class="cls-4" d="M314.76,67.88c.31-.03,.63-.07,.81-.09,.57-.44-.14-1.32,.76-1.45,0,1.5,0,3,0,4.51,.1,.09,.2,.18,.3,.26-.11,.07-.23,.13-.34,.2-.5,.12-.29,.71-.76,1.01-.31-.92-.34-1.83-.18-2.73,.13-.71-.11-1.24-.59-1.71Z"/><path class="cls-4" d="M433.69,25.82c-1.55-.17-3.08-.18-4.43,.55-.79-.36-.78-1.09-1.14-1.57,.63,.21,1-.43,1.55-.47,.16,.18,.31,.17,.46-.01,.56,0,.53,.48,.67,1h2.89c.12,.11,.16,.23,.12,.34-.04,.11-.08,.17-.12,.17Z"/><path class="cls-4" d="M433.16,22.27c-.46,.16-.8,.43-.9,.92,.18,.25,.15,.48-.1,.67-.69-.04-1.21-.38-1.57-.86-.09-.83,.4-1.25,.89-1.69h2.2c.32,.58-.21,.71-.52,.96Z"/><path class="cls-4" d="M312.33,86.85c.73-.14,.39-.71,.48-1.12,.11-.47-.38-1.14,.46-1.38,.02,1.5,.05,3,.07,4.5-.09,.07-.18,.14-.27,.22-.1-.06-.19-.13-.29-.2-.89-.51-.27-1.36-.45-2.02Z"/><path class="cls-4" d="M334.15,30.31c-.02-.26-.16-.48-.42-.5-.41-.02-.58-.19-.56-.58,.55-.57,1.19-1.01,1.89-1.37,.53-.15,.71,.53,1.19,.5-.14,1.25-1.22,1.5-2.11,1.95Z"/><path class="cls-4" d="M433.16,22.27c.18-.32,.35-.64,.52-.96,.63,0,1.27,0,1.91-.03,.38-.02,.58,.14,.68,.48-.22,.4-.74,.17-1.01,.46-.7,.01-1.4,.02-2.11,.03Z"/><path class="cls-4" d="M383.41,14.28c-.04-.36-.25-.49-.62-.5-.25,0-.37-.23-.4-.47,1.01,0,2.02,0,3.04,0,.18,.11,.24,.21,.18,.3-.06,.09-.13,.14-.19,.14-.73-.04-1.25,.66-2.01,.53Z"/><path class="cls-4" d="M315.91,90.36c-.34,.18-.68,.36-1.02,.53-.25-.03-.41-.25-.65-.31-.15-.05-.3-.12-.44-.21v.03c-.06-.1-.11-.2-.17-.3,.08-.08,.16-.17,.24-.25,.6,.13,1.08-.18,1.39-.49,.73,.23,.58,.68,.61,1.06l.04-.05Z"/><path class="cls-4" d="M341.24,145.47c0-.49,0-.99-.01-1.48,.51,.81,1.03,1.62,1.54,2.43h0c-.77,.08-1.25-.28-1.54-.95Z"/><path class="cls-4" d="M334.62,48.27c-.16-.3-.33-.6-.49-.91,.85,.14,1.27-.57,2.01-1.15,0,1.29-.64,1.76-1.52,2.06Z"/><path class="cls-4" d="M385.41,13.75c.02-.15,.03-.3,.02-.44,.36-.18,.72-.35,1.04-.51,.49,.14,.74,.43,.91,.83-.65,.29-1.31,.14-1.97,.12Z"/><path class="cls-4" d="M315.85,75.36c.29,.04,.48,.19,.53,.48l-.07,.23c-.15,.06-.3,.12-.44,.2-.4,0-.89,.21-1-.44-.19-.09-.28-.24-.27-.45,.02-.2,.11-.36,.28-.48,.15-.08,.3-.07,.44,.03,.21,.1,.39,.24,.54,.41Z"/><path class="cls-4" d="M388.9,35.81c.36,.79-.16,1.39-.47,2.03-.24-.02-.48-.04-.95-.08,.52-.71,.97-1.33,1.42-1.95Z"/><path class="cls-4" d="M465.76,92.73v-3.06c.83,1.18,.29,2.12,.5,3.02-.17,.01-.33,.03-.5,.04Z"/><path class="cls-4" d="M337.67,30.28c.01,.15,.04,.3,.07,.45-.61,.19-1.22,.37-1.91,.58,.24-1.18,1.05-1.09,1.84-1.04Z"/><path class="cls-4" d="M318.4,74.35c.65,.12,.83,.62,1.05,1-.24,.51-.52,.53-.86,.38-.28-.24-.16-.58-.2-.88-.11-.11-.15-.22-.11-.34,.04-.11,.08-.17,.12-.17Z"/><path class="cls-4" d="M375.33,66.36c-.02-.48,.39-.65,.83-1.05,.09,.65,.51,1.18-.39,1.48-.16-.13-.31-.28-.44-.43Z"/><path class="cls-4" d="M444.87,23.32c.55,.1,.89,.44,1.02,.97,.18,.11,.23,.22,.18,.32-.06,.11-.12,.16-.17,.16-.55-.1-.89-.43-1.03-.95-.11-.11-.15-.23-.11-.34,.04-.11,.08-.17,.11-.17Z"/><path class="cls-4" d="M434.2,24.3c0,.33-.19,.49-.51,.52-.4-.05-.92,.14-1.03-.5,.03-.3,.31-.36,.5-.51,.34,.16,.69,.32,1.03,.49Z"/><path class="cls-4" d="M316.29,71.31c.03-.15,.04-.31,.04-.46,.51,.06,.95-.1,1.33-.42,.21,.16,.23,.38,.17,.65-.42,.53-1.02,.19-1.55,.24Z"/><path class="cls-4" d="M314.82,75.37c.03,.15,.05,.31,.05,.46-.52-.04-.95,.17-1.35,.46-.48-.86,.08-.94,.73-.95,.2-.17,.39-.16,.56,.03Z"/><path class="cls-4" d="M316.38,75.84c.55,.14,.83,.51,.94,1.04-.03,.28-.19,.46-.47,.53-.48-.13-.5-.52-.54-.9-.14-.21-.14-.42,0-.62l.06-.05Z"/><path class="cls-4" d="M317.04,80.86c-.61,.08-.81-.42-1.1-.78q.96-.06,1.1,.78Z"/><path class="cls-4" d="M327,84.84c-.29-.02-.43-.17-.45-.45-.03-.46,.29-.54,.63-.48,.26,.04,.37,.29,.31,.55-.06,.25-.19,.44-.49,.38Z"/><path class="cls-4" d="M317.83,77.37c.36,.04,.63,.23,.52,.6-.16,.52-.59,.38-.97,.25-.3-.51-.38-.91,.45-.85Z"/><path class="cls-4" d="M317.83,77.37c-.58,.07-.43,.5-.45,.85-.71,.07-.44-.49-.53-.82,.03-.29,.11-.52,.47-.53,.32,.02,.53,.14,.51,.5Z"/><path class="cls-4" d="M317.38,72.85c0,.17,0,.34,0,.51-.18,.15-.34,.32-.5,.49-.37-.05-.58-.24-.47-.62,.15-.52,.62-.34,.98-.38h0Z"/><path class="cls-4" d="M317.38,72.85q.66-.59,.97,.29c-.44,.28-.59-.42-.97-.29h0Z"/><path class="cls-4" d="M339.25,140.89c-.56,0-.75-.38-.96-.91,.34-.03,.64-.05,.94-.07l.03-.03c.13,.19,.12,.38-.03,.55-.01,.15,0,.31,.02,.46Z"/><path class="cls-4" d="M373.24,66.4c.49-.02,.68,.35,.98,.7-.49,.39-.8,.36-.96-.28-.18-.08-.24-.18-.19-.27,.05-.1,.11-.15,.16-.15Z"/><path class="cls-4" d="M344.31,147.41c-.41-.01-.92,.19-1.02-.48-.12-.11-.17-.22-.13-.33,.04-.11,.08-.17,.12-.17,.57,.1,.9,.43,1.02,.98h0Z"/><path class="cls-4" d="M344.8,147.43c.49,0,.63,.43,1.01,.72-.51,.39-.83,.4-1-.23-.13-.11-.17-.22-.13-.33,.04-.11,.08-.17,.12-.17Z"/><path class="cls-4" d="M340.74,31.79c.03-.16,.07-.33,.1-.49,.42,.11,.59,.48,.85,.79-.49,.41-.81,.34-.95-.29Z"/><path class="cls-4" d="M392.22,29.27c-.38-.79,0-.94,.69-.95,.05,.61-.38,.71-.69,.95Z"/><path class="cls-4" d="M435.26,22.24c.09-.66,.65-.35,1.01-.46,.22,.05,.39,.15,.31,.52-.42-.02-.87-.04-1.32-.06Z"/><path class="cls-4" d="M433.17,23.82c.02,.35-.2,.47-.5,.51-.28-.04-.49-.15-.5-.46,.03-.22,.07-.45,.1-.67,.3,.21,.61,.42,.91,.63Z"/><path class="cls-4" d="M446.38,24.32c.56,.1,.89,.45,1.04,.98-.17,.19-.35,.2-.53,0-.32-.01-.5-.17-.5-.5-.14-.11-.19-.22-.15-.33,.04-.11,.09-.17,.14-.17Z"/><path class="cls-4" d="M346.37,27.32c-.19-.33-.39-.66-.58-.99,.38,0,.84-.16,1.03,.34,.14,.37-.07,.59-.45,.66Z"/><path class="cls-4" d="M362.06,53.41c.3,0,.62-.21,.93,.1-.13,.56-.61,.21-.9,.33-.11-.09-.15-.18-.12-.28,.03-.1,.06-.15,.1-.15Z"/><path class="cls-4" d="M362.06,53.41c.01,.14,.02,.29,.02,.43-.01,.31-.16,.48-.49,.45-.31-.3-.32-.6,0-.9,.16-.07,.31-.07,.46,.02Z"/><path class="cls-4" d="M361.6,53.39c0,.3,0,.6,0,.9-.26,.03-.48-.07-.52-.33-.05-.36,.11-.59,.52-.57Z"/><path class="cls-4" d="M399.43,103.43c.22,.26,.38,.52,.04,.84-.58-.25-.33-.54-.04-.84Z"/><path class="cls-4" d="M323.49,80.39c-.09,.11-.18,.21-.3,.35-.25-.41-.49-.78,.28-.84,.12,.1,.16,.21,.13,.32-.03,.11-.07,.17-.11,.17Z"/><path class="cls-4" d="M362.32,82.31c-.23-.26-.38-.53-.05-.84,.58,.25,.33,.54,.05,.84Z"/><path class="cls-4" d="M362.83,84.81c-.23-.26-.4-.52-.05-.85,.55,.25,.32,.55,.05,.85Z"/><path class="cls-4" d="M363.85,84.8c-.21-.26-.4-.51-.04-.84,.57,.25,.29,.54,.04,.84Z"/><path class="cls-4" d="M313.34,88.85c.6,.11,.46,.61,.52,.99h-.06c-.15,.18-.31,.17-.46,.01-.06-.15-.07-.3-.04-.45-.11-.12-.16-.23-.12-.35,.03-.12,.07-.18,.1-.18h.06Z"/><path class="cls-4" d="M446.89,25.31c.18,0,.35,0,.53,0,.12,.07,.25,.15,.37,.22-.08,.09-.15,.25-.24,.27-.37,.07-.6-.1-.66-.48Z"/><path class="cls-4" d="M314.36,90.4c.36-.03,.46,.22,.53,.5-.05,.2-.07,.45-.35,.39-.1-.02-.15-.23-.23-.35-.15-.19-.13-.37,.06-.53Z"/><path class="cls-4" d="M338.64,29.73c.05,.8-.52,.57-.97,.56,.09-.57,.59-.46,.97-.56Z"/><path class="cls-4" d="M437.3,116.15c.4-.4,.66-.25,.92-.02-.25,.24-.5,.4-.92,.02Z"/><path class="cls-4" d="M312.25,98.61c-.4,.39-.66,.25-.92,.02,.25-.24,.5-.4,.92-.02Z"/><path class="cls-4" d="M370.73,66.11c.3-.27,.57-.38,.9-.1-.26,.6-.56,.26-.9,.1Z"/><path class="cls-4" d="M372.26,60.62c.31-.28,.58-.38,.9-.1-.26,.62-.56,.25-.9,.1Z"/><path class="cls-4" d="M370.78,67.59c.38-.38,.65-.24,.91,0-.25,.23-.5,.43-.91,0Z"/><path class="cls-4" d="M372.75,66.87c-.08,.12-.16,.23-.23,.35-.09-.09-.24-.16-.26-.26-.07-.37,.1-.58,.5-.59,.14,.11,.18,.22,.14,.33-.05,.11-.1,.16-.14,.16Z"/><path class="cls-4" d="M402.22,99.32c0,.23-.23,.56-.29,.49-.4-.46,.11-.37,.33-.45l-.04-.04Z"/><path class="cls-4" d="M314.36,90.4c-.02,.18-.04,.35-.06,.53-.3-.07-.51-.21-.51-.55,.19,0,.38,.02,.57,.03Z"/><path class="cls-4" d="M390.91,29.97c0,.06,.02,.14,0,.18-.11,.15-.24,.12-.34-.1-.01-.03,.1-.13,.18-.16,.04-.02,.11,.05,.17,.08Z"/><path class="cls-4" d="M313.35,89.86c.15,0,.31,0,.46,0,0,.18-.01,.36-.02,.54-.34-.03-.47-.22-.44-.54Z"/><path class="cls-4" d="M387.86,26.97c0,.06,.02,.13,0,.17-.11,.15-.24,.11-.33-.1-.01-.02,.1-.13,.17-.16,.04-.02,.11,.05,.16,.08Z"/><path class="cls-4" d="M375.33,66.36c.3,0,.45,.14,.44,.43-.35,.06-.48-.11-.44-.43Z"/><path class="cls-4" d="M372.75,66.87c0-.17,0-.33,0-.5,.16-.06,.32-.05,.48,.03,0,.14,.01,.28,.02,.42-.17,.01-.34,.03-.51,.04Z"/><path class="cls-4" d="M435.72,24.81c-.02,.21-.03,.45-.33,.38-.08-.02-.11-.24-.16-.38,.16,0,.33,0,.49,0Z"/><path class="cls-4" d="M446.38,24.32c0,.16,.01,.33,.01,.49-.17,0-.34,0-.5-.03,0-.16,0-.33,0-.49,.16,0,.33,0,.49,.03Z"/><path class="cls-4" d="M430.13,24.31c0,.21-.02,.43-.31,.38-.07-.01-.1-.24-.15-.37,.15-.03,.31-.03,.46-.01Z"/><path class="cls-4" d="M339.23,140.43c.01-.18,.02-.37,.03-.55,.2,.06,.45,.1,.35,.38-.03,.09-.25,.12-.38,.17Z"/><path class="cls-4" d="M444.87,23.32c0,.17,0,.34,0,.51-.21-.04-.46-.07-.38-.36,.02-.08,.25-.1,.38-.15Z"/><path class="cls-4" d="M343.28,146.44c0,.17,.01,.33,0,.5-.32-.03-.54-.16-.5-.53h0c.17,.01,.33,.02,.5,.03Z"/><path class="cls-4" d="M344.8,147.43c0,.16,.01,.33,.01,.49-.33-.01-.52-.16-.51-.51h0c.17-.01,.33,0,.5,.02Z"/><path class="cls-4" d="M316.32,75.89c0,.21,0,.41,0,.62-.15-.08-.3-.16-.44-.23,.02-.28,.15-.43,.45-.39Z"/><path class="cls-4" d="M315.85,75.36c-.29,0-.48-.12-.54-.41,.36-.09,.5,.09,.54,.41Z"/><path class="cls-4" d="M364.62,54.84c-.23,0-.47-.02-.42-.32,.01-.06,.26-.09,.39-.13,.11,.09,.15,.19,.12,.3-.03,.1-.06,.16-.1,.16Z"/><path class="cls-4" d="M314.82,75.37c-.19,0-.37-.02-.56-.03,.08-.32,.25-.52,.62-.43-.02,.15-.04,.31-.06,.46Z"/><path class="cls-4" d="M364.62,54.84c0-.15,0-.3-.03-.45,.14,.03,.38,.04,.4,.11,.09,.3-.15,.33-.37,.35Z"/><path class="cls-4" d="M319.08,76.97c.06,0,.14-.02,.17,0,.15,.11,.12,.23-.1,.33-.02,.01-.13-.1-.16-.17-.02-.04,.05-.11,.08-.16Z"/><path class="cls-4" d="M318.4,74.35c0,.17,0,.34,0,.5-.21-.03-.46-.04-.38-.34,.02-.08,.25-.11,.38-.17Z"/><path class="cls-4" d="M323.49,80.39c-.01-.16-.02-.33-.02-.5,.14,.04,.38,.05,.41,.13,.09,.3-.15,.35-.38,.37Z"/><path class="cls-4" d="M325.68,80.48c.06,0,.13-.02,.17,0,.15,.11,.11,.23-.09,.32-.02,.01-.13-.1-.15-.17-.01-.04,.05-.11,.08-.16Z"/><path class="cls-4" d="M316.87,73.85c.01-.32,.16-.5,.5-.49,0,.33-.16,.5-.5,.49Z"/><path class="cls-4" d="M326.96,82.57c-.03,.06-.06,.11-.09,.17-.09-.06-.17-.12-.26-.18,.06-.06,.12-.11,.18-.17,.06,.06,.11,.12,.17,.18Z"/><path class="cls-4" d="M386.43,37.3c.07-.28,.24-.46,.56-.43-.05,.32-.24,.46-.56,.43Z"/><path class="cls-4" d="M364.78,82.98c.06,0,.14-.02,.17,0,.15,.11,.12,.24-.1,.33-.03,.01-.13-.1-.16-.17-.02-.04,.05-.11,.08-.16Z"/><path class="cls-4" d="M387.02,36.84c-.03-.31,.1-.52,.39-.63,.09,.34-.03,.56-.39,.63Z"/><path class="cls-4" d="M388.49,34.84c.17,0,.34-.02,.51-.02-.01,.17-.02,.33-.03,.5-.3-.02-.46-.18-.47-.47Z"/><path class="cls-4" d="M449.32,87.03c0,.06,.02,.13,0,.17-.11,.15-.24,.12-.33-.09-.01-.02,.1-.13,.17-.16,.04-.02,.11,.05,.17,.08Z"/><path class="cls-4" d="M387.53,35.32c-.06-.36,.1-.51,.46-.47,0,.3-.16,.45-.46,.47Z"/><path class="cls-4" d="M313.28,88.87c0,.18,.02,.36,.02,.54-.33-.03-.5-.21-.52-.53,.17-.01,.33-.02,.5,0Z"/><path class="cls-4" d="M380.53,31.44c.06,0,.14-.02,.17,0,.15,.11,.11,.23-.09,.32-.02,.01-.13-.1-.15-.17-.02-.04,.05-.11,.08-.16Z"/><path class="cls-4" d="M450.51,71.84c-.02-.17-.03-.33-.05-.5,.17-.17,.35-.18,.54-.03l-.03,.03c0,.3-.14,.47-.46,.49Z"/><path class="cls-4" d="M411.35,51.8c.27,.03,.47-.05,.59-.48-1.97-1.58-4.6-2.49-6-4.86-.29-.38-.28-.86,.04-1.91-.1,.33,.01,.32,.21,.47,2.07,1.6,4.12,3.22,6.68,4.31-.47,2.08,1.23,3.28,1.82,4.93,.29,.81,1.23,1.73,2.17,2.13,.92-.27,.3-1.16,.89-1.47,.23-.03,.48-.05,.73-.08,.05-.18,.18-.26,.37-.22,.17,.03,.29,.12,.36,.27l.21,.1-.17-.15c-.04-.17,0-.32,.13-.45,.2-.16,.41-.3,.65-.07,1.18,.37,1.29,1.67,2.19,2.43,.31,.21,.41-.36,.57-.34,.81-.04,.97,.79,1.64,.82,.29-.25,.61-.53,1.07-.93,1.22,1.51,2.83,.91,4.48,.49,.69,2.45,.21,4.53-.87,6.45-.68,.2-1.15,.2-1.6-.13-.59-.43-1.41-.48-1.93-.21-2.09,1.09-3.8-.05-5.61-.74-.98-.37-1.98-.65-2.91-1.25-.73-.47-1.81-.22-2.43,.47-.62,.76,.08,1.58-.35,2.19-.3,.35-.71,.43-.96,.27-.91-.6-1.73-1.33-2.86-.96-1.26-1.78-2.75-2.73-4.91-2.47-.69-1.54-1.5-3-1.05-4.9-.34-.19-.81-.46-1.26-.71-.98-.18-1.71,.95-2.86,.23-.58-.36-1.75,.3-2.65,.31-4.04,.05-4.04,.03-7.46,1.94h-3.51c-.42-.55-.15-.87,.22-1.25,.8-.39,1.76-.02,2.73-.29,.95-.8,1.99-1.64,2.85-2.78-.12-.26-.25-.55-.41-.88,.84-1.35,2.18-2.17,3.68-2.83,.57-.45-.04-1.3,.52-1.78,.98-.46,1.78,.3,2.8,.38,.85-.48,1.65-1.23,2.85-1.55,1.6,.42,1.72,2.43,3.16,3.16,1.4,.71,2.7,1.63,4.04,2.45,.81,.63,.68,1.32,.14,2.03-.19,.14-.4,.26-.62,.35-.4,.11-.81,.12-1.22,.12-.15,0-.31,0-.45,.02,.02,0-.14,.12-.13,.12,.08,.11,.16,.19,.29,.24,.14,.06,.26,.12,.39,.18,.15,.05,.29,.09,.45,.09,.17-.06,.33-.13,.47-.25,.65-.58,1.36-1.1,1.65-1.95,.1-.19,.23-.37,.36-.54,.14-.17,.3-.3,.49-.41,.1-.03,.21-.05,.31-.08Z"/><path class="cls-4" d="M421.53,49.98c-.45-2.07,1.06-3.47,1.78-5.14,1.87-.09,2.39,1.28,2.99,2.39,.55,.17,.91,.03,1.3-.18,.81-.43,1.55-.28,2.35,.21,1.59,.95,3.08,1.98,4.3,3.36-.07,.85-.54,1.17-1.32,1.19-1.28,.04-2.43-.34-3.55-.92-1.29-.67-2.6-.88-4.06-.22-1.3,.59-2.62,.29-3.79-.67Z"/><path class="cls-4" d="M439.02,85.85c-1.6-1.4-3.61-2.42-3.8-4.81-.08-.94-1.09-1.22-1.54-2.08-.04-1.78-.7-3.41-1.68-5.12-1.03-1.79-1.97-3.73-2.71-5.79,.35-.19,.75-.41,1.21-.66,.38,.45,.81,.86,1.11,1.35,1,1.58,1.66,3.34,2.95,4.77,.72,.8,.75,1.97,.66,2.94,2.5,2.73,4.22,5.62,3.8,9.4Z"/><path class="cls-4" d="M445.83,57.65c-.76,.3-1.34,.2-2.06,.15-.7-.73-1.91-1.07-2.41-2.38,.06-.66,.69-1.37,.35-2.39-1.49-1.31-2.78-2.99-3.58-5.06,.61-1.12,1.6-1.67,2.7-2.12,.51,.26,1.02,.51,1.51,.75,.02,.31,.04,.56,.06,.81-.37,.56-1.22,.52-1.52,1.3,2.61,1.87,3.15,5.12,4.93,7.61,.2,.28,.03,.8,.03,1.33Z"/><path class="cls-4" d="M406.27,34.27c.56,0,.42-.65,.82-.85,.44-.06,.92-.12,1.39-.18,.64-.64,0-1.47,.43-2.17,.38-.33,1.04-.37,1.34-.96-.2-.76-1.11-.9-1.49-1.62-.08-1.02,.39-1.63,1.53-1.7,1.76-.69,1.02,1.02,1.53,1.53,.08,1.52,1.47,1.55,2.47,2.09,.08,.78-1,.09-1.01,.83,0,.9-1.38,1.64-.53,2.84-.18,.56-.74,.79-1.17,1.16-.17,0-.38,.07-.49-.01-.77-.53-1.52-.51-2.37-.16-.81,.33-1.71,.68-2.5-.11-.24-.24-.22-.46,.05-.67Z"/><path class="cls-4" d="M450.45,70.86c-.25,.03-.5,.07-.74,.1-.37,.64-.73,1.27-1.07,1.86-.75,.1-1.41,.22-2.03-.04-.5-.5-.1-1.15-.34-1.67-1.72-.99-2.41-2.76-3.41-4.19,.16-.56,.48-.81,1.01-1.15,1.81,1.15,2.36,3.77,4.95,4.38,.22-.03,.61-.44,1.13-.3,.2,.13,.37,.29,.49,.49,0,.17,.02,.33,.03,.5l-.02,.02Z"/><path class="cls-4" d="M418.95,54.84h-.47c.02-.42-.03-.79-.38-1.11-.47-.44-1.07-.8-1.14-1.6,1.13,.28,1.47-.86,2.37-1.23,.28,1.14,1.38,2.08,.69,3.42-.33,.02-.54,.17-.55,.52-.17,.2-.34,.19-.52,0Z"/><path class="cls-4" d="M410.79,52.33c.23,.54-.08,.91-.4,1.28-.65,.75-1.35,1.45-2.1,2.09-.19-.1-.36-.22-.52-.37h.01c-.26-.33-.75-.22-1.05-.49-.17,.03-.32,0-.45-.11-.32-.28-.29-.57,0-.86,.17,0,.33-.02,.5-.03,.34,.32,.77,.21,1.17,.24,.31,0,.62,0,.86-.24,.94-.5,.48-1.27,.39-1.96,.39-.18,.79-.36,1.18-.54,.28,.27,.45,.58,.42,.98Z"/><path class="cls-4" d="M411.81,28.32c-.86-.16-.23-.98-.72-1.46-.19-.02-.5-.05-.8-.08,.59-.61,1.18-1.23,1.79-1.86,.62-.12,1.26-.28,1.86,.3-.25,1.12-1.33,1.32-2.12,1.91v1.18Z"/><path class="cls-4" d="M406.27,34.27c-.02,.22-.03,.44-.05,.67-.45-.08-.9-.16-1.32-.24-.03-.25-.05-.4-.06-.55,.55-.72,.95,.16,1.44,.12Z"/><path class="cls-4" d="M410.79,52.33c-.64-.12-.43-.59-.42-.98,.39,0,.87-.17,.98,.45l-.02,.15c-.18,.07-.31,.2-.4,.38h-.14Z"/><path class="cls-4" d="M450.44,70.34c-.32-.01-.49-.18-.49-.49l-.05-.09c.2-.07,.38-.04,.54,.1,.07,.16,.07,.32,0,.48Z"/><path class="cls-4" d="M451,71.32c-.18,0-.36,.02-.54,.03-.05-.16-.05-.32,0-.49l.02-.02c.36-.04,.48,.18,.53,.48Z"/><path class="cls-4" d="M450.44,69.86c-.18-.03-.36-.07-.54-.1,.08-.11,.16-.32,.25-.32,.28-.02,.29,.21,.29,.42Z"/><path class="cls-4" d="M335.07,27.86c-.2,1-.61,1.29-1.89,1.37-.32-1.37,.46-2.01,1.47-2.45,.76,.28-.48,.94,.43,1.07Z"/><path class="cls-4" d="M329.12,39.84c-.22-.03-.48-.04-.44-.34,.01-.08,.25-.12,.39-.18h0c0,.18,.01,.37,.02,.55l.03-.03Z"/><path class="cls-4" d="M329.07,39.32c.01-.23,.05-.43,.37-.38,.09,.34-.14,.36-.37,.38h0Z"/><path class="cls-4" d="M402.32,52.84c-.7-.09-.95-.46-1.03-.84-.1-.46-.22-1.22,.02-1.4,.96-.71-.4-2.32,1.19-2.65,1.08,1.57,1.06,2.67-.18,4.88Z"/><path class="cls-4" d="M427.74,59.33c-.47-.11-.65-.24-.61-.79,.44-.3,1.02-.59,1.91-.69-.24,.78-.74,1.12-1.3,1.48Z"/><path class="cls-4" d="M418.45,57.43c.67,.19,1.35,.39,2.34,.67-1.06,.29-1.78,.7-2.34-.25-.11-.09-.15-.19-.11-.28,.04-.09,.07-.14,.11-.14Z"/><path class="cls-4" d="M396.11,51.8c.04,.3-.14,.44-.41,.49-.26,.05-.54-.04-.58-.3-.05-.34,.06-.67,.53-.64,.28,.01,.45,.14,.45,.45Z"/><path class="cls-4" d="M408.3,54.33c-.5-.17-1.26,.45-1.52-.48,.51,.02,1.02,.03,1.53,.05,.1,.1,.14,.19,.1,.29-.04,.09-.08,.14-.11,.14Z"/><path class="cls-4" d="M408.76,57.16c-.8,.36-.97,.01-.95-.69,.6-.02,.71,.39,.95,.69Z"/><path class="cls-4" d="M406.28,53.88c0,.29,0,.57,0,.86-.26,.04-.44-.06-.49-.31-.06-.35,.1-.56,.48-.55Z"/><path class="cls-4" d="M393.79,52.33c.29,.3,.42,.56,.11,.89-.59-.25-.25-.56-.11-.89Z"/><path class="cls-4" d="M419.47,55.34c.63,.18,.71,.47,.24,.92-.37-.27-.19-.62-.24-.93h0Z"/><path class="cls-4" d="M406.73,54.85c.42,.03,.98-.23,1.05,.5-.41-.04-.88,.03-1.05-.5Z"/><path class="cls-4" d="M407.77,55.34c.28-.02,.47,.07,.52,.37-.34,.11-.44-.11-.52-.37Z"/><path class="cls-4" d="M418.45,57.43c0,.14,0,.28,0,.42-.23,0-.46-.03-.39-.34,.01-.05,.26-.06,.39-.08Z"/><path class="cls-4" d="M408.3,54.33c0-.14,0-.29,.01-.43,.17-.01,.33-.03,.5-.05-.01,.32-.19,.47-.51,.48Z"/><path class="cls-4" d="M410.94,52.33c-.09-.36,.03-.49,.4-.38-.01,.25-.16,.36-.4,.38Z"/><path class="cls-4" d="M396.87,51.35c.05,.1,.12,.2,.14,.3,0,.04-.1,.1-.15,.14-.05-.1-.12-.2-.14-.3,0-.03,.1-.09,.15-.14Z"/><path class="cls-4" d="M418.95,54.84c.17,0,.35,0,.52,0,0,.17,0,.34,0,.5h0c-.33,0-.5-.18-.53-.5Z"/><path class="cls-4" d="M411.27,29.52c-.03,.06-.06,.11-.09,.17-.09-.06-.17-.12-.26-.18,.06-.06,.12-.11,.18-.17,.06,.06,.11,.12,.17,.18Z"/><path class="cls-4" d="M410.33,32.07c-.05,.05-.12,.16-.16,.16-.12-.03-.23-.1-.34-.15,.06-.05,.12-.16,.17-.15,.12,.03,.22,.1,.33,.15Z"/></g></g><path class="cls-2" d="M411.3,51.82c.27,.03,.47-.04,.59-.48-1.97-1.59-4.6-2.49-6-4.86-.29-.38-.28-.86,.04-1.91-.1,.33,.01,.32,.21,.47,2.07,1.6,4.12,3.22,6.68,4.31-.48,2.08,1.23,3.28,1.82,4.93,.29,.81,1.23,1.73,2.17,2.13,.92-.27,.3-1.16,.89-1.47,.23-.03,.48-.05,.73-.08,.05-.18,.18-.26,.37-.22,.16,.03,.29,.12,.36,.27l.21,.1-.17-.15c-.04-.17,0-.32,.13-.45,.2-.16,.41-.3,.65-.07,1.18,.37,1.3,1.67,2.19,2.43,.31,.21,.41-.36,.57-.34,.81-.04,.97,.79,1.64,.82,.29-.25,.61-.53,1.06-.93,1.22,1.51,2.83,.91,4.48,.49,.69,2.45,.21,4.53-.87,6.45-.68,.2-1.15,.2-1.6-.13-.59-.43-1.41-.48-1.93-.21-2.09,1.09-3.8-.05-5.61-.74-.98-.37-1.98-.65-2.91-1.25-.73-.47-1.81-.21-2.43,.47-.62,.76,.08,1.58-.35,2.19-.3,.35-.71,.44-.96,.27-.91-.6-1.73-1.33-2.86-.96-1.27-1.78-2.75-2.73-4.91-2.47-.69-1.54-1.5-3-1.04-4.9-.34-.19-.81-.46-1.26-.71-.98-.18-1.71,.95-2.86,.23-.58-.36-1.75,.3-2.65,.31-4.04,.05-4.04,.03-7.46,1.94h-3.51c-.42-.55-.15-.87,.22-1.25,.8-.39,1.76-.02,2.73-.29,.95-.8,1.99-1.64,2.85-2.78-.12-.26-.25-.55-.41-.88,.84-1.35,2.18-2.17,3.68-2.83,.57-.45-.04-1.3,.52-1.78,.98-.46,1.78,.3,2.8,.38,.85-.48,1.65-1.23,2.85-1.55,1.6,.42,1.72,2.43,3.16,3.16,1.4,.71,2.7,1.62,4.04,2.45,.8,.63,.68,1.32,.14,2.03-.19,.14-.39,.26-.62,.34-.4,.11-.81,.12-1.22,.12-.15,0-.31,0-.45,.02,.02,0-.14,.12-.13,.12,.08,.11,.16,.19,.29,.24,.14,.06,.26,.12,.4,.18,.15,.05,.29,.09,.45,.09,.17-.06,.32-.13,.47-.25,.65-.58,1.36-1.1,1.66-1.95,.1-.19,.23-.37,.36-.54,.14-.17,.3-.3,.49-.41,.1-.03,.21-.05,.31-.08Z"/><path class="cls-2" d="M421.48,50c-.45-2.07,1.06-3.47,1.78-5.14,1.87-.09,2.39,1.28,2.99,2.39,.55,.17,.91,.03,1.3-.18,.81-.43,1.55-.27,2.35,.21,1.59,.95,3.08,1.98,4.3,3.36-.07,.85-.55,1.17-1.32,1.19-1.28,.04-2.43-.34-3.55-.92-1.29-.67-2.6-.88-4.06-.22-1.3,.59-2.62,.29-3.79-.67Z"/><path class="cls-2" d="M438.97,85.87c-1.6-1.4-3.61-2.42-3.81-4.81-.08-.94-1.09-1.22-1.54-2.08-.04-1.77-.7-3.41-1.68-5.12-1.03-1.79-1.97-3.73-2.71-5.79,.35-.19,.75-.41,1.21-.66,.38,.45,.81,.86,1.11,1.35,1,1.58,1.66,3.34,2.95,4.77,.72,.8,.75,1.97,.66,2.94,2.49,2.73,4.22,5.62,3.8,9.4Z"/><path class="cls-2" d="M445.78,57.68c-.76,.29-1.34,.2-2.06,.15-.7-.73-1.91-1.07-2.41-2.38,.06-.66,.69-1.37,.34-2.39-1.49-1.31-2.78-2.99-3.58-5.06,.61-1.12,1.6-1.67,2.7-2.12,.51,.26,1.02,.51,1.51,.75,.02,.31,.04,.56,.06,.81-.37,.56-1.22,.52-1.52,1.3,2.61,1.87,3.15,5.12,4.93,7.61,.2,.28,.03,.8,.03,1.33Z"/><path class="cls-2" d="M406.21,34.29c.56,0,.41-.65,.82-.85,.44-.06,.92-.12,1.39-.18,.64-.64,0-1.47,.43-2.17,.38-.33,1.04-.38,1.34-.96-.2-.76-1.11-.9-1.49-1.62-.08-1.02,.39-1.63,1.53-1.7,1.76-.69,1.02,1.02,1.53,1.53,.08,1.52,1.47,1.55,2.47,2.09,.08,.78-1,.09-1.01,.83,0,.9-1.38,1.64-.53,2.84-.18,.56-.74,.79-1.17,1.16-.17,0-.38,.06-.49-.01-.77-.53-1.52-.51-2.37-.16-.82,.33-1.71,.68-2.5-.11-.24-.24-.22-.46,.05-.67Z"/><path class="cls-2" d="M450.4,70.88c-.25,.03-.5,.07-.74,.1-.37,.64-.73,1.27-1.07,1.86-.75,.1-1.41,.22-2.04-.04-.5-.5-.1-1.15-.34-1.67-1.72-.99-2.41-2.76-3.41-4.19,.16-.56,.48-.81,1.01-1.15,1.81,1.15,2.36,3.77,4.95,4.38,.22-.03,.61-.44,1.13-.3,.2,.13,.37,.29,.49,.49,0,.16,.02,.33,.03,.5l-.02,.02Z"/><path class="cls-2" d="M411.76,28.34c-.86-.16-.23-.98-.72-1.46-.19-.02-.5-.05-.8-.08,.59-.61,1.18-1.23,1.79-1.86,.62-.12,1.26-.28,1.86,.3-.25,1.12-1.33,1.32-2.12,1.91v1.18Z"/><path class="cls-2" d="M406.21,34.29c-.02,.22-.04,.44-.05,.67-.45-.08-.9-.16-1.32-.24-.03-.25-.05-.4-.06-.55,.55-.72,.95,.16,1.44,.12Z"/><path class="cls-2" d="M411.21,29.55c-.03,.06-.06,.11-.09,.17-.09-.06-.17-.12-.26-.18,.06-.06,.12-.11,.18-.17,.06,.06,.11,.12,.17,.18Z"/><path class="cls-2" d="M410.27,32.09c-.05,.05-.12,.16-.16,.15-.12-.03-.22-.1-.33-.15,.06-.05,.12-.16,.17-.15,.12,.03,.22,.1,.33,.15Z"/></g></g><g><path class="cls-3" d="M36.14,107.76c-3.21,1.27-6.45,1.9-9.71,1.9-4.15,0-7.85-.76-11.11-2.29-3.26-1.53-6.04-3.59-8.32-6.18-2.28-2.59-4.02-5.57-5.21-8.94-1.19-3.37-1.79-6.86-1.79-10.49,0-4.04,.56-7.89,1.67-11.54,1.11-3.65,2.77-6.85,4.97-9.6,2.2-2.75,4.95-4.94,8.24-6.57,3.29-1.63,7.14-2.45,11.54-2.45,3,0,5.84,.35,8.51,1.05,2.67,.7,5.05,1.8,7.15,3.3,2.1,1.5,3.86,3.41,5.28,5.71,1.42,2.31,2.4,5.09,2.91,8.35h-7.38c-.36-2.12-1.04-3.95-2.02-5.48-.98-1.53-2.2-2.78-3.65-3.77-1.45-.98-3.1-1.72-4.94-2.21-1.84-.49-3.8-.74-5.87-.74-3.37,0-6.26,.67-8.67,2.02-2.41,1.35-4.38,3.12-5.91,5.32-1.53,2.2-2.66,4.72-3.38,7.54-.73,2.82-1.09,5.71-1.09,8.67s.41,5.69,1.24,8.35c.83,2.67,2.05,5.03,3.65,7.07,1.61,2.05,3.59,3.68,5.95,4.9,2.36,1.22,5.09,1.83,8.2,1.83,2.9,0,5.47-.47,7.69-1.4,2.23-.93,4.11-2.21,5.63-3.85,1.53-1.63,2.68-3.55,3.46-5.75,.78-2.2,1.11-4.57,1.01-7.11H26.5v-6.22h24.33v29.22h-4.66l-1.94-6.92c-2.18,2.9-4.87,4.99-8.08,6.26Z"/><path class="cls-3" d="M66.6,68.24v8.47h.16c1.61-3.26,3.58-5.67,5.91-7.23,2.33-1.55,5.28-2.28,8.86-2.18v6.99c-2.64,0-4.9,.36-6.76,1.09-1.87,.73-3.37,1.79-4.51,3.19-1.14,1.4-1.97,3.1-2.49,5.09-.52,2-.78,4.29-.78,6.88v17.87h-6.61v-40.18h6.22Z"/><path class="cls-3" d="M113.54,105.85c-3.01,2.28-6.79,3.42-11.35,3.42-3.21,0-6-.52-8.35-1.55-2.36-1.04-4.34-2.49-5.95-4.35-1.61-1.87-2.81-4.09-3.61-6.68-.8-2.59-1.26-5.41-1.36-8.47,0-3.06,.47-5.85,1.4-8.39,.93-2.54,2.24-4.74,3.92-6.61,1.68-1.87,3.68-3.32,5.98-4.35,2.3-1.04,4.83-1.55,7.58-1.55,3.57,0,6.54,.74,8.9,2.21,2.36,1.48,4.25,3.36,5.67,5.63,1.42,2.28,2.41,4.77,2.95,7.46,.54,2.69,.76,5.26,.66,7.69h-30.08c-.05,1.76,.16,3.43,.62,5.01,.47,1.58,1.22,2.98,2.25,4.2,1.04,1.22,2.36,2.19,3.96,2.91,1.61,.73,3.5,1.09,5.67,1.09,2.8,0,5.09-.65,6.88-1.94,1.79-1.29,2.97-3.26,3.54-5.91h6.53c-.88,4.51-2.82,7.9-5.83,10.18Zm-1.59-25.8c-.6-1.4-1.4-2.6-2.41-3.61-1.01-1.01-2.2-1.81-3.57-2.41-1.37-.59-2.89-.89-4.55-.89s-3.25,.3-4.62,.89c-1.37,.6-2.55,1.41-3.54,2.45-.98,1.04-1.76,2.24-2.33,3.61-.57,1.37-.91,2.84-1.01,4.39h23.08c-.1-1.55-.45-3.03-1.05-4.43Z"/><path class="cls-3" d="M155.28,105.85c-3.01,2.28-6.79,3.42-11.35,3.42-3.21,0-6-.52-8.35-1.55-2.36-1.04-4.34-2.49-5.95-4.35-1.61-1.87-2.81-4.09-3.61-6.68-.8-2.59-1.26-5.41-1.36-8.47,0-3.06,.47-5.85,1.4-8.39,.93-2.54,2.24-4.74,3.92-6.61,1.68-1.87,3.68-3.32,5.98-4.35,2.3-1.04,4.83-1.55,7.58-1.55,3.57,0,6.54,.74,8.9,2.21,2.36,1.48,4.25,3.36,5.67,5.63,1.42,2.28,2.41,4.77,2.95,7.46,.54,2.69,.76,5.26,.66,7.69h-30.08c-.05,1.76,.16,3.43,.62,5.01,.47,1.58,1.22,2.98,2.25,4.2,1.04,1.22,2.36,2.19,3.96,2.91,1.61,.73,3.5,1.09,5.67,1.09,2.8,0,5.09-.65,6.88-1.94,1.79-1.29,2.97-3.26,3.54-5.91h6.53c-.88,4.51-2.82,7.9-5.83,10.18Zm-1.59-25.8c-.6-1.4-1.4-2.6-2.41-3.61-1.01-1.01-2.2-1.81-3.57-2.41-1.37-.59-2.89-.89-4.55-.89s-3.25,.3-4.62,.89c-1.37,.6-2.55,1.41-3.54,2.45-.98,1.04-1.76,2.24-2.33,3.61-.57,1.37-.91,2.84-1.01,4.39h23.08c-.1-1.55-.45-3.03-1.05-4.43Z"/><path class="cls-3" d="M174.78,68.24v6.37h.16c2.75-4.87,7.1-7.31,13.06-7.31,2.64,0,4.84,.36,6.61,1.09,1.76,.73,3.19,1.74,4.27,3.03,1.09,1.3,1.85,2.84,2.29,4.62,.44,1.79,.66,3.77,.66,5.95v26.42h-6.61v-27.2c0-2.49-.73-4.46-2.18-5.91-1.45-1.45-3.45-2.18-5.98-2.18-2.02,0-3.77,.31-5.25,.93s-2.71,1.5-3.69,2.64c-.98,1.14-1.72,2.47-2.22,4-.49,1.53-.74,3.2-.74,5.01v22.69h-6.61v-40.18h6.22Z"/><path class="cls-3" d="M267.89,107.76c-3.21,1.27-6.45,1.9-9.71,1.9-4.15,0-7.85-.76-11.11-2.29-3.26-1.53-6.04-3.59-8.32-6.18-2.28-2.59-4.02-5.57-5.21-8.94-1.19-3.37-1.79-6.86-1.79-10.49,0-4.04,.56-7.89,1.67-11.54,1.11-3.65,2.77-6.85,4.97-9.6,2.2-2.75,4.95-4.94,8.24-6.57,3.29-1.63,7.14-2.45,11.54-2.45,3,0,5.84,.35,8.51,1.05,2.67,.7,5.05,1.8,7.15,3.3,2.1,1.5,3.86,3.41,5.28,5.71,1.42,2.31,2.4,5.09,2.91,8.35h-7.38c-.36-2.12-1.04-3.95-2.02-5.48-.98-1.53-2.2-2.78-3.65-3.77-1.45-.98-3.1-1.72-4.94-2.21-1.84-.49-3.8-.74-5.87-.74-3.37,0-6.26,.67-8.67,2.02-2.41,1.35-4.38,3.12-5.91,5.32-1.53,2.2-2.66,4.72-3.38,7.54-.73,2.82-1.09,5.71-1.09,8.67s.41,5.69,1.24,8.35c.83,2.67,2.05,5.03,3.65,7.07,1.61,2.05,3.59,3.68,5.95,4.9,2.36,1.22,5.09,1.83,8.2,1.83,2.9,0,5.47-.47,7.69-1.4,2.23-.93,4.11-2.21,5.63-3.85,1.53-1.63,2.68-3.55,3.46-5.75,.78-2.2,1.11-4.57,1.01-7.11h-17.72v-6.22h24.33v29.22h-4.66l-1.94-6.92c-2.18,2.9-4.87,4.99-8.08,6.26Z"/><path class="cls-3" d="M299.36,52.93v55.49h-6.61V52.93h6.61Z"/></g><g><path class="cls-3" d="M485.83,51.79v20.75h.16c1.09-2.23,2.8-3.85,5.13-4.86,2.33-1.01,4.9-1.52,7.69-1.52,3.11,0,5.82,.57,8.12,1.71,2.3,1.14,4.22,2.68,5.75,4.62,1.53,1.94,2.68,4.18,3.46,6.72,.78,2.54,1.17,5.23,1.17,8.08s-.38,5.54-1.13,8.08c-.75,2.54-1.89,4.75-3.42,6.64-1.53,1.89-3.45,3.38-5.75,4.47-2.31,1.09-4.99,1.63-8.04,1.63-.98,0-2.09-.1-3.3-.31-1.22-.21-2.42-.54-3.61-1.01-1.19-.47-2.32-1.1-3.38-1.9-1.06-.8-1.96-1.8-2.68-2.99h-.16v5.36h-6.61V51.79h6.61Zm23.74,29.57c-.49-1.79-1.24-3.38-2.25-4.78-1.01-1.4-2.31-2.51-3.89-3.34-1.58-.83-3.43-1.24-5.56-1.24-2.23,0-4.12,.44-5.67,1.32-1.55,.88-2.82,2.03-3.81,3.46-.98,1.43-1.7,3.04-2.14,4.86-.44,1.81-.66,3.65-.66,5.52,0,1.97,.23,3.87,.7,5.71,.47,1.84,1.2,3.46,2.21,4.86s2.32,2.53,3.92,3.38c1.61,.85,3.55,1.28,5.83,1.28s4.18-.44,5.71-1.32c1.53-.88,2.76-2.05,3.69-3.5,.93-1.45,1.61-3.11,2.02-4.97,.41-1.87,.62-3.78,.62-5.75,0-1.87-.25-3.69-.74-5.48Z"/><path class="cls-3" d="M553.52,104.72c-3.01,2.28-6.79,3.42-11.35,3.42-3.21,0-6-.52-8.35-1.55-2.36-1.04-4.34-2.49-5.95-4.35-1.61-1.87-2.81-4.09-3.61-6.68-.8-2.59-1.26-5.41-1.36-8.47,0-3.06,.47-5.85,1.4-8.39,.93-2.54,2.24-4.74,3.92-6.61,1.68-1.87,3.68-3.32,5.98-4.35,2.3-1.04,4.83-1.55,7.58-1.55,3.58,0,6.54,.74,8.9,2.21,2.36,1.48,4.25,3.36,5.67,5.63,1.42,2.28,2.41,4.77,2.95,7.46,.54,2.69,.76,5.26,.66,7.69h-30.08c-.05,1.76,.16,3.43,.62,5.01,.47,1.58,1.22,2.98,2.25,4.2,1.04,1.22,2.36,2.19,3.96,2.91,1.61,.73,3.5,1.09,5.67,1.09,2.8,0,5.09-.65,6.88-1.94,1.79-1.29,2.97-3.26,3.54-5.91h6.53c-.88,4.51-2.82,7.9-5.83,10.18Zm-1.59-25.8c-.6-1.4-1.4-2.6-2.41-3.61-1.01-1.01-2.2-1.81-3.58-2.41-1.37-.59-2.89-.89-4.55-.89s-3.25,.3-4.62,.89c-1.37,.6-2.55,1.41-3.54,2.45-.98,1.04-1.76,2.24-2.33,3.61-.57,1.37-.91,2.84-1.01,4.39h23.08c-.1-1.55-.45-3.03-1.05-4.43Z"/></g></svg>