<?xml version="1.0" encoding="UTF-8"?><svg id="logo_Miluz" xmlns="http://www.w3.org/2000/svg" viewBox="0 0 560 168.73"><defs><style>.cls-1{fill:#70b870;}.cls-2{fill:#393;}</style></defs><g><path d="M292.6,53.26c-14.26,0-27.9,8.27-27.9,8.27-3.87-5.77-9.61-8.27-20.31-8.27-11.94,0-23.72,7.34-23.72,7.34v-5.77h-9.15v78.04h9.15V68.24s10.54-6.55,22.63-6.55c15.19,0,17.67,7.49,17.67,30.9v40.27h9.3v-40.58c0-10.3-.62-19.67-2.33-24.04,0,0,10.85-6.55,23.56-6.55,15.35,0,17.83,7.65,17.83,30.59v40.58h9.14v-41.05c0-28.87-4.8-38.55-25.89-38.55Z"/><rect x="345.61" y="23.6" width="9.15" height="11.71"/><rect x="345.61" y="54.82" width="9.15" height="78.04"/><rect x="383.58" y="20.17" width="9.15" height="112.68"/><path d="M470.5,119.43s-10.54,6.56-22.79,6.56c-15.5,0-17.83-7.34-17.83-30.59V54.82h-9.15v40.73c0,29.19,4.34,38.86,25.89,38.86,11.94,0,23.87-7.34,23.87-7.34v5.77h9.14V54.82h-9.14V119.43Z"/><polygon points="560 54.82 502.49 54.82 502.49 63.24 548.53 63.24 502.49 124.43 502.49 132.85 560 132.85 560 124.43 513.96 124.43 560 63.24 560 54.82"/></g><g><path class="cls-2" d="M42.41,24.1L0,48.21V0L42.41,24.1Z"/><path class="cls-2" d="M84.82,48.21l-42.41,24.1V24.1l42.41,24.1Z"/><path class="cls-2" d="M127.23,72.31l-42.41,24.1V48.21l42.41,24.1Z"/><path class="cls-2" d="M84.82,144.63l-42.41,24.1v-48.21l42.41,24.11Z"/><path class="cls-2" d="M169.64,48.21l-42.41,24.1V24.1l42.41,24.1Z"/><path class="cls-2" d="M169.64,96.42l-42.41,24.11v-48.21l42.41,24.1Z"/><path class="cls-2" d="M169.64,143.94l-42.41,24.1v-48.21l42.41,24.11Z"/><path class="cls-2" d="M42.41,72.31L0,96.42V48.21l42.41,24.1Z"/><path class="cls-2" d="M42.41,120.53L0,144.63v-48.21l42.41,24.11Z"/><path class="cls-1" d="M127.23,119.84l42.41-24.1v48.21l-42.41-24.11Z"/><path class="cls-1" d="M127.23,72.31l42.41-24.1v48.21l-42.41-24.1Z"/><path class="cls-1" d="M84.82,48.21l42.41-24.1v48.21l-42.41-24.1Z"/><path class="cls-1" d="M42.41,72.31l42.41-24.1v48.21l-42.41-24.1Z"/><path class="cls-1" d="M0,96.42l42.41-24.1v48.21L0,96.42Z"/><path class="cls-1" d="M0,48.21L42.41,24.11v48.21L0,48.21Z"/></g></svg>