<?xml version="1.0" encoding="UTF-8"?><svg id="logo_CityGrid" xmlns="http://www.w3.org/2000/svg" viewBox="0 0 560 145.18"><defs><style>.cls-1{fill:#008fbe;}.cls-2{fill:#101820;}</style></defs><path class="cls-1" d="M61.63,58.69c-3.53-7.65-9.85-11.47-18.24-11.47-11.18,0-18.83,9.27-18.83,20.74s8.09,20.74,19.42,20.74c8.24,0,13.97-3.82,17.65-10.88h24.86c-4.85,20.45-22.36,33.68-43.24,33.68C19.12,111.5,0,91.93,0,67.81S19.27,24.42,42.8,24.42c21.48,0,38.98,13.53,43.54,34.27h-24.71Z"/><path class="cls-1" d="M99.29,18.53V0h24.42V18.53h-24.42Zm0,90.32V27.21h24.42V108.85h-24.42Z"/><path class="cls-1" d="M146.91,108.85V45.75h-12.06V27.21h12.06V0h24.42V27.21h11.77v18.53h-11.77v63.1h-24.42Z"/><path class="cls-1" d="M205.6,136.06l12.94-31.33-30.3-77.52h26.03l16.33,47.36h.29l15.59-47.36h25.89l-40.89,108.85h-25.89Z"/><path class="cls-2" d="M337.44,99.29c-3.68,7.8-12.79,12.21-22.8,12.21-23.83,0-41.04-18.39-41.04-42.95s17.51-43.98,41.04-43.98c10.59,0,18.68,3.97,22.65,10.3h.29v-7.65h24.42V100.17c0,11.03-1.47,19.42-4.41,25.01-5.88,11.32-21.92,20-42.36,20-23.09,0-38.1-13.09-40.16-28.68h28.24c2.79,6.03,8.24,8.09,14.26,8.09,12.36,0,19.86-8.09,19.86-22.95v-2.35Zm.15-30.89c0-11.92-8.09-21.04-20.01-21.04-10.88,0-19.56,9.12-19.56,20.3s7.8,21.04,19.56,21.04,20.01-8.53,20.01-20.3Z"/><path class="cls-2" d="M379.46,108.85V27.21h22.95v8.68h.29c4.27-8.68,11.03-11.47,20.45-11.47v24.56c-14.56,.15-19.27,5.59-19.27,14.86v45.01h-24.42Z"/><path class="cls-2" d="M433.16,18.53V0h24.42V18.53h-24.42Zm0,90.32V27.21h24.42V108.85h-24.42Z"/><path class="cls-2" d="M536.76,108.85v-8.82h-.29c-4.56,7.5-12.8,11.47-24.42,11.47-24.71,0-40.89-18.98-40.89-43.69s16.63-43.39,40.45-43.39c9.41,0,17.06,2.79,23.98,9.71V0h24.42V108.85h-23.24Zm.15-41.19c0-11.32-8.68-20.44-20.74-20.44s-20.59,8.53-20.59,20.44,8.68,21.04,20.45,21.04,20.89-8.97,20.89-21.04Z"/></svg>