<?xml version="1.0" encoding="UTF-8"?><svg id="logo_Datakorum" xmlns="http://www.w3.org/2000/svg" viewBox="0 0 560 107.62"><defs><style>.cls-1{fill:#0067ab;}</style></defs><path class="cls-1" d="M177.56,75.86c-3.22,3.22-7.72,4.87-13.33,4.87h-17.91V27.4h17.91c5.61,0,10.11,1.65,13.33,4.87,5.39,5.4,5.17,13.86,5.17,21.05s.22,17.15-5.17,22.54m-2.85-40.74c-3.07-3.22-7.19-4.12-11.46-4.12h-12.88v46.14h12.88c4.27,0,8.39-.9,11.46-4.12,4.2-4.42,3.97-13.71,3.97-19.7s.23-13.78-3.97-18.2"/><path class="cls-1" d="M223.1,67.77h-24.87l-4.65,12.96h-4.35l19.63-53.33h3.6l19.63,53.33h-4.35m-28.23-16.55h22.31l-11.16-31.38-11.16,31.38Z"/><polyline class="cls-1" points="250.88 80.73 246.84 80.73 246.84 31 230.96 31 230.96 27.4 266.84 27.4 266.84 31 250.88 31"/><path class="cls-1" d="M299.57,67.77h-24.87l-4.64,12.96h-4.34l19.63-53.33h3.59l19.62,53.33h-4.34m-28.24-16.55h22.32l-11.16-31.38-11.16,31.38Z"/><polyline class="cls-1" points="350.57 80.73 334.32 52.34 323.08 65.83 323.08 80.73 317.39 80.73 317.39 27.4 323.08 27.4 323.08 58.03 347.95 27.4 354.92 27.4 338.14 48 357.32 80.73"/><path class="cls-1" d="M395.59,75.64c-3.59,3.6-8.31,5.54-13.63,5.54s-10.04-1.94-13.63-5.54c-5.02-5.02-5.02-10.27-5.02-21.57s0-16.56,5.02-21.58c3.6-3.59,8.31-5.54,13.63-5.54s10.04,1.95,13.63,5.54c5.02,5.02,5.02,10.26,5.02,21.58s0,16.55-5.02,21.57m-4.42-39.77c-2.32-2.39-5.69-3.81-9.21-3.81s-6.89,1.42-9.21,3.81c-3.38,3.45-3.75,7.04-3.75,18.21s.37,14.75,3.75,18.19c2.32,2.4,5.69,3.82,9.21,3.82s6.89-1.42,9.21-3.82c3.37-3.45,3.75-7.04,3.75-18.19s-.37-14.75-3.75-18.21"/><path class="cls-1" d="M444.65,80.73l-12.13-23.67h-12.81v23.67h-5.69V27.4h20.45c9.29,0,15.8,5.61,15.8,14.83,0,7.79-4.72,12.88-11.61,14.31l12.66,24.19m-17.38-48.23h-14.23v19.55h14.23c6.22,0,10.64-3.22,10.64-9.73s-4.42-9.81-10.64-9.81"/><path class="cls-1" d="M480.98,81.18c-10.78,0-18.57-7.41-18.57-18.05V27.4h5.69V62.68c0,8.09,5.09,13.41,12.89,13.41s12.96-5.32,12.96-13.41V27.4h5.69V63.13c0,10.64-7.87,18.05-18.65,18.05"/><polyline class="cls-1" points="554.31 80.73 554.31 40.21 539.7 72.34 534.83 72.34 520 40.21 520 80.73 514.31 80.73 514.31 27.4 520 27.4 537.38 65.23 554.31 27.4 560 27.4 560 80.73"/><path class="cls-1" d="M113.29,77.52c3.83-2.91,6.37-7.49,6.37-12.57,0-7.08-4.63-13.1-11.06-15.08-.78-5.75-3.39-11.05-7.55-15.19-4.56-4.54-10.51-7.22-16.94-7.69l-11.23-19.46c-2.72-4.72-7.6-7.53-13.05-7.53s-10.32,2.81-13.04,7.53L2.04,85.02c-2.72,4.71-2.72,10.34,0,15.06,2.72,4.71,7.6,7.53,13.05,7.53H104.57c5.45,0,10.32-2.82,13.04-7.53,2.72-4.72,2.72-10.35,0-15.06m-10.14,9.21c-.63,1.1-1.64,1.68-2.91,1.68H15.09c-1.27,0-2.28-.58-2.91-1.68-.63-1.1-.63-2.26,0-3.36L56.92,13.39c.63-1.1,1.64-1.68,2.91-1.68s2.28,.58,2.92,1.68l9,15.61c-5.59,2.36-10.32,6.57-13.21,12-4.89,.24-9.45,2.25-12.94,5.7-3.76,3.74-5.84,8.76-5.84,14.15,0,10.96,8.88,19.88,19.8,19.88h42.06l5.85,10.14c.64,1.1,.64,2.26,0,3.36"/></svg>