<?xml version="1.0" encoding="UTF-8"?><svg id="logo_TST" xmlns="http://www.w3.org/2000/svg" viewBox="0 0 560 212.41"><defs><style>.cls-1{fill:#96a5c8;}.cls-2{fill:#465f9b;}</style></defs><g><path class="cls-2" d="M241.66,2.37h100.79v29.67h-34.09V210.04h-32.61V32.04h-34.09V2.37Z"/><path class="cls-2" d="M401.12,0c31.72,0,48.02,18.99,48.02,52.21v8.01h-30.83v-10.09c0-14.83-5.93-20.47-16.3-20.47s-16.3,5.64-16.3,20.47c0,42.72,63.73,50.73,63.73,110.06,0,33.23-16.6,52.21-48.61,52.21s-48.61-18.99-48.61-52.21v-14.24h30.83v16.32c0,14.83,6.52,20.17,16.9,20.17s16.9-5.34,16.9-20.17c0-42.72-63.73-50.73-63.73-110.06,0-33.23,16.3-52.21,48.02-52.21Z"/><path class="cls-2" d="M459.22,2.37h100.78v29.67h-34.09V210.04h-32.61V32.04h-34.09V2.37Z"/></g><rect class="cls-2" x="171.54" y="2.12" width="36.47" height="207.94"/><rect class="cls-2" y="2.12" width="36.47" height="207.94"/><rect class="cls-2" x="128.65" y="2.12" width="36.47" height="63.15"/><rect class="cls-2" x="85.77" y="2.12" width="36.47" height="100.57"/><rect class="cls-2" x="42.88" y="2.12" width="36.47" height="137.52"/><rect class="cls-1" x="128.65" y="72.94" width="36.47" height="137.11"/><rect class="cls-1" x="85.77" y="110.37" width="36.47" height="99.69"/><rect class="cls-1" x="42.88" y="147.32" width="36.47" height="62.73"/></svg>