<?xml version="1.0" encoding="UTF-8"?><svg id="logo_Urbaser" xmlns="http://www.w3.org/2000/svg" viewBox="0 0 560 108.64"><defs><style>.cls-1,.cls-2{fill:#00109f;}.cls-3{fill:#74bb23;}.cls-3,.cls-4,.cls-2{fill-rule:evenodd;}.cls-4{fill:#a3b2b0;}</style></defs><path class="cls-1" d="M514.98,101.45h20.39v-24.11c0-11.68,5.9-17.57,15.56-17.57,2.36,0,4.59,.47,7.07,1.18l2-18.63c-2.47-.23-4.35-.35-5.77-.35-8.95,0-16.15,5.3-19.92,14.97v-13.67h-19.33v58.19m-24.89-36.61h-23.56c1.18-7.31,5.3-10.96,11.9-10.96,6.12,0,10.95,4.24,11.66,10.96m20.16,11.56v-.94c0-21.34-12.26-34.07-31.11-34.07s-32.41,14.02-32.41,31.6,12.38,30.71,33.59,30.71c13.78,0,23.34-5.25,26.98-13.97l-15.43-6.25c-2.24,4.6-6.48,6.95-12.73,6.95-8.25,0-12.96-4.95-13.07-14.02h44.19m-117.82,20.16c7.89,4.89,16.49,7.13,26.52,7.13,15.43,0,24.98-8.31,24.98-19.98,0-9.31-5.43-14.27-16.5-17.57-8.13-2.47-13.32-2.71-13.32-6.72,0-2.71,2.36-4.24,7.07-4.24,5.42,0,11.08,1.76,16.74,5.66l4.24-14.15c-8.01-3.54-15.55-5.3-23.21-5.3-15.21,0-23.57,8.01-23.57,18.63,0,8.84,5.54,14.15,17.56,17.33,7.66,2,12.37,2,12.37,6.83,0,3.07-2.71,4.84-7.9,4.84-7.07,0-14.73-2.82-20.73-8.13l-4.24,15.68m-22.02-24.29c0,9.08-5.18,14.62-13.54,14.62s-13.44-5.55-13.44-14.62,5.08-14.74,13.44-14.74,13.54,5.78,13.54,14.74m18.04-29.01h-18.98v9.55c-4.59-7.9-10.72-11.43-19.45-11.43-16.5,0-26.86,12.14-26.86,31.01s10.37,31.3,25.57,31.3c9.2,0,15.44-3.59,20.86-11.73v9.49h18.86V43.26m-116.99,29.13c0-8.96,5.07-14.62,13.31-14.62s13.43,5.66,13.43,14.62-5.19,14.62-13.43,14.62-13.31-5.55-13.31-14.62m-18.15-57.17V101.45h18.85v-9.49c5.19,7.78,11.67,11.73,19.69,11.73,16.02,0,26.75-11.85,26.75-31.3s-10.83-31.01-26.05-31.01c-9.66,0-15.07,2.82-20.26,11.55,.47-3.31,.59-6.84,.59-10.38V15.22h-19.56m-48.99,86.23h20.39v-24.11c0-11.68,5.89-17.57,15.55-17.57,2.36,0,4.59,.47,7.07,1.18l2-18.63c-2.48-.23-4.36-.35-5.77-.35-8.96,0-16.15,5.3-19.92,14.97v-13.67h-19.32v58.19m-6.46-58.19h-20.03v31.01c0,9.07-2.48,13.8-10.26,13.8s-10.26-4.73-10.26-13.8v-31.01h-19.56v29.72c0,9.43,.36,16.74,6.84,22.99,5.42,5.19,12.96,7.72,23.22,7.72s17.91-2.53,23.1-7.72c6.72-6.72,6.95-13.92,6.95-22.99v-29.72"/><g><path class="cls-2" d="M32.26,108.64c10.5,0,19.86-5.07,25.75-12.87-18.95,0-34.41-15.47-34.41-34.43,0-6.17,1.64-11.96,4.49-16.98C12.29,46.4,0,59.99,0,76.36c0,17.78,14.49,32.28,32.26,32.28"/><path class="cls-4" d="M87.92,44.35c1.51-3.73,2.35-7.81,2.35-12.07C90.27,14.5,75.78,0,58.01,0S25.75,14.5,25.75,32.28c0,4.26,.84,8.34,2.35,12.07,5.93-10.4,17.12-17.45,29.91-17.45s23.98,7.04,29.91,17.45"/><path class="cls-3" d="M83.76,108.64c17.77,0,32.26-14.5,32.26-32.28,0-16.37-12.28-29.96-28.1-32.01,2.86,5.02,4.49,10.81,4.49,16.98,0,18.96-15.45,34.43-34.41,34.43,5.9,7.81,15.25,12.87,25.75,12.87"/></g></svg>