<?xml version="1.0" encoding="UTF-8"?><svg id="logo_BreezeTechnologies" xmlns="http://www.w3.org/2000/svg" viewBox="0 0 560 185.93"><defs><style>.cls-1{fill:#2bc2ff;}.cls-1,.cls-2{fill-rule:evenodd;}</style></defs><path class="cls-1" d="M80.93,14.17c.03,.2,.07,.4,.11,.61,.02,.19,.06,.39,.1,.58,.05,.24,.11,.48,.19,.71,.02,.12,.05,.24,.09,.36,.01,.04,.02,.07,.04,.13,.09,.24,.19,.5,.28,.75,.06,.15,.11,.28,.18,.42,.1,.23,.2,.45,.32,.66,.08,.15,.16,.32,.26,.47,.09,.18,.2,.34,.31,.51,.13,.19,.24,.38,.37,.57,.09,.12,.19,.25,.3,.38,.15,.21,.32,.42,.5,.62,.09,.1,.19,.2,.28,.3,.19,.2,.4,.41,.6,.6,.02,.02,.05,.06,.09,.08,.04,.06,.09,.07,.14,.11,1.47,1.32,3.23,2.26,5.12,2.78,5.36,2.17,12.4,4.11,14.48,7.4l11.27,17.8c2.93,4.64,2.13,12.53,2.24,15.29,.21,4.64,4.13,8.22,8.74,8.02,1.4-.06,2.69-.5,3.83-1.16,.15-.07,.31-.18,.46-.28,.16-.09,.31-.19,.45-.3,1.07-.75,2.02-1.73,2.66-2.96,2.14-4.11,.54-9.17-3.57-11.31-2.44-1.26-9.94-3.88-12.9-8.5l-11.37-17.73c-2.12-3.28-.89-10.48-.59-16.26,.33-1.92,.22-3.92-.34-5.8-.02-.06-.02-.13-.05-.19,0-.04-.02-.07-.04-.11-.09-.27-.19-.53-.29-.79-.05-.13-.1-.27-.15-.39-.11-.24-.23-.47-.36-.72-.07-.14-.14-.28-.22-.41-.11-.2-.23-.39-.35-.58-.1-.17-.2-.33-.32-.5-.1-.13-.23-.28-.33-.42-.16-.19-.31-.4-.46-.57-.1-.12-.21-.22-.32-.33-.19-.21-.37-.4-.57-.58-.04-.04-.06-.06-.1-.11-.07-.07-.18-.13-.26-.22-.2-.16-.39-.33-.58-.48-.15-.1-.32-.23-.47-.33-.18-.13-.35-.24-.53-.36-.19-.12-.38-.22-.57-.33-.17-.08-.33-.18-.49-.25-.21-.1-.42-.2-.64-.29-.15-.07-.32-.15-.47-.21-.22-.08-.44-.15-.65-.22-.18-.07-.36-.11-.52-.16-.2-.06-.42-.11-.62-.16-.2-.04-.4-.09-.6-.12-.19-.04-.38-.06-.57-.08-.21-.02-.43-.04-.65-.07-.19-.02-.37-.02-.55-.03h-.67c-.19,0-.38,.03-.56,.03-.21,.03-.44,.04-.64,.07-.24,.02-.45,.05-.67,.1-.18,.01-.34,.06-.52,.1-.27,.05-.53,.12-.8,.2-.09,.02-.19,.04-.29,.07-.04,.02-.06,.03-.11,.04-.27,.09-.55,.2-.82,.3-.13,.05-.25,.11-.37,.16-.24,.1-.47,.24-.71,.34-.14,.08-.28,.14-.42,.21-.19,.12-.37,.23-.55,.34-.17,.12-.36,.23-.53,.35-.13,.1-.25,.21-.38,.3-.2,.16-.42,.33-.61,.49-.1,.08-.19,.19-.3,.27-.2,.21-.42,.41-.62,.63-.03,.02-.05,.05-.08,.07-.08,.08-.12,.16-.19,.24-.18,.21-.35,.41-.52,.63-.11,.13-.22,.28-.32,.42-.13,.19-.24,.38-.37,.56-.1,.19-.21,.37-.32,.56-.09,.16-.18,.32-.27,.5-.1,.19-.19,.4-.28,.6-.08,.17-.14,.33-.21,.51-.08,.21-.15,.41-.23,.63-.05,.18-.1,.35-.15,.55-.06,.19-.1,.39-.15,.57-.04,.22-.09,.42-.13,.62-.02,.18-.05,.38-.08,.56-.02,.23-.05,.46-.06,.68-.02,.18-.03,.35-.03,.52,0,.23-.01,.47,0,.7,0,.18,.01,.36,.03,.54,.02,.23,.04,.45,.06,.67"/><path class="cls-1" d="M105,171.77c-.02-.21-.05-.42-.09-.63-.04-.19-.07-.38-.12-.57-.05-.25-.11-.48-.19-.72-.02-.11-.05-.22-.08-.33-.02-.06-.04-.09-.05-.13-.09-.26-.19-.52-.28-.76-.06-.14-.12-.3-.18-.43-.08-.22-.2-.44-.32-.65-.08-.18-.17-.33-.24-.49-.1-.18-.22-.33-.32-.5-.13-.19-.24-.39-.37-.58-.09-.13-.19-.24-.28-.36-.16-.22-.33-.42-.51-.63-.09-.1-.19-.19-.28-.3-.19-.21-.38-.41-.6-.6-.02-.02-.05-.07-.09-.08-.04-.04-.09-.08-.14-.12-1.47-1.3-3.22-2.26-5.12-2.76-5.36-2.18-12.4-4.1-14.48-7.41l-11.27-17.8c-2.94-4.64-2.13-12.53-2.24-15.29-.21-4.61-4.12-8.21-8.74-8-1.4,.06-2.69,.49-3.83,1.15-.15,.09-.31,.19-.46,.28-.15,.1-.3,.19-.45,.29-1.07,.76-2.01,1.74-2.65,2.99-2.14,4.1-.55,9.15,3.56,11.3,2.44,1.28,9.94,3.87,12.9,8.51l11.38,17.73c2.1,3.27,.88,10.48,.59,16.27-.34,1.92-.23,3.91,.33,5.78,.03,.07,.03,.13,.05,.18,.01,.05,.02,.08,.03,.13,.09,.27,.2,.54,.31,.79,.04,.14,.08,.27,.14,.39,.12,.25,.23,.48,.36,.73,.08,.12,.15,.26,.22,.4,.11,.19,.24,.37,.35,.57,.1,.16,.22,.33,.32,.5,.11,.15,.22,.28,.34,.43,.14,.19,.29,.39,.45,.57,.1,.1,.22,.22,.32,.33,.19,.19,.37,.38,.56,.58,.04,.01,.07,.06,.1,.08,.09,.08,.18,.15,.27,.23,.19,.17,.38,.32,.59,.47,.15,.13,.31,.23,.46,.34,.18,.13,.34,.25,.53,.35,.18,.13,.38,.23,.58,.34,.16,.07,.31,.16,.47,.26,.2,.1,.42,.18,.63,.29,.16,.06,.32,.12,.48,.18,.21,.1,.43,.16,.65,.23,.18,.06,.36,.11,.54,.17,.2,.06,.41,.11,.6,.15,.21,.05,.4,.08,.6,.13,.19,.02,.38,.04,.57,.07,.22,.03,.44,.06,.67,.07,.18,0,.36,.02,.53,.02,.24,0,.45,0,.68,0,.19,0,.38-.02,.57-.02,.21-.02,.43-.04,.63-.07,.23-.02,.44-.05,.66-.1,.18-.01,.35-.04,.52-.08,.27-.06,.53-.13,.8-.21,.1-.03,.19-.04,.29-.08,.04,0,.08-.04,.11-.05,.28-.08,.55-.19,.82-.3,.13-.04,.25-.09,.37-.15,.24-.1,.47-.23,.71-.34,.14-.07,.29-.14,.42-.22,.19-.1,.37-.21,.55-.33,.18-.11,.36-.22,.54-.36,.13-.09,.25-.18,.38-.28,.2-.17,.42-.33,.61-.5,.1-.09,.19-.18,.29-.27,.22-.21,.42-.41,.63-.61,.02-.04,.05-.05,.07-.08,.08-.09,.13-.16,.2-.22,.18-.21,.34-.41,.51-.63,.12-.13,.22-.3,.33-.45,.12-.17,.25-.35,.37-.55,.11-.18,.21-.36,.32-.55,.09-.17,.18-.33,.27-.49,.1-.21,.19-.41,.28-.62,.08-.17,.14-.34,.21-.5,.08-.2,.15-.42,.23-.64,.05-.17,.11-.36,.16-.53,.05-.21,.1-.4,.14-.6,.05-.2,.09-.41,.13-.62,.02-.18,.05-.37,.08-.54,.03-.23,.05-.46,.06-.69,.01-.18,.02-.35,.02-.53,.01-.23,.01-.46,0-.7,0-.18,0-.36-.02-.54-.02-.22-.04-.45-.06-.67"/><path class="cls-1" d="M35.35,41.63c2.67-.71,9.96-3.86,15.26-2.46l20.37,5.4c3.76,.99,7.73,7.12,11.41,11.59,1.05,1.65,2.49,3.04,4.18,4.04,.05,.04,.1,.08,.15,.11,.02,.02,.08,.04,.1,.06,.26,.14,.51,.26,.77,.38,.11,.07,.24,.13,.37,.18,.24,.09,.5,.2,.74,.29,.15,.06,.29,.1,.44,.15,.22,.08,.43,.13,.66,.19,.19,.06,.38,.1,.57,.15,.18,.03,.36,.06,.54,.08,.25,.05,.47,.1,.72,.12,.15,.01,.32,.02,.46,.04,.28,.01,.54,.04,.81,.04,.04,0,.08,0,.13,0,.11,0,.22-.02,.34-.02,.26,0,.51,0,.77-.03,.19-.01,.38-.04,.57-.06,.21-.04,.41-.07,.61-.11,.23-.04,.45-.08,.66-.15,.17-.03,.35-.07,.52-.12,.23-.07,.46-.15,.68-.22,.17-.07,.32-.12,.49-.18,.21-.09,.42-.18,.63-.27,.17-.08,.33-.16,.5-.24,.18-.1,.37-.21,.55-.3,.18-.11,.36-.2,.52-.33,.16-.1,.32-.19,.47-.32,.18-.13,.37-.26,.54-.4,.14-.11,.28-.23,.42-.35,.16-.15,.33-.3,.49-.46,.15-.13,.28-.25,.4-.4,.15-.15,.29-.31,.44-.47,.14-.17,.28-.35,.41-.52,.12-.14,.23-.28,.33-.44,.15-.22,.29-.44,.43-.67,.05-.09,.11-.17,.16-.25,.03-.04,.04-.08,.05-.11,.15-.25,.28-.51,.41-.79,.05-.12,.12-.23,.17-.34,.1-.25,.2-.5,.29-.76,.05-.13,.11-.29,.16-.45,.07-.2,.12-.41,.17-.61,.06-.21,.11-.42,.16-.62,.03-.16,.05-.32,.08-.48,.05-.27,.09-.53,.13-.79,.01-.15,.01-.25,.02-.39,.03-.3,.04-.59,.04-.88,0-.04,.01-.08,.01-.12,0-.08-.01-.2-.01-.3-.01-.27-.02-.55-.04-.81-.02-.18-.05-.36-.06-.54-.04-.21-.06-.43-.1-.65-.04-.22-.09-.42-.14-.62-.04-.18-.09-.37-.14-.55-.07-.21-.14-.44-.2-.65-.07-.17-.13-.33-.2-.51-.08-.21-.16-.41-.25-.62-.09-.16-.16-.35-.25-.51-.09-.17-.19-.36-.3-.54-.1-.18-.22-.37-.33-.55-.1-.15-.2-.31-.31-.45-.14-.19-.27-.37-.42-.56-.1-.13-.21-.27-.32-.39-.15-.18-.32-.34-.49-.52-.13-.13-.26-.24-.38-.38-.16-.16-.32-.31-.5-.45-.15-.15-.32-.27-.49-.4-.15-.11-.3-.23-.46-.34-.21-.16-.41-.29-.63-.41-.11-.06-.19-.15-.29-.19-.04-.03-.09-.04-.11-.06-.25-.12-.49-.25-.73-.38-.13-.06-.27-.13-.41-.21-.23-.08-.46-.17-.69-.25-.17-.06-.33-.13-.5-.19-.19-.05-.38-.1-.57-.16-.22-.05-.44-.1-.66-.16-.15-.01-.31-.05-.46-.07-.26-.05-.52-.09-.79-.12-.14-.03-.27-.03-.41-.04-.28-.03-.56-.04-.86-.04-.04,0-.07-.02-.12-.02-.05,0-.11,.02-.18,.02-1.96,.04-3.89,.53-5.64,1.42-5.41,2.03-11.92,5.36-15.68,4.33l-20.34-5.51c-5.28-1.43-10.03-7.79-11.97-9.75-3.27-3.27-8.59-3.27-11.87,0-.98,.99-1.65,2.19-2.03,3.45-.06,.17-.1,.33-.15,.51-.05,.18-.1,.35-.13,.52-.29,1.28-.32,2.62,.05,3.99,1.19,4.47,5.79,7.12,10.26,5.93"/><path class="cls-1" d="M150.58,144.3c-2.67,.73-9.96,3.86-15.26,2.46l-20.36-5.39c-3.77-.99-7.73-7.13-11.42-11.59-1.05-1.65-2.49-3.04-4.17-4.04-.05-.04-.11-.07-.15-.09-.02-.03-.07-.05-.1-.07-.25-.14-.51-.27-.77-.38-.11-.07-.24-.14-.37-.19-.24-.11-.5-.21-.74-.29-.15-.05-.29-.11-.45-.17-.2-.06-.43-.12-.65-.17-.19-.05-.38-.11-.57-.16-.18-.04-.36-.06-.54-.08-.24-.05-.47-.07-.71-.12-.15-.01-.32-.01-.47-.04-.27-.01-.54-.02-.8-.02-.04-.02-.09-.02-.13-.02-.11,0-.23,.02-.36,.02-.24,.01-.5,.02-.75,.02-.19,.04-.38,.05-.56,.08-.22,.03-.42,.05-.63,.1-.23,.04-.44,.08-.65,.13-.18,.06-.35,.08-.52,.13-.23,.07-.46,.16-.67,.23-.17,.05-.32,.12-.48,.17-.22,.08-.42,.17-.64,.27-.17,.08-.34,.15-.49,.23-.19,.1-.38,.21-.56,.32-.18,.09-.36,.21-.53,.31-.17,.09-.32,.21-.47,.32-.18,.14-.36,.27-.53,.4-.14,.12-.28,.23-.42,.35-.17,.15-.33,.3-.5,.46-.14,.13-.27,.27-.39,.41-.16,.16-.3,.3-.44,.47-.14,.16-.28,.35-.41,.51-.11,.15-.23,.29-.33,.44-.15,.23-.3,.46-.44,.69-.05,.07-.12,.17-.17,.25-.03,.02-.04,.06-.06,.11-.14,.25-.27,.5-.4,.77-.05,.12-.11,.24-.16,.35-.11,.24-.2,.49-.3,.75-.05,.15-.11,.29-.16,.44-.06,.21-.11,.42-.17,.62-.07,.21-.11,.41-.17,.61-.03,.17-.05,.32-.08,.47-.05,.27-.09,.54-.12,.79-.02,.13-.02,.27-.03,.39-.02,.31-.04,.59-.05,.88,0,.04,0,.08,0,.12,0,.11,0,.21,0,.3,.02,.28,.03,.54,.04,.8,.03,.18,.05,.36,.08,.54,.03,.21,.05,.44,.09,.66,.04,.21,.09,.41,.14,.62,.04,.19,.09,.36,.14,.55,.06,.23,.12,.44,.2,.65,.06,.18,.13,.35,.19,.51,.08,.21,.17,.41,.26,.61,.08,.19,.17,.35,.25,.53,.09,.18,.19,.35,.29,.54,.1,.18,.21,.36,.33,.53,.1,.16,.2,.31,.3,.46,.14,.19,.27,.38,.43,.56,.1,.14,.22,.26,.32,.39,.15,.17,.32,.36,.48,.52,.13,.14,.25,.26,.38,.39,.17,.15,.32,.3,.5,.44,.15,.14,.32,.27,.48,.4,.15,.12,.31,.23,.46,.34,.22,.13,.42,.27,.64,.41,.1,.05,.19,.12,.29,.19,.04,.01,.09,.04,.11,.06,.24,.12,.48,.24,.73,.35,.13,.08,.27,.14,.41,.2,.23,.1,.46,.18,.69,.27,.17,.06,.33,.13,.5,.18,.19,.06,.38,.11,.57,.17,.21,.07,.43,.13,.66,.16,.14,.05,.31,.05,.46,.08,.26,.04,.53,.1,.79,.12,.14,.02,.27,.02,.41,.02,.28,.04,.56,.06,.86,.06h.13c.05,0,.12,0,.18-.02,1.97-.01,3.89-.5,5.64-1.41,5.41-2.02,11.91-5.35,15.68-4.32l20.34,5.51c5.28,1.44,10.03,7.79,11.96,9.74,3.28,3.28,8.59,3.28,11.87,0,.98-.99,1.65-2.18,2.03-3.43,.06-.17,.1-.34,.15-.51,.05-.18,.1-.35,.13-.53,.29-1.29,.32-2.64-.05-3.99-1.2-4.47-5.79-7.13-10.26-5.94"/><path class="cls-1" d="M32.2,81.27l17.81-11.28c4.63-2.92,12.53-2.11,15.27-2.25,4.63-.19,8.22-4.11,8.01-8.73-.07-1.4-.49-2.69-1.15-3.83-.09-.17-.19-.31-.28-.47-.1-.14-.19-.29-.3-.45-.74-1.08-1.72-2.01-2.98-2.66-4.1-2.13-9.17-.53-11.3,3.57-1.28,2.44-3.88,9.93-8.5,12.9l-17.74,11.37c-3.28,2.1-10.47,.89-16.25,.58-1.93-.33-3.92-.22-5.81,.34-.05,.01-.11,.04-.18,.04-.04,.03-.08,.05-.11,.07-.27,.08-.54,.19-.81,.28-.12,.05-.25,.1-.37,.16-.25,.11-.49,.22-.73,.35-.14,.08-.28,.13-.41,.21-.2,.1-.39,.24-.58,.36-.17,.1-.34,.2-.49,.31-.15,.11-.29,.22-.43,.33-.2,.15-.38,.31-.58,.46-.11,.1-.21,.22-.33,.32-.19,.17-.4,.37-.57,.56-.03,.04-.07,.06-.09,.1-.09,.08-.15,.18-.23,.27-.17,.19-.33,.36-.49,.57-.11,.14-.23,.32-.33,.47-.12,.19-.24,.34-.35,.51-.12,.2-.23,.39-.33,.58-.09,.17-.17,.33-.26,.48-.1,.21-.2,.42-.29,.64-.06,.15-.12,.31-.19,.48-.09,.22-.16,.43-.23,.65-.06,.18-.12,.34-.17,.53-.05,.2-.1,.42-.14,.62-.05,.19-.09,.4-.13,.61-.02,.19-.06,.36-.07,.56-.03,.23-.05,.44-.08,.67,0,.17-.01,.36-.02,.54v.68c.01,.19,.02,.39,.03,.57,.02,.21,.03,.42,.05,.63,.03,.22,.07,.45,.11,.66,.03,.17,.06,.35,.1,.53,.07,.26,.13,.51,.2,.78,.03,.08,.05,.19,.08,.3,.02,.03,.04,.05,.05,.1,.08,.28,.19,.55,.3,.82,.05,.12,.1,.25,.15,.36,.1,.24,.24,.48,.35,.72,.08,.13,.14,.29,.23,.42,.1,.18,.22,.35,.33,.53,.11,.19,.23,.36,.34,.55,.1,.14,.21,.24,.31,.37,.15,.22,.32,.42,.49,.62,.08,.1,.18,.2,.27,.27,.2,.22,.4,.45,.61,.63,.03,.02,.05,.07,.09,.1,.08,.08,.15,.12,.22,.19,.21,.18,.41,.35,.63,.52,.14,.1,.3,.21,.44,.31,.19,.13,.37,.25,.56,.38,.18,.1,.35,.22,.54,.31,.17,.1,.32,.18,.5,.25,.2,.11,.41,.21,.61,.3,.17,.06,.33,.14,.51,.2,.2,.07,.41,.15,.63,.22,.18,.06,.37,.1,.55,.16,.19,.06,.4,.1,.59,.16,.21,.04,.42,.09,.63,.12,.17,.04,.36,.05,.53,.08,.24,.03,.46,.05,.69,.06,.18,.01,.35,.01,.51,.03h.71c.18,0,.36-.02,.54-.03,.22-.02,.44-.03,.66-.06,.21-.03,.41-.07,.61-.1,.19-.04,.38-.07,.58-.11,.24-.05,.48-.13,.73-.19,.11-.02,.23-.05,.34-.09,.04,0,.08-.03,.13-.03,.26-.1,.49-.19,.75-.28,.14-.07,.28-.11,.44-.18,.21-.11,.43-.22,.64-.33,.16-.07,.32-.17,.49-.25,.16-.11,.33-.2,.49-.32,.2-.12,.38-.24,.57-.36,.13-.09,.25-.19,.37-.29,.21-.16,.44-.32,.64-.5,.1-.1,.19-.19,.29-.29,.21-.18,.41-.39,.6-.59,.04-.04,.06-.06,.1-.08,.04-.04,.08-.11,.12-.14,1.3-1.48,2.24-3.23,2.76-5.12,2.17-5.36,4.11-12.41,7.4-14.49"/><path class="cls-1" d="M185.9,92.56c-.01-.2-.02-.4-.05-.62-.04-.23-.07-.44-.1-.66-.04-.18-.07-.36-.1-.53-.06-.27-.13-.52-.21-.79-.02-.09-.05-.19-.08-.29-.02-.05-.03-.07-.04-.12-.09-.28-.2-.54-.31-.82-.05-.13-.1-.25-.15-.37-.1-.25-.23-.47-.35-.71-.07-.14-.14-.29-.23-.42-.1-.19-.21-.37-.33-.54-.11-.18-.23-.36-.34-.54-.11-.13-.2-.25-.31-.39-.15-.19-.32-.42-.5-.61-.07-.1-.18-.19-.27-.29-.19-.21-.4-.42-.61-.63-.02-.02-.05-.06-.08-.08-.08-.07-.17-.12-.24-.2-.21-.17-.41-.34-.63-.51-.14-.12-.29-.22-.43-.33-.19-.12-.37-.25-.56-.37-.18-.11-.36-.22-.55-.31-.17-.08-.32-.18-.5-.27-.2-.1-.41-.19-.61-.27-.17-.09-.34-.15-.51-.21-.21-.08-.41-.15-.63-.23-.18-.05-.35-.11-.55-.16-.19-.07-.4-.1-.58-.15-.22-.04-.42-.1-.63-.13-.18-.02-.38-.05-.55-.07-.23-.02-.46-.06-.69-.07-.16-.01-.34-.01-.51-.01-.24-.02-.47-.02-.7,0-.18,0-.36,0-.55,.01-.22,.02-.44,.05-.66,.07-.21,.02-.41,.05-.61,.09-.19,.04-.38,.06-.57,.11-.24,.04-.48,.11-.73,.19-.11,.02-.23,.05-.35,.08-.04,.02-.07,.03-.12,.04-.25,.1-.5,.18-.75,.28-.14,.06-.3,.12-.43,.18-.22,.1-.44,.21-.65,.31-.17,.08-.32,.17-.47,.27-.18,.09-.35,.21-.51,.3-.19,.12-.38,.24-.57,.37-.11,.08-.25,.19-.36,.27-.22,.17-.43,.33-.62,.51-.11,.08-.21,.18-.31,.28-.21,.19-.41,.38-.6,.6-.04,.03-.06,.04-.1,.08-.04,.04-.07,.09-.11,.15-1.3,1.47-2.24,3.22-2.76,5.11-2.17,5.36-4.11,12.4-7.4,14.48l-17.82,11.27c-4.63,2.93-12.51,2.13-15.27,2.25-4.64,.21-8.22,4.12-8.01,8.74,.06,1.4,.5,2.69,1.16,3.83,.08,.16,.18,.3,.27,.46,.1,.16,.19,.31,.31,.45,.76,1.06,1.72,2.01,2.97,2.66,4.11,2.13,9.16,.54,11.31-3.57,1.27-2.45,3.88-9.93,8.5-12.9l17.74-11.38c3.28-2.1,10.48-.88,16.25-.59,1.93,.35,3.92,.23,5.81-.33,.05-.03,.11-.03,.17-.05,.04-.01,.08-.04,.11-.04,.27-.08,.54-.19,.81-.3,.12-.05,.25-.1,.38-.16,.25-.1,.47-.23,.72-.34,.14-.08,.28-.15,.42-.22,.19-.11,.38-.22,.57-.34,.17-.13,.33-.22,.48-.33,.16-.11,.3-.23,.44-.34,.19-.15,.38-.3,.57-.45,.13-.1,.23-.21,.34-.32,.2-.19,.4-.37,.57-.57,.02-.04,.06-.06,.1-.09,.08-.1,.14-.19,.21-.28,.17-.18,.33-.38,.48-.58,.12-.14,.21-.31,.34-.46,.13-.18,.24-.33,.36-.51,.11-.19,.22-.39,.33-.57,.09-.17,.18-.32,.25-.48,.1-.2,.2-.42,.29-.65,.06-.15,.14-.32,.19-.47,.09-.22,.17-.43,.23-.64,.06-.19,.11-.36,.17-.54,.05-.21,.11-.41,.16-.62,.03-.19,.07-.39,.11-.59,.04-.19,.06-.38,.08-.57,.02-.22,.05-.44,.08-.67,.01-.18,.01-.36,.02-.53v-.68c0-.19-.02-.38-.04-.58"/><path class="cls-1" d="M60.2,99.36s.07-.1,.1-.15c.02-.05,.04-.07,.06-.12,.14-.25,.26-.5,.39-.76,.06-.13,.13-.24,.18-.37,.11-.24,.2-.49,.3-.74,.05-.15,.11-.3,.15-.45,.08-.21,.13-.42,.19-.65,.05-.19,.1-.38,.14-.57,.04-.18,.06-.36,.1-.53,.04-.25,.08-.48,.11-.73,.02-.15,.02-.31,.04-.46,.02-.27,.04-.53,.04-.8,0-.04,0-.08,0-.13,0-.12,0-.23-.02-.36,0-.24,0-.5-.04-.76-.01-.19-.03-.38-.06-.57-.04-.21-.06-.42-.08-.63-.05-.2-.11-.42-.16-.63-.04-.18-.07-.36-.13-.53-.06-.22-.14-.45-.22-.66-.05-.18-.11-.33-.18-.49-.07-.23-.16-.42-.26-.65-.08-.16-.16-.33-.24-.49-.09-.18-.21-.37-.31-.56-.1-.17-.2-.35-.32-.53-.1-.15-.21-.31-.32-.47-.12-.18-.25-.36-.39-.52-.11-.15-.23-.29-.34-.42-.15-.17-.31-.34-.46-.5-.14-.13-.27-.27-.41-.4-.16-.15-.32-.3-.47-.42-.17-.14-.34-.29-.52-.44-.14-.1-.28-.22-.44-.31-.21-.16-.44-.29-.68-.45-.08-.05-.16-.1-.25-.15-.04-.03-.08-.04-.1-.07-.25-.14-.52-.27-.79-.39-.11-.05-.23-.11-.34-.17-.24-.12-.5-.2-.75-.3-.15-.05-.3-.11-.45-.16-.19-.07-.41-.11-.61-.16-.2-.08-.41-.14-.61-.18-.17-.02-.32-.05-.48-.07-.26-.07-.52-.1-.78-.13-.12-.02-.27-.02-.39-.02-.3-.02-.59-.04-.88-.05-.04,0-.08,0-.12,0-.1,0-.2,0-.31,0-.27,.02-.54,.02-.82,.04-.17,.02-.34,.03-.52,.05-.23,.04-.44,.07-.66,.12-.21,.03-.42,.08-.62,.13-.18,.05-.36,.1-.56,.15-.21,.07-.43,.13-.63,.2-.18,.08-.35,.14-.51,.2-.2,.08-.42,.17-.61,.25-.18,.08-.36,.18-.52,.26-.18,.09-.36,.19-.54,.3-.18,.1-.37,.21-.55,.32-.15,.11-.29,.21-.44,.32-.19,.13-.37,.27-.55,.41-.14,.11-.27,.23-.41,.33-.16,.16-.34,.32-.5,.48-.13,.12-.26,.25-.39,.39-.15,.15-.31,.31-.44,.48-.14,.18-.27,.34-.4,.5-.12,.15-.22,.32-.34,.47-.14,.22-.28,.42-.41,.64-.07,.09-.14,.19-.19,.28-.03,.04-.04,.08-.06,.12-.13,.24-.25,.47-.37,.71-.07,.15-.15,.29-.2,.42-.1,.24-.18,.46-.27,.69-.06,.15-.13,.33-.19,.5-.06,.19-.1,.38-.15,.57-.06,.21-.13,.44-.16,.65-.04,.16-.06,.31-.09,.47-.05,.26-.09,.53-.11,.8-.03,.12-.03,.26-.04,.4-.01,.29-.04,.57-.04,.85,0,.05-.01,.08-.01,.13,0,.06,.01,.12,.01,.18,.04,1.97,.53,3.89,1.42,5.64,2.03,5.41,5.35,11.92,4.34,15.67l-5.51,20.35c-1.44,5.28-7.81,10.02-9.76,11.97-3.27,3.28-3.27,8.59,0,11.85,.99,.99,2.18,1.65,3.44,2.04,.17,.06,.33,.11,.51,.15,.18,.04,.34,.09,.52,.13,1.27,.29,2.64,.32,3.99-.05,4.47-1.19,7.12-5.79,5.92-10.27-.71-2.64-3.84-9.94-2.45-15.24l5.4-20.36c.98-3.76,7.12-7.74,11.59-11.43,1.64-1.05,3.03-2.49,4.04-4.17"/><path class="cls-1" d="M125.73,86.58s-.08,.1-.1,.14c-.02,.04-.04,.07-.06,.12-.14,.24-.27,.5-.38,.76-.07,.11-.13,.23-.18,.38-.11,.23-.21,.47-.29,.74-.06,.14-.12,.29-.16,.44-.07,.2-.12,.44-.18,.65-.05,.19-.1,.38-.14,.58-.03,.18-.06,.35-.1,.53-.04,.24-.07,.47-.1,.71-.02,.15-.02,.32-.03,.46-.03,.27-.04,.54-.04,.81,0,.05-.01,.1-.01,.13,0,.12,.01,.23,.01,.34,.01,.25,.02,.5,.05,.76,.01,.19,.04,.39,.06,.57,.02,.22,.05,.42,.09,.63,.05,.22,.1,.43,.13,.65,.06,.18,.09,.35,.15,.52,.07,.23,.14,.46,.21,.68,.05,.16,.12,.32,.18,.48,.07,.22,.18,.42,.27,.64,.08,.18,.15,.33,.24,.49,.09,.19,.19,.37,.31,.56,.1,.19,.21,.36,.32,.53,.1,.16,.2,.32,.31,.47,.13,.17,.26,.35,.39,.53,.12,.14,.23,.28,.35,.42,.15,.16,.31,.34,.46,.5,.13,.14,.27,.27,.41,.4,.15,.13,.3,.29,.47,.44,.17,.13,.34,.28,.52,.4,.14,.12,.28,.23,.42,.33,.23,.15,.46,.3,.69,.43,.09,.06,.17,.11,.26,.16,.04,.04,.06,.04,.1,.06,.26,.15,.53,.28,.78,.41,.13,.05,.24,.11,.36,.16,.24,.13,.5,.19,.74,.3,.15,.04,.31,.12,.46,.17,.19,.06,.41,.11,.61,.16,.21,.05,.41,.11,.61,.16,.17,.03,.33,.06,.49,.08,.25,.06,.52,.09,.78,.11,.13,.02,.26,.02,.4,.04,.29,.02,.59,.04,.89,.04,.03,0,.07,.02,.11,.02,.11,0,.2-.02,.31-.02,.27-.01,.54-.02,.8-.05,.18-.01,.35-.03,.54-.06,.23-.02,.44-.05,.67-.09,.2-.04,.42-.09,.63-.14,.18-.05,.35-.09,.55-.14,.22-.07,.43-.13,.64-.21,.17-.05,.34-.13,.51-.19,.22-.07,.42-.17,.61-.27,.18-.08,.35-.16,.53-.25,.18-.09,.35-.19,.54-.3,.17-.11,.37-.21,.54-.33,.15-.11,.3-.2,.46-.3,.19-.15,.37-.27,.55-.42,.14-.1,.27-.22,.39-.33,.18-.15,.36-.31,.53-.48,.13-.12,.25-.24,.38-.39,.15-.16,.31-.32,.45-.49,.14-.16,.27-.32,.4-.49,.11-.15,.23-.3,.34-.46,.14-.21,.28-.42,.41-.64,.06-.1,.12-.18,.18-.28,.03-.03,.04-.09,.07-.13,.13-.22,.24-.47,.36-.71,.08-.15,.15-.27,.2-.42,.1-.22,.18-.45,.27-.68,.06-.16,.13-.33,.19-.51,.07-.18,.1-.38,.16-.57,.06-.21,.12-.44,.16-.66,.04-.15,.06-.31,.09-.45,.04-.25,.09-.53,.11-.8,0-.14,.03-.26,.03-.41,.02-.27,.04-.56,.04-.85v-.31c-.04-1.96-.52-3.89-1.42-5.64-2.03-5.41-5.36-11.92-4.34-15.67l5.51-20.34c1.44-5.28,7.81-10.04,9.75-11.98,3.28-3.26,3.28-8.58,0-11.86-.99-.98-2.19-1.64-3.44-2.02-.17-.07-.35-.11-.51-.16-.18-.04-.35-.09-.53-.12-1.28-.3-2.64-.32-3.99,.03-4.47,1.21-7.12,5.82-5.92,10.28,.69,2.67,3.85,9.95,2.45,15.25l-5.4,20.38c-.99,3.75-7.13,7.72-11.58,11.41-1.66,1.05-3.04,2.48-4.05,4.17"/><path class="cls-1" d="M111.89,150.12c-3.49,1.14-5.38,4.9-4.24,8.38,1.15,3.48,4.9,5.36,8.37,4.21,3.47-1.14,5.36-4.89,4.21-8.36-1.12-3.48-4.87-5.36-8.34-4.23"/><path class="cls-1" d="M74.22,35.81c3.49-1.14,5.38-4.89,4.24-8.38-1.15-3.47-4.9-5.36-8.37-4.21-3.49,1.14-5.36,4.89-4.21,8.36,1.15,3.49,4.87,5.38,8.35,4.24"/><path class="cls-1" d="M57.05,149.62c-1.66,3.27-.33,7.25,2.91,8.91,3.27,1.64,7.27,.34,8.93-2.93,1.66-3.28,.33-7.25-2.93-8.91-3.26-1.64-7.25-.34-8.91,2.93"/><path class="cls-1" d="M129.07,36.32c1.66-3.26,.33-7.27-2.94-8.91-3.26-1.63-7.25-.34-8.88,2.93-1.66,3.28-.36,7.26,2.91,8.91,3.27,1.66,7.28,.34,8.91-2.93"/><path class="cls-1" d="M31.68,120.17c3.47-1.16,5.36-4.9,4.21-8.38-1.12-3.47-4.9-5.37-8.37-4.22-3.47,1.14-5.36,4.88-4.21,8.36,1.15,3.48,4.9,5.37,8.37,4.24"/><path class="cls-1" d="M154.43,65.8c-3.47,1.13-5.35,4.87-4.21,8.33,1.13,3.51,4.88,5.38,8.37,4.24,3.47-1.15,5.36-4.9,4.21-8.38-1.15-3.46-4.9-5.37-8.37-4.2"/><path class="cls-1" d="M27.52,59.89c-1.68,3.27-.36,7.24,2.91,8.91,3.27,1.64,7.25,.34,8.9-2.93,1.66-3.27,.34-7.26-2.93-8.91-3.26-1.65-7.25-.35-8.88,2.93"/><path class="cls-1" d="M158.61,126.04c1.66-3.26,.34-7.25-2.93-8.89-3.27-1.66-7.25-.33-8.91,2.93-1.63,3.25-.33,7.25,2.94,8.89,3.27,1.65,7.25,.34,8.9-2.93"/><path class="cls-2" d="M243.87,88.39c-.82,.71-1.71,1.01-2.94,1.01-1.07,.29-2.36,.5-3.67,.5h-13.17v-13.86h12.78c1.38,0,2.67,0,3.83,.31,1.13,.18,2.19,.68,3.09,1.14,.88,.51,1.53,1.32,2.02,2.14,.51,.82,.83,1.93,.83,3.25s-.32,2.47-.73,3.24c-.58,.99-1.14,1.64-2.03,2.27h0Zm-19.78-31.72h11.47c2.76,0,4.8,.49,6.2,1.3,1.29,1,2.03,2.47,2.03,4.57s-.74,3.58-1.96,4.54c-1.21,1.14-3.42,1.48-6.18,1.48h-11.56v-11.89h0Zm27.09,37.46c1.71-1.15,3.02-2.61,4.07-4.23,.89-1.83,1.38-3.93,1.38-6.37,0-3.26-.99-5.68-3.02-7.8-2.02-1.97-5.04-3.27-8.86-3.73,3.01-.51,5.46-1.82,6.92-3.77,1.48-1.77,2.28-4.25,2.28-6.99,0-1.95-.42-3.75-1.22-5.22-.82-1.65-1.95-2.91-3.51-3.76-1.46-.97-3.32-1.76-5.54-2.39-2.27-.33-4.79-.71-7.56-.71h-22.12v48.18h24.09c2.52,0,4.95-.16,7.23-.8,2.21-.5,4.24-1.45,5.86-2.42h0Z"/><path class="cls-2" d="M305.61,70.84c-1.06,.16-2.34,.29-3.91,.29h-13.17v-14.13h12.93c2.85,0,4.98,.67,6.59,1.81,1.55,1.14,2.28,2.75,2.28,5.17,0,1.15-.16,2.15-.49,2.95-.4,.82-.9,1.63-1.54,2.27-.73,.66-1.62,1.16-2.68,1.64h0Zm17.23,26.51l-13.01-20.17c1.55-.48,2.94-1.15,4.25-1.8,1.29-.81,2.45-1.63,3.41-2.92,.89-1.13,1.64-2.42,2.19-4.05,.48-1.32,.82-3.11,.82-4.74,0-2.43-.41-4.23-1.11-6-.78-1.83-1.81-3.3-3.35-4.56-1.47-1.17-3.4-2.3-5.61-2.91-2.2-.66-4.88-1.04-7.89-1.04h-24v48.18h10v-18.38h11.88l11.14,18.38h11.29Z"/><polyline class="cls-2" points="382.15 89.55 352.97 89.55 352.97 76.85 378.74 76.85 378.74 69.06 352.97 69.06 352.97 57 380.71 57 380.71 49.16 342.96 49.16 342.96 97.34 382.15 97.34 382.15 89.55"/><polyline class="cls-2" points="442.76 89.55 413.65 89.55 413.65 76.85 439.29 76.85 439.29 69.06 413.65 69.06 413.65 57 441.3 57 441.3 49.16 403.48 49.16 403.48 97.34 442.76 97.34 442.76 89.55"/><polyline class="cls-2" points="498.66 56.35 498.66 49.16 464.08 49.16 464.08 57.16 487.59 57.16 461.57 90.19 461.57 97.34 500.13 97.34 500.13 89.39 472.72 89.39 498.66 56.35"/><polyline class="cls-2" points="530.87 89.55 530.87 76.85 556.51 76.85 556.51 69.06 530.87 69.06 530.87 57 558.62 57 558.62 49.16 520.79 49.16 520.79 97.34 560 97.34 560 89.55 530.87 89.55"/><polyline class="cls-2" points="214.01 115.55 222.18 115.55 222.18 136.45 225.36 136.45 225.36 115.55 233.5 115.55 233.5 112.96 214.01 112.96 214.01 115.55"/><polyline class="cls-2" points="247.11 125.66 260.82 125.66 260.82 123.07 247.11 123.07 247.11 115.55 261.89 115.55 261.89 112.96 243.94 112.96 243.94 136.45 262.54 136.45 262.54 133.84 247.11 133.84 247.11 125.66"/><path class="cls-2" d="M290.51,131.21c-.49,.64-.98,1.13-1.72,1.65-.58,.47-1.22,.78-2.03,.98-.64,.32-1.55,.48-2.53,.48-1.31,0-2.44-.35-3.52-.99-.97-.32-1.86-.98-2.59-1.8-.74-.81-1.34-1.95-1.64-3.09-.41-1.13-.65-2.45-.65-3.74,0-1.63,.17-2.92,.56-4.09,.32-1.13,.9-2.1,1.64-2.94,.64-.82,1.56-1.47,2.6-1.79,.97-.47,2.22-.84,3.5-.84,.98,0,1.8,.19,2.61,.5,.81,.16,1.45,.52,2.03,.98,.57,.32,1.07,.64,1.39,1.32,.42,.29,.76,.98,.89,1.62l3.01-1.17c-.71-1.77-1.94-3.4-3.65-4.37-1.63-.96-3.82-1.47-6.28-1.47-1.79,0-3.43,.33-4.89,.97-1.46,.5-2.68,1.33-3.66,2.46-.9,.97-1.72,2.12-2.21,3.59-.5,1.63-.81,3.27-.81,5.22,0,1.8,.31,3.27,.73,4.71,.58,1.47,1.22,2.94,2.2,3.92,.99,1.15,2.21,1.96,3.61,2.43,1.46,.69,3.09,1.02,5.04,1.02,1.31,0,2.53,0,3.51-.49,1.14-.19,2.12-.67,2.95-1.31,.89-.5,1.53-1.13,2.19-1.96,.64-.67,1.14-1.64,1.53-2.46l-2.6-1.3c-.31,.82-.71,1.46-1.21,1.95"/><polyline class="cls-2" points="321.4 122.74 308.58 122.74 308.58 112.96 305.35 112.96 305.35 136.45 308.58 136.45 308.58 125.51 321.4 125.51 321.4 136.45 324.51 136.45 324.51 112.96 321.4 112.96 321.4 122.74"/><path class="cls-2" d="M353.28,128.43c0,.33,.09,.97,.09,1.64v1.3c0,.48,.07,1.13,.07,1.8l-12.72-20.21h-3.67v23.49h2.78v-16.97c0-.48-.09-.96-.09-1.47s0-1.16-.08-1.61l12.66,20.06h3.92v-23.49h-2.96v15.48"/><path class="cls-2" d="M387.22,128.43c-.41,1.14-.9,2.12-1.63,3.09-.65,.82-1.56,1.48-2.53,1.99-1.13,.46-2.36,.81-3.85,.81-1.38,0-2.59-.35-3.66-.81-1.13-.5-1.95-1.17-2.69-1.99-.73-.81-1.23-1.95-1.56-3.09-.41-1.13-.54-2.45-.54-3.74,0-1.63,.13-2.92,.46-4.09,.33-1.13,.9-2.1,1.63-2.94,.74-.82,1.55-1.47,2.69-1.79,1.07-.47,2.28-.84,3.66-.84s2.61,.36,3.6,.84c1.05,.32,1.94,.97,2.68,1.79,.66,.84,1.23,1.8,1.55,2.94,.42,1.16,.58,2.46,.58,4.09,0,1.29-.16,2.61-.4,3.74h0Zm.72-12.55c-1.06-1.13-2.28-1.96-3.75-2.46-1.47-.64-3.11-.97-4.99-.97s-3.48,.33-4.96,.97c-1.56,.5-2.77,1.33-3.75,2.46-.98,.97-1.72,2.12-2.29,3.59-.48,1.63-.73,3.27-.73,5.22,0,1.8,.25,3.27,.73,4.71,.49,1.47,1.23,2.94,2.22,3.92,.98,1.15,2.09,1.96,3.66,2.43,1.46,.69,3.18,1.02,5.12,1.02,1.8,0,3.45-.33,4.91-.83,1.47-.49,2.69-1.47,3.66-2.62,1.05-.98,1.81-2.12,2.27-3.75,.65-1.46,.82-3.08,.82-4.88,0-1.95-.17-3.59-.82-5.22-.47-1.47-1.13-2.62-2.11-3.59h0Z"/><polyline class="cls-2" points="405.41 112.96 402.2 112.96 402.2 136.45 417.39 136.45 417.39 133.84 405.41 133.84 405.41 112.96"/><path class="cls-2" d="M446.72,128.43c-.39,1.14-.88,2.12-1.54,3.09-.74,.82-1.56,1.48-2.69,1.99-1.06,.46-2.39,.81-3.75,.81s-2.69-.35-3.69-.81c-1.05-.5-1.94-1.17-2.68-1.99-.71-.81-1.22-1.95-1.63-3.09-.32-1.13-.54-2.45-.54-3.74,0-1.63,.22-2.92,.54-4.09,.4-1.13,.91-2.1,1.63-2.94,.74-.82,1.54-1.47,2.68-1.79,.99-.47,2.31-.84,3.69-.84s2.61,.36,3.67,.84c.99,.32,1.96,.97,2.63,1.79,.71,.84,1.22,1.8,1.54,2.94,.41,1.16,.64,2.46,.64,4.09,0,1.29-.23,2.61-.5,3.74h0Zm.66-12.55c-.97-1.13-2.2-1.96-3.68-2.46-1.46-.64-3.09-.97-4.96-.97s-3.58,.33-4.96,.97c-1.58,.5-2.79,1.33-3.77,2.46-.97,.97-1.71,2.12-2.2,3.59-.56,1.63-.82,3.27-.82,5.22,0,1.8,.26,3.27,.72,4.71,.5,1.47,1.23,2.94,2.22,3.92,.97,1.15,2.2,1.96,3.66,2.43,1.45,.69,3.19,1.02,5.13,1.02,1.79,0,3.43-.33,4.96-.83,1.4-.49,2.63-1.47,3.59-2.62,.98-.98,1.78-2.12,2.3-3.75,.63-1.46,.9-3.08,.9-4.88,0-1.95-.27-3.59-.82-5.22-.48-1.47-1.32-2.62-2.29-3.59h0Z"/><path class="cls-2" d="M473.06,127.46h7.1v4.23c-.41,.16-.71,.66-1.23,.81-.49,.36-1.05,.67-1.62,.82-.65,.31-1.38,.51-2.12,.64-.81,.19-1.72,.35-2.62,.35-1.47,0-2.69-.35-3.74-.81-1.15-.5-1.97-1.17-2.68-1.99-.67-.81-1.31-1.95-1.72-3.09-.32-1.13-.49-2.45-.49-3.74,0-1.63,.17-2.92,.49-4.09,.33-1.13,.89-2.1,1.53-2.94,.75-.82,1.57-1.47,2.7-1.79,.99-.47,2.3-.84,3.68-.84,.97,0,1.88,.19,2.59,.36,.83,.3,1.4,.47,2.06,.8,.56,.33,1.04,.64,1.54,1.15,.33,.5,.65,.95,.97,1.64l3.1-.98c-.49-.84-.9-1.47-1.45-2.12-.57-.84-1.23-1.29-2.03-1.78-.84-.68-1.81-1.01-2.88-1.14-1.05-.18-2.44-.51-3.82-.51-1.96,0-3.59,.33-5.06,.97-1.47,.5-2.79,1.33-3.77,2.46-.96,.97-1.71,2.12-2.2,3.59-.49,1.63-.72,3.27-.72,5.22,0,1.8,.23,3.27,.72,4.71,.49,1.47,1.24,2.94,2.2,3.92,.97,1.15,2.29,1.96,3.77,2.43,1.47,.69,3.17,1.02,5.2,1.02,1.23,0,2.36,0,3.36-.33,1.06-.16,1.95-.5,2.93-.83,.82-.33,1.62-.82,2.36-1.3,.72-.48,1.38-.99,1.87-1.46v-8.16h-10.03v2.77"/><rect x="495.67" y="112.96" width="3.25" height="23.49"/><polyline class="cls-2" points="514.9 125.66 528.6 125.66 528.6 123.07 514.9 123.07 514.9 115.55 529.58 115.55 529.58 112.96 511.72 112.96 511.72 136.45 530.3 136.45 530.3 133.84 514.9 133.84 514.9 125.66"/><path class="cls-2" d="M558.61,126.16c-.42-.65-.89-.98-1.48-1.32-.57-.34-1.14-.62-1.88-.82-.64-.31-1.3-.46-2.04-.64-.65-.19-1.46-.31-2.19-.64-.8,0-1.71-.33-2.53-.49-.75-.15-1.45-.48-2.12-.67-.56-.33-1.06-.82-1.48-.98-.23-.67-.47-1.13-.47-1.95,0-.65,.08-.99,.34-1.49,.13-.46,.48-.78,.96-1.1,.48-.36,1.06-.66,1.79-.83,.76-.19,1.73-.35,2.71-.35s1.88,0,2.43,.15c.72,.36,1.3,.5,1.79,.84,.48,.19,.81,.65,1.15,.97,.32,.5,.48,1.16,.67,1.66l3.24-.5c-.32-.99-.64-1.8-1.05-2.29-.49-.82-1.06-1.31-1.79-1.98-.66-.31-1.55-.64-2.61-.77-.99-.18-2.29-.51-3.77-.51-1.22,0-2.43,.33-3.5,.51-1.13,.13-2.02,.46-2.94,.96-.73,.67-1.4,1.12-1.88,1.96-.4,.83-.57,1.79-.57,2.94,0,.65,0,1.44,.24,1.94,.26,.82,.56,1.14,1,1.64,.4,.47,.81,.98,1.37,1.31,.49,.31,1.13,.5,1.64,.79,.64,.19,1.31,.34,1.95,.67,.73,0,1.37,.33,2.02,.33,1.07,.31,2.04,.65,2.94,.79,.81,.37,1.64,.52,2.29,.81,.58,.34,1.14,.67,1.46,1.16,.34,.48,.52,1.12,.52,1.79,0,.64-.18,1.45-.52,2.12-.24,.31-.72,.82-1.3,1.13-.57,.31-1.3,.51-2.03,.84-.81,.16-1.63,.16-2.6,.16-1.13,0-2.11,0-2.94-.35-.83-.13-1.47-.46-2.02-.64-.58-.47-1.08-.98-1.4-1.47-.26-.48-.49-1.14-.65-1.78l-3.08,.64c.38,2.15,1.45,3.61,3.08,4.58,1.64,.99,3.92,1.49,6.86,1.49,1.7,0,3.16,0,4.4-.49,1.21-.34,2.22-.83,2.94-1.31,.89-.65,1.46-1.46,1.86-2.3,.41-.82,.58-1.81,.58-2.6,0-.98-.09-1.64-.41-2.43-.18-.52-.57-.96-.98-1.48"/></svg>