<?xml version="1.0" encoding="UTF-8"?><svg id="Livello_1" xmlns="http://www.w3.org/2000/svg" viewBox="0 0 494.82 260"><defs><style>.cls-1{fill:#f2683b;}.cls-2{fill:#293a8f;}</style></defs><path class="cls-1" d="M.42,8.08C1.47,3.89,6.25,.01,10.82,0c3.06,0,5.95,.59,8.75,1.7,6.69,2.64,136.43,54.84,154.81,62.26,1.34,.54,2.7,1.05,4.01,1.65,2.04,.92,3.86,2.18,5.35,3.88,3.34,3.78,3.17,9.12,.89,12.98-1.19,2.01-2.9,3.47-4.91,4.6-2.04,1.15-64.36,13.85-67.67,14.52-2.73,.55-5.24,1.66-7.29,3.63-1.95,1.87-3.11,4.19-3.7,6.77-.66,2.86-1.18,5.76-1.72,8.66-1.54,8.25-10.82,55.14-12.24,59.35-1.3,3.88-4.31,5.9-8.38,6.22-6.62,.52-9.08-1.2-10.97-3.4-1.46-1.71-2.45-3.7-3.27-5.77C57.59,159.74,.96,16.01,.36,14.03c-.78-2.59-.06-5.5,.06-5.95Z"/><g><path class="cls-2" d="M494.57,177.05c-.03-2.95-.02-5.89-.03-8.84,0-3.33-.02-6.66-.58-9.97-1.11-6.52-3.35-12.57-7.2-17.99-5.54-7.8-12.9-13.19-21.74-16.7-7.55-3-15.26-3.59-23.16-1.68-5.12,1.24-9.82,3.43-14.25,6.27-1.09,.7-2.22,1.37-3.39,1.94-1.8,.87-3.66,.84-5.46,0-1-.47-1.96-1.05-2.89-1.65-2.6-1.69-5.3-3.18-8.15-4.39-9.09-3.85-18.33-4.3-27.72-1.22-6.38,2.09-12.02,5.44-17.09,9.83-6.79,5.88-11.22,13.18-13.26,21.93-1.02,4.35-1.32,8.77-1.32,13.23,0,23.58,0,47.16,0,70.74,0,2.51-.06,5.03,.06,7.53,.18,3.82,1.58,7.12,4.42,9.77,3.69,3.43,8.01,4.63,12.97,3.78,6.62-1.14,11.19-5.9,11.89-12.58,.19-1.77,.21-3.57,.21-5.35,.01-23.43,0-46.87,.02-70.3,0-2.02,.1-4.06,.28-6.07,.74-8.19,8.26-14.49,17.45-12.38,5.45,1.25,9.02,4.58,10.47,10.07,.51,1.93,.72,3.89,.74,5.88,.03,4.15,.04,8.31,.04,12.46,0,14.74,.01,29.47,0,44.21,0,5.65-.11,11.3-.08,16.95,0,1.92,.12,3.87,.45,5.76,.83,4.76,3.48,8.19,7.93,10.16,.92,.41,1.88,.78,2.86,1.02,7.1,1.77,13.51-1.5,16.43-7.63,1.17-2.45,1.56-5.04,1.56-7.74,0-17.92,.04-35.85,.07-53.77,0-6.91-.02-13.82,.02-20.73,.01-1.63,.12-3.29,.43-4.89,1.5-7.9,7.45-12.53,15.07-12.13,4.8,.25,8.48,2.42,10.96,6.53,1.71,2.84,2.42,5.97,2.42,9.27,0,7.83,0,15.65,0,23.48,0,16.52-.04,33.05,0,49.57,0,2.31,.18,4.64,.57,6.92,.71,4.17,2.83,7.48,6.65,9.49,3.94,2.08,8.11,2.4,12.38,1.28,5.02-1.32,9.97-6.44,9.94-13.14-.03-6.23,.01-12.47,.04-18.7,0-.44,.16-.88,.25-1.33v-47.55c-.09-.45-.25-.9-.25-1.35Z"/><path class="cls-2" d="M321.32,132.2c-.48-.41-.97-.8-1.39-1.27-.78-.86-1.04-1.84-.51-2.94,.29-.61,.61-1.2,.95-1.79,3.36-5.86,6.75-11.71,10.09-17.59,.59-1.04,1.12-2.15,1.45-3.3,.29-1,.47-2.11,.36-3.13-.27-2.35-1.67-3.98-3.87-4.83-2.32-.89-4.47-.47-6.36,1.13-1.2,1.01-2.07,2.29-2.85,3.63-1.96,3.38-3.94,6.76-5.89,10.15-1.76,3.06-3.47,6.14-5.23,9.19-.96,1.67-1.71,1.85-3.46,1.13-1.06-.44-2.19-.71-3.3-1.02-.6-.17-1.23-.25-1.83-.44-1.56-.49-2.39-1.58-2.45-3.21-.03-.77-.03-1.55,.02-2.32,.42-6.66,.08-13.33-.03-19.99-.03-1.8-.64-3.39-1.73-4.82-2.17-2.87-7.8-3-9.9,.49-.87,1.45-1.36,2.99-1.36,4.67-.02,5.99-.01,11.98-.01,17.97,0,1.06,.05,2.13,0,3.19-.11,2.22-1.11,3.31-3.29,3.75-1.42,.29-2.83,.62-4.24,.91-.47,.1-.96,.13-1.44,.16-1.21,.07-2.18-.41-2.86-1.39-.47-.67-.86-1.4-1.21-2.14-2.93-6.22-6.59-12.02-10.13-17.89-.76-1.25-1.79-2.29-3.13-2.94-2.13-1.03-4.23-.93-6.2,.38-1.96,1.31-3,3.17-2.62,5.56,.19,1.17,.53,2.37,1.06,3.43,2.84,5.65,5.86,11.21,9.3,16.53,.37,.57,.72,1.15,1.02,1.75,.93,1.88,.73,3.21-.71,4.75-.49,.53-1.05,.99-1.6,1.47-.8,.7-1.63,1.37-2.41,2.09-12.17,11.1-17.46,24.9-16.3,41.28,.23,3.22,.4,6.46,.4,9.69,0,20.49-.05,40.97-.13,61.46-.01,2.93,.84,5.53,2.58,7.82,3.49,4.6,8.18,6.65,13.91,6.16,6.06-.52,10.03-3.87,12.21-9.45,.76-1.96,.94-4.03,.94-6.12,0-6.96,0-13.91,0-20.87v-2.91c.45,.39,.63,.53,.8,.69,10.62,10.63,21.23,21.27,31.86,31.9,1.06,1.06,2.16,2.09,3.33,3.02,3.08,2.45,6.56,3.72,10.56,3.74,7.44,.03,15.48-6.73,13.97-16.76-.58-3.86-2.4-7.09-5.11-9.86-4.99-5.12-9.97-10.25-14.94-15.39-.38-.39-.91-.71-1.03-1.39,.72-.36,1.41-.7,2.1-1.05,7.29-3.74,13.5-8.75,18.41-15.36,5.72-7.71,9.22-16.26,9.89-25.88,.44-6.32-.31-12.54-2.1-18.61-2.77-9.41-8.16-17.1-15.59-23.41Zm-14.37,46.21c-2.93,5.53-7.25,9.36-13.53,10.57-6.25,1.21-11.89-.16-16.73-4.38-3.63-3.17-6.16-7.01-7.02-11.84-.06-.33-.13-.66-.15-1-.05-.67-.08-1.35-.11-2.02,.08-9.44,6.88-17.34,16.18-18.93,10.13-1.73,20.72,4.78,22.98,15.8,.84,4.11,.36,8.08-1.61,11.8Z"/><path class="cls-2" d="M216.81,188.06c-8.16-8.24-18-12.64-29.65-12.76-3.57-.04-7.15,.16-10.72,.12-2.12-.03-4.27-.12-6.34-.54-7.5-1.52-10.8-8.23-9.64-13.88,1.1-5.34,4.64-9.17,9.93-10.28,1.36-.29,2.78-.38,4.17-.38,11.89-.03,37.3,0,38.12-.07,4.96-.4,8.81-2.62,11.35-6.97,1.96-3.35,2.23-6.93,1.39-10.64-1.53-6.78-7.52-11.32-13.62-11.4-1.98-.03-3.96-.05-5.94-.05-5.07,0-10.14,0-15.21,0v-.12c-5.17,0-10.34,.02-15.5,0-4.21-.02-8.41,.13-12.5,1.26-13.08,3.6-22.48,11.58-28.28,23.83-4.32,9.11-5.07,18.52-2.28,28.2,2.51,8.7,7.61,15.64,14.71,21.16,6.45,5.02,13.74,8.01,21.89,8.69,3.27,.27,6.56,.19,9.84,.28,3.33,.09,6.68-.01,9.98,.32,6.61,.67,11.58,6.44,11.33,13.02-.16,4.37-2.3,9.26-8.22,11.56-2.43,.95-4.96,1.16-7.54,1.16-11.55,0-23.1,0-34.64,0-.68,0-1.36-.03-2.03,.04-5.25,.49-9.37,2.81-12.01,7.49-1.55,2.75-1.96,5.72-1.64,8.82,.38,3.67,1.87,6.76,4.66,9.19,2.95,2.57,6.43,3.58,10.29,3.57,7.34,0,14.69,.05,22.03,.06,4.93,.01,9.86,.01,14.78,0,4.91-.01,9.72-.63,14.4-2.17,18.25-6,31.62-23.76,28.72-45.06-1.29-9.45-5.15-17.64-11.87-24.43Z"/></g></svg>