<?xml version="1.0" encoding="UTF-8"?>
<svg id="Livello_1" data-name="Livello 1" xmlns="http://www.w3.org/2000/svg" viewBox="0 0 560 120.29">
  <path d="M246.37,.42c-16.89,1.73-32.69,8.98-44.76,20.4-9.53,9.09-15.86,19.43-19.32,31.5l-1.03,3.79h43.13l1.68-3.46c4.71-9.53,16.02-15.53,26.03-13.85,8.01,1.35,13.48,6.98,14.83,15.32l.32,2,21.49-.11,21.49-.16,.16-4.06c.65-15.48-6.01-30.31-17.7-39.62-11.58-9.25-28.68-13.58-46.33-11.74Z"/>
  <path d="M35.62,6.96c-2,6.12-14.61,45.57-15.21,47.63l-.49,1.52H157.88v-8.82c0-4.82-.16-16.99-.38-27.06l-.32-18.24h-42.92l-.97,2c-2.49,5.09-22.19,47.25-23.11,49.36-.6,1.3-1.14,2.27-1.24,2.16-.16-.11-1.84-11.53-3.84-25.38-1.95-13.85-3.68-25.82-3.84-26.68l-.32-1.46H37.3l-1.68,4.98Z"/>
  <path d="M337.83,3.72c-.16,.97-2,12.61-4.06,25.87-2.11,13.26-3.9,24.63-4.06,25.27l-.27,1.24h84.32l2.65-2c5.09-3.84,8.44-8.66,10.5-14.88,1.08-3.36,1.3-4.98,1.3-10.99,0-8.93-1.03-11.74-5.68-16.56-4.76-4.87-11.91-7.79-22.24-9.15-2.22-.27-17.1-.54-33.07-.54h-29.06l-.32,1.73Zm48.22,27.6c2.22,1.19,3.14,3.52,2.71,6.6-.87,5.74-4.76,8.33-13.1,8.82l-5.25,.32,.32-2.11c.22-1.14,.81-4.98,1.3-8.55l.92-6.39,5.74,.22c3.9,.16,6.22,.49,7.36,1.08Z"/>
  <path d="M486.5,9.13c-4.33,8.17-23.38,46.27-23.38,46.71,0,.16,10.34,.27,23,.27,21.54,0,23,.05,23.06,.92,0,.54,1.41,14.61,3.08,31.28l3.08,30.31,22.35,.16c20.73,.11,22.3,.05,22.3-.81,0-.76-8.28-42.97-20.3-103.48-1.35-6.71-2.44-12.23-2.44-12.34s-10.55-.16-23.49-.16h-23.49l-3.79,7.14Z"/>
  <path d="M16.46,67.31c-.22,.16-.38,.54-.38,.81,0,.22,8.93,.38,19.86,.32,15.26-.11,19.86-.32,20.08-.87,.16-.49-4-.65-19.48-.65-10.88,0-19.92,.16-20.08,.38Z"/>
  <path d="M58.84,67.74c0,.7,3.41,.81,28.52,.7,22.19-.11,28.52-.32,28.74-.87,.16-.49-5.79-.65-28.52-.65-25.27,0-28.74,.11-28.74,.81Z"/>
  <path d="M119.46,67.74c0,.7,2.49,.81,19.21,.81s19.21-.11,19.21-.81-2.49-.81-19.21-.81-19.21,.11-19.21,.81Z"/>
  <path d="M179.53,67.74c0,.7,2.71,.81,21.97,.81,17.32,0,21.92-.16,21.76-.7-.22-.49-5.2-.7-21.97-.81-19.1-.11-21.76,0-21.76,.7Z"/>
  <path d="M264.82,67.74c-.27,.7,2.33,.81,21.27,.81s21.65-.11,21.92-.81-2.33-.81-21.27-.81-21.65,.11-21.92,.81Z"/>
  <path d="M327.82,67.74c0,.7,5.52,.81,47.14,.81,37.45,0,47.09-.16,46.92-.7-.22-.49-10.23-.7-47.14-.81-41.51-.11-46.92,0-46.92,.7Z"/>
  <path d="M456.95,67.74c-.27,.7,2.33,.81,21.32,.81s21.65-.11,21.65-.81-2.71-.81-21.32-.81-21.38,.11-21.65,.81Z"/>
  <path d="M12.84,78.62c-.32,.76-.54,1.62-.54,1.89s7.96,.49,20.02,.49c15.64,0,20.02-.16,20.02-.7,0-.32,.16-1.19,.32-1.89l.32-1.19H13.38l-.54,1.41Z"/>
  <path d="M60.36,79.11l.22,1.89h49.09l.87-1.62c.43-.87,.81-1.68,.81-1.89,0-.16-11.53-.27-25.6-.27h-25.6l.22,1.89Z"/>
  <path d="M118.91,79.22v2.06l19.48-.16,19.48-.11v-3.79h-38.97v2Z"/>
  <path d="M180.07,77.86c0,.38,.16,1.24,.32,1.89l.32,1.24h49.85l-2.11-1.89-2.11-1.84-23.11-.05c-18.18,0-23.16,.16-23.16,.65Z"/>
  <path d="M255.57,79.16l-2.71,1.84h50.01l.87-1.62c.43-.87,.81-1.68,.81-1.89,0-.16-10.39-.27-23.11-.22h-23.16l-2.71,1.89Z"/>
  <path d="M326.2,78.24c0,.6-.16,1.41-.32,1.89-.32,.76,1.62,.87,19.48,.87,19.16,0,19.81-.05,19.81-1.03,0-.6,.16-1.41,.32-1.89,.32-.76-1.62-.87-19.48-.87-19.16,0-19.81,.05-19.81,1.03Z"/>
  <path d="M386.98,79.11l.05,1.89,19.38,.11,19.43,.16-.16-1.89-.16-1.89-19.32-.16-19.27-.11,.05,1.89Z"/>
  <path d="M451.05,79.11l-.92,1.89h50.87v-3.79h-49.03l-.92,1.89Z"/>
  <path d="M8.94,90.31l-.81,2.87,20.02,.16c11.04,.05,20.08,.05,20.19,0,.05-.11,.49-1.46,.92-3.03l.87-2.81H9.75l-.81,2.81Z"/>
  <path d="M61.87,89.23c.16,.97,.38,2.33,.54,2.98l.22,1.24h40.92l1.46-2.98,1.46-2.98H61.6l.27,1.73Z"/>
  <path d="M118.37,90.47v2.98h39.51v-5.95h-39.51v2.98Z"/>
  <path d="M182.56,88.69c.16,.65,.7,1.95,1.08,2.98l.76,1.79h110.73l2-2.65c1.08-1.41,2-2.76,2-2.98,0-.16-26.3-.32-58.5-.32h-58.45l.38,1.19Z"/>
  <path d="M324.3,90.47c-.22,1.68-.32,3.08-.22,3.14s22.57,.05,49.85-.05l49.68-.16,.81-2.76c.43-1.57,.81-2.87,.81-2.98s-9.36-.16-20.78-.16h-20.78l-2.87,1.46c-2.6,1.35-3.46,1.52-10.07,1.68l-7.2,.22,.32-1.68,.38-1.68h-39.62l-.32,2.98Z"/>
  <path d="M445.26,90.31c-.87,1.57-1.62,3.03-1.62,3.25,0,.27,13.31,.43,29.55,.43h29.6l-.38-1.68c-.16-.92-.32-2.38-.32-3.25v-1.57h-55.2l-1.62,2.81Z"/>
  <path d="M3.42,107.58C1.74,112.93,.17,117.7,.01,118.13c-.22,.65,2.6,.76,20.35,.76h20.57l1.14-3.95c.65-2.11,2-6.71,3.03-10.17,1.03-3.46,1.84-6.44,1.84-6.66,0-.16-9.09-.32-20.19-.32H6.56l-3.14,9.8Z"/>
  <path d="M63.17,98.16c.05,.27,.7,4.93,1.52,10.45l1.52,10.01h24.84l4.98-10.01c2.71-5.52,4.98-10.17,4.98-10.45,.05-.22-8.44-.38-18.89-.38s-18.94,.16-18.94,.38Z"/>
  <path d="M118.16,98.97c-.16,.7-.43,5.47-.6,10.55l-.32,9.36h40.64v-21.11h-39.51l-.22,1.19Z"/>
  <path d="M188.84,100.27c2.71,3.84,9.09,9.58,13.31,12.07,4.6,2.76,12.45,5.63,18.83,6.93,7.41,1.46,24.08,1.35,31.44-.27,10.17-2.22,17.86-5.47,26.68-11.26,4.22-2.76,11.37-8.71,11.37-9.42,0-.32-19.38-.54-51.74-.54h-51.69l1.79,2.49Z"/>
  <path d="M321.65,106.82c-.81,5.03-1.62,9.74-1.79,10.55l-.27,1.52h31.39c32.42,0,39.72-.32,46.54-2.16,9.69-2.65,18.4-9.36,23.6-18.29,.32-.49-9.58-.65-48.82-.65h-49.14l-1.52,9.04Z"/>
  <path d="M436.6,107.85c-2.81,5.52-5.2,10.28-5.3,10.55s9.15,.49,22.24,.49h22.46l2.92-7.31,2.87-7.31h22.03l-.32-1.24c-.16-.65-.32-2.11-.32-3.25v-2h-61.48l-5.09,10.07Z"/>
</svg>