<?xml version="1.0" encoding="UTF-8"?><svg id="logo_UDGAlliance" xmlns="http://www.w3.org/2000/svg" xmlns:xlink="http://www.w3.org/1999/xlink" viewBox="0 0 456.87 290"><defs><style>.cls-1{fill:none;}.cls-2{fill:url(#linear-gradient);}.cls-3{clip-path:url(#clippath);}.cls-4{fill:#66f;}.cls-5{clip-path:url(#clippath-1);}.cls-6{clip-path:url(#clippath-2);}.cls-7{fill:url(#linear-gradient-3);}.cls-8{fill:url(#linear-gradient-2);}</style><clipPath id="clippath"><path class="cls-1" d="M395.29,0c-23.62,0-65.56,5.78-82.92,45.73,4.85,12.26,7.3,26.55,7.3,42.81v1.01c0,16.27-2.45,30.55-7.3,42.81,17.36,39.95,59.3,45.73,82.92,45.73h61.58V98.36h-49.3v30.45h-12.29c-44.54,0-51.67-25.51-51.67-39.25,0-.17-.01-.34-.02-.5,.01-.17,.02-.33,.02-.5,0-13.74,7.14-39.25,51.67-39.25h61.58V0h-61.58Z"/></clipPath><linearGradient id="linear-gradient" x1="-730.05" y1="686.4" x2="-729.75" y2="686.4" gradientTransform="translate(1114878.93 1048303.81) scale(1527.12 -1527.12)" gradientUnits="userSpaceOnUse"><stop offset="0" stop-color="#d7d800"/><stop offset="0" stop-color="#d6d700"/><stop offset=".03" stop-color="#ccd403"/><stop offset=".07" stop-color="#c9d304"/><stop offset=".13" stop-color="#a2c635"/><stop offset=".17" stop-color="#89bf56"/><stop offset=".2" stop-color="#80bc63"/><stop offset=".33" stop-color="#6ec7e0"/><stop offset=".44" stop-color="#6ec7e0"/><stop offset=".46" stop-color="#74bedb"/><stop offset=".58" stop-color="#9790bf"/><stop offset=".65" stop-color="#a57eb5"/><stop offset=".68" stop-color="#ab7db3"/><stop offset=".73" stop-color="#bc7bb0"/><stop offset=".79" stop-color="#d978ab"/><stop offset=".82" stop-color="#ec76a8"/><stop offset=".94" stop-color="#f4a61f"/><stop offset=".94" stop-color="#f4a91e"/><stop offset=".97" stop-color="#f7b31c"/><stop offset="1" stop-color="#f8b71c"/></linearGradient><clipPath id="clippath-1"><path class="cls-1" d="M188.28,0V49.29h34.25c44.54,0,51.67,25.51,51.67,39.25,0,.17,.01,.34,.02,.5-.01,.17-.02,.33-.02,.5,0,13.74-7.14,39.25-51.67,39.25h-40.82c-2.25,6.38-5.2,12.72-9.09,18.72-9.32,14.38-22.35,24.59-38.95,30.58h88.85c30.32,0,90.79-9.52,90.79-88.54v-1.01C313.32,9.52,252.85,0,222.53,0h-34.25Z"/></clipPath><linearGradient id="linear-gradient-2" x1="-730.05" y1="686.4" x2="-729.75" y2="686.4" gradientTransform="translate(1114874.9 1048301.41) scale(1527.12 -1527.12)" xlink:href="#linear-gradient"/><clipPath id="clippath-2"><path class="cls-1" d="M132.64,0V87.31c0,44.54-25.51,51.67-39.25,51.67h-1.01c-13.74,0-39.25-7.14-39.25-51.67V0H3.84V87.38c.02,30.34,9.58,90.71,88.54,90.71h1.01c79.03,0,88.54-60.47,88.54-90.79V0h-49.29Z"/></clipPath><linearGradient id="linear-gradient-3" x1="-730.05" y1="686.4" x2="-729.75" y2="686.4" gradientTransform="translate(1114871.85 1048298.78) scale(1527.11 -1527.11)" xlink:href="#linear-gradient"/></defs><g class="cls-3"><rect class="cls-2" x="312.37" width="144.51" height="178.1"/></g><g class="cls-5"><rect class="cls-8" x="133.68" width="179.64" height="178.1"/></g><g class="cls-6"><rect class="cls-7" x="3.84" width="178.09" height="178.1"/></g><g><path class="cls-4" d="M24.7,262.67l-7.74,25.84H0l28.84-91.19h20.96l29.24,91.19h-17.62l-8.14-25.84H24.7Zm25.76-12.58l-7.08-22.46c-1.74-5.55-3.2-11.77-4.54-17.05h-.27c-1.33,5.28-2.67,11.64-4.27,17.05l-6.94,22.46h23.09Z"/><path class="cls-4" d="M90.91,192.45h16.55v96.06h-16.55v-96.06Z"/><path class="cls-4" d="M125.22,192.45h16.55v96.06h-16.55v-96.06Z"/><path class="cls-4" d="M177.01,204.22c0,5.01-3.6,8.93-9.34,8.93s-9.08-3.92-9.08-8.93,3.74-9.06,9.21-9.06,9.08,3.92,9.21,9.06Zm-17.49,84.29v-65.89h16.55v65.89h-16.55Z"/><path class="cls-4" d="M230.28,288.51l-1.07-7.31h-.4c-4,5.14-10.81,8.79-19.22,8.79-13.08,0-20.42-9.61-20.42-19.62,0-16.64,14.55-25.03,38.58-24.89v-1.08c0-4.33-1.74-11.5-13.22-11.5-6.41,0-13.08,2.03-17.49,4.87l-3.2-10.82c4.81-2.98,13.22-5.82,23.5-5.82,20.83,0,26.83,13.39,26.83,27.74v23.81c0,5.95,.27,11.77,.93,15.83h-14.82Zm-2.14-32.2c-11.61-.27-22.69,2.3-22.69,12.31,0,6.49,4.14,9.47,9.34,9.47,6.54,0,11.35-4.33,12.82-9.06,.4-1.22,.53-2.57,.53-3.65v-9.06Z"/><path class="cls-4" d="M261.51,242.24c0-7.58-.13-13.94-.53-19.62h14.42l.8,9.88h.4c2.8-5.14,9.88-11.37,20.69-11.37,11.35,0,23.09,7.44,23.09,28.28v39.1h-16.42v-37.21c0-9.47-3.47-16.64-12.42-16.64-6.54,0-11.08,4.74-12.82,9.74-.53,1.49-.67,3.52-.67,5.41v38.69h-16.55v-46.27Z"/><path class="cls-4" d="M385.66,286.48c-3.47,1.62-10.28,3.38-18.42,3.38-20.29,0-33.51-13.12-33.51-33.55s13.35-35.18,36.18-35.18c6.01,0,12.15,1.35,15.89,3.11l-2.94,12.45c-2.67-1.22-6.54-2.57-12.42-2.57-12.55,0-20.02,9.34-19.89,21.38,0,13.53,8.68,21.24,19.89,21.24,5.74,0,9.75-1.22,12.95-2.57l2.27,12.31Z"/><path class="cls-4" d="M409.43,260.23c.4,11.91,9.61,17.05,20.02,17.05,7.61,0,13.08-1.08,18.02-2.98l2.4,11.5c-5.61,2.3-13.35,4.06-22.69,4.06-21.09,0-33.51-13.12-33.51-33.28,0-18.27,10.95-35.45,31.77-35.45s28.03,17.59,28.03,32.07c0,3.11-.27,5.55-.53,7.04h-43.52Zm28.57-11.64c.13-6.09-2.54-16.1-13.48-16.1-10.15,0-14.42,9.34-15.09,16.1h28.57Z"/></g></svg>