<?xml version="1.0" encoding="UTF-8"?><svg id="logo_OutBarriers" xmlns="http://www.w3.org/2000/svg" viewBox="0 0 445.04 260"><defs><style>.cls-1{fill:#42428f;}</style></defs><g><path class="cls-1" d="M301.93,94.98c0,49.41-26.85,75.08-67,75.08s-66.78-25.67-66.78-73.63V.17h18.13V95.22c0,36.57,18.36,57.16,49.11,57.16s48.42-18.89,48.42-55.95V.17h18.13V94.98Z"/><path class="cls-1" d="M390.43,169.53h-19.38V17.68h-54.61V0h128.59V17.68h-54.61V169.53Z"/><g><path class="cls-1" d="M78.2,168.97C31.41,168.97,0,130.12,0,85S31.85,.57,78.64,.57s78.2,38.84,78.2,83.97-31.85,84.43-78.64,84.43Zm0-151.42c-35.15,0-60.19,29.77-60.19,66.99s25.48,67.45,60.63,67.45,60.19-29.77,60.19-66.99S113.35,17.55,78.2,17.55Z"/><ellipse class="cls-1" cx="78.42" cy="84.77" rx="27.11" ry="16.41"/></g></g><g><path class="cls-1" d="M42.07,259.14H13.27v-60.54h28.11c12.37,0,19.98,6.14,19.98,15.65v.17c0,6.83-3.63,10.64-7.96,13.06,7.01,2.68,11.33,6.75,11.33,14.88v.17c0,11.07-9,16.61-22.66,16.61Zm6.05-42.64c0-3.98-3.11-6.23-8.74-6.23h-13.15v12.8h12.28c5.88,0,9.6-1.9,9.6-6.4v-.17Zm3.37,24.22c0-4.06-3.03-6.57-9.86-6.57h-15.4v13.32h15.83c5.88,0,9.43-2.08,9.43-6.57v-.17Z"/><path class="cls-1" d="M172.16,259.14l-12.97-19.37h-10.47v19.37h-13.32v-60.54h27.68c14.27,0,22.83,7.53,22.83,19.98v.17c0,9.77-5.28,15.91-12.97,18.77l14.79,21.62h-15.57Zm.26-39.87c0-5.71-3.98-8.65-10.47-8.65h-13.23v17.38h13.49c6.49,0,10.21-3.46,10.21-8.56v-.17Z"/><path class="cls-1" d="M230.37,259.14l-12.97-19.37h-10.47v19.37h-13.32v-60.54h27.68c14.27,0,22.83,7.53,22.83,19.98v.17c0,9.77-5.28,15.91-12.97,18.77l14.79,21.62h-15.57Zm.26-39.87c0-5.71-3.98-8.65-10.47-8.65h-13.23v17.38h13.49c6.49,0,10.21-3.46,10.21-8.56v-.17Z"/><path class="cls-1" d="M252.42,259.14v-60.54h13.32v60.54h-13.32Z"/><path class="cls-1" d="M276.56,259.14v-60.54h45.67v11.85h-32.43v12.28h28.54v11.85h-28.54v12.71h32.87v11.85h-46.1Z"/><path class="cls-1" d="M366.94,259.14l-12.97-19.37h-10.47v19.37h-13.32v-60.54h27.68c14.27,0,22.83,7.53,22.83,19.98v.17c0,9.77-5.28,15.91-12.97,18.77l14.79,21.62h-15.57Zm.26-39.87c0-5.71-3.98-8.65-10.47-8.65h-13.23v17.38h13.49c6.49,0,10.21-3.46,10.21-8.56v-.17Z"/><path class="cls-1" d="M409.93,260c-9.17,0-18.42-3.2-25.69-9.69l7.87-9.43c5.45,4.5,11.16,7.35,18.08,7.35,5.45,0,8.74-2.16,8.74-5.71v-.17c0-3.37-2.08-5.1-12.2-7.7-12.19-3.11-20.07-6.49-20.07-18.51v-.17c0-10.98,8.82-18.25,21.19-18.25,8.82,0,16.35,2.77,22.49,7.7l-6.92,10.03c-5.36-3.72-10.64-5.97-15.74-5.97s-7.78,2.33-7.78,5.28v.17c0,3.98,2.59,5.28,13.06,7.96,12.28,3.2,19.2,7.61,19.2,18.16v.17c0,12.02-9.17,18.77-22.23,18.77Z"/><polygon class="cls-1" points="96.37 198.59 64.28 259.14 77.86 259.14 96.37 223.26 114.88 259.14 128.45 259.14 96.37 198.59"/></g></svg>