<?xml version="1.0" encoding="UTF-8"?><svg id="logo_Libelium" xmlns="http://www.w3.org/2000/svg" viewBox="0 0 560 113.18"><defs><style>.cls-1{fill:#e72f35;}.cls-2{fill:#931826;}.cls-3{fill:#76151b;}</style></defs><rect class="cls-2" x="200.59" y="21.82" width="11.08" height="71.25"/><g><path class="cls-2" d="M223.35,27.06c0-4.06,3.07-7.03,7.03-7.03s7.13,2.97,7.13,7.03-3.07,7.03-7.13,7.03-7.03-3.07-7.03-7.03m1.49,15.54h11.08v50.47h-11.08V42.6Z"/><path class="cls-2" d="M363.63,72.09h-41.76c1.58,7.32,7.52,12.17,15.14,12.17,6.43,0,11.68-2.97,13.85-7.22h12.07c-3.66,10.19-13.55,17.22-26.03,17.22-15.33,0-26.91-11.38-26.91-26.42s11.58-26.43,26.91-26.43,27.02,11.38,27.02,26.52c0,1.09-.1,2.97-.3,4.16m-41.66-9.11h29.98c-1.78-6.93-7.72-11.58-15.05-11.58s-13.06,4.65-14.94,11.58"/><rect class="cls-2" x="373.67" y="21.82" width="11.08" height="71.25"/><path class="cls-2" d="M396.44,27.06c0-4.06,3.07-7.03,7.03-7.03s7.13,2.97,7.13,7.03-3.07,7.03-7.13,7.03-7.03-3.07-7.03-7.03m1.49,15.54h11.08v50.47h-11.08V42.6Z"/><path class="cls-2" d="M276.41,41.41c-5.32,0-10.25,1.58-14.4,4.28V21.82h-12.01v45.78c0,.08-.01,.16-.01,.24,0,14.59,11.83,26.42,26.42,26.42s26.42-11.83,26.42-26.42-11.83-26.42-26.42-26.42m0,41.55c-7.95,0-15.11-7.17-15.11-15.13s7.15-15.08,15.11-15.08,15.09,7.13,15.09,15.08-7.14,15.13-15.09,15.13"/><path class="cls-2" d="M468,42.6h-11.09l.06,28.73c0,6.74-5.47,12.21-12.21,12.21s-12.21-5.47-12.21-12.21h.01v-28.73h-11.08v29.26s.02,0,.03,0c.28,12.61,10.57,22.75,23.25,22.75s23.28-10.42,23.28-23.28l-.04-28.73Z"/><path class="cls-2" d="M559.97,63.89c-.28-12.61-10.57-22.75-23.25-22.75-7.11,0-13.47,3.2-17.74,8.22-4.27-5.03-10.62-8.22-17.74-8.22-12.86,0-23.28,10.42-23.28,23.28l.04,28.73h11.09l-.06-28.73c0-6.74,5.47-12.21,12.21-12.21s12.2,5.47,12.2,12.21v28.73h11.13l-.05-23.09v-5.88c.13-6.63,5.54-11.96,12.2-11.96s12.2,5.47,12.2,12.21v28.73h11.08v-29.26s-.02,0-.03,0"/><path class="cls-1" d="M85.2,20.85c17.34,27.59,48.88,35.71,65.54,35.74,11.01,.02,22.5-5.39,13.12-13.8-2.74-2.52-6.05-4.86-9.74-7.01-12.54,3.26-49.16,6.82-68.92-14.93"/><path class="cls-2" d="M165.57,17.83c-18.85-9.29-41.1-12.12-80.37,3.01,23.24-1.36,50.98,4.48,68.92,14.93,.88-.23,1.65-.46,2.28-.67,10.33-3.57,20.17-12.07,9.18-17.27"/><path class="cls-1" d="M16.28,35.78c-3.7,2.15-7.01,4.49-9.74,7.01-9.38,8.41,2.11,13.82,13.12,13.8,16.67-.03,48.21-8.15,65.54-35.74-19.76,21.75-56.37,18.19-68.91,14.93"/><path class="cls-2" d="M85.2,16.38c4.22,0,7.66-.5,7.66-5.19,0-4.04-5.46-11.18-7.66-11.18s-7.66,7.14-7.66,11.18c0,4.7,3.44,5.19,7.66,5.19"/><path class="cls-2" d="M85.2,20.85c-14.49,23.79-3.23,84.23-1.46,90.86,.35,1.29,.99,1.48,1.46,1.48s1.11-.19,1.45-1.48c1.78-6.63,13.04-67.07-1.45-90.86h0Z"/><path class="cls-3" d="M85.2,20.85h0c19.76,21.75,56.37,18.2,68.92,14.93-17.94-10.45-45.67-16.29-68.92-14.93"/><path class="cls-3" d="M85.2,20.85h0c-23.24-1.36-50.98,4.48-68.91,14.93,12.54,3.26,49.16,6.82,68.91-14.93"/><path class="cls-2" d="M85.2,20.85h0C45.93,5.71,23.67,8.54,4.82,17.83c-10.99,5.21-1.15,13.7,9.18,17.27,.63,.22,1.4,.44,2.28,.67,17.94-10.45,45.67-16.29,68.92-14.93"/></g></svg>