<?xml version="1.0" encoding="UTF-8"?><svg id="logo_FI-Assist" xmlns="http://www.w3.org/2000/svg" viewBox="0 0 464.14 260"><defs><style>.cls-1{fill:#036;}.cls-2{fill:#69c;}.cls-3{fill:#858585;}.cls-4{fill:#3594aa;}</style></defs><g><path class="cls-4" d="M349.37,221.38v-18.36h5.72c3.84,0,6.07-3.22,6.92-6.82,1.16-4.95,2.32-9.91,3.36-14.89,1.95-9.42,3.61-18.91,7.35-27.86,2.35-5.61,11.48-20.36,22.02-20.36,2.58-.19,7.99-.03,7.99-.03v17.4c-14.14,0-17.66,14.81-19.65,33.04-1,9.17-3.1,18.08-7.71,26.22-2.58,4.55-6.05,7.98-10.97,10.14-4.34,1.9-15.03,1.52-15.03,1.52Z"/><path class="cls-4" d="M262.08,221.38v-18.36h5.72c3.84,0,6.07-3.22,6.92-6.82,1.16-4.95,2.32-9.91,3.36-14.89,1.95-9.42,3.61-18.91,7.35-27.86,2.35-5.61,11.48-20.36,22.02-20.36,2.58-.19,7.99-.03,7.99-.03v17.4c-14.14,0-17.66,14.81-19.65,33.04-1,9.17-3.1,18.08-7.71,26.22-2.58,4.55-6.05,7.98-10.97,10.14-4.34,1.9-15.03,1.52-15.03,1.52Z"/><path class="cls-4" d="M206.59,220.9h-16.52v-27.14l-23.03-.19v27.33h-17.57s-.05-41.37,0-60.98c.02-7.72,3.5-13.91,9-19.11,14.95-14.15,37.57-7.75,45.97,8.81,1.5,2.95,2.35,6.1,2.34,9.48-.03,19.95,0,39.91-.01,59.86,0,.67-.19,1.94-.19,1.94Zm-17.12-44.46c.14-.89,.29-1.43,.29-1.98,.01-4.99,.11-9.98-.03-14.97-.17-5.71-5.52-10.15-11.95-10.13-5.71,.02-10.49,4.5-10.64,10.19-.13,4.87-.06,9.75-.02,14.63,0,.74,.28,1.47,.44,2.25h21.92Z"/><polygon class="cls-4" points="446.64 221.44 428.51 221.44 428.51 149.14 411.36 149.14 411.36 132.73 464.14 132.73 464.14 149.14 446.64 149.14 446.64 221.44"/><path class="cls-4" d="M216.53,221.38v-18.36h5.72c3.84,0,6.07-3.22,6.92-6.82,1.16-4.95,2.32-9.91,3.36-14.89,1.95-9.42,3.61-18.91,7.35-27.86,2.35-5.61,11.48-20.36,22.02-20.36,2.58-.19,7.99-.03,7.99-.03v17.4c-14.14,0-17.66,14.81-19.65,33.04-1,9.17-3.1,18.08-7.71,26.22-2.58,4.55-6.05,7.98-10.97,10.14-4.34,1.9-15.03,1.52-15.03,1.52Z"/><rect class="cls-4" x="323.74" y="133.26" width="17.34" height="88.85"/></g><path class="cls-3" d="M51.63,259.8c-6.59-.28-13.17-.82-19.75-1.3-4.11-.3-8.22-.64-12.32-1.07-3.72-.39-6.73-2.25-9-5.15-.83-1.06-1.47-2.45-1.71-3.77-2.07-11.61-4.08-23.23-5.99-34.87-1.34-8.14-2.29-16.34-2.49-24.6-.15-6.19-.48-12.38-.33-18.56,.15-6.01,.75-12.01,1.28-18.01,1.22-13.74,3.88-27.26,6.38-40.81,.27-1.46,.51-2.93,.68-4.4,.65-5.91,4.99-9.49,10.04-10.52,2.82-.57,5.72-.78,8.59-1,9.79-.74,19.57-1.64,29.41-1.64,5.28,0,10.57-.39,15.84-.23,7.75,.24,15.49,.77,23.22,1.25,4.69,.29,9.38,.65,14.06,1.09,4.4,.41,8.19,2.16,10.56,6.03,.92,1.49,1.39,3.35,1.71,5.1,1.86,10.31,3.77,20.61,5.36,30.96,1.03,6.68,1.73,13.42,2.22,20.16,.52,7.15,.91,14.34,.83,21.51-.07,6.92-.73,13.83-1.28,20.73-1.1,13.67-3.85,27.1-6.31,40.56-.37,2.03-.67,4.07-1.05,6.09-1.04,5.44-4.63,9.06-10.15,10.08-2.27,.42-4.57,.68-6.87,.84-5.92,.43-11.85,.85-17.78,1.13-18.23,.85-30.39,.6-35.17,.39Zm-34.45-23.13c31.89,4.6,63.83,4.76,95.83,.21,.18-.51,.36-.89,.43-1.28,1.74-10.24,3.47-20.48,4.69-30.82,1.14-9.69,1.38-19.42,1.71-29.15,.08-2.38-.17-4.78-.32-7.17-.37-6.09-.49-12.22-1.21-18.27-1.06-8.84-2.54-17.63-3.88-26.44-.33-2.18-.82-4.34-1.27-6.65-17.68-2.46-35.27-3.8-52.95-3.41-14.42,.31-28.8,1.5-43.09,3.65-9.01,39.72-8.95,79.3,.06,119.32ZM41.11,104.58c.72,1.63,1.97,1.63,3.24,1.58,4.45-.18,8.9-.53,13.35-.52,8.58,.03,17.16,.26,25.74,.41,1.07,.02,2.32,.1,3.38,.01,1.55-.13,2.17-1.94,1.75-2.8-.46-.95-2.96-1.52-8.41-1.52-9.41-.04-18.83-.05-28.24,0-2.55,.01-5.11,.25-7.65,.47-1.47,.12-2.71,.68-3.15,2.37Zm24.59,151.78c1.94-.16,4.28-.65,6.19-2.26,3.08-2.6,2.71-6.15-.83-8.07-3.91-2.13-7.91-2.09-11.91-.31-1.75,.78-3.03,2.04-3.18,4.08-.15,2.14,.99,3.61,2.67,4.69,1.99,1.28,4.2,1.89,7.06,1.87Z"/><g><path class="cls-2" d="M199.34,87.41c-1.89-12.65-6.32-24.44-12.63-35.5-5.99-10.5-13.81-19.5-23.01-27.35-8.77-7.48-18.58-13.21-29.24-17.42C122.21,2.32,109.44-.04,97.67,0c-9.29-.03-17.04,.96-24.7,2.72-2.16,.5-4.35,1.07-6.38,1.94-2.87,1.23-4.13,3.7-4.13,6.76,0,3.08,1.36,5.4,4.16,6.77,2.13,1.04,4.34,.86,6.53,.27,5.99-1.62,12.1-2.61,18.27-3.02,7.52-.49,15.01,.08,22.4,1.61,8.94,1.86,17.46,4.87,25.46,9.36,6.74,3.78,12.95,8.21,18.53,13.56,7.22,6.92,13.22,14.75,17.77,23.66,4.12,8.07,7.04,16.54,8.49,25.51,.28,1.71,.53,3.43,1,5.09,1,3.51,4.64,5.9,8.22,5.32,3.71-.59,6.48-3.19,6.5-7.24,0-1.64-.21-3.29-.46-4.91Z"/><path class="cls-2" d="M159.67,84.38c-4.68-13.76-12.74-25.02-24.63-33.53-11.72-8.38-24.76-12.49-39.1-12.69-5.74-.12-11.38,.66-16.88,2.13-3.49,.93-6.99,2.09-10.2,3.71-5,2.51-5.18,9.56-.61,12.76,2.5,1.75,5.13,1.69,7.77,.64,9.02-3.58,18.34-4.84,27.9-3.25,13.33,2.21,24.26,8.69,32.7,19.27,3.79,4.75,6.67,10.03,8.51,15.83,1.56,4.89,2.38,9.92,2.62,15.05,.11,2.24,.96,4.26,2.78,5.58,2.49,1.8,5.31,2.34,8.17,.88,2.79-1.43,4.32-3.81,4.32-6.98,0-1.64-.28-3.28-.4-4.92-.35-4.96-1.36-9.8-2.96-14.49Z"/></g><g><path class="cls-1" d="M47.54,132.67c-7.5,1.71-13.06,6.18-17.13,12.53-1.08,1.69-1.71,3.76-2.15,5.74-.46,2.08-.59,4.26-.6,6.4l-.03,63.89h16.54v-36.28l29.1-.06v-15.55l-29.1-.28,.06-14.55c.03-1.06,.65-2.27,1.36-3.1,1.71-1.98,3.77-3.31,6.63-3.25l21.48-.13v-15.76h-22.25c-1.31,0-2.65,.12-3.93,.41Z"/><rect class="cls-1" x="82.79" y="132.93" width="16.07" height="88.3"/></g></svg>