<?xml version="1.0" encoding="UTF-8"?><svg id="logo_Secmotic" xmlns="http://www.w3.org/2000/svg" viewBox="0 0 560 150.53"><defs><style>.cls-1{fill:#0086c9;}.cls-2{fill:#009bdd;}</style></defs><g><path class="cls-2" d="M3.89,26.76C5.96,25.7,55.3,1.49,56.09,1.11c2.91-1.44,5.92-1.42,8.22-.27,2.55,1.26,47.16,24.32,47.16,24.32,0,0,3.22,1.63,5.76,2.95,2.94,1.53,3.87,4.26,3.87,7.17,0,2.47-.04,29.62,0,38.91,0,1.73-1.41,2.4-2.81,1.67-1.4-.73-24.92-12.86-24.92-12.86,0,0-.01-13.67-.01-14.75s-.52-1.94-1.35-2.36c-2.72-1.38-26.39-13.72-27.23-14.15-2.97-1.52-5.83-1.36-8.83,.13-7.12,3.54-25.08,12.77-25.08,12.77,0,0-18.34-9.3-26.01-13.16-2.64-1.33-1.7-4.36-.99-4.72Z"/><path class="cls-1" d="M117.82,89.47c-1.54-.79-79.66-41.19-82.71-42.7,0,0-26.72-13.53-29.31-14.93-2.08-1.12-3.56-2.94-1.91-5.09,0,0-3.73,2.42-3.85,5.8C-.04,34.75,.03,59.41,.03,59.41h.02l90.21,46.91c-2.39,1.18-3.94,1.95-3.94,1.95-.02,0-.05,.03-.08,.04-7.37,3.54-20.78,10.2-21.98,10.8-1.73,.86-5.12,1.1-7.55-.14-7.23-3.73-25.39-13.33-27.33-14.36-1.16-.61-1.62-1.71-1.62-3.2v-13.89S1.99,74.21,1.36,73.9c-.63-.32-1.33-.16-1.33,.78,0,7.07,0,37.41,0,40.72,.01,3.9,1.87,5.89,3.93,7.01,.99,.55,6.04,3.11,6.04,3.11,0,0,43.39,22.43,46.43,23.95,2.89,1.44,5.76,1.33,8.07,.21,2.31-1.13,56.6-27.81,56.6-27.81h0v-25.95c0-3.35-.81-5.18-3.28-6.44Z"/></g><g><path class="cls-1" d="M210.68,107.49c-3.92-4.3-6.77-11.62-6.82-22.62-.05-14.16,5.75-24.12,16.81-26.93,6.34-1.62,16.16-1.23,19.93,.54,10.11,4.73,12.82,13.05,10.53,33.2h-31.88c.15,4.18,1.94,6.46,6.12,8.33,5.76,2.59,18.33,1.82,24.29,1v9.32s-8.38,2.74-12.65,3.29c-7.74,1-19.62,1.24-26.34-6.14Zm27.15-27.97c0-7.06-1.18-9.67-8.7-9.67s-9.98,2.5-9.98,9.78l18.68-.11Z"/><path class="cls-1" d="M284.46,114.16c-7.56,0-13.3-2.3-17.37-6.36-4.41-4.39-7.18-11.88-7.18-22.39s2.76-17.5,7.71-22.43c7.82-7.79,21.48-7.42,33.38-2.45v10.97s-7.76-1.18-12.06-1.06c-8.55,.24-11.45,1.65-12.66,6.85-.47,2.01-.73,5.92-.73,8.03,0,5.55,.77,10.12,3.13,12.47,2.18,2.17,4.9,2.43,10.36,2.43,4.92,0,12.41-1.21,12.41-1.21v11.15c-2.48,2.09-9.83,4.01-16.96,4.01Z"/><path class="cls-1" d="M371.66,112.66v-41.4c0-.34-.18-.93-.81-.93-.04,0-12.07,1.53-14.54,1.84v40.49h-15.06v-41.28c0-1.01-.52-1.22-1-1.19-.48,.03-14.51,1.98-14.51,1.98v40.49h-15.05V58.2h10.96l2.43,2.14c4.88-1.43,12.17-3.49,16.81-3.42,5.22,.07,9.03,1.16,12,4.72,4.66-2.16,12.39-4.72,18.43-4.72,5.26,0,9.19,1.39,11.71,4.46,2.44,2.96,3.67,7.47,3.67,13.4v37.89h-15.05Z"/><path class="cls-1" d="M421.48,114.15c-14.53,0-26.03-7.06-26.03-28.75,0-24.16,14.25-28.49,25.95-28.49,16.86,0,26.11,9.16,26.11,28.49,0,15.07-5.57,28.75-26.03,28.75Zm0-44.32c-7.87,0-10.4,3.89-10.4,15.54s2.11,15.6,10.4,15.6c7.18,0,10.4-2.55,10.4-15.6,0-12.13-2.58-15.54-10.4-15.54Z"/><path class="cls-1" d="M464.83,113.37c-3.72-1.03-6.68-3.66-7.8-7.06-.51-1.54-.82-3.62-.82-5.78v-29.7l-4.85-12.63h4.85v-6.44l12.61-6.63h2.44v13.07h12.92v12.99h-12.92v27.09c0,1.05,.54,2.43,1.84,2.66,4.18,.72,12.98-.53,12.98-.53v10.82c-5.02,2.67-14.96,3.88-21.25,2.14Z"/><path class="cls-1" d="M502.58,53.02c-5.4,0-8.54-1.41-8.54-8.26,0-6.19,2.6-8.4,8.54-8.4s8.44,1.83,8.44,8.4c0,5.93-2.14,8.26-8.44,8.26Z"/><rect class="cls-1" x="495.05" y="58.2" width="15.05" height="54.53"/><path class="cls-1" d="M542.74,113.96c-7.56,0-13.26-2.1-17.34-6.16-4.41-4.39-7.18-11.88-7.18-22.39s2.76-17.5,7.7-22.43c7.83-7.79,21.57-7.42,33.38-2.45l-2.37,10.64s-5.4-.85-9.69-.73c-8.55,.24-11.46,1.65-12.67,6.85-.47,2.01-.73,5.92-.73,8.03,0,5.55,.77,10.12,3.13,12.47,2.18,2.17,4.9,2.43,10.36,2.43,4.91,0,9.65-.69,9.65-.69l3.02,10.46c-1.9,1.89-10.82,3.98-17.26,3.98Z"/><path class="cls-1" d="M170.56,114.15c-7,0-16.33-.59-21.39-4.03v-11.48c3.38,.81,10.7,1.1,12.83,1.22,4.64,.26,11.3,.21,14.21-.45,3.6-.8,4.41-2.45,4.69-7,.16-2.71-.07-5.4-2.05-6.51-4-2.24-16.72-3.62-22.93-7.33-6.54-3.91-7.32-11.87-7.32-18.26,0-13.64,8.73-21.5,23.55-21.5,10.06,0,20.5,3.33,20.5,3.33v11.8c-22.5-1.98-29-2.65-29,5.9,0,3.09,1.44,5.13,4.55,6.06,3.88,1.16,15.72,4.55,17.35,5.09,6.03,1.98,9.64,7,10.1,14.27,.12,1.86,.31,4.02,.31,6.42,0,5.92-.43,12.53-5.07,17.13-3.69,3.67-10.36,5.33-20.31,5.33Z"/></g></svg>