<?xml version="1.0" encoding="UTF-8"?>
<svg id="Primer_plano" data-name="Primer plano" xmlns="http://www.w3.org/2000/svg" version="1.1" viewBox="0 0 374.7 85.9">
  <defs>
    <style>
      .cls-1 {
        fill: none;
        stroke: #ef7d00;
        stroke-miterlimit: 3.9;
        stroke-width: .8px;
      }

      .cls-2, .cls-3, .cls-4, .cls-5 {
        stroke-width: 0px;
      }

      .cls-2, .cls-4 {
        fill: #ef7d00;
      }

      .cls-3, .cls-5 {
        fill: #1d1d1b;
      }

      .cls-4, .cls-5 {
        fill-rule: evenodd;
      }
    </style>
  </defs>
  <g>
    <path class="cls-4" d="M155.4,80.5l1.8-17.3h-3.8l-4.6,9.9c-.6,1.2-1,2.3-1.2,2.8,0-.5,0-1.4-.1-2.9l-.8-9.8h-3.8l-4.9,17.3h2.8l2.7-10.5c.3-1.1.7-2.7.8-3.2,0,.6,0,2.1.1,3.2l.9,10.5h2.5l5.2-11c.5-1.1,1-2.1,1.2-2.7,0,.5-.3,1.8-.4,2.9l-1.2,10.7h2.8Z"/>
    <path class="cls-4" d="M169.3,79.3c-.8-.7-.9-1.2-.5-2.9l.7-3.6c.4-1.9.5-2.5.4-3.1-.3-1.4-1.5-2.1-3.5-2.1s-3.6.5-5.7,1.7l.8,2s2.2-1.5,4.1-1.5,1.6.8,1.3,2.2v.7h-1c-4.1,0-6.5,1.5-7.1,4.4-.4,2.2.6,3.8,3.5,3.8s2.5-.4,3.8-1.5c.1.8.7,1.4,1.4,1.7l1.8-1.7ZM166.4,74.6l-.6,3c-.7.8-1.7,1.3-2.5,1.3s-1.6-.8-1.4-2c.3-1.6,1.3-2.4,4-2.4s.5,0,.5,0Z"/>
    <path class="cls-4" d="M181.7,80.5l1.8-9.5c.4-2.3-.7-3.5-2.6-3.5s-2.6.6-4.2,1.8c.1-.7,0-1.2-.1-1.8l-2.6.7c.2.9.2,1.7,0,3l-1.8,9.3h2.7l1.7-9.2c1-.8,2.2-1.4,3-1.4s1.4.5,1,2.2l-1.6,8.4h2.7Z"/>
    <path class="cls-4" d="M195.8,79.3c-.8-.7-.9-1.2-.5-2.9l.7-3.6c.4-1.9.5-2.5.4-3.1-.3-1.4-1.5-2.1-3.5-2.1s-3.6.5-5.7,1.7l.8,2s2.2-1.5,4.1-1.5,1.6.8,1.3,2.2v.7h-1c-4.1,0-6.5,1.5-7.1,4.4-.4,2.2.6,3.8,3.5,3.8s2.5-.4,3.8-1.5c.1.8.7,1.4,1.4,1.7l1.8-1.7ZM192.9,74.6l-.6,3c-.7.8-1.7,1.3-2.5,1.3s-1.6-.8-1.4-2c.3-1.6,1.3-2.4,4-2.4s.5,0,.5,0Z"/>
    <path class="cls-4" d="M212.6,69.1l-.9-1.7c-.8.6-1.6.9-2.5.9s-1.9-.7-3.7-.7c-3,0-5.4,1.7-5.9,4.3-.3,1.8.4,3,2.2,3.6-1.4.4-2.6.9-2.8,2.2s.4,1.9,3.8,1.9,3.4.4,3.2,1.7c-.2,1.2-1.4,2-3.4,2s-2.7-.7-2.4-1.8c0-.4.4-.9.4-.9h-2.6s-.4.8-.5,1.4c-.5,2.4,1.7,3.5,5,3.5s5.9-1.4,6.4-4.2c.5-2.6-1.5-3.6-3.5-3.6-3,0-3.1,0-3.1-.5,0-.4,1-.9,1.9-1.2,3,0,5.1-1.7,5.5-3.9.3-1.4-.4-2.2-.4-2.2,0,0,.3.1.9.1.8,0,1.5-.2,2.4-.8ZM205.1,69.6c1.5,0,2,.7,1.8,2.2-.3,1.4-1.2,2.2-2.6,2.2s-2-.7-1.8-2.1c.3-1.4,1.2-2.2,2.6-2.2Z"/>
    <path class="cls-4" d="M216.3,66c1,0,2-.8,2.2-1.8.2-1-.5-1.8-1.4-1.8s-2,.8-2.2,1.8c-.2,1,.4,1.8,1.4,1.8ZM214.9,80.5l2.5-13-2.9.5-2.4,12.5h2.8Z"/>
    <path class="cls-4" d="M228.6,80.5l1.8-9.5c.4-2.3-.7-3.5-2.6-3.5s-2.6.6-4.2,1.8c.1-.7,0-1.2-.1-1.8l-2.6.7c.2.9.2,1.7,0,3l-1.8,9.3h2.7l1.7-9.2c1-.8,2.2-1.4,3-1.4s1.4.5,1,2.2l-1.6,8.4h2.7Z"/>
    <path class="cls-4" d="M246.5,69.1l-.9-1.7c-.8.6-1.6.9-2.5.9s-1.9-.7-3.7-.7c-3,0-5.4,1.7-5.9,4.3-.3,1.8.4,3,2.2,3.6-1.4.4-2.6.9-2.8,2.2-.2,1.3.4,1.9,3.8,1.9s3.4.4,3.2,1.7c-.2,1.2-1.4,2-3.4,2s-2.7-.7-2.4-1.8c0-.4.4-.9.4-.9h-2.6s-.4.8-.5,1.4c-.5,2.4,1.7,3.5,5,3.5s5.9-1.4,6.4-4.2c.5-2.6-1.5-3.6-3.5-3.6-3,0-3.1,0-3.1-.5,0-.4,1-.9,1.9-1.2,3,0,5.1-1.7,5.5-3.9.3-1.4-.4-2.2-.4-2.2,0,0,.3.1.9.1.8,0,1.5-.2,2.4-.8ZM239,69.6c1.5,0,2,.7,1.8,2.2-.3,1.4-1.2,2.2-2.6,2.2s-2-.7-1.8-2.1c.3-1.4,1.2-2.2,2.6-2.2Z"/>
    <polygon class="cls-4" points="265.2 63.2 253.2 63.2 252.8 65.6 257.2 65.6 254.3 80.5 257.2 80.5 260 65.6 264.4 65.6 265.2 63.2"/>
    <path class="cls-4" d="M272.9,74.9v-.6c.7-2.9.4-4.5-.5-5.5-.9-1-2-1.3-3.2-1.3s-2.9.5-4.2,1.7c-1.3,1.3-2.1,2.7-2.5,4.9-.8,4.1,1,6.6,4.6,6.6s3.3-.6,4.9-1.7l-.8-1.7c-1.1.8-2.2,1.3-3.4,1.3-2.5,0-2.8-1.9-2.4-3.6v-.2h7.6ZM270.4,72.9h-4.7c.4-2.1,1.5-3.3,3-3.3s2,1.2,1.7,3.3Z"/>
    <path class="cls-4" d="M283.8,79.2l-1-1.7c-1,.8-1.9,1.3-2.8,1.3s-1.2-.3-1.5-.7c-.5-.6-.5-1.7-.2-3.5.3-1.6.7-2.8,1.2-3.5.6-.8,1.4-1.3,2.2-1.3s1.3.3,1.9,1l1.7-1.8c-.9-1-1.9-1.4-3.2-1.4-2.8,0-6,2.2-6.9,6.8-.8,4.1.7,6.5,4.1,6.5s3-.5,4.4-1.7Z"/>
    <path class="cls-4" d="M296.2,80.5l1.7-8.9c.2-1.3.3-1.9,0-2.5-.3-.8-1.3-1.6-2.8-1.6s-2.7.5-4.2,1.7c0,0,.2-.6.3-1.4l.5-2.7c.2-1.2.4-2.2.3-3l-2.9.6c0,.7,0,1.6-.3,2.8l-2.9,15.1h2.8l1.7-9.1c1.1-.9,2.4-1.6,3.3-1.6s1.5.5,1.2,2l-1.6,8.6h2.7Z"/>
    <path class="cls-4" d="M309.8,80.5l1.8-9.5c.4-2.3-.7-3.5-2.6-3.5s-2.6.6-4.2,1.8c.1-.7,0-1.2-.1-1.8l-2.6.7c.2.9.2,1.7,0,3l-1.8,9.3h2.7l1.7-9.2c1-.8,2.2-1.4,3-1.4s1.4.5,1,2.2l-1.6,8.4h2.7Z"/>
    <path class="cls-4" d="M320.8,67.6c-3.4,0-6,2.6-6.8,6.7-.8,4.1.9,6.6,4.3,6.6s6.1-2.5,6.9-6.6c.8-4-.8-6.7-4.4-6.7ZM320.4,69.6c1.6,0,2.4,1.1,1.7,4.7-.6,3.2-1.8,4.5-3.4,4.5s-2.4-1.1-1.7-4.8c.6-3.1,1.6-4.4,3.3-4.4Z"/>
    <path class="cls-4" d="M331.5,80.5v-1.7c-.5.1-.9,0-1-.2-.1-.3-.2-.6.2-2.3l2-10.7c.3-1.6.5-2.7.4-3.5l-2.9.6c0,1-.1,2-.5,3.7l-2,10.8c-.2,1.1-.7,3.6,2.1,3.6s1.2-.1,1.7-.3Z"/>
    <path class="cls-4" d="M341.4,67.6c-3.4,0-6,2.6-6.8,6.7-.8,4.1.9,6.6,4.3,6.6s6.1-2.5,6.9-6.6c.8-4-.8-6.7-4.4-6.7ZM341,69.6c1.6,0,2.4,1.1,1.7,4.7-.6,3.2-1.8,4.5-3.4,4.5s-2.4-1.1-1.7-4.8c.6-3.1,1.6-4.4,3.3-4.4Z"/>
    <path class="cls-4" d="M361.8,69.1l-.9-1.7c-.8.6-1.6.9-2.5.9s-1.9-.7-3.7-.7c-3,0-5.4,1.7-5.9,4.3-.3,1.8.4,3,2.2,3.6-1.4.4-2.6.9-2.8,2.2-.2,1.3.4,1.9,3.8,1.9s3.4.4,3.2,1.7c-.2,1.2-1.4,2-3.4,2s-2.7-.7-2.4-1.8c0-.4.4-.9.4-.9h-2.6s-.4.8-.5,1.4c-.5,2.4,1.7,3.5,5,3.5s5.9-1.4,6.4-4.2c.5-2.6-1.5-3.6-3.5-3.6-3,0-3.1,0-3.1-.5,0-.4,1-.9,1.9-1.2,3,0,5.1-1.7,5.5-3.9.3-1.4-.4-2.2-.4-2.2,0,0,.3.1.9.1.8,0,1.5-.2,2.4-.8ZM354.2,69.6c1.4,0,2,.7,1.8,2.2-.3,1.4-1.2,2.2-2.6,2.2s-2-.7-1.8-2.1c.3-1.4,1.2-2.2,2.6-2.2Z"/>
    <path class="cls-4" d="M373.8,67.9h-3l-3.4,6.9c-.8,1.6-1.6,3.4-1.6,3.4,0,0,0-2.1-.2-2.9l-.9-7.7-2.9.5,1.3,8.5c.2,1.1.4,2.5.5,3.9h.9c-1.2,2.4-2.3,3.2-4.1,3.6l.6,1.8c3.1-.6,4.3-2.1,5.9-5.1l6.9-12.9Z"/>
  </g>
  <g>
    <g>
      <g>
        <path class="cls-5" d="M16.5,35c-3.4-5.3,2.3-15,12.7-21.8,10.4-6.8,21.7-8,25.1-2.7,3.4,5.3-2.3,15-12.7,21.8-10.4,6.8-21.7,8-25.1,2.7ZM7.1,41.1c-5.3-8.2,2.1-22.5,16.5-31.9C38.1-.1,54.1-1.1,59.4,7.1c5.3,8.2-2.1,22.5-16.5,31.9-14.5,9.4-30.5,10.3-35.8,2.1Z"/>
        <path class="cls-5" d="M47.4,52.8s3.4-1.6,5.5-3c3.3-2.3,5.5-4.7,5.5-4.7,0,0-3.6-14.6-9.4-26.2-5.8-11.6-9.7-14.2-9.7-14.2l-7.1,3.6s8.1,7,12,18.8c2.3,7,3.3,25.6,3.3,25.6Z"/>
      </g>
      <g>
        <g>
          <circle class="cls-2" cx="21.6" cy="13.3" r="10.5" transform="translate(-.5 .9) rotate(-2.4)"/>
          <path class="cls-2" d="M21.6,13.3"/>
        </g>
        <g>
          <circle class="cls-1" cx="21.6" cy="13.3" r="10.5" transform="translate(-.5 .9) rotate(-2.4)"/>
          <path class="cls-1" d="M21.6,13.3"/>
        </g>
      </g>
      <g>
        <circle class="cls-2" cx="5.6" cy="5.6" r="5.6"/>
        <path class="cls-2" d="M5.6,5.6"/>
      </g>
    </g>
    <g>
      <rect class="cls-2" x="73.9" y="8.3" width="5.5" height="26.1"/>
      <path class="cls-4" d="M101.7,29.4l1.9,4.9h5.6l-9.7-26.1h-8.1l-9.5,26.1h5.7l1.8-4.9h12.4ZM100.5,25.6h-9.9l4.9-13.5h0l4.9,13.5Z"/>
      <path class="cls-4" d="M111.2,34.3h5.5v-8.4h7.2c7.5,0,10.2-1.3,10.2-8.7s-2.5-9-10.2-9h-12.7v26.1ZM116.7,21.6v-9.1h7.2c4.1,0,4.7,1,4.7,4.7s-.8,4.3-4.7,4.4h-7.2Z"/>
      <path class="cls-5" d="M163.4,26.6c0-6.3-6.6-6.5-11.9-6.5-8.3,0-13.3.2-13.3,8.2s6.7,7.2,13.3,7.7c5.6.3,8-.6,8,4.5s-4.8,4.3-8,4.3c-7,0-8.8-.6-8.8-3.2v-2.2h-4.8v2.6c0,6.2,6.9,6.5,13.5,6.5s12.7-.3,12.7-8.1-7.1-7.9-15-8.3c-4.8-.2-6.3.2-6.3-4.8s2.8-3.4,8.5-3.4,7.1,0,7.1,2.8v1.1h4.8v-1.1Z"/>
      <path class="cls-5" d="M169.5,34.3c0,11.7,2.2,14.2,13.5,14.2s13.5-2.5,13.5-14.2-2.2-14.2-13.5-14.2-13.5,2.5-13.5,14.2ZM174.2,34.3c0-9.7.6-10.8,8.8-10.8s8.8,1.2,8.8,10.8-.6,10.8-8.8,10.8-8.8-1.2-8.8-10.8Z"/>
      <rect class="cls-3" x="203.5" y="8.5" width="4.6" height="39.6"/>
      <path class="cls-5" d="M236.4,48.1h4.6v-27.7h-4.6v17.1c0,6.6-3.3,7.6-9.8,7.6s-6.3-2.4-6.3-6.9v-17.8h-4.6v17.8c0,7.3,2.8,10.3,10.9,10.3s7.9-.6,9.5-4h.1v3.7Z"/>
      <path class="cls-5" d="M265.2,20.4h-11.8v-6.7h-4.6v6.7h-4.1v3.4h4.1v16.3c0,6.5,1.6,8.3,8.8,8.3s8.8-2.6,8.8-8.1v-2.1h-4.4v2.1c0,2.6,0,4.7-4.3,4.7s-4.2-.7-4.3-3.7v-17.6h11.8v-3.4Z"/>
      <path class="cls-5" d="M274.9,20.4h-4.6v27.7h4.6v-27.7ZM274.9,8.5h-4.6v4.6h4.6v-4.6Z"/>
      <path class="cls-5" d="M281.9,34.3c0,11.7,2.2,14.2,13.5,14.2s13.5-2.5,13.5-14.2-2.2-14.2-13.5-14.2-13.5,2.5-13.5,14.2ZM286.7,34.3c0-9.7.6-10.8,8.8-10.8s8.8,1.2,8.8,10.8-.6,10.8-8.8,10.8-8.8-1.2-8.8-10.8Z"/>
      <path class="cls-5" d="M320.6,20.4h-4.6v27.7h4.6v-16.2c0-6.4,1.6-8.5,9.1-8.5s7.3.8,7.3,5.9v18.8h4.6v-18.4c.1-7.7-3.7-9.6-11.5-9.6s-8,.4-9.4,3.7h-.1v-3.4Z"/>
      <path class="cls-5" d="M373.8,26.6c0-6.3-6.6-6.5-11.9-6.5-8.3,0-13.3.2-13.3,8.2s6.7,7.2,13.3,7.7c5.6.3,8-.6,8,4.5s-4.8,4.3-8,4.3c-7,0-8.8-.6-8.8-3.2v-2.2h-4.8v2.6c0,6.2,6.9,6.5,13.5,6.5s12.7-.3,12.7-8.1-7.1-7.9-15-8.3c-4.8-.2-6.3.2-6.3-4.8s2.8-3.4,8.5-3.4,7.1,0,7.1,2.8v1.1h4.8v-1.1Z"/>
    </g>
  </g>
</svg>