<?xml version="1.0" encoding="UTF-8"?><svg id="logo_WellnessTechGroup" xmlns="http://www.w3.org/2000/svg" xmlns:xlink="http://www.w3.org/1999/xlink" viewBox="0 0 560 76.49"><defs><style>.cls-1{fill:#2c2e30;fill-rule:evenodd;}.cls-2{fill:url(#Sfumatura_senza_nome_15-2);}.cls-3{fill:url(#Sfumatura_senza_nome_15-3);}.cls-4{fill:url(#Sfumatura_senza_nome_15);}</style><radialGradient id="Sfumatura_senza_nome_15" cx="74.63" cy="1.58" fx="74.63" fy="1.58" r="90.87" gradientTransform="matrix(1, 0, 0, 1, 0, 0)" gradientUnits="userSpaceOnUse"><stop offset=".25" stop-color="#0080b1"/><stop offset=".5" stop-color="#288f8e"/><stop offset=".83" stop-color="#45a23c"/><stop offset="1" stop-color="#b2c624"/></radialGradient><radialGradient id="Sfumatura_senza_nome_15-2" r="90.87" xlink:href="#Sfumatura_senza_nome_15"/><radialGradient id="Sfumatura_senza_nome_15-3" r="90.87" xlink:href="#Sfumatura_senza_nome_15"/></defs><path class="cls-4" d="M18.9,5.11l-.53,.53c0,.18,0,.53,.18,.7l1.94,3.52c.35,.53,.88,.7,1.41,.35,8.81-4.93,19.74-5.64,29.08-1.59,7.93,3.52,13.92,9.69,17.1,17.8,3.17,8.11,3,16.74-.53,24.67s-9.69,13.92-17.8,17.1c-8.11,3.17-16.74,3-24.67-.53C12.03,61.86,4.09,47.94,6.21,33.66c0-.53-.35-1.06-.88-1.06l-3.88-.53c-.35,0-.53,0-.7,.18s-.35,.35-.35,.7c-2.47,16.92,6.87,33.49,22.56,40.36,4.93,2.11,10.22,3.17,15.33,3.17,14.8,0,28.73-8.64,35.07-22.91,4.05-9.34,4.23-19.74,.53-29.26-3.7-9.52-10.93-17.1-20.27-21.15-5.11-2.11-10.22-3.17-15.51-3.17-6.7,0-13.22,1.76-19.21,5.11"/><path class="cls-2" d="M28.24,13.04c-6.7,2.64-11.98,7.75-14.98,14.28-1.06,2.29-1.59,4.58-1.94,7.05,0,.53,.35,1.06,.88,1.06l3.88,.53c.53,0,1.06-.35,1.06-.88,.35-1.94,.7-3.7,1.59-5.46,2.29-5.11,6.34-9.16,11.63-11.1,5.29-2.11,10.93-1.94,16.04,.35,5.11,2.29,9.16,6.34,11.1,11.63,2.11,5.29,1.94,10.93-.35,16.04-4.58,10.57-17.1,15.51-27.67,10.93-2.82-1.23-5.29-3-7.23-5.29-.18-.18-.35-.35-.7-.35-.18,0-.53,0-.7,.18l-3,2.64c-.18,.18-.35,.35-.35,.7,0,.18,0,.53,.18,.7,2.64,2.82,5.82,5.11,9.34,6.7,3.52,1.59,7.23,2.29,10.75,2.29,10.4,0,20.44-5.99,24.85-16.21,2.82-6.52,3-13.92,.35-20.62-2.64-6.7-7.75-11.98-14.28-14.98-3.52-1.59-7.05-2.29-10.75-2.29-3.17,.18-6.52,.88-9.69,2.11"/><path class="cls-3" d="M32.29,23.26c-3.88,1.59-7.05,4.58-8.81,8.46s-1.76,8.28-.18,12.16c.7,1.76,1.76,3.35,3,4.76,.35,.35,1.06,.35,1.41,0l3-2.64c.18-.18,.35-.35,.35-.7,0-.18,0-.53-.18-.7-.88-.88-1.41-1.94-1.94-3-1.06-2.47-.88-5.29,.18-7.75s3-4.41,5.46-5.29c5.11-1.94,10.93,.53,13.04,5.64,1.06,2.47,.88,5.29-.18,7.75s-3,4.41-5.46,5.29c-1.06,.53-2.29,.7-3.52,.7-.53,0-1.06,.53-.88,1.06v3.88c0,.53,.53,.88,1.06,.88h0c1.94,0,3.7-.35,5.46-1.06,3.88-1.59,7.05-4.58,8.81-8.46,1.76-3.88,1.76-8.28,.18-12.16-1.59-3.88-4.58-7.05-8.46-8.81-2.11-.88-4.23-1.41-6.34-1.41-2.11,.35-4.05,.7-5.99,1.41"/><g><path class="cls-1" d="M353.06,41.24c-3,0-5.82,0-9.69-.53-.35,0-.53,0-.53,.53,.18,1.23,.35,2.47,.7,3.7,1.06,2.82,3.17,3.88,5.64,4.23,3.17,.35,6.34-.18,9.52-1.23,.53-.18,.7,0,.88,.53,.18,.88,.53,1.76,.7,2.64,.18,.53,0,.7-.35,.88-3.35,1.59-6.7,2.11-10.22,1.94-1.59,0-3.17-.35-4.76-.88-3.7-1.41-6.17-4.23-7.23-8.46s-1.06-8.46,0-12.51c1.41-5.11,4.58-7.93,8.99-8.81,2.64-.53,5.29-.53,7.75,.35,4.41,1.59,6.87,4.93,7.75,10.05,.35,2.29,.35,4.58,0,7.05-.18,.53-.18,.7-.7,.7h-8.46v-.18Zm3.17-4.58c1.06,0,1.41,0,1.23-1.59,0-.35,0-.53-.18-1.06-.53-3.7-2.11-5.64-4.93-6.17-1.41-.18-2.82-.18-4.23,.18-2.47,.53-4.05,2.11-4.76,4.93-.18,1.06-.35,2.11-.53,3.17-.18,.53,.18,.7,.53,.7h12.87v-.18Z"/><path class="cls-1" d="M328.03,52.52c0,.7-.35,.88-.88,.88h-4.05c-.7,0-.88-.18-.88-.88V21.15c0-.88-.35-1.06-1.06-1.06h-8.64c-.53,0-.7-.18-.7-.88v-3.35c0-.7,.18-.88,.88-.88h25.2c.53,0,.7,.18,.7,.88v3.52c0,.53-.18,.7-.7,.7h-8.81c-.88,0-1.06,.18-1.06,1.06v31.37Z"/><path class="cls-1" d="M379.84,22.91c2.64,0,5.29,.35,7.75,1.59,.53,.18,.53,.53,.35,1.06-.35,.88-.53,1.94-.7,2.82-.18,.7-.35,.7-.88,.53-2.64-.88-5.29-1.06-7.93-.88-3.88,.35-5.64,2.29-6.52,6.52-.53,3-.53,5.99,.18,8.99,.88,3.52,2.82,5.29,5.99,5.64,2.82,.18,5.46,0,8.11-.88,.53-.18,.7-.18,.88,.53s.53,1.76,.7,2.64c.18,.7,.18,1.06-.53,1.23-2.82,1.23-5.82,1.59-8.99,1.59-1.76,0-3.35-.35-4.93-1.06-3.52-1.41-5.82-4.23-6.87-8.46-1.06-3.88-1.06-7.93,0-11.81,1.41-5.64,4.76-8.64,9.69-9.69,1.23-.35,2.47-.35,3.7-.35"/><path class="cls-1" d="M448.23,52.34c0,.35,0,.53-.35,.7-.18,0-.35,.18-.7,.35-1.41,.53-2.64,.18-3.52-1.23-.35-.53-.7-.35-1.06-.18-1.76,.7-3.52,1.23-5.29,1.94-4.93,1.76-11.98-.53-14.63-7.05-1.06-2.64-1.76-5.64-1.94-8.46-.35-4.05-.18-8.28,.7-12.34,1.59-6.7,5.99-10.93,12.16-11.63,3.7-.35,7.23-.18,10.75,1.41,.7,.35,1.41,.88,2.29,1.23,.35,.18,.35,.53,.18,.88-.35,1.06-.88,1.94-1.23,3-.18,.7-.53,.7-1.06,.53-3.52-1.94-7.23-2.29-10.93-1.59-3.35,.7-5.29,3-6.17,6.7-1.23,5.29-1.23,10.75,0,16.21,1.06,4.58,3.35,6.34,7.75,6.7,2.47,.18,4.93-.35,7.23-1.59,.53-.18,.7-.53,.7-1.06v-9.87c0-.7-.18-.88-.7-.88-2.11-.18-4.05-.35-6.17-.35-.53,0-.7-.18-.7-.7v-3c0-.53,.18-.7,.53-.7h11.81c.35,0,.53,.18,.53,.7v20.27h-.18Z"/><path class="cls-1" d="M397.65,25.03c1.23-.53,2.29-1.06,3.7-1.59,1.76-.53,3.52-.7,5.46-.53,.88,.18,1.76,.35,2.47,.53,3.7,1.23,5.64,4.23,6.34,8.46,.18,1.41,.35,3,.35,4.41v16.04c0,.88-.18,.88-.88,.88h-4.05c-.7,0-.88-.18-.88-.88v-16.04c0-1.41,0-2.64-.35-4.05-.53-2.47-1.76-3.88-3.88-4.23-3-.7-5.99-.18-8.46,2.11-.35,.35-.53,.7-.53,1.23v20.97c0,.7-.18,.88-.88,.88h-4.05c-.7,0-.7-.18-.7-.88V13.57c0-.53,.18-.7,.7-.7h4.41c.53,0,.7,.18,.7,.7v11.1c0,.35,.35,.53,.53,.35"/><path class="cls-1" d="M473.43,28.38c-1.94-4.76-7.23-6.52-10.75-4.76-.53,.18-3.7,1.94-4.05,2.29h-.18c-.18-.53-.7-1.23-.88-1.76s-.35-.53-.7-.53c-.18,0-.35,.18-.53,.18-.7,.35-1.41,.53-2.29,.88-.53,.18-.53,.35-.53,1.06v27.14c0,.7,.18,.88,.7,.88h4.23c.7,0,.7-.18,.7-.88v-19.92c0-2.11,.53-3.17,2.11-3.88,1.06-.53,2.29-1.06,3.7-1.23,.35,0,.7,0,1.41,.18,.35,0,.88,.35,.88,.35,.53,.18,1.23,.53,1.76,1.06,0,0,.7,.7,1.06,1.23,.7,1.06,.88,1.76,1.41,1.76,.35,0,.53-.18,.88-.35,.18-.18,1.06-.88,1.23-1.23,.35-.7,.35-.88-.18-2.47"/><path class="cls-1" d="M488.41,22.91c2.64,0,4.93,.53,7.05,1.59,3,1.76,4.93,4.23,5.82,7.93,1.06,4.23,1.23,8.46,0,12.51-1.59,5.29-4.93,8.11-9.69,8.99-2.82,.53-5.82,.35-8.64-.88-4.41-2.11-6.7-5.99-7.4-11.28-.35-3-.35-5.99,.53-8.81,1.41-5.46,5.64-9.52,10.57-9.87,.71-.18,1.41-.18,1.76-.18m7.93,15.69c0-1.23,0-2.64-.18-3.88-.53-3.52-2.29-5.82-4.93-6.52-1.23-.35-2.47-.35-3.88-.18-3.35,.35-5.29,2.47-5.99,6.17-.53,3-.53,5.99,0,8.99,.53,3.17,2.11,5.29,5.11,5.99,.88,.18,1.94,.35,3,.18,3.88-.35,5.82-2.29,6.7-6.52,.18-1.41,.18-2.82,.18-4.23"/><path class="cls-1" d="M540.05,52.34v10.57c0,.88-.18,.88-.88,.88h-3.88c-.7,0-.88-.18-.88-.88V25.91q0-1.23,1.76-1.94c.7-.35,1.41-.7,1.94-.53,.7,.18,.88,1.23,1.23,1.94,.18,.53,.53,.53,.88,.35,1.41-.7,2.82-1.23,4.23-1.94,2.11-.88,4.05-1.06,6.17-.53,5.46,1.23,8.64,5.46,9.16,11.81,.35,3.7,.35,7.23-.7,10.75-1.59,4.93-4.58,7.4-8.99,8.11-3.35,.53-6.52,.18-9.52-1.23-.18-.18-.53-.35-.53-.35m0-5.64c0,.7,.18,.88,.7,1.23,2.29,1.06,4.76,1.59,7.23,1.23,3.35-.18,5.29-2.11,6.17-5.99,.7-3.35,.7-6.7,0-9.87-.53-2.82-2.11-4.58-4.58-5.29-3.17-.88-6.17,0-9.16,1.76-.35,.18-.35,.53-.35,.88v16.04h0Z"/><path class="cls-1" d="M530,51.46c0,.7-.18,.88-.7,1.06-.88,.35-1.76,.53-2.64,.88-.35,.18-.53,0-.7-.35-.35-.53-.53-1.06-.88-1.59s-.53-.53-1.06-.35c-1.41,.7-2.64,1.41-4.23,1.94-2.11,.88-3.88,.88-5.82,.7-.7-.18-1.41-.35-2.11-.53-4.05-1.41-5.82-4.76-6.17-9.34-.18-2.47-.18-5.11-.18-7.75v-11.98c0-.7,.18-.88,.7-.88h4.23c.7,0,.7,.18,.7,.88v16.04c0,1.06,0,2.29,.18,3.35,.53,3.35,1.94,4.76,4.76,5.29,2.82,.35,5.46-.18,7.75-2.11,.35-.35,.53-.7,.53-1.41V24.15c0-.7,.18-.88,.88-.88h4.05c.53,0,.7,.18,.7,.88v27.32h0Z"/><path class="cls-1" d="M149.14,42.12c-3.17,0-6.7,.18-10.05-.35-.7-.18-.7,.18-.7,.88,.53,2.82,1.94,4.41,4.58,4.76,3.17,.35,6.34,0,9.52-.88,.53-.18,.88-.18,1.06,.7,.35,1.23,.7,2.64,1.06,3.88,.18,.7,0,.88-.53,1.06-3.17,1.59-6.7,2.11-10.05,1.94-2.11,0-4.41-.35-6.34-1.41-3.35-1.59-5.46-4.41-6.52-8.28-1.06-4.23-1.06-8.46,.18-12.51,1.06-3.7,3.17-6.34,6.34-7.75,4.05-1.76,8.11-1.76,12.16-.18,3.7,1.59,5.82,4.76,6.7,8.99,.53,2.64,.7,5.29,.18,7.93-.18,.7-.35,1.06-1.06,1.06h-6.52v.18Zm-5.11-6.17h4.58q1.06,0,1.06-1.23c-.18-3-1.41-4.58-3.52-5.11-1.41-.35-2.82-.18-4.05,.18-1.23,.35-2.11,1.23-2.64,2.64-.35,.88-.53,1.94-.7,3,0,.53,.18,.7,.53,.53h4.76Z"/><path class="cls-1" d="M161.48,16.04c0-.7,.18-.7,.7-.88,2.11-.53,4.05-.88,6.34-1.41,.53-.18,.7,0,.7,.7V52.87c0,.53-.18,.7-.7,.7h-6.52c-.53,0-.7-.18-.7-.7,.35-6.52,.18-30.14,.18-36.83"/><path class="cls-1" d="M187.74,25.73c0-.7,.18-.88,.7-1.06,1.23-.35,2.64-.7,4.05-1.06,.53-.18,.88-.18,1.06,.35,.88,1.59,1.94,1.59,3.52,.88,.7-.35,1.41-.7,2.11-.88,4.05-1.76,7.75-.7,11.1,2.11,1.76,1.59,2.47,3.88,2.82,6.34,.18,1.59,.35,3.17,.35,4.76v15.69c0,.53-.18,.7-.7,.7h-6.52c-.53,0-.7-.18-.7-.88v-16.04c0-1.06,0-2.29-.35-3.35-.35-1.76-1.23-2.82-2.82-3.17-2.29-.35-4.41-.35-6.34,1.06-.35,.35-.53,.7-.53,1.23v19.92c0,.88-.18,.88-.88,.88h-6.17c-.53,0-.7-.18-.7-.88V25.73Z"/><path class="cls-1" d="M258.77,54.11c-4.41,0-7.93-.53-11.28-2.29-.53-.35-.7-.53-.53-1.23,.35-1.41,.88-3,1.23-4.41,.18-.53,.35-.7,.88-.53,3.7,1.59,7.4,2.11,11.46,1.59,.53,0,.88-.18,1.41-.35,1.23-.35,1.76-1.23,1.76-2.47,0-1.41-.53-1.94-1.94-2.29-1.94-.35-3.88-.7-5.82-.88-2.11-.35-4.23-.88-5.99-2.29-4.23-3.17-4.05-10.57,.35-13.75,1.94-1.41,4.23-1.94,6.34-2.29,4.41-.53,8.64,.18,12.69,1.76,.7,.18,.7,.53,.53,1.23-.35,1.41-.88,2.82-1.23,4.23-.18,.7-.35,.7-.88,.53-3.17-1.06-6.52-1.41-9.87-1.23-.7,0-1.41,.18-2.11,.35-1.06,.35-1.41,.88-1.41,1.94s.53,1.76,1.59,1.94l3.7,.53c2.29,.35,4.58,.7,6.87,1.59,2.29,1.06,4.23,2.64,4.76,5.64,.7,4.76-.53,9.52-5.82,11.28-2.47,1.23-4.93,1.41-6.7,1.41"/><path class="cls-1" d="M101.91,39.83c.53-1.94,3.35-11.81,4.05-14.8,.18-.35,.18-.7,0-1.06-.7-2.82-1.41-5.64-2.29-8.46-.18-.53-.18-.88,.7-.88h6.87c.53,0,.88,.18,.88,.7,1.76,7.75,3.52,15.51,5.46,23.26,0,.18,.18,.35,.18,.35h.18c.7-3.17,4.58-18.86,5.64-23.79,.18-.53,.35-.7,.88-.7h6.7c.88,0,.7,.18,.7,.88-2.82,10.4-9.52,35.25-10.05,37.36-.18,.53-.35,.7-.88,.7h-6.34c-.53,0-.88-.18-.88-.7-1.23-4.58-2.47-9.34-3.7-13.92h-.35c-.7,2.11-3.17,11.46-3.88,13.92-.18,.53-.35,.7-.88,.7h-6.7c-.53,0-.7-.18-.88-.7-3.35-12.51-6.52-25.03-9.87-37.54-.18-.7,0-.7,.53-.7h7.05c.53,0,.7,.35,.88,.7,1.41,5.99,5.11,22.38,5.64,24.5q.18,.18,.35,.18"/><path class="cls-1" d="M174.7,16.04c0-.7,.18-.7,.7-.88,2.11-.53,4.05-.88,6.34-1.41,.53-.18,.7,0,.7,.7V52.87c0,.53-.18,.7-.7,.7h-6.52c-.53,0-.7-.18-.7-.7,.18-6.52,.18-30.14,.18-36.83"/><path class="cls-1" d="M236.03,42.12c-3.17,0-6.7,.18-10.05-.35-.7-.18-.7,.18-.7,.88,.53,2.82,1.94,4.41,4.58,4.76,3.17,.35,6.34,0,9.52-.88,.53-.18,.88-.18,1.06,.7,.35,1.23,.7,2.64,1.06,3.88,.18,.7,0,.88-.53,1.06-3.17,1.59-6.7,2.11-10.05,1.94-2.11,0-4.41-.35-6.34-1.41-3.35-1.59-5.46-4.41-6.52-8.28-1.06-4.23-1.06-8.46,.18-12.51,1.06-3.7,3.17-6.34,6.34-7.75,4.05-1.76,8.11-1.76,12.16-.18,3.7,1.59,5.82,4.76,6.7,8.99,.53,2.64,.7,5.29,.18,7.93-.18,.7-.35,1.06-1.06,1.06h-6.52v.18Zm-5.29-6.17h4.58q1.06,0,1.06-1.23c-.18-3-1.41-4.58-3.52-5.11-1.41-.35-2.82-.18-4.05,.18s-2.11,1.23-2.64,2.64c-.35,.88-.53,1.94-.7,3,0,.53,0,.7,.53,.53h4.76Z"/><path class="cls-1" d="M285.38,54.11c-4.41,0-7.93-.53-11.28-2.29-.53-.35-.7-.53-.53-1.23,.35-1.41,.88-3,1.41-4.41,.18-.53,.35-.7,.88-.53,3.7,1.59,7.4,2.11,11.46,1.59,.53,0,1.06-.18,1.41-.35,1.23-.35,1.76-1.23,1.76-2.47,0-1.41-.53-1.94-1.94-2.29-1.94-.35-3.88-.7-5.82-.88-2.11-.35-4.23-.88-5.99-2.29-4.23-3.17-4.05-10.57,.35-13.75,1.94-1.41,4.23-1.94,6.34-2.29,4.41-.53,8.64,.18,12.69,1.76,.7,.18,.7,.53,.53,1.23-.35,1.41-.88,2.82-1.23,4.23-.18,.7-.35,.7-.88,.53-3.17-1.06-6.52-1.41-9.87-1.23-.7,0-1.41,.18-2.11,.35-1.06,.35-1.41,.88-1.41,1.94s.53,1.76,1.59,1.94l3.7,.53c2.29,.35,4.58,.7,6.87,1.59,2.29,1.06,4.23,2.64,4.76,5.64,.7,4.76-.53,9.52-5.82,11.28-2.47,1.23-4.93,1.41-6.87,1.41"/></g></svg>