<?xml version="1.0" encoding="UTF-8"?><svg id="logo_Insylo" xmlns="http://www.w3.org/2000/svg" viewBox="0 0 560 125.05"><defs><style>.cls-1{fill:#95d2d4;}.cls-2{fill:#2d2e83;}</style></defs><g><path class="cls-2" d="M559.54,61.78c-.81-5.83-2.65-11.33-5.65-16.43-3.06-5.19-6.94-9.69-11.54-13.54-3.77-3.16-7.87-5.82-12.43-7.78-5.97-2.57-12.21-3.81-18.66-4.11-2.96-.14-5.91,.12-8.85,.46-5.19,.6-10.16,1.94-14.89,4.1-6.8,3.12-12.63,7.54-17.59,13.16-3.21,3.64-5.87,7.6-7.87,12.03-2.57,5.69-3.72,11.68-3.89,17.86-.07,2.45,.24,4.93,.47,7.38,.46,4.88,1.82,9.54,3.89,13.97,2.89,6.2,6.93,11.56,12.06,16.1,2.49,2.2,5.07,4.24,7.91,5.99,7.13,4.38,14.93,6.58,23.22,7.06,4.32,.25,8.65,.04,12.94-.71,6.03-1.06,11.69-3.05,16.97-6.19,5.15-3.06,9.53-7,13.38-11.55,3.69-4.37,6.46-9.27,8.31-14.68,1.8-5.26,2.73-10.68,2.68-16.27-.15-2.29-.15-4.6-.46-6.86Zm-16.71,22.56c-1.15,2.4-2.69,4.56-4.36,6.63-2.26,2.8-4.87,5.25-7.83,7.29-4.54,3.13-9.46,5.35-14.99,5.99-2.19,.25-4.4,.54-6.59,.48-8.47-.22-16.31-2.49-23.12-7.71-4.68-3.59-8.55-7.91-11.11-13.29-1.51-3.17-2.59-6.49-2.86-10-.2-2.59-.38-5.21-.22-7.79,.28-4.53,1.53-8.83,3.63-12.9,1.7-3.3,3.89-6.23,6.46-8.84,3.95-4.01,8.52-7.17,13.87-9.03,3.3-1.14,6.7-1.85,10.23-2.03,2.13-.11,4.23-.03,6.33,.08,3.91,.21,7.69,1.13,11.32,2.57,3.81,1.51,7.22,3.67,10.35,6.34,3.93,3.36,7.07,7.28,9.25,11.95,1.5,3.22,2.51,6.6,2.83,10.16,.14,1.54,.25,3.07,.37,4.61,.07,5.47-1.23,10.6-3.57,15.49Z"/><polygon class="cls-2" points="219.61 88.82 151.62 19.27 151.65 114.82 164.29 114.82 164.4 50.13 232.11 119.25 232.11 23.03 219.61 23.03 219.61 88.82"/><path class="cls-2" d="M306.97,78.45c-2.82-5.93-7.3-10.35-12.83-13.76-3.92-2.42-8.1-4.34-12.3-6.21-3.11-1.39-6.15-2.93-9.14-4.54-2.22-1.2-4.31-2.61-5.79-4.74-2.05-2.94-2.33-6.07-.8-9.27,1.54-3.21,4.41-4.87,7.68-5.85,3.66-1.1,7.42-1.16,11.16-.52,1.78,.3,3.5,.87,5.06,1.9,2.12,1.4,3.97,3.09,5.74,4.89,.39,.4,.84,.74,1.33,1.18,3.44-2.82,6.91-5.43,10.24-8.27-.34-.51-.54-.91-.83-1.23-2.13-2.31-4.33-4.57-7.06-6.18-7.3-4.32-15.11-6.53-23.68-5.71-3.57,.34-6.95,1.27-10.15,2.84-3.13,1.54-5.78,3.71-8.17,6.25-3.42,3.63-5.22,7.96-5.63,12.85-.39,4.61,.63,8.95,3.06,12.93,2.07,3.39,4.65,6.34,7.85,8.7,3.47,2.57,7.36,4.38,11.29,6.12,3.96,1.75,7.92,3.51,11.79,5.44,4.34,2.17,7.48,5.6,9.46,10.03,1.77,3.94,1.47,7.9-.55,11.61-2.02,3.7-5.29,5.97-9.37,7.07-2.34,.63-4.74,.69-7.11,.48-2.61-.23-5.14-.89-7.46-2.18-4.31-2.4-7.41-5.95-9.68-10.27-.51-.96-1.02-1.92-1.57-2.96-4.28,1.21-8.43,2.38-12.79,3.61,.52,1.25,.93,2.27,1.37,3.28,1.62,3.71,3.67,7.17,6.32,10.23,3.34,3.84,7.26,6.96,11.99,9,3.99,1.72,8.13,2.71,12.45,2.88,2.02,.08,4.06-.08,6.08-.23,2.94-.21,5.73-1.07,8.39-2.31,4.2-1.97,7.67-4.85,10.58-8.44,2.56-3.15,4.24-6.7,5.06-10.66,.57-2.77,.85-5.54,.55-8.4-.35-3.34-1.08-6.53-2.51-9.55Z"/><path class="cls-2" d="M356.04,59.69l-22.48-36.78h-14.18s24.85,41.36,29.39,48.84c.52,.86,.74,1.73,.74,2.74-.03,12.86,0,40.21,0,40.21h12.77s.01-27.54,0-40.45c0-.91,.15-1.73,.63-2.52,3.56-5.84,29.56-48.84,29.56-48.84h-14.17l-22.24,36.79Z"/><polygon class="cls-2" points="420.96 22.91 408.52 22.91 408.52 114.79 450.64 114.8 450.64 102.38 420.98 102.38 420.96 22.91"/><polygon class="cls-2" points="119.18 22.97 119.18 114.77 131.66 114.77 131.65 22.97 119.18 22.97"/></g><g><path class="cls-1" d="M71.43,88.89c-2.73-1.52-5.59-1.8-8.54-.73-1.17,.42-2.07,1.18-2.3,2.55,.13,1.38,.99,2.34,2.22,2.83,1.3,.52,2.67,.94,4.05,1.12,1.87,.24,3.7-.08,5.29-1.22,1.37-.99,1.51-2.41,.37-3.62-.33-.35-.69-.71-1.1-.94Z"/><path class="cls-1" d="M52.89,86.39c-2.5-1.23-5.13-1.34-7.74-.5-1.42,.46-2.87,1.09-3.14,3.04,.26,1.52,1.33,2.32,2.66,2.83,2.23,.86,4.53,.82,6.77,.22,.93-.25,1.85-.87,2.58-1.53,1.02-.92,.96-2.16,0-3.18-.33-.35-.72-.68-1.14-.89Z"/><path class="cls-1" d="M34.61,88.51c-1.27-.71-2.62-1.06-3.74-.98-2.29-.01-4.09,.51-5.74,1.54-.92,.57-1.52,1.34-1.48,2.48,.04,1.1,.68,1.78,1.61,2.24,1.63,.81,3.36,1.12,5.16,.87,1.76-.25,3.46-.72,4.79-2.05,1.43-1.44,1.2-3.09-.59-4.1Z"/><path class="cls-1" d="M96.72,96.43C95.65,93.87,49.26,.59,48.93,0,48.61,.59,2.21,93.87,1.14,96.43c-2.34,5.61-.98,11.53,3.15,15.9,3.62,3.83,8.03,6.3,12.9,8.1,4.7,1.75,9.56,2.85,14.53,3.48,2.58,.32,5.17,.54,7.76,.79,3.15,.31,6.3,.37,9.45,.34,3.15,.03,6.31-.03,9.45-.34,2.59-.25,5.18-.47,7.76-.79,4.97-.62,9.83-1.73,14.53-3.48,4.87-1.81,9.28-4.27,12.9-8.1,4.13-4.37,5.49-10.28,3.15-15.9Zm-10.42,8.48c-2.01,2.84-4.88,4.55-7.97,5.94-4.44,2-9.16,2.96-13.93,3.68-2.18,.33-4.39,.37-6.58,.61-2.96,.32-5.92,.34-8.88,.29-2.96,.04-5.92,.03-8.88-.29-2.19-.24-4.41-.28-6.58-.61-4.77-.72-9.49-1.69-13.93-3.68-3.1-1.39-5.97-3.11-7.97-5.94-.81-1.15-1.41-2.4-1.26-3.99,2.14,.38,4.07,.11,5.93-.74,1.65-.76,3.11-1.79,3.94-3.41,1.17-2.27-.03-3.5-1.98-3.86-.88-.16-1.86-.05-2.76,.13-1.06,.21-2.07,.64-3.31,1.04,.49-.87,36.99-71.82,36.99-71.82,0,0,36.13,70.95,36.62,71.82-1.24-.4-2.25-.82-3.31-1.04-.9-.18-1.87-.3-2.76-.13-1.95,.36-3.14,1.59-1.98,3.86,.83,1.62,2.29,2.65,3.94,3.41,1.86,.85,3.79,1.13,5.93,.74,.15,1.59-.45,2.84-1.26,3.99Z"/></g></svg>