<?xml version="1.0" encoding="UTF-8"?><svg id="logo_KnowAge" xmlns="http://www.w3.org/2000/svg" viewBox="0 0 560 78.41"><defs><style>.cls-1,.cls-2{fill:#042d56;}.cls-3,.cls-4{fill:#042d57;}.cls-5{fill:rgba(207,7,83,1);}.cls-5,.cls-2,.cls-4{fill-rule:evenodd;}</style></defs><path id="E" class="cls-2" d="M513.57,.2V78.41h46.32v-9.64h-37.17v-23.87h37.28l-.28-10.34h-36.6V9.91h36.72V.2h-46.27Z"/><path id="G" class="cls-1" d="M455.04,.2c-21.6,0-39.11,17.51-39.11,39.11,0,21.6,17.51,39.11,39.11,39.11,21.82,0,37.82-16.63,37.52-38.04l-7.55,.06-34.86-.22v11.82h29.55c-4.25,9.09-13.07,15.64-25.23,15.64-16.91,0-28.07-15.51-28.07-28.7,0-14.31,12.57-27.12,28.07-27.12,13.89,0,22.39,7.32,26.01,16.37h12.07C487.77,12.02,472.79,.2,455.04,.2Z"/><path id="A" class="cls-2" d="M327.26,78.41L381.56,.2h14.12V78.41h-11.03V15.67l-42.2,62.74h-15.19Z"/><path id="W" class="cls-2" d="M243.42,.2h12.1V62.38L297.15,.2V62.66L340.2,.2h14.35l-53.17,78.21h-15.19V37.9l-28.13,40.51h-14.35L243.42,.2Z"/><path id="O" class="cls-1" d="M187.99,.2c-21.6,0-39.11,17.51-39.11,39.11,0,21.6,17.51,39.11,39.11,39.11,21.6,0,39.11-17.51,39.11-39.11,0-21.6-17.51-39.11-39.11-39.11Zm-.57,11.65c19.16,0,28.07,13.94,28.07,27.12,0,15.16-10.6,28.7-28.07,28.7-16.91,0-28.07-15.51-28.07-28.7,0-14.31,12.57-27.12,28.07-27.12Z"/><path id="N" class="cls-4" d="M74.71,78.41V.2h11.13l36.41,54.27V.2h11.54V78.41h-9.35L85.85,23.23v55.18h-11.14Z"/><path id="K2" class="cls-5" d="M44.73,0h15.72l-28.25,38.55,28.45,39.66h-15.92L16.68,38.95,44.73,0Z"/><rect id="K1" class="cls-3" y=".47" width="11.59" height="77.95"/></svg>