<?xml version="1.0" encoding="UTF-8"?>
<svg id="VELOCITY_LOGO_RGB" xmlns="http://www.w3.org/2000/svg" xmlns:xlink="http://www.w3.org/1999/xlink" viewBox="0 0 283.46 69">
  <defs>
    <style>
      .cls-1 {
        clip-path: url(#clippath);
      }

      .cls-2 {
        fill: none;
      }

      .cls-2, .cls-3 {
        stroke-width: 0px;
      }

      .cls-3 {
        fill: url(#linear-gradient);
      }
    </style>
    <clipPath id="clippath">
      <path class="cls-2" d="M76.04,50.47v-4.46c0-.45.24-.69.71-.71h9.19v-23.02h-7.47c-.45,0-.69-.22-.71-.68v-4.5c0-.45.24-.68.71-.68h12.6c.45,0,.69.23.71.68v28.19h10.29c.45,0,.69.24.71.71v4.46c0,.45-.24.68-.71.68h-25.33c-.47,0-.71-.23-.71-.68M94.01,5.91c0-2.63-2.13-4.76-4.76-4.76s-4.76,2.13-4.76,4.76,2.13,4.76,4.76,4.76,4.76-2.13,4.76-4.76M157.81,50.75v-20.48c0-3.9,2.85-8.27,8.54-8.27s8.54,4.37,8.54,8.27v20.48h0c.02.45.26.67.71.67h4.47c.45,0,.67-.22.67-.67v-20.59h0c-.03-3.53-1.13-6.85-3.85-9.82-2.43-2.65-6.63-4.2-10.42-4.2-6.12,0-8.65,4.31-8.65,4.31v-3.07c0-.45-.23-.67-.67-.67h-4.45c-.47,0-.71.23-.71.67v33.36c0,.45.24.67.71.67h4.45c.45,0,.67-.22.67-.67M244.88,3.97c0-.68-.1-.99-.69-1.41-2.29-1.38-4.48-1.94-7.53-1.94-7.14,0-10.33,5.91-10.33,11.4v4.41h-7.14c-.64,0-.98.34-.98.98v3.65c0,.64.34.98.98.98h7.14v28.11c0,.64.34.98.98.98h3.86c.64,0,.98-.34.98-.98v-28.11h11.06c.64,0,.98-.34.98-.98v-3.65c0-.64-.34-.98-.98-.98h-11.06v-4.41c0-3.62,1.83-5.79,4.9-5.79,2.35,0,4.02.55,6.39,2.11.28.19.49.19.64.19.47,0,.78-.39.78-.98v-3.59M189.17,50.47c0,.45.24.68.71.68h25.33c.47,0,.71-.23.71-.68v-4.46c-.02-.47-.26-.71-.71-.71h-10.29v-28.19c-.02-.45-.26-.68-.71-.68h-12.6c-.47,0-.71.23-.71.68v4.5c.02.45.26.68.71.68h7.47v23.02h-9.19c-.47.02-.71.26-.71.71v4.46M207.14,5.91c0-2.63-2.13-4.76-4.76-4.76s-4.76,2.13-4.76,4.76,2.13,4.76,4.76,4.76,4.76-2.13,4.76-4.76M136.96,47.22v4.32c0,6.66-3.48,10.32-9.8,10.32-4.78,0-7.7-1.95-8.68-5.8-.13-.46-.26-.9-.97-.9h-3.92c-.64,0-.98.34-.98,1.01.65,6.76,6.5,11.31,14.56,11.31,9.39,0,15.69-6.27,15.69-15.6V17.16c0-.45-.24-.67-.71-.67h-4.45c-.37,0-.67.3-.67.67v2.9c-2.21-2.09-4.94-3.58-7.96-4.22-.32-.07-.63.17-.63.5v5.25c0,.23.16.43.38.5,4.85,1.37,8.43,6.09,8.43,11.72,0,6.69-5.07,12.12-11.32,12.12s-11.32-5.43-11.32-12.12c0-5.51,3.43-10.16,8.14-11.63.22-.07.37-.26.37-.49v-5.36c0-.32-.29-.57-.61-.51-7.87,1.6-13.83,8.98-13.83,17.83,0,10.03,7.63,18.16,17.04,18.16,4.34,0,8.29-1.73,11.3-4.57M34.67,51.8c7.93,0,13.47-4.48,13.47-10.91,0-7.03-6.2-8.65-12.01-9.62-7.28-1.2-8.29-3.31-8.29-5.41,0-3.24,3.42-4.39,6.35-4.39,3.99,0,6.38,1.53,7.1,4.53.13.45.25.88.95.88h3.79c.59,0,.96-.37.96-.96,0-6-5.17-10.03-12.87-10.03-8.33,0-12.12,5.16-12.12,9.96,0,5.99,3.13,8.97,10.79,10.29l.21.04c5.24.93,9.03,1.6,9.03,5.37,0,3.2-3.71,4.66-7.16,4.66-4.28,0-6.92-2.05-7.44-5.78-.07-.45-.23-.92-.96-.92h-4.33c-.59,0-.96.37-.96.96,0,6.66,5.54,11.31,13.47,11.31M38.41.02s-.06,0-.09,0c-.27-.02-.6,0-.84.23-.15.15-.23.36-.23.62v4.46h0c0,.26.17.46.4.48,14.44,1.53,25.7,13.75,25.7,28.6,0,15.88-12.88,28.76-28.76,28.76S5.84,50.29,5.84,34.4c0-14.85,11.25-27.07,25.7-28.6.23-.02.4-.22.4-.48h0s0-4.46,0-4.46c0-.26-.07-.47-.23-.62-.24-.23-.57-.25-.84-.23-.03,0-.06,0-.09,0C13.47,1.91,0,16.58,0,34.4c0,19.11,15.49,34.6,34.6,34.6s34.6-15.49,34.6-34.6C69.19,16.58,55.72,1.91,38.41.02M263.24,54.12c-.43.94-1.24,3.5-2.21,4.84-.82,1.13-1.33,1.52-2.19,1.92-.5.26-1.08.4-1.69.4-.24,0-.48-.02-.71-.07-.86-.15-1.77-.49-2.6-.78-.51-.18-.87-.43-1.35-.43-.4,0-.82.23-.82.89v3.83s0,.01,0,.02c0,.51.15.94.84,1.32,1.54.7,2.88,1.11,5.12,1.11,1.8-.13,3.17-.62,4.64-1.52,1.45-.88,2.72-2.13,3.79-3.72.51-.77.95-1.57,1.33-2.38.83-1.77,13.39-34.9,16-41.96h0c.08-.25.08-.42.08-.56,0-.47-.31-.76-.82-.76h-4.2c-.69,0-.92.26-1.09.72,0,0,0,0,0,0l-9.87,25.98-10.18-25.82c-.23-.63-.51-.88-1.15-.88h-4.23c-.49,0-.82.33-.82.82,0,.2.05.35.1.49,0,0,0,.01,0,.02h0s13.17,33.53,13.17,33.53l-1.14,2.98"/>
    </clipPath>
    <linearGradient id="linear-gradient" x1="-23.2" y1="239.32" x2="306.66" y2="8.35" gradientUnits="userSpaceOnUse">
      <stop offset=".5" stop-color="#00e487"/>
      <stop offset="1" stop-color="#1ecbd0"/>
    </linearGradient>
  </defs>
  <g class="cls-1">
    <rect class="cls-3" x="-2.83" y="-20.73" width="289.13" height="289.13"/>
  </g>
</svg>