<?xml version="1.0" encoding="UTF-8"?><svg id="logo_Odins" xmlns="http://www.w3.org/2000/svg" viewBox="0 0 560 244.88"><defs><style>.cls-1{fill:#eaf1f3;}.cls-2{fill:#fff;}.cls-3{fill:#92d050;}.cls-4{fill:#215968;}.cls-5{fill:#22596b;}.cls-6{fill:#25586b;}</style></defs><circle class="cls-3" cx="437.56" cy="122.44" r="122.44"/><path class="cls-2" d="M487.75,145.07c-.82-4.9-2.43-9.5-5.31-13.6-.06-.43-.28-.74-.65-.95h0c-.13-.23-.23-.47-.38-.67-3.03-3.84-6.57-7.09-10.91-9.4-.64-.89-1.62-1.2-2.58-1.55-2.43-1.28-4.96-2.31-7.57-3.12-.71-.62-1.57-.89-2.49-.98-.25-.32-.59-.35-.96-.31h0c-5.08-1.82-10.37-2.92-15.55-4.36-3.22-.89-6.52-1.52-9.8-2.22-5.39-1.15-10.61-2.83-15.73-4.83-3.89-1.52-7.14-3.99-9.72-7.23-2.52-3.17-4.01-6.85-4.45-10.9-.48-4.42-.22-8.76,1.31-13,.93-2.6,2.44-4.85,3.9-7.14,.18-.04,.28-.15,.3-.33h0c.68-.5,1.31-1.05,1.66-1.85h0c1.37-.9,2.32-2.3,3.71-3.17,.44-.03,.76-.23,.95-.63h0c.51-.28,1-.57,1.52-.83,2.34-1.17,4.69-2.32,7.28-2.89,3.83-.84,7.71-.94,11.58-.62,3.08,.26,6.09,.93,8.99,2.11,2.53,1.03,4.96,2.24,7.37,3.51,.22,.38,.54,.6,.98,.63,.11,.3,.28,.56,.62,.64h0c.75,.74,1.56,1.4,2.52,1.87h0c.04,.18,.15,.28,.33,.31,.22,.42,.6,.66,.98,.91,.28,.49,.67,.84,1.21,1.02h0l.31,.27c.46,1.1,1.4,1.76,2.24,2.51h0c2.18,2.75,4.22,5.59,5.91,8.68,2.47,4.51,4.46,9.23,6.09,14.1,.98,2.93,1.76,5.92,2.6,8.89,.35,1.25,.36,1.26,1.71,1.28,1.31,.02,2.62,0,3.93,.01,.59,0,.87-.24,.85-.84-.02-.42,0-.84,0-1.26-.04-5.92-.1-11.84-.2-17.76-.14-8.59-.14-17.18-.21-25.78-.02-2.09-.11-4.19-.13-6.28,0-.75-.2-1.18-1.07-1.15-1.68,.05-3.35,.03-5.03,.03-.5,0-.92,.13-1.2,.59-.63,1.02-1.5,1.89-1.93,3.04-.72,.61-1.23,1.37-1.59,2.24h0c-1.36,1.6-2.3,3.49-3.56,5.16-1.16,1.53-1.1,1.56-2.65,.35-2.76-2.15-5.39-4.49-8.52-6.13-.13-.27-.35-.35-.63-.32-1.49-1-2.94-2.08-4.73-2.51h0c-3.37-1.63-6.96-2.57-10.64-3.15-5.26-.83-10.53-.78-15.79,.06-6.26,1-11.97,3.31-17.02,7.17-.96,.38-1.71,.99-2.25,1.87h0c-.2,.2-.4,.39-.6,.59-.18,.09-.4,.15-.55,.28-2.8,2.46-5.07,5.37-7.09,8.49-.14,.21-.17,.49-.24,.73h0c-1.07,1.54-2.03,3.14-2.51,4.98-.65,.98-1.06,2.05-1.25,3.21h0c-.46,.66-.61,1.41-.64,2.21h0c-.06,.09-.14,.17-.16,.26-1.88,7.77-2.26,15.58-.5,23.43,1.11,4.96,3.05,9.53,6.35,13.46,.29,.42,.54,.88,.89,1.26,1.44,1.56,2.81,3.19,4.76,4.16h0c.5,.54,1.05,1.01,1.68,1.4,3.09,1.9,6.4,3.37,9.73,4.76,4.89,2.04,10,3.47,15.11,4.81,8,2.1,16.07,3.92,23.96,6.42,3.96,1.25,7.8,2.72,11.41,4.8,2.58,1.49,4.82,3.35,6.68,5.65,2.96,3.67,4.38,7.92,4.57,12.62,.28,7.06-1.44,13.48-5.93,19.06-.09,.11-.11,.29-.17,.43-.27,.17-.48,.39-.59,.7h0c-1.15,.95-2.18,2.02-3.17,3.13h0c-.18,.01-.3,.11-.33,.3h0c-.72,.19-1.09,.77-1.51,1.31h0c-1.92,1.29-3.97,2.34-6.02,3.4-1.14,.23-2.24,.55-3.18,1.28h0c-.41,.08-.82,.14-1.23,.24-2.6,.63-5.22,1.03-7.9,1.11-5.11,.14-10.12-.29-14.98-1.98-3.13-1.21-6.2-2.57-9.17-4.13h0c-2.12-1.54-4.23-3.08-6.35-4.63-.62-.76-1.17-1.59-2.14-1.97h0l-3.15-3.1c-.38-.76-.87-1.43-1.58-1.92h0c-1.1-1.53-2.27-3-3.33-4.57-3.99-5.87-6.7-12.31-8.62-19.1-.7-2.47-1.27-4.97-1.72-7.5-.22-1.23-.26-1.23-1.54-1.25-1.21-.02-2.41-.02-3.62,0-1.99,.02-1.93-.24-1.92,1.99,0,17.41,0,34.81,0,52.22,0,.31,.03,.63,0,.94-.08,.78,.33,1.01,1.03,1.01,1.78-.02,3.57-.01,5.35-.02,.33,0,.62-.09,.8-.39,.4-.16,.62-.47,.71-.88h0c2.3-2.94,4.73-5.76,6.88-8.81,.95-.79,1.72-1.72,2.23-2.85h0c.53-.46,1.02-.45,1.5,.08,.28,.31,.55,.63,.87,.9,4.96,4.1,10.41,7.42,16.46,9.62,9.82,3.58,19.94,4.15,30.19,2.42,3.98-.67,7.87-1.76,11.37-3.88,.27,.02,.51-.04,.65-.3,.27,0,.49-.08,.62-.33,.27,0,.5-.05,.64-.31h0c.5-.05,.89-.3,1.21-.68h0c3.23-1.81,6.03-4.16,8.56-6.85,.95-.86,1.88-1.72,2.53-2.85h0c.19-.04,.28-.16,.3-.35h0c1.08-.95,1.73-2.22,2.52-3.38,2.78-4.12,4.7-8.63,5.82-13.45,1.51-6.48,1.88-13.03,.78-19.62Z"/><path class="cls-6" d="M320.85,225.9c.03-.42,.07-.83,.07-1.25,0-1.3,0-1.31-1.25-1.33-1.46-.02-2.93,.04-4.38-.03-2.8-.12-5.11-1.04-6-4.03-.2-2.61-.13-5.23-.13-7.84,0-9.21,.01-18.41-.01-27.62,0-1.87,.05-3.75-.47-5.59h0c.09-.69-.1-1.35-.22-2.02-.46-2.38-1.28-4.65-2.33-6.82-2.69-5.57-7.09-9.05-13.16-10.15-4.37-.79-8.73-.55-13.04,.86-5.6,1.82-9.99,5.19-13.47,9.84-.82,1.09-1.63,2.19-2.49,3.34-.34-.48-.27-.86-.3-1.21-.33-4.08-.84-8.13-1.61-12.15-.23-1.21-.22-1.21-1.51-1.15-5.92,.3-11.83,.65-17.73,1.25-.98,.1-2.22-.31-2.89,.33-.74,.71-.23,1.99-.26,3.01-.06,1.78-.16,1.72,1.7,1.67,2.59-.06,5.14,.06,7.47,1.37,1.02,.98,2.05,1.93,2.5,3.36,.41,1.31,.68,2.63,.66,4.01-.02,2.36-.01,4.72-.01,7.08,0,12.27,0,24.54,0,36.81,0,2.91-1.3,4.57-4.12,5.32-.45,.12-.95,.09-1.36,.36h0c-1.3,0-2.6,0-3.9-.01q-2.48,0-2.27,2.57c-.03,.78-.05,1.56-.08,2.34-.02,.5,.19,.79,.73,.78,.42,0,.84,0,1.26,0,7.69,0,15.37,0,23.06,0,3.03,0,6.07,0,9.1,0,1.11,0,1.11-.03,1.11-1.24-.02,0-.04-.03-.06-.1,0,0,0-.02,0-.03,.02,.04,.04,.09,.06,.13v-.31h0c.03-.66,.07-1.33,.07-1.99q0-2.24-2.23-2.07c-1.14-.03-2.28-.04-3.41-.1-2.93-.15-5.25-1.19-6.03-4.34-.03-1.25-.09-2.5-.09-3.75,.04-9.45-.1-18.9,.09-28.34,.08-.36,.2-.71,.25-1.07,.54-4.18,1.98-8,4.45-11.42,1.74-2.41,3.92-4.37,6.56-5.72,3.27-1.67,6.79-1.98,10.4-1.39,1.94,.32,3.78,.94,5.33,2.16,3.23,2.54,5.02,5.92,5.82,9.92,.46,2.32,.49,4.67,.82,6.99-.03,.31-.07,.62-.07,.93,0,9.59,0,19.18,0,28.78,0,.42,.05,.83,.08,1.25h0c-.06,.3-.14,.61-.18,.91-.35,2.65-1.52,4-4.12,4.67-1.22,.31-2.46,.45-3.72,.44-.99,0-1.98,0-2.97,0-.45,0-.89,.06-.85,.64,.09,1.59-.27,3.2,.21,4.78h0c.36,.46,.82,.23,1.26,.19,.26,.03,.52,.08,.78,.08,10.53,0,21.06,0,31.58,0,.21,0,.42,0,.63,0,.54,.02,.75-.26,.74-.77-.03-.78-.05-1.57-.07-2.35Zm-68.48-52.23c-.16-.47-.24-.95-.06-1.4,.04,.47,.05,.93,.06,1.4Zm22.77,50.48c-.09-.09-.21-.17-.35-.25,.17,.02,.28,.11,.35,.25Z"/><path class="cls-5" d="M231.16,223.33c-.31,0-.63,0-.94,0-2.05,0-4.1,.07-6.14-.03-1.93-.1-3.77-.53-4.58-2.64-.06-1.2-.44-2.35-.44-3.56,0-18.19,0-36.37,0-54.56,0-.94,.27-1.86,.03-2.81-.12-.48-.22-.83-.8-.53-.39,.11-.78,.13-1.17,.03-.24,.13-.5,.13-.77,.12-4.82-.19-9.63,.22-14.45,.34-2.77,.07-5.54,.36-8.32,.29-.57-.01-1.21,.11-1.2,.72,0,1.69-.37,3.4,.22,5.06,2.09,0,4.17-.02,6.26,.03,3.47,.1,6.32,1.26,7.72,4.75,.41,1.74,.4,3.52,.4,5.3-.01,14.38-.01,28.76-.01,43.14h0c-.09,.25-.19,.49-.26,.74-.58,1.96-1.88,3.07-3.88,3.45-.68,.13-1.35,.18-2.03,.18-1.94,0-3.88,.02-5.82,0-.71-.01-1.07,.16-1.04,.95,.04,1.26,.04,2.52,0,3.78-.02,.76,.31,1.05,1.03,.98,.21-.02,.42,0,.63,0,11.44,0,22.87,0,34.31,0,.42,0,.84-.01,1.26-.01,.44,0,.69-.19,.69-.65,0-1.47,0-2.94,0-4.4,0-.48-.27-.63-.7-.63Z"/><circle class="cls-3" cx="214.05" cy="129.57" r="12.29"/><circle class="cls-3" cx="267.97" cy="95.83" r="22.93"/><g><path class="cls-4" d="M186.03,223.33c-.47,0-.94,0-1.42,0-1.62-.04-3.25,.11-4.86-.24-2.64-.58-4.39-2.09-5.12-4.74-.52-1.89-.66-3.81-.66-5.76,0-28.89,0-57.79,0-86.68,0-1.84,0-3.67-.01-5.51-.01-1.3-.02-1.32-1.28-1.26-6.24,.27-12.47,.53-18.71,.82-1.68,.08-3.34,.31-5.02,.38-.83,.03-1.11,.37-1.07,1.15,.04,.78,0,1.57,.01,2.36,.02,2.32-.28,2.07,2.11,2.08,2.36,0,4.73-.07,7.04,.5,3.47,.86,5.15,2.99,5.15,6.53,0,12.22,0,24.44,0,36.65v1.15c-1.51-2.18-3.07-4.12-4.76-5.99-2.53-2.8-5.66-4.66-9.18-5.83-3.5-1.16-7.14-1.18-10.74-.53-4.97,.9-9.21,3.25-12.94,6.67-5.28,4.84-8.61,10.78-10.19,17.7-1.99,8.75-1.76,17.48,.81,26.11,1.84,6.19,5.24,11.43,10.16,15.57,3.55,2.99,7.69,4.9,12.37,5.37,3.69,.37,7.31,.15,10.79-1.4,2.02-.9,3.88-2.05,5.73-3.24,.2-.03,.33-.14,.4-.32,.8-.46,1.46-1.06,1.89-1.89,2.16-2.28,3.84-4.92,5.6-7.78,.1,.54,.16,.79,.19,1.05,.47,3.74,.95,7.49,1.4,11.23,.17,1.46-.02,1.53,1.68,1.53,6.56,0,13.11,0,19.67,0,.31,0,.63-.01,.94,0,.44,0,.7-.19,.7-.65,0-1.47,0-2.94,0-4.4,0-.48-.28-.63-.71-.63Zm-25.92-14.28c-.35,1.04-.65,2.09-1.31,3-.22,.84-.66,1.57-1.19,2.25h0c-.06,.44-.3,.76-.67,.99-3.54,5.3-8.25,8.39-14.87,7.78-3.43-.32-6.22-1.86-8.55-4.44-3.01-3.32-4.42-7.31-5.22-11.58-1.37-7.31-1.42-14.68-.82-22.06,.28-3.4,.87-6.74,2.03-9.97,1.99-5.51,5.61-9.29,11.44-10.58,3.39-.75,6.65-.18,9.66,1.62h0c.27,0,.51,.07,.63,.35,.27,0,.46,.11,.58,.35h.02c.19,0,.32,.08,.38,.27,2.85,1.87,4.69,4.59,6.24,7.52,2.7,5.11,3.65,10.66,3.82,16.36,.18,6.15-.18,12.25-2.17,18.14Z"/><path class="cls-4" d="M97.12,166.12c-.75-6.61-2.47-12.95-5.28-18.99-3.14-6.75-7.41-12.66-13.06-17.5-4.28-3.66-9.05-6.6-14.41-8.5-.79-.28-1.58-.56-2.36-.86-2.56-.96-5.21-1.53-7.94-1.72-.32-.05-.67-.16-.98-.16-1.99-.32-4.01-.38-6.03-.32-1.61,.05-3.24,.03-4.81,.48-.74-.06-1.45,.03-2.13,.35-.45-.05-.89-.03-1.27,.26-1.86,.14-3.53,.91-5.24,1.57-3.43,1.32-6.69,2.93-9.77,4.98-6.09,4.05-10.95,9.22-14.81,15.39-4.37,6.99-7.11,14.6-8.24,22.73-1.66,11.93-.8,23.62,3.63,34.94,2.31,5.91,5.42,11.34,9.44,16.23,2.94,3.58,6.35,6.71,10.24,9.23,6.76,4.38,14.1,7.13,22.25,7.36,6.52,.19,12.85-.64,18.87-3.33,3.21-1.43,6.33-2.97,9.24-4.99,4.48-3.12,8.34-6.83,11.57-11.21,5.42-7.34,8.81-15.54,10.45-24.49,1.3-7.11,1.46-14.27,.64-21.45Zm-18.92,28.52c-1.24,7.09-3.5,13.82-7.59,19.79-2.49,3.63-5.68,6.53-9.68,8.53-6.57,3.29-13.38,3.71-20.31,1.64-3.88-1.16-7.38-3.2-10.27-6.14-1.43-1.46-2.89-2.87-4.09-4.55-3.41-4.81-5.11-10.28-6.27-15.96-1.62-7.95-1.99-16-1.98-24.08,0-6.77,.41-13.51,1.64-20.18,.89-4.86,2.28-9.57,4.47-14.02,.91-1.84,2.05-3.55,3.31-5.15,3.03-3.83,6.68-6.87,11.28-8.78,5.44-2.26,11.01-2.66,16.63-1.23,6.52,1.66,11.76,5.3,15.58,10.94,4.09,6.04,6.16,12.77,7.32,19.88,1.07,6.59,1.32,13.24,1.42,19.25-.02,7.14-.34,13.63-1.46,20.05Z"/><path class="cls-1" d="M154.65,224.9c.63-.64,1.13-1.41,1.91-1.91-.04,1.24-.91,1.63-1.91,1.91Z"/><path class="cls-1" d="M154.26,225.22c.07-.19,.2-.3,.41-.32-.06,.2-.19,.31-.41,.32Z"/></g></svg>