<?xml version="1.0" encoding="utf-8"?>
<!-- Generator: Adobe Illustrator 28.3.0, SVG Export Plug-In . SVG Version: 6.00 Build 0)  -->
<svg version="1.1"
	 id="svg2" xmlns:cc="http://creativecommons.org/ns#" xmlns:svg="http://www.w3.org/2000/svg" xmlns:rdf="http://www.w3.org/1999/02/22-rdf-syntax-ns#" xmlns:dc="http://purl.org/dc/elements/1.1/"
	 xmlns="http://www.w3.org/2000/svg" xmlns:xlink="http://www.w3.org/1999/xlink" x="0px" y="0px" viewBox="0 0 283.5 47.9"
	 style="enable-background:new 0 0 283.5 47.9;" xml:space="preserve">
<style type="text/css">
	.st0{fill:#0492D2;}
	.st1{fill:#4A463D;}
</style>
<g id="g10" transform="matrix(1.25,0,0,-1.25,0,68.675)">
	<g id="g12" transform="scale(0.1,0.1)">
		<path id="path14" class="st0" d="M2265.3,381.5c-1.7,2.1-3.4,4.2-5.1,6.3c-18.7,22.8-37,40.8-54.5,53.5c10.6,1,28.1,0.8,40.2,0.7
			c3.7,0,6.9-0.1,9.5-0.1c6,0.1,10.9,5,10.9,11c0,2.5-0.9,4.8-2.5,6.8c-2.1,2.5-5,4-8.5,4c-3.5,0-7.5,0-12,0
			c-15.1,0-33.8,0-46.4-1.3c1.8,7.2,2.5,13.9,3.1,20.4c0.4,3.4,0.7,6.9,1.2,10.4c0.4,3.3,0.4,9.4,0.4,15.9c0,6.2,0,12.6,0.4,15.7
			c0.4,3-0.4,6-2.4,8.4c-1.7,2-4,3.3-6.8,3.8l0,0c-2.9,0.4-5.8-0.3-8.1-2c-2.3-1.8-3.8-4.3-4.2-7.2c-0.5-3.3-0.5-9.5-0.5-16
			c0-6.1,0-12.5-0.4-15.6l-0.6-4.9c-0.6-4.5-1.2-9.5-2.2-14.9c-8.3,16.3-20.4,34.5-32.6,49.5c-5.4,6.6-11.2,13.3-17.3,19.9
			c-4,4.2-11.1,4.5-15.4,0.6c-4.4-4.1-4.7-11-0.6-15.4c11.5-12.5,22.4-25.9,32.6-39.9c-29.1,17.1-59.5,29.1-90.7,35.9
			c-5.8,1-11.3-2.7-12.6-8.5c-1.2-5.8,2.5-11.6,8.4-13c35.3-7.5,70.1-22.9,103.4-45.7l-9.3-0.6c-32-2.2-55.2-3.8-91.2-12.4
			c-2.8-0.6-5.2-2.4-6.8-4.9c-1.5-2.5-2-5.4-1.3-8.2c1.4-5.7,7.4-9.4,13.1-8c35.7,8.5,62.1,10.6,92.4,12.4
			c-24.7-14.6-60.6-36.8-88.7-58.4c-44.5-34.2-75.5-68.1-79.2-72.2c-11.1-0.1-28.4-8.7-46.5-23.1c-11.4-9.1-30.8-33.5-27.1-47.9
			c1.4-5.4,5.8-8.9,13-10.2c2.4-0.4,5-0.6,8-0.5c10.4,0.1,27.5,13.7,36.8,21.9c11.4,9.9,29.7,29.5,33.4,42.1
			c0.4,0.5,42.3,44.3,81.1,75.9c29.8,24.3,65.5,45.8,88.3,58.6c-6.5-33.8-16.4-73.8-35.8-111.3c-1.3-2.6-1.6-5.5-0.7-8.3
			c0.9-2.8,2.8-5,5.4-6.3c1-0.5,2.1-0.9,3.2-1.1c4.7-0.8,9.4,1.5,11.6,5.7c15.8,30.6,27.4,65.4,36.4,109.1
			c14.1-34,22.6-68.3,25.2-102.3c0.5-5.9,5.7-10.5,11.7-10c5.9,0.4,10.4,5.7,10,11.7c-2.5,32-9.9,64.4-21.9,96.4
			c12.2-12.5,24.1-25.9,35.3-40c3.6-4.5,10.8-5.2,15.2-1.6c2.3,1.8,3.7,4.3,4.1,7.2C2268,376.4,2267.1,379.2,2265.3,381.5"/>
		<path id="path16" class="st1" d="M159.3,421.3l-2.5-52.7c-7.8-2.3-15.3-3.9-22.5-4.9c-7.2-0.9-13.5-1.4-18.7-1.4
			c-14.5,0-27.4,2.8-38.6,8.4c-11.2,5.6-19.2,13.5-24,23.7c-4.8,10.2-7.1,21.7-7.1,34.6c0,11.6,2.1,22.8,6.2,33.7
			c4.2,10.9,10.2,20,18.2,27.3c8,7.4,17.4,12.8,28.4,16.3c11,3.5,22.6,5.2,34.9,5.2c19.1,0,40.5-3.9,64.1-11.9
			c-1,12.5-1.5,24.4-1.6,35.7c-25.2,5.2-47.6,7.8-67,7.8c-14.1,0-27.5-1.2-40.2-3.7c-12.7-2.4-24.6-7-35.9-13.6
			c-11.3-6.7-20.9-15-28.8-25c-8-10-14-21-18-33c-4-12-6.1-24.5-6.1-37.4c0-15.1,2.7-29.5,8.2-43c5.4-13.6,13.4-24.5,23.8-32.8
			c10.4-8.3,23.2-14.3,38.2-18c15.1-3.7,31.4-5.5,49-5.5c9.4,0,20.8,0.7,34.2,2c13.4,1.4,28.4,3.7,45,7c1.1,40.9,3,78.2,5.6,111.7
			c-11-0.2-43.2-0.5-43.2-0.5L159.3,421.3"/>
		<path id="path18" class="st1" d="M251.3,539.6c-0.5-32-1.8-69.9-4-113.8c-2.1-43.9-4-74.3-5.4-91.2c13.4,0.2,21.1,0.3,23,0.3
			c5.7,0,12.7-0.1,20.9-0.3l0.6,27.9l5.2,122.2l3.6,54.8c-8.5-0.2-15.7-0.3-21.6-0.3C269.2,539.2,261.7,539.3,251.3,539.6"/>
		<path id="path20" class="st1" d="M444.7,386.7c-3.4-8.5-8.3-14.9-15-19.2c-6.6-4.4-14.3-6.5-23.1-6.5c-8.6,0-16,2.1-22.2,6.3
			c-6.3,4.2-10.7,9.7-13.5,16.5c-2.7,6.8-4.1,14.5-4.1,23.3c0,9.9,1.7,19.1,5,27.5c3.3,8.4,8.4,14.7,15.3,19
			c6.8,4.2,14.6,6.4,23.3,6.4c8.8,0,16.2-2,22.4-6.1c6.1-4.1,10.5-9.6,13.1-16.4c2.6-6.8,3.9-14.3,3.9-22.7
			C449.7,404.5,448,395.2,444.7,386.7z M470.3,470.4c-7.3,6.7-16.3,11.9-26.9,15.3c-10.6,3.5-21.6,5.2-33.1,5.2
			c-12.4,0-24.4-2.1-36-6.5c-11.6-4.3-21.1-10.3-28.6-18.1c-7.5-7.8-12.9-16.7-16.4-26.7c-3.5-10-5.3-20.5-5.3-31.5
			c0-10.8,1.9-21.1,5.8-31.1c3.8-9.9,9.5-18.3,16.9-25.2c7.4-6.9,16.3-12.1,26.8-15.6c10.4-3.4,21.5-5.2,33.1-5.2
			c12.5,0,24.3,1.9,35.3,5.8c11.1,3.9,20.3,9.7,27.7,17.4c7.4,7.8,13,17,16.9,27.6c3.9,10.6,5.8,21.6,5.8,33
			c0,10.8-1.8,21.1-5.5,30.9C483.2,455.4,477.7,463.6,470.3,470.4"/>
		<path id="path22" class="st1" d="M640.9,388.2c-3.2-8.6-7.9-15.1-14-19.6c-6.1-4.5-13.3-6.7-21.6-6.7c-7.6,0-14.4,1.9-20.5,5.9
			c-6.1,3.9-10.4,9.4-13,16.6c-2.5,7.2-3.8,16.9-3.8,29.4c0,5.2,0.2,10.6,0.5,16.1l1.2,25.7c7.4,2.1,13.6,3.5,18.6,4.3
			c5,0.8,9.8,1.1,14.4,1.1c14.1,0,24.9-4.2,32.2-12.5c7.3-8.3,10.9-19.3,10.9-33C645.7,405.9,644.1,396.8,640.9,388.2z M652.9,483.4
			c-10.8,5-24,7.4-39.7,7.4c-5.7,0-11.5-0.3-17.3-1c-5.8-0.7-13.6-1.9-23.4-3.8c1,21.5,2.3,39.3,4,53.5c-7.4-0.2-14.3-0.3-20.8-0.3
			c-6.5,0-14.2,0.1-23.1,0.3c-0.1-23.4-1.2-58.7-3.4-105.8c-2.2-47.1-4.2-80.2-6-99.2c10.6,0.2,17.7,0.3,21.3,0.3
			c4.7,0,11.2-0.1,19.4-0.3l0.7,25.5c2.6-4.3,4.9-7.6,6.8-10c2-2.4,4.4-4.8,7.4-7.2c3-2.4,6.3-4.5,10-6.3c3.7-1.8,7.9-3.1,12.3-4.1
			c4.5-1,9.3-1.4,14.5-1.4c10.8,0,20.8,1.9,30,5.8c9.2,3.9,17,10,23.5,18.4c6.5,8.4,11.3,17.9,14.6,28.7c3.3,10.8,4.9,21.8,4.9,33.3
			c0,16.3-3.2,30.2-9.8,41.7C672.3,470.3,663.6,478.5,652.9,483.4"/>
		<path id="path24" class="st1" d="M839.8,487c-9.2,2.6-19.3,3.8-30.4,3.8c-9.7,0-19.8-0.6-30.2-1.9c-10.4-1.3-22.4-3.6-36-6.7
			c-0.9-5.9-1.5-10.3-1.9-13.3c-0.3-2.9-1.2-7.9-2.6-15.1c22,8.7,42.2,13.1,60.4,13.1c4.9,0,9.4-0.5,13.5-1.6
			c4.1-1.1,7.3-2.9,9.9-5.6c2.6-2.7,3.8-6,3.8-9.9c0-2-0.4-4-1.3-5.9c-0.9-1.9-2.2-3.7-4-5.5c-1.8-1.7-3.9-3.2-6.4-4.3
			c-2.4-1.1-5.7-2.2-9.9-3.4c-4.1-1.2-8-2.1-11.8-2.9c-14.3-3.1-25.9-6.2-34.6-9.2c-8.7-3-15.4-6.2-20-9.5
			c-4.6-3.3-8.4-6.6-11.3-10.1c-2.9-3.5-5.1-7.4-6.6-11.6c-1.5-4.2-2.3-8.5-2.3-12.8c0-7.5,1.9-15,5.8-22.4
			c3.8-7.4,9.8-12.8,17.9-16.2c8.1-3.4,18.5-5.1,31.1-5.1c3.6,0,7.5,0.1,11.7,0.4c4.2,0.3,9.1,1,16.2,2.2
			c2.8,11.3,5.3,19.7,7.4,25.4c-6-2-10-3.1-13.6-3.7c-3.6-0.5-6.9-0.8-10.1-0.8c-5,0-9.4,0.6-13.1,1.8c-3.7,1.2-6.8,3.3-9.2,6.4
			c-2.5,3-3.7,6.7-3.7,10.9c0,2.6,0.5,5,1.5,7.3c0.9,2.3,2.5,4.4,4.6,6.5c2.1,2,4.7,3.9,7.7,5.6c3.1,1.6,6.5,3.1,10.3,4.4
			c3.8,1.3,8.9,2.8,15.2,4.6c6.3,1.7,10.7,3,13.2,3.9c2.5,0.9,4.8,1.8,6.8,2.8c2,1,4.9,2.7,8.7,5.2l-2-37.4
			c-0.8-15.9-1.9-29.9-3.2-42c8.2,0.2,15.4,0.3,21.5,0.3c6.4,0,13.4-0.1,21.1-0.3c0.3,24.9,1.2,49.1,2.8,72.5
			c1.6,23.4,2.4,37.9,2.4,43.6c0,10.5-2.6,18.6-7.8,24.2C856.2,480.4,849,484.5,839.8,487"/>
		<path id="path26" class="st1" d="M1352.8,386.7c-3.3-8.5-8.3-14.9-15-19.2c-6.6-4.4-14.3-6.5-23.1-6.5c-8.6,0-16,2.1-22.2,6.3
			c-6.2,4.2-10.7,9.7-13.5,16.5c-2.7,6.8-4.1,14.5-4.1,23.3c0,9.9,1.7,19.1,5,27.5c3.4,8.4,8.4,14.7,15.3,19
			c6.8,4.2,14.6,6.4,23.3,6.4c8.8,0,16.2-2,22.3-6.1c6.1-4.1,10.5-9.6,13.1-16.4c2.6-6.8,3.9-14.3,3.9-22.7
			C1357.8,404.5,1356.1,395.2,1352.8,386.7L1352.8,386.7z M1378.4,470.4c-7.3,6.7-16.3,11.9-26.9,15.3c-10.6,3.5-21.6,5.2-33.1,5.2
			c-12.4,0-24.4-2.1-36-6.5c-11.6-4.3-21.2-10.3-28.6-18.1c-7.5-7.8-12.9-16.7-16.4-26.7c-3.5-10-5.3-20.5-5.3-31.5
			c0-10.8,1.9-21.1,5.8-31.1c3.9-9.9,9.5-18.3,16.9-25.2c7.4-6.9,16.4-12.1,26.8-15.6c10.4-3.4,21.5-5.2,33.1-5.2
			c12.5,0,24.3,1.9,35.4,5.8c11,3.9,20.3,9.7,27.7,17.4c7.4,7.8,13.1,17,17,27.6c3.9,10.6,5.9,21.6,5.9,33c0,10.8-1.8,21.1-5.6,30.9
			C1391.3,455.4,1385.8,463.6,1378.4,470.4"/>
		<path id="path28" class="st1" d="M1584,476.8c-5,4.9-11.6,8.5-19.8,10.7c-8.1,2.3-16.7,3.4-25.6,3.4c-5.6,0-11-0.4-16.2-1.3
			c-5.2-0.9-9.8-2.1-14-3.6c-4.2-1.5-8.1-3.5-11.7-6c-3.6-2.5-6.6-5.1-9-7.7c-2.4-2.6-5.1-6.1-8.2-10.5l1.7,25.5
			c-7.3-0.2-14.3-0.3-20.7-0.3c-5.5,0-12.9,0.1-22.1,0.3c-0.2-22.4-1.1-47.8-2.6-76.1c-1.5-28.3-3.4-53.9-5.7-76.6
			c9,0.2,16.7,0.3,23,0.3c6.2,0,13.2-0.1,20.9-0.3c0.6,24,1.4,43.2,2.4,57.5c1.1,16.1,2.8,27.7,5.1,34.6c2.2,6.7,5.3,12.2,9.3,16.7
			c3.8,4.4,8.3,7.7,13.5,10c5.2,2.3,10.8,3.4,16.8,3.4c6.1,0,11.8-1.3,17-3.7c5.3-2.5,9.1-6.1,11.6-11c2.5-4.8,3.7-11.2,3.7-19
			c0-7-0.6-21.4-1.8-43c-1.2-21.7-2.2-36.9-3-45.6c7.7,0.2,15.4,0.3,23,0.3c5.6,0,12.4-0.1,20.3-0.3c0.1,10.3,0.3,20,0.7,29.1
			l3.1,65.6c0.3,5.9,0.5,10.2,0.5,12.9c0,6.5-0.8,12.7-2.4,18.5C1592.3,466.5,1589,471.9,1584,476.8"/>
		<path id="path30" class="st1" d="M1641.7,542v-4.8c0-5.5-0.2-13.4-0.6-23.7c8.4,0.2,15.8,0.3,22.2,0.3c6.4,0,13.4-0.1,21-0.3
			l0.7,20c0.1,3.2,0.3,6.1,0.6,8.6c-6.7-0.2-14-0.3-21.8-0.3C1658.3,541.6,1650.8,541.8,1641.7,542"/>
		<path id="path32" class="st1" d="M1640.4,487.3c-0.3-18.8-0.9-38.7-1.6-59.6c-0.8-20.9-1.7-39.4-2.7-55.4
			c-0.6-10.1-1.7-22.7-3.2-37.7c10.5,0.2,18.4,0.3,23.6,0.3c5.5,0,12.8-0.1,21.9-0.3c0,11.9,0.2,28.1,0.6,48.5
			c0.4,20.4,1,38.6,1.8,54.4c0.8,15.8,1.9,32.5,3.3,49.9c-10.1-0.2-17.3-0.3-21.8-0.3C1657.4,487,1650.1,487.1,1640.4,487.3"/>
		<path id="path34" class="st1" d="M1802.6,361.9c-9.2,0-17.4,1.9-24.6,5.7c-7.2,3.8-12.3,9.2-15.2,16.1c-3,6.9-4.4,15.2-4.4,24.7
			c0,6.8,0.9,13.5,2.8,20c1.9,6.5,5,12.2,9.3,17.2c4.3,4.9,9.6,8.6,15.6,10.9c6,2.3,12.5,3.4,19.3,3.4c11.1,0,24.1-2.5,39-7.6
			l-2.2,32.9c-9.4,2.3-17.6,3.8-24.5,4.6c-6.9,0.7-13.6,1.1-20.1,1.1c-11.7,0-22.4-1.3-31.9-4c-9.6-2.7-18.3-7.7-26.1-15
			c-7.8-7.4-13.8-16.9-17.8-28.5c-4-11.6-6-23.7-6-36.4c0-9.5,1.2-18.7,3.7-27.7c2.4-9,6.1-16.6,11-22.9c4.9-6.3,10.6-11.4,17-15.2
			c6.4-3.9,13.4-6.6,20.9-8.1c7.5-1.5,15.3-2.2,23.4-2.2c13.9,0,28,1.6,42.4,4.9c1.1,7.7,2.1,14.2,3.2,19.4c1,5.2,1.8,9.9,2.2,14
			c-7.2-2.6-14-4.5-20.5-5.6C1812.6,362.5,1807.1,361.9,1802.6,361.9"/>
		<path id="path36" class="st1" d="M1051.5,532.5c-10.6-2.6-17.8-4.2-21.5-4.9c0,0-15.8-16.3-18.1-19.1c-0.5-10.2-1-17.8-1.5-22.6
			h-18.8c-1.3-1.4-2.6-2.8-4-4.2c-0.4-11.1-0.8-19.5-1.2-24.8h21.6l-3.5-62.5c-0.7-12-1.1-19.1-1.2-21.3c-0.1-2.2-0.1-3.9-0.1-5.2
			c0-5.1,0.7-10.1,2-14.8c1.4-4.8,4-8.9,7.7-12.4c3.8-3.6,8.6-6,14.5-7.5c5.9-1.4,12.5-2.1,19.9-2.1c4.2,0,8.7,0.3,13.5,0.8
			c4.8,0.5,11.4,1.7,19.8,3.6c2.6,14.9,4.5,25.1,5.7,30.6c-6.9-1.8-11.7-2.9-14.5-3.3c-2.8-0.4-5.4-0.6-7.9-0.6
			c-3.4,0-6.6,0.8-9.6,2.3c-3,1.5-5.2,3.9-6.5,7.3c-1.3,3.4-2,8.2-2,14.4c0,6.4,1,30,3.1,70.7h38.3c0,5.8,0.3,15.5,1,29h-38.2
			C1050.4,497.7,1050.8,519,1051.5,532.5"/>
		<path id="path38" class="st1" d="M1125.3,486c0.2-8,0.3-12.7,0.3-14.3c0-8.6-0.1-17.1-0.3-25.7l-1.2-41.4l-4.3-71.3
			c8.6,0.2,16,0.3,22.3,0.3c6.3,0,13.3-0.1,20.9-0.3c-0.3,7.1-0.5,13-0.5,17.7c0,12.2,0.3,24.6,0.8,37.2c0,0.6,0,1.1,0.1,1.6l-0.4,0
			c0.4,13.1,2.2,72.3,2.2,76.8c0,0,0.1,0.1,0.3,0.3l0.7,19.1c-8.4-0.2-15.2-0.3-20.3-0.3C1141.5,485.7,1134.6,485.8,1125.3,486"/>
		<path id="path40" class="st1" d="M1208.1,489.6c-4.3,0-8.5-0.5-12.6-1.5c-2.9-0.7-5.5-1.7-8-2.9c-1.7-8.6-5.2-24.3-9-40.6
			c3.5,3.5,7.4,6.1,11.8,7.8c4.4,1.8,9.6,2.6,15.4,2.6c4.8,0,10.2-0.8,16.1-2.4c-0.9,14.3-1.3,26.1-1.3,35.4
			C1216.2,489.1,1212.1,489.6,1208.1,489.6"/>
		<path id="path42" class="st1" d="M916.2,539.6c-0.5-31.9-1.8-69.8-3.9-113.7c-2.1-43.9-4-74.3-5.4-91.3c13.4,0.2,21.1,0.3,23,0.3
			c5.7,0,12.7-0.1,20.9-0.3l0.6,28l5.2,122.2l3.6,54.8c-8.5-0.2-15.7-0.3-21.6-0.3C934,539.3,926.6,539.4,916.2,539.6"/>
		<path id="path44" class="st0" d="M747.1,257.3c-12,0-20.7-8.1-20.7-18.3c0-5.8,2.1-9.8,10-15.2c9.6-6.3,10.9-8.6,10.9-12.1
			c0-4.7-3.5-8.5-10.6-8.5c-5,0-10.5,2.3-14,4.7c-1.5-0.3-3-5-1.4-7.4c1.6-2.3,6.7-5.3,14.4-5.3c13.2,0,21.8,8.8,21.8,18.6
			c0,5.4-1.6,9.3-10.1,15.1c-9.6,6.3-11.2,8.5-11.2,12.2c0,5.1,4.3,8.5,9.7,8.5c3.2,0,5.9-1.2,8.1-2c3.2-1.3,5.1,2.3,5.5,5.1
			c-2.1,2.7-7.8,4.6-12.2,4.6H747.1"/>
		<path id="path46" class="st0" d="M794,203.6c-4.3,0-8.9,2-11.3,5.1c0.1,1,0.3,1.8,0.5,3.2c3.5,21.8,18.3,36.3,27.1,36.3h0.1
			c4.6,0,6.9-4.9,6.9-11.3C817.3,220.8,810,203.6,794,203.6z M814.7,257.3c-11,0-20.7-8.9-27.8-20.6h-0.4c1.2,7.9,2.4,16.3,3.1,21.8
			c-2.6,0.3-9-1.6-10.9-3c-0.1-3-1.1-10.5-2.7-21.8c-3-21.4-6.6-44.7-10.4-66.1c3.1,0.1,6.9,0.7,8.9,1.6c1.5,0.7,2.1,2,2.7,5.5
			c0.9,5.9,2.7,16.5,4,25.4c3-3,7.5-5,13.7-5c20.6,0,33.5,20.9,33.5,42.9C828.4,246.1,825.4,257.3,814.7,257.3"/>
		<path id="path48" class="st0" d="M856.3,235.4h-0.4c2.3,15.6,1.2,21.9,0.3,21.9c-1.6,0-7.5-1.4-9.1-2.3c0.8-4,0.1-12.2-0.6-17.1
			c-1.5-12.9-4.4-31.5-6.6-42.1c2.8,0.1,7.4,0.8,9.2,1.6c1.3,0.6,2,2,2.7,5.1c6.5,36.3,19.2,44.4,22.9,44.4c1.6,0,3.2-0.6,4.6-1.3
			c1.6,1.9,4,6.5,3.8,9.4c-0.8,1.2-3,2.3-4.8,2.3C871.7,257.3,863.3,250.3,856.3,235.4"/>
		<path id="path50" class="st0" d="M916.1,250.4h0.1c3.8,0,6.2-2.5,6.2-5.9c0-6.8-7-13.7-24.8-14.8
			C900.1,241.1,907.1,250.4,916.1,250.4z M931.9,245.2c0,7.3-5.2,12.1-13.7,12.1H918c-20.5,0-32.1-21.4-32.1-40
			c0-13.3,5.4-22.1,18.3-22.1c10.2,0,17.9,4.2,22.2,9c1.3,1.5,2,3.5,2,5.5c0,1.6-0.6,3.1-1.5,3.6c-4.2-4.5-10.2-9.7-19.4-9.7
			c-7.7,0-11,5.8-11,14.1c0,1.5,0,3.2,0.3,4.7C910.9,223.2,931.9,229.4,931.9,245.2"/>
		<path id="path52" class="st0" d="M986.7,243.6c-3.8-22.9-18.6-39.4-27.9-39.4h-0.1c-3.5,0-5.4,4-5.4,9.9c0,7.6,1.9,18.3,8.3,26.9
			c5.5,7,12,8.9,18.4,8.9c2.7,0,5.9-0.7,7.5-1.4C987.3,247.5,986.9,244.8,986.7,243.6L986.7,243.6z M956.1,247.5
			c-10.2-10-13.9-24.7-13.9-34.2v-0.1c0-12.4,5-17.9,11.6-17.9c10,0,21.4,7.8,29.5,22.9c-0.3-2-0.7-5.4-0.9-7.3
			c-1-8.7-1.1-15.6-0.3-15.6c1.7,0,6.7,0.7,9.3,1.9c-0.1,3.9,0.5,12.7,1.2,17.8c1.8,15.6,4.9,34.2,6.1,39.7
			c-4.7,1.1-11.3,2.7-16.8,2.7C973.2,257.3,964,255.1,956.1,247.5"/>
		<path id="path54" class="st0" d="M1055.3,242.2c-3.6-22.6-18.8-38-27.6-38h-0.1c-4.2,0-6.5,4.5-6.5,11.3
			c0,17.2,9.3,34.3,24.9,34.3c3.2,0,7.3-1.1,10-3.4C1055.7,245.3,1055.4,243.3,1055.3,242.2L1055.3,242.2z M1061.6,286.6
			c-0.4-5.9-3.2-25.2-4.6-32.4c-2.6,1.7-6.3,3.1-10.9,3.1c-22.6,0-36.1-21.8-36.1-42.7c0-12.7,5-19.4,12.6-19.4h0.1
			c11.2,0,21.9,9.3,29.1,22.2c-0.1-1.3-0.7-4.9-0.8-6.6c-0.8-7.2-0.8-15.6,0-15.6c1.8,0,6.9,0.7,9.4,1.8c-0.1,4.4,0,9.6,1.1,18.7
			c1.5,12.8,7,48.6,10,67.3c0.7,4.2,0.4,5.4-0.7,5.4C1068.9,288.4,1063.6,287.3,1061.6,286.6"/>
		<path id="path56" class="st0" d="M1096.7,286h-0.1c-2,0-6.5-1.5-6.3-7.3c0.1-4.2,2.7-5.6,5.4-5.6c2.7,0,6.6,2.1,6.5,7.1
			C1101.9,284.6,1099.3,286,1096.7,286"/>
		<path id="path58" class="st0" d="M1097.3,257.3c-1.3,0-7.6-1.5-9.3-2.2c0-2.8-0.9-10.3-2.8-24.8c-1.6-12.3-3.9-26.5-5.1-34.6
			c3.8,0.1,8.3,1.2,9.6,1.9c1.1,0.7,1.5,1.5,1.9,4c1.4,9.6,3.6,27.1,6.9,50.6c0.5,4.2,0.3,5-0.9,5H1097.3"/>
		<path id="path60" class="st0" d="M1156.8,257.3c-10.6,0-21.3-9.6-28.8-23.3h-0.3c0.3,2,0.4,3.5,0.7,5.5
			c1.8,13.1,1.5,17.8,0.7,17.8c-1.4,0-8.2-1.5-9.7-2.3c0.1-2.4-0.4-10.3-2.3-23.7c-1.7-12.2-4.2-27.5-5.8-35.5
			c4.7,0.1,7.3,0.7,8.9,1.6c1.3,0.8,2.1,1.9,2.7,5.1c5.6,32.4,21.1,45.8,28.9,45.8c5.1,0,5.1-5.7,4.3-11.7
			c-1.2-8.4-2.8-16.8-3.9-23.6c-2.1-11.4-2.1-17.8-1.5-17.8c1.8,0,7.9,0.8,10.1,1.9c0,2.5,0.4,7.3,2,17.9c1.2,8.3,2.4,14.1,3.4,20.6
			C1168.7,252.5,1163.8,257.3,1156.8,257.3"/>
		<path id="path62" class="st0" d="M1215.6,239.5c0-10.8-5.1-21-13.9-21c-5.5,0-8.9,3.9-8.9,11.6c0,11.2,5.8,20.6,14,20.6
			c6.4,0,8.7-5.5,8.7-11V239.5z M1209.1,192.3c6-2.2,7.7-4.6,7.7-8.2c0-5-5.2-10.1-15.2-10.1h-0.1c-11,0-19.3,5.7-19.3,12.1
			c0,3.1,5,7.7,10.5,10.6C1196.6,195.9,1205.2,193.6,1209.1,192.3z M1218.5,254.2c-2.7,1.6-6.2,3.1-10.9,3.1h-0.1
			c-15.5,0-24.9-13.4-24.9-27.2c0-9.8,4.4-13.6,7.5-15.5c-3.4-2-7.3-5.7-7.3-7.7c0-3.4,2.3-5.9,4-7.3c-6.6-3.8-14.5-9.6-14.5-14.8
			c0-7.8,7.8-18.7,27.1-18.7c16.8,0,27.2,10.4,27.2,20.7c0,5.3-3.2,10.4-9.8,12.8c-4.6,1.6-13.6,4.1-18.2,5.3
			c-4.3,1.2-5.8,2.5-5.8,4.4c0,1.2,1.2,2.3,2.5,3.4c1.3-0.4,3.9-0.8,5.8-0.8c12.5,0.1,24.2,9.4,24.2,26.1c0,2.7-0.7,6.6-1.6,8.5
			c2.3,0,7.1-0.1,9.2-0.1c0.3,2.4,0.7,6.3,1.2,8.6c-2.4-0.5-10.9-1.6-11.9-1.6C1220.9,253.2,1219.7,253.5,1218.5,254.2"/>
		<path id="path64" class="st0" d="M1296.2,272.1c-2.7,0-6.6-1.2-8.5-2.7c-1.5-1.2-3.1-6-4.9-15.1h-5.9c-2.5,0-4.3-4.7-4.3-7.3h9
			c-2-12.7-3.8-22.3-5.1-31.8c-2.1-15.2,2.2-20.1,9.4-20.1c6.6,0,11.9,3,15.6,7c2.4,2.6,3.2,6.9,2,9.6h-0.3c-4.3-5-9-7.9-12.9-7.9
			c-3.4,0-4.6,3-3.6,10.4c0.7,4.9,3,20.7,5,32.8c9,0,12.8,0.1,14.4,1.1c1.9,1.2,3.2,3.6,3.9,6.7c-3.5-0.5-7.9-0.5-16.9-0.5
			C1294.1,261.1,1295.2,266.6,1296.2,272.1"/>
		<path id="path66" class="st0" d="M1346.2,250.4h0.1c3.8,0,6.2-2.5,6.2-5.9c0-6.8-7-13.7-24.7-14.8
			C1330.2,241.1,1337.2,250.4,1346.2,250.4z M1362,245.2c0,7.3-5.2,12.1-13.7,12.1h-0.1c-20.5,0-32-21.4-32-40
			c0-13.3,5.4-22.1,18.3-22.1c10.2,0,17.9,4.2,22.2,9c1.4,1.5,2,3.5,2,5.5c0,1.6-0.5,3.1-1.5,3.6c-4.2-4.5-10.2-9.7-19.4-9.7
			c-7.7,0-11,5.8-11,14.1c0,1.5,0,3.2,0.3,4.7C1341,223.2,1362,229.4,1362,245.2"/>
		<path id="path68" class="st0" d="M1407.2,257.3c-21.3,0-34.3-20.5-34.3-40.5c0-15.9,8.5-21.5,18.2-21.5c9,0,16.6,3.8,21.3,8.6
			c1.6,1.8,2.1,3.4,2.1,5c0,1.6-0.7,3.2-1.6,3.8c-3.5-3.5-10.2-8.9-18.2-8.9c-7.3,0-10.8,5.5-10.8,14.7c0,16.8,9,31.1,22.5,31.1
			c3.2,0,6.1-1,7.6-1.5c1.5-0.3,3.9,3,3.9,5.8c-1.5,2-6.3,3.5-10.5,3.5H1407.2"/>
		<path id="path70" class="st0" d="M1471.9,257.3h-0.1c-9.1,0-20.6-7.3-29.3-23.2c3.9,25.8,5.9,39.8,7.1,48.2c0.6,3.9,0.7,6-0.8,6
			c-2.6,0-6.9-0.9-9.4-1.8c-0.1-2.4-0.6-5.4-2.3-20.2c-1.6-11.7-8.1-57.7-10.6-70.7c4.2,0.1,8.3,0.9,9.7,1.9c0.9,0.7,1.3,2,1.9,5.4
			c5.2,32,20.8,45.5,29.1,45.5c4.6,0,5.1-5,4.2-10.3c-1.8-10.2-3.1-18.1-4.2-24.8c-2.3-13.2-2.1-18.2-1.3-18.2
			c1.6,0,7.2,0.7,9.8,1.9c0.1,3.2,1.1,11.4,2.1,17.9c1.4,7.8,2.6,14.3,3.6,21C1482.8,245,1482.5,257.3,1471.9,257.3"/>
		<path id="path72" class="st0" d="M1541.2,257.3c-10.6,0-21.3-9.6-28.8-23.3h-0.3c0.3,2,0.4,3.5,0.7,5.5
			c1.8,13.1,1.5,17.8,0.7,17.8c-1.3,0-8.2-1.5-9.7-2.3c0.1-2.4-0.4-10.3-2.3-23.7c-1.8-12.2-4.2-27.5-5.8-35.5
			c4.7,0.1,7.3,0.7,8.9,1.6c1.3,0.8,2.1,1.9,2.7,5.1c5.7,32.4,21.1,45.8,29,45.8c5.1,0,5.1-5.7,4.3-11.7c-1.2-8.4-2.8-16.8-3.9-23.6
			c-2.1-11.4-2.1-17.8-1.5-17.8c1.8,0,7.9,0.8,10.1,1.9c0,2.5,0.4,7.3,2,17.9c1.2,8.3,2.4,14.1,3.3,20.6
			C1553.2,252.5,1548.2,257.3,1541.2,257.3"/>
		<path id="path74" class="st0" d="M1587.3,202.4c-5.8,0-10.5,4.3-10.5,14.8c0,17.5,8.9,33,19.5,33h0.1c8.1,0,10.4-7.5,10.4-14.3
			C1606.9,215.3,1597,202.4,1587.3,202.4z M1597.8,257.3h-0.1c-20.7,0-32.3-20.6-32.3-39.2c0-16,7.7-22.9,20.6-22.9
			c18.7,0,32.3,17.2,32.3,39C1618.3,247.2,1612.5,257.3,1597.8,257.3"/>
		<path id="path76" class="st0" d="M1643.5,286.8c-0.1-2.5-1-8.2-2.6-20.2c-1.5-12-8.2-57.7-10.5-70.8c3.8,0.1,7.4,0.8,9.3,1.7
			c1.3,0.7,1.9,1.9,2.4,5c2.4,16.6,9.2,63.4,11.4,80.4c0.6,4,0.4,5.5-0.8,5.5C1650.7,288.4,1645.3,287.6,1643.5,286.8"/>
		<path id="path78" class="st0" d="M1683.7,202.4c-5.8,0-10.5,4.3-10.5,14.8c0,17.5,8.9,33,19.5,33h0.1c8.1,0,10.4-7.5,10.4-14.3
			C1703.2,215.3,1693.4,202.4,1683.7,202.4L1683.7,202.4z M1694.2,257.3h-0.1c-20.7,0-32.3-20.6-32.3-39.2c0-16,7.7-22.9,20.6-22.9
			c18.7,0,32.3,17.2,32.3,39C1714.6,247.2,1708.8,257.3,1694.2,257.3"/>
		<path id="path80" class="st0" d="M1747.7,174h-0.1c-11,0-19.3,5.7-19.3,12.1c0,3.1,5,7.7,10.5,10.6c3.9-0.8,12.5-3.1,16.4-4.4
			c6-2.2,7.7-4.6,7.7-8.2C1762.9,179.1,1757.7,174,1747.7,174z M1753,250.7c6.4,0,8.7-5.5,8.7-11v-0.1c0-10.8-5.1-21-13.9-21
			c-5.5,0-8.9,3.9-8.9,11.6C1739,241.3,1744.8,250.7,1753,250.7L1753,250.7z M1762.9,199.7c-4.6,1.6-13.6,4.1-18.1,5.3
			c-4.3,1.2-5.8,2.5-5.8,4.4c0,1.2,1.2,2.3,2.4,3.4c1.3-0.4,3.9-0.8,5.8-0.8c12.5,0.1,24.2,9.4,24.2,26.1c0,2.7-0.7,6.6-1.6,8.5
			c2.3,0,7.1-0.1,9.1-0.1c0.3,2.4,0.7,6.3,1.2,8.6c-2.4-0.5-10.9-1.6-12-1.6c-1.1-0.1-2.3,0.1-3.5,0.8c-2.7,1.6-6.2,3.1-10.9,3.1
			h-0.1c-15.5,0-24.9-13.4-24.9-27.2c0-9.8,4.4-13.6,7.5-15.5c-3.4-2-7.3-5.7-7.3-7.7c0-3.4,2.3-5.9,4-7.3
			c-6.6-3.8-14.5-9.6-14.5-14.8c0-7.8,7.8-18.7,27.1-18.7c16.8,0,27.2,10.4,27.2,20.7C1772.8,192.1,1769.5,197.3,1762.9,199.7"/>
		<path id="path82" class="st0" d="M1835.9,257.3c-2,0-6-0.8-7.4-1.4c-0.7-11.6-7.3-31.1-20.6-50.2c-0.4,1.1-1.4,3.5-2.2,9.1
			c-1.9,11.4-4,28.8-5.1,40c-0.1,1.5-0.4,2.5-1.6,2.5c-1.9,0-6.5-1-9.1-2.3c0.9-11.8,4.7-37.5,6.9-48.7c1.2-6,2.3-8.6,3.2-10.5
			c-5.3-7.2-15.5-18.2-22.1-24c0-1.9,3.8-4.9,7.7-4.9c5.4,3.9,20.2,20,30.7,35.9c15.3,23,20.8,41.7,20.8,50.9
			C1837.1,255.9,1836.8,257.3,1835.9,257.3"/>
	</g>
</g>
</svg>
