<?xml version="1.0" encoding="UTF-8"?><svg id="logo_Gecor" xmlns="http://www.w3.org/2000/svg" viewBox="0 0 560 120.08"><defs><style>.cls-1{fill:#18b7bc;}</style></defs><path class="cls-1" d="M558.84,108.58c-1.2-1.95-2.49-3.84-3.73-5.77-2.07-3.23-4.12-6.47-6.18-9.7-1.03-1.62-2.08-3.22-3.12-4.83-1.72-2.67-3.46-5.33-5.14-8.02-.49-.79-.67-1.68-.43-2.68,.33-1.33,1.12-2.24,2.26-2.89,2.84-1.61,5.23-3.75,7.49-6.08,2.07-2.14,3.74-4.55,5.12-7.16,1.32-2.48,2.29-5.09,3.06-7.82,.78-2.81,1.19-5.65,1.54-8.52,.13-1.06,.23-2.14,.27-3.21,.14-4.03-.31-8.01-1.07-11.97-1.06-5.53-3.31-10.54-6.82-14.9-7.34-9.11-20.96-13.67-28.26-13.67l-57.13-.02c-1.61,0-2.56,.84-2.75,2.46-.06,.51-.02,4.54-.02,4.54,0,14.52,.14,102.4,.25,103.75,.06,.68,.41,1.22,.97,1.64,1,.74,2.15,.87,3.32,.88,3.09,.03,6.19,0,9.28,0,2.3,0,4.59,.06,6.89-.03,1-.04,2.11-.14,2.97-.6,1.26-.66,1.58-1.95,1.58-3.37-.03-8.9-.02-17.81-.01-26.71,0-.42,0-.84,.02-1.26,.02-.55,.31-.87,.87-.9,.37-.02,.75-.02,1.12-.02,5.25,0,10.5,0,15.74,0,2.58,0,5.15,.03,7.73-.02,.85-.02,1.42,.25,1.82,1,.61,1.16,1.28,2.28,1.92,3.43,1.58,2.87,3.13,5.75,4.71,8.61,1.79,3.23,3.61,6.44,5.4,9.67,1.52,2.74,3,5.49,4.55,8.21,.54,.94,1.26,1.74,2.51,1.78,.6,.02,1.2,.18,1.8,.18,5.9,.01,11.81,.02,17.71,0,.65,0,1.3-.1,1.94-.21,1.81-.34,2.95-1.82,2.68-3.62-.12-.76-.45-1.53-.86-2.19Zm-22.76-66.78c-.27,3.93-.98,7.81-3.47,11.08-1.93,2.53-4.31,4.49-7.28,5.76-2.34,1.01-4.84,1.34-7.27,1.96-.4,.1-.84,.06-1.26,.06-8.67,0-17.33,.01-26,.02-.23,0-.47,0-.7-.01-.63-.02-.92-.38-.93-.99,0-.28,0-.56,0-.84,0-11.9,0-23.8,0-35.7,0-.46,.04-.92,.07-1.54,.69-.1,1.32-.28,1.95-.28,7.26-.02,14.52-.06,21.78,.01,2.51,.03,5.05,.19,7.53,.6,2.96,.5,5.82,1.53,8.26,3.3,2.68,1.95,4.83,4.42,5.96,7.63,1.01,2.89,1.58,5.9,1.37,8.94Z"/><path class="cls-1" d="M214.46,93.84h-57.07q-2.28,0-2.28-2.34v-21.65q0-2.18,2.16-2.18h48.78c2.32,0,4-1.09,4-3.24,0-.56,.17-13.24,.16-13.61-.06-2.12-1.49-3.93-4.11-3.93h-49.9c-.84,0-1.09-.23-1.09-1.12V21.85c0-.61,.36-.55,2.59-.55h54.12c2.69,0,4.69-1.33,4.6-4.62-.1-3.89,0-12.52-.06-12.93-.24-1.71-1.06-2.42-2.76-2.42h-80.97c-1.61,0-2.56,.84-2.75,2.46-.06,.51-.04,106.6-.03,106.97,.05,1.87,1.22,3.4,3.08,3.4h81.58c2.06,0,3.58-1.1,3.58-3.39v-13.35c-.05-2.18-1.47-3.55-3.65-3.58Z"/><path class="cls-1" d="M357.38,59.11c-8.48-.76-17.01-1.52-25.66-2.29-.54,6.25,.14,12.22,1.54,18.13,2.08-.29,24.02-6.68,24.82-7.19-.23-2.86-.46-5.69-.7-8.64Z"/><path class="cls-1" d="M375.14,90.37c-4.5,7.26-9.02,14.55-13.59,21.93,5.41,3.1,11.02,5.2,17.13,6.53,1.61-8.51,3.2-16.93,4.78-25.28-2.81-1.07-5.46-2.08-8.32-3.18Z"/><path class="cls-1" d="M389.45,27.09c.29-2.33,.18-24.73-.15-25.8-6,.1-11.84,1.23-17.63,3.19,.62,2.35,8.85,23.28,9.43,24.09,2.81-.5,5.59-.99,8.35-1.48Z"/><path class="cls-1" d="M360.98,75.57c-.64-1.28-1.17-2.61-1.78-3.99-8.29,2.38-16.45,4.71-24.82,7.11,1.97,6.03,4.59,11.39,8.25,16.37,6.93-5.26,13.74-10.42,20.55-15.58-.78-1.39-1.54-2.62-2.19-3.91Z"/><path class="cls-1" d="M387.19,94.05c-1.61,8.54-3.19,16.88-4.8,25.4,6.14,.85,12.1,.85,18.05-.1,.14-1.23-4.12-24.07-4.67-25.3h-8.59Z"/><path class="cls-1" d="M399.61,93.28c1.58,8.37,3.17,16.8,4.76,25.21,3.35-.07,14.36-4.46,16.84-6.71-4.51-7.28-9.03-14.58-13.49-21.79-2.75,1.12-5.33,2.17-8.1,3.3Z"/><path class="cls-1" d="M357.78,55.15c.8-2.67,1.59-5.3,2.43-8.13-7.6-3.78-15.26-7.58-23.04-11.45-2.64,5.6-4.32,11.33-5.08,17.34,2.34,.38,24.65,2.56,25.68,2.24Z"/><path class="cls-1" d="M412.52,34.62c5.74-6.25,11.49-12.53,17.35-18.91-4.71-4.08-9.8-7.21-15.47-9.6-3.12,8.09-6.18,16.03-9.21,23.9,2.47,1.55,4.86,3.06,7.33,4.6Z"/><path class="cls-1" d="M367.28,36.75c-5.69-6.23-11.45-12.53-17.2-18.81-3.13,2.21-9.6,10.62-11.02,14.32,7.63,3.78,15.28,7.57,22.89,11.34,1.82-2.34,3.53-4.54,5.33-6.84Z"/><path class="cls-1" d="M424.5,55.78c8.49-.8,17-1.61,25.46-2.41,.42-3.19-3-15.15-4.9-17.34-7.68,3.83-15.37,7.66-22.95,11.44,.82,2.87,1.59,5.55,2.39,8.32Z"/><path class="cls-1" d="M365.4,82.61c-6.81,5.17-13.59,10.31-20.44,15.5,3.88,4.73,8.24,8.7,13.38,12.11,4.6-7.3,9.06-14.58,13.52-21.78-2.19-1.98-4.27-3.85-6.46-5.83Z"/><path class="cls-1" d="M420.49,44.1c7.64-3.8,15.29-7.6,23.09-11.47-2.97-5.42-6.52-10.12-10.86-14.41-5.89,6.41-11.7,12.74-17.44,18.99,1.77,2.35,3.45,4.57,5.2,6.89Z"/><path class="cls-1" d="M410.96,88.05c4.51,7.28,8.98,14.51,13.46,21.73,4.49-2.82,9.71-7.66,13.24-12.28-6.9-5.18-13.73-10.31-20.43-15.34-2.18,2.05-4.2,3.96-6.26,5.9Z"/><path class="cls-1" d="M377.45,29.9c-3.1-7.99-6.18-16-9.33-23.98-4.77,1.71-13.37,7.06-15.25,9.47,5.77,6.31,11.54,12.63,17.31,18.93,2.51-1.52,4.85-2.95,7.28-4.43Z"/><path class="cls-1" d="M437.58,58.26c-4.25,.45-8.53,.66-12.69,1.29-.29,2.87-.56,5.55-.84,8.33,8.25,2.37,16.49,4.73,24.86,7.13,1.5-5.94,1.99-11.8,1.65-17.96-4.44,.41-8.71,.76-12.98,1.21Z"/><path class="cls-1" d="M410.9,4.73c-3.96-1.88-15.33-3.9-17.57-3.21V27.11c2.77,.54,5.46,1.06,8.31,1.62,3.05-7.91,6.14-15.92,9.26-24Z"/><path class="cls-1" d="M419.55,78.98c6.82,5.14,13.61,10.26,20.47,15.42,3.34-4.93,5.97-10.04,7.72-15.74-8.31-2.38-16.48-4.72-24.57-7.04-1.23,2.5-2.39,4.85-3.62,7.36Z"/><path class="cls-1" d="M324.56,88.82c-.88-.97-1.76-1.94-2.65-2.9-1.3-1.41-2.57-2.85-3.92-4.21-1.23-1.24-2.85-1.46-4.36-.64-.77,.42-1.45,.99-2.15,1.53-2.93,2.26-6.03,4.25-9.41,5.79-2.46,1.13-4.97,2.11-7.62,2.75-1.78,.43-3.58,.59-5.38,.84-2.87,.4-5.71,.13-8.52-.22-2.3-.29-4.54-1.01-6.73-1.85-5.73-2.19-10.53-5.63-14.39-10.36-3.29-4.04-5.5-8.64-6.76-13.71-.61-2.46-.95-4.96-1.04-7.47-.07-2.28,.01-4.6,.37-6.85,.59-3.74,1.57-7.4,3.45-10.75,1-1.79,1.95-3.65,3.21-5.25,2.26-2.87,4.83-5.42,7.89-7.51,3.64-2.49,7.6-4.27,11.83-5.19,3.24-.71,6.57-1.21,10-.77,3.21,.41,6.36,.93,9.36,2.11,5.59,2.19,10.59,5.35,14.97,9.47,1.67,1.57,3.9,1.51,5.4-.26,1.63-1.92,3.18-3.92,4.78-5.86,1.55-1.87,3.07-3.76,4.69-5.57,1.46-1.63,1.35-4.13,.13-5.24-1.27-1.16-2.58-2.32-3.99-3.3-2.34-1.62-4.76-3.14-7.18-4.63-2.4-1.48-4.93-2.66-7.54-3.67h0c-.5-.22-.99-.43-1.49-.64-3.46-1.45-7.05-2.52-10.72-3.26-4.66-.94-9.37-1.38-14.13-1.13-5.48,.23-9.63,1.22-12.53,1.98-3.01,.78-5.94,1.81-8.78,3.06h0c-2.57,1.02-5.06,2.25-7.47,3.64-2.84,1.64-5.52,3.51-8.01,5.65-2.49,2.14-4.94,4.29-6.99,6.86-2.95,3.7-5.51,7.64-7.54,11.94-1.46,3.09-2.57,6.3-3.44,9.6-.46,1.75-.75,3.55-1.06,5.34-.24,1.38-.55,2.77-.53,4.16,.03,2.28-.23,4.55-.11,6.85,.13,2.47,.23,4.94,.61,7.39,.45,2.85,.96,5.69,1.86,8.43,1.11,3.37,2.39,6.69,4.09,9.82,1.97,3.63,4.21,7.09,6.94,10.17,4.33,4.9,9.29,9.06,15.04,12.25,4.44,2.46,9.12,4.35,14.01,5.62,2.96,.77,7.22,1.79,12.83,2.03,4.87,.25,9.7-.2,14.47-1.16,3.76-.76,7.44-1.86,10.98-3.34,5.01-2.09,9.81-4.58,14.19-7.81,2.03-1.49,3.98-3.1,5.95-4.68,1.8-1.44,1.87-4.09,.49-5.64-1.03-1.15-2.08-2.28-3.12-3.42Z"/><path class="cls-1" d="M109.51,47.69c-1.52-.88-3.19-1.03-4.87-1.04-7.78-.03-15.56-.01-23.33-.01-7.68,0-15.37,0-23.05,.01-.79,0-1.58,.1-2.36,.25-1.99,.38-3.36,2.01-3.37,4.06-.02,5.25-.02,10.5,0,15.74,0,.54,.11,1.13,.33,1.62,.81,1.79,2.3,2.47,4.2,2.47,9.09,0,18.18,0,27.27,0,.33,0,.66-.01,.98,0,1.23,.05,1.47,.4,.92,1.46-.58,1.12-1.24,2.2-1.92,3.27-1.63,2.59-3.6,4.93-5.94,6.87-2.89,2.39-6.02,4.42-9.53,5.84-3.24,1.31-6.61,2.06-10.07,2.21-2.46,.11-4.92,.17-7.39-.43-1.72-.41-3.48-.66-5.14-1.29-3.47-1.31-6.76-2.93-9.64-5.34-1.84-1.54-3.57-3.15-5.1-5-1.62-1.96-2.91-4.12-4.09-6.35-1.27-2.42-2.19-5-2.68-7.66-.64-3.49-.83-7.02-.44-10.6,.41-3.73,1.44-7.25,3.09-10.56,2.39-4.79,5.69-8.88,10.05-12.05,4.02-2.92,8.39-5.01,13.29-6.02,2.37-.49,4.74-.47,7.12-.49,4.43-.05,8.6,1.03,12.6,2.85,2.3,1.05,4.5,2.27,6.43,3.92,1.31,1.12,2.61,2.26,3.91,3.4,1.32,1.16,2.76,1.64,4.52,1.13,1.04-.3,1.85-.88,2.59-1.6,1.44-1.41,2.85-2.84,4.28-4.27,1.78-1.79,3.56-3.58,5.33-5.37,2.55-2.58,1.84-5.51,.05-7.19-2.22-2.08-4.42-4.17-6.87-5.99-3.18-2.36-14.28-10.96-36.18-10.96-10.57,0-21.01,4.95-21.06,4.97h0c-2.18,1-4.3,2.13-6.36,3.4-2.96,1.83-5.74,3.86-8.25,6.26-1.75,1.68-3.53,3.35-5.12,5.18-2.15,2.47-4.1,5.11-5.71,7.96-1.2,2.11-2.27,4.29-3.32,6.48-1.44,3.01-2.33,6.21-3.15,9.43-.47,1.85-.74,3.75-1.02,5.64-.19,1.24-.31,2.5-.36,3.76-.09,2.43-.26,4.87-.11,7.28,.2,3.35,5.02,48.56,5.23,50.79,.15,1.55,.69,2.02,2.26,2.07,2.85,.08,50.46,.63,53.18,.63,5.75,0,16.15-3.28,17.42-3.85,8.4-3.73,14.8-8.57,18.82-12.45,1.04-1,1.96-2.14,2.95-3.2,2.15-2.3,3.91-4.9,5.55-7.56,1.22-1.98,2.32-4.07,3.25-6.2,1.14-2.6,2.25-5.25,3.01-7.98,.81-2.91,1.41-5.91,1.72-8.91,.34-3.29,.38-6.63,.32-9.95-.05-2.99-1.68-5.15-4.25-6.63Z"/></svg>