<?xml version="1.0" encoding="UTF-8"?><svg id="Livello_1" xmlns="http://www.w3.org/2000/svg" viewBox="0 0 560 80.2"><path d="M540,26.5l-19.7,52.3h-8.8l-19.6-52.3v52.3h-20V1.2h27.8l16.1,43.9L532.1,1.2h27.9V78.8h-20V26.5Z"/><path d="M391.8,1.2h56.8V18.1h-36.8v12.9h36v17h-36v14h36.9v16.8h-56.8V1.2h-.1Z"/><path d="M329.1,18.7h-21.8V1.2h63.4V18.6h-21.7v60.1h-20V18.7h.1Z"/><path d="M234.1,31.9v46.9h-20V1.2h20.5l31.4,44.7V1.2h20.2V78.8h-19.3l-32.8-46.9Z"/><path d="M151.1,0c23.8,0,41.3,16.5,41.3,40.1s-17.7,40.1-41.3,40.1-41.5-16.5-41.5-40.1S127.3,0,151.1,0Zm0,17.7c-12.9,0-21.2,9.8-21.2,22.4s8.3,22.4,21.2,22.4,21-9.9,21-22.4-8.2-22.4-21-22.4Z"/><path d="M67.9,26.5l-19.6,52.3h-8.8L19.9,26.5v52.3H0V1.2H27.8l16.2,43.9L60.1,1.2h27.9V78.8h-20V26.5h-.1Z"/></svg>