<?xml version="1.0" encoding="UTF-8"?><svg id="logo_Respira" xmlns="http://www.w3.org/2000/svg" viewBox="0 0 560 281.65"><path d="M384.52,134.97c-.05,8.15-6.52,14.73-14.57,14.79-8.24,.07-14.76-6.72-14.7-15.29,.06-8.15,6.58-14.58,14.72-14.53,8.27,.05,14.59,6.58,14.55,15.03Z"/><g><path d="M548.61,236.06c-1.55,4.8-2.98,9.18-4.49,13.86-9.23,.74-17.22-1.07-22.81-9.27-1.86,1.54-3.61,3.05-5.41,4.47-4.73,3.71-10.19,5.42-16.14,5.6-4.43,.13-8.83,0-13.17-1.19-9.96-2.73-15.44-9.38-17.18-19.32-.88-5.02-.92-10.05,.41-15.06,1.57-5.95,5.05-10.34,10.35-13.36,5.03-2.87,10.53-4.32,16.21-4.92,6.08-.64,12.19-.91,18.29-1.34,.61-.04,1.22-.12,2.13-.2,0-2.11,.18-4.1-.04-6.05-.41-3.64-2.71-6.36-6.38-6.92-3.41-.52-6.93-.63-10.37-.46-6.64,.34-13.2,1.32-19.51,3.59-.37,.13-.8,.12-1.44,.22-1.44-5.65-2.86-11.23-4.32-16.98,4.13-2.36,8.36-3.88,12.7-5.11,12.19-3.44,24.48-4.03,36.88-1.15,11.25,2.61,17.39,10.53,17.85,22.66,.45,11.91,.09,23.85,.19,35.78,.02,2.51,.25,5.08,.82,7.52,.73,3.15,2.56,5.75,5.46,7.63Zm-31.97-8v-16.69c-5.35,.36-10.51,.22-15.45,1.92-3.91,1.34-6.59,3.92-6.84,8.17-.39,6.64,2.2,12.05,10.47,11.6,4.61-.25,8.41-2.31,11.82-5.01Z"/><path d="M404.44,163.3h19.41c.68,3.59,1.34,7.08,2.06,10.89,.59-1.02,1.04-1.81,1.5-2.6,3.05-5.18,7.78-7.89,13.51-8.99,7.54-1.44,14.49-.44,20.99,3-1.3,6.41-2.62,12.96-3.96,19.6-2.79-.62-5.29-1.33-7.85-1.73-11.32-1.77-20.2,5.77-20.28,17.32-.1,13.3-.02,26.61-.02,39.91,0,2.41,0,4.82,0,7.47h-25.35v-84.86Z"/><path d="M359.17,183.53c-2.92-.5-5.49-.94-8.14-1.4-.07-.67-.18-1.18-.18-1.69-.01-5.58,0-11.16,0-17.01h33.41v84.74h-25.08v-64.65Z"/><path d="M290.18,281.65h-25.3v-118.49c3.29,0,6.52,0,9.75,0s6.53,0,10.02,0c.53,2.68,1.03,5.22,1.61,8.12,.83-.76,1.41-1.28,1.98-1.81,10.03-9.48,20.91-11.07,33.92-6.11,5.54,2.11,9.47,6.2,12.24,11.41,2.86,5.39,4.3,11.21,5.03,17.19,1.08,8.83,1.33,17.71-.04,26.51-.75,4.85-1.93,9.75-3.76,14.29-5.04,12.46-15.2,18.63-28.62,18.18-6.39-.22-11.86-2.45-16.84-7.22v37.94Zm0-54.87c3.35,3.05,7.37,4.11,11.68,4.01,4.78-.12,8.19-2.43,9.96-6.97,.38-.98,.76-1.97,1.02-2.98,2.15-8.52,1.96-17.14,.86-25.76-.36-2.78-1.17-5.57-2.21-8.19-1.48-3.74-4.44-5.71-8.52-6.05-5.14-.43-9.1,1.92-12.79,4.9v41.03Z"/><path d="M183.28,244.85c1.28-5.95,2.51-11.68,3.8-17.69,.96,.17,1.74,.31,2.53,.45,5.79,1.05,11.56,2.31,17.39,3.09,4.2,.56,8.43,.08,12.42-1.58,2.38-.99,4.09-2.57,4.26-5.37,.19-3.03-.83-4.91-3.96-6.08-2.75-1.03-5.69-1.51-8.47-2.47-4.77-1.64-9.65-3.08-14.17-5.28-8.82-4.29-12.79-11.7-12.94-21.47-.12-8.16,2.11-15.17,8.48-20.56,4.14-3.5,8.99-5.59,14.26-6.38,13.08-1.95,25.85-.65,38.15,4.42,.38,.16,.72,.42,1.36,.79-1.09,5.9-2.19,11.86-3.35,18.08-2.6-.74-4.98-1.44-7.37-2.09-6.06-1.65-12.22-2.27-18.48-1.73-1.33,.12-2.7,.49-3.93,1.03-2.14,.93-3.1,2.68-3.13,5.04-.04,2.37,.85,4.19,3.02,5.09,2.52,1.05,5.13,1.88,7.73,2.74,4.39,1.45,8.85,2.72,13.2,4.3,10.18,3.69,15.39,11.08,15.5,21.86,.04,3.54-.18,7.23-1.13,10.62-2.83,10.08-10.37,15.19-20.01,17.77-6.32,1.69-12.78,1.56-19.19,1.14-8.11-.53-16.08-2.06-23.76-4.83-.59-.21-1.16-.47-2.2-.89Z"/><path d="M169.23,214.59h-45.55c.03,8.41,4.72,13.84,12.57,15.17,5.92,1.01,11.78,.54,17.63-.36,4.34-.67,8.64-1.61,13.24-2.49,1.02,5.57,2.01,11.03,3.02,16.6-4.26,2.33-8.64,3.75-13.13,4.87-10.14,2.53-20.43,3.29-30.74,1.58-13.77-2.28-22.98-10.23-26.73-23.73-3.89-14.01-3.84-28.17,.43-42.1,4.18-13.64,13.93-20.82,27.82-22.85,6.66-.97,13.31-1.07,19.74,.94,13.85,4.33,21.61,14.17,23.98,28.23,1.47,8.7,.48,16.59-2.3,24.13Zm-21.44-17.51c-.38-2.62-.52-5.04-1.12-7.33-1.27-4.87-4.47-7.6-9.44-7.99-4.92-.38-9.25,.88-11.92,5.48-1.73,2.98-2.25,6.28-2.37,9.84h24.85Z"/><path d="M56.52,248.18c-2.64-7.74-5.16-15.43-7.89-23.04-1.35-3.75-2.94-7.43-4.68-11.02-1.82-3.74-4.82-5.68-9.19-5.35-2.82,.21-5.66,.04-8.87,.04v38.86c-2.6,.87-21.98,1.04-25.88,.32v-114.57c.97-.07,1.78-.19,2.6-.19,13.82,.06,27.65,.03,41.47,.25,6.13,.1,12.14,1.32,17.93,3.41,10.55,3.81,16.78,11.32,18.75,22.3,1.66,9.24,.89,18.27-2.9,26.94-3.34,7.64-6.89,11.26-14.53,14.87,5.58,4.03,8.05,9.9,10.08,16.09,3.02,9.2,6.15,18.35,9.23,27.53,.36,1.08,.67,2.17,1.1,3.55h-27.21Zm-30.51-93.44v33.15c5.91,0,11.61,.33,17.25-.1,5.12-.38,8.68-3.4,10.5-8.36,1.45-3.97,1.47-8.06,1.23-12.17-.36-6.11-3.46-10.08-9.38-11.62-6.41-1.66-12.94-.67-19.6-.91Z"/></g><g><path d="M534.91,128.1c-14.21-10.35-30.37-15.22-47.67-16.83-2.8-.26-5.61-.44-8.36-.65v-8.88c3.03,0,5.76,.06,8.49-.01,8.6-.23,15.47-5.07,18.22-12.77,2.84-7.95,.58-15.89-6.16-21.6-.4-.34-.94-.5-1.14-.6,4.36-14.13,1.67-21.2-10.24-28.02-1.21-10.47-5.23-16.47-13.07-19-7.39-2.39-14.07-.83-19.45,4.76-6.26,6.5-6.88,14.12-3.43,22.46-5.39,5.81-6.17,12.76-4.08,20.35-.81,.71-1.58,1.28-2.22,1.97-5.14,5.67-6.49,12.3-4.09,19.41,2.37,7.03,7.42,11.5,14.89,12.56,3.73,.53,7.57,.36,11.36,.49,1.23,.04,2.46,0,3.76,0v9.32c-12.92,.87-25.16,3.98-37.01,9.27v-12.47c3.61-.97,7.14-1.88,10.02-4.65-1.39-1.76-2.65-3.37-3.74-4.74-2.32,.94-4.21,1.7-6.61,2.67v-15.6h-6.28v15.37c-5.59-1.36-9.16-4.5-11.21-9.38-1.6-3.8-1.16-7.65,.13-11.44,3.65-10.7,8.6-20.82,13.79-30.83,.11-.2,.46-.28,.81-.48,2.17,4.29,4.28,8.48,6.53,12.94,2.11-1.09,3.91-2.02,5.77-2.98-4.04-8.36-7.93-16.34-12.72-24.54-3.27,6.3-6.33,11.94-9.17,17.69-4.57,9.26-8.92,18.59-11.96,28.51-3.19,10.42,3.02,22.81,14.29,26.43,1.18,.38,2.38,.68,3.64,1.03v16.03c-7.15,4.49-13.76,9.63-18.35,17.3,1.94,1.18,3.68,2.24,5.49,3.34,7.78-11.17,18.72-17.29,30.82-21.64,6.95-2.5,14.16-3.98,21.54-4.75,14.69-1.52,29.08-.22,43.02,4.67,12.13,4.25,23.1,10.33,30.72,21.19,.1,.14,.37,.17,.77,.33,1.56-.96,3.22-1.98,5-3.08-.47-.85-.72-1.42-1.06-1.92-2.98-4.43-6.74-8.11-11.04-11.24Zm-51.9-57.93c-1.44,.83-2.69,1.55-4.38,2.52v-22.01h-6.57v10.39c-2.94-1.42-5.35-2.59-8.02-3.89-.98,1.94-1.86,3.71-2.93,5.83,3.58,1.85,7.08,3.66,10.66,5.52v14.67c-2.63-1.3-5.03-2.48-7.74-3.81-.98,2-1.88,3.83-2.89,5.89,3.62,1.87,7.06,3.65,10.61,5.48v3.92c-5.01,0-10.01,.53-14.84-.15-4.96-.7-8.15-4.26-9.34-9.21-1.2-4.97,.34-9.14,4.15-12.5,.63-.55,1.39-.95,2.07-1.45,1.93-1.41,2.42-2.74,1.37-4.92-3.03-6.25-1.96-11.59,3.17-16.23,.74-.66,1.15-1.69,1.78-2.66-.66-1.24-1.23-2.35-1.83-3.44-2.67-4.81-2.03-10.68,1.59-14.71,3.44-3.82,9.14-5.07,13.89-3.05,4.99,2.13,8.01,7.2,7.58,12.71q-.35,4.5,3.96,5.97c7.92,2.71,11.05,11.82,6.48,18.84-.23,.35-.5,.68-.74,1.03-1.82,2.74-1.43,4.36,1.39,5.88,.56,.3,1.14,.55,1.68,.88,4.86,2.94,7.1,8.67,5.58,14.24-1.42,5.22-6.1,8.81-11.7,8.93-2.94,.06-5.88,.01-9.11,.01v-13.98c2.36-1.64,4.93-3.44,7.68-5.36-1.22-1.85-2.36-3.57-3.54-5.36Z"/><path d="M528.76,47.54c8.78-.11,15.64-7.19,15.58-16.08-.07-9.02-7.12-15.96-16.12-15.86-8.63,.09-15.6,7.42-15.43,16.25,.17,8.9,7.19,15.81,15.97,15.7Zm-.34-25.38c4.98-.1,9.25,4.1,9.33,9.2,.08,5.34-4,9.59-9.2,9.59-5.07,0-9.14-4.13-9.17-9.3-.03-5.17,3.98-9.38,9.03-9.49Z"/><path d="M525.45,63.36h6.22v-9.52h-6.22v9.52Z"/><path d="M531.72,0h-6.26V9.29h6.26V0Z"/><path d="M504.01,51.75c1.71,1.6,3.16,2.94,4.46,4.16,2.33-2.16,4.56-4.22,6.62-6.13-1.45-1.66-2.81-3.22-3.76-4.31-2.54,2.18-4.91,4.2-7.33,6.27Z"/><path d="M541.85,49.3c2.38,2.35,4.59,4.52,6.69,6.59,1.34-1.35,2.78-2.8,4.19-4.22-2.08-2.1-4.2-4.26-6.18-6.26-1.65,1.36-3.18,2.63-4.7,3.89Z"/><path d="M515.17,13.75c-2.4-2.41-4.52-4.55-6.28-6.32-1.6,1.23-3.24,2.49-4.72,3.63,2.4,2.52,4.54,4.77,6.8,7.14,1.53-1.62,2.93-3.1,4.21-4.45Z"/><path d="M552.76,11.15c-1.38-1.37-2.77-2.75-3.82-3.79-2.38,2.05-4.72,4.06-7.12,6.12l4.06,3.91c2.32-2.11,4.61-4.18,6.88-6.25Z"/><path d="M506.59,28.45h-9.29v6.2h9.29v-6.2Z"/><path d="M559.99,31.03c-.01-.82-.08-1.63-.13-2.57h-9.29v6.17h9.42c0-1.32,.02-2.46,0-3.6Z"/></g></svg>